<?xml version="1.0" encoding="UTF-8"?>
<!DOCTYPE svg PUBLIC "-//W3C//DTD SVG 1.1//EN" "http://www.w3.org/Graphics/SVG/1.1/DTD/svg11.dtd">
<svg xmlns="http://www.w3.org/2000/svg" version="1.1" width="1280px" height="510px" style="shape-rendering:geometricPrecision; text-rendering:geometricPrecision; image-rendering:optimizeQuality; fill-rule:evenodd; clip-rule:evenodd" xmlns:xlink="http://www.w3.org/1999/xlink">
<g><path style="opacity:0.982" fill="#01896f" d="M 309.5,14.5 C 353.618,17.0253 396.285,26.8586 437.5,44C 446.882,48.1079 456.049,52.6079 465,57.5C 481.333,53.758 497.833,52.0914 514.5,52.5C 511.501,58.5016 508.001,64.1683 504,69.5C 498.543,74.8916 492.543,79.5583 486,83.5C 486.303,121.722 481.636,159.389 472,196.5C 469.919,205.496 466.919,214.162 463,222.5C 462.172,198.731 460.172,175.064 457,151.5C 455.429,140.882 452.762,130.548 449,120.5C 447.503,116.835 445.503,113.502 443,110.5C 421.053,123.225 398.553,135.059 375.5,146C 367.251,150.707 359.084,155.541 351,160.5C 351.398,158.369 352.398,156.369 354,154.5C 370.401,137.775 384.901,119.609 397.5,100C 351.822,102.001 306.488,107.001 261.5,115C 292.872,99.6549 325.539,87.6549 359.5,79C 373.879,75.5266 388.212,72.1933 402.5,69C 398.869,65.1901 394.869,61.8568 390.5,59C 364.608,42.3037 337.608,27.4704 309.5,14.5 Z"/></g>
<g><path style="opacity:0.981" fill="#01896f" d="M 211.5,134.5 C 213.288,134.215 214.955,134.548 216.5,135.5C 209.267,145.631 203.934,156.631 200.5,168.5C 237.355,173.895 271.688,186.229 303.5,205.5C 303,205.833 302.5,206.167 302,206.5C 271.796,200.263 241.296,198.096 210.5,200C 202.028,200.496 193.695,201.829 185.5,204C 181.649,211.874 178.483,220.04 176,228.5C 170.879,247.319 166.545,266.319 163,285.5C 159.757,279.445 157.09,273.112 155,266.5C 149.724,250.839 144.557,235.172 139.5,219.5C 110.275,239.545 82.9415,262.045 57.5,287C 56.6683,287.688 56.0016,287.521 55.5,286.5C 72.3405,252.177 93.6738,221.01 119.5,193C 113.226,188.029 106.226,184.362 98.5,182C 85.3435,178.644 72.0102,176.311 58.5,175C 73.4122,169.884 88.7455,166.55 104.5,165C 121.836,163.451 139.17,163.117 156.5,164C 173.431,151.535 191.764,141.702 211.5,134.5 Z"/></g>
<g><path style="opacity:0.924" fill="#000000" d="M 1221.5,282.5 C 1233.54,283.059 1245.54,284.059 1257.5,285.5C 1257.5,291.167 1257.5,296.833 1257.5,302.5C 1250.5,300.778 1243.5,298.945 1236.5,297C 1228.48,295.093 1220.48,295.093 1212.5,297C 1207.23,300.819 1207.23,304.819 1212.5,309C 1223.86,314.12 1235.52,318.453 1247.5,322C 1255.25,324.61 1261.08,329.443 1265,336.5C 1267.45,345.43 1264.95,352.597 1257.5,358C 1242.35,365.397 1226.35,368.063 1209.5,366C 1201.75,365.265 1194.09,364.098 1186.5,362.5C 1186.17,356.794 1186.5,351.128 1187.5,345.5C 1202.75,353.083 1218.75,355.583 1235.5,353C 1242.04,351.428 1243.87,347.595 1241,341.5C 1239.59,340.213 1238.09,339.046 1236.5,338C 1222.75,332.863 1209.09,327.529 1195.5,322C 1182.73,313.472 1181.39,303.472 1191.5,292C 1200.81,286.345 1210.81,283.178 1221.5,282.5 Z"/></g>
<g><path style="opacity:0.929" fill="#000000" d="M 252.5,285.5 C 271.503,285.333 290.503,285.5 309.5,286C 320.675,285.941 330.175,289.775 338,297.5C 340.91,304.466 339.41,310.299 333.5,315C 328.087,318.095 322.421,320.428 316.5,322C 326.387,323.508 334.887,327.674 342,334.5C 346.932,345.372 344.098,353.538 333.5,359C 323.203,362.938 312.536,364.938 301.5,365C 285.17,365.5 268.837,365.667 252.5,365.5C 253.738,338.835 253.738,312.169 252.5,285.5 Z M 277.5,294.5 C 288.399,293.8 299.066,294.967 309.5,298C 317.116,306.822 315.116,312.822 303.5,316C 298.825,316.797 294.159,317.63 289.5,318.5C 288.167,321.167 286.833,323.833 285.5,326.5C 292.515,327.585 299.515,328.752 306.5,330C 313.3,331.634 317.634,335.801 319.5,342.5C 318.951,346.555 316.951,349.722 313.5,352C 301.933,356.206 290.099,357.373 278,355.5C 277.5,335.169 277.333,314.836 277.5,294.5 Z"/></g>
<g><path style="opacity:0.935" fill="#000000" d="M 362.5,285.5 C 371.506,285.334 380.506,285.5 389.5,286C 403.753,301.582 417.253,317.749 430,334.5C 429.949,318.162 429.449,301.829 428.5,285.5C 435.833,285.5 443.167,285.5 450.5,285.5C 449.406,312.17 449.406,338.837 450.5,365.5C 444.463,365.829 438.463,365.496 432.5,364.5C 419.52,349.019 406.354,333.686 393,318.5C 389.837,314.844 387.171,310.844 385,306.5C 384.483,326.172 384.65,345.839 385.5,365.5C 378.167,365.5 370.833,365.5 363.5,365.5C 363.769,338.817 363.436,312.15 362.5,285.5 Z"/></g>
<g><path style="opacity:0.924" fill="#000000" d="M 476.5,285.5 C 496.531,285.118 516.531,285.618 536.5,287C 546.451,287.727 554.951,291.561 562,298.5C 568.107,313.177 563.607,323.01 548.5,328C 533.061,331.744 517.395,333.244 501.5,332.5C 501.5,343.5 501.5,354.5 501.5,365.5C 492.808,365.831 484.141,365.498 475.5,364.5C 476.22,343.7 476.887,322.866 477.5,302C 476.835,296.518 476.502,291.018 476.5,285.5 Z M 505.5,294.5 C 514.352,294.356 523.019,295.523 531.5,298C 541.744,304.482 542.078,311.482 532.5,319C 522.418,322.123 512.085,323.289 501.5,322.5C 501.5,313.5 501.5,304.5 501.5,295.5C 503.099,295.768 504.432,295.434 505.5,294.5 Z"/></g>
<g><path style="opacity:0.927" fill="#000000" d="M 617.5,285.5 C 637.531,285.118 657.531,285.618 677.5,287C 687.451,287.727 695.951,291.561 703,298.5C 709.107,313.177 704.607,323.01 689.5,328C 674.061,331.744 658.395,333.244 642.5,332.5C 642.5,343.5 642.5,354.5 642.5,365.5C 633.808,365.831 625.141,365.498 616.5,364.5C 617.216,356.692 617.883,348.859 618.5,341C 618.036,322.503 617.702,304.003 617.5,285.5 Z M 646.5,294.5 C 655.352,294.356 664.019,295.523 672.5,298C 682.744,304.482 683.078,311.482 673.5,319C 663.418,322.123 653.085,323.289 642.5,322.5C 642.5,313.5 642.5,304.5 642.5,295.5C 644.099,295.768 645.432,295.434 646.5,294.5 Z"/></g>
<g><path style="opacity:0.928" fill="#000000" d="M 741.5,285.5 C 748.09,285.189 754.59,285.522 761,286.5C 775.246,312.661 789.746,338.661 804.5,364.5C 795.518,365.665 786.518,365.832 777.5,365C 774.372,359.245 771.372,353.412 768.5,347.5C 755.179,346.334 741.846,346.167 728.5,347C 725.445,352.833 722.778,358.833 720.5,365C 712.812,365.831 705.145,365.665 697.5,364.5C 712.939,338.623 727.606,312.29 741.5,285.5 Z M 748.5,309.5 C 753.636,318.166 758.636,326.999 763.5,336C 753.5,336.667 743.5,336.667 733.5,336C 738.385,327.058 743.385,318.225 748.5,309.5 Z"/></g>
<g><path style="opacity:0.918" fill="#000000" d="M 815.5,285.5 C 836.533,285.097 857.533,285.597 878.5,287C 887.882,287.775 895.715,291.608 902,298.5C 906.13,307.122 904.297,314.288 896.5,320C 890.713,322.894 884.713,325.227 878.5,327C 889.729,339.059 900.395,351.559 910.5,364.5C 900.851,365.665 891.184,365.832 881.5,365C 871.273,349.438 860.273,334.438 848.5,320C 857.045,319.286 865.378,317.619 873.5,315C 881.458,305.874 879.458,299.541 867.5,296C 858.886,294.703 850.219,294.203 841.5,294.5C 841.5,318.167 841.5,341.833 841.5,365.5C 833.167,365.5 824.833,365.5 816.5,365.5C 816.798,338.808 816.465,312.141 815.5,285.5 Z"/></g>
<g><path style="opacity:0.946" fill="#000000" d="M 923.5,285.5 C 932.167,285.5 940.833,285.5 949.5,285.5C 948.181,312.167 948.181,338.834 949.5,365.5C 940.5,365.5 931.5,365.5 922.5,365.5C 924.8,338.879 925.134,312.212 923.5,285.5 Z"/></g>
<g><path style="opacity:0.927" fill="#000000" d="M 974.5,285.5 C 993.503,285.333 1012.5,285.5 1031.5,286C 1042.11,285.978 1051.28,289.478 1059,296.5C 1062.85,303.566 1061.68,309.733 1055.5,315C 1050.09,318.095 1044.42,320.428 1038.5,322C 1048.39,323.508 1056.89,327.674 1064,334.5C 1069.26,347.049 1065.42,355.549 1052.5,360C 1043.12,363.285 1033.45,364.952 1023.5,365C 1007.17,365.5 990.837,365.667 974.5,365.5C 975.661,338.836 975.661,312.169 974.5,285.5 Z M 999.5,294.5 C 1008.21,294.248 1016.88,294.748 1025.5,296C 1032.77,297.252 1036.27,301.418 1036,308.5C 1033.69,312.58 1030.19,315.08 1025.5,316C 1020.83,316.797 1016.16,317.63 1011.5,318.5C 1010.17,321.167 1008.83,323.833 1007.5,326.5C 1014.51,327.585 1021.51,328.752 1028.5,330C 1038.17,332.289 1042,338.122 1040,347.5C 1034.12,353.436 1026.95,356.269 1018.5,356C 1012.25,356.809 1006.08,356.642 1000,355.5C 999.5,335.169 999.333,314.836 999.5,294.5 Z"/></g>
<g><path style="opacity:0.927" fill="#000000" d="M 1115.5,285.5 C 1121.84,285.334 1128.18,285.5 1134.5,286C 1149.55,311.924 1164.21,338.091 1178.5,364.5C 1169.5,365.833 1160.5,365.833 1151.5,364.5C 1148.75,358.675 1145.75,353.008 1142.5,347.5C 1129.17,346.167 1115.83,346.167 1102.5,347.5C 1099.04,353.087 1096.7,359.087 1095.5,365.5C 1087.49,365.666 1079.49,365.5 1071.5,365C 1086.83,338.848 1101.49,312.348 1115.5,285.5 Z M 1122.5,309.5 C 1128.11,317.865 1133.11,326.698 1137.5,336C 1127.82,336.832 1118.15,336.665 1108.5,335.5C 1113.18,326.806 1117.85,318.14 1122.5,309.5 Z"/></g>
<g><path style="opacity:0.981" fill="#01896f" d="M 49.5,309.5 C 50.1174,309.611 50.6174,309.944 51,310.5C 55.2933,335.881 63.4599,359.881 75.5,382.5C 90.8563,380.583 106.356,378.249 122,375.5C 122.5,375.833 123,376.167 123.5,376.5C 113.973,388.887 107.14,402.554 103,417.5C 119.299,432.407 137.799,443.907 158.5,452C 137.548,451.814 117.048,448.647 97,442.5C 95.911,446.048 95.411,449.715 95.5,453.5C 95.9363,463.321 97.1029,472.988 99,482.5C 83.103,466.873 70.2696,449.04 60.5,429C 43.8578,421.685 28.1911,412.851 13.5,402.5C 24.2796,396.949 35.6129,392.782 47.5,390C 48.428,389.612 49.0946,388.945 49.5,388C 47.4191,377.11 46.4191,366.11 46.5,355C 47.0157,339.797 48.0157,324.63 49.5,309.5 Z"/></g>
<g><path style="opacity:0.967" fill="#01896f" d="M 326.5,408.5 C 327.239,408.369 327.906,408.536 328.5,409C 314.531,424.309 299.364,438.143 283,450.5C 283.065,456.995 284.232,463.328 286.5,469.5C 286,469.833 285.5,470.167 285,470.5C 276.514,471.452 268.014,471.618 259.5,471C 238.689,482.412 216.689,490.412 193.5,495C 204.891,487.632 215.558,479.299 225.5,470C 214.315,466.77 203.648,462.27 193.5,456.5C 211.91,456.116 229.91,453.283 247.5,448C 257.719,435.954 267.719,423.787 277.5,411.5C 278.522,419.812 279.356,428.145 280,436.5C 296.458,428.496 311.958,419.163 326.5,408.5 Z"/></g>
</svg>
