<?xml version="1.0" encoding="UTF-8"?>
<!DOCTYPE svg PUBLIC "-//W3C//DTD SVG 1.1//EN" "http://www.w3.org/Graphics/SVG/1.1/DTD/svg11.dtd">
<svg xmlns="http://www.w3.org/2000/svg" version="1.1" width="1920px" height="918px" style="shape-rendering:geometricPrecision; text-rendering:geometricPrecision; image-rendering:optimizeQuality; fill-rule:evenodd; clip-rule:evenodd" xmlns:xlink="http://www.w3.org/1999/xlink">
<g><path style="opacity:0.985" fill="#000000" d="M 1179.5,48.5 C 1222.27,49.7838 1249.27,70.9504 1260.5,112C 1265.96,151.42 1251.29,180.42 1216.5,199C 1180.78,212.723 1149.61,205.89 1123,178.5C 1098.33,144.5 1098.33,110.5 1123,76.5C 1138.26,59.7887 1157.09,50.4554 1179.5,48.5 Z"/></g>
<g><path style="opacity:0.984" fill="#ef0065" d="M 985.5,143.5 C 1004.96,160.292 1021.96,179.292 1036.5,200.5C 1025.7,231.682 1031.37,259.515 1053.5,284C 1049.03,290.96 1044.03,297.46 1038.5,303.5C 1032.77,236.498 1001.1,185.998 943.5,152C 934.158,147.183 924.825,142.683 915.5,138.5C 939.084,136.756 962.417,138.423 985.5,143.5 Z"/></g>
<g><path style="opacity:0.995" fill="#ea0061" d="M 915.5,138.5 C 924.825,142.683 934.158,147.183 943.5,152C 1001.1,185.998 1032.77,236.498 1038.5,303.5C 1030.89,315.047 1022.56,326.047 1013.5,336.5C 1018.98,267.975 993.317,214.809 936.5,177C 912.15,162.607 885.817,154.773 857.5,153.5C 876.007,145.706 895.341,140.706 915.5,138.5 Z"/></g>
<g><path style="opacity:0.977" fill="#f50069" d="M 985.5,143.5 C 1009.8,149.569 1032.3,159.569 1053,173.5C 1053.67,174.167 1053.67,174.833 1053,175.5C 1046,182.833 1040.5,191.167 1036.5,200.5C 1021.96,179.292 1004.96,160.292 985.5,143.5 Z"/></g>
<g><path style="opacity:0.994" fill="#e5005e" d="M 857.5,153.5 C 885.817,154.773 912.15,162.607 936.5,177C 993.317,214.809 1018.98,267.975 1013.5,336.5C 1006.96,346.553 999.794,356.219 992,365.5C 991.617,364.944 991.117,364.611 990.5,364.5C 992.653,361.573 994.153,358.239 995,354.5C 1009.32,288.439 989.819,234.939 936.5,194C 902.327,171.291 864.993,163.458 824.5,170.5C 834.782,163.525 845.782,157.858 857.5,153.5 Z"/></g>
<g><path style="opacity:0.997" fill="#e2005c" d="M 990.5,364.5 C 985.167,362.506 979.833,360.839 974.5,359.5C 991.504,304.35 979.171,256.85 937.5,217C 888.393,179.557 836.727,175.724 782.5,205.5C 794.742,191.579 808.742,179.913 824.5,170.5C 864.993,163.458 902.327,171.291 936.5,194C 989.819,234.939 1009.32,288.439 995,354.5C 994.153,358.239 992.653,361.573 990.5,364.5 Z"/></g>
<g><path style="opacity:0.995" fill="#de0059" d="M 974.5,359.5 C 966.158,359.112 958.158,360.446 950.5,363.5C 970.498,312.976 960.831,269.143 921.5,232C 883.164,203.538 842.497,199.871 799.5,221C 757.326,247.527 739.492,285.694 746,335.5C 757.706,384.873 788.54,414.039 838.5,423C 868.13,426.428 894.796,419.261 918.5,401.5C 917.026,409.704 917.693,417.704 920.5,425.5C 903.969,436.624 885.636,443.124 865.5,445C 798.513,447.033 752.513,417.2 727.5,355.5C 725.319,297.685 743.653,247.685 782.5,205.5C 836.727,175.724 888.393,179.557 937.5,217C 979.171,256.85 991.504,304.35 974.5,359.5 Z"/></g>
<g><path style="opacity:0.999" fill="#db0057" d="M 950.5,363.5 C 947.378,364.561 944.378,365.895 941.5,367.5C 962.113,326.526 958.947,287.526 932,250.5C 900.519,216.086 862.352,205.586 817.5,219C 774.807,236.836 752.14,269.003 749.5,315.5C 751.278,354.578 768.611,384.412 801.5,405C 844.091,425.614 883.757,421.78 920.5,393.5C 920.037,396.221 919.371,398.888 918.5,401.5C 894.796,419.261 868.13,426.428 838.5,423C 788.54,414.039 757.706,384.873 746,335.5C 739.492,285.694 757.326,247.527 799.5,221C 842.497,199.871 883.164,203.538 921.5,232C 960.831,269.143 970.498,312.976 950.5,363.5 Z"/></g>
<g><path style="opacity:0.998" fill="#d70054" d="M 941.5,367.5 C 939.683,369.842 937.35,371.009 934.5,371C 928.098,366.146 921.765,361.313 915.5,356.5C 930.914,330.184 931.414,303.517 917,276.5C 893.45,243.54 862.283,233.373 823.5,246C 790.075,262.336 774.908,289.17 778,326.5C 786.68,366.683 811.514,388.016 852.5,390.5C 868.65,390.727 883.317,386.227 896.5,377C 898.899,375.02 900.899,372.853 902.5,370.5C 909.215,375.613 916.048,380.613 923,385.5C 923.022,388.451 922.189,391.117 920.5,393.5C 883.757,421.78 844.091,425.614 801.5,405C 768.611,384.412 751.278,354.578 749.5,315.5C 752.14,269.003 774.807,236.836 817.5,219C 862.352,205.586 900.519,216.086 932,250.5C 958.947,287.526 962.113,326.526 941.5,367.5 Z"/></g>
<g><path style="opacity:0.999" fill="#d30051" d="M 915.5,356.5 C 913.611,355.396 911.945,354.063 910.5,352.5C 926.803,323.406 924.636,295.74 904,269.5C 878.379,244.887 849.546,240.387 817.5,256C 787.41,276.932 777.576,305.099 788,340.5C 802.438,371.808 826.938,386.308 861.5,384C 872.815,382.508 883.148,378.508 892.5,372C 894.766,370.574 896.432,368.74 897.5,366.5C 899.389,367.604 901.055,368.937 902.5,370.5C 900.899,372.853 898.899,375.02 896.5,377C 883.317,386.227 868.65,390.727 852.5,390.5C 811.514,388.016 786.68,366.683 778,326.5C 774.908,289.17 790.075,262.336 823.5,246C 862.283,233.373 893.45,243.54 917,276.5C 931.414,303.517 930.914,330.184 915.5,356.5 Z"/></g>
<g><path style="opacity:0.996" fill="#d0004f" d="M 910.5,352.5 C 901.877,346.543 893.544,340.21 885.5,333.5C 889.474,327.693 893.64,322.026 898,316.5C 898.982,315.241 899.315,313.908 899,312.5C 880.82,299.076 862.82,285.409 845,271.5C 830.712,289.91 816.545,308.41 802.5,327C 821,340.833 839.5,354.667 858,368.5C 863.333,361.833 868.667,355.167 874,348.5C 882.018,354.364 889.852,360.364 897.5,366.5C 896.432,368.74 894.766,370.574 892.5,372C 883.148,378.508 872.815,382.508 861.5,384C 826.938,386.308 802.438,371.808 788,340.5C 777.576,305.099 787.41,276.932 817.5,256C 849.546,240.387 878.379,244.887 904,269.5C 924.636,295.74 926.803,323.406 910.5,352.5 Z"/></g>
<g><path style="opacity:0.997" fill="#f50069" d="M 1068.5,295.5 C 1074.34,297.591 1080,299.924 1085.5,302.5C 1087.41,380.013 1059.41,444.179 1001.5,495C 965.751,523.863 925.084,541.363 879.5,547.5C 865.209,544.298 851.876,538.965 839.5,531.5C 918.523,534.352 981.689,504.352 1029,441.5C 1059.32,397.574 1072.48,348.908 1068.5,295.5 Z"/></g>
<g><path style="opacity:0.993" fill="#f00065" d="M 1068.5,295.5 C 1072.48,348.908 1059.32,397.574 1029,441.5C 981.689,504.352 918.523,534.352 839.5,531.5C 821.551,522.879 805.551,511.546 791.5,497.5C 791.62,496.414 792.287,495.747 793.5,495.5C 847.528,512.121 899.194,506.621 948.5,479C 956.962,473.69 964.962,467.857 972.5,461.5C 994.269,458.556 1009.1,446.889 1017,426.5C 1022.09,408.929 1019.09,392.929 1008,378.5C 1007.33,377.5 1007.33,376.5 1008,375.5C 1028.03,348.649 1048.2,321.982 1068.5,295.5 Z"/></g>
<g><path style="opacity:0.991" fill="#fd006e" d="M 908.5,553.5 C 997.145,529.245 1056.31,473.579 1086,386.5C 1093.93,359.74 1097.43,332.407 1096.5,304.5C 1111.22,306.205 1125.39,303.871 1139,297.5C 1155.63,377.847 1134.46,446.347 1075.5,503C 1027.38,544.316 971.709,561.149 908.5,553.5 Z"/></g>
<g><path style="opacity:0.997" fill="#f8006b" d="M 1085.5,302.5 C 1089.22,302.911 1092.89,303.578 1096.5,304.5C 1097.43,332.407 1093.93,359.74 1086,386.5C 1056.31,473.579 997.145,529.245 908.5,553.5C 898.455,552.759 888.788,550.759 879.5,547.5C 925.084,541.363 965.751,523.863 1001.5,495C 1059.41,444.179 1087.41,380.013 1085.5,302.5 Z"/></g>
<g><path style="opacity:0.995" fill="#e2005c" d="M 727.5,355.5 C 752.513,417.2 798.513,447.033 865.5,445C 885.636,443.124 903.969,436.624 920.5,425.5C 922.38,431.591 925.047,437.257 928.5,442.5C 878.245,470.297 827.912,470.463 777.5,443C 761.793,433.455 748.126,421.622 736.5,407.5C 730.928,390.738 727.928,373.405 727.5,355.5 Z"/></g>
<g><path style="opacity:0.995" fill="#e5005e" d="M 736.5,407.5 C 748.126,421.622 761.793,433.455 777.5,443C 827.912,470.463 878.245,470.297 928.5,442.5C 932.192,445.862 935.859,449.195 939.5,452.5C 884.187,484.486 828.187,485.652 771.5,456C 764.228,451.781 757.395,446.948 751,441.5C 750.601,441.728 750.435,442.062 750.5,442.5C 744.285,431.535 739.618,419.868 736.5,407.5 Z"/></g>
<g><path style="opacity:0.994" fill="#ea0061" d="M 939.5,452.5 C 949.509,458.945 960.509,461.945 972.5,461.5C 964.962,467.857 956.962,473.69 948.5,479C 899.194,506.621 847.528,512.121 793.5,495.5C 792.287,495.747 791.62,496.414 791.5,497.5C 774.374,481.713 760.707,463.379 750.5,442.5C 750.435,442.062 750.601,441.728 751,441.5C 757.395,446.948 764.228,451.781 771.5,456C 828.187,485.652 884.187,484.486 939.5,452.5 Z"/></g>
<g><path style="opacity:0.966" fill="#000000" d="M 170.5,688.5 C 193.202,687.506 213.869,693.339 232.5,706C 236.512,708.679 239.846,712.012 242.5,716C 235.32,725.844 227.32,735.011 218.5,743.5C 211.681,737.921 204.347,733.088 196.5,729C 174.776,720.545 155.609,724.378 139,740.5C 121.815,764.05 121.148,788.05 137,812.5C 155.927,832.459 177.76,836.292 202.5,824C 208.615,820.196 214.448,816.029 220,811.5C 228.821,818.988 236.988,827.154 244.5,836C 217.266,863.98 184.599,872.98 146.5,863C 102.768,845.878 82.6014,813.711 86,766.5C 92.4284,726.407 115.262,701.24 154.5,691C 159.972,690.133 165.306,689.3 170.5,688.5 Z"/></g>
<g><path style="opacity:0.964" fill="#000000" d="M 704.5,688.5 C 726.642,687.617 746.976,693.117 765.5,705C 769.8,708.298 773.8,711.965 777.5,716C 769.681,725.485 761.515,734.652 753,743.5C 746.048,737.894 738.548,733.06 730.5,729C 701.795,719.01 679.962,727.177 665,753.5C 655.123,779.113 659.956,801.613 679.5,821C 698.685,833.961 718.351,834.628 738.5,823C 743.677,819.152 748.844,815.319 754,811.5C 762.291,818.79 770.291,826.456 778,834.5C 778.667,835.167 778.667,835.833 778,836.5C 752.273,863.398 721.107,872.565 684.5,864C 646.176,852.193 624.676,826.36 620,786.5C 617.711,753.595 629.211,726.762 654.5,706C 669.626,695.459 686.293,689.626 704.5,688.5 Z"/></g>
<g><path style="opacity:0.987" fill="#d9136f" d="M 1291.5,688.5 C 1334.91,688.264 1365.07,707.93 1382,747.5C 1394.91,794.136 1381.07,830.303 1340.5,856C 1313.73,868.404 1286.4,869.738 1258.5,860C 1228.81,846.966 1210.97,824.466 1205,792.5C 1200.45,750.091 1216.62,718.591 1253.5,698C 1265.75,692.605 1278.41,689.438 1291.5,688.5 Z M 1288.5,724.5 C 1323.97,724.798 1343.3,742.631 1346.5,778C 1344.33,810.001 1327.33,827.835 1295.5,831.5C 1267.05,828.882 1250.22,813.549 1245,785.5C 1242.6,762.981 1250.44,745.147 1268.5,732C 1274.88,728.379 1281.54,725.879 1288.5,724.5 Z"/></g>
<g><path style="opacity:0.983" fill="#000000" d="M 273.5,691.5 C 286.167,691.5 298.833,691.5 311.5,691.5C 311.5,714.167 311.5,736.833 311.5,759.5C 334.5,759.5 357.5,759.5 380.5,759.5C 380.5,736.833 380.5,714.167 380.5,691.5C 393.167,691.5 405.833,691.5 418.5,691.5C 418.5,748.833 418.5,806.167 418.5,863.5C 405.833,863.5 393.167,863.5 380.5,863.5C 380.5,840.833 380.5,818.167 380.5,795.5C 357.5,795.5 334.5,795.5 311.5,795.5C 311.5,818.167 311.5,840.833 311.5,863.5C 298.833,863.5 286.167,863.5 273.5,863.5C 273.5,806.167 273.5,748.833 273.5,691.5 Z"/></g>
<g><path style="opacity:0.969" fill="#000000" d="M 463.5,691.5 C 506.833,691.5 550.167,691.5 593.5,691.5C 593.5,703.167 593.5,714.833 593.5,726.5C 562.833,726.5 532.167,726.5 501.5,726.5C 501.5,737.5 501.5,748.5 501.5,759.5C 528.5,759.5 555.5,759.5 582.5,759.5C 582.5,771.167 582.5,782.833 582.5,794.5C 555.5,794.5 528.5,794.5 501.5,794.5C 501.5,806.167 501.5,817.833 501.5,829.5C 532.5,829.5 563.5,829.5 594.5,829.5C 594.5,840.833 594.5,852.167 594.5,863.5C 550.833,863.5 507.167,863.5 463.5,863.5C 463.5,806.167 463.5,748.833 463.5,691.5 Z"/></g>
<g><path style="opacity:0.963" fill="#000000" d="M 805.5,691.5 C 818.5,691.5 831.5,691.5 844.5,691.5C 844.333,715.836 844.5,740.169 845,764.5C 867.133,740.032 889.633,715.866 912.5,692C 927.844,691.167 943.178,691.334 958.5,692.5C 936.048,717.121 913.048,741.287 889.5,765C 913.59,797.845 937.923,830.512 962.5,863C 946.833,863.667 931.167,863.667 915.5,863C 898.122,839.078 880.622,815.244 863,791.5C 857.366,798.136 851.366,804.469 845,810.5C 844.5,828.164 844.333,845.83 844.5,863.5C 831.5,863.5 818.5,863.5 805.5,863.5C 805.5,806.167 805.5,748.833 805.5,691.5 Z"/></g>
<g><path style="opacity:0.985" fill="#d9136f" d="M 1044.5,691.5 C 1069.5,691.333 1094.5,691.5 1119.5,692C 1165.4,696.574 1185.24,721.741 1179,767.5C 1172.31,790.617 1157.15,804.784 1133.5,810C 1129.21,810.912 1124.87,811.579 1120.5,812C 1107.84,812.5 1095.17,812.667 1082.5,812.5C 1082.5,829.5 1082.5,846.5 1082.5,863.5C 1069.83,863.5 1057.17,863.5 1044.5,863.5C 1044.5,806.167 1044.5,748.833 1044.5,691.5 Z M 1082.5,726.5 C 1093.84,726.333 1105.17,726.5 1116.5,727C 1137.87,730.567 1145.37,742.734 1139,763.5C 1133.18,772.83 1124.68,777.664 1113.5,778C 1103.17,778.5 1092.84,778.666 1082.5,778.5C 1082.5,761.167 1082.5,743.833 1082.5,726.5 Z"/></g>
<g><path style="opacity:0.979" fill="#d9136f" d="M 1507.5,691.5 C 1519.52,691.168 1531.52,691.501 1543.5,692.5C 1569.47,726.975 1595.64,761.309 1622,795.5C 1622.5,760.835 1622.67,726.168 1622.5,691.5C 1635.17,691.5 1647.83,691.5 1660.5,691.5C 1660.5,748.833 1660.5,806.167 1660.5,863.5C 1649.15,863.832 1637.81,863.499 1626.5,862.5C 1599.47,827.309 1572.64,791.975 1546,756.5C 1545.5,792.165 1545.33,827.832 1545.5,863.5C 1532.83,863.5 1520.17,863.5 1507.5,863.5C 1507.5,806.167 1507.5,748.833 1507.5,691.5 Z"/></g>
<g><path style="opacity:0.844" fill="#d8136f" d="M 1851.5,691.5 C 1858.5,691.5 1865.5,691.5 1872.5,691.5C 1872.5,693.167 1872.5,694.833 1872.5,696.5C 1869.83,696.5 1867.17,696.5 1864.5,696.5C 1864.5,703.167 1864.5,709.833 1864.5,716.5C 1862.83,716.5 1861.17,716.5 1859.5,716.5C 1859.5,709.833 1859.5,703.167 1859.5,696.5C 1856.83,696.5 1854.17,696.5 1851.5,696.5C 1851.5,694.833 1851.5,693.167 1851.5,691.5 Z"/></g>
<g><path style="opacity:0.875" fill="#d9136f" d="M 1877.5,691.5 C 1879.6,691.201 1881.6,691.534 1883.5,692.5C 1885.5,695.5 1887.5,698.5 1889.5,701.5C 1891.7,698.282 1894.03,695.116 1896.5,692C 1898.13,691.506 1899.8,691.34 1901.5,691.5C 1901.5,699.833 1901.5,708.167 1901.5,716.5C 1899.83,716.5 1898.17,716.5 1896.5,716.5C 1896.67,711.489 1896.5,706.489 1896,701.5C 1894.31,704.891 1892.14,707.891 1889.5,710.5C 1887.33,707.5 1885.17,704.5 1883,701.5C 1882.5,706.489 1882.33,711.489 1882.5,716.5C 1880.83,716.5 1879.17,716.5 1877.5,716.5C 1877.5,708.167 1877.5,699.833 1877.5,691.5 Z"/></g>
<g><path style="opacity:0.999" fill="#d8136f" d="M 1422.5,691.5 C 1435.5,691.5 1448.5,691.5 1461.5,691.5C 1461.5,748.833 1461.5,806.167 1461.5,863.5C 1448.5,863.5 1435.5,863.5 1422.5,863.5C 1422.5,806.167 1422.5,748.833 1422.5,691.5 Z"/></g>
<g><path style="opacity:0.982" fill="#d91370" d="M 1692.5,691.5 C 1740.17,691.5 1787.83,691.5 1835.5,691.5C 1835.5,703.5 1835.5,715.5 1835.5,727.5C 1818.17,727.5 1800.83,727.5 1783.5,727.5C 1783.5,772.833 1783.5,818.167 1783.5,863.5C 1770.5,863.5 1757.5,863.5 1744.5,863.5C 1744.5,818.167 1744.5,772.833 1744.5,727.5C 1727.17,727.5 1709.83,727.5 1692.5,727.5C 1692.5,715.5 1692.5,703.5 1692.5,691.5 Z"/></g>
</svg>
