<svg xmlns="http://www.w3.org/2000/svg" version="1.1" width="210px" height="208px" style="shape-rendering:geometricPrecision; text-rendering:geometricPrecision; image-rendering:optimizeQuality; fill-rule:evenodd; clip-rule:evenodd" xmlns:xlink="http://www.w3.org/1999/xlink">
<g><path style="opacity:1" fill="#fcfdfd" d="M -0.5,-0.5 C 69.5,-0.5 139.5,-0.5 209.5,-0.5C 209.5,68.8333 209.5,138.167 209.5,207.5C 139.5,207.5 69.5,207.5 -0.5,207.5C -0.5,138.167 -0.5,68.8333 -0.5,-0.5 Z"/></g>
<g><path style="opacity:1" fill="#414148" d="M 37.5,33.5 C 41.3129,34.63 44.3129,36.9633 46.5,40.5C 43.8494,42.6499 41.3494,44.9832 39,47.5C 36.5,45 34,42.5 31.5,40C 33.7059,37.9633 35.7059,35.7966 37.5,33.5 Z"/></g>
<g><path style="opacity:1" fill="#57b5d3" d="M 44.5,56.5 C 44.1961,55.8501 43.8627,55.1835 43.5,54.5C 44.8333,53.5 46.1667,52.5 47.5,51.5C 40.1588,50.7283 32.8255,50.0617 25.5,49.5C 25.6395,44.4257 23.8061,43.4257 20,46.5C 19.2797,48.1124 19.4464,49.6124 20.5,51C 24.3431,53.8622 28.6764,55.0289 33.5,54.5C 33.5,55.5 33.5,56.5 33.5,57.5C 36.1667,57.5 38.8333,57.5 41.5,57.5C 32.4448,59.6572 24.1115,57.8238 16.5,52C 15.4829,50.9505 15.3162,49.7839 16,48.5C 17.7632,45.9804 19.7632,43.6471 22,41.5C 27.8528,47.8463 35.0194,50.3463 43.5,49C 48.6231,46.6089 52.2898,42.7756 54.5,37.5C 55.2058,39.7657 55.0391,42.0991 54,44.5C 52.4292,49.8895 49.2625,53.8895 44.5,56.5 Z"/></g>
<g><path style="opacity:1" fill="#42b3e5" d="M 44.5,56.5 C 43.609,57.1098 42.609,57.4431 41.5,57.5C 38.8333,57.5 36.1667,57.5 33.5,57.5C 33.5,56.5 33.5,55.5 33.5,54.5C 28.6764,55.0289 24.3431,53.8622 20.5,51C 19.4464,49.6124 19.2797,48.1124 20,46.5C 23.8061,43.4257 25.6395,44.4257 25.5,49.5C 32.8255,50.0617 40.1588,50.7283 47.5,51.5C 46.1667,52.5 44.8333,53.5 43.5,54.5C 43.8627,55.1835 44.1961,55.8501 44.5,56.5 Z"/></g>
<g><path style="opacity:1" fill="#303133" d="M 68.5,61.5 C 69.2389,61.631 69.9056,61.4643 70.5,61C 64.5743,57.039 58.9076,57.7057 53.5,63C 52.2068,63.49 50.8734,63.6567 49.5,63.5C 49.5,64.5 49.5,65.5 49.5,66.5C 47.701,59.2671 50.3677,54.1005 57.5,51C 62.1667,50.3333 66.8333,50.3333 71.5,51C 75.4997,52.6641 79.1663,54.8308 82.5,57.5C 81.2307,61.0536 79.2307,64.0536 76.5,66.5C 73.7692,64.8084 71.1025,63.1417 68.5,61.5 Z"/></g>
<g><path style="opacity:1" fill="#353639" d="M 138.5,69.5 C 137.549,70.9187 137.216,72.5853 137.5,74.5C 136.127,74.3433 134.793,74.51 133.5,75C 134.956,75.4226 135.456,76.2559 135,77.5C 134.586,77.0426 134.086,76.7093 133.5,76.5C 132.832,74.0312 132.165,71.6979 131.5,69.5C 129.478,63.4508 126.145,58.1175 121.5,53.5C 126.167,51.556 130,52.556 133,56.5C 135.937,60.3729 137.77,64.7062 138.5,69.5 Z"/></g>
<g><path style="opacity:1" fill="#c9c9cc" d="M 138.5,69.5 C 139.451,70.9187 139.784,72.5853 139.5,74.5C 161.007,74.1694 182.34,74.5027 203.5,75.5C 181.833,75.5 160.167,75.5 138.5,75.5C 138.5,73.5 138.5,71.5 138.5,69.5 Z"/></g>
<g><path style="opacity:1" fill="#202023" d="M 54.5,80.5 C 55.536,82.102 55.536,83.602 54.5,85C 52.9387,85.1881 52.272,84.3547 52.5,82.5C 46.9989,83.4411 41.6656,83.7744 36.5,83.5C 33.0818,80.5607 30.5818,76.894 29,72.5C 23.0017,65.4878 17.8351,65.8211 13.5,73.5C 13.631,72.7611 13.4643,72.0944 13,71.5C 12.3292,72.2524 11.4959,72.5858 10.5,72.5C 14.2762,62.9427 21.2762,59.1094 31.5,61C 34.2953,62.7932 36.7953,64.9598 39,67.5C 41.3742,71.7495 43.8742,75.9162 46.5,80C 49.0782,81.8135 51.7449,81.9802 54.5,80.5 Z"/></g>
<g><path style="opacity:1" fill="#29282b" d="M 131.5,69.5 C 132.165,71.6979 132.832,74.0312 133.5,76.5C 134.086,76.7093 134.586,77.0426 135,77.5C 135.456,76.2559 134.956,75.4226 133.5,75C 134.793,74.51 136.127,74.3433 137.5,74.5C 137.216,72.5853 137.549,70.9187 138.5,69.5C 138.5,71.5 138.5,73.5 138.5,75.5C 160.167,75.5 181.833,75.5 203.5,75.5C 204.451,76.9187 204.784,78.5853 204.5,80.5C 204.167,80.5 203.833,80.5 203.5,80.5C 203.543,76.1074 203.043,75.7741 202,79.5C 201.667,79.1667 201.333,78.8333 201,78.5C 196.729,79.3548 192.896,80.3548 189.5,81.5C 172.833,81.5 156.167,81.5 139.5,81.5C 139.5,83.5 139.5,85.5 139.5,87.5C 138.691,85.7078 138.191,83.7078 138,81.5C 137.667,83.8333 137.333,86.1667 137,88.5C 136,88.8333 135,89.1667 134,89.5C 133.302,86.9963 132.469,84.663 131.5,82.5C 128.316,80.5864 124.649,79.9197 120.5,80.5C 117.995,79.259 116.495,80.259 116,83.5C 115.667,82.5 115.333,81.5 115,80.5C 114.667,82.1667 114.333,83.8333 114,85.5C 109.995,83.935 106.162,84.2683 102.5,86.5C 101.304,86.1543 101.304,85.6543 102.5,85C 101.906,84.5357 101.239,84.369 100.5,84.5C 103.883,82.3324 107.55,81.9991 111.5,83.5C 112.713,83.2528 113.38,82.5862 113.5,81.5C 106.018,80.508 98.3516,80.1746 90.5,80.5C 90.5,78.8333 90.5,77.1667 90.5,75.5C 104.167,75.5 117.833,75.5 131.5,75.5C 131.5,73.5 131.5,71.5 131.5,69.5 Z"/></g>
<g><path style="opacity:1" fill="#212223" d="M 68.5,61.5 C 64.4862,61.3345 60.4862,61.5012 56.5,62C 53.4866,66.2492 54.1533,69.9159 58.5,73C 62.8333,73.3333 67.1667,73.6667 71.5,74C 70.6424,78.0759 69.3091,81.9092 67.5,85.5C 63.9963,83.0964 59.9963,81.4297 55.5,80.5C 56.0906,79.8485 56.7573,79.1818 57.5,78.5C 53.3346,75.5033 50.6679,71.5033 49.5,66.5C 49.5,65.5 49.5,64.5 49.5,63.5C 50.8734,63.6567 52.2068,63.49 53.5,63C 58.9076,57.7057 64.5743,57.039 70.5,61C 69.9056,61.4643 69.2389,61.631 68.5,61.5 Z"/></g>
<g><path style="opacity:1" fill="#7b7b7c" d="M 90.5,75.5 C 90.5,77.1667 90.5,78.8333 90.5,80.5C 98.3516,80.1746 106.018,80.508 113.5,81.5C 105.648,81.1746 97.9818,81.508 90.5,82.5C 90.1667,82.5 89.8333,82.5 89.5,82.5C 89.1984,79.9407 89.5318,77.6074 90.5,75.5 Z"/></g>
<g><path style="opacity:1" fill="#b1b1b1" d="M 203.5,80.5 C 203.833,80.5 204.167,80.5 204.5,80.5C 202.393,81.4682 200.059,81.8016 197.5,81.5C 197.5,84.1667 197.5,86.8333 197.5,89.5C 196.523,86.7131 196.19,83.7131 196.5,80.5C 198.833,80.5 201.167,80.5 203.5,80.5 Z"/></g>
<g><path style="opacity:1" fill="#141416" d="M 120.5,80.5 C 120.19,83.7131 120.523,86.7131 121.5,89.5C 122.925,90.922 123.925,92.5887 124.5,94.5C 123.081,95.4511 121.415,95.7845 119.5,95.5C 118.094,88.9777 114.094,86.811 107.5,89C 100.741,92.0756 97.9076,97.2423 99,104.5C 100.863,106.949 103.363,107.949 106.5,107.5C 111.53,105.343 116.864,104.343 122.5,104.5C 121.234,109.589 117.901,112.422 112.5,113C 101.199,113.371 94.1992,108.038 91.5,97C 92.4251,91.3083 95.4251,87.1417 100.5,84.5C 101.239,84.369 101.906,84.5357 102.5,85C 101.304,85.6543 101.304,86.1543 102.5,86.5C 106.162,84.2683 109.995,83.935 114,85.5C 114.333,83.8333 114.667,82.1667 115,80.5C 115.333,81.5 115.667,82.5 116,83.5C 116.495,80.259 117.995,79.259 120.5,80.5 Z"/></g>
<g><path style="opacity:1" fill="#f1f7f7" d="M 113.5,81.5 C 113.38,82.5862 112.713,83.2528 111.5,83.5C 107.55,81.9991 103.883,82.3324 100.5,84.5C 95.4251,87.1417 92.4251,91.3083 91.5,97C 94.1992,108.038 101.199,113.371 112.5,113C 117.901,112.422 121.234,109.589 122.5,104.5C 116.864,104.343 111.53,105.343 106.5,107.5C 103.363,107.949 100.863,106.949 99,104.5C 97.9076,97.2423 100.741,92.0756 107.5,89C 114.094,86.811 118.094,88.9777 119.5,95.5C 121.364,96.7928 123.364,96.7928 125.5,95.5C 125.376,94.8933 125.043,94.56 124.5,94.5C 123.925,92.5887 122.925,90.922 121.5,89.5C 121.5,86.8333 121.5,84.1667 121.5,81.5C 124.5,81.5 127.5,81.5 130.5,81.5C 130.173,91.3478 130.506,101.014 131.5,110.5C 133.284,110.893 134.95,111.559 136.5,112.5C 137.209,113.404 138.209,113.737 139.5,113.5C 139.5,108.167 139.5,102.833 139.5,97.5C 142.45,90.0252 147.783,87.3585 155.5,89.5C 158.06,94.153 157.893,98.8197 155,103.5C 152.982,105.35 151.149,107.35 149.5,109.5C 154.605,115.306 158.772,114.639 162,107.5C 166.685,96.8854 163.852,89.0521 153.5,84C 148.18,82.7434 143.513,83.91 139.5,87.5C 139.5,85.5 139.5,83.5 139.5,81.5C 156.167,81.5 172.833,81.5 189.5,81.5C 189.5,82.5 189.5,83.5 189.5,84.5C 180.726,82.0914 173.892,84.7581 169,92.5C 168.262,96.2613 168.595,99.9279 170,103.5C 173.103,107.114 176.603,110.114 180.5,112.5C 178.883,113.038 177.216,113.371 175.5,113.5C 175.238,114.978 175.571,116.311 176.5,117.5C 180.767,114.78 184.767,114.947 188.5,118C 185.305,118.181 182.305,118.681 179.5,119.5C 179.5,126.167 179.5,132.833 179.5,139.5C 178.676,135.688 178.176,131.688 178,127.5C 176.883,137.817 176.55,148.15 177,158.5C 178.768,159.682 178.935,161.015 177.5,162.5C 176.209,162.263 175.209,162.596 174.5,163.5C 171.981,165.359 171.981,167.359 174.5,169.5C 173.5,169.5 172.5,169.5 171.5,169.5C 171.799,167.396 171.466,165.396 170.5,163.5C 168.345,163.838 166.011,163.838 163.5,163.5C 163.5,165.167 163.5,166.833 163.5,168.5C 162.504,168.586 161.671,168.252 161,167.5C 160.722,168.416 160.222,169.082 159.5,169.5C 159.179,167.952 158.179,167.285 156.5,167.5C 155.991,166.659 156.657,166.159 158.5,166C 156.657,165.841 155.991,165.341 156.5,164.5C 157.675,164.719 158.675,164.386 159.5,163.5C 157.701,162.212 156.035,162.212 154.5,163.5C 154.5,165.167 154.5,166.833 154.5,168.5C 153.833,168.5 153.167,168.5 152.5,168.5C 147.064,166.372 147.397,164.872 153.5,164C 148.869,162.13 147.202,163.63 148.5,168.5C 147.348,169.625 146.348,169.625 145.5,168.5C 146.788,166.965 146.788,165.299 145.5,163.5C 144.483,166.028 143.316,166.028 142,163.5C 141.22,165.387 141.387,167.054 142.5,168.5C 141.791,169.404 140.791,169.737 139.5,169.5C 139.119,168.069 138.119,167.236 136.5,167C 140.5,166.333 140.5,165.667 136.5,165C 137.624,164.751 138.624,164.251 139.5,163.5C 135.072,161.948 133.405,163.614 134.5,168.5C 134.167,168.5 133.833,168.5 133.5,168.5C 134.222,162.541 132.222,161.207 127.5,164.5C 124.938,160.834 122.938,156.834 121.5,152.5C 129.048,160.051 136.881,160.384 145,153.5C 148.462,145.998 149.296,138.331 147.5,130.5C 143.948,118.895 136.615,115.728 125.5,121C 123.266,122.638 121.933,124.805 121.5,127.5C 120.778,127.918 120.278,128.584 120,129.5C 119.05,136.642 119.55,143.642 121.5,150.5C 118.693,149.02 117.027,146.687 116.5,143.5C 114.859,146.558 114.026,149.892 114,153.5C 113.28,155.056 112.113,156.056 110.5,156.5C 111.592,150.19 112.592,143.856 113.5,137.5C 114.78,131.674 115.78,125.674 116.5,119.5C 113.833,119.5 111.167,119.5 108.5,119.5C 107.395,126.449 106.728,133.449 106.5,140.5C 105.275,139.848 104.608,138.681 104.5,137C 103.723,131.171 103.056,125.338 102.5,119.5C 100.167,119.5 97.8333,119.5 95.5,119.5C 94.1956,126.461 93.029,133.461 92,140.5C 90.8385,133.53 90.0052,126.53 89.5,119.5C 86.5,119.5 83.5,119.5 80.5,119.5C 80.6107,118.883 80.944,118.383 81.5,118C 76.6486,117.826 71.9819,117.326 67.5,116.5C 78.0071,114.16 84.8405,107.827 88,97.5C 89.267,92.5648 90.1003,87.5648 90.5,82.5C 97.9818,81.508 105.648,81.1746 113.5,81.5 Z"/></g>
<g><path style="opacity:1" fill="#131313" d="M 13.5,73.5 C 10.349,89.8418 17.0156,97.6751 33.5,97C 36.1759,95.1604 38.0092,92.6604 39,89.5C 41.2317,103.585 35.3983,110.418 21.5,110C 13.9682,106.124 9.46819,99.9574 8,91.5C 6.91471,84.7836 7.74804,78.4503 10.5,72.5C 11.4959,72.5858 12.3292,72.2524 13,71.5C 13.4643,72.0944 13.631,72.7611 13.5,73.5 Z"/></g>
<g><path style="opacity:1" fill="#121213" d="M 139.5,87.5 C 143.513,83.91 148.18,82.7434 153.5,84C 163.852,89.0521 166.685,96.8854 162,107.5C 158.772,114.639 154.605,115.306 149.5,109.5C 151.149,107.35 152.982,105.35 155,103.5C 157.893,98.8197 158.06,94.153 155.5,89.5C 147.783,87.3585 142.45,90.0252 139.5,97.5C 139.141,102.749 138.141,107.749 136.5,112.5C 134.95,111.559 133.284,110.893 131.5,110.5C 131.5,101.167 131.5,91.8333 131.5,82.5C 132.469,84.663 133.302,86.9963 134,89.5C 135,89.1667 136,88.8333 137,88.5C 137.333,86.1667 137.667,83.8333 138,81.5C 138.191,83.7078 138.691,85.7078 139.5,87.5 Z"/></g>
<g><path style="opacity:1" fill="#101010" d="M 54.5,80.5 C 54.8333,80.5 55.1667,80.5 55.5,80.5C 59.9963,81.4297 63.9963,83.0964 67.5,85.5C 56.3813,82.1269 51.548,86.1269 53,97.5C 57.1176,104.658 63.2843,107.158 71.5,105C 82.0779,101.247 88.0779,93.7468 89.5,82.5C 89.8333,82.5 90.1667,82.5 90.5,82.5C 90.1003,87.5648 89.267,92.5648 88,97.5C 84.8405,107.827 78.0071,114.16 67.5,116.5C 53.4916,117.824 45.8249,111.49 44.5,97.5C 45.1203,93.4246 46.4536,89.5912 48.5,86C 44.205,86.016 40.205,85.1826 36.5,83.5C 41.6656,83.7744 46.9989,83.4411 52.5,82.5C 52.272,84.3547 52.9387,85.1881 54.5,85C 55.536,83.602 55.536,82.102 54.5,80.5 Z"/></g>
<g><path style="opacity:1" fill="#727272" d="M 124.5,94.5 C 125.043,94.56 125.376,94.8933 125.5,95.5C 123.364,96.7928 121.364,96.7928 119.5,95.5C 121.415,95.7845 123.081,95.4511 124.5,94.5 Z"/></g>
<g><path style="opacity:1" fill="#b0b0b1" d="M 120.5,80.5 C 124.649,79.9197 128.316,80.5864 131.5,82.5C 131.5,91.8333 131.5,101.167 131.5,110.5C 130.506,101.014 130.173,91.3478 130.5,81.5C 127.5,81.5 124.5,81.5 121.5,81.5C 121.5,84.1667 121.5,86.8333 121.5,89.5C 120.523,86.7131 120.19,83.7131 120.5,80.5 Z"/></g>
<g><path style="opacity:1" fill="#6e7071" d="M 139.5,97.5 C 139.5,102.833 139.5,108.167 139.5,113.5C 138.209,113.737 137.209,113.404 136.5,112.5C 138.141,107.749 139.141,102.749 139.5,97.5 Z"/></g>
<g><path style="opacity:1" fill="#131314" d="M 203.5,80.5 C 201.167,80.5 198.833,80.5 196.5,80.5C 196.19,83.7131 196.523,86.7131 197.5,89.5C 204.264,99.5252 202.264,107.359 191.5,113C 187.797,113.579 184.131,113.412 180.5,112.5C 176.603,110.114 173.103,107.114 170,103.5C 168.595,99.9279 168.262,96.2613 169,92.5C 173.892,84.7581 180.726,82.0914 189.5,84.5C 189.5,83.5 189.5,82.5 189.5,81.5C 192.896,80.3548 196.729,79.3548 201,78.5C 201.333,78.8333 201.667,79.1667 202,79.5C 203.043,75.7741 203.543,76.1074 203.5,80.5 Z"/></g>
<g><path style="opacity:1" fill="#f0f0f0" d="M 183.5,89.5 C 191.977,87.1562 195.477,90.1562 194,98.5C 191.1,103.888 186.6,107.221 180.5,108.5C 173.978,105.752 172.811,101.418 177,95.5C 179.335,93.5998 181.502,91.5998 183.5,89.5 Z"/></g>
<g><path style="opacity:1" fill="#4ab7e1" d="M 147.5,130.5 C 147.909,138.015 146.575,145.182 143.5,152C 140.704,156.438 137.37,157.105 133.5,154C 138.574,151.859 140.574,148.359 139.5,143.5C 139.927,137.886 139.26,132.553 137.5,127.5C 137.167,127.5 136.833,127.5 136.5,127.5C 133.792,126.097 131.458,126.764 129.5,129.5C 128.548,131.045 128.215,132.712 128.5,134.5C 126.132,136.956 125.132,139.956 125.5,143.5C 124.167,143.5 122.833,143.5 121.5,143.5C 121.5,138.167 121.5,132.833 121.5,127.5C 121.933,124.805 123.266,122.638 125.5,121C 136.615,115.728 143.948,118.895 147.5,130.5 Z"/></g>
<g><path style="opacity:1" fill="#bae7f8" d="M 7.5,119.5 C 7.5,132.167 7.5,144.833 7.5,157.5C 10.1667,157.5 12.8333,157.5 15.5,157.5C 15.1667,158.167 14.8333,158.833 14.5,159.5C 11.8333,159.5 9.16667,159.5 6.5,159.5C 6.17107,145.99 6.5044,132.656 7.5,119.5 Z"/></g>
<g><path style="opacity:1" fill="#f9fcf9" d="M 81.5,124.5 C 82.9079,130.762 83.9079,137.095 84.5,143.5C 84.1953,148.762 84.5286,153.928 85.5,159C 82.8333,159.667 80.1667,159.667 77.5,159C 80.3168,155.94 80.1501,153.107 77,150.5C 75.8525,151.458 74.8525,151.125 74,149.5C 73.5003,142.174 73.3337,134.841 73.5,127.5C 75.5,127.5 77.5,127.5 79.5,127.5C 79.3433,126.127 79.51,124.793 80,123.5C 80.3826,124.056 80.8826,124.389 81.5,124.5 Z"/></g>
<g><path style="opacity:1" fill="#42b8ea" d="M 173.5,123.5 C 174.222,123.918 174.722,124.584 175,125.5C 175.667,130.5 175.667,135.5 175,140.5C 174.241,142.063 173.074,143.063 171.5,143.5C 170.167,138.167 168.833,132.833 167.5,127.5C 166.167,127.167 164.833,126.833 163.5,126.5C 163.144,125.13 162.31,124.13 161,123.5C 159.632,124.703 158.132,125.703 156.5,126.5C 156.766,131.19 156.266,135.856 155,140.5C 153.308,134.218 153.141,127.885 154.5,121.5C 159.242,120.981 163.909,120.981 168.5,121.5C 168.579,127.048 170.246,127.714 173.5,123.5 Z"/></g>
<g><path style="opacity:1" fill="#ecf9fe" d="M 163.5,126.5 C 164.833,126.833 166.167,127.167 167.5,127.5C 167.665,130.85 167.498,134.183 167,137.5C 165.491,139.919 163.325,140.919 160.5,140.5C 160.5,135.833 160.5,131.167 160.5,126.5C 161.5,126.5 162.5,126.5 163.5,126.5 Z"/></g>
<g><path style="opacity:1" fill="#4ab2d9" d="M 7.5,119.5 C 9.92397,119.192 12.2573,119.526 14.5,120.5C 15.1272,121.417 15.4606,122.417 15.5,123.5C 17.9096,127.99 20.0763,132.656 22,137.5C 22.4995,131.509 22.6662,125.509 22.5,119.5C 25.1667,119.5 27.8333,119.5 30.5,119.5C 30.5,132.167 30.5,144.833 30.5,157.5C 27.8806,157.768 25.3806,157.435 23,156.5C 20.6667,151.167 18.3333,145.833 16,140.5C 15.5006,146.157 15.3339,151.824 15.5,157.5C 12.8333,157.5 10.1667,157.5 7.5,157.5C 7.5,144.833 7.5,132.167 7.5,119.5 Z"/></g>
<g><path style="opacity:1" fill="#6bc3dc" d="M 179.5,119.5 C 182.5,119.5 185.5,119.5 188.5,119.5C 188.5,120.5 188.5,121.5 188.5,122.5C 185.833,122.5 183.167,122.5 180.5,122.5C 180.5,134.167 180.5,145.833 180.5,157.5C 182.833,157.5 185.167,157.5 187.5,157.5C 185.052,158.473 182.385,158.806 179.5,158.5C 179.5,152.167 179.5,145.833 179.5,139.5C 179.5,132.833 179.5,126.167 179.5,119.5 Z"/></g>
<g><path style="opacity:1" fill="#4ab3de" d="M 113.5,137.5 C 112.5,137.5 111.5,137.5 110.5,137.5C 110.666,142.179 110.499,146.845 110,151.5C 109.692,152.308 109.192,152.975 108.5,153.5C 107.636,149.184 106.969,144.851 106.5,140.5C 106.728,133.449 107.395,126.449 108.5,119.5C 111.167,119.5 113.833,119.5 116.5,119.5C 115.78,125.674 114.78,131.674 113.5,137.5 Z"/></g>
<g><path style="opacity:1" fill="#4aafd2" d="M 173.5,123.5 C 170.246,127.714 168.579,127.048 168.5,121.5C 163.909,120.981 159.242,120.981 154.5,121.5C 153.141,127.885 153.308,134.218 155,140.5C 156.266,135.856 156.766,131.19 156.5,126.5C 158.132,125.703 159.632,124.703 161,123.5C 162.31,124.13 163.144,125.13 163.5,126.5C 162.5,126.5 161.5,126.5 160.5,126.5C 160.5,131.167 160.5,135.833 160.5,140.5C 163.325,140.919 165.491,139.919 167,137.5C 167.498,134.183 167.665,130.85 167.5,127.5C 168.833,132.833 170.167,138.167 171.5,143.5C 171.461,144.583 171.127,145.583 170.5,146.5C 172.683,149.99 174.35,153.657 175.5,157.5C 172.428,157.817 169.428,157.484 166.5,156.5C 164.921,153.006 163.087,149.673 161,146.5C 160.667,150.167 160.333,153.833 160,157.5C 157.619,158.435 155.119,158.768 152.5,158.5C 152.5,145.5 152.5,132.5 152.5,119.5C 157.489,118.778 162.489,118.612 167.5,119C 169.747,120.277 171.747,121.777 173.5,123.5 Z"/></g>
<g><path style="opacity:1" fill="#49b0d3" d="M 190.5,143.5 C 190.5,138.833 190.5,134.167 190.5,129.5C 191.504,125.992 193.171,122.826 195.5,120C 198.554,119.179 201.554,119.345 204.5,120.5C 201.082,125.075 198.416,130.075 196.5,135.5C 199.445,142.607 201.779,149.94 203.5,157.5C 200.5,157.5 197.5,157.5 194.5,157.5C 193.479,152.751 192.146,148.084 190.5,143.5 Z"/></g>
<g><path style="opacity:1" fill="#55bdce" d="M 188.5,125.5 C 188.338,127.527 188.505,129.527 189,131.5C 189.278,130.584 189.778,129.918 190.5,129.5C 190.5,134.167 190.5,138.833 190.5,143.5C 188.862,147.913 187.862,152.579 187.5,157.5C 187.172,146.654 187.506,135.987 188.5,125.5 Z"/></g>
<g><path style="opacity:1" fill="#49afd4" d="M 80.5,119.5 C 83.5,119.5 86.5,119.5 89.5,119.5C 90.0052,126.53 90.8385,133.53 92,140.5C 93.029,133.461 94.1956,126.461 95.5,119.5C 97.8333,119.5 100.167,119.5 102.5,119.5C 103.056,125.338 103.723,131.171 104.5,137C 104.608,138.681 105.275,139.848 106.5,140.5C 106.969,144.851 107.636,149.184 108.5,153.5C 109.192,152.975 109.692,152.308 110,151.5C 110.499,146.845 110.666,142.179 110.5,137.5C 111.5,137.5 112.5,137.5 113.5,137.5C 112.592,143.856 111.592,150.19 110.5,156.5C 110.5,156.833 110.5,157.167 110.5,157.5C 107.5,157.5 104.5,157.5 101.5,157.5C 100.283,132.867 98.2828,132.533 95.5,156.5C 92.9135,157.48 90.2469,157.813 87.5,157.5C 87.2301,152.55 86.2301,147.883 84.5,143.5C 83.9079,137.095 82.9079,130.762 81.5,124.5C 80.962,122.883 80.6287,121.216 80.5,119.5 Z"/></g>
<g><path style="opacity:1" fill="#48b3f7" d="M 84.5,121.5 C 85.8117,123.743 86.4783,126.41 86.5,129.5C 86.3333,132.167 86.1667,134.833 86,137.5C 84.6033,132.292 84.1033,126.959 84.5,121.5 Z"/></g>
<g><path style="opacity:1" fill="#defbfd" d="M 136.5,127.5 C 135.069,127.881 134.236,128.881 134,130.5C 133.333,129.833 132.667,129.167 132,128.5C 128.565,134.893 128.731,141.226 132.5,147.5C 133.689,148.429 135.022,148.762 136.5,148.5C 137.15,145.195 137.816,141.861 138.5,138.5C 138.056,134.837 137.722,131.171 137.5,127.5C 139.26,132.553 139.927,137.886 139.5,143.5C 139.133,148.707 136.466,151.207 131.5,151C 130.789,149.745 129.956,148.579 129,147.5C 128.501,143.179 128.334,138.846 128.5,134.5C 128.215,132.712 128.548,131.045 129.5,129.5C 131.458,126.764 133.792,126.097 136.5,127.5 Z"/></g>
<g><path style="opacity:1" fill="#fcfbf3" d="M 136.5,127.5 C 136.833,127.5 137.167,127.5 137.5,127.5C 137.722,131.171 138.056,134.837 138.5,138.5C 137.816,141.861 137.15,145.195 136.5,148.5C 135.022,148.762 133.689,148.429 132.5,147.5C 128.731,141.226 128.565,134.893 132,128.5C 132.667,129.167 133.333,129.833 134,130.5C 134.236,128.881 135.069,127.881 136.5,127.5 Z"/></g>
<g><path style="opacity:1" fill="#edfbfb" d="M 34.5,119.5 C 34.5,120.167 34.5,120.833 34.5,121.5C 34.5,122.5 34.5,123.5 34.5,124.5C 34.5,135.833 34.5,147.167 34.5,158.5C 40.1764,158.666 45.8431,158.499 51.5,158C 52.8333,155.667 52.8333,153.333 51.5,151C 48.854,150.503 46.1873,150.336 43.5,150.5C 43.5,147.833 43.5,145.167 43.5,142.5C 46.1667,142.5 48.8333,142.5 51.5,142.5C 51.5,139.833 51.5,137.167 51.5,134.5C 48.8333,134.5 46.1667,134.5 43.5,134.5C 43.5,132.167 43.5,129.833 43.5,127.5C 47.1667,127.5 50.8333,127.5 54.5,127.5C 56.8333,127.5 59.1667,127.5 61.5,127.5C 61.5,137.833 61.5,148.167 61.5,158.5C 64.7131,158.81 67.7131,158.477 70.5,157.5C 70.5,147.5 70.5,137.5 70.5,127.5C 72.717,126.631 75.0504,126.298 77.5,126.5C 77.5,124.833 77.5,123.167 77.5,121.5C 77.5,120.833 77.5,120.167 77.5,119.5C 78.5,119.5 79.5,119.5 80.5,119.5C 80.6287,121.216 80.962,122.883 81.5,124.5C 80.8826,124.389 80.3826,124.056 80,123.5C 79.51,124.793 79.3433,126.127 79.5,127.5C 77.5,127.5 75.5,127.5 73.5,127.5C 73.3337,134.841 73.5003,142.174 74,149.5C 74.8525,151.125 75.8525,151.458 77,150.5C 80.1501,153.107 80.3168,155.94 77.5,159C 80.1667,159.667 82.8333,159.667 85.5,159C 84.5286,153.928 84.1953,148.762 84.5,143.5C 86.2301,147.883 87.2301,152.55 87.5,157.5C 90.2469,157.813 92.9135,157.48 95.5,156.5C 98.2828,132.533 100.283,132.867 101.5,157.5C 104.5,157.5 107.5,157.5 110.5,157.5C 110.804,158.15 111.137,158.817 111.5,159.5C 79.1002,160.825 46.7669,160.825 14.5,159.5C 14.8333,158.833 15.1667,158.167 15.5,157.5C 15.3339,151.824 15.5006,146.157 16,140.5C 18.3333,145.833 20.6667,151.167 23,156.5C 25.3806,157.435 27.8806,157.768 30.5,157.5C 30.5,144.833 30.5,132.167 30.5,119.5C 27.8333,119.5 25.1667,119.5 22.5,119.5C 22.6662,125.509 22.4995,131.509 22,137.5C 20.0763,132.656 17.9096,127.99 15.5,123.5C 19.8502,124.68 22.1836,122.847 22.5,118C 26.6613,117.333 30.6613,117.833 34.5,119.5 Z"/></g>
<g><path style="opacity:1" fill="#4ab2dc" d="M 34.5,121.5 C 40.2586,121.214 45.9252,121.548 51.5,122.5C 51.5,123.833 51.5,125.167 51.5,126.5C 48.6146,126.194 45.9479,126.527 43.5,127.5C 43.5,129.833 43.5,132.167 43.5,134.5C 46.1667,134.5 48.8333,134.5 51.5,134.5C 51.5,137.167 51.5,139.833 51.5,142.5C 48.8333,142.5 46.1667,142.5 43.5,142.5C 43.5,145.167 43.5,147.833 43.5,150.5C 42.8347,148.302 42.1681,145.969 41.5,143.5C 38.8017,149.784 40.8017,152.784 47.5,152.5C 47.5,153.5 47.5,154.5 47.5,155.5C 44.1667,155.5 40.8333,155.5 37.5,155.5C 36.0288,145.107 35.0288,134.773 34.5,124.5C 34.5,123.5 34.5,122.5 34.5,121.5 Z"/></g>
<g><path style="opacity:1" fill="#c0f7fc" d="M 51.5,119.5 C 52.8333,119.5 54.1667,119.5 55.5,119.5C 54.612,122.054 54.2786,124.721 54.5,127.5C 50.8333,127.5 47.1667,127.5 43.5,127.5C 45.9479,126.527 48.6146,126.194 51.5,126.5C 51.5,125.167 51.5,123.833 51.5,122.5C 51.5,121.5 51.5,120.5 51.5,119.5 Z"/></g>
<g><path style="opacity:1" fill="#71cee3" d="M 55.5,119.5 C 62.8333,119.5 70.1667,119.5 77.5,119.5C 77.5,120.167 77.5,120.833 77.5,121.5C 70.1667,121.5 62.8333,121.5 55.5,121.5C 55.233,123.971 56.233,125.638 58.5,126.5C 60.0564,125.453 61.7231,124.786 63.5,124.5C 62.6279,130.789 62.2946,137.122 62.5,143.5C 62.5,148.167 62.5,152.833 62.5,157.5C 65.1667,157.5 67.8333,157.5 70.5,157.5C 67.7131,158.477 64.7131,158.81 61.5,158.5C 61.5,148.167 61.5,137.833 61.5,127.5C 59.1667,127.5 56.8333,127.5 54.5,127.5C 54.2786,124.721 54.612,122.054 55.5,119.5 Z"/></g>
<g><path style="opacity:1" fill="#48c2d9" d="M 34.5,119.5 C 40.1667,119.5 45.8333,119.5 51.5,119.5C 51.5,120.5 51.5,121.5 51.5,122.5C 45.9252,121.548 40.2586,121.214 34.5,121.5C 34.5,120.833 34.5,120.167 34.5,119.5 Z"/></g>
<g><path style="opacity:1" fill="#4ba3bc" d="M 70.5,127.5 C 70.5,137.5 70.5,147.5 70.5,157.5C 67.8333,157.5 65.1667,157.5 62.5,157.5C 62.5,152.833 62.5,148.167 62.5,143.5C 63.4834,147.298 63.8168,151.298 63.5,155.5C 65.1667,155.5 66.8333,155.5 68.5,155.5C 68.6769,145.981 69.3435,136.648 70.5,127.5 Z"/></g>
<g><path style="opacity:1" fill="#41b0db" d="M 77.5,121.5 C 77.5,123.167 77.5,124.833 77.5,126.5C 75.0504,126.298 72.717,126.631 70.5,127.5C 69.3435,136.648 68.6769,145.981 68.5,155.5C 66.8333,155.5 65.1667,155.5 63.5,155.5C 63.8168,151.298 63.4834,147.298 62.5,143.5C 62.2946,137.122 62.6279,130.789 63.5,124.5C 61.7231,124.786 60.0564,125.453 58.5,126.5C 56.233,125.638 55.233,123.971 55.5,121.5C 62.8333,121.5 70.1667,121.5 77.5,121.5 Z"/></g>
<g><path style="opacity:1" fill="#3facd4" d="M 188.5,122.5 C 188.5,123.5 188.5,124.5 188.5,125.5C 187.506,135.987 187.172,146.654 187.5,157.5C 185.167,157.5 182.833,157.5 180.5,157.5C 180.5,145.833 180.5,134.167 180.5,122.5C 183.167,122.5 185.833,122.5 188.5,122.5 Z"/></g>
<g><path style="opacity:1" fill="#50a6c5" d="M 121.5,127.5 C 121.5,132.833 121.5,138.167 121.5,143.5C 122.833,143.5 124.167,143.5 125.5,143.5C 125.132,139.956 126.132,136.956 128.5,134.5C 128.334,138.846 128.501,143.179 129,147.5C 129.956,148.579 130.789,149.745 131.5,151C 136.466,151.207 139.133,148.707 139.5,143.5C 140.574,148.359 138.574,151.859 133.5,154C 137.37,157.105 140.704,156.438 143.5,152C 146.575,145.182 147.909,138.015 147.5,130.5C 149.296,138.331 148.462,145.998 145,153.5C 136.881,160.384 129.048,160.051 121.5,152.5C 121.5,151.833 121.5,151.167 121.5,150.5C 119.55,143.642 119.05,136.642 120,129.5C 120.278,128.584 120.778,127.918 121.5,127.5 Z"/></g>
<g><path style="opacity:1" fill="#58a5bd" d="M 34.5,124.5 C 35.0288,134.773 36.0288,145.107 37.5,155.5C 40.8333,155.5 44.1667,155.5 47.5,155.5C 47.5,154.5 47.5,153.5 47.5,152.5C 40.8017,152.784 38.8017,149.784 41.5,143.5C 42.1681,145.969 42.8347,148.302 43.5,150.5C 46.1873,150.336 48.854,150.503 51.5,151C 52.8333,153.333 52.8333,155.667 51.5,158C 45.8431,158.499 40.1764,158.666 34.5,158.5C 34.5,147.167 34.5,135.833 34.5,124.5 Z"/></g>
<g><path style="opacity:1" fill="#8c8c8c" d="M 154.5,163.5 C 156.035,162.212 157.701,162.212 159.5,163.5C 158.675,164.386 157.675,164.719 156.5,164.5C 156.158,163.662 155.492,163.328 154.5,163.5 Z"/></g>
<g><path style="opacity:1" fill="#4b4141" d="M 122.5,163.5 C 123.5,163.5 124.5,163.5 125.5,163.5C 125.815,165.226 125.981,166.893 126,168.5C 124.667,167.167 123.333,167.167 122,168.5C 122.019,166.893 122.185,165.226 122.5,163.5 Z"/></g>
<g><path style="opacity:1" fill="#4e4e4e" d="M 152.5,168.5 C 151.167,169.833 149.833,169.833 148.5,168.5C 147.202,163.63 148.869,162.13 153.5,164C 147.397,164.872 147.064,166.372 152.5,168.5 Z"/></g>
<g><path style="opacity:1" fill="#636363" d="M 139.5,169.5 C 137.708,169.634 136.042,169.301 134.5,168.5C 133.405,163.614 135.072,161.948 139.5,163.5C 138.624,164.251 137.624,164.751 136.5,165C 140.5,165.667 140.5,166.333 136.5,167C 138.119,167.236 139.119,168.069 139.5,169.5 Z"/></g>
<g><path style="opacity:1" fill="#2a2a2a" d="M 154.5,163.5 C 155.492,163.328 156.158,163.662 156.5,164.5C 155.991,165.341 156.657,165.841 158.5,166C 156.657,166.159 155.991,166.659 156.5,167.5C 156.158,168.338 155.492,168.672 154.5,168.5C 154.5,166.833 154.5,165.167 154.5,163.5 Z"/></g>
<g><path style="opacity:1" fill="#a1a1a1" d="M 177.5,169.5 C 179.042,166.893 178.542,166.226 176,167.5C 172.912,166.746 172.746,165.58 175.5,164C 175.272,163.601 174.938,163.435 174.5,163.5C 175.209,162.596 176.209,162.263 177.5,162.5C 180.746,161.86 184.08,162.194 187.5,163.5C 186.173,165.311 185.173,167.311 184.5,169.5C 183.052,162.922 181.885,162.922 181,169.5C 179.855,170.684 178.688,170.684 177.5,169.5 Z"/></g>
<g><path style="opacity:1" fill="#4f4f4f" d="M 199.5,163.5 C 200.931,164.082 202.264,164.915 203.5,166C 202.5,166.333 201.5,166.667 200.5,167C 205.834,168.314 205.834,168.981 200.5,169C 199.594,167.301 199.261,165.467 199.5,163.5 Z"/></g>
<g><path style="opacity:1" fill="#636363" d="M 145.5,168.5 C 144.542,168.047 143.708,167.381 143,166.5C 142.536,167.094 142.369,167.761 142.5,168.5C 141.387,167.054 141.22,165.387 142,163.5C 143.316,166.028 144.483,166.028 145.5,163.5C 146.788,165.299 146.788,166.965 145.5,168.5 Z"/></g>
<g><path style="opacity:1" fill="#3c3c3c" d="M 194.5,163.5 C 195.131,165.448 196.131,167.281 197.5,169C 196.551,169.617 195.718,169.451 195,168.5C 194.506,166.866 194.34,165.199 194.5,163.5 Z"/></g>
<g><path style="opacity:1" fill="#4ba8cb" d="M 118.5,162.5 C 118.5,164.833 118.5,167.167 118.5,169.5C 81.5,169.5 44.5,169.5 7.5,169.5C 7.5,167.5 7.5,165.5 7.5,163.5C 44.3296,162.502 81.3296,162.168 118.5,162.5 Z"/></g>
<g><path style="opacity:1" fill="#565656" d="M 171.5,169.5 C 170.069,169.119 169.236,168.119 169,166.5C 167.827,169.41 165.994,170.077 163.5,168.5C 163.5,166.833 163.5,165.167 163.5,163.5C 166.011,163.838 168.345,163.838 170.5,163.5C 171.466,165.396 171.799,167.396 171.5,169.5 Z"/></g>
<g><path style="opacity:1" fill="#e2e2e2" d="M 164.5,164.5 C 165.5,164.5 166.5,164.5 167.5,164.5C 167.5,165.5 167.5,166.5 167.5,167.5C 166.5,167.5 165.5,167.5 164.5,167.5C 164.5,166.5 164.5,165.5 164.5,164.5 Z"/></g>
<g><path style="opacity:1" fill="#525252" d="M 189.5,163.5 C 190.496,163.414 191.329,163.748 192,164.5C 192.309,165.766 192.809,166.933 193.5,168C 191.5,167.333 189.5,167.333 187.5,168C 188.267,166.53 188.933,165.03 189.5,163.5 Z"/></g>
<g><path style="opacity:1" fill="#626262" d="M 133.5,168.5 C 129.793,170.163 127.793,168.829 127.5,164.5C 132.222,161.207 134.222,162.541 133.5,168.5 Z"/></g>
<g><path style="opacity:1" fill="#ebebeb" d="M 129.5,164.5 C 133.099,164.262 133.433,165.262 130.5,167.5C 128.481,166.867 128.147,165.867 129.5,164.5 Z"/></g>
<g><path style="opacity:1" fill="#767676" d="M 156.5,167.5 C 158.179,167.285 159.179,167.952 159.5,169.5C 157.585,169.784 155.919,169.451 154.5,168.5C 155.492,168.672 156.158,168.338 156.5,167.5 Z"/></g>
<g><path style="opacity:1" fill="#4e4e4e" d="M 174.5,163.5 C 174.938,163.435 175.272,163.601 175.5,164C 172.746,165.58 172.912,166.746 176,167.5C 178.542,166.226 179.042,166.893 177.5,169.5C 176.5,169.5 175.5,169.5 174.5,169.5C 171.981,167.359 171.981,165.359 174.5,163.5 Z"/></g>
<g><path style="opacity:1" fill="#e1fdfe" d="M 118.5,162.5 C 119.748,163.334 120.415,164.667 120.5,166.5C 121.167,170.5 119.5,172.167 115.5,171.5C 79.1791,170.692 42.8458,170.192 6.5,170C 4.90026,167.36 5.2336,165.193 7.5,163.5C 7.5,165.5 7.5,167.5 7.5,169.5C 44.5,169.5 81.5,169.5 118.5,169.5C 118.5,167.167 118.5,164.833 118.5,162.5 Z"/></g>
</svg>
