<?xml version="1.0" encoding="UTF-8"?>
<!DOCTYPE svg PUBLIC "-//W3C//DTD SVG 1.1//EN" "http://www.w3.org/Graphics/SVG/1.1/DTD/svg11.dtd">
<svg xmlns="http://www.w3.org/2000/svg" version="1.1" width="1237px" height="469px" style="shape-rendering:geometricPrecision; text-rendering:geometricPrecision; image-rendering:optimizeQuality; fill-rule:evenodd; clip-rule:evenodd" xmlns:xlink="http://www.w3.org/1999/xlink">
<g><path style="opacity:0.959" fill="#000000" d="M 586.5,27.5 C 606.5,27.5 626.5,27.5 646.5,27.5C 646.5,47.8333 646.5,68.1667 646.5,88.5C 626.5,88.5 606.5,88.5 586.5,88.5C 586.5,68.1667 586.5,47.8333 586.5,27.5 Z"/></g>
<g><path style="opacity:0.981" fill="#000000" d="M 152.5,143.5 C 186.581,140.547 218.248,147.713 247.5,165C 272.18,182.489 288.346,205.989 296,235.5C 301.665,257.818 303.832,280.484 302.5,303.5C 229.5,303.5 156.5,303.5 83.5,303.5C 83.7562,325.203 89.5895,345.203 101,363.5C 122.06,389.196 149.227,400.029 182.5,396C 205.45,394.615 223.616,384.781 237,366.5C 241.628,358.784 244.128,350.451 244.5,341.5C 263.5,341.5 282.5,341.5 301.5,341.5C 292.501,396.333 260.501,428.499 205.5,438C 172.07,444.27 139.404,441.603 107.5,430C 60.5473,407.653 34.0473,370.486 28,318.5C 21.9074,269.138 34.2408,225.138 65,186.5C 88.8616,161.319 118.028,146.986 152.5,143.5 Z M 163.5,187.5 C 211.442,188.276 238.442,212.443 244.5,260C 191.833,260.667 139.167,260.667 86.5,260C 94.6897,216.97 120.356,192.803 163.5,187.5 Z"/></g>
<g><path style="opacity:0.98" fill="#000000" d="M 415.5,143.5 C 442.785,141.728 469.452,144.895 495.5,153C 530.621,165.959 549.621,191.126 552.5,228.5C 534.488,228.833 516.488,228.5 498.5,227.5C 496.1,211.851 487.766,200.684 473.5,194C 454.638,187.85 435.305,185.85 415.5,188C 401.035,189.258 388.535,194.758 378,204.5C 370.11,215.558 368.444,227.558 373,240.5C 376.223,246.723 381.057,251.223 387.5,254C 392.64,256.269 397.973,257.935 403.5,259C 426.459,261.996 449.459,264.663 472.5,267C 546.038,276.234 572.205,316.401 551,387.5C 536.809,413.708 514.975,429.875 485.5,436C 446.267,444.626 407.601,442.626 369.5,430C 332.607,416.278 313.274,389.778 311.5,350.5C 330.167,350.5 348.833,350.5 367.5,350.5C 369.171,370.014 379.171,383.18 397.5,390C 420.485,396.977 443.818,398.31 467.5,394C 498.431,386.286 509.931,367.119 502,336.5C 496.188,328.173 488.354,322.673 478.5,320C 474.203,318.842 469.869,317.842 465.5,317C 442.541,314.004 419.541,311.337 396.5,309C 330.818,298.161 307.318,260.661 326,196.5C 335.083,176.364 349.916,162.198 370.5,154C 385.161,148.416 400.161,144.916 415.5,143.5 Z"/></g>
<g><path style="opacity:0.982" fill="#000000" d="M 798.5,143.5 C 823.165,141.814 847.165,144.981 870.5,153C 907.371,168.207 931.204,195.04 942,233.5C 947.78,256.468 950.28,279.801 949.5,303.5C 876.5,303.5 803.5,303.5 730.5,303.5C 729.896,332.212 739.563,356.712 759.5,377C 780.082,392.981 803.415,399.315 829.5,396C 852.552,394.232 870.718,384.065 884,365.5C 888.356,358.076 890.856,350.076 891.5,341.5C 910.167,341.5 928.833,341.5 947.5,341.5C 941.992,386.336 917.992,416.503 875.5,432C 832.971,445.773 790.971,444.439 749.5,428C 706.637,405.84 681.803,370.674 675,322.5C 667.87,273.774 678.87,229.774 708,190.5C 731.937,162.782 762.104,147.115 798.5,143.5 Z M 809.5,187.5 C 858.327,187.662 885.327,211.995 890.5,260.5C 838.167,260.5 785.833,260.5 733.5,260.5C 740.678,216.984 766.012,192.651 809.5,187.5 Z"/></g>
<g><path style="opacity:0.984" fill="#000000" d="M 1076.5,143.5 C 1104.23,141.153 1130.9,145.32 1156.5,156C 1187.12,171.362 1204.28,196.195 1208,230.5C 1208.5,298.499 1208.67,366.499 1208.5,434.5C 1191.83,434.667 1175.16,434.5 1158.5,434C 1157.44,421.869 1156.27,409.702 1155,397.5C 1134.28,427.194 1105.62,441.861 1069,441.5C 1049.96,441.4 1031.46,438.233 1013.5,432C 979.022,417.327 962.022,391.161 962.5,353.5C 961.827,311.653 981.494,284.82 1021.5,273C 1032,270.138 1042.67,268.138 1053.5,267C 1087.15,265.59 1120.81,265.09 1154.5,265.5C 1159.54,205.041 1132.21,179.874 1072.5,190C 1048.34,194.381 1034.01,208.548 1029.5,232.5C 1010.83,232.5 992.167,232.5 973.5,232.5C 977.797,193.702 998.13,167.202 1034.5,153C 1048.27,148.215 1062.27,145.049 1076.5,143.5 Z M 1071.5,308.5 C 1099.17,308.5 1126.83,308.5 1154.5,308.5C 1154.67,321.504 1154.5,334.504 1154,347.5C 1135.92,379.366 1108.42,395.7 1071.5,396.5C 1029.68,395.849 1013.51,375.183 1023,334.5C 1027.46,324.349 1034.96,317.516 1045.5,314C 1054.14,311.399 1062.81,309.566 1071.5,308.5 Z"/></g>
<g><path style="opacity:0.99" fill="#000000" d="M 589.5,151.5 C 607.5,151.5 625.5,151.5 643.5,151.5C 643.5,245.833 643.5,340.167 643.5,434.5C 625.5,434.5 607.5,434.5 589.5,434.5C 589.5,340.167 589.5,245.833 589.5,151.5 Z"/></g>
</svg>
