<?xml version="1.0" encoding="UTF-8"?>
<!DOCTYPE svg PUBLIC "-//W3C//DTD SVG 1.1//EN" "http://www.w3.org/Graphics/SVG/1.1/DTD/svg11.dtd">
<svg xmlns="http://www.w3.org/2000/svg" version="1.1" width="1200px" height="569px" style="shape-rendering:geometricPrecision; text-rendering:geometricPrecision; image-rendering:optimizeQuality; fill-rule:evenodd; clip-rule:evenodd" xmlns:xlink="http://www.w3.org/1999/xlink">
<g><path style="opacity:0.992" fill="#062848" d="M 48.5,-0.5 C 110.5,-0.5 172.5,-0.5 234.5,-0.5C 234.5,8.5 234.5,17.5 234.5,26.5C 185.166,26.3333 135.832,26.5 86.5,27C 80.4465,28.0529 76.6132,31.5529 75,37.5C 74.5,74.4985 74.3333,111.498 74.5,148.5C 112.501,148.333 150.501,148.5 188.5,149C 194.595,164.354 200.262,179.854 205.5,195.5C 161.833,195.5 118.167,195.5 74.5,195.5C 74.3333,234.168 74.5,272.835 75,311.5C 77.6939,321.525 84.1939,327.359 94.5,329C 144.166,329.5 193.832,329.667 243.5,329.5C 243.5,338.5 243.5,347.5 243.5,356.5C 176.499,356.667 109.499,356.5 42.5,356C 17.0003,351.335 2.66701,336.168 -0.5,310.5C -0.5,224.167 -0.5,137.833 -0.5,51.5C 0.799661,38.6645 5.29966,26.9978 13,16.5C 23.024,6.90347 34.8573,1.2368 48.5,-0.5 Z"/></g>
<g><path style="opacity:0.99" fill="#062748" d="M 376.5,-0.5 C 393.5,-0.5 410.5,-0.5 427.5,-0.5C 444.009,1.28426 460.676,2.95093 477.5,4.5C 477.5,13.1667 477.5,21.8333 477.5,30.5C 448.598,26.3674 419.598,25.5341 390.5,28C 352.897,32.2337 337.731,52.7337 345,89.5C 348.587,97.499 353.754,104.332 360.5,110C 367.559,115.391 374.893,120.391 382.5,125C 409.472,138.147 435.472,152.814 460.5,169C 504.909,203.112 517.409,246.612 498,299.5C 487.265,320.9 470.765,336.066 448.5,345C 434.07,350.953 419.07,354.62 403.5,356C 373.786,357.087 344.119,356.42 314.5,354C 303.383,352.643 292.383,350.643 281.5,348C 280.518,339.919 280.184,331.752 280.5,323.5C 309.654,328.099 338.987,329.932 368.5,329C 385.811,328.23 401.478,322.897 415.5,313C 429.235,299.574 434.068,283.408 430,264.5C 427.835,255.835 423.835,248.169 418,241.5C 410.14,233.826 401.64,226.993 392.5,221C 373.488,209.826 354.155,199.159 334.5,189C 313.762,177.88 296.595,162.713 283,143.5C 269.157,116.51 267.823,88.8436 279,60.5C 292.263,32.1075 314.097,13.9408 344.5,6C 355.164,3.10098 365.83,0.934317 376.5,-0.5 Z"/></g>
<g><path style="opacity:0.989" fill="#062748" d="M 734.5,-0.5 C 796.5,-0.5 858.5,-0.5 920.5,-0.5C 920.5,8.5 920.5,17.5 920.5,26.5C 871.166,26.3333 821.832,26.5 772.5,27C 765.583,28.253 761.749,32.4197 761,39.5C 760.5,75.8318 760.333,112.165 760.5,148.5C 798.506,148.167 836.506,148.5 874.5,149.5C 879.97,164.578 885.637,179.578 891.5,194.5C 847.838,195.5 804.172,195.833 760.5,195.5C 760.333,233.168 760.5,270.835 761,308.5C 762.5,320.667 769.333,327.5 781.5,329C 827.499,329.5 873.499,329.667 919.5,329.5C 919.5,338.5 919.5,347.5 919.5,356.5C 856.166,356.667 792.832,356.5 729.5,356C 702.204,350.988 687.704,334.488 686,306.5C 685.333,272.167 685.333,237.833 686,203.5C 703.659,191.996 721.159,180.33 738.5,168.5C 721.465,156.143 704.132,144.143 686.5,132.5C 685.078,103.814 685.245,75.1471 687,46.5C 691.471,19.1947 707.305,3.528 734.5,-0.5 Z"/></g>
<g><path style="opacity:0.983" fill="#062748" d="M 1006.5,-0.5 C 1068.5,-0.5 1130.5,-0.5 1192.5,-0.5C 1192.5,8.5 1192.5,17.5 1192.5,26.5C 1143.5,26.3333 1094.5,26.5 1045.5,27C 1039.35,27.4764 1035.52,30.643 1034,36.5C 1033.5,73.8318 1033.33,111.165 1033.5,148.5C 1071.51,148.167 1109.51,148.5 1147.5,149.5C 1153.36,164.422 1159.03,179.422 1164.5,194.5C 1120.84,195.5 1077.17,195.833 1033.5,195.5C 1033.33,234.501 1033.5,273.501 1034,312.5C 1037.1,321.924 1043.6,327.424 1053.5,329C 1102.17,329.5 1150.83,329.667 1199.5,329.5C 1199.5,338.5 1199.5,347.5 1199.5,356.5C 1133.5,356.667 1067.5,356.5 1001.5,356C 973.566,351.395 959.066,334.895 958,306.5C 957.039,221.819 957.372,137.152 959,52.5C 961.493,22.5221 977.327,4.85544 1006.5,-0.5 Z"/></g>
<g><path style="opacity:0.991" fill="#062748" d="M 552.5,4.5 C 577.536,21.1095 602.369,38.1095 627,55.5C 627.5,155.833 627.667,256.166 627.5,356.5C 602.5,356.5 577.5,356.5 552.5,356.5C 552.5,239.167 552.5,121.833 552.5,4.5 Z"/></g>
<g><path style="opacity:0.865" fill="#062849" d="M 343.5,417.5 C 511.5,417.5 679.5,417.5 847.5,417.5C 847.5,418.833 847.5,420.167 847.5,421.5C 679.5,421.5 511.5,421.5 343.5,421.5C 343.5,420.167 343.5,418.833 343.5,417.5 Z"/></g>
<g><path style="opacity:0.954" fill="#062749" d="M 489.5,458.5 C 492.833,458.027 495,459.36 496,462.5C 508.391,492.948 521.057,523.281 534,553.5C 537.299,558.903 542.132,561.903 548.5,562.5C 548.5,563.833 548.5,565.167 548.5,566.5C 534.5,566.5 520.5,566.5 506.5,566.5C 506.5,565.167 506.5,563.833 506.5,562.5C 512.332,563.084 515.666,560.584 516.5,555C 514.196,546.926 511.196,539.092 507.5,531.5C 494.167,530.167 480.833,530.167 467.5,531.5C 464.065,539.197 461.065,547.03 458.5,555C 458.354,557.034 459.02,558.701 460.5,560C 463.721,561.278 467.054,562.111 470.5,562.5C 470.5,563.833 470.5,565.167 470.5,566.5C 459.167,566.5 447.833,566.5 436.5,566.5C 436.238,565.022 436.571,563.689 437.5,562.5C 443.714,560.454 448.214,556.454 451,550.5C 464.128,519.916 476.961,489.25 489.5,458.5 Z M 487.5,484.5 C 493.391,497.293 499.057,510.293 504.5,523.5C 493.181,524.666 481.848,524.832 470.5,524C 476.308,510.885 481.975,497.719 487.5,484.5 Z"/></g>
<g><path style="opacity:0.948" fill="#062748" d="M 807.5,568.5 C 803.167,568.5 798.833,568.5 794.5,568.5C 787.741,566.64 780.908,564.64 774,562.5C 770.438,562.901 768.938,564.901 769.5,568.5C 768.167,568.5 766.833,568.5 765.5,568.5C 765.5,556.167 765.5,543.833 765.5,531.5C 766.833,531.5 768.167,531.5 769.5,531.5C 771.706,551.874 783.04,561.707 803.5,561C 819.192,557.453 823.359,548.62 816,534.5C 813.78,531.979 811.28,529.812 808.5,528C 798.003,522.252 787.67,516.252 777.5,510C 762.801,498.089 760.634,484.256 771,468.5C 780.169,459.831 791.003,456.664 803.5,459C 808.731,460.633 813.898,462.466 819,464.5C 822.195,463.779 823.695,461.779 823.5,458.5C 824.833,458.5 826.167,458.5 827.5,458.5C 827.5,470.833 827.5,483.167 827.5,495.5C 826.167,495.5 824.833,495.5 823.5,495.5C 821.743,473.56 810.076,464.06 788.5,467C 775.234,474.657 774.234,483.657 785.5,494C 798.665,501.415 811.665,509.081 824.5,517C 836.511,529.467 837.678,542.967 828,557.5C 822.145,563.175 815.311,566.842 807.5,568.5 Z"/></g>
<g><path style="opacity:0.965" fill="#052748" d="M 353.5,460.5 C 372.208,460.081 390.875,460.581 409.5,462C 431.793,469.089 438.626,483.589 430,505.5C 424.915,513.24 417.749,517.74 408.5,519C 400.09,519.717 391.756,519.217 383.5,517.5C 383.097,530.885 383.597,544.218 385,557.5C 385.5,559.333 386.667,560.5 388.5,561C 391.793,561.826 395.126,562.326 398.5,562.5C 398.5,563.833 398.5,565.167 398.5,566.5C 383.5,566.5 368.5,566.5 353.5,566.5C 353.5,565.167 353.5,563.833 353.5,562.5C 356.568,562.453 359.568,561.953 362.5,561C 364.667,560.167 366.167,558.667 367,556.5C 367.667,527.5 367.667,498.5 367,469.5C 366.5,467.667 365.333,466.5 363.5,466C 360.274,464.801 356.941,464.301 353.5,464.5C 353.5,463.167 353.5,461.833 353.5,460.5 Z M 391.5,467.5 C 406.208,468.374 414.208,476.207 415.5,491C 413.205,510.143 402.871,516.976 384.5,511.5C 383.167,497.5 383.167,483.5 384.5,469.5C 386.982,468.933 389.316,468.266 391.5,467.5 Z"/></g>
<g><path style="opacity:0.945" fill="#062749" d="M 567.5,460.5 C 587.536,460.089 607.536,460.589 627.5,462C 645.498,466.841 652.665,478.341 649,496.5C 646.812,503.044 642.646,507.877 636.5,511C 632.783,512.405 629.117,513.905 625.5,515.5C 634.139,527.973 642.973,540.306 652,552.5C 657.572,558.369 664.405,561.702 672.5,562.5C 672.5,563.833 672.5,565.167 672.5,566.5C 662.828,566.666 653.161,566.5 643.5,566C 632.078,549.823 620.411,533.823 608.5,518C 605.183,517.502 601.85,517.335 598.5,517.5C 598.194,530.704 598.527,543.871 599.5,557C 600.154,558.987 601.487,560.32 603.5,561C 606.757,562.043 610.09,562.543 613.5,562.5C 613.5,563.833 613.5,565.167 613.5,566.5C 598.167,566.5 582.833,566.5 567.5,566.5C 567.5,565.167 567.5,563.833 567.5,562.5C 572.532,562.786 577.032,561.452 581,558.5C 582.135,543.385 582.635,528.218 582.5,513C 582.333,499.167 582.167,485.333 582,471.5C 581.654,469.152 580.487,467.319 578.5,466C 574.94,464.763 571.273,464.263 567.5,464.5C 567.5,463.167 567.5,461.833 567.5,460.5 Z M 602.5,467.5 C 624.721,465.632 633.887,475.632 630,497.5C 627.057,503.07 622.557,506.903 616.5,509C 610.601,510.594 604.601,511.428 598.5,511.5C 598.5,497.167 598.5,482.833 598.5,468.5C 600.099,468.768 601.432,468.434 602.5,467.5 Z"/></g>
<g><path style="opacity:0.95" fill="#052849" d="M 689.5,460.5 C 704.833,460.5 720.167,460.5 735.5,460.5C 735.5,461.833 735.5,463.167 735.5,464.5C 731.727,464.263 728.06,464.763 724.5,466C 722.513,467.319 721.346,469.152 721,471.5C 720.333,499.5 720.333,527.5 721,555.5C 721.398,558.232 722.898,560.065 725.5,561C 728.757,562.043 732.09,562.543 735.5,562.5C 735.5,563.833 735.5,565.167 735.5,566.5C 720.167,566.5 704.833,566.5 689.5,566.5C 689.5,565.167 689.5,563.833 689.5,562.5C 694.532,562.786 699.032,561.452 703,558.5C 703.333,557.5 703.667,556.5 704,555.5C 704.667,527.5 704.667,499.5 704,471.5C 703.654,469.152 702.487,467.319 700.5,466C 696.94,464.763 693.273,464.263 689.5,464.5C 689.5,463.167 689.5,461.833 689.5,460.5 Z"/></g>
</svg>
