<?xml version="1.0" encoding="UTF-8"?>
<!DOCTYPE svg PUBLIC "-//W3C//DTD SVG 1.1//EN" "http://www.w3.org/Graphics/SVG/1.1/DTD/svg11.dtd">
<svg xmlns="http://www.w3.org/2000/svg" version="1.1" width="584px" height="341px" style="shape-rendering:geometricPrecision; text-rendering:geometricPrecision; image-rendering:optimizeQuality; fill-rule:evenodd; clip-rule:evenodd" xmlns:xlink="http://www.w3.org/1999/xlink">
<g><path style="opacity:1" fill="#fefefe" d="M -0.5,-0.5 C 194.167,-0.5 388.833,-0.5 583.5,-0.5C 583.5,113.167 583.5,226.833 583.5,340.5C 388.833,340.5 194.167,340.5 -0.5,340.5C -0.5,226.833 -0.5,113.167 -0.5,-0.5 Z"/></g>
<g><path style="opacity:1" fill="#aecf85" d="M 159.5,83.5 C 125.996,83.1684 92.6625,83.5017 59.5,84.5C 58.8333,84.5 58.1667,84.5 57.5,84.5C 57.6107,83.8826 57.944,83.3826 58.5,83C 92.3358,82.1691 126.002,82.3358 159.5,83.5 Z"/></g>
<g><path style="opacity:1" fill="#b6b3b4" d="M 327.5,85.5 C 322.295,83.281 316.961,82.9476 311.5,84.5C 316.29,82.0324 321.29,81.8658 326.5,84C 327.056,84.3826 327.389,84.8826 327.5,85.5 Z"/></g>
<g><path style="opacity:1" fill="#cccacb" d="M 455.5,84.5 C 450.13,84.3921 444.797,84.7255 439.5,85.5C 439.918,84.7784 440.584,84.2784 441.5,84C 446.352,83.1849 451.019,83.3516 455.5,84.5 Z"/></g>
<g><path style="opacity:1" fill="#6a6768" d="M 273.5,86.5 C 279.026,84.9332 284.692,84.2665 290.5,84.5C 292.199,84.3398 293.866,84.5065 295.5,85C 297.102,87.111 299.102,88.611 301.5,89.5C 304.54,87.3133 307.873,85.6466 311.5,84.5C 316.961,82.9476 322.295,83.281 327.5,85.5C 332.447,87.2794 335.947,90.6127 338,95.5C 338.667,109.167 338.667,122.833 338,136.5C 334.987,141.535 330.82,142.702 325.5,140C 324.117,138.729 323.117,137.229 322.5,135.5C 322.667,124.162 322.5,112.828 322,101.5C 321.617,100.944 321.117,100.611 320.5,100.5C 315.411,96.3044 310.578,96.6378 306,101.5C 305.667,112.833 305.333,124.167 305,135.5C 303.668,137.66 302.168,139.66 300.5,141.5C 297.763,141.599 295.096,141.265 292.5,140.5C 291.571,139.064 290.405,137.731 289,136.5C 288.667,124.833 288.333,113.167 288,101.5C 287.617,100.944 287.117,100.611 286.5,100.5C 282.115,95.1827 277.782,95.1827 273.5,100.5C 272.778,100.918 272.278,101.584 272,102.5C 271.5,113.495 271.333,124.495 271.5,135.5C 269.204,140.812 265.204,142.646 259.5,141C 257.641,139.442 256.141,137.609 255,135.5C 254.5,122.838 254.333,110.171 254.5,97.5C 253.022,97.238 251.689,97.5713 250.5,98.5C 244.573,111.6 238.406,124.6 232,137.5C 225.922,143.145 220.256,142.811 215,136.5C 208.634,122.767 201.967,109.1 195,95.5C 192.905,88.2692 195.572,84.2692 203,83.5C 205.034,83.3536 206.701,84.0203 208,85.5C 213.317,95.7881 217.65,106.455 221,117.5C 221.833,118.5 222.667,119.5 223.5,120.5C 227.575,110.344 232.241,100.344 237.5,90.5C 243.614,83.9714 250.947,82.1381 259.5,85C 262.318,86.338 264.985,87.838 267.5,89.5C 269.511,88.4814 271.511,87.4814 273.5,86.5 Z"/></g>
<g><path style="opacity:1" fill="#929091" d="M 290.5,84.5 C 284.692,84.2665 279.026,84.9332 273.5,86.5C 274.429,85.6851 275.429,84.8518 276.5,84C 281.352,83.1849 286.019,83.3516 290.5,84.5 Z"/></g>
<g><path style="opacity:1" fill="#6b6869" d="M 400.5,122.5 C 400.5,123.833 400.5,125.167 400.5,126.5C 401.5,126.5 402.5,126.5 403.5,126.5C 403.5,125.5 403.5,124.5 403.5,123.5C 406.838,113.831 410.171,104.164 413.5,94.5C 415.308,91.113 417.308,87.7797 419.5,84.5C 422.352,84.3524 424.019,85.6857 424.5,88.5C 423.943,91.7646 422.943,94.7646 421.5,97.5C 419.62,99.7554 418.62,102.422 418.5,105.5C 413.771,116.688 409.438,128.021 405.5,139.5C 403.167,139.5 400.833,139.5 398.5,139.5C 398.771,137.62 398.104,136.287 396.5,135.5C 396.5,134.833 396.5,134.167 396.5,133.5C 396.245,131.033 395.245,129.033 393.5,127.5C 393.59,124.848 392.924,122.515 391.5,120.5C 390.469,116.368 389.136,112.368 387.5,108.5C 387.204,106.597 386.537,104.93 385.5,103.5C 385.5,102.167 385.5,100.833 385.5,99.5C 381.963,100.386 380.296,102.719 380.5,106.5C 377.087,113.876 374.421,121.542 372.5,129.5C 370.446,132.008 369.446,135.008 369.5,138.5C 367.18,140.226 364.513,140.893 361.5,140.5C 355.09,123.381 349.09,106.048 343.5,88.5C 343.798,84.774 345.798,83.6073 349.5,85C 355.764,98.2855 360.764,112.119 364.5,126.5C 365.681,125.485 366.681,124.319 367.5,123C 370.461,109.781 374.795,97.1145 380.5,85C 382.5,84.3333 384.5,84.3333 386.5,85C 391.057,97.5013 395.724,110.001 400.5,122.5 Z"/></g>
<g><path style="opacity:1" fill="#a1a0a0" d="M 419.5,84.5 C 417.308,87.7797 415.308,91.113 413.5,94.5C 414.226,91.8206 415.059,89.154 416,86.5C 416.816,85.1772 417.983,84.5106 419.5,84.5 Z"/></g>
<g><path style="opacity:1" fill="#8dbd4e" d="M 59.5,84.5 C 92.6625,83.5017 125.996,83.1684 159.5,83.5C 159.5,83.8333 159.5,84.1667 159.5,84.5C 155.198,88.5243 150.531,92.3576 145.5,96C 145.833,96.3333 146.167,96.6667 146.5,97C 145.552,97.4828 144.552,97.6495 143.5,97.5C 143.715,99.1788 143.048,100.179 141.5,100.5C 125.859,100.912 110.525,100.912 95.5,100.5C 95.5,98.5 95.5,96.5 95.5,94.5C 98.1873,94.6641 100.854,94.4974 103.5,94C 105.208,91.9565 107.208,90.2899 109.5,89C 103.99,88.9495 98.6567,88.2828 93.5,87C 102.167,86.6667 110.833,86.3333 119.5,86C 99.5149,84.8864 79.5149,84.3864 59.5,84.5 Z"/></g>
<g><path style="opacity:1" fill="#9d9c9d" d="M 570.5,83.5 C 578.147,83.3133 581.314,86.98 580,94.5C 575.155,100.079 570.822,99.7456 567,93.5C 566.333,91.8333 566.333,90.1667 567,88.5C 568.14,86.7208 569.307,85.0541 570.5,83.5 Z"/></g>
<g><path style="opacity:1" fill="#e8e6e7" d="M 571.5,85.5 C 577.787,85.9545 579.787,89.1211 577.5,95C 572.954,97.6186 569.954,96.4519 568.5,91.5C 568.984,89.1992 569.984,87.1992 571.5,85.5 Z"/></g>
<g><path style="opacity:1" fill="#797778" d="M 571.5,87.5 C 575.908,87.062 577.575,89.062 576.5,93.5C 574.5,93.5 572.5,93.5 570.5,93.5C 570.325,91.3792 570.659,89.3792 571.5,87.5 Z"/></g>
<g><path style="opacity:1" fill="#dbd9da" d="M 484.5,85.5 C 484.5,85.8333 484.5,86.1667 484.5,86.5C 483.503,102.992 483.17,119.658 483.5,136.5C 482.834,128.173 482.5,119.673 482.5,111C 482.502,102.139 483.169,93.6394 484.5,85.5 Z"/></g>
<g><path style="opacity:1" fill="#b0aeaf" d="M 512.5,92.5 C 509.659,93.6693 506.659,94.6693 503.5,95.5C 505.919,93.1376 508.919,92.1376 512.5,92.5 Z"/></g>
<g><path style="opacity:1" fill="#8a8889" d="M 484.5,86.5 C 484.333,104.17 484.5,121.836 485,139.5C 486.356,140.38 487.856,140.714 489.5,140.5C 485.341,142.586 483.341,141.252 483.5,136.5C 483.17,119.658 483.503,102.992 484.5,86.5 Z"/></g>
<g><path style="opacity:1" fill="#6a6768" d="M 489.5,84.5 C 490.904,87.9704 491.904,91.6371 492.5,95.5C 493.107,95.3764 493.44,95.0431 493.5,94.5C 498.262,87.1168 504.928,84.1168 513.5,85.5C 513.833,86.5 514.167,87.5 514.5,88.5C 514.66,90.3545 513.993,91.6879 512.5,92.5C 508.919,92.1376 505.919,93.1376 503.5,95.5C 499.183,97.6528 496.016,100.986 494,105.5C 492.76,116.442 492.093,127.442 492,138.5C 491.292,139.381 490.458,140.047 489.5,140.5C 487.856,140.714 486.356,140.38 485,139.5C 484.5,121.836 484.333,104.17 484.5,86.5C 484.5,86.1667 484.5,85.8333 484.5,85.5C 486.042,84.6993 487.708,84.366 489.5,84.5 Z"/></g>
<g><path style="opacity:1" fill="#acaaab" d="M 489.5,84.5 C 490.458,84.9528 491.292,85.6195 492,86.5C 492.183,89.3647 492.683,92.0314 493.5,94.5C 493.44,95.0431 493.107,95.3764 492.5,95.5C 491.904,91.6371 490.904,87.9704 489.5,84.5 Z"/></g>
<g><path style="opacity:1" fill="#d1cfd0" d="M 286.5,100.5 C 284.044,99.7379 281.544,99.0712 279,98.5C 277.061,98.9543 275.228,99.621 273.5,100.5C 277.782,95.1827 282.115,95.1827 286.5,100.5 Z"/></g>
<g><path style="opacity:1" fill="#6b6768" d="M 455.5,84.5 C 458.198,86.1725 461.198,87.3392 464.5,88C 466.373,90.2089 468.54,92.0422 471,93.5C 471.21,95.0581 471.71,96.3915 472.5,97.5C 473.338,111.149 473.671,124.816 473.5,138.5C 471.992,141.25 469.659,142.084 466.5,141C 465.577,138.959 465.244,136.792 465.5,134.5C 461.542,136.479 457.542,138.479 453.5,140.5C 447.028,142.084 440.695,141.751 434.5,139.5C 430.105,137.438 427.105,134.104 425.5,129.5C 425.437,124.797 425.771,120.13 426.5,115.5C 429.589,111.449 433.589,108.616 438.5,107C 445.882,106.237 453.216,106.403 460.5,107.5C 461.919,108.451 463.585,108.784 465.5,108.5C 465.806,105.615 465.473,102.948 464.5,100.5C 463.581,97.9108 461.914,95.9108 459.5,94.5C 458.653,93.0337 457.32,92.2004 455.5,92C 453.167,91.8333 450.833,91.6667 448.5,91.5C 444.859,91.3148 441.526,91.9814 438.5,93.5C 436.307,94.7969 433.973,94.7969 431.5,93.5C 430.927,88.0684 433.594,85.4018 439.5,85.5C 444.797,84.7255 450.13,84.3921 455.5,84.5 Z"/></g>
<g><path style="opacity:1" fill="#b6b4b5" d="M 459.5,94.5 C 452.602,92.2976 445.602,91.9643 438.5,93.5C 441.526,91.9814 444.859,91.3148 448.5,91.5C 450.833,91.6667 453.167,91.8333 455.5,92C 457.32,92.2004 458.653,93.0337 459.5,94.5 Z"/></g>
<g><path style="opacity:1" fill="#c3c0c1" d="M 385.5,103.5 C 384.778,103.082 384.278,102.416 384,101.5C 382.374,102.955 381.208,104.622 380.5,106.5C 380.296,102.719 381.963,100.386 385.5,99.5C 385.5,100.833 385.5,102.167 385.5,103.5 Z"/></g>
<g><path style="opacity:1" fill="#bad697" d="M 76.5,103.5 C 99.5452,103.187 122.545,103.521 145.5,104.5C 145.5,104.833 145.5,105.167 145.5,105.5C 121.164,105.333 96.8311,105.5 72.5,106C 71.6667,106.833 70.8333,107.667 70,108.5C 69.831,122.006 69.331,135.34 68.5,148.5C 68.5,135.5 68.5,122.5 68.5,109.5C 69.6974,105.646 72.3641,103.646 76.5,103.5 Z"/></g>
<g><path style="opacity:1" fill="#84b448" d="M 159.5,84.5 C 163.141,84.6516 165.807,86.3182 167.5,89.5C 167.704,91.6854 168.37,93.6854 169.5,95.5C 169.5,122.833 169.5,150.167 169.5,177.5C 169.167,177.5 168.833,177.5 168.5,177.5C 168.667,159.164 168.5,140.83 168,122.5C 166.767,125.734 164.767,128.401 162,130.5C 161.383,129.551 161.549,128.718 162.5,128C 161.552,127.517 160.552,127.351 159.5,127.5C 159.662,129.527 159.495,131.527 159,133.5C 157.43,134.614 156.097,135.947 155,137.5C 154.667,135.167 154.333,132.833 154,130.5C 152.919,134.928 152.252,139.261 152,143.5C 151.667,131.167 151.333,118.833 151,106.5C 150.329,105.748 149.496,105.414 148.5,105.5C 147.609,104.89 146.609,104.557 145.5,104.5C 122.545,103.521 99.5452,103.187 76.5,103.5C 98.1742,102.693 119.841,101.693 141.5,100.5C 143.048,100.179 143.715,99.1788 143.5,97.5C 144.552,97.6495 145.552,97.4828 146.5,97C 146.167,96.6667 145.833,96.3333 145.5,96C 150.531,92.3576 155.198,88.5243 159.5,84.5 Z"/></g>
<g><path style="opacity:1" fill="#bcbabb" d="M 421.5,97.5 C 421.38,100.578 420.38,103.245 418.5,105.5C 418.62,102.422 419.62,99.7554 421.5,97.5 Z"/></g>
<g><path style="opacity:1" fill="#d6d6d6" d="M 273.5,100.5 C 272.918,112.316 272.251,123.983 271.5,135.5C 271.333,124.495 271.5,113.495 272,102.5C 272.278,101.584 272.778,100.918 273.5,100.5 Z"/></g>
<g><path style="opacity:1" fill="#fdfefb" d="M 145.5,105.5 C 145.685,107.196 146.519,108.529 148,109.5C 148.667,133.5 148.667,157.5 148,181.5C 146.955,182.373 146.122,183.373 145.5,184.5C 132.5,184.5 119.5,184.5 106.5,184.5C 106.5,197.5 106.5,210.5 106.5,223.5C 105.925,225.411 104.925,227.078 103.5,228.5C 79.1644,228.667 54.8311,228.5 30.5,228C 29.5291,226.519 28.1958,225.685 26.5,225.5C 26.3334,201.164 26.5,176.831 27,152.5C 27.7172,151.956 28.2172,151.289 28.5,150.5C 41.9619,149.868 55.2952,149.201 68.5,148.5C 69.331,135.34 69.831,122.006 70,108.5C 70.8333,107.667 71.6667,106.833 72.5,106C 96.8311,105.5 121.164,105.333 145.5,105.5 Z"/></g>
<g><path style="opacity:1" fill="#b4b1b2" d="M 464.5,100.5 C 465.473,102.948 465.806,105.615 465.5,108.5C 463.585,108.784 461.919,108.451 460.5,107.5C 461.833,107.5 463.167,107.5 464.5,107.5C 464.5,105.167 464.5,102.833 464.5,100.5 Z"/></g>
<g><path style="opacity:1" fill="#9c9a9b" d="M 563.5,99.5 C 565.13,101.026 565.963,103.026 566,105.5C 566.801,108.367 566.634,111.034 565.5,113.5C 565.112,108.781 564.445,104.114 563.5,99.5 Z"/></g>
<g><path style="opacity:1" fill="#c2c0c1" d="M 320.5,100.5 C 321.117,100.611 321.617,100.944 322,101.5C 322.5,112.828 322.667,124.162 322.5,135.5C 321.793,123.962 321.127,112.296 320.5,100.5 Z"/></g>
<g><path style="opacity:1" fill="#bfe290" d="M 54.5,86.5 C 51.0029,90.3793 49.1696,95.0459 49,100.5C 48.8297,109.676 48.3297,118.676 47.5,127.5C 47.5,126.833 47.5,126.167 47.5,125.5C 47.3335,115.494 47.5002,105.494 48,95.5C 48.9734,93.6079 49.6401,91.6079 50,89.5C 51.129,87.8588 52.629,86.8588 54.5,86.5 Z"/></g>
<g><path style="opacity:1" fill="#cfcdce" d="M 456.5,113.5 C 450.797,113.375 445.13,113.708 439.5,114.5C 439.918,113.778 440.584,113.278 441.5,113C 446.684,112.184 451.684,112.35 456.5,113.5 Z"/></g>
<g><path style="opacity:1" fill="#fbfbfb" d="M 456.5,113.5 C 459.059,113.198 461.393,113.532 463.5,114.5C 464.695,118.787 464.695,123.12 463.5,127.5C 461.23,129.975 458.563,131.975 455.5,133.5C 450.175,134.761 444.842,134.761 439.5,133.5C 435.226,131.921 433.226,128.755 433.5,124C 433.826,121.337 434.659,118.837 436,116.5C 436.816,115.177 437.983,114.511 439.5,114.5C 445.13,113.708 450.797,113.375 456.5,113.5 Z"/></g>
<g><path style="opacity:1" fill="#d0cecf" d="M 387.5,108.5 C 389.136,112.368 390.469,116.368 391.5,120.5C 388.8,117.058 387.466,113.058 387.5,108.5 Z"/></g>
<g><path style="opacity:1" fill="#c9c7c8" d="M 463.5,114.5 C 464.787,115.871 465.453,117.705 465.5,120C 465.7,122.866 465.033,125.366 463.5,127.5C 464.695,123.12 464.695,118.787 463.5,114.5 Z"/></g>
<g><path style="opacity:1" fill="#dddbdc" d="M 472.5,97.5 C 473.29,98.6085 473.79,99.9419 474,101.5C 474.827,114.007 474.66,126.34 473.5,138.5C 473.671,124.816 473.338,111.149 472.5,97.5 Z"/></g>
<g><path style="opacity:1" fill="#7b9e4c" d="M 169.5,95.5 C 170.498,128.329 170.832,161.329 170.5,194.5C 169.222,194.782 168.222,195.449 167.5,196.5C 169.252,190.332 169.918,183.998 169.5,177.5C 169.5,150.167 169.5,122.833 169.5,95.5 Z"/></g>
<g><path style="opacity:1" fill="#969596" d="M 426.5,115.5 C 425.771,120.13 425.437,124.797 425.5,129.5C 424.839,127.866 424.506,126.033 424.5,124C 424.36,120.85 425.027,118.017 426.5,115.5 Z"/></g>
<g><path style="opacity:1" fill="#e3efd0" d="M 47.5,125.5 C 47.5,126.167 47.5,126.833 47.5,127.5C 36.8333,127.5 26.1667,127.5 15.5,127.5C 25.7809,125.524 36.4476,124.857 47.5,125.5 Z"/></g>
<g><path style="opacity:1" fill="#b6b5b6" d="M 400.5,122.5 C 401.268,123.263 401.768,124.263 402,125.5C 402.278,124.584 402.778,123.918 403.5,123.5C 403.5,124.5 403.5,125.5 403.5,126.5C 402.5,126.5 401.5,126.5 400.5,126.5C 400.5,125.167 400.5,123.833 400.5,122.5 Z"/></g>
<g><path style="opacity:1" fill="#94c551" d="M 57.5,84.5 C 58.1667,84.5 58.8333,84.5 59.5,84.5C 79.5149,84.3864 99.5149,84.8864 119.5,86C 110.833,86.3333 102.167,86.6667 93.5,87C 98.6567,88.2828 103.99,88.9495 109.5,89C 107.208,90.2899 105.208,91.9565 103.5,94C 100.854,94.4974 98.1873,94.6641 95.5,94.5C 95.5,96.5 95.5,98.5 95.5,100.5C 110.525,100.912 125.859,100.912 141.5,100.5C 119.841,101.693 98.1742,102.693 76.5,103.5C 72.3641,103.646 69.6974,105.646 68.5,109.5C 67.5046,121.989 67.1713,134.656 67.5,147.5C 53.8333,147.5 40.1667,147.5 26.5,147.5C 26.5,148.5 26.5,149.5 26.5,150.5C 25.7659,151.708 25.4326,153.041 25.5,154.5C 22.9162,155.048 21.9162,156.715 22.5,159.5C 22.666,164.844 22.4994,170.177 22,175.5C 21.9602,178.568 21.1268,180.568 19.5,181.5C 20.327,184.783 20.6604,188.116 20.5,191.5C 19.5,191.5 18.5,191.5 17.5,191.5C 17.8204,188.102 17.487,184.768 16.5,181.5C 14.5968,182.947 12.9301,184.614 11.5,186.5C 10.1774,171.937 10.1774,157.437 11.5,143C 10.9747,142.308 10.3081,141.808 9.5,141.5C 8.45485,171.578 8.45485,201.578 9.5,231.5C 8.82803,232.267 7.9947,232.934 7,233.5C 6.42655,201.833 5.92655,170.167 5.5,138.5C 8.15534,134.18 11.4887,130.513 15.5,127.5C 26.1667,127.5 36.8333,127.5 47.5,127.5C 48.3297,118.676 48.8297,109.676 49,100.5C 49.1696,95.0459 51.0029,90.3793 54.5,86.5C 54.9731,85.0937 55.9731,84.427 57.5,84.5 Z"/></g>
<g><path style="opacity:1" fill="#b5b3b4" d="M 393.5,127.5 C 395.245,129.033 396.245,131.033 396.5,133.5C 394.755,131.967 393.755,129.967 393.5,127.5 Z"/></g>
<g><path style="opacity:1" fill="#c5de9c" d="M 15.5,127.5 C 11.4887,130.513 8.15534,134.18 5.5,138.5C 5.5,137.833 5.5,137.167 5.5,136.5C 7.56217,132.105 10.8955,129.105 15.5,127.5 Z"/></g>
<g><path style="opacity:1" fill="#aaa8a9" d="M 439.5,133.5 C 444.842,134.761 450.175,134.761 455.5,133.5C 453.193,135.047 450.527,135.713 447.5,135.5C 444.473,135.713 441.807,135.047 439.5,133.5 Z"/></g>
<g><path style="opacity:1" fill="#e4f3d1" d="M 145.5,105.5 C 146.794,106.29 147.961,107.29 149,108.5C 149.5,132.498 149.667,156.498 149.5,180.5C 149.167,182.833 147.833,184.167 145.5,184.5C 146.122,183.373 146.955,182.373 148,181.5C 148.667,157.5 148.667,133.5 148,109.5C 146.519,108.529 145.685,107.196 145.5,105.5 Z"/></g>
<g><path style="opacity:1" fill="#a8a6a7" d="M 372.5,129.5 C 371.946,132.746 370.946,135.746 369.5,138.5C 369.446,135.008 370.446,132.008 372.5,129.5 Z"/></g>
<g><path style="opacity:1" fill="#6d6a6b" d="M 563.5,99.5 C 564.445,104.114 565.112,108.781 565.5,113.5C 565.196,114.15 564.863,114.817 564.5,115.5C 550.85,116.499 537.183,116.833 523.5,116.5C 523.748,123.357 526.748,128.357 532.5,131.5C 533.058,132.79 534.058,133.623 535.5,134C 539.689,134.812 543.689,134.645 547.5,133.5C 551.162,132.329 554.496,130.496 557.5,128C 564.743,128.276 565.409,130.943 559.5,136C 556.589,137.761 553.589,139.261 550.5,140.5C 544.833,141.833 539.167,141.833 533.5,140.5C 524.893,137.726 519.059,132.06 516,123.5C 511.18,106.973 516.013,94.4727 530.5,86C 545.507,81.2687 556.507,85.7687 563.5,99.5 Z"/></g>
<g><path style="opacity:1" fill="#c8c6c7" d="M 532.5,131.5 C 537.387,132.903 542.387,133.569 547.5,133.5C 543.689,134.645 539.689,134.812 535.5,134C 534.058,133.623 533.058,132.79 532.5,131.5 Z"/></g>
<g><path style="opacity:1" fill="#f9f9f9" d="M 536.5,91.5 C 549.472,90.7883 556.472,96.7883 557.5,109.5C 546.167,109.5 534.833,109.5 523.5,109.5C 524.075,100.617 528.408,94.6169 536.5,91.5 Z"/></g>
<g><path style="opacity:1" fill="#8f8e8f" d="M 396.5,135.5 C 398.104,136.287 398.771,137.62 398.5,139.5C 400.833,139.5 403.167,139.5 405.5,139.5C 400.663,142.844 397.663,141.511 396.5,135.5 Z"/></g>
<g><path style="opacity:1" fill="#c0bebf" d="M 292.5,140.5 C 295.096,141.265 297.763,141.599 300.5,141.5C 299.551,142.152 298.385,142.486 297,142.5C 294.992,142.693 293.492,142.026 292.5,140.5 Z"/></g>
<g><path style="opacity:1" fill="#c3c1c2" d="M 434.5,139.5 C 440.695,141.751 447.028,142.084 453.5,140.5C 448.092,142.753 442.426,143.086 436.5,141.5C 435.287,141.253 434.62,140.586 434.5,139.5 Z"/></g>
<g><path style="opacity:1" fill="#c3c1c2" d="M 533.5,140.5 C 539.167,141.833 544.833,141.833 550.5,140.5C 548.193,142.047 545.527,142.713 542.5,142.5C 539.186,142.657 536.186,141.991 533.5,140.5 Z"/></g>
<g><path style="opacity:1" fill="#9bbc71" d="M 145.5,105.5 C 145.5,105.167 145.5,104.833 145.5,104.5C 146.609,104.557 147.609,104.89 148.5,105.5C 148.783,106.289 149.283,106.956 150,107.5C 150.83,132.003 150.663,156.337 149.5,180.5C 149.667,156.498 149.5,132.498 149,108.5C 147.961,107.29 146.794,106.29 145.5,105.5 Z"/></g>
<g><path style="opacity:1" fill="#9abe63" d="M 68.5,109.5 C 68.5,122.5 68.5,135.5 68.5,148.5C 55.4957,148.333 42.4957,148.5 29.5,149C 28.944,149.383 28.6107,149.883 28.5,150.5C 27.8333,150.5 27.1667,150.5 26.5,150.5C 26.5,149.5 26.5,148.5 26.5,147.5C 40.1667,147.5 53.8333,147.5 67.5,147.5C 67.1713,134.656 67.5046,121.989 68.5,109.5 Z"/></g>
<g><path style="opacity:1" fill="#cce5a9" d="M 68.5,148.5 C 55.2952,149.201 41.9619,149.868 28.5,150.5C 28.6107,149.883 28.944,149.383 29.5,149C 42.4957,148.5 55.4957,148.333 68.5,148.5 Z"/></g>
<g><path style="opacity:1" fill="#778460" d="M 167.5,89.5 C 169.433,90.6417 170.933,92.3083 172,94.5C 172.667,127.167 172.667,159.833 172,192.5C 171.722,193.416 171.222,194.082 170.5,194.5C 170.832,161.329 170.498,128.329 169.5,95.5C 168.37,93.6854 167.704,91.6854 167.5,89.5 Z"/></g>
<g><path style="opacity:1" fill="#7aa942" d="M 148.5,105.5 C 149.496,105.414 150.329,105.748 151,106.5C 151.333,118.833 151.667,131.167 152,143.5C 152.252,139.261 152.919,134.928 154,130.5C 154.333,132.833 154.667,135.167 155,137.5C 156.097,135.947 157.43,134.614 159,133.5C 159.495,131.527 159.662,129.527 159.5,127.5C 160.552,127.351 161.552,127.517 162.5,128C 161.549,128.718 161.383,129.551 162,130.5C 164.767,128.401 166.767,125.734 168,122.5C 168.5,140.83 168.667,159.164 168.5,177.5C 167.618,179.084 166.785,180.751 166,182.5C 165.821,185.553 165.321,188.553 164.5,191.5C 165.108,189.316 164.441,187.316 162.5,185.5C 159.247,189.129 155.58,192.296 151.5,195C 152.833,195.667 152.833,196.333 151.5,197C 154.167,197.333 156.833,197.667 159.5,198C 160.167,198.667 160.833,199.333 161.5,200C 159.821,200.395 158.155,200.228 156.5,199.5C 155.833,199.667 155.167,199.833 154.5,200C 155.833,200.667 155.833,201.333 154.5,202C 152.167,202.667 149.833,202.667 147.5,202C 149.059,201.02 150.726,200.187 152.5,199.5C 152.167,199.167 151.833,198.833 151.5,198.5C 144.07,202.1 136.07,203.434 127.5,202.5C 127.5,201.167 127.5,199.833 127.5,198.5C 130.247,198.813 132.914,198.48 135.5,197.5C 131.217,195.846 127.383,196.513 124,199.5C 122.66,202.202 121.327,204.869 120,207.5C 119.231,231.237 117.731,231.237 115.5,207.5C 111.336,206.669 110.669,204.669 113.5,201.5C 113.288,198.348 113.288,195.015 113.5,191.5C 112.167,191.5 110.833,191.5 109.5,191.5C 108.87,202.59 109.537,213.423 111.5,224C 110.552,224.483 109.552,224.649 108.5,224.5C 108.5,213.167 108.5,201.833 108.5,190.5C 120.186,190.832 131.852,190.499 143.5,189.5C 131.439,188.814 119.439,188.148 107.5,187.5C 119.967,185.84 132.634,184.84 145.5,184.5C 147.833,184.167 149.167,182.833 149.5,180.5C 150.663,156.337 150.83,132.003 150,107.5C 149.283,106.956 148.783,106.289 148.5,105.5 Z"/></g>
<g><path style="opacity:1" fill="#969595" d="M 393.5,160.5 C 385.719,158.89 378.052,159.223 370.5,161.5C 371.058,160.21 372.058,159.377 373.5,159C 380.505,156.764 387.171,157.264 393.5,160.5 Z"/></g>
<g><path style="opacity:1" fill="#6a6667" d="M 313.5,166.5 C 313.5,166.833 313.5,167.167 313.5,167.5C 313.5,177.833 313.5,188.167 313.5,198.5C 323.987,199.494 334.654,199.828 345.5,199.5C 345.5,201.167 345.5,202.833 345.5,204.5C 334.654,204.172 323.987,204.506 313.5,205.5C 313.5,217.5 313.5,229.5 313.5,241.5C 325.167,241.5 336.833,241.5 348.5,241.5C 348.5,243.833 348.5,246.167 348.5,248.5C 334.833,248.5 321.167,248.5 307.5,248.5C 320.656,247.504 333.99,247.171 347.5,247.5C 347.5,245.833 347.5,244.167 347.5,242.5C 336.167,242.5 324.833,242.5 313.5,242.5C 313.241,246.068 311.241,247.401 307.5,246.5C 307.5,218.5 307.5,190.5 307.5,162.5C 320.184,162.168 332.851,162.501 345.5,163.5C 336.47,164.805 327.47,164.805 318.5,163.5C 316.885,164.154 315.218,164.654 313.5,165C 312.262,165.69 312.262,166.19 313.5,166.5 Z"/></g>
<g><path style="opacity:1" fill="#d9eac3" d="M 26.5,150.5 C 27.1667,150.5 27.8333,150.5 28.5,150.5C 28.2172,151.289 27.7172,151.956 27,152.5C 26.5,176.831 26.3334,201.164 26.5,225.5C 26.1667,225.5 25.8333,225.5 25.5,225.5C 25.5,201.833 25.5,178.167 25.5,154.5C 25.4326,153.041 25.7659,151.708 26.5,150.5 Z"/></g>
<g><path style="opacity:1" fill="#fff1c6" d="M 128.5,122.5 C 115.163,122.333 101.829,122.5 88.5,123C 86.8588,124.129 85.8588,125.629 85.5,127.5C 84.5045,140.323 84.1712,153.323 84.5,166.5C 72.1667,166.5 59.8333,166.5 47.5,166.5C 59.1201,164.521 71.1201,163.854 83.5,164.5C 83.3334,151.496 83.5001,138.496 84,125.5C 85.1667,124.333 86.3333,123.167 87.5,122C 101.34,121.173 115.006,121.339 128.5,122.5 Z"/></g>
<g><path style="opacity:1" fill="#e5e3e4" d="M 348.5,159.5 C 333.833,159.5 319.167,159.5 304.5,159.5C 304.5,189.167 304.5,218.833 304.5,248.5C 303.502,218.671 303.169,188.671 303.5,158.5C 318.676,158.171 333.676,158.504 348.5,159.5 Z"/></g>
<g><path style="opacity:1" fill="#a8a5a6" d="M 348.5,159.5 C 348.5,162.167 348.5,164.833 348.5,167.5C 337.167,167.5 325.833,167.5 314.5,167.5C 314.167,167.5 313.833,167.5 313.5,167.5C 313.5,167.167 313.5,166.833 313.5,166.5C 324.833,166.5 336.167,166.5 347.5,166.5C 347.5,164.5 347.5,162.5 347.5,160.5C 333.5,160.5 319.5,160.5 305.5,160.5C 304.841,190.186 305.508,219.519 307.5,248.5C 321.167,248.5 334.833,248.5 348.5,248.5C 333.833,249.833 319.167,249.833 304.5,248.5C 304.5,218.833 304.5,189.167 304.5,159.5C 319.167,159.5 333.833,159.5 348.5,159.5 Z"/></g>
<g><path style="opacity:1" fill="#f7cd6f" d="M 132.5,167.5 C 131.599,169.727 129.933,170.727 127.5,170.5C 115.167,170.5 102.833,170.5 90.5,170.5C 103.327,169.669 116.327,169.169 129.5,169C 130.244,167.961 131.244,167.461 132.5,167.5 Z"/></g>
<g><path style="opacity:1" fill="#777576" d="M 471.5,162.5 C 471.336,165.187 471.503,167.854 472,170.5C 472.333,169.5 472.667,168.5 473,167.5C 473.318,169.061 474.151,170.228 475.5,171C 474.833,171.333 474.167,171.667 473.5,172C 475.134,172.494 476.801,172.66 478.5,172.5C 478.665,169.482 478.498,166.482 478,163.5C 476.301,162.594 474.467,162.261 472.5,162.5C 474.44,159.959 476.607,159.959 479,162.5C 479.667,166.167 479.667,169.833 479,173.5C 475.97,176.36 473.303,176.027 471,172.5C 470.192,168.973 470.359,165.64 471.5,162.5 Z"/></g>
<g><path style="opacity:1" fill="#656162" d="M 471.5,162.5 C 471.833,162.5 472.167,162.5 472.5,162.5C 474.467,162.261 476.301,162.594 478,163.5C 478.498,166.482 478.665,169.482 478.5,172.5C 476.801,172.66 475.134,172.494 473.5,172C 474.167,171.667 474.833,171.333 475.5,171C 474.151,170.228 473.318,169.061 473,167.5C 472.667,168.5 472.333,169.5 472,170.5C 471.503,167.854 471.336,165.187 471.5,162.5 Z"/></g>
<g><path style="opacity:1" fill="#f5c33f" d="M 128.5,122.5 C 129.815,123.476 131.148,124.476 132.5,125.5C 133.826,139.661 133.826,153.661 132.5,167.5C 131.244,167.461 130.244,167.961 129.5,169C 116.327,169.169 103.327,169.669 90.5,170.5C 90.7797,184.203 90.4464,197.87 89.5,211.5C 88.3285,212.345 86.9952,213.011 85.5,213.5C 72.0679,213.963 58.7345,213.463 45.5,212C 44.3342,204.585 43.6675,196.752 43.5,188.5C 43.5093,181.923 43.8426,175.423 44.5,169C 58.0934,167.554 71.76,167.054 85.5,167.5C 85.5,154.167 85.5,140.833 85.5,127.5C 85.8588,125.629 86.8588,124.129 88.5,123C 101.829,122.5 115.163,122.333 128.5,122.5 Z"/></g>
<g><path style="opacity:1" fill="#fde6a7" d="M 90.5,170.5 C 102.833,170.5 115.167,170.5 127.5,170.5C 127.5,170.833 127.5,171.167 127.5,171.5C 115.5,171.5 103.5,171.5 91.5,171.5C 91.5,183.5 91.5,195.5 91.5,207.5C 91.3404,209.153 90.6737,210.486 89.5,211.5C 90.4464,197.87 90.7797,184.203 90.5,170.5 Z"/></g>
<g><path style="opacity:1" fill="#ddecc8" d="M 5.5,136.5 C 5.5,137.167 5.5,137.833 5.5,138.5C 4.50176,170.662 4.16842,202.996 4.5,235.5C 3.33589,203.003 3.16922,170.336 4,137.5C 4.38258,136.944 4.88258,136.611 5.5,136.5 Z"/></g>
<g><path style="opacity:1" fill="#8dbd4e" d="M 22.5,159.5 C 23.6629,181.663 23.8296,203.996 23,226.5C 20.864,222.796 19.0306,222.796 17.5,226.5C 14.7604,228.175 12.0938,229.841 9.5,231.5C 8.45485,201.578 8.45485,171.578 9.5,141.5C 10.3081,141.808 10.9747,142.308 11.5,143C 10.1774,157.437 10.1774,171.937 11.5,186.5C 12.9301,184.614 14.5968,182.947 16.5,181.5C 17.487,184.768 17.8204,188.102 17.5,191.5C 18.5,191.5 19.5,191.5 20.5,191.5C 20.6604,188.116 20.327,184.783 19.5,181.5C 21.1268,180.568 21.9602,178.568 22,175.5C 22.4994,170.177 22.666,164.844 22.5,159.5 Z"/></g>
<g><path style="opacity:1" fill="#f5cd65" d="M 85.5,127.5 C 85.5,140.833 85.5,154.167 85.5,167.5C 71.76,167.054 58.0934,167.554 44.5,169C 43.8426,175.423 43.5093,181.923 43.5,188.5C 43.6675,196.752 44.3342,204.585 45.5,212C 58.7345,213.463 72.0679,213.963 85.5,213.5C 79.537,214.83 73.2037,215.496 66.5,215.5C 60.1667,215.333 53.8333,215.167 47.5,215C 44.6667,214.167 42.8333,212.333 42,209.5C 41.3333,196.5 41.3333,183.5 42,170.5C 42.8747,167.785 44.7081,166.452 47.5,166.5C 59.8333,166.5 72.1667,166.5 84.5,166.5C 84.1712,153.323 84.5045,140.323 85.5,127.5 Z"/></g>
<g><path style="opacity:1" fill="#fefdea" d="M 127.5,171.5 C 116.012,172.495 104.345,172.828 92.5,172.5C 92.8283,184.345 92.4949,196.012 91.5,207.5C 91.5,195.5 91.5,183.5 91.5,171.5C 103.5,171.5 115.5,171.5 127.5,171.5 Z"/></g>
<g><path style="opacity:1" fill="#6b6869" d="M 447.5,234.5 C 447.245,232.033 446.245,230.033 444.5,228.5C 442.172,221.852 439.839,215.185 437.5,208.5C 436.5,208.5 435.5,208.5 434.5,208.5C 434.5,209.5 434.5,210.5 434.5,211.5C 432.755,213.033 431.755,215.033 431.5,217.5C 428.26,228.123 424.26,238.456 419.5,248.5C 416.15,248.665 412.817,248.498 409.5,248C 410.252,247.329 410.586,246.496 410.5,245.5C 412.584,242.947 413.917,239.947 414.5,236.5C 418.081,228.999 421.414,221.333 424.5,213.5C 426.245,211.967 427.245,209.967 427.5,207.5C 429.245,205.967 430.245,203.967 430.5,201.5C 430.977,197.631 429.977,194.297 427.5,191.5C 427.245,189.033 426.245,187.033 424.5,185.5C 420.992,176.745 417.326,168.078 413.5,159.5C 416.518,159.335 419.518,159.502 422.5,160C 423,160.5 423.5,161 424,161.5C 428.11,170.72 431.943,180.053 435.5,189.5C 439.808,180.001 443.974,170.334 448,160.5C 451.057,159.549 454.223,159.216 457.5,159.5C 451.729,172.534 446.396,185.701 441.5,199C 448.583,215.402 455.583,231.902 462.5,248.5C 459.167,248.5 455.833,248.5 452.5,248.5C 450.867,243.85 449.2,239.184 447.5,234.5 Z"/></g>
<g><path style="opacity:1" fill="#bdbcbc" d="M 424.5,185.5 C 426.245,187.033 427.245,189.033 427.5,191.5C 425.755,189.967 424.755,187.967 424.5,185.5 Z"/></g>
<g><path style="opacity:1" fill="#bdbbbc" d="M 471.5,188.5 C 471.5,208.5 471.5,228.5 471.5,248.5C 473.833,248.5 476.167,248.5 478.5,248.5C 478.833,248.5 479.167,248.5 479.5,248.5C 476.713,249.477 473.713,249.81 470.5,249.5C 470.17,228.993 470.503,208.66 471.5,188.5 Z"/></g>
<g><path style="opacity:1" fill="#676465" d="M 471.5,188.5 C 473.833,188.5 476.167,188.5 478.5,188.5C 478.5,208.5 478.5,228.5 478.5,248.5C 476.167,248.5 473.833,248.5 471.5,248.5C 471.5,228.5 471.5,208.5 471.5,188.5 Z"/></g>
<g><path style="opacity:1" fill="#9f9b9c" d="M 471.5,188.5 C 473.948,187.527 476.615,187.194 479.5,187.5C 479.5,207.833 479.5,228.167 479.5,248.5C 479.167,248.5 478.833,248.5 478.5,248.5C 478.5,228.5 478.5,208.5 478.5,188.5C 476.167,188.5 473.833,188.5 471.5,188.5 Z"/></g>
<g><path style="opacity:1" fill="#d3d2d2" d="M 313.5,167.5 C 313.833,167.5 314.167,167.5 314.5,167.5C 314.5,177.5 314.5,187.5 314.5,197.5C 325.346,197.172 336.013,197.506 346.5,198.5C 335.5,198.5 324.5,198.5 313.5,198.5C 313.5,188.167 313.5,177.833 313.5,167.5 Z"/></g>
<g><path style="opacity:1" fill="#73825b" d="M 170.5,194.5 C 168.5,199.833 164.833,203.5 159.5,205.5C 148.833,205.5 138.167,205.5 127.5,205.5C 138.008,204.833 148.674,204.167 159.5,203.5C 162.798,201.868 165.464,199.535 167.5,196.5C 168.222,195.449 169.222,194.782 170.5,194.5 Z"/></g>
<g><path style="opacity:1" fill="#aba9aa" d="M 385.5,199.5 C 387.967,199.755 389.967,200.755 391.5,202.5C 389.033,202.245 387.033,201.245 385.5,199.5 Z"/></g>
<g><path style="opacity:1" fill="#b3cd94" d="M 145.5,184.5 C 132.634,184.84 119.967,185.84 107.5,187.5C 107.828,199.678 107.495,211.678 106.5,223.5C 106.5,210.5 106.5,197.5 106.5,184.5C 119.5,184.5 132.5,184.5 145.5,184.5 Z"/></g>
<g><path style="opacity:1" fill="#6a6768" d="M 393.5,160.5 C 394.937,161.725 396.604,162.725 398.5,163.5C 399.833,167.167 399.833,170.833 398.5,174.5C 395.5,172.333 392.5,170.167 389.5,168C 380.178,164.414 373.012,166.914 368,175.5C 366.049,182.905 367.882,189.071 373.5,194C 377.133,196.65 381.133,198.483 385.5,199.5C 387.033,201.245 389.033,202.245 391.5,202.5C 398.404,205.395 402.737,210.395 404.5,217.5C 404.563,222.203 404.229,226.87 403.5,231.5C 393.035,251.474 378.202,255.474 359,243.5C 358.176,240.118 358.343,236.784 359.5,233.5C 367.664,241.375 376.998,243.208 387.5,239C 395.891,231.896 397.724,223.396 393,213.5C 391.229,212.696 389.729,211.529 388.5,210C 378.082,207.541 369.249,202.374 362,194.5C 357.339,185.807 357.339,177.14 362,168.5C 364.436,165.553 367.269,163.22 370.5,161.5C 378.052,159.223 385.719,158.89 393.5,160.5 Z"/></g>
<g><path style="opacity:1" fill="#807d7e" d="M 313.5,198.5 C 324.5,198.5 335.5,198.5 346.5,198.5C 346.5,200.833 346.5,203.167 346.5,205.5C 335.5,205.5 324.5,205.5 313.5,205.5C 323.987,204.506 334.654,204.172 345.5,204.5C 345.5,202.833 345.5,201.167 345.5,199.5C 334.654,199.828 323.987,199.494 313.5,198.5 Z"/></g>
<g><path style="opacity:1" fill="#9d9b9c" d="M 430.5,201.5 C 430.245,203.967 429.245,205.967 427.5,207.5C 427.755,205.033 428.755,203.033 430.5,201.5 Z"/></g>
<g><path style="opacity:1" fill="#5f8638" d="M 127.5,205.5 C 127.5,216.5 127.5,227.5 127.5,238.5C 127.5,239.167 127.167,239.5 126.5,239.5C 126.167,239.5 125.833,239.5 125.5,239.5C 126.079,228.017 126.746,216.684 127.5,205.5 Z"/></g>
<g><path style="opacity:1" fill="#625e5f" d="M 313.5,166.5 C 312.262,166.19 312.262,165.69 313.5,165C 315.218,164.654 316.885,164.154 318.5,163.5C 327.47,164.805 336.47,164.805 345.5,163.5C 332.851,162.501 320.184,162.168 307.5,162.5C 307.5,190.5 307.5,218.5 307.5,246.5C 311.241,247.401 313.241,246.068 313.5,242.5C 324.833,242.5 336.167,242.5 347.5,242.5C 347.5,244.167 347.5,245.833 347.5,247.5C 333.99,247.171 320.656,247.504 307.5,248.5C 305.508,219.519 304.841,190.186 305.5,160.5C 319.5,160.5 333.5,160.5 347.5,160.5C 347.5,162.5 347.5,164.5 347.5,166.5C 336.167,166.5 324.833,166.5 313.5,166.5 Z"/></g>
<g><path style="opacity:1" fill="#cfcdce" d="M 313.5,205.5 C 324.5,205.5 335.5,205.5 346.5,205.5C 336.013,206.494 325.346,206.828 314.5,206.5C 314.5,217.833 314.5,229.167 314.5,240.5C 326.012,240.172 337.346,240.505 348.5,241.5C 336.833,241.5 325.167,241.5 313.5,241.5C 313.5,229.5 313.5,217.5 313.5,205.5 Z"/></g>
<g><path style="opacity:1" fill="#8e8f88" d="M 127.5,205.5 C 138.167,205.5 148.833,205.5 159.5,205.5C 149.347,206.494 139.014,206.828 128.5,206.5C 128.828,217.346 128.494,228.013 127.5,238.5C 127.5,227.5 127.5,216.5 127.5,205.5 Z"/></g>
<g><path style="opacity:1" fill="#78a643" d="M 168.5,177.5 C 168.833,177.5 169.167,177.5 169.5,177.5C 169.918,183.998 169.252,190.332 167.5,196.5C 165.464,199.535 162.798,201.868 159.5,203.5C 148.674,204.167 138.008,204.833 127.5,205.5C 126.746,216.684 126.079,228.017 125.5,239.5C 124.527,242.135 122.86,244.135 120.5,245.5C 118.577,245.795 116.91,246.628 115.5,248C 82.1683,248.5 48.835,248.667 15.5,248.5C 11.5216,246.522 8.52155,243.522 6.5,239.5C 9.38817,239.22 10.8882,240.553 11,243.5C 12.3189,245.487 14.1523,246.654 16.5,247C 32.1631,247.5 47.8298,247.667 63.5,247.5C 75.8378,247.667 88.1712,247.5 100.5,247C 94.8831,245.948 89.2165,245.282 83.5,245C 81.6228,243.815 79.6228,242.815 77.5,242C 88.8086,240.914 100.142,240.414 111.5,240.5C 111.762,239.022 111.429,237.689 110.5,236.5C 109.289,237.274 109.289,238.107 110.5,239C 107.331,239.978 104.497,239.478 102,237.5C 100.261,238.894 98.2605,239.561 96,239.5C 92.1986,238.448 88.3653,237.448 84.5,236.5C 84.7093,235.914 85.0426,235.414 85.5,235C 89.5405,234.076 93.3739,234.576 97,236.5C 97.5,236.167 98,235.833 98.5,235.5C 96.703,234.305 95.703,232.638 95.5,230.5C 97.4147,230.784 99.0813,230.451 100.5,229.5C 101.791,229.737 102.791,229.404 103.5,228.5C 104.925,227.078 105.925,225.411 106.5,223.5C 107.495,211.678 107.828,199.678 107.5,187.5C 119.439,188.148 131.439,188.814 143.5,189.5C 131.852,190.499 120.186,190.832 108.5,190.5C 108.5,201.833 108.5,213.167 108.5,224.5C 109.552,224.649 110.552,224.483 111.5,224C 109.537,213.423 108.87,202.59 109.5,191.5C 110.833,191.5 112.167,191.5 113.5,191.5C 113.288,195.015 113.288,198.348 113.5,201.5C 110.669,204.669 111.336,206.669 115.5,207.5C 117.731,231.237 119.231,231.237 120,207.5C 121.327,204.869 122.66,202.202 124,199.5C 127.383,196.513 131.217,195.846 135.5,197.5C 132.914,198.48 130.247,198.813 127.5,198.5C 127.5,199.833 127.5,201.167 127.5,202.5C 136.07,203.434 144.07,202.1 151.5,198.5C 151.833,198.833 152.167,199.167 152.5,199.5C 150.726,200.187 149.059,201.02 147.5,202C 149.833,202.667 152.167,202.667 154.5,202C 155.833,201.333 155.833,200.667 154.5,200C 155.167,199.833 155.833,199.667 156.5,199.5C 158.155,200.228 159.821,200.395 161.5,200C 160.833,199.333 160.167,198.667 159.5,198C 156.833,197.667 154.167,197.333 151.5,197C 152.833,196.333 152.833,195.667 151.5,195C 155.58,192.296 159.247,189.129 162.5,185.5C 164.441,187.316 165.108,189.316 164.5,191.5C 165.321,188.553 165.821,185.553 166,182.5C 166.785,180.751 167.618,179.084 168.5,177.5 Z"/></g>
<g><path style="opacity:1" fill="#b3b1b2" d="M 427.5,207.5 C 427.245,209.967 426.245,211.967 424.5,213.5C 424.755,211.033 425.755,209.033 427.5,207.5 Z"/></g>
<g><path style="opacity:1" fill="#b2b2b2" d="M 434.5,211.5 C 434.245,213.967 433.245,215.967 431.5,217.5C 431.755,215.033 432.755,213.033 434.5,211.5 Z"/></g>
<g><path style="opacity:1" fill="#b4b2b3" d="M 404.5,217.5 C 405.161,219.134 405.494,220.967 405.5,223C 405.64,226.15 404.973,228.983 403.5,231.5C 404.229,226.87 404.563,222.203 404.5,217.5 Z"/></g>
<g><path style="opacity:1" fill="#d2e4bc" d="M 26.5,225.5 C 28.1958,225.685 29.5291,226.519 30.5,228C 54.8311,228.5 79.1644,228.667 103.5,228.5C 102.791,229.404 101.791,229.737 100.5,229.5C 76.831,229.667 53.1643,229.5 29.5,229C 28.2899,227.961 27.2899,226.794 26.5,225.5 Z"/></g>
<g><path style="opacity:1" fill="#96b668" d="M 25.5,225.5 C 25.8333,225.5 26.1667,225.5 26.5,225.5C 27.2899,226.794 28.2899,227.961 29.5,229C 53.1643,229.5 76.831,229.667 100.5,229.5C 99.0813,230.451 97.4147,230.784 95.5,230.5C 84.1667,230.5 72.8333,230.5 61.5,230.5C 50.495,230.667 39.495,230.5 28.5,230C 26.6243,229.082 25.6243,227.582 25.5,225.5 Z"/></g>
<g><path style="opacity:1" fill="#afadae" d="M 444.5,228.5 C 446.245,230.033 447.245,232.033 447.5,234.5C 445.755,232.967 444.755,230.967 444.5,228.5 Z"/></g>
<g><path style="opacity:1" fill="#8ab750" d="M 5.5,138.5 C 5.92655,170.167 6.42655,201.833 7,233.5C 7.9947,232.934 8.82803,232.267 9.5,231.5C 12.0938,229.841 14.7604,228.175 17.5,226.5C 19.0306,222.796 20.864,222.796 23,226.5C 23.8296,203.996 23.6629,181.663 22.5,159.5C 21.9162,156.715 22.9162,155.048 25.5,154.5C 25.5,178.167 25.5,201.833 25.5,225.5C 25.6243,227.582 26.6243,229.082 28.5,230C 39.495,230.5 50.495,230.667 61.5,230.5C 62.2625,231.268 63.2625,231.768 64.5,232C 59.7223,232.516 56.0557,234.849 53.5,239C 55.1667,239.333 56.8333,239.667 58.5,240C 55.086,240.297 51.7527,240.964 48.5,242C 49.8146,243.395 49.4812,244.395 47.5,245C 48.5458,246.539 49.8791,246.705 51.5,245.5C 55.6612,246.04 59.6612,246.707 63.5,247.5C 47.8298,247.667 32.1631,247.5 16.5,247C 14.1523,246.654 12.3189,245.487 11,243.5C 10.8882,240.553 9.38817,239.22 6.5,239.5C 4.82351,238.817 4.15684,237.483 4.5,235.5C 4.16842,202.996 4.50176,170.662 5.5,138.5 Z"/></g>
<g><path style="opacity:1" fill="#b2b0b1" d="M 414.5,236.5 C 413.917,239.947 412.584,242.947 410.5,245.5C 411.083,242.053 412.416,239.053 414.5,236.5 Z"/></g>
<g><path style="opacity:1" fill="#7cab43" d="M 61.5,230.5 C 72.8333,230.5 84.1667,230.5 95.5,230.5C 95.703,232.638 96.703,234.305 98.5,235.5C 98,235.833 97.5,236.167 97,236.5C 93.3739,234.576 89.5405,234.076 85.5,235C 85.0426,235.414 84.7093,235.914 84.5,236.5C 88.3653,237.448 92.1986,238.448 96,239.5C 98.2605,239.561 100.261,238.894 102,237.5C 104.497,239.478 107.331,239.978 110.5,239C 109.289,238.107 109.289,237.274 110.5,236.5C 111.429,237.689 111.762,239.022 111.5,240.5C 100.142,240.414 88.8086,240.914 77.5,242C 79.6228,242.815 81.6228,243.815 83.5,245C 89.2165,245.282 94.8831,245.948 100.5,247C 88.1712,247.5 75.8378,247.667 63.5,247.5C 59.6612,246.707 55.6612,246.04 51.5,245.5C 49.8791,246.705 48.5458,246.539 47.5,245C 49.4812,244.395 49.8146,243.395 48.5,242C 51.7527,240.964 55.086,240.297 58.5,240C 56.8333,239.667 55.1667,239.333 53.5,239C 56.0557,234.849 59.7223,232.516 64.5,232C 63.2625,231.768 62.2625,231.268 61.5,230.5 Z"/></g>
<g><path style="opacity:1" fill="#6c7862" d="M 125.5,239.5 C 125.833,239.5 126.167,239.5 126.5,239.5C 124.869,244.465 121.535,247.798 116.5,249.5C 117.833,248.167 119.167,246.833 120.5,245.5C 122.86,244.135 124.527,242.135 125.5,239.5 Z"/></g>
<g><path style="opacity:1" fill="#7b925f" d="M 120.5,245.5 C 119.167,246.833 117.833,248.167 116.5,249.5C 83.6692,250.664 50.6692,250.831 17.5,250C 16.5842,249.722 15.9175,249.222 15.5,248.5C 48.835,248.667 82.1683,248.5 115.5,248C 116.91,246.628 118.577,245.795 120.5,245.5 Z"/></g>
</svg>
