<?xml version="1.0" encoding="UTF-8"?>
<!DOCTYPE svg PUBLIC "-//W3C//DTD SVG 1.1//EN" "http://www.w3.org/Graphics/SVG/1.1/DTD/svg11.dtd">
<svg xmlns="http://www.w3.org/2000/svg" version="1.1" width="800px" height="800px" style="shape-rendering:geometricPrecision; text-rendering:geometricPrecision; image-rendering:optimizeQuality; fill-rule:evenodd; clip-rule:evenodd" xmlns:xlink="http://www.w3.org/1999/xlink">
<g><path style="opacity:0.997" fill="#fefefe" d="M 371.5,-0.5 C 390.167,-0.5 408.833,-0.5 427.5,-0.5C 552.677,11.6314 652.511,67.9648 727,168.5C 769.317,229.614 793.484,297.281 799.5,371.5C 799.5,390.167 799.5,408.833 799.5,427.5C 787.369,552.677 731.035,652.511 630.5,727C 569.386,769.317 501.719,793.484 427.5,799.5C 408.833,799.5 390.167,799.5 371.5,799.5C 246.323,787.369 146.489,731.035 72,630.5C 29.6827,569.386 5.51601,501.719 -0.5,427.5C -0.5,408.833 -0.5,390.167 -0.5,371.5C 11.6314,246.323 67.9648,146.489 168.5,72C 229.614,29.6827 297.281,5.51601 371.5,-0.5 Z"/></g>
<g><path style="opacity:1" fill="#c7c7cb" d="M 324.5,204.5 C 352.328,203.502 380.328,203.169 408.5,203.5C 408.823,210.022 408.49,216.355 407.5,222.5C 407.5,216.5 407.5,210.5 407.5,204.5C 379.833,204.5 352.167,204.5 324.5,204.5 Z"/></g>
<g><path style="opacity:1" fill="#3f4045" d="M 223.5,204.5 C 223.5,242.5 223.5,280.5 223.5,318.5C 216.833,318.5 210.167,318.5 203.5,318.5C 187.237,291.637 171.237,264.637 155.5,237.5C 155.217,236.711 154.717,236.044 154,235.5C 153.5,263.165 153.333,290.831 153.5,318.5C 148.167,318.5 142.833,318.5 137.5,318.5C 137.5,280.5 137.5,242.5 137.5,204.5C 145.42,204.185 153.253,204.518 161,205.5C 176.585,231.001 191.918,256.668 207,282.5C 207.5,256.502 207.667,230.502 207.5,204.5C 212.833,204.5 218.167,204.5 223.5,204.5 Z"/></g>
<g><path style="opacity:1" fill="#3f4045" d="M 324.5,204.5 C 352.167,204.5 379.833,204.5 407.5,204.5C 407.5,210.5 407.5,216.5 407.5,222.5C 397.5,222.5 387.5,222.5 377.5,222.5C 377.5,254.5 377.5,286.5 377.5,318.5C 370.167,318.5 362.833,318.5 355.5,318.5C 355.832,286.329 355.498,254.329 354.5,222.5C 344.5,222.5 334.5,222.5 324.5,222.5C 324.5,216.5 324.5,210.5 324.5,204.5 Z"/></g>
<g><path style="opacity:1" fill="#3f4045" d="M 443.5,204.5 C 471.167,204.5 498.833,204.5 526.5,204.5C 526.5,210.5 526.5,216.5 526.5,222.5C 516.5,222.5 506.5,222.5 496.5,222.5C 495.502,254.329 495.168,286.329 495.5,318.5C 488.5,318.5 481.5,318.5 474.5,318.5C 474.832,286.329 474.498,254.329 473.5,222.5C 463.681,221.506 453.681,221.173 443.5,221.5C 443.5,215.833 443.5,210.167 443.5,204.5 Z"/></g>
<g><path style="opacity:1" fill="#3f3f44" d="M 701.5,204.5 C 701.5,210.167 701.5,215.833 701.5,221.5C 691.319,221.173 681.319,221.506 671.5,222.5C 670.502,254.329 670.168,286.329 670.5,318.5C 663.5,318.5 656.5,318.5 649.5,318.5C 649.5,286.167 649.5,253.833 649.5,221.5C 639.167,221.5 628.833,221.5 618.5,221.5C 618.5,215.833 618.5,210.167 618.5,204.5C 646.167,204.5 673.833,204.5 701.5,204.5 Z"/></g>
<g><path style="opacity:1" fill="#404146" d="M 269.5,202.5 C 286.813,200.614 301.98,205.28 315,216.5C 317.03,219.226 318.53,222.226 319.5,225.5C 319.392,226.442 319.059,227.275 318.5,228C 312.72,229.074 307.054,230.574 301.5,232.5C 294.705,221.112 284.705,216.946 271.5,220C 263.071,222.372 259.238,227.872 260,236.5C 262.621,242.247 267.121,245.747 273.5,247C 286.947,249.611 299.947,253.611 312.5,259C 323.006,268.16 326.839,279.66 324,293.5C 318.593,308.901 307.76,317.734 291.5,320C 272.801,323.664 255.967,319.831 241,308.5C 237.138,304.112 234.305,299.112 232.5,293.5C 232.818,292.353 233.484,291.519 234.5,291C 239.923,289.463 245.423,288.297 251,287.5C 256.187,299.355 265.354,305.021 278.5,304.5C 287.427,304.916 294.927,301.916 301,295.5C 303.773,288.832 302.607,282.998 297.5,278C 283.604,273.359 269.604,269.026 255.5,265C 243.536,258.917 237.869,249.083 238.5,235.5C 238.347,225.305 242.347,217.138 250.5,211C 256.41,207.041 262.744,204.208 269.5,202.5 Z"/></g>
<g><path style="opacity:1" fill="#3f4045" d="M 96.5,204.5 C 103.5,204.5 110.5,204.5 117.5,204.5C 117.5,242.833 117.5,281.167 117.5,319.5C 110.5,319.5 103.5,319.5 96.5,319.5C 96.5,281.167 96.5,242.833 96.5,204.5 Z"/></g>
<g><path style="opacity:1" fill="#6e6f70" d="M 223.5,204.5 C 224.499,242.663 224.832,280.996 224.5,319.5C 217.313,319.825 210.313,319.491 203.5,318.5C 210.167,318.5 216.833,318.5 223.5,318.5C 223.5,280.5 223.5,242.5 223.5,204.5 Z"/></g>
<g><path style="opacity:1" fill="#404145" d="M 532.5,204.5 C 539.5,204.5 546.5,204.5 553.5,204.5C 553.061,232.533 553.561,260.533 555,288.5C 557.925,298.31 564.591,302.977 575,302.5C 585.154,303.32 591.821,298.987 595,289.5C 596.43,261.196 596.93,232.863 596.5,204.5C 601.833,204.5 607.167,204.5 612.5,204.5C 612.937,235.529 612.437,266.529 611,297.5C 603.473,314.473 590.306,322.139 571.5,320.5C 548.321,321.484 535.488,310.484 533,287.5C 532.5,259.835 532.333,232.169 532.5,204.5 Z"/></g>
<g><path style="opacity:1" fill="#7a7b7f" d="M 443.5,204.5 C 443.5,210.167 443.5,215.833 443.5,221.5C 453.681,221.173 463.681,221.506 473.5,222.5C 463.167,222.5 452.833,222.5 442.5,222.5C 442.177,216.31 442.51,210.31 443.5,204.5 Z"/></g>
<g><path style="opacity:1" fill="#7a7b80" d="M 701.5,204.5 C 702.49,210.31 702.823,216.31 702.5,222.5C 692.167,222.5 681.833,222.5 671.5,222.5C 681.319,221.506 691.319,221.173 701.5,221.5C 701.5,215.833 701.5,210.167 701.5,204.5 Z"/></g>
<g><path style="opacity:1" fill="#949598" d="M 354.5,222.5 C 355.498,254.329 355.832,286.329 355.5,318.5C 362.833,318.5 370.167,318.5 377.5,318.5C 370.018,319.492 362.352,319.825 354.5,319.5C 354.5,287.167 354.5,254.833 354.5,222.5 Z"/></g>
<g><path style="opacity:1" fill="#7d7c80" d="M 473.5,222.5 C 474.498,254.329 474.832,286.329 474.5,318.5C 481.5,318.5 488.5,318.5 495.5,318.5C 495.168,286.329 495.502,254.329 496.5,222.5C 496.5,254.833 496.5,287.167 496.5,319.5C 488.833,319.5 481.167,319.5 473.5,319.5C 473.5,287.167 473.5,254.833 473.5,222.5 Z"/></g>
<g><path style="opacity:1" fill="#959597" d="M 618.5,221.5 C 628.833,221.5 639.167,221.5 649.5,221.5C 649.5,253.833 649.5,286.167 649.5,318.5C 649.5,318.833 649.5,319.167 649.5,319.5C 648.502,287.338 648.168,255.004 648.5,222.5C 638.319,222.827 628.319,222.494 618.5,221.5 Z"/></g>
<g><path style="opacity:1" fill="#6d6e72" d="M 671.5,222.5 C 671.5,254.833 671.5,287.167 671.5,319.5C 664.167,319.5 656.833,319.5 649.5,319.5C 649.5,319.167 649.5,318.833 649.5,318.5C 656.5,318.5 663.5,318.5 670.5,318.5C 670.168,286.329 670.502,254.329 671.5,222.5 Z"/></g>
<g><path style="opacity:1" fill="#99989b" d="M 415.5,204.5 C 415.5,242.5 415.5,280.5 415.5,318.5C 422.167,318.5 428.833,318.5 435.5,318.5C 435.5,280.5 435.5,242.5 435.5,204.5C 436.499,242.663 436.832,280.996 436.5,319.5C 429.167,319.5 421.833,319.5 414.5,319.5C 414.168,280.996 414.501,242.663 415.5,204.5 Z"/></g>
<g><path style="opacity:1" fill="#3f3f45" d="M 415.5,204.5 C 422.167,204.5 428.833,204.5 435.5,204.5C 435.5,242.5 435.5,280.5 435.5,318.5C 428.833,318.5 422.167,318.5 415.5,318.5C 415.5,280.5 415.5,242.5 415.5,204.5 Z"/></g>
<g><path style="opacity:1" fill="#959698" d="M 155.5,237.5 C 154.502,264.662 154.169,291.995 154.5,319.5C 148.642,319.822 142.975,319.489 137.5,318.5C 142.833,318.5 148.167,318.5 153.5,318.5C 153.333,290.831 153.5,263.165 154,235.5C 154.717,236.044 155.217,236.711 155.5,237.5 Z"/></g>
<g><path style="opacity:1" fill="#3f4045" d="M 446.5,527.5 C 445.957,527.56 445.624,527.893 445.5,528.5C 453.472,529.498 461.472,529.831 469.5,529.5C 469.5,551.167 469.5,572.833 469.5,594.5C 427.5,594.5 385.5,594.5 343.5,594.5C 343.333,572.497 343.5,550.497 344,528.5C 372.556,513.254 400.056,496.42 426.5,478C 437.079,469.423 446.245,459.59 454,448.5C 460.312,437.442 460.978,426.109 456,414.5C 448.999,404.693 439.499,401.193 427.5,404C 417.837,407.664 411.67,414.497 409,424.5C 407.292,431.081 406.125,437.748 405.5,444.5C 385.216,440.73 364.882,437.063 344.5,433.5C 350.636,384.862 377.97,356.696 426.5,349C 456.15,345.255 482.817,352.255 506.5,370C 525.838,388.01 533.672,410.177 530,436.5C 526.52,457.632 516.687,475.132 500.5,489C 482.899,502.441 464.899,515.274 446.5,527.5 Z"/></g>
<g><path style="opacity:1" fill="#3e3f45" d="M 272.5,409.5 C 235.833,409.5 199.167,409.5 162.5,409.5C 162.5,422.833 162.5,436.167 162.5,449.5C 191.167,449.5 219.833,449.5 248.5,449.5C 248.5,467.5 248.5,485.5 248.5,503.5C 197.833,503.5 147.167,503.5 96.5,503.5C 96.5,453.167 96.5,402.833 96.5,352.5C 155.167,352.5 213.833,352.5 272.5,352.5C 272.5,371.5 272.5,390.5 272.5,409.5 Z"/></g>
<g><path style="opacity:1" fill="#d38682" d="M 635.5,352.5 C 657.66,351.503 679.994,351.169 702.5,351.5C 702.5,373.833 702.5,396.167 702.5,418.5C 679.994,418.831 657.66,418.497 635.5,417.5C 657.5,417.5 679.5,417.5 701.5,417.5C 701.831,395.66 701.497,373.994 700.5,352.5C 679.167,352.5 657.833,352.5 636.5,352.5C 636.167,352.5 635.833,352.5 635.5,352.5 Z"/></g>
<g><path style="opacity:1" fill="#a62c2a" d="M 635.5,352.5 C 635.833,352.5 636.167,352.5 636.5,352.5C 636.5,354.5 636.5,356.5 636.5,358.5C 636.167,377.512 636.5,396.512 637.5,415.5C 658.123,416.655 678.79,416.821 699.5,416C 700.493,396.243 700.826,376.409 700.5,356.5C 700.5,355.167 700.5,353.833 700.5,352.5C 701.497,373.994 701.831,395.66 701.5,417.5C 679.5,417.5 657.5,417.5 635.5,417.5C 635.5,395.833 635.5,374.167 635.5,352.5 Z"/></g>
<g><path style="opacity:1" fill="#be221f" d="M 700.5,356.5 C 700.826,376.409 700.493,396.243 699.5,416C 678.79,416.821 658.123,416.655 637.5,415.5C 636.5,396.512 636.167,377.512 636.5,358.5C 637.29,357.391 637.79,356.058 638,354.5C 658.294,355.774 678.461,355.774 698.5,354.5C 699.182,355.243 699.849,355.909 700.5,356.5 Z"/></g>
<g><path style="opacity:1" fill="#b12924" d="M 636.5,352.5 C 657.833,352.5 679.167,352.5 700.5,352.5C 700.5,353.833 700.5,355.167 700.5,356.5C 699.849,355.909 699.182,355.243 698.5,354.5C 678.461,355.774 658.294,355.774 638,354.5C 637.79,356.058 637.29,357.391 636.5,358.5C 636.5,356.5 636.5,354.5 636.5,352.5 Z"/></g>
<g><path style="opacity:1" fill="#3f3f45" d="M 635.5,445.5 C 657.5,445.5 679.5,445.5 701.5,445.5C 701.5,495.167 701.5,544.833 701.5,594.5C 679.5,594.5 657.5,594.5 635.5,594.5C 635.5,544.833 635.5,495.167 635.5,445.5 Z"/></g>
<g><path style="opacity:1" fill="#a7a7ac" d="M 635.5,445.5 C 657.66,444.503 679.994,444.169 702.5,444.5C 702.5,494.833 702.5,545.167 702.5,595.5C 679.994,595.831 657.66,595.497 635.5,594.5C 657.5,594.5 679.5,594.5 701.5,594.5C 701.5,544.833 701.5,495.167 701.5,445.5C 679.5,445.5 657.5,445.5 635.5,445.5 Z"/></g>
<g><path style="opacity:1" fill="#bcbdc0" d="M 272.5,409.5 C 236.337,410.498 200.004,410.832 163.5,410.5C 163.5,423.167 163.5,435.833 163.5,448.5C 192.005,448.169 220.338,448.502 248.5,449.5C 219.833,449.5 191.167,449.5 162.5,449.5C 162.5,436.167 162.5,422.833 162.5,409.5C 199.167,409.5 235.833,409.5 272.5,409.5 Z"/></g>
<g><path style="opacity:1" fill="#6d6e73" d="M 446.5,527.5 C 453.982,528.492 461.648,528.825 469.5,528.5C 469.5,528.833 469.5,529.167 469.5,529.5C 461.472,529.831 453.472,529.498 445.5,528.5C 445.624,527.893 445.957,527.56 446.5,527.5 Z"/></g>
<g><path style="opacity:1" fill="#b76560" d="M 498.5,529.5 C 498.5,529.167 498.5,528.833 498.5,528.5C 520.5,528.5 542.5,528.5 564.5,528.5C 564.5,550.5 564.5,572.5 564.5,594.5C 564.167,594.5 563.833,594.5 563.5,594.5C 563.5,572.833 563.5,551.167 563.5,529.5C 541.833,529.5 520.167,529.5 498.5,529.5 Z"/></g>
<g><path style="opacity:1" fill="#af4844" d="M 96.5,528.5 C 118.5,528.5 140.5,528.5 162.5,528.5C 162.5,550.833 162.5,573.167 162.5,595.5C 140.5,595.5 118.5,595.5 96.5,595.5C 96.5,573.167 96.5,550.833 96.5,528.5 Z"/></g>
<g><path style="opacity:1" fill="#bd231f" d="M 98.5,530.5 C 119.213,530.178 139.879,530.512 160.5,531.5C 161.5,551.489 161.833,571.489 161.5,591.5C 160.711,591.783 160.044,592.283 159.5,593C 139.833,593.667 120.167,593.667 100.5,593C 100,592.5 99.5,592 99,591.5C 98.5,571.169 98.3334,550.836 98.5,530.5 Z"/></g>
<g><path style="opacity:1" fill="#c0221d" d="M 99.5,532.5 C 119.505,532.644 139.838,532.644 160.5,532.5C 160.5,534.167 160.5,535.833 160.5,537.5C 140.167,537.5 119.833,537.5 99.5,537.5C 100.096,535.602 100.096,533.935 99.5,532.5 Z"/></g>
<g><path style="opacity:1" fill="#ae292c" d="M 98.5,530.5 C 98.3334,550.836 98.5,571.169 99,591.5C 99.5,592 100,592.5 100.5,593C 120.167,593.667 139.833,593.667 159.5,593C 160.044,592.283 160.711,591.783 161.5,591.5C 161.586,592.496 161.252,593.329 160.5,594C 139.825,594.833 119.159,594.666 98.5,593.5C 97.1733,572.373 97.1733,551.373 98.5,530.5 Z"/></g>
<g><path style="opacity:1" fill="#a9292a" d="M 498.5,529.5 C 520.167,529.5 541.833,529.5 563.5,529.5C 563.5,551.167 563.5,572.833 563.5,594.5C 541.833,594.5 520.167,594.5 498.5,594.5C 498.5,572.833 498.5,551.167 498.5,529.5 Z"/></g>
<g><path style="opacity:1" fill="#be231f" d="M 499.5,530.5 C 520.626,529.904 541.626,530.571 562.5,532.5C 562.821,552.546 562.488,572.546 561.5,592.5C 541.167,593.833 520.833,593.833 500.5,592.5C 499.512,571.879 499.178,551.213 499.5,530.5 Z"/></g>
<g><path style="opacity:1" fill="#a1a0a4" d="M 469.5,528.5 C 470.497,550.66 470.831,572.994 470.5,595.5C 427.997,595.832 385.663,595.499 343.5,594.5C 385.5,594.5 427.5,594.5 469.5,594.5C 469.5,572.833 469.5,551.167 469.5,529.5C 469.5,529.167 469.5,528.833 469.5,528.5 Z"/></g>
<g><path style="opacity:1" fill="#e48e8e" d="M 498.5,528.5 C 498.5,528.833 498.5,529.167 498.5,529.5C 498.5,551.167 498.5,572.833 498.5,594.5C 520.167,594.5 541.833,594.5 563.5,594.5C 563.833,594.5 564.167,594.5 564.5,594.5C 542.34,595.497 520.006,595.831 497.5,595.5C 497.169,572.994 497.503,550.66 498.5,528.5 Z"/></g>
</svg>
