<?xml version="1.0" encoding="UTF-8"?>
<!DOCTYPE svg PUBLIC "-//W3C//DTD SVG 1.1//EN" "http://www.w3.org/Graphics/SVG/1.1/DTD/svg11.dtd">
<svg xmlns="http://www.w3.org/2000/svg" version="1.1" width="512px" height="512px" style="shape-rendering:geometricPrecision; text-rendering:geometricPrecision; image-rendering:optimizeQuality; fill-rule:evenodd; clip-rule:evenodd" xmlns:xlink="http://www.w3.org/1999/xlink">
<g><path style="opacity:1" fill="#961b03" d="M 462.5,59.5 C 462.833,60.5 463.5,61.1667 464.5,61.5C 464.5,62.1667 464.833,62.5 465.5,62.5C 465.5,62.8333 465.5,63.1667 465.5,63.5C 465.833,64.5 466.5,65.1667 467.5,65.5C 468.289,65.7828 468.956,66.2828 469.5,67C 468.402,67.7697 468.402,68.603 469.5,69.5C 470.167,70.5 470.833,71.5 471.5,72.5C 471.5,73.1667 471.833,73.5 472.5,73.5C 472.5,73.8333 472.5,74.1667 472.5,74.5C 472.5,75.1667 472.833,75.5 473.5,75.5C 473.5,75.8333 473.5,76.1667 473.5,76.5C 473.557,77.609 473.89,78.609 474.5,79.5C 474.5,80.1667 474.833,80.5 475.5,80.5C 476.167,82.8333 476.833,85.1667 477.5,87.5C 477.5,87.8333 477.5,88.1667 477.5,88.5C 477.5,89.1667 477.833,89.5 478.5,89.5C 478.5,89.8333 478.5,90.1667 478.5,90.5C 478.629,92.2161 478.962,93.8828 479.5,95.5C 479.5,95.8333 479.5,96.1667 479.5,96.5C 479.328,97.4916 479.662,98.1583 480.5,98.5C 480.5,98.8333 480.5,99.1667 480.5,99.5C 480.667,204.501 480.5,309.501 480,414.5C 471.857,452.976 448.357,475.476 409.5,482C 306.5,482.667 203.5,482.667 100.5,482C 61.2301,475.397 37.7301,452.563 30,413.5C 29.5,310.167 29.3333,206.834 29.5,103.5C 29.5,102.833 29.5,102.167 29.5,101.5C 29.5,101.167 29.5,100.833 29.5,100.5C 29.5,100.167 29.5,99.8333 29.5,99.5C 30.1667,99.5 30.5,99.1667 30.5,98.5C 30.5,98.1667 30.5,97.8333 30.5,97.5C 30.5,96.8333 30.5,96.1667 30.5,95.5C 30.5,95.1667 30.5,94.8333 30.5,94.5C 30.5,94.1667 30.5,93.8333 30.5,93.5C 31.404,92.791 31.7373,91.791 31.5,90.5C 32.4345,89.4324 32.7678,88.099 32.5,86.5C 33.625,85.6522 33.625,84.6522 32.5,83.5C 33.5,83.1667 34.1667,82.5 34.5,81.5C 34.5,81.1667 34.5,80.8333 34.5,80.5C 35.1667,80.5 35.5,80.1667 35.5,79.5C 35.8333,78.8333 36.1667,78.1667 36.5,77.5C 36.5,77.1667 36.5,76.8333 36.5,76.5C 37.3382,76.1583 37.6716,75.4916 37.5,74.5C 38.1667,74.5 38.5,74.1667 38.5,73.5C 38.5,73.1667 38.5,72.8333 38.5,72.5C 38.1558,71.3172 38.8225,70.4839 40.5,70C 39.2089,68.7083 39.2089,67.5417 40.5,66.5C 40.4607,68.2239 40.794,68.5573 41.5,67.5C 42.3382,67.1583 42.6716,66.4916 42.5,65.5C 43.1667,65.5 43.5,65.1667 43.5,64.5C 44.1667,64.5 44.5,64.1667 44.5,63.5C 44.7822,62.2223 45.4489,61.2223 46.5,60.5C 47.1667,60.5 47.5,60.1667 47.5,59.5C 48.8333,59.1667 48.8333,58.8333 47.5,58.5C 60.4402,44.4518 76.4402,35.6185 95.5,32C 148.643,30.8509 201.81,30.3509 255,30.5C 308.19,30.3509 361.357,30.8509 414.5,32C 434.122,35.2975 450.122,44.4642 462.5,59.5 Z"/></g>
<g><path style="opacity:1" fill="#e0908d" d="M 103.5,36.5 C 153.829,37.8333 204.496,38.4999 255.5,38.5C 306.504,38.4999 357.171,37.8333 407.5,36.5C 427.314,38.2393 443.647,46.5726 456.5,61.5C 456.631,62.2389 456.464,62.9056 456,63.5C 453.721,60.6194 450.888,58.6194 447.5,57.5C 444.957,54.2202 441.957,51.3868 438.5,49C 432.203,46.6772 425.87,44.5105 419.5,42.5C 417.123,41.1127 414.457,40.2794 411.5,40C 306.333,39.1675 201.333,39.3341 96.5,40.5C 88.6377,42.4384 81.3044,45.4384 74.5,49.5C 72.5786,50.3627 70.5786,51.0293 68.5,51.5C 63.4819,54.0044 59.1486,57.5044 55.5,62C 54.552,62.4828 53.552,62.6495 52.5,62.5C 65.771,46.6972 82.771,38.0305 103.5,36.5 Z"/></g>
<g><path style="opacity:1" fill="#e49f9d" d="M 103.5,36.5 C 204.833,36.5 306.167,36.5 407.5,36.5C 357.171,37.8333 306.504,38.4999 255.5,38.5C 204.496,38.4999 153.829,37.8333 103.5,36.5 Z"/></g>
<g><path style="opacity:1" fill="#df8583" d="M 96.5,40.5 C 201.333,39.3341 306.333,39.1675 411.5,40C 414.457,40.2794 417.123,41.1127 419.5,42.5C 418.167,42.5 416.833,42.5 415.5,42.5C 414.048,41.6981 412.382,41.1981 410.5,41C 305.834,40.5 201.167,40.3333 96.5,40.5 Z"/></g>
<g><path style="opacity:1" fill="#db7471" d="M 96.5,40.5 C 201.167,40.3333 305.834,40.5 410.5,41C 412.382,41.1981 414.048,41.6981 415.5,42.5C 310.68,41.1787 206.014,41.1787 101.5,42.5C 92.1271,43.4022 83.1271,45.7355 74.5,49.5C 81.3044,45.4384 88.6377,42.4384 96.5,40.5 Z"/></g>
<g><path style="opacity:1" fill="#d76660" d="M 101.5,42.5 C 206.014,41.1787 310.68,41.1787 415.5,42.5C 416.833,42.5 418.167,42.5 419.5,42.5C 425.87,44.5105 432.203,46.6772 438.5,49C 441.957,51.3868 444.957,54.2202 447.5,57.5C 442.556,54.4443 437.389,51.7776 432,49.5C 429.209,48.5938 426.376,47.9272 423.5,47.5C 423.389,46.8826 423.056,46.3826 422.5,46C 417.532,44.921 412.532,44.0877 407.5,43.5C 305.668,42.5005 203.668,42.1672 101.5,42.5 Z"/></g>
<g><path style="opacity:1" fill="#d04942" d="M 407.5,43.5 C 412.532,44.0877 417.532,44.921 422.5,46C 423.056,46.3826 423.389,46.8826 423.5,47.5C 418.219,46.4441 412.886,45.7774 407.5,45.5C 305.667,44.3342 203.667,44.1675 101.5,45C 96.4931,45.2892 91.8265,46.4559 87.5,48.5C 86.1667,48.5 84.8333,48.5 83.5,48.5C 88.716,45.7125 94.3827,44.2125 100.5,44C 202.833,43.5 305.166,43.3333 407.5,43.5 Z"/></g>
<g><path style="opacity:1" fill="#cd392f" d="M 407.5,45.5 C 303.502,46.1938 199.502,46.6938 95.5,47C 92.9373,48.0793 90.2706,48.5793 87.5,48.5C 91.8265,46.4559 96.4931,45.2892 101.5,45C 203.667,44.1675 305.667,44.3342 407.5,45.5 Z"/></g>
<g><path style="opacity:1" fill="#c82c1c" d="M 407.5,45.5 C 412.886,45.7774 418.219,46.4441 423.5,47.5C 423.5,48.1667 423.5,48.8333 423.5,49.5C 419.821,49.2756 416.154,48.9422 412.5,48.5C 390.991,47.3836 369.324,47.5503 347.5,49C 370.718,61.6201 390.385,78.4535 406.5,99.5C 405.873,100.417 405.539,101.417 405.5,102.5C 404.71,103.609 404.21,104.942 404,106.5C 402.33,106.656 400.663,105.99 399,104.5C 397.354,106.141 396.354,105.807 396,103.5C 395.374,105.991 394.541,105.991 393.5,103.5C 391.38,104.403 391.046,105.737 392.5,107.5C 393.729,108.281 395.062,108.781 396.5,109C 395.833,109.333 395.167,109.667 394.5,110C 395.928,112.185 397.595,114.185 399.5,116C 398.051,117.117 396.384,117.784 394.5,118C 395.888,118.889 395.722,119.389 394,119.5C 391.977,118.293 390.144,116.96 388.5,115.5C 371.849,96.1743 352.182,80.6743 329.5,69C 324.167,68.6667 318.833,68.3333 313.5,68C 273.359,53.5987 232.359,50.5987 190.5,59C 181.481,61.0064 172.814,64.0064 164.5,68C 159.833,68.3333 155.167,68.6667 150.5,69C 122.677,85.8998 99.677,106.566 81.5,131C 79.7682,132.972 78.4348,135.139 77.5,137.5C 72.2677,144.952 67.7677,152.952 64,161.5C 63.2825,162.451 62.4491,162.617 61.5,162C 62.7717,160.754 63.105,159.587 62.5,158.5C 60.5266,159.64 58.6933,160.973 57,162.5C 56,161.167 55,161.167 54,162.5C 49.4053,174.211 45.7386,186.211 43,198.5C 41.0125,173.205 40.1792,147.871 40.5,122.5C 41.5045,129.997 42.3379,137.664 43,145.5C 47.2706,136.4 52.2706,128.4 58,121.5C 59.073,122.28 60.2396,122.113 61.5,121C 60.5,120.667 59.5,120.333 58.5,120C 61.6547,114.57 65.488,110.403 70,107.5C 70.9147,108.328 71.5814,109.328 72,110.5C 72.8333,109 74,107.833 75.5,107C 74.8333,106.667 74.1667,106.333 73.5,106C 73.1478,103.862 73.6478,101.696 75,99.5C 91.3971,79.4314 110.564,62.598 132.5,49C 123.977,48.76 115.477,48.26 107,47.5C 98.2975,48.3023 89.7975,49.969 81.5,52.5C 83.249,50.744 85.249,49.4106 87.5,48.5C 90.2706,48.5793 92.9373,48.0793 95.5,47C 199.502,46.6938 303.502,46.1938 407.5,45.5 Z"/></g>
<g><path style="opacity:1" fill="#d35751" d="M 101.5,42.5 C 203.668,42.1672 305.668,42.5005 407.5,43.5C 305.166,43.3333 202.833,43.5 100.5,44C 94.3827,44.2125 88.716,45.7125 83.5,48.5C 78.107,50.6888 72.7737,53.1888 67.5,56C 57.0669,65.1417 48.7335,75.6417 42.5,87.5C 41.8333,87.8333 41.1667,88.1667 40.5,88.5C 41.4105,84.0017 42.9105,79.6683 45,75.5C 52.3656,66.9685 60.199,58.9685 68.5,51.5C 70.5786,51.0293 72.5786,50.3627 74.5,49.5C 83.1271,45.7355 92.1271,43.4022 101.5,42.5 Z"/></g>
<g><path style="opacity:1" fill="#c72b15" d="M 40.5,122.5 C 40.3291,111.707 41.3291,101.04 43.5,90.5C 52.4236,74.243 65.0902,61.5764 81.5,52.5C 89.7975,49.969 98.2975,48.3023 107,47.5C 115.477,48.26 123.977,48.76 132.5,49C 110.564,62.598 91.3971,79.4314 75,99.5C 73.6478,101.696 73.1478,103.862 73.5,106C 74.1667,106.333 74.8333,106.667 75.5,107C 74,107.833 72.8333,109 72,110.5C 71.5814,109.328 70.9147,108.328 70,107.5C 65.488,110.403 61.6547,114.57 58.5,120C 59.5,120.333 60.5,120.667 61.5,121C 60.2396,122.113 59.073,122.28 58,121.5C 52.2706,128.4 47.2706,136.4 43,145.5C 42.3379,137.664 41.5045,129.997 40.5,122.5 Z"/></g>
<g><path style="opacity:1" fill="#cf443c" d="M 423.5,47.5 C 426.376,47.9272 429.209,48.5938 432,49.5C 437.389,51.7776 442.556,54.4443 447.5,57.5C 450.77,62.4397 454.77,66.7731 459.5,70.5C 460.127,71.4168 460.461,72.4168 460.5,73.5C 454.602,67.1054 447.936,61.6054 440.5,57C 437.567,55.7291 434.901,54.0624 432.5,52C 429.479,51.1506 426.479,50.3173 423.5,49.5C 423.5,48.8333 423.5,48.1667 423.5,47.5 Z"/></g>
<g><path style="opacity:1" fill="#c92f22" d="M 388.5,115.5 C 393.5,122.167 398.5,128.833 403.5,135.5C 401.154,135.223 399.154,135.556 397.5,136.5C 398.742,138.733 400.076,140.899 401.5,143C 400.167,144 400.167,145 401.5,146C 400.551,146.617 399.718,146.451 399,145.5C 398.751,146.624 398.251,147.624 397.5,148.5C 396.956,147.11 395.956,145.444 394.5,143.5C 393.304,143.846 393.304,144.346 394.5,145C 392.413,144.782 390.413,144.949 388.5,145.5C 391.041,150.082 393.707,154.582 396.5,159C 395.874,159.75 395.374,160.584 395,161.5C 394.292,160.619 393.458,159.953 392.5,159.5C 392.167,159.5 391.833,159.5 391.5,159.5C 382.538,141.136 369.871,125.636 353.5,113C 344.044,105.549 334.044,98.8822 323.5,93C 319.833,92.6667 316.167,92.3333 312.5,92C 275.264,77.3099 236.931,73.6433 197.5,81C 186.343,83.2744 175.676,86.9411 165.5,92C 162.167,92.3333 158.833,92.6667 155.5,93C 134.152,106.681 115.652,123.514 100,143.5C 96.5717,148.742 93.4051,154.076 90.5,159.5C 89.045,159.07 87.7117,159.07 86.5,159.5C 88.3147,155.377 90.3147,151.377 92.5,147.5C 91.2695,143.285 90.1029,142.952 89,146.5C 88.3333,145.167 87.6667,145.167 87,146.5C 86.7508,145.376 86.2508,144.376 85.5,143.5C 83.1667,145.5 80.8333,147.5 78.5,149.5C 78.1667,149.167 77.8333,148.833 77.5,148.5C 78.0983,147.205 78.5983,145.872 79,144.5C 79.9138,145.654 80.7471,145.487 81.5,144C 80.2889,142.887 80.2889,141.72 81.5,140.5C 80.5331,139.016 79.1998,138.016 77.5,137.5C 78.4348,135.139 79.7682,132.972 81.5,131C 99.677,106.566 122.677,85.8998 150.5,69C 155.167,68.6667 159.833,68.3333 164.5,68C 172.814,64.0064 181.481,61.0064 190.5,59C 232.359,50.5987 273.359,53.5987 313.5,68C 318.833,68.3333 324.167,68.6667 329.5,69C 352.182,80.6743 371.849,96.1743 388.5,115.5 Z"/></g>
<g><path style="opacity:0.008" fill="#000000" d="M 47.5,58.5 C 47.5,58.8333 47.5,59.1667 47.5,59.5C 47.5,60.1667 47.1667,60.5 46.5,60.5C 45.5613,59.6726 45.8946,59.0059 47.5,58.5 Z"/></g>
<g><path style="opacity:0.009" fill="#150200" d="M 462.5,59.5 C 464.027,59.427 465.027,60.0937 465.5,61.5C 465.167,61.5 464.833,61.5 464.5,61.5C 463.5,61.1667 462.833,60.5 462.5,59.5 Z"/></g>
<g><path style="opacity:0.004" fill="#000000" d="M 465.5,61.5 C 466.833,62.1667 466.833,62.1667 465.5,61.5 Z"/></g>
<g><path style="opacity:1" fill="#d87672" d="M 447.5,57.5 C 450.888,58.6194 453.721,60.6194 456,63.5C 456.464,62.9056 456.631,62.2389 456.5,61.5C 465.282,70.3921 470.949,81.0588 473.5,93.5C 473.737,94.791 473.404,95.791 472.5,96.5C 470.738,91.9613 469.238,87.2946 468,82.5C 465.482,79.4293 462.982,76.4293 460.5,73.5C 460.461,72.4168 460.127,71.4168 459.5,70.5C 454.77,66.7731 450.77,62.4397 447.5,57.5 Z"/></g>
<g><path style="opacity:0.012" fill="#000000" d="M 44.5,63.5 C 44.5,64.1667 44.1667,64.5 43.5,64.5C 42.8333,64.5 42.5,64.8333 42.5,65.5C 42.6716,66.4916 42.3382,67.1583 41.5,67.5C 41.5,66.8333 41.1667,66.5 40.5,66.5C 41.0478,64.4677 42.3812,63.4677 44.5,63.5 Z"/></g>
<g><path style="opacity:0.016" fill="#080000" d="M 465.5,63.5 C 466.833,63.5 467.5,64.1667 467.5,65.5C 466.5,65.1667 465.833,64.5 465.5,63.5 Z"/></g>
<g><path style="opacity:1" fill="#da7e7b" d="M 68.5,51.5 C 60.199,58.9685 52.3656,66.9685 45,75.5C 42.9105,79.6683 41.4105,84.0017 40.5,88.5C 39.2101,89.0577 38.3768,90.0577 38,91.5C 37.6012,91.2716 37.4346,90.9382 37.5,90.5C 39.9826,79.7186 44.9826,70.3852 52.5,62.5C 53.552,62.6495 54.552,62.4828 55.5,62C 59.1486,57.5044 63.4819,54.0044 68.5,51.5 Z"/></g>
<g><path style="opacity:1" fill="#c62b11" d="M 412.5,48.5 C 416.154,48.9422 419.821,49.2756 423.5,49.5C 426.479,50.3173 429.479,51.1506 432.5,52C 434.901,54.0624 437.567,55.7291 440.5,57C 447.936,61.6054 454.602,67.1054 460.5,73.5C 460.468,76.0758 461.135,78.4091 462.5,80.5C 464.109,83.5932 465.109,86.9266 465.5,90.5C 468.393,102.643 469.726,114.977 469.5,127.5C 468.672,133.319 468.172,139.319 468,145.5C 466.545,142.088 464.712,138.921 462.5,136C 459.774,135.818 457.107,135.318 454.5,134.5C 445.384,119.071 435.217,105.071 424,92.5C 413.977,76.7323 400.477,62.2323 383.5,49C 393.161,48.5002 402.828,48.3335 412.5,48.5 Z"/></g>
<g><path style="opacity:0.014" fill="#000000" d="M 474.5,75.5 C 474.167,75.5 473.833,75.5 473.5,75.5C 472.833,75.5 472.5,75.1667 472.5,74.5C 472.5,74.1667 472.5,73.8333 472.5,73.5C 471.833,73.5 471.5,73.1667 471.5,72.5C 470.833,71.5 470.167,70.5 469.5,69.5C 470.117,69.3893 470.617,69.056 471,68.5C 473.238,70.3091 474.405,72.6424 474.5,75.5 Z"/></g>
<g><path style="opacity:0.011" fill="#000000" d="M 38.5,72.5 C 38.5,72.8333 38.5,73.1667 38.5,73.5C 37.5084,73.3284 36.8417,73.6618 36.5,74.5C 35.475,74.1034 35.3083,73.4368 36,72.5C 36.7697,71.4019 37.603,71.4019 38.5,72.5 Z"/></g>
<g><path style="opacity:0.02" fill="#000000" d="M 36.5,74.5 C 36.8333,74.5 37.1667,74.5 37.5,74.5C 37.6716,75.4916 37.3382,76.1583 36.5,76.5C 36.1667,76.5 35.8333,76.5 35.5,76.5C 35.8333,75.8333 36.1667,75.1667 36.5,74.5 Z"/></g>
<g><path style="opacity:0.007" fill="#000000" d="M 474.5,76.5 C 474.5,76.1667 474.5,75.8333 474.5,75.5C 475.833,75.5 476.5,76.1667 476.5,77.5C 476.167,77.5 475.833,77.5 475.5,77.5C 475.5,76.8333 475.167,76.5 474.5,76.5 Z"/></g>
<g><path style="opacity:0.014" fill="#000000" d="M 35.5,76.5 C 35.5,77.1667 35.8333,77.5 36.5,77.5C 36.1667,78.1667 35.8333,78.8333 35.5,79.5C 34.1667,78.5 34.1667,77.5 35.5,76.5 Z"/></g>
<g><path style="opacity:1" fill="#c93328" d="M 391.5,159.5 C 390.85,159.196 390.183,158.863 389.5,158.5C 388.167,159.5 386.833,160.5 385.5,161.5C 376.204,148.021 365.537,135.521 353.5,124C 342.858,115.343 331.525,107.676 319.5,101C 315.5,100.667 311.5,100.333 307.5,100C 267.174,84.6004 226.174,82.6004 184.5,94C 176.59,97.9717 168.257,100.305 159.5,101C 134.647,115.856 114.481,135.356 99,159.5C 97.3908,158.85 95.8908,159.35 94.5,161C 95.2797,162.073 95.113,163.24 94,164.5C 93.6667,163.167 93.3333,161.833 93,160.5C 92.6582,162.619 91.8249,162.953 90.5,161.5C 90.5,160.833 90.5,160.167 90.5,159.5C 93.4051,154.076 96.5717,148.742 100,143.5C 115.652,123.514 134.152,106.681 155.5,93C 158.833,92.6667 162.167,92.3333 165.5,92C 175.676,86.9411 186.343,83.2744 197.5,81C 236.931,73.6433 275.264,77.3099 312.5,92C 316.167,92.3333 319.833,92.6667 323.5,93C 334.044,98.8822 344.044,105.549 353.5,113C 369.871,125.636 382.538,141.136 391.5,159.5 Z"/></g>
<g><path style="opacity:0.015" fill="#080100" d="M 473.5,76.5 C 473.833,76.5 474.167,76.5 474.5,76.5C 475.167,76.5 475.5,76.8333 475.5,77.5C 475.833,78.8333 476.167,78.8333 476.5,77.5C 477.791,78.5417 477.791,79.7083 476.5,81C 479.464,81.8403 479.797,82.8403 477.5,84C 477.802,85.6549 479.136,86.9882 481.5,88C 480.756,89.0386 479.756,89.5386 478.5,89.5C 477.833,89.5 477.5,89.1667 477.5,88.5C 478.833,88.1667 478.833,87.8333 477.5,87.5C 476.833,85.1667 476.167,82.8333 475.5,80.5C 474.833,80.5 474.5,80.1667 474.5,79.5C 473.89,78.609 473.557,77.609 473.5,76.5 Z"/></g>
<g><path style="opacity:0.022" fill="#000000" d="M 34.5,80.5 C 34.5,80.8333 34.5,81.1667 34.5,81.5C 33.8333,81.5 33.1667,81.5 32.5,81.5C 32.4088,79.3023 33.0755,78.9689 34.5,80.5 Z"/></g>
<g><path style="opacity:0.008" fill="#000000" d="M 32.5,81.5 C 32.5,82.1667 32.5,82.8333 32.5,83.5C 30.0673,83.2144 30.0673,82.5477 32.5,81.5 Z"/></g>
<g><path style="opacity:0.012" fill="#0c0000" d="M 32.5,86.5 C 32.7678,88.099 32.4345,89.4324 31.5,90.5C 31.2969,88.9557 30.6302,87.6223 29.5,86.5C 30.2334,85.913 31.2334,85.913 32.5,86.5 Z"/></g>
<g><path style="opacity:1" fill="#c62a16" d="M 412.5,48.5 C 402.828,48.3335 393.161,48.5002 383.5,49C 400.477,62.2323 413.977,76.7323 424,92.5C 435.217,105.071 445.384,119.071 454.5,134.5C 457.107,135.318 459.774,135.818 462.5,136C 464.712,138.921 466.545,142.088 468,145.5C 468.172,139.319 468.672,133.319 469.5,127.5C 469.268,153.504 468.768,179.504 468,205.5C 462.241,185.555 454.908,166.221 446,147.5C 443.527,146.88 441.027,146.214 438.5,145.5C 429.971,130.264 420.471,116.264 410,103.5C 407.928,104.96 407.094,106.626 407.5,108.5C 406.692,108.192 406.025,107.692 405.5,107C 406.413,105.586 406.413,104.086 405.5,102.5C 405.539,101.417 405.873,100.417 406.5,99.5C 390.385,78.4535 370.718,61.6201 347.5,49C 369.324,47.5503 390.991,47.3836 412.5,48.5 Z"/></g>
<g><path style="opacity:1" fill="#c9362c" d="M 391.5,159.5 C 391.833,159.5 392.167,159.5 392.5,159.5C 396.022,167.395 399.356,175.395 402.5,183.5C 404.045,184.452 405.712,184.785 407.5,184.5C 411.889,198.168 416.389,211.835 421,225.5C 422.317,230.1 423.317,234.766 424,239.5C 425.081,237.233 426.581,237.066 428.5,239C 428.619,240.145 428.952,241.312 429.5,242.5C 424.687,243.866 420.021,245.533 415.5,247.5C 416.538,242.871 416.371,238.204 415,233.5C 411.328,219.653 407.161,205.987 402.5,192.5C 400.396,192.799 398.396,192.466 396.5,191.5C 393.74,183.88 390.407,176.546 386.5,169.5C 386.089,170.262 385.923,171.262 386,172.5C 383.135,170.361 380.635,171.027 378.5,174.5C 377.422,176.475 377.755,178.308 379.5,180C 378.667,180.833 377.833,181.667 377,182.5C 375.667,179.833 374.333,177.167 373,174.5C 372.586,174.957 372.086,175.291 371.5,175.5C 370.859,174.007 369.859,173.007 368.5,172.5C 359.386,156.38 347.386,142.714 332.5,131.5C 331.828,130.051 331.161,128.718 330.5,127.5C 330.5,125.833 330.5,124.167 330.5,122.5C 321.341,121.43 312.008,120.597 302.5,120C 268.944,107.88 234.611,105.214 199.5,112C 190.907,113.897 182.574,116.564 174.5,120C 170.5,120.333 166.5,120.667 162.5,121C 141.352,133.645 125.685,151.145 115.5,173.5C 114.262,172.588 112.928,172.421 111.5,173C 113.932,174.087 113.598,174.587 110.5,174.5C 110.509,176.308 110.009,177.975 109,179.5C 108.667,178.833 108.333,178.167 108,177.5C 107.581,178.672 106.915,179.672 106,180.5C 105.571,178.331 106.071,176.331 107.5,174.5C 106.469,173.3 105.635,171.966 105,170.5C 104.333,171.167 103.667,171.833 103,172.5C 100.91,171.209 99.5764,171.876 99,174.5C 98.6411,171.456 97.9745,171.122 97,173.5C 94.8266,170.723 94.3266,170.89 95.5,174C 94.3333,174.5 93.5,175.333 93,176.5C 91.3333,181.5 89.6667,186.5 88,191.5C 86,192.167 84,192.833 82,193.5C 77.4281,208.525 74.5948,223.858 73.5,239.5C 71.0465,237.94 68.3798,236.94 65.5,236.5C 67.5276,219.529 71.0276,202.862 76,186.5C 77.3369,184.996 79.0036,183.996 81,183.5C 83.3731,175.761 86.5398,168.428 90.5,161.5C 91.8249,162.953 92.6582,162.619 93,160.5C 93.3333,161.833 93.6667,163.167 94,164.5C 95.113,163.24 95.2797,162.073 94.5,161C 95.8908,159.35 97.3908,158.85 99,159.5C 114.481,135.356 134.647,115.856 159.5,101C 168.257,100.305 176.59,97.9717 184.5,94C 226.174,82.6004 267.174,84.6004 307.5,100C 311.5,100.333 315.5,100.667 319.5,101C 331.525,107.676 342.858,115.343 353.5,124C 365.537,135.521 376.204,148.021 385.5,161.5C 386.833,160.5 388.167,159.5 389.5,158.5C 390.183,158.863 390.85,159.196 391.5,159.5 Z"/></g>
<g><path style="opacity:0.004" fill="#000000" d="M 28.5,88.5 C 29.8333,89.1667 29.8333,89.1667 28.5,88.5 Z"/></g>
<g><path style="opacity:0.025" fill="#000000" d="M 31.5,90.5 C 31.7373,91.791 31.404,92.791 30.5,93.5C 30.5,92.8333 30.1667,92.5 29.5,92.5C 29.5,91.1667 30.1667,90.5 31.5,90.5 Z"/></g>
<g><path style="opacity:0.026" fill="#000000" d="M 478.5,90.5 C 479.958,90.5793 481.292,91.0793 482.5,92C 481.167,93 481.167,94 482.5,95C 481.552,95.4828 480.552,95.6495 479.5,95.5C 478.962,93.8828 478.629,92.2161 478.5,90.5 Z"/></g>
<g><path style="opacity:0.02" fill="#000000" d="M 29.5,92.5 C 30.1667,92.5 30.5,92.8333 30.5,93.5C 30.5,93.8333 30.5,94.1667 30.5,94.5C 29.325,94.719 28.325,94.3857 27.5,93.5C 27.9569,92.7025 28.6236,92.3691 29.5,92.5 Z"/></g>
<g><path style="opacity:0.025" fill="#000000" d="M 30.5,95.5 C 30.5,96.1667 30.5,96.8333 30.5,97.5C 29.8333,97.5 29.1667,97.5 28.5,97.5C 28.8333,96.5 29.5,95.8333 30.5,95.5 Z"/></g>
<g><path style="opacity:0.004" fill="#000000" d="M 27.5,97.5 C 26.8333,96.1667 26.8333,96.1667 27.5,97.5 Z"/></g>
<g><path style="opacity:0.183" fill="#000000" d="M 479.5,96.5 C 480.922,96.7086 482.255,97.2086 483.5,98C 482.938,99.5653 482.438,101.399 482,103.5C 482.743,101.355 483.576,101.189 484.5,103C 483.994,105.496 483.994,107.83 484.5,110C 481.833,110.667 481.833,111.333 484.5,112C 483.167,113 483.167,114 484.5,115C 481.972,116.316 481.972,117.483 484.5,118.5C 483.402,125.618 483.402,132.618 484.5,139.5C 484.023,140.478 483.357,141.311 482.5,142C 485.167,143.333 485.167,144.667 482.5,146C 483.056,146.383 483.389,146.883 483.5,147.5C 482.167,147.833 482.167,148.167 483.5,148.5C 482.192,154.478 482.192,160.145 483.5,165.5C 482.167,165.833 482.167,166.167 483.5,166.5C 484.186,175.114 484.186,183.114 483.5,190.5C 484.398,213.16 484.398,235.494 483.5,257.5C 482.167,257.833 482.167,258.167 483.5,258.5C 483.5,258.833 483.5,259.167 483.5,259.5C 482.167,260.167 482.167,260.833 483.5,261.5C 484.833,262.833 484.833,264.167 483.5,265.5C 482.167,265.833 482.167,266.167 483.5,266.5C 484.289,274.071 484.289,281.738 483.5,289.5C 482.167,290.167 482.167,290.833 483.5,291.5C 483.5,291.833 483.5,292.167 483.5,292.5C 482.167,292.833 482.167,293.167 483.5,293.5C 484.357,297.03 484.357,300.363 483.5,303.5C 484.06,322.619 484.06,340.953 483.5,358.5C 484.243,373.374 484.243,388.374 483.5,403.5C 482.167,403.833 482.167,404.167 483.5,404.5C 484.062,410.605 484.395,416.438 484.5,422C 484.095,422.945 483.428,423.612 482.5,424C 483.357,424.689 484.023,425.522 484.5,426.5C 483.811,428.444 483.311,430.444 483,432.5C 481.951,431.483 480.784,431.316 479.5,432C 480.672,432.419 481.672,433.085 482.5,434C 481.289,434.787 480.289,435.454 479.5,436C 480.898,437.649 480.564,438.982 478.5,440C 479.523,442.774 479.523,445.607 478.5,448.5C 476.799,448.034 475.299,448.034 474,448.5C 473.689,449.742 474.189,450.742 475.5,451.5C 475.137,452.183 474.804,452.85 474.5,453.5C 473.167,453.833 473.167,454.167 474.5,454.5C 474.649,455.552 474.483,456.552 474,457.5C 472.636,456.742 471.469,457.242 470.5,459C 472.742,460.007 472.408,460.841 469.5,461.5C 470.463,462.363 470.463,463.03 469.5,463.5C 468.5,462.833 467.5,462.167 466.5,461.5C 465.893,461.624 465.56,461.957 465.5,462.5C 464.957,462.56 464.624,462.893 464.5,463.5C 465.257,464.773 465.923,464.773 466.5,463.5C 467.289,463.783 467.956,464.283 468.5,465C 466.581,467.944 464.248,470.444 461.5,472.5C 461.167,471.167 460.833,471.167 460.5,472.5C 459.388,474.744 457.888,474.744 456,472.5C 455.53,473.577 455.697,474.577 456.5,475.5C 455.833,475.5 455.5,475.833 455.5,476.5C 454.603,477.598 453.77,477.598 453,476.5C 452.283,477.044 451.783,477.711 451.5,478.5C 450.662,478.842 450.328,479.508 450.5,480.5C 449.25,480.423 448.417,479.756 448,478.5C 447.316,479.784 447.483,480.951 448.5,482C 447.956,482.717 447.289,483.217 446.5,483.5C 446.649,482.448 446.483,481.448 446,480.5C 444.644,481.38 443.144,481.714 441.5,481.5C 441.36,483.124 442.027,484.29 443.5,485C 443,485.5 442.5,486 442,486.5C 440.708,485.209 439.542,485.209 438.5,486.5C 436.99,487.728 435.49,487.728 434,486.5C 433.833,486.833 433.667,487.167 433.5,487.5C 437.374,489.002 437.041,489.669 432.5,489.5C 431.328,490.705 429.995,490.705 428.5,489.5C 427.304,489.846 427.304,490.346 428.5,491C 426.888,491.72 425.388,491.554 424,490.5C 423.333,493.167 422.667,493.167 422,490.5C 420.887,491.711 419.72,491.711 418.5,490.5C 417.702,490.957 417.369,491.624 417.5,492.5C 413.754,494.957 409.92,494.957 406,492.5C 404.715,492.95 403.548,493.617 402.5,494.5C 400.326,491.94 398.159,491.94 396,494.5C 394.765,493.385 393.598,493.385 392.5,494.5C 391.808,493.975 391.308,493.308 391,492.5C 389.914,494.847 388.581,494.847 387,492.5C 386.235,492.57 385.735,492.903 385.5,493.5C 382.897,494.239 380.564,494.239 378.5,493.5C 376.072,494.39 373.738,494.723 371.5,494.5C 370.522,494.023 369.689,493.357 369,492.5C 368.692,493.308 368.192,493.975 367.5,494.5C 367.704,493.471 367.204,492.471 366,491.5C 364.654,494.249 363.32,494.583 362,492.5C 360.077,493.316 358.077,493.983 356,494.5C 353.057,494.316 350.057,494.316 347,494.5C 346.333,493.833 345.667,493.167 345,492.5C 342.251,495.113 339.418,495.113 336.5,492.5C 335.893,492.624 335.56,492.957 335.5,493.5C 328.671,494.517 322.338,494.517 316.5,493.5C 315.469,492.751 314.302,492.085 313,491.5C 312.536,492.094 312.369,492.761 312.5,493.5C 305.492,493.516 298.825,493.516 292.5,493.5C 285.495,494.156 278.162,494.156 270.5,493.5C 269.833,492.167 269.167,492.167 268.5,493.5C 267.5,494.833 266.5,494.833 265.5,493.5C 265.167,492.167 264.833,492.167 264.5,493.5C 256.166,494.833 247.166,494.833 237.5,493.5C 229.766,494.435 222.432,494.435 215.5,493.5C 212.035,494.221 208.369,494.221 204.5,493.5C 203.833,492.167 203.167,492.167 202.5,493.5C 200.38,493.93 198.38,493.93 196.5,493.5C 193.555,493.611 190.222,493.611 186.5,493.5C 185.833,492.167 185.167,492.167 184.5,493.5C 182.451,494.641 180.451,494.641 178.5,493.5C 178.167,492.167 177.833,492.167 177.5,493.5C 167.858,492.271 158.525,492.271 149.5,493.5C 149.167,492.167 148.833,492.167 148.5,493.5C 147.175,494.953 146.342,494.619 146,492.5C 144.667,493.833 143.333,493.833 142,492.5C 141.333,493.167 140.667,493.833 140,494.5C 137.25,493.999 134.417,493.999 131.5,494.5C 131.307,490.551 130.807,490.551 130,494.5C 129.333,491.833 128.667,491.833 128,494.5C 127.399,492.641 126.566,492.308 125.5,493.5C 121.624,493.083 117.957,493.083 114.5,493.5C 114.167,492.167 113.833,492.167 113.5,493.5C 111.5,494.833 109.5,494.833 107.5,493.5C 107.167,492.167 106.833,492.167 106.5,493.5C 102.881,494.404 99.7141,494.737 97,494.5C 96.0853,493.672 95.4186,492.672 95,491.5C 94.3292,492.252 93.4959,492.586 92.5,492.5C 90.3924,489.919 88.2257,489.919 86,492.5C 85.0053,491.934 84.172,491.267 83.5,490.5C 82.1526,491.028 80.8193,491.195 79.5,491C 82.3224,488.145 81.9891,487.311 78.5,488.5C 78.6107,487.883 78.944,487.383 79.5,487C 78.0993,486.59 76.766,486.09 75.5,485.5C 75.1667,484.167 74.8333,484.167 74.5,485.5C 72.3023,485.409 71.9689,486.075 73.5,487.5C 72.8826,487.611 72.3826,487.944 72,488.5C 71.2797,486.888 71.4464,485.388 72.5,484C 71.2688,482.033 70.2688,482.199 69.5,484.5C 70.3256,485.451 70.4922,486.451 70,487.5C 68.3484,486.601 66.8484,485.601 65.5,484.5C 66.1667,484.5 66.5,484.167 66.5,483.5C 68.0281,483.483 68.5281,482.816 68,481.5C 65.9287,480.636 64.262,479.303 63,477.5C 62.6924,478.308 62.1924,478.975 61.5,479.5C 59.6503,478.758 58.9836,477.758 59.5,476.5C 58.6143,477.325 58.281,478.325 58.5,479.5C 57.7784,479.082 57.2784,478.416 57,477.5C 56.6667,478.167 56.3333,478.833 56,479.5C 55.6667,477.833 55.3333,476.167 55,474.5C 54.6667,475.5 54.3333,476.5 54,477.5C 51.5022,475.538 50.5022,473.205 51,470.5C 50.3292,469.748 49.4959,469.414 48.5,469.5C 49.0511,465.965 47.8844,465.632 45,468.5C 44.5521,466.591 45.3855,465.424 47.5,465C 45.7721,463.274 43.7721,461.941 41.5,461C 43.9011,460.195 43.7344,459.362 41,458.5C 40.2828,459.044 39.7828,459.711 39.5,460.5C 37.2721,459.678 36.6054,458.345 37.5,456.5C 36.5,455.667 35.5,454.833 34.5,454C 34.8333,453.667 35.1667,453.333 35.5,453C 34.244,452.583 33.5774,451.75 33.5,450.5C 35.9845,449.26 35.9845,448.26 33.5,447.5C 32.1902,445.852 30.8569,444.186 29.5,442.5C 31.9582,439.873 31.2916,438.04 27.5,437C 31.0016,434.989 31.0016,433.656 27.5,433C 30.1667,432 30.1667,431 27.5,430C 27.5012,428.601 27.8346,427.101 28.5,425.5C 27.8333,425.167 27.1667,424.833 26.5,424.5C 26.7093,423.914 27.0426,423.414 27.5,423C 26.6422,421.43 25.9755,419.763 25.5,418C 26.0058,413.505 26.0058,409.172 25.5,405C 28.1667,403.667 28.1667,402.333 25.5,401C 25.0574,399.482 25.7241,398.315 27.5,397.5C 27.1543,396.304 26.6543,396.304 26,397.5C 25.5667,395.336 26.0667,393.336 27.5,391.5C 27.1822,390.353 26.5156,389.519 25.5,389C 25.7394,382.504 25.7394,375.838 25.5,369C 25.691,366.95 26.3576,365.117 27.5,363.5C 26.5585,363.511 25.8919,363.011 25.5,362C 25.9504,360.715 26.6171,359.548 27.5,358.5C 27.3764,357.893 27.0431,357.56 26.5,357.5C 26.2463,335.293 26.2463,313.96 26.5,293.5C 26.6107,292.883 26.944,292.383 27.5,292C 25.6812,289.944 25.0145,287.777 25.5,285.5C 27.9224,283.952 27.9224,282.286 25.5,280.5C 26.3624,277.559 26.3624,274.559 25.5,271.5C 25.7163,269.616 26.383,267.949 27.5,266.5C 26.689,265.784 26.0223,264.95 25.5,264C 26.6099,257.227 26.6099,250.227 25.5,243C 26.1667,242.667 26.8333,242.333 27.5,242C 26.0564,240.874 25.3898,239.374 25.5,237.5C 25.5,233.833 25.5,230.167 25.5,226.5C 25.7092,225.006 26.3759,223.839 27.5,223C 26.8333,222.667 26.1667,222.333 25.5,222C 26.8333,221.333 26.8333,220.667 25.5,220C 26.1667,219.667 26.8333,219.333 27.5,219C 25.5776,217.54 24.9109,215.873 25.5,214C 27.8912,213.309 27.8912,212.309 25.5,211C 26.8333,208 26.8333,205 25.5,202C 28.1667,201.333 28.1667,200.667 25.5,200C 26.3081,199.692 26.9747,199.192 27.5,198.5C 26.8333,198.167 26.1667,197.833 25.5,197.5C 27.2759,196.685 27.9426,195.518 27.5,194C 26.1059,193.044 25.4393,191.711 25.5,190C 26.805,188.244 27.4716,186.577 27.5,185C 26.6919,184.692 26.0253,184.192 25.5,183.5C 26.1723,180.83 26.1723,177.997 25.5,175C 25.4934,173.188 26.16,171.688 27.5,170.5C 24.9218,170.323 24.9218,169.157 27.5,167C 24.8333,164.667 24.8333,162.333 27.5,160C 24.8333,158 24.8333,156 27.5,154C 24.8333,153 24.8333,152 27.5,151C 26.4258,150.261 25.7591,149.261 25.5,148C 25.6413,145.283 25.6413,142.616 25.5,140C 26.3081,139.692 26.9747,139.192 27.5,138.5C 27.1543,137.304 26.6543,137.304 26,138.5C 25.8333,137.5 25.6667,136.5 25.5,135.5C 26.3954,129.157 26.3954,122.824 25.5,116.5C 26.0253,115.808 26.6919,115.308 27.5,115C 26.6919,114.692 26.0253,114.192 25.5,113.5C 26.8333,112.5 26.8333,111.5 25.5,110.5C 26.376,109.749 27.376,109.249 28.5,109C 27.5294,107.796 26.5294,107.296 25.5,107.5C 26.0253,106.808 26.6919,106.308 27.5,106C 26.2089,104.708 26.2089,103.542 27.5,102.5C 27.8417,103.338 28.5084,103.672 29.5,103.5C 29.3333,206.834 29.5,310.167 30,413.5C 37.7301,452.563 61.2301,475.397 100.5,482C 203.5,482.667 306.5,482.667 409.5,482C 448.357,475.476 471.857,452.976 480,414.5C 480.5,309.501 480.667,204.501 480.5,99.5C 481.833,99.1667 481.833,98.8333 480.5,98.5C 479.662,98.1583 479.328,97.4916 479.5,96.5 Z M 480.5,428.5 C 483.001,428.511 483.168,429.178 481,430.5C 480.536,429.906 480.369,429.239 480.5,428.5 Z M 40.5,455.5 C 41.2891,455.783 41.9558,456.283 42.5,457C 41.184,457.528 40.5173,457.028 40.5,455.5 Z M 469.5,461.5 C 466.85,461.042 466.35,460.042 468,458.5C 469.039,459.244 469.539,460.244 469.5,461.5 Z M 465.5,462.5 C 465.5,463.167 465.833,463.5 466.5,463.5C 465.923,464.773 465.257,464.773 464.5,463.5C 464.624,462.893 464.957,462.56 465.5,462.5 Z M 464.5,466.5 C 463.279,467.465 461.946,467.298 460.5,466C 461.928,465.421 463.262,465.588 464.5,466.5 Z M 439.5,482.5 C 440.043,482.56 440.376,482.893 440.5,483.5C 439.635,484.583 438.635,484.749 437.5,484C 438.416,483.722 439.082,483.222 439.5,482.5 Z M 432.5,489.5 C 430.663,489.361 430.33,488.694 431.5,487.5C 432.298,487.957 432.631,488.624 432.5,489.5 Z M 83.5,490.5 C 82.6322,488.108 83.2988,487.941 85.5,490C 84.9056,490.464 84.2389,490.631 83.5,490.5 Z"/></g>
<g><path style="opacity:0.02" fill="#000000" d="M 27.5,97.5 C 27.8333,97.5 28.1667,97.5 28.5,97.5C 28.8417,98.3382 29.5084,98.6716 30.5,98.5C 30.5,99.1667 30.1667,99.5 29.5,99.5C 28.5084,99.3284 27.8417,99.6618 27.5,100.5C 26.375,99.6522 26.375,98.6522 27.5,97.5 Z"/></g>
<g><path style="opacity:0.024" fill="#000000" d="M 27.5,100.5 C 28.1667,100.5 28.8333,100.5 29.5,100.5C 29.5,100.833 29.5,101.167 29.5,101.5C 28.8333,101.833 28.1667,102.167 27.5,102.5C 27.5,101.833 27.5,101.167 27.5,100.5 Z"/></g>
<g><path style="opacity:1" fill="#c42b1b" d="M 465.5,90.5 C 468.246,96.8058 470.079,103.473 471,110.5C 471.457,211.993 471.291,313.326 470.5,414.5C 470.667,350.166 470.5,285.832 470,221.5C 465.857,224.819 461.357,227.486 456.5,229.5C 455.878,228.373 455.045,227.373 454,226.5C 452.295,227.556 449.795,228.556 446.5,229.5C 446.322,226.784 445.822,224.117 445,221.5C 438.587,202.761 432.087,184.094 425.5,165.5C 423.396,165.799 421.396,165.466 419.5,164.5C 414.93,154.356 409.597,144.689 403.5,135.5C 398.5,128.833 393.5,122.167 388.5,115.5C 390.144,116.96 391.977,118.293 394,119.5C 395.722,119.389 395.888,118.889 394.5,118C 396.384,117.784 398.051,117.117 399.5,116C 397.595,114.185 395.928,112.185 394.5,110C 395.167,109.667 395.833,109.333 396.5,109C 395.062,108.781 393.729,108.281 392.5,107.5C 391.046,105.737 391.38,104.403 393.5,103.5C 394.541,105.991 395.374,105.991 396,103.5C 396.354,105.807 397.354,106.141 399,104.5C 400.663,105.99 402.33,106.656 404,106.5C 404.21,104.942 404.71,103.609 405.5,102.5C 406.413,104.086 406.413,105.586 405.5,107C 406.025,107.692 406.692,108.192 407.5,108.5C 407.094,106.626 407.928,104.96 410,103.5C 420.471,116.264 429.971,130.264 438.5,145.5C 441.027,146.214 443.527,146.88 446,147.5C 454.908,166.221 462.241,185.555 468,205.5C 468.768,179.504 469.268,153.504 469.5,127.5C 469.726,114.977 468.393,102.643 465.5,90.5 Z"/></g>
<g><path style="opacity:1" fill="#ca3d35" d="M 330.5,122.5 C 275.167,122.5 219.833,122.5 164.5,122.5C 163.833,126.5 163.167,130.5 162.5,134.5C 161.27,137.2 159.603,139.7 157.5,142C 157.833,142.333 158.167,142.667 158.5,143C 157.552,143.483 156.552,143.649 155.5,143.5C 155.33,144.822 155.663,145.989 156.5,147C 151.236,153.664 146.069,160.498 141,167.5C 135.813,177.236 130.813,186.569 126,195.5C 124.115,194.687 123.449,193.353 124,191.5C 124.451,193.929 125.285,194.096 126.5,192C 125.833,191.333 125.167,190.667 124.5,190C 124.057,188.482 124.724,187.315 126.5,186.5C 125.311,185.571 123.978,185.238 122.5,185.5C 121.193,190.335 119.526,194.002 117.5,196.5C 115.275,195.899 113.109,195.566 111,195.5C 109.333,196.5 108,197.833 107,199.5C 106.601,199.272 106.435,198.938 106.5,198.5C 108.66,189.85 111.66,181.516 115.5,173.5C 125.685,151.145 141.352,133.645 162.5,121C 166.5,120.667 170.5,120.333 174.5,120C 182.574,116.564 190.907,113.897 199.5,112C 234.611,105.214 268.944,107.88 302.5,120C 312.008,120.597 321.341,121.43 330.5,122.5 Z"/></g>
<g><path style="opacity:1" fill="#c4382f" d="M 462.5,80.5 C 465.063,82.6122 466.896,85.2788 468,88.5C 469.864,93.3427 471.197,98.3427 472,103.5C 472.667,209.167 472.667,314.833 472,420.5C 471.61,423.104 470.776,425.438 469.5,427.5C 470.2,423.202 470.533,418.869 470.5,414.5C 471.291,313.326 471.457,211.993 471,110.5C 470.079,103.473 468.246,96.8058 465.5,90.5C 465.109,86.9266 464.109,83.5932 462.5,80.5 Z"/></g>
<g><path style="opacity:1" fill="#fefdfd" d="M 330.5,122.5 C 330.5,124.167 330.5,125.833 330.5,127.5C 329.187,133.959 328.521,140.626 328.5,147.5C 327.253,153.63 326.586,159.963 326.5,166.5C 325.566,167.568 325.232,168.901 325.5,170.5C 286.33,170.168 247.33,170.501 208.5,171.5C 207.883,171.611 207.383,171.944 207,172.5C 206.503,174.81 206.337,177.143 206.5,179.5C 203.247,192.549 200.913,205.882 199.5,219.5C 241.5,219.5 283.5,219.5 325.5,219.5C 333.167,219.5 340.833,219.5 348.5,219.5C 359.833,219.5 371.167,219.5 382.5,219.5C 383.496,219.414 384.329,219.748 385,220.5C 385.667,230.167 385.667,239.833 385,249.5C 378.997,254.337 373.497,259.67 368.5,265.5C 366.5,266.833 364.833,268.5 363.5,270.5C 335.827,297.839 308.161,325.173 280.5,352.5C 299.534,354.887 318.534,354.887 337.5,352.5C 348.356,350.992 359.022,348.658 369.5,345.5C 368.693,358.497 367.859,371.497 367,384.5C 358.171,388.83 349.005,392.163 339.5,394.5C 326.262,396.674 312.928,397.674 299.5,397.5C 286.83,395.833 274.164,394.166 261.5,392.5C 257.817,390.75 253.817,390.083 249.5,390.5C 242.658,390.039 235.991,390.872 229.5,393C 227.382,394.049 225.716,395.549 224.5,397.5C 223.508,397.672 222.842,397.338 222.5,396.5C 217.735,388.626 212.735,380.959 207.5,373.5C 205.992,370.834 204.826,368.167 204,365.5C 210.369,359.298 216.536,352.965 222.5,346.5C 227.833,341.833 232.833,336.833 237.5,331.5C 259.965,309.535 282.299,287.368 304.5,265C 264.833,264.333 225.167,264.333 185.5,265C 182.928,275.028 180.928,285.195 179.5,295.5C 178.175,303.131 176.841,310.798 175.5,318.5C 171.854,335.045 168.854,351.712 166.5,368.5C 148.167,368.5 129.833,368.5 111.5,368.5C 111.5,368.167 111.5,367.833 111.5,367.5C 113.102,363.079 114.102,358.412 114.5,353.5C 119.989,330.398 124.989,307.064 129.5,283.5C 139.022,242.739 148.022,201.739 156.5,160.5C 158.627,151.867 160.627,143.201 162.5,134.5C 163.167,130.5 163.833,126.5 164.5,122.5C 219.833,122.5 275.167,122.5 330.5,122.5 Z"/></g>
<g><path style="opacity:1" fill="#c42e22" d="M 403.5,135.5 C 409.597,144.689 414.93,154.356 419.5,164.5C 421.396,165.466 423.396,165.799 425.5,165.5C 432.087,184.094 438.587,202.761 445,221.5C 445.822,224.117 446.322,226.784 446.5,229.5C 449.795,228.556 452.295,227.556 454,226.5C 455.045,227.373 455.878,228.373 456.5,229.5C 452.68,232.58 448.347,234.913 443.5,236.5C 439.056,238.925 434.389,240.925 429.5,242.5C 428.952,241.312 428.619,240.145 428.5,239C 426.581,237.066 425.081,237.233 424,239.5C 423.317,234.766 422.317,230.1 421,225.5C 416.389,211.835 411.889,198.168 407.5,184.5C 405.712,184.785 404.045,184.452 402.5,183.5C 399.356,175.395 396.022,167.395 392.5,159.5C 393.458,159.953 394.292,160.619 395,161.5C 395.374,160.584 395.874,159.75 396.5,159C 393.707,154.582 391.041,150.082 388.5,145.5C 390.413,144.949 392.413,144.782 394.5,145C 393.304,144.346 393.304,143.846 394.5,143.5C 395.956,145.444 396.956,147.11 397.5,148.5C 398.251,147.624 398.751,146.624 399,145.5C 399.718,146.451 400.551,146.617 401.5,146C 400.167,145 400.167,144 401.5,143C 400.076,140.899 398.742,138.733 397.5,136.5C 399.154,135.556 401.154,135.223 403.5,135.5 Z"/></g>
<g><path style="opacity:1" fill="#c22d21" d="M 83.5,48.5 C 84.8333,48.5 86.1667,48.5 87.5,48.5C 85.249,49.4106 83.249,50.744 81.5,52.5C 65.0902,61.5764 52.4236,74.243 43.5,90.5C 41.3291,101.04 40.3291,111.707 40.5,122.5C 40.1792,147.871 41.0125,173.205 43,198.5C 45.7386,186.211 49.4053,174.211 54,162.5C 55,161.167 56,161.167 57,162.5C 58.6933,160.973 60.5266,159.64 62.5,158.5C 63.105,159.587 62.7717,160.754 61.5,162C 62.4491,162.617 63.2825,162.451 64,161.5C 67.7677,152.952 72.2677,144.952 77.5,137.5C 79.1998,138.016 80.5331,139.016 81.5,140.5C 80.2889,141.72 80.2889,142.887 81.5,144C 80.7471,145.487 79.9138,145.654 79,144.5C 78.5983,145.872 78.0983,147.205 77.5,148.5C 77.8333,148.833 78.1667,149.167 78.5,149.5C 80.8333,147.5 83.1667,145.5 85.5,143.5C 86.2508,144.376 86.7508,145.376 87,146.5C 87.6667,145.167 88.3333,145.167 89,146.5C 90.1029,142.952 91.2695,143.285 92.5,147.5C 90.3147,151.377 88.3147,155.377 86.5,159.5C 87.7117,159.07 89.045,159.07 90.5,159.5C 90.5,160.167 90.5,160.833 90.5,161.5C 86.5398,168.428 83.3731,175.761 81,183.5C 79.0036,183.996 77.3369,184.996 76,186.5C 71.0276,202.862 67.5276,219.529 65.5,236.5C 68.3798,236.94 71.0465,237.94 73.5,239.5C 76.1716,240.501 78.8382,241.501 81.5,242.5C 80.8871,263.978 82.5537,284.978 86.5,305.5C 86.5,306.5 86.5,307.5 86.5,308.5C 83.4017,308.587 83.0684,308.087 85.5,307C 84.5838,306.626 83.7504,306.126 83,305.5C 81.8831,305.665 80.7164,305.998 79.5,306.5C 77.67,302.379 76.3366,298.046 75.5,293.5C 75.4154,294.932 74.4154,296.265 72.5,297.5C 71.3279,297.081 70.3279,296.415 69.5,295.5C 70.1667,295.167 70.8333,294.833 71.5,294.5C 68.0017,291.854 66.5017,288.521 67,284.5C 65.0912,285.332 63.2578,284.999 61.5,283.5C 59.7562,266.827 59.0896,250.16 59.5,233.5C 53.0855,230.211 46.9189,226.544 41,222.5C 40.5,264.832 40.3333,307.165 40.5,349.5C 40.0539,373.169 39.8873,396.835 40,420.5C 40.9853,422.175 41.8186,423.842 42.5,425.5C 43.349,434.081 46.6823,441.414 52.5,447.5C 52.8333,448.833 53.1667,450.167 53.5,451.5C 47.8849,446.212 43.8849,439.878 41.5,432.5C 39.8625,426.614 38.8625,420.614 38.5,414.5C 38.8973,311.826 38.8973,209.16 38.5,106.5C 38.7263,99.9019 40.0596,93.5685 42.5,87.5C 48.7335,75.6417 57.0669,65.1417 67.5,56C 72.7737,53.1888 78.107,50.6888 83.5,48.5 Z"/></g>
<g><path style="opacity:0.02" fill="#000000" d="M 483.5,147.5 C 484.833,148.167 484.833,148.167 483.5,147.5 Z"/></g>
<g><path style="opacity:1" fill="#c9433b" d="M 328.5,147.5 C 328.337,149.857 328.503,152.19 329,154.5C 339.965,165.76 348.965,178.427 356,192.5C 356.667,191.167 357.333,191.167 358,192.5C 358.492,193.549 358.326,194.549 357.5,195.5C 360.833,202.833 364.167,210.167 367.5,217.5C 372.651,218.167 377.651,218.834 382.5,219.5C 371.167,219.5 359.833,219.5 348.5,219.5C 345.311,218.834 341.977,218.167 338.5,217.5C 329.932,200.52 318.599,185.687 304.5,173C 311.679,172.829 318.679,172.329 325.5,171.5C 326.451,170.081 326.784,168.415 326.5,166.5C 326.586,159.963 327.253,153.63 328.5,147.5 Z"/></g>
<g><path style="opacity:0.027" fill="#000000" d="M 483.5,165.5 C 484.833,166.167 484.833,166.167 483.5,165.5 Z"/></g>
<g><path style="opacity:1" fill="#c5362d" d="M 415.5,247.5 C 413.035,247.767 410.701,248.434 408.5,249.5C 404.603,250.91 400.603,251.91 396.5,252.5C 396.375,239.375 393.875,226.708 389,214.5C 387.667,213.833 386.333,213.167 385,212.5C 379.949,199.343 374.449,186.01 368.5,172.5C 369.859,173.007 370.859,174.007 371.5,175.5C 372.086,175.291 372.586,174.957 373,174.5C 374.333,177.167 375.667,179.833 377,182.5C 377.833,181.667 378.667,180.833 379.5,180C 377.755,178.308 377.422,176.475 378.5,174.5C 380.635,171.027 383.135,170.361 386,172.5C 385.923,171.262 386.089,170.262 386.5,169.5C 390.407,176.546 393.74,183.88 396.5,191.5C 398.396,192.466 400.396,192.799 402.5,192.5C 407.161,205.987 411.328,219.653 415,233.5C 416.371,238.204 416.538,242.871 415.5,247.5 Z"/></g>
<g><path style="opacity:1" fill="#c5362d" d="M 115.5,173.5 C 111.66,181.516 108.66,189.85 106.5,198.5C 104.543,202.952 102.876,207.619 101.5,212.5C 100.311,213.429 98.9778,213.762 97.5,213.5C 95.0439,224.36 93.7106,235.36 93.5,246.5C 89.2854,245.762 85.2854,244.428 81.5,242.5C 78.8382,241.501 76.1716,240.501 73.5,239.5C 74.5948,223.858 77.4281,208.525 82,193.5C 84,192.833 86,192.167 88,191.5C 89.6667,186.5 91.3333,181.5 93,176.5C 93.5,175.333 94.3333,174.5 95.5,174C 94.3266,170.89 94.8266,170.723 97,173.5C 97.9745,171.122 98.6411,171.456 99,174.5C 99.5764,171.876 100.91,171.209 103,172.5C 103.667,171.833 104.333,171.167 105,170.5C 105.635,171.966 106.469,173.3 107.5,174.5C 106.071,176.331 105.571,178.331 106,180.5C 106.915,179.672 107.581,178.672 108,177.5C 108.333,178.167 108.667,178.833 109,179.5C 110.009,177.975 110.509,176.308 110.5,174.5C 113.598,174.587 113.932,174.087 111.5,173C 112.928,172.421 114.262,172.588 115.5,173.5 Z"/></g>
<g><path style="opacity:1" fill="#f6e2e2" d="M 326.5,166.5 C 326.784,168.415 326.451,170.081 325.5,171.5C 286.5,171.5 247.5,171.5 208.5,171.5C 247.33,170.501 286.33,170.168 325.5,170.5C 325.232,168.901 325.566,167.568 326.5,166.5 Z"/></g>
<g><path style="opacity:1" fill="#cb4b45" d="M 208.5,171.5 C 247.5,171.5 286.5,171.5 325.5,171.5C 318.679,172.329 311.679,172.829 304.5,173C 318.599,185.687 329.932,200.52 338.5,217.5C 341.977,218.167 345.311,218.834 348.5,219.5C 340.833,219.5 333.167,219.5 325.5,219.5C 323.631,218.835 321.631,218.169 319.5,217.5C 309.297,201.899 295.963,189.732 279.5,181C 266.893,180.846 254.393,179.679 242,177.5C 232.812,178.378 223.645,179.378 214.5,180.5C 211.645,180.497 208.978,180.164 206.5,179.5C 206.337,177.143 206.503,174.81 207,172.5C 207.383,171.944 207.883,171.611 208.5,171.5 Z"/></g>
<g><path style="opacity:1" fill="#cb4e48" d="M 325.5,219.5 C 283.5,219.5 241.5,219.5 199.5,219.5C 200.913,205.882 203.247,192.549 206.5,179.5C 208.978,180.164 211.645,180.497 214.5,180.5C 223.645,179.378 232.812,178.378 242,177.5C 254.393,179.679 266.893,180.846 279.5,181C 295.963,189.732 309.297,201.899 319.5,217.5C 321.631,218.169 323.631,218.835 325.5,219.5 Z"/></g>
<g><path style="opacity:1" fill="#c73c34" d="M 330.5,127.5 C 331.161,128.718 331.828,130.051 332.5,131.5C 347.386,142.714 359.386,156.38 368.5,172.5C 374.449,186.01 379.949,199.343 385,212.5C 386.333,213.167 387.667,213.833 389,214.5C 393.875,226.708 396.375,239.375 396.5,252.5C 394.401,253.612 392.067,254.279 389.5,254.5C 386.933,254.721 384.599,255.388 382.5,256.5C 381.5,256.5 380.5,256.5 379.5,256.5C 379.216,258.877 379.216,261.044 379.5,263C 378.004,263.507 376.837,263.007 376,261.5C 373.36,262.656 370.86,263.989 368.5,265.5C 373.497,259.67 378.997,254.337 385,249.5C 385.667,239.833 385.667,230.167 385,220.5C 384.329,219.748 383.496,219.414 382.5,219.5C 377.651,218.834 372.651,218.167 367.5,217.5C 364.167,210.167 360.833,202.833 357.5,195.5C 358.326,194.549 358.492,193.549 358,192.5C 357.333,191.167 356.667,191.167 356,192.5C 348.965,178.427 339.965,165.76 329,154.5C 328.503,152.19 328.337,149.857 328.5,147.5C 328.521,140.626 329.187,133.959 330.5,127.5 Z"/></g>
<g><path style="opacity:0.024" fill="#000000" d="M 483.5,189.5 C 484.833,190.167 484.833,190.167 483.5,189.5 Z"/></g>
<g><path style="opacity:1" fill="#c73e36" d="M 162.5,134.5 C 160.627,143.201 158.627,151.867 156.5,160.5C 152.503,163.338 149.337,167.005 147,171.5C 131.879,196.34 123.379,222.34 121.5,249.5C 120.5,249.5 119.5,249.5 118.5,249.5C 118.5,250.833 118.5,252.167 118.5,253.5C 111.729,252.243 105.063,250.576 98.5,248.5C 96.597,248.204 94.9303,247.537 93.5,246.5C 93.7106,235.36 95.0439,224.36 97.5,213.5C 98.9778,213.762 100.311,213.429 101.5,212.5C 102.876,207.619 104.543,202.952 106.5,198.5C 106.435,198.938 106.601,199.272 107,199.5C 108,197.833 109.333,196.5 111,195.5C 113.109,195.566 115.275,195.899 117.5,196.5C 119.526,194.002 121.193,190.335 122.5,185.5C 123.978,185.238 125.311,185.571 126.5,186.5C 124.724,187.315 124.057,188.482 124.5,190C 125.167,190.667 125.833,191.333 126.5,192C 125.285,194.096 124.451,193.929 124,191.5C 123.449,193.353 124.115,194.687 126,195.5C 130.813,186.569 135.813,177.236 141,167.5C 146.069,160.498 151.236,153.664 156.5,147C 155.663,145.989 155.33,144.822 155.5,143.5C 156.552,143.649 157.552,143.483 158.5,143C 158.167,142.667 157.833,142.333 157.5,142C 159.603,139.7 161.27,137.2 162.5,134.5 Z"/></g>
<g><path style="opacity:1" fill="#c7433b" d="M 156.5,160.5 C 148.022,201.739 139.022,242.739 129.5,283.5C 127.436,274.399 125.936,265.066 125,255.5C 122.723,254.883 120.556,254.216 118.5,253.5C 118.5,252.167 118.5,250.833 118.5,249.5C 119.5,249.5 120.5,249.5 121.5,249.5C 123.379,222.34 131.879,196.34 147,171.5C 149.337,167.005 152.503,163.338 156.5,160.5 Z"/></g>
<g><path style="opacity:1" fill="#c75853" d="M 40.5,88.5 C 38.6186,93.3157 37.452,98.3157 37,103.5C 36.8331,207.667 36.3331,311.667 35.5,415.5C 34.3463,310.515 34.1797,205.515 35,100.5C 35.3106,96.9101 36.144,93.5767 37.5,90.5C 37.4346,90.9382 37.6012,91.2716 38,91.5C 38.3768,90.0577 39.2101,89.0577 40.5,88.5 Z"/></g>
<g><path style="opacity:1" fill="#c54842" d="M 42.5,87.5 C 40.0596,93.5685 38.7263,99.9019 38.5,106.5C 37.1667,209.167 37.1667,311.833 38.5,414.5C 38.8625,420.614 39.8625,426.614 41.5,432.5C 38.439,427.283 36.439,421.617 35.5,415.5C 36.3331,311.667 36.8331,207.667 37,103.5C 37.452,98.3157 38.6186,93.3157 40.5,88.5C 41.1667,88.1667 41.8333,87.8333 42.5,87.5 Z"/></g>
<g><path style="opacity:1" fill="#bf352c" d="M 98.5,248.5 C 105.063,250.576 111.729,252.243 118.5,253.5C 120.556,254.216 122.723,254.883 125,255.5C 125.936,265.066 127.436,274.399 129.5,283.5C 124.989,307.064 119.989,330.398 114.5,353.5C 114.663,351.143 114.497,348.81 114,346.5C 110.336,339.979 107.836,333.312 106.5,326.5C 107.247,326.264 108.08,325.93 109,325.5C 109.667,327.5 110.333,329.5 111,331.5C 112.41,330.213 113.91,329.046 115.5,328C 112.902,324.217 111.068,320.05 110,315.5C 104.602,296.103 101.436,276.103 100.5,255.5C 100.357,252.887 99.6899,250.553 98.5,248.5 Z"/></g>
<g><path style="opacity:1" fill="#be362d" d="M 382.5,256.5 C 382.226,287.568 375.893,316.901 363.5,344.5C 365.537,344.498 367.537,344.832 369.5,345.5C 359.022,348.658 348.356,350.992 337.5,352.5C 336.737,351.732 335.737,351.232 334.5,351C 351.396,327.642 360.729,301.642 362.5,273C 364.619,272.658 364.953,271.825 363.5,270.5C 364.833,268.5 366.5,266.833 368.5,265.5C 370.86,263.989 373.36,262.656 376,261.5C 376.837,263.007 378.004,263.507 379.5,263C 379.216,261.044 379.216,258.877 379.5,256.5C 380.5,256.5 381.5,256.5 382.5,256.5 Z"/></g>
<g><path style="opacity:0.004" fill="#000000" d="M 483.5,257.5 C 484.833,258.167 484.833,258.167 483.5,257.5 Z"/></g>
<g><path style="opacity:0.033" fill="#000000" d="M 483.5,259.5 C 484.833,260.167 484.833,260.833 483.5,261.5C 483.5,260.833 483.5,260.167 483.5,259.5 Z"/></g>
<g><path style="opacity:1" fill="#b82610" d="M 470.5,414.5 C 470.533,418.869 470.2,423.202 469.5,427.5C 467.777,432.613 465.777,437.613 463.5,442.5C 452.216,461.417 435.55,472.417 413.5,475.5C 437.642,469.863 455.142,455.863 466,433.5C 467.156,429.877 468.156,426.211 469,422.5C 469.818,397.579 469.318,372.746 467.5,348C 468.051,346.602 468.384,345.268 468.5,344C 467.262,344.077 466.262,343.911 465.5,343.5C 469.376,342.243 469.376,341.41 465.5,341C 464.472,342.632 463.472,344.132 462.5,345.5C 462.764,343.827 462.264,342.16 461,340.5C 460.692,341.308 460.192,341.975 459.5,342.5C 458.833,341.5 458.167,340.5 457.5,339.5C 456.284,338.998 455.117,338.665 454,338.5C 453.383,339.449 453.549,340.282 454.5,341C 453.124,343.543 451.957,343.709 451,341.5C 450.178,344.117 449.678,346.784 449.5,349.5C 446.203,349.329 445.869,349.995 448.5,351.5C 447.459,353.585 445.959,355.252 444,356.5C 443.784,354.616 443.117,352.949 442,351.5C 440.823,353.176 439.323,354.509 437.5,355.5C 436.808,354.975 436.308,354.308 436,353.5C 435.577,354.956 434.744,355.456 433.5,355C 433.833,354.667 434.167,354.333 434.5,354C 433.584,353.722 432.918,353.222 432.5,352.5C 440.778,324.302 445.444,294.802 446.5,264C 446.306,254.694 445.306,245.527 443.5,236.5C 448.347,234.913 452.68,232.58 456.5,229.5C 461.357,227.486 465.857,224.819 470,221.5C 470.5,285.832 470.667,350.166 470.5,414.5 Z"/></g>
<g><path style="opacity:1" fill="#c54943" d="M 237.5,331.5 C 236.737,330.732 235.737,330.232 234.5,330C 235.833,329.333 237.167,328.667 238.5,328C 236.307,328.57 234.307,328.236 232.5,327C 233.956,326.577 234.456,325.744 234,324.5C 232.23,325.276 230.397,325.11 228.5,324C 213.165,317.84 200.165,308.507 189.5,296C 187.199,295.196 185.032,295.696 183,297.5C 182.689,296.258 183.189,295.258 184.5,294.5C 184.167,294.167 183.833,293.833 183.5,293.5C 182.575,294.641 181.741,294.641 181,293.5C 180.722,294.416 180.222,295.082 179.5,295.5C 180.928,285.195 182.928,275.028 185.5,265C 225.167,264.333 264.833,264.333 304.5,265C 282.299,287.368 259.965,309.535 237.5,331.5 Z"/></g>
<g><path style="opacity:0.035" fill="#000000" d="M 483.5,265.5 C 484.833,266.167 484.833,266.167 483.5,265.5 Z"/></g>
<g><path style="opacity:1" fill="#b82615" d="M 61.5,283.5 C 64.1328,309.033 70.9661,333.367 82,356.5C 85.6799,363.204 89.8466,369.538 94.5,375.5C 93.5222,375.811 92.8555,376.478 92.5,377.5C 93.9814,378.48 95.3147,379.647 96.5,381C 95.9747,381.692 95.3081,382.192 94.5,382.5C 93.485,379.832 91.8183,379.166 89.5,380.5C 89.8627,381.183 90.1961,381.85 90.5,382.5C 89.2436,382.096 88.0769,381.429 87,380.5C 85.8382,381.187 84.6716,381.353 83.5,381C 84.5536,379.612 84.7203,378.112 84,376.5C 82.8469,378.497 81.3469,378.83 79.5,377.5C 73.5534,369.195 68.5534,360.862 64.5,352.5C 54.0077,327.206 48.1744,300.873 47,273.5C 47.5354,275.271 48.3687,275.604 49.5,274.5C 48.2901,272.183 48.7901,270.183 51,268.5C 51.658,270.108 51.158,271.275 49.5,272C 52.1613,274.647 53.1613,277.647 52.5,281C 53.0203,283.864 54.5203,286.031 57,287.5C 57.6838,286.216 57.5171,285.049 56.5,284C 57.7425,283.689 58.7425,284.189 59.5,285.5C 60.1818,284.757 60.8485,284.091 61.5,283.5 Z"/></g>
<g><path style="opacity:1" fill="#ba2717" d="M 443.5,236.5 C 445.306,245.527 446.306,254.694 446.5,264C 445.444,294.802 440.778,324.302 432.5,352.5C 429.789,359.964 426.289,367.63 422,375.5C 420.291,377.175 418.624,378.842 417,380.5C 416.667,379.833 416.333,379.167 416,378.5C 415.632,379.91 414.799,380.91 413.5,381.5C 412.304,381.154 412.304,380.654 413.5,380C 412.906,379.536 412.239,379.369 411.5,379.5C 408.6,379.269 405.6,378.936 402.5,378.5C 412.729,361.744 419.896,343.077 424,322.5C 426.986,309.589 428.986,296.589 430,283.5C 428.657,287.361 427.157,287.361 425.5,283.5C 424.97,286.327 423.97,289.327 422.5,292.5C 420.531,294.421 419.031,294.421 418,292.5C 415.658,297.859 412.825,302.859 409.5,307.5C 410.5,307.5 411.5,307.5 412.5,307.5C 412.649,308.552 412.483,309.552 412,310.5C 409.678,307.399 406.845,305.899 403.5,306C 405.8,304.887 406.133,303.387 404.5,301.5C 407.878,284.576 409.211,267.242 408.5,249.5C 410.701,248.434 413.035,247.767 415.5,247.5C 420.021,245.533 424.687,243.866 429.5,242.5C 434.389,240.925 439.056,238.925 443.5,236.5 Z"/></g>
<g><path style="opacity:1" fill="#c03e36" d="M 363.5,270.5 C 364.953,271.825 364.619,272.658 362.5,273C 360.729,301.642 351.396,327.642 334.5,351C 335.737,351.232 336.737,351.732 337.5,352.5C 318.534,354.887 299.534,354.887 280.5,352.5C 308.161,325.173 335.827,297.839 363.5,270.5 Z"/></g>
<g><path style="opacity:1" fill="#b92712" d="M 61.5,283.5 C 60.8485,284.091 60.1818,284.757 59.5,285.5C 58.7425,284.189 57.7425,283.689 56.5,284C 57.5171,285.049 57.6838,286.216 57,287.5C 54.5203,286.031 53.0203,283.864 52.5,281C 53.1613,277.647 52.1613,274.647 49.5,272C 51.158,271.275 51.658,270.108 51,268.5C 48.7901,270.183 48.2901,272.183 49.5,274.5C 48.3687,275.604 47.5354,275.271 47,273.5C 48.1744,300.873 54.0077,327.206 64.5,352.5C 63.1679,353.83 62.3345,355.497 62,357.5C 60.2087,355.487 58.8753,355.487 58,357.5C 57.6667,356.5 57.3333,355.5 57,354.5C 56.3457,355.696 55.8457,355.696 55.5,354.5C 57.3969,353.332 57.5636,351.665 56,349.5C 55.0569,352.109 53.3903,354.109 51,355.5C 50.3828,354.551 50.5494,353.718 51.5,353C 48.9529,350.747 47.2862,347.914 46.5,344.5C 45.3112,343.571 43.9778,343.238 42.5,343.5C 42.405,345.786 41.7384,347.786 40.5,349.5C 40.3333,307.165 40.5,264.832 41,222.5C 46.9189,226.544 53.0855,230.211 59.5,233.5C 59.0896,250.16 59.7562,266.827 61.5,283.5 Z"/></g>
<g><path style="opacity:1" fill="#b8281c" d="M 61.5,283.5 C 63.2578,284.999 65.0912,285.332 67,284.5C 66.5017,288.521 68.0017,291.854 71.5,294.5C 70.8333,294.833 70.1667,295.167 69.5,295.5C 70.3279,296.415 71.3279,297.081 72.5,297.5C 74.4154,296.265 75.4154,294.932 75.5,293.5C 76.3366,298.046 77.67,302.379 79.5,306.5C 80.7164,305.998 81.8831,305.665 83,305.5C 83.7504,306.126 84.5838,306.626 85.5,307C 83.0684,308.087 83.4017,308.587 86.5,308.5C 86.5,307.5 86.5,306.5 86.5,305.5C 91.0652,326.304 99.2319,345.637 111,363.5C 111.49,364.793 111.657,366.127 111.5,367.5C 111.5,367.833 111.5,368.167 111.5,368.5C 111.5,368.833 111.5,369.167 111.5,369.5C 112.952,370.302 114.618,370.802 116.5,371C 126.816,384.029 138.649,394.529 152,402.5C 152.667,403.5 152.667,404.5 152,405.5C 151.31,404.262 150.81,404.262 150.5,405.5C 144.862,402.671 139.195,399.004 133.5,394.5C 132.5,395 131.5,395.5 130.5,396C 131.604,397.131 131.271,397.965 129.5,398.5C 128.289,397.726 128.289,396.893 129.5,396C 127.496,394.577 125.996,392.744 125,390.5C 124.333,391.833 123.333,392.833 122,393.5C 117.653,390.151 113.653,386.484 110,382.5C 108.351,381.102 107.018,381.436 106,383.5C 104.5,382.333 103,381.167 101.5,380C 102.167,379.333 102.833,378.667 103.5,378C 101.512,377.82 99.5116,377.986 97.5,378.5C 96.1667,377.833 95.1667,376.833 94.5,375.5C 89.8466,369.538 85.6799,363.204 82,356.5C 70.9661,333.367 64.1328,309.033 61.5,283.5 Z"/></g>
<g><path style="opacity:1" fill="#b9291d" d="M 408.5,249.5 C 409.211,267.242 407.878,284.576 404.5,301.5C 406.133,303.387 405.8,304.887 403.5,306C 406.845,305.899 409.678,307.399 412,310.5C 412.483,309.552 412.649,308.552 412.5,307.5C 411.5,307.5 410.5,307.5 409.5,307.5C 412.825,302.859 415.658,297.859 418,292.5C 419.031,294.421 420.531,294.421 422.5,292.5C 423.97,289.327 424.97,286.327 425.5,283.5C 427.157,287.361 428.657,287.361 430,283.5C 428.986,296.589 426.986,309.589 424,322.5C 419.896,343.077 412.729,361.744 402.5,378.5C 401.527,380.139 400.194,381.473 398.5,382.5C 399.278,378.111 398.445,377.778 396,381.5C 395.974,378.895 394.807,377.729 392.5,378C 393.34,379.666 392.84,379.833 391,378.5C 386.519,384.979 381.352,390.812 375.5,396C 372.617,396.795 371.117,395.629 371,392.5C 369.26,393.716 368.26,395.382 368,397.5C 367.275,395.842 366.108,395.342 364.5,396C 361.045,398.616 357.712,401.45 354.5,404.5C 353.824,403.398 353.158,402.398 352.5,401.5C 367.792,389.7 379.625,375.033 388,357.5C 388.393,355.801 387.893,354.301 386.5,353C 390.238,342.453 393.571,331.786 396.5,321C 396.333,320.167 396.167,319.333 396,318.5C 394.796,319.471 394.296,320.471 394.5,321.5C 392.255,320.068 390.255,319.068 388.5,318.5C 391.695,306.665 394.028,294.665 395.5,282.5C 393.058,282.354 392.391,283.187 393.5,285C 392.167,287 390.833,289 389.5,291C 390.747,292.494 390.747,293.994 389.5,295.5C 389.891,294.109 389.058,293.109 387,292.5C 388.101,279.883 388.934,267.216 389.5,254.5C 392.067,254.279 394.401,253.612 396.5,252.5C 400.603,251.91 404.603,250.91 408.5,249.5 Z"/></g>
<g><path style="opacity:1" fill="#c7514c" d="M 473.5,106.5 C 474.167,206.833 474.833,307.167 475.5,407.5C 475.425,410.206 475.092,412.873 474.5,415.5C 473.501,312.668 473.167,209.668 473.5,106.5 Z"/></g>
<g><path style="opacity:1" fill="#c23b34" d="M 38.5,106.5 C 38.8973,209.16 38.8973,311.826 38.5,414.5C 37.1667,311.833 37.1667,209.167 38.5,106.5 Z"/></g>
<g><path style="opacity:0.041" fill="#000000" d="M 483.5,289.5 C 484.833,290.167 484.833,290.833 483.5,291.5C 483.5,290.833 483.5,290.167 483.5,289.5 Z"/></g>
<g><path style="opacity:0.024" fill="#000000" d="M 483.5,292.5 C 484.833,293.167 484.833,293.167 483.5,292.5 Z"/></g>
<g><path style="opacity:0.051" fill="#000000" d="M 26.5,293.5 C 25.8333,294.167 25.8333,294.167 26.5,293.5 Z"/></g>
<g><path style="opacity:0.02" fill="#000000" d="M 483.5,303.5 C 484.833,304.167 484.833,304.167 483.5,303.5 Z"/></g>
<g><path style="opacity:1" fill="#cc615e" d="M 473.5,93.5 C 474.314,95.631 474.814,97.9644 475,100.5C 475.5,202.833 475.667,305.166 475.5,407.5C 474.833,307.167 474.167,206.833 473.5,106.5C 473.384,103.14 473.051,99.8067 472.5,96.5C 473.404,95.791 473.737,94.791 473.5,93.5 Z"/></g>
<g><path style="opacity:1" fill="#c1433c" d="M 237.5,331.5 C 232.833,336.833 227.833,341.833 222.5,346.5C 213.882,343.559 205.549,339.725 197.5,335C 189.928,329.725 182.595,324.225 175.5,318.5C 176.841,310.798 178.175,303.131 179.5,295.5C 180.222,295.082 180.722,294.416 181,293.5C 181.741,294.641 182.575,294.641 183.5,293.5C 183.833,293.833 184.167,294.167 184.5,294.5C 183.189,295.258 182.689,296.258 183,297.5C 185.032,295.696 187.199,295.196 189.5,296C 200.165,308.507 213.165,317.84 228.5,324C 230.397,325.11 232.23,325.276 234,324.5C 234.456,325.744 233.956,326.577 232.5,327C 234.307,328.236 236.307,328.57 238.5,328C 237.167,328.667 235.833,329.333 234.5,330C 235.737,330.232 236.737,330.732 237.5,331.5 Z"/></g>
<g><path style="opacity:1" fill="#bc2e23" d="M 81.5,242.5 C 85.2854,244.428 89.2854,245.762 93.5,246.5C 94.9303,247.537 96.597,248.204 98.5,248.5C 99.6899,250.553 100.357,252.887 100.5,255.5C 101.436,276.103 104.602,296.103 110,315.5C 111.068,320.05 112.902,324.217 115.5,328C 113.91,329.046 112.41,330.213 111,331.5C 110.333,329.5 109.667,327.5 109,325.5C 108.08,325.93 107.247,326.264 106.5,326.5C 107.836,333.312 110.336,339.979 114,346.5C 114.497,348.81 114.663,351.143 114.5,353.5C 114.102,358.412 113.102,363.079 111.5,367.5C 111.657,366.127 111.49,364.793 111,363.5C 99.2319,345.637 91.0652,326.304 86.5,305.5C 82.5537,284.978 80.8871,263.978 81.5,242.5 Z"/></g>
<g><path style="opacity:1" fill="#c3433c" d="M 460.5,73.5 C 462.982,76.4293 465.482,79.4293 468,82.5C 469.238,87.2946 470.738,91.9613 472.5,96.5C 473.051,99.8067 473.384,103.14 473.5,106.5C 473.167,209.668 473.501,312.668 474.5,415.5C 472.961,425.471 469.294,434.471 463.5,442.5C 465.777,437.613 467.777,432.613 469.5,427.5C 470.776,425.438 471.61,423.104 472,420.5C 472.667,314.833 472.667,209.167 472,103.5C 471.197,98.3427 469.864,93.3427 468,88.5C 466.896,85.2788 465.063,82.6122 462.5,80.5C 461.135,78.4091 460.468,76.0758 460.5,73.5 Z"/></g>
<g><path style="opacity:1" fill="#be3e37" d="M 175.5,318.5 C 182.595,324.225 189.928,329.725 197.5,335C 205.549,339.725 213.882,343.559 222.5,346.5C 216.536,352.965 210.369,359.298 204,365.5C 204.826,368.167 205.992,370.834 207.5,373.5C 197.784,371.312 188.451,367.979 179.5,363.5C 178.41,364.727 177.076,365.56 175.5,366C 176.28,367.073 176.113,368.24 175,369.5C 173.956,368.377 173.29,367.044 173,365.5C 171.174,367.165 169.007,368.165 166.5,368.5C 168.854,351.712 171.854,335.045 175.5,318.5 Z"/></g>
<g><path style="opacity:1" fill="#b0230f" d="M 462.5,345.5 C 460.174,360.827 455.007,375.16 447,388.5C 424.203,425.299 393.703,453.799 355.5,474C 374.805,475.361 394.138,475.861 413.5,475.5C 412.391,476.29 411.058,476.79 409.5,477C 306.833,477.667 204.167,477.667 101.5,477C 81.8339,475.005 65.8339,466.505 53.5,451.5C 53.1667,450.167 52.8333,448.833 52.5,447.5C 69.4991,468.853 91.8324,478.186 119.5,475.5C 130.526,475.499 141.526,474.999 152.5,474C 134.547,467.029 118.547,457.029 104.5,444C 79.8027,420.987 59.3027,394.821 43,365.5C 41.9938,377.824 41.1604,390.158 40.5,402.5C 40.736,410.09 41.4027,417.756 42.5,425.5C 41.8186,423.842 40.9853,422.175 40,420.5C 39.8873,396.835 40.0539,373.169 40.5,349.5C 41.7384,347.786 42.405,345.786 42.5,343.5C 43.9778,343.238 45.3112,343.571 46.5,344.5C 47.2862,347.914 48.9529,350.747 51.5,353C 50.5494,353.718 50.3828,354.551 51,355.5C 53.3903,354.109 55.0569,352.109 56,349.5C 57.5636,351.665 57.3969,353.332 55.5,354.5C 55.8457,355.696 56.3457,355.696 57,354.5C 57.3333,355.5 57.6667,356.5 58,357.5C 58.8753,355.487 60.2087,355.487 62,357.5C 62.3345,355.497 63.1679,353.83 64.5,352.5C 68.5534,360.862 73.5534,369.195 79.5,377.5C 81.3469,378.83 82.8469,378.497 84,376.5C 84.7203,378.112 84.5536,379.612 83.5,381C 84.6716,381.353 85.8382,381.187 87,380.5C 88.0769,381.429 89.2436,382.096 90.5,382.5C 104.999,401.832 121.999,418.665 141.5,433C 153.058,440.077 165.391,445.41 178.5,449C 206.829,457.944 235.829,462.777 265.5,463.5C 312.461,464.027 351.961,447.361 384,413.5C 389.667,407.167 395.333,400.833 401,394.5C 404.797,389.565 408.297,384.565 411.5,379.5C 412.239,379.369 412.906,379.536 413.5,380C 412.304,380.654 412.304,381.154 413.5,381.5C 414.799,380.91 415.632,379.91 416,378.5C 416.333,379.167 416.667,379.833 417,380.5C 418.624,378.842 420.291,377.175 422,375.5C 426.289,367.63 429.789,359.964 432.5,352.5C 432.918,353.222 433.584,353.722 434.5,354C 434.167,354.333 433.833,354.667 433.5,355C 434.744,355.456 435.577,354.956 436,353.5C 436.308,354.308 436.808,354.975 437.5,355.5C 439.323,354.509 440.823,353.176 442,351.5C 443.117,352.949 443.784,354.616 444,356.5C 445.959,355.252 447.459,353.585 448.5,351.5C 445.869,349.995 446.203,349.329 449.5,349.5C 449.678,346.784 450.178,344.117 451,341.5C 451.957,343.709 453.124,343.543 454.5,341C 453.549,340.282 453.383,339.449 454,338.5C 455.117,338.665 456.284,338.998 457.5,339.5C 458.167,340.5 458.833,341.5 459.5,342.5C 460.192,341.975 460.692,341.308 461,340.5C 462.264,342.16 462.764,343.827 462.5,345.5 Z"/></g>
<g><path style="opacity:0.02" fill="#000000" d="M 483.5,351.5 C 484.833,352.167 484.833,352.167 483.5,351.5 Z"/></g>
<g><path style="opacity:0.035" fill="#000000" d="M 26.5,357.5 C 25.8333,358.167 25.8333,358.167 26.5,357.5 Z"/></g>
<g><path style="opacity:0.039" fill="#000000" d="M 483.5,357.5 C 484.833,358.167 484.833,358.167 483.5,357.5 Z"/></g>
<g><path style="opacity:1" fill="#bb3830" d="M 207.5,373.5 C 212.735,380.959 217.735,388.626 222.5,396.5C 221.763,398.382 220.596,399.048 219,398.5C 206.872,394.68 194.705,390.847 182.5,387C 171.897,382.7 161.897,377.366 152.5,371C 141.53,369.835 130.53,369.335 119.5,369.5C 116.833,369.5 114.167,369.5 111.5,369.5C 111.5,369.167 111.5,368.833 111.5,368.5C 129.833,368.5 148.167,368.5 166.5,368.5C 169.007,368.165 171.174,367.165 173,365.5C 173.29,367.044 173.956,368.377 175,369.5C 176.113,368.24 176.28,367.073 175.5,366C 177.076,365.56 178.41,364.727 179.5,363.5C 188.451,367.979 197.784,371.312 207.5,373.5 Z"/></g>
<g><path style="opacity:1" fill="#b62d22" d="M 389.5,254.5 C 388.934,267.216 388.101,279.883 387,292.5C 389.058,293.109 389.891,294.109 389.5,295.5C 390.747,293.994 390.747,292.494 389.5,291C 390.833,289 392.167,287 393.5,285C 392.391,283.187 393.058,282.354 395.5,282.5C 394.028,294.665 391.695,306.665 388.5,318.5C 390.255,319.068 392.255,320.068 394.5,321.5C 394.296,320.471 394.796,319.471 396,318.5C 396.167,319.333 396.333,320.167 396.5,321C 393.571,331.786 390.238,342.453 386.5,353C 387.893,354.301 388.393,355.801 388,357.5C 379.625,375.033 367.792,389.7 352.5,401.5C 349.211,403.616 346.044,405.949 343,408.5C 342.493,409.996 342.993,411.163 344.5,412C 309.1,434.584 270.766,441.584 229.5,433C 210.112,429.07 191.112,423.736 172.5,417C 164.664,413.917 157.33,410.084 150.5,405.5C 150.81,404.262 151.31,404.262 152,405.5C 152.667,404.5 152.667,403.5 152,402.5C 138.649,394.529 126.816,384.029 116.5,371C 114.618,370.802 112.952,370.302 111.5,369.5C 114.167,369.5 116.833,369.5 119.5,369.5C 123.353,370.166 127.353,370.833 131.5,371.5C 144.708,385.84 160.708,396.007 179.5,402C 207.864,412.06 235.531,418.06 262.5,420C 286.085,419.334 309.085,413 331.5,401C 334.859,399.513 337.525,397.346 339.5,394.5C 349.005,392.163 358.171,388.83 367,384.5C 367.859,371.497 368.693,358.497 369.5,345.5C 367.537,344.832 365.537,344.498 363.5,344.5C 375.893,316.901 382.226,287.568 382.5,256.5C 384.599,255.388 386.933,254.721 389.5,254.5 Z"/></g>
<g><path style="opacity:1" fill="#b73027" d="M 119.5,369.5 C 130.53,369.335 141.53,369.835 152.5,371C 161.897,377.366 171.897,382.7 182.5,387C 194.705,390.847 206.872,394.68 219,398.5C 220.596,399.048 221.763,398.382 222.5,396.5C 222.842,397.338 223.508,397.672 224.5,397.5C 228.104,399.598 232.104,400.764 236.5,401C 253.375,403.155 270.208,402.989 287,400.5C 287.772,400.645 288.439,400.978 289,401.5C 292.359,399.626 295.859,398.293 299.5,397.5C 312.928,397.674 326.262,396.674 339.5,394.5C 337.525,397.346 334.859,399.513 331.5,401C 309.085,413 286.085,419.334 262.5,420C 235.531,418.06 207.864,412.06 179.5,402C 160.708,396.007 144.708,385.84 131.5,371.5C 127.353,370.833 123.353,370.166 119.5,369.5 Z"/></g>
<g><path style="opacity:1" fill="#b3271c" d="M 150.5,405.5 C 157.33,410.084 164.664,413.917 172.5,417C 191.112,423.736 210.112,429.07 229.5,433C 270.766,441.584 309.1,434.584 344.5,412C 342.993,411.163 342.493,409.996 343,408.5C 346.044,405.949 349.211,403.616 352.5,401.5C 353.158,402.398 353.824,403.398 354.5,404.5C 357.712,401.45 361.045,398.616 364.5,396C 366.108,395.342 367.275,395.842 368,397.5C 368.26,395.382 369.26,393.716 371,392.5C 371.117,395.629 372.617,396.795 375.5,396C 381.352,390.812 386.519,384.979 391,378.5C 392.84,379.833 393.34,379.666 392.5,378C 394.807,377.729 395.974,378.895 396,381.5C 398.445,377.778 399.278,378.111 398.5,382.5C 397.479,387.216 394.813,389.549 390.5,389.5C 393.25,390.006 393.084,391.34 390,393.5C 389.692,392.692 389.192,392.025 388.5,391.5C 379.738,397.721 371.405,405.221 363.5,414C 329.613,442.078 290.947,453.745 247.5,449C 217.508,445.558 188.508,438.224 160.5,427C 144.881,419.688 131.214,409.688 119.5,397C 117.581,395.066 116.081,395.233 115,397.5C 113.764,395.693 113.43,393.693 114,391.5C 113.5,392.5 113,393.5 112.5,394.5C 111.998,395.521 111.332,395.688 110.5,395C 108.009,391.51 105.175,388.343 102,385.5C 101.508,384.451 101.674,383.451 102.5,382.5C 101.41,380.997 100.243,380.664 99,381.5C 97.9614,380.756 97.4614,379.756 97.5,378.5C 99.5116,377.986 101.512,377.82 103.5,378C 102.833,378.667 102.167,379.333 101.5,380C 103,381.167 104.5,382.333 106,383.5C 107.018,381.436 108.351,381.102 110,382.5C 113.653,386.484 117.653,390.151 122,393.5C 123.333,392.833 124.333,391.833 125,390.5C 125.996,392.744 127.496,394.577 129.5,396C 128.289,396.893 128.289,397.726 129.5,398.5C 131.271,397.965 131.604,397.131 130.5,396C 131.5,395.5 132.5,395 133.5,394.5C 139.195,399.004 144.862,402.671 150.5,405.5 Z"/></g>
<g><path style="opacity:1" fill="#b22417" d="M 94.5,375.5 C 95.1667,376.833 96.1667,377.833 97.5,378.5C 97.4614,379.756 97.9614,380.756 99,381.5C 100.243,380.664 101.41,380.997 102.5,382.5C 101.674,383.451 101.508,384.451 102,385.5C 105.175,388.343 108.009,391.51 110.5,395C 111.332,395.688 111.998,395.521 112.5,394.5C 113,393.5 113.5,392.5 114,391.5C 113.43,393.693 113.764,395.693 115,397.5C 116.081,395.233 117.581,395.066 119.5,397C 131.214,409.688 144.881,419.688 160.5,427C 188.508,438.224 217.508,445.558 247.5,449C 290.947,453.745 329.613,442.078 363.5,414C 371.405,405.221 379.738,397.721 388.5,391.5C 389.192,392.025 389.692,392.692 390,393.5C 393.084,391.34 393.25,390.006 390.5,389.5C 394.813,389.549 397.479,387.216 398.5,382.5C 400.194,381.473 401.527,380.139 402.5,378.5C 405.6,378.936 408.6,379.269 411.5,379.5C 408.297,384.565 404.797,389.565 401,394.5C 395.333,400.833 389.667,407.167 384,413.5C 351.961,447.361 312.461,464.027 265.5,463.5C 235.829,462.777 206.829,457.944 178.5,449C 165.391,445.41 153.058,440.077 141.5,433C 121.999,418.665 104.999,401.832 90.5,382.5C 90.1961,381.85 89.8627,381.183 89.5,380.5C 91.8183,379.166 93.485,379.832 94.5,382.5C 95.3081,382.192 95.9747,381.692 96.5,381C 95.3147,379.647 93.9814,378.48 92.5,377.5C 92.8555,376.478 93.5222,375.811 94.5,375.5 Z"/></g>
<g><path style="opacity:1" fill="#e9c1c0" d="M 249.5,390.5 C 253.817,390.083 257.817,390.75 261.5,392.5C 257.295,392.283 253.295,391.617 249.5,390.5 Z"/></g>
<g><path style="opacity:1" fill="#ba3930" d="M 249.5,390.5 C 253.295,391.617 257.295,392.283 261.5,392.5C 274.164,394.166 286.83,395.833 299.5,397.5C 295.859,398.293 292.359,399.626 289,401.5C 288.439,400.978 287.772,400.645 287,400.5C 270.208,402.989 253.375,403.155 236.5,401C 232.104,400.764 228.104,399.598 224.5,397.5C 225.716,395.549 227.382,394.049 229.5,393C 235.991,390.872 242.658,390.039 249.5,390.5 Z"/></g>
<g><path style="opacity:0.02" fill="#000000" d="M 483.5,403.5 C 484.833,404.167 484.833,404.167 483.5,403.5 Z"/></g>
<g><path style="opacity:1" fill="#ae2305" d="M 413.5,475.5 C 394.138,475.861 374.805,475.361 355.5,474C 393.703,453.799 424.203,425.299 447,388.5C 455.007,375.16 460.174,360.827 462.5,345.5C 463.472,344.132 464.472,342.632 465.5,341C 469.376,341.41 469.376,342.243 465.5,343.5C 466.262,343.911 467.262,344.077 468.5,344C 468.384,345.268 468.051,346.602 467.5,348C 469.318,372.746 469.818,397.579 469,422.5C 468.156,426.211 467.156,429.877 466,433.5C 455.142,455.863 437.642,469.863 413.5,475.5 Z"/></g>
<g><path style="opacity:1" fill="#ae2305" d="M 52.5,447.5 C 46.6823,441.414 43.349,434.081 42.5,425.5C 41.4027,417.756 40.736,410.09 40.5,402.5C 41.1604,390.158 41.9938,377.824 43,365.5C 59.3027,394.821 79.8027,420.987 104.5,444C 118.547,457.029 134.547,467.029 152.5,474C 141.526,474.999 130.526,475.499 119.5,475.5C 91.8324,478.186 69.4991,468.853 52.5,447.5 Z"/></g>
<g><path style="opacity:0.004" fill="#000000" d="M 481.5,436.5 C 482.833,437.167 482.833,437.167 481.5,436.5 Z"/></g>
<g><path style="opacity:0.008" fill="#000000" d="M 28.5,438.5 C 29.8333,439.167 29.8333,439.167 28.5,438.5 Z"/></g>
<g><path style="opacity:0.006" fill="#000000" d="M 480.5,439.5 C 481.525,439.897 481.692,440.563 481,441.5C 480.536,440.906 480.369,440.239 480.5,439.5 Z"/></g>
<g><path style="opacity:0.02" fill="#000000" d="M 33.5,447.5 C 32.8333,448.167 32.8333,448.167 33.5,447.5 Z"/></g>
<g><path style="opacity:0.004" fill="#000000" d="M 33.5,450.5 C 32.8333,449.167 32.8333,449.167 33.5,450.5 Z"/></g>
<g><path style="opacity:0.004" fill="#000000" d="M 476.5,450.5 C 477.833,451.167 477.833,451.167 476.5,450.5 Z"/></g>
<g><path style="opacity:0.008" fill="#000000" d="M 474.5,453.5 C 475.833,454.167 475.833,454.167 474.5,453.5 Z"/></g>
<g><path style="opacity:0.012" fill="#000000" d="M 39.5,460.5 C 40.8333,461.167 40.8333,461.167 39.5,460.5 Z"/></g>
<g><path style="opacity:0.011" fill="#000000" d="M 41.5,462.5 C 44.6862,462.974 45.1862,464.307 43,466.5C 41.8118,465.437 41.3118,464.103 41.5,462.5 Z"/></g>
<g><path style="opacity:0.004" fill="#000000" d="M 45.5,469.5 C 46.8333,470.167 46.8333,470.167 45.5,469.5 Z"/></g>
<g><path style="opacity:0.014" fill="#000000" d="M 48.5,469.5 C 48.631,470.239 48.4643,470.906 48,471.5C 47.3083,470.563 47.475,469.897 48.5,469.5 Z"/></g>
<g><path style="opacity:0.004" fill="#000000" d="M 460.5,472.5 C 460.833,472.5 461.167,472.5 461.5,472.5C 461.315,473.17 460.981,473.17 460.5,472.5 Z"/></g>
<g><path style="opacity:0.006" fill="#000000" d="M 456.5,476.5 C 456.5,476.167 456.5,475.833 456.5,475.5C 459.167,475.833 459.167,476.167 456.5,476.5 Z"/></g>
<g><path style="opacity:0.004" fill="#000000" d="M 455.5,476.5 C 455.833,476.5 456.167,476.5 456.5,476.5C 456.315,477.17 455.981,477.17 455.5,476.5 Z"/></g>
<g><path style="opacity:0.008" fill="#000000" d="M 451.5,478.5 C 455.286,478.638 455.286,479.305 451.5,480.5C 451.5,479.833 451.5,479.167 451.5,478.5 Z"/></g>
<g><path style="opacity:0.004" fill="#000000" d="M 58.5,479.5 C 59.8333,480.167 59.8333,480.167 58.5,479.5 Z"/></g>
<g><path style="opacity:0.009" fill="#000000" d="M 60.5,480.5 C 62.0847,481.002 62.5847,482.002 62,483.5C 60.9614,482.756 60.4614,481.756 60.5,480.5 Z"/></g>
<g><path style="opacity:0.004" fill="#000000" d="M 450.5,480.5 C 450.833,480.5 451.167,480.5 451.5,480.5C 451.315,481.17 450.981,481.17 450.5,480.5 Z"/></g>
<g><path style="opacity:0.017" fill="#000000" d="M 66.5,483.5 C 65.8333,483.5 65.5,483.833 65.5,484.5C 64.7611,484.631 64.0944,484.464 63.5,484C 64.8333,483.333 64.8333,482.667 63.5,482C 65.1575,481.275 66.1575,481.775 66.5,483.5 Z"/></g>
<g><path style="opacity:0.02" fill="#000000" d="M 442.5,482.5 C 443.833,483.167 443.833,483.167 442.5,482.5 Z"/></g>
<g><path style="opacity:0.013" fill="#000000" d="M 446.5,483.5 C 445.923,484.773 445.257,484.773 444.5,483.5C 444.97,482.537 445.637,482.537 446.5,483.5 Z"/></g>
<g><path style="opacity:0.043" fill="#000000" d="M 74.5,485.5 C 74.8333,485.5 75.1667,485.5 75.5,485.5C 75.3147,486.17 74.9813,486.17 74.5,485.5 Z"/></g>
<g><path style="opacity:0.012" fill="#000000" d="M 438.5,486.5 C 439.833,487.167 439.833,487.167 438.5,486.5 Z"/></g>
<g><path style="opacity:0.016" fill="#000000" d="M 73.5,487.5 C 74.8333,488.167 74.8333,488.167 73.5,487.5 Z"/></g>
<g><path style="opacity:0.02" fill="#000000" d="M 75.5,487.5 C 76.8333,488.167 76.8333,488.167 75.5,487.5 Z"/></g>
<g><path style="opacity:0.024" fill="#000000" d="M 78.5,488.5 C 77.8333,489.167 77.8333,489.167 78.5,488.5 Z"/></g>
<g><path style="opacity:0.004" fill="#000000" d="M 77.5,489.5 C 76.8333,490.167 76.8333,490.167 77.5,489.5 Z"/></g>
<g><path style="opacity:0.018" fill="#000000" d="M 87.5,491.5 C 90.0009,491.511 90.1676,492.178 88,493.5C 87.5357,492.906 87.369,492.239 87.5,491.5 Z"/></g>
<g><path style="opacity:0.016" fill="#000000" d="M 92.5,492.5 C 91.8333,493.167 91.8333,493.167 92.5,492.5 Z"/></g>
<g><path style="opacity:0.014" fill="#000000" d="M 417.5,492.5 C 418.239,492.369 418.906,492.536 419.5,493C 418.563,493.692 417.897,493.525 417.5,492.5 Z"/></g>
<g><path style="opacity:0.004" fill="#000000" d="M 420.5,492.5 C 421.833,493.167 421.833,493.167 420.5,492.5 Z"/></g>
<g><path style="opacity:0.004" fill="#000000" d="M 106.5,493.5 C 106.833,493.5 107.167,493.5 107.5,493.5C 107.315,494.17 106.981,494.17 106.5,493.5 Z"/></g>
<g><path style="opacity:0.027" fill="#000000" d="M 113.5,493.5 C 113.833,493.5 114.167,493.5 114.5,493.5C 114.315,494.17 113.981,494.17 113.5,493.5 Z"/></g>
<g><path style="opacity:0.047" fill="#000000" d="M 125.5,493.5 C 126.833,494.167 126.833,494.167 125.5,493.5 Z"/></g>
<g><path style="opacity:0.027" fill="#000000" d="M 148.5,493.5 C 148.833,493.5 149.167,493.5 149.5,493.5C 149.315,494.17 148.981,494.17 148.5,493.5 Z"/></g>
<g><path style="opacity:0.039" fill="#000000" d="M 177.5,493.5 C 177.833,493.5 178.167,493.5 178.5,493.5C 178.315,494.17 177.981,494.17 177.5,493.5 Z"/></g>
<g><path style="opacity:0.047" fill="#000000" d="M 184.5,493.5 C 185.167,493.5 185.833,493.5 186.5,493.5C 185.833,494.833 185.167,494.833 184.5,493.5 Z"/></g>
<g><path style="opacity:0.047" fill="#000000" d="M 196.5,493.5 C 195.833,494.167 195.833,494.167 196.5,493.5 Z"/></g>
<g><path style="opacity:0.018" fill="#000000" d="M 202.5,493.5 C 203.167,493.5 203.833,493.5 204.5,493.5C 203.833,494.833 203.167,494.833 202.5,493.5 Z"/></g>
<g><path style="opacity:0.047" fill="#000000" d="M 215.5,493.5 C 214.833,494.167 214.833,494.167 215.5,493.5 Z"/></g>
<g><path style="opacity:0.02" fill="#000000" d="M 237.5,493.5 C 236.833,494.167 236.833,494.167 237.5,493.5 Z"/></g>
<g><path style="opacity:0.039" fill="#000000" d="M 264.5,493.5 C 264.833,493.5 265.167,493.5 265.5,493.5C 265.315,494.17 264.981,494.17 264.5,493.5 Z"/></g>
<g><path style="opacity:0.024" fill="#000000" d="M 268.5,493.5 C 269.167,493.5 269.833,493.5 270.5,493.5C 269.833,494.833 269.167,494.833 268.5,493.5 Z"/></g>
<g><path style="opacity:0.02" fill="#000000" d="M 292.5,493.5 C 291.833,494.167 291.833,494.167 292.5,493.5 Z"/></g>
<g><path style="opacity:0.016" fill="#000000" d="M 312.5,493.5 C 313.833,494.167 313.833,494.167 312.5,493.5 Z"/></g>
<g><path style="opacity:0.043" fill="#000000" d="M 316.5,493.5 C 316.103,494.525 315.437,494.692 314.5,494C 315.094,493.536 315.761,493.369 316.5,493.5 Z"/></g>
<g><path style="opacity:0.027" fill="#000000" d="M 335.5,493.5 C 336.833,494.167 336.833,494.167 335.5,493.5 Z"/></g>
<g><path style="opacity:0.031" fill="#000000" d="M 378.5,493.5 C 379.833,494.167 379.833,494.167 378.5,493.5 Z"/></g>
<g><path style="opacity:0.029" fill="#000000" d="M 385.5,493.5 C 386.239,493.369 386.906,493.536 387.5,494C 386.563,494.692 385.897,494.525 385.5,493.5 Z"/></g>
<g><path style="opacity:0.016" fill="#000000" d="M 405.5,493.5 C 406.833,494.167 406.833,494.167 405.5,493.5 Z"/></g>
</svg>
