<svg version="1.0" xmlns="http://www.w3.org/2000/svg"
 width="300.000000pt" height="129.000000pt" viewBox="0 0 300.000000 129.000000"
 preserveAspectRatio="xMidYMid meet">
<metadata>
Created by potrace 1.10, written by Peter Selinger 2001-2011
</metadata>
<g transform="translate(0.000000,129.000000) scale(0.100000,-0.100000)"
fill="#000000" stroke="none">
<path d="M90 670 l0 -160 40 0 40 0 0 63 0 62 116 0 117 0 1 33 1 32 -117 0
-118 0 0 31 0 30 135 -3 135 -3 0 38 0 37 -175 0 -175 0 0 -160z"/>
<path d="M500 810 c-11 -11 -20 -30 -20 -42 0 -22 3 -23 62 -20 l63 3 0 40 0
39 -42 0 c-30 0 -49 -6 -63 -20z"/>
<path d="M640 788 l0 -43 61 1 62 2 1 41 1 41 -62 0 -63 0 0 -42z"/>
<path d="M800 788 l0 -43 65 0 c65 0 66 0 60 25 -11 43 -34 60 -82 60 l-43 0
0 -42z"/>
<path d="M980 671 l0 -161 40 0 40 0 0 66 c0 56 2 65 16 60 9 -3 54 -6 100 -6
l84 0 0 -60 0 -60 38 0 37 0 -3 62 c-2 35 -8 67 -12 72 -5 5 -2 19 7 33 20 31
12 99 -17 127 -19 19 -34 21 -175 24 l-155 4 0 -161z m275 59 c0 -25 -1 -25
-97 -28 l-98 -3 0 31 0 31 98 -3 c96 -3 97 -3 97 -28z"/>
<path d="M1380 792 c0 -38 0 -38 35 -34 l35 4 0 -126 0 -126 40 0 40 0 0 126
0 125 68 -2 67 -3 3 37 3 37 -145 0 -146 0 0 -38z"/>
<path d="M1710 828 c0 -2 -1 -74 -3 -161 l-2 -157 38 0 37 0 0 160 0 160 -35
0 c-19 0 -35 -1 -35 -2z"/>
<path d="M1840 670 l0 -160 40 0 40 0 0 125 0 125 89 0 c65 0 92 -4 100 -14 8
-10 11 -50 9 -125 l-3 -111 40 0 40 0 -3 127 c-2 70 -8 136 -14 146 -19 35
-70 47 -208 47 l-130 0 0 -160z"/>
<path d="M2250 670 l0 -160 155 0 155 0 0 35 0 35 -121 0 -120 0 3 27 3 28 83
-4 82 -3 0 36 0 36 -85 0 -85 0 0 31 0 31 120 -4 120 -3 0 38 0 37 -155 0
-155 0 0 -160z"/>
<path d="M2600 792 c0 -38 0 -38 35 -34 l35 4 0 -126 0 -126 41 0 40 0 -2 123
-1 122 68 1 69 1 3 37 3 36 -145 0 -146 0 0 -38z"/>
<path d="M475 670 l0 -40 65 0 65 0 0 40 0 40 -65 0 -65 0 0 -40z"/>
<path d="M800 670 l0 -40 65 0 65 0 0 40 0 40 -65 0 -65 0 0 -40z"/>
<path d="M481 563 c17 -45 29 -53 78 -53 l46 0 0 40 0 40 -67 0 -68 0 11 -27z"/>
<path d="M640 550 l0 -40 63 0 62 0 0 40 0 40 -62 0 -63 0 0 -40z"/>
<path d="M800 550 l0 -40 44 0 c36 0 48 5 65 26 36 45 28 54 -44 54 l-65 0 0
-40z"/>
<path d="M2841 576 c-7 -8 -11 -25 -9 -38 2 -18 9 -23 32 -23 36 0 56 27 40
53 -14 22 -48 27 -63 8z m27 -3 c-10 -2 -18 -13 -18 -23 0 -24 33 -21 42 5 6
17 7 16 5 -5 -2 -29 -43 -42 -53 -16 -9 23 3 46 23 45 17 -1 17 -2 1 -6z"/>
</g>
</svg>
