<?xml version="1.0" encoding="UTF-8"?>
<!DOCTYPE svg PUBLIC "-//W3C//DTD SVG 1.1//EN" "http://www.w3.org/Graphics/SVG/1.1/DTD/svg11.dtd">
<svg xmlns="http://www.w3.org/2000/svg" version="1.1" width="300px" height="300px" style="shape-rendering:geometricPrecision; text-rendering:geometricPrecision; image-rendering:optimizeQuality; fill-rule:evenodd; clip-rule:evenodd" xmlns:xlink="http://www.w3.org/1999/xlink">
<g><path style="opacity:0.809" fill="#0024d3" d="M 85.5,118.5 C 91.9696,118.28 98.303,119.114 104.5,121C 113.938,125.62 117.438,133.12 115,143.5C 113.5,150.333 109.333,154.5 102.5,156C 94.5,158 86.5,158 78.5,156C 66.3445,150.206 62.8445,141.04 68,128.5C 69.0458,126.91 70.2125,125.41 71.5,124C 76.0171,121.445 80.6838,119.612 85.5,118.5 Z M 87.5,127.5 C 93.3603,127.252 98.5269,128.919 103,132.5C 105.7,138.267 104.533,143.1 99.5,147C 94.5893,148.492 89.5893,148.826 84.5,148C 75.6617,143.185 74.6617,137.185 81.5,130C 83.6115,129.155 85.6115,128.322 87.5,127.5 Z"/></g>
<g><path style="opacity:0.788" fill="#0023d2" d="M 26.5,119.5 C 39.1711,119.333 51.8377,119.5 64.5,120C 65.4505,123.057 65.7839,126.223 65.5,129.5C 56.4938,129.334 47.4938,129.5 38.5,130C 44.8525,130.487 51.1859,131.153 57.5,132C 61.5,136.333 61.5,140.667 57.5,145C 50.4468,145.572 43.4468,146.405 36.5,147.5C 35.5159,150.428 35.1826,153.428 35.5,156.5C 31.8936,156.789 28.3936,156.456 25,155.5C 24.2231,150.778 24.3897,146.111 25.5,141.5C 26.0253,140.808 26.6919,140.308 27.5,140C 31.1667,139.667 34.8333,139.333 38.5,139C 34.2729,138.256 30.1062,137.422 26,136.5C 23.8502,130.667 24.0169,125.001 26.5,119.5 Z"/></g>
<g><path style="opacity:0.815" fill="#0023d2" d="M 121.5,119.5 C 130.839,119.334 140.173,119.5 149.5,120C 159.345,121.165 163.178,126.665 161,136.5C 160.058,139.601 158.224,141.934 155.5,143.5C 157.757,147.012 160.257,150.346 163,153.5C 163.483,154.448 163.649,155.448 163.5,156.5C 159.486,156.666 155.486,156.499 151.5,156C 148.734,152.478 145.734,149.145 142.5,146C 138.637,144.646 134.637,144.146 130.5,144.5C 130.5,148.5 130.5,152.5 130.5,156.5C 126.833,156.5 123.167,156.5 119.5,156.5C 119.333,144.829 119.5,133.162 120,121.5C 120.717,120.956 121.217,120.289 121.5,119.5 Z M 130.5,129.5 C 136.509,129.334 142.509,129.501 148.5,130C 151.167,131.667 151.167,133.333 148.5,135C 142.509,135.499 136.509,135.666 130.5,135.5C 130.5,133.5 130.5,131.5 130.5,129.5 Z"/></g>
<g><path style="opacity:0.795" fill="#0024d2" d="M 161.5,119.5 C 165.437,119.207 169.27,119.54 173,120.5C 176.999,128.644 181.166,136.644 185.5,144.5C 189.922,136.657 194.088,128.657 198,120.5C 201.73,119.54 205.563,119.207 209.5,119.5C 204.468,132.064 198.468,144.231 191.5,156C 187.245,156.796 183.079,156.629 179,155.5C 172.325,143.818 166.491,131.818 161.5,119.5 Z"/></g>
<g><path style="opacity:0.795" fill="#0023d3" d="M 213.5,119.5 C 216.448,119.223 219.281,119.556 222,120.5C 222.5,132.495 222.667,144.495 222.5,156.5C 218.833,156.5 215.167,156.5 211.5,156.5C 211.333,144.829 211.5,133.162 212,121.5C 212.717,120.956 213.217,120.289 213.5,119.5 Z"/></g>
<g><path style="opacity:0.816" fill="#0023d3" d="M 243.5,119.5 C 247.437,119.207 251.27,119.54 255,120.5C 261.167,132.167 267.333,143.833 273.5,155.5C 270.216,156.657 266.882,156.824 263.5,156C 260.967,154.967 259.301,153.133 258.5,150.5C 252.193,149.336 245.859,149.169 239.5,150C 238.782,151.987 237.782,153.821 236.5,155.5C 232.555,156.491 228.555,156.824 224.5,156.5C 230.034,143.766 236.367,131.433 243.5,119.5 Z M 248.5,131.5 C 250.392,134.276 252.059,137.276 253.5,140.5C 250.216,141.657 246.882,141.824 243.5,141C 245.307,137.885 246.973,134.719 248.5,131.5 Z"/></g>
<g><path style="opacity:0.708" fill="#0024d3" d="M 148.5,166.5 C 151.5,166.5 154.5,166.5 157.5,166.5C 157.5,168.5 157.5,170.5 157.5,172.5C 156.178,172.67 155.011,172.337 154,171.5C 152.795,172.071 151.628,172.738 150.5,173.5C 152.743,174.474 155.076,174.808 157.5,174.5C 157.34,176.199 157.506,177.866 158,179.5C 158.785,177.714 159.951,176.214 161.5,175C 166.155,174.501 170.821,174.334 175.5,174.5C 175.5,180.167 175.5,185.833 175.5,191.5C 170.821,191.666 166.155,191.499 161.5,191C 157.952,188.409 156.618,184.909 157.5,180.5C 155.167,180.5 152.833,180.5 150.5,180.5C 150.5,184.167 150.5,187.833 150.5,191.5C 148.5,191.5 146.5,191.5 144.5,191.5C 144.334,184.159 144.5,176.826 145,169.5C 146.145,168.364 147.312,167.364 148.5,166.5 Z M 165.5,179.5 C 170.026,180.369 171.026,182.536 168.5,186C 163.382,185.824 162.382,183.658 165.5,179.5 Z"/></g>
<g><path style="opacity:0.501" fill="#0023d3" d="M 246.5,167.5 C 248.5,167.5 250.5,167.5 252.5,167.5C 252.5,169.5 252.5,171.5 252.5,173.5C 250.5,173.5 248.5,173.5 246.5,173.5C 246.5,171.5 246.5,169.5 246.5,167.5 Z"/></g>
<g><path style="opacity:0.512" fill="#fa0057" d="M 137.5,174.5 C 139.5,174.5 141.5,174.5 143.5,174.5C 143.5,176.5 143.5,178.5 143.5,180.5C 141.5,180.5 139.5,180.5 137.5,180.5C 137.5,178.5 137.5,176.5 137.5,174.5 Z"/></g>
<g><path style="opacity:0.683" fill="#0023d3" d="M 178.5,174.5 C 180.5,174.5 182.5,174.5 184.5,174.5C 184.335,177.85 184.502,181.183 185,184.5C 186.079,186.394 187.413,186.727 189,185.5C 189.499,181.848 189.665,178.182 189.5,174.5C 191.5,174.5 193.5,174.5 195.5,174.5C 195.666,178.846 195.499,183.179 195,187.5C 193.68,190.901 191.18,192.235 187.5,191.5C 184.747,191.647 182.247,190.98 180,189.5C 178.675,184.599 178.175,179.599 178.5,174.5 Z"/></g>
<g><path style="opacity:0.662" fill="#0024d3" d="M 201.5,174.5 C 204.167,174.5 206.833,174.5 209.5,174.5C 209.5,176.5 209.5,178.5 209.5,180.5C 207.833,180.5 206.167,180.5 204.5,180.5C 204.5,184.167 204.5,187.833 204.5,191.5C 202.5,191.5 200.5,191.5 198.5,191.5C 198.334,186.821 198.501,182.155 199,177.5C 200.045,176.627 200.878,175.627 201.5,174.5 Z"/></g>
<g><path style="opacity:0.68" fill="#0023d3" d="M 214.5,174.5 C 222.475,172.497 226.809,175.497 227.5,183.5C 224.432,184.022 221.432,184.855 218.5,186C 220.856,186.155 223.189,186.155 225.5,186C 226.833,187.667 226.833,189.333 225.5,191C 214.401,193.895 209.568,189.728 211,178.5C 212.376,177.295 213.542,175.962 214.5,174.5 Z"/></g>
<g><path style="opacity:0.653" fill="#0023d2" d="M 233.5,174.5 C 236.518,174.335 239.518,174.502 242.5,175C 244.715,176.391 244.715,178.057 242.5,180C 240.888,180.72 239.388,180.554 238,179.5C 234.525,181.216 234.025,183.383 236.5,186C 238.5,186 240.5,186 242.5,186C 244.527,187.396 244.86,189.062 243.5,191C 240.167,191.667 236.833,191.667 233.5,191C 229.489,188.649 227.989,185.149 229,180.5C 229.599,177.746 231.099,175.746 233.5,174.5 Z"/></g>
<g><path style="opacity:0.664" fill="#0023d3" d="M 246.5,174.5 C 248.5,174.5 250.5,174.5 252.5,174.5C 252.5,180.167 252.5,185.833 252.5,191.5C 250.5,191.5 248.5,191.5 246.5,191.5C 246.5,185.833 246.5,180.167 246.5,174.5 Z"/></g>
<g><path style="opacity:0.709" fill="#0024d2" d="M 258.5,174.5 C 263.167,174.5 267.833,174.5 272.5,174.5C 272.5,180.167 272.5,185.833 272.5,191.5C 267.821,191.666 263.155,191.499 258.5,191C 257.584,190.626 256.75,190.126 256,189.5C 254.496,185.961 254.163,182.295 255,178.5C 255.69,176.65 256.856,175.316 258.5,174.5 Z M 262.5,179.5 C 266.184,180.372 267.184,182.539 265.5,186C 260.382,185.824 259.382,183.658 262.5,179.5 Z"/></g>
</svg>
