<?xml version="1.0" encoding="UTF-8"?>
<!DOCTYPE svg PUBLIC "-//W3C//DTD SVG 1.1//EN" "http://www.w3.org/Graphics/SVG/1.1/DTD/svg11.dtd">
<svg xmlns="http://www.w3.org/2000/svg" version="1.1" width="250px" height="138px" style="shape-rendering:geometricPrecision; text-rendering:geometricPrecision; image-rendering:optimizeQuality; fill-rule:evenodd; clip-rule:evenodd" xmlns:xlink="http://www.w3.org/1999/xlink">
<g><path style="opacity:0.835" fill="#000000" d="M 60.5,17.5 C 67.8409,17.3337 75.1742,17.5003 82.5,18C 85.3183,20.1029 85.8183,22.6029 84,25.5C 73.7334,25.9883 63.5667,27.4883 53.5,30C 29.1296,39.4427 22.6296,55.9427 34,79.5C 38.6614,84.6675 44.3281,88.3341 51,90.5C 61.9748,85.1999 67.9748,76.5332 69,64.5C 67.3523,63.283 65.519,62.4497 63.5,62C 56.542,60.936 49.542,60.2694 42.5,60C 56.4708,52.2675 71.1375,50.2675 86.5,54C 88.9705,56.0663 90.3038,58.733 90.5,62C 89.733,65.6342 88.5664,69.1342 87,72.5C 80.7947,80.3727 73.628,87.2061 65.5,93C 71.0555,94.2392 76.7222,94.9059 82.5,95C 83.6023,97.4009 83.769,99.9009 83,102.5C 81.9326,103.191 80.7659,103.691 79.5,104C 75.8333,104.167 72.1667,104.333 68.5,104.5C 60.8287,103.943 53.162,103.777 45.5,104C 33.0031,110.605 20.0031,115.605 6.5,119C 16.3714,112.899 26.3714,107.066 36.5,101.5C 23.1161,98.576 12.6161,91.576 5,80.5C -4.92727,55.9415 1.90607,37.7748 25.5,26C 36.9662,21.8119 48.6328,18.9786 60.5,17.5 Z"/></g>
<g><path style="opacity:0.939" fill="#000000" d="M 115.5,17.5 C 118.85,17.335 122.183,17.5017 125.5,18C 126.122,19.5691 126.456,21.2358 126.5,23C 123.171,45.7998 120.171,68.6331 117.5,91.5C 127.19,91.1682 136.856,91.5016 146.5,92.5C 147.422,96.0763 147.089,99.5763 145.5,103C 130.925,103.823 116.425,103.656 102,102.5C 105.192,75.1502 108.859,47.8169 113,20.5C 113.698,19.3094 114.531,18.3094 115.5,17.5 Z"/></g>
<g><path style="opacity:0.93" fill="#000000" d="M 170.5,17.5 C 180.506,17.3335 190.506,17.5002 200.5,18C 212.19,21.8442 218.19,30.0108 218.5,42.5C 217.521,55.6384 211.188,65.1384 199.5,71C 191.966,72.8962 184.299,73.8962 176.5,74C 175.107,75.1711 174.273,76.6711 174,78.5C 173.221,86.6241 171.888,94.6241 170,102.5C 165.934,103.464 161.767,103.797 157.5,103.5C 160.577,76.1269 164.077,48.7936 168,21.5C 168.662,20.0161 169.496,18.6828 170.5,17.5 Z M 182.5,30.5 C 201.8,28.7787 207.633,36.7787 200,54.5C 193.411,60.2079 185.911,61.8746 177.5,59.5C 177.816,51.1218 178.649,42.7885 180,34.5C 180.48,32.867 181.313,31.5336 182.5,30.5 Z"/></g>
<g><path style="opacity:0.93" fill="#000000" d="M 236.5,17.5 C 240.182,17.3347 243.848,17.5014 247.5,18C 248.116,19.4002 248.449,20.9002 248.5,22.5C 244.806,49.1895 240.973,75.8562 237,102.5C 232.921,103.629 228.755,103.796 224.5,103C 227.323,75.5582 230.823,48.0582 235,20.5C 235.513,19.4734 236.013,18.4734 236.5,17.5 Z"/></g>
</svg>
