<?xml version="1.0" encoding="UTF-8"?>
<!DOCTYPE svg PUBLIC "-//W3C//DTD SVG 1.1//EN" "http://www.w3.org/Graphics/SVG/1.1/DTD/svg11.dtd">
<svg xmlns="http://www.w3.org/2000/svg" version="1.1" width="224px" height="224px" style="shape-rendering:geometricPrecision; text-rendering:geometricPrecision; image-rendering:optimizeQuality; fill-rule:evenodd; clip-rule:evenodd" xmlns:xlink="http://www.w3.org/1999/xlink">
<g><path style="opacity:1" fill="#d92a1b" d="M -0.5,-0.5 C 74.1667,-0.5 148.833,-0.5 223.5,-0.5C 223.5,74.1667 223.5,148.833 223.5,223.5C 148.833,223.5 74.1667,223.5 -0.5,223.5C -0.5,148.833 -0.5,74.1667 -0.5,-0.5 Z"/></g>
<g><path style="opacity:1" fill="#f9ece8" d="M 202.5,91.5 C 202.5,87.5 202.5,83.5 202.5,79.5C 198.5,79.5 194.5,79.5 190.5,79.5C 190.5,76.8333 190.5,74.1667 190.5,71.5C 196.842,71.3338 203.175,71.5005 209.5,72C 210.478,78.4102 210.811,84.9102 210.5,91.5C 207.833,91.5 205.167,91.5 202.5,91.5 Z"/></g>
<g><path style="opacity:1" fill="#e1b2a9" d="M 21.5,80.5 C 17.8333,80.5 14.1667,80.5 10.5,80.5C 10.5,84.1667 10.5,87.8333 10.5,91.5C 9.51658,87.7016 9.18325,83.7016 9.5,79.5C 13.7016,79.1832 17.7016,79.5166 21.5,80.5 Z"/></g>
<g><path style="opacity:1" fill="#fdfcfa" d="M 21.5,80.5 C 21.5,84.1667 21.5,87.8333 21.5,91.5C 17.8333,91.5 14.1667,91.5 10.5,91.5C 10.5,87.8333 10.5,84.1667 10.5,80.5C 14.1667,80.5 17.8333,80.5 21.5,80.5 Z"/></g>
<g><path style="opacity:1" fill="#faf0ed" d="M 190.5,83.5 C 193.167,83.5 195.833,83.5 198.5,83.5C 198.5,86.1667 198.5,88.8333 198.5,91.5C 195.833,91.5 193.167,91.5 190.5,91.5C 190.5,88.8333 190.5,86.1667 190.5,83.5 Z"/></g>
<g><path style="opacity:1" fill="#d68a7f" d="M 190.5,79.5 C 194.5,79.5 198.5,79.5 202.5,79.5C 202.5,83.5 202.5,87.5 202.5,91.5C 201.518,88.0381 201.185,84.3714 201.5,80.5C 197.629,80.815 193.962,80.4816 190.5,79.5 Z"/></g>
<g><path style="opacity:1" fill="#fcf6f4" d="M 162.5,133.5 C 162.5,125.5 162.5,117.5 162.5,109.5C 160.167,109.5 157.833,109.5 155.5,109.5C 155.5,107.167 155.5,104.833 155.5,102.5C 158.059,102.802 160.393,102.468 162.5,101.5C 162.232,98.8806 162.565,96.3806 163.5,94C 167.145,93.0051 170.812,92.1717 174.5,91.5C 174.5,94.8333 174.5,98.1667 174.5,101.5C 177.5,101.5 180.5,101.5 183.5,101.5C 183.5,104.167 183.5,106.833 183.5,109.5C 180.5,109.5 177.5,109.5 174.5,109.5C 174.334,116.841 174.5,124.174 175,131.5C 177.456,133.321 180.289,133.988 183.5,133.5C 183.5,136.167 183.5,138.833 183.5,141.5C 178.86,142.397 174.194,142.564 169.5,142C 165.134,140.803 162.8,137.97 162.5,133.5 Z"/></g>
<g><path style="opacity:1" fill="#fbf5f3" d="M 81.5,100.5 C 88.549,99.7179 95.2156,100.885 101.5,104C 102.787,105.41 103.954,106.91 105,108.5C 105.234,119.533 105.734,130.533 106.5,141.5C 102.833,141.5 99.1667,141.5 95.5,141.5C 95.6567,140.127 95.49,138.793 95,137.5C 90.0335,142.089 84.2002,143.589 77.5,142C 70.8362,137.337 69.0029,131.17 72,123.5C 78.0373,116.942 85.5373,114.276 94.5,115.5C 94.8883,109.721 92.2217,107.221 86.5,108C 85.1279,109.242 84.1279,110.742 83.5,112.5C 79.5546,113.491 75.5546,113.824 71.5,113.5C 71.8257,110.689 72.6591,108.022 74,105.5C 76.4256,103.548 78.9256,101.881 81.5,100.5 Z"/></g>
<g><path style="opacity:1" fill="#fbf5f3" d="M 125.5,112.5 C 123.528,121.44 122.861,130.773 123.5,140.5C 120.167,140.5 116.833,140.5 113.5,140.5C 113.5,127.5 113.5,114.5 113.5,101.5C 116.833,101.5 120.167,101.5 123.5,101.5C 123.34,103.199 123.506,104.866 124,106.5C 131.676,98.9334 139.676,98.6 148,105.5C 148.862,107.087 149.529,108.754 150,110.5C 150.5,120.828 150.666,131.161 150.5,141.5C 146.167,141.5 141.833,141.5 137.5,141.5C 137.666,131.494 137.5,121.494 137,111.5C 132.783,108.625 128.95,108.959 125.5,112.5 Z"/></g>
<g><path style="opacity:1" fill="#fcf6f4" d="M 9.5,101.5 C 13.5,101.5 17.5,101.5 21.5,101.5C 21.5,114.833 21.5,128.167 21.5,141.5C 17.5,141.5 13.5,141.5 9.5,141.5C 9.5,128.167 9.5,114.833 9.5,101.5 Z"/></g>
<g><path style="opacity:1" fill="#fcf7f5" d="M 27.5,101.5 C 31.7675,101.203 35.9341,101.536 40,102.5C 42.8333,110.5 45.6667,118.5 48.5,126.5C 51.6023,118.622 54.4357,110.622 57,102.5C 60.73,101.54 64.5633,101.207 68.5,101.5C 63.7764,114.672 59.4431,128.005 55.5,141.5C 50.7863,141.827 46.1196,141.493 41.5,140.5C 36.4319,127.628 31.7652,114.628 27.5,101.5 Z"/></g>
<g><path style="opacity:1" fill="#fcf7f6" d="M 190.5,101.5 C 194.5,101.5 198.5,101.5 202.5,101.5C 202.5,114.833 202.5,128.167 202.5,141.5C 198.5,141.5 194.5,141.5 190.5,141.5C 190.5,128.167 190.5,114.833 190.5,101.5 Z"/></g>
<g><path style="opacity:1" fill="#e3afa7" d="M 162.5,101.5 C 160.393,102.468 158.059,102.802 155.5,102.5C 155.5,104.833 155.5,107.167 155.5,109.5C 154.527,107.052 154.194,104.385 154.5,101.5C 157.167,101.5 159.833,101.5 162.5,101.5 Z"/></g>
<g><path style="opacity:1" fill="#c34238" d="M 155.5,109.5 C 157.833,109.5 160.167,109.5 162.5,109.5C 162.5,117.5 162.5,125.5 162.5,133.5C 161.508,126.018 161.175,118.352 161.5,110.5C 159.265,110.795 157.265,110.461 155.5,109.5 Z"/></g>
<g><path style="opacity:1" fill="#f9e1d8" d="M 113.5,101.5 C 113.5,114.5 113.5,127.5 113.5,140.5C 116.833,140.5 120.167,140.5 123.5,140.5C 122.861,130.773 123.528,121.44 125.5,112.5C 124.527,122.084 124.194,131.75 124.5,141.5C 120.5,141.5 116.5,141.5 112.5,141.5C 112.171,127.99 112.504,114.656 113.5,101.5 Z"/></g>
<g><path style="opacity:1" fill="#d52d1f" d="M 88.5,122.5 C 90.5,122.5 92.5,122.5 94.5,122.5C 94.6488,125.607 94.1488,128.607 93,131.5C 85.1847,136.875 81.8513,134.875 83,125.5C 84.8761,124.391 86.7095,123.391 88.5,122.5 Z"/></g>
</svg>
