<?xml version="1.0" encoding="UTF-8"?>
<!DOCTYPE svg PUBLIC "-//W3C//DTD SVG 1.1//EN" "http://www.w3.org/Graphics/SVG/1.1/DTD/svg11.dtd">
<svg xmlns="http://www.w3.org/2000/svg" version="1.1" width="322px" height="132px" style="shape-rendering:geometricPrecision; text-rendering:geometricPrecision; image-rendering:optimizeQuality; fill-rule:evenodd; clip-rule:evenodd" xmlns:xlink="http://www.w3.org/1999/xlink">
<g><path style="opacity:0.918" fill="#070708" d="M 54.5,2.5 C 87.4722,-0.603289 110.972,12.73 125,42.5C 134.733,74.8333 125.9,100.667 98.5,120C 79.769,129.731 60.4356,131.064 40.5,124C 7.22723,106.21 -4.27277,79.0429 6,42.5C 15.4785,20.838 31.6451,7.5047 54.5,2.5 Z"/></g>
<g><path style="opacity:1" fill="#f4f5f8" d="M 82.5,11.5 C 81.925,13.4113 80.925,15.078 79.5,16.5C 78.5,16.5 77.5,16.5 76.5,16.5C 49.4139,12.13 29.9139,22.4633 18,47.5C 14.842,55.4356 14.0086,63.4356 15.5,71.5C 15.5751,74.2062 15.9084,76.8728 16.5,79.5C 15.078,80.925 13.4113,81.925 11.5,82.5C 4.45791,46.0786 18.4579,21.9119 53.5,10C 63.27,9.04997 72.9366,9.54997 82.5,11.5 Z"/></g>
<g><path style="opacity:1" fill="#e4e8f6" d="M 82.5,11.5 C 95.3988,15.4004 105.399,23.067 112.5,34.5C 111.5,36.1667 110.167,37.5 108.5,38.5C 106.833,36.5 105.167,34.5 103.5,32.5C 100.789,28.7881 97.4558,25.7881 93.5,23.5C 89.1465,20.6566 84.4799,18.3232 79.5,16.5C 80.925,15.078 81.925,13.4113 82.5,11.5 Z"/></g>
<g><path style="opacity:1" fill="#dde4f9" d="M 76.5,16.5 C 74.7041,17.7927 73.0375,19.2927 71.5,21C 68.3054,21.1805 65.3054,21.6805 62.5,22.5C 50.5026,24.1628 42.836,30.8294 39.5,42.5C 31.5351,49.9642 23.7017,57.6309 16,65.5C 15.5045,67.4727 15.3379,69.4727 15.5,71.5C 14.0086,63.4356 14.842,55.4356 18,47.5C 29.9139,22.4633 49.4139,12.13 76.5,16.5 Z"/></g>
<g><path style="opacity:1" fill="#b6c5f0" d="M 76.5,16.5 C 77.5,16.5 78.5,16.5 79.5,16.5C 84.4799,18.3232 89.1465,20.6566 93.5,23.5C 92.448,23.3505 91.448,23.5172 90.5,24C 88.6298,26.0396 86.6298,27.8729 84.5,29.5C 78.2408,23.9698 70.9074,21.6365 62.5,22.5C 65.3054,21.6805 68.3054,21.1805 71.5,21C 73.0375,19.2927 74.7041,17.7927 76.5,16.5 Z"/></g>
<g><path style="opacity:1" fill="#090a0c" d="M 62.5,22.5 C 70.9074,21.6365 78.2408,23.9698 84.5,29.5C 87.8854,33.6041 90.2187,38.2707 91.5,43.5C 91.5,48.1667 91.5,52.8333 91.5,57.5C 88.1667,57.5 84.8333,57.5 81.5,57.5C 81.6659,52.4889 81.4993,47.4889 81,42.5C 80.2082,39.8936 78.7082,37.8936 76.5,36.5C 69.973,30.7039 62.973,30.2039 55.5,35C 52.8941,36.9384 51.0608,39.4384 50,42.5C 49.5007,47.4889 49.3341,52.4889 49.5,57.5C 46.1667,57.5 42.8333,57.5 39.5,57.5C 39.5,52.5 39.5,47.5 39.5,42.5C 42.836,30.8294 50.5026,24.1628 62.5,22.5 Z"/></g>
<g><path style="opacity:1" fill="#9eb3ef" d="M 93.5,23.5 C 97.4558,25.7881 100.789,28.7881 103.5,32.5C 99.5,36.1667 95.5,39.8333 91.5,43.5C 90.2187,38.2707 87.8854,33.6041 84.5,29.5C 86.6298,27.8729 88.6298,26.0396 90.5,24C 91.448,23.5172 92.448,23.3505 93.5,23.5 Z"/></g>
<g><path style="opacity:1" fill="#b6c5f1" d="M 76.5,36.5 C 69.8909,44.4461 62.8909,52.1128 55.5,59.5C 51.5,59.5 47.5,59.5 43.5,59.5C 42.1667,58.8333 40.8333,58.1667 39.5,57.5C 42.8333,57.5 46.1667,57.5 49.5,57.5C 49.3341,52.4889 49.5007,47.4889 50,42.5C 51.0608,39.4384 52.8941,36.9384 55.5,35C 62.973,30.2039 69.973,30.7039 76.5,36.5 Z"/></g>
<g><path style="opacity:1" fill="#89a1eb" d="M 103.5,32.5 C 105.167,34.5 106.833,36.5 108.5,38.5C 109.167,39.8333 109.833,41.1667 110.5,42.5C 103.89,47.4412 97.89,53.1078 92.5,59.5C 88.5,59.5 84.5,59.5 80.5,59.5C 80.8333,58.8333 81.1667,58.1667 81.5,57.5C 84.8333,57.5 88.1667,57.5 91.5,57.5C 91.5,52.8333 91.5,48.1667 91.5,43.5C 95.5,39.8333 99.5,36.1667 103.5,32.5 Z"/></g>
<g><path style="opacity:1" fill="#a3b7f0" d="M 76.5,36.5 C 78.7082,37.8936 80.2082,39.8936 81,42.5C 81.4993,47.4889 81.6659,52.4889 81.5,57.5C 81.1667,58.1667 80.8333,58.8333 80.5,59.5C 72.1667,59.5 63.8333,59.5 55.5,59.5C 62.8909,52.1128 69.8909,44.4461 76.5,36.5 Z"/></g>
<g><path style="opacity:1" fill="#7896ea" d="M 110.5,42.5 C 112.623,45.8674 113.956,49.534 114.5,53.5C 108.5,59.1667 102.5,64.8333 96.5,70.5C 96.5,69.8333 96.1667,69.5 95.5,69.5C 89.8333,69.5 84.1667,69.5 78.5,69.5C 78.5,68.8333 78.5,68.1667 78.5,67.5C 84.5,67.5 90.5,67.5 96.5,67.5C 96.8064,64.6146 96.4731,61.9479 95.5,59.5C 94.5,59.5 93.5,59.5 92.5,59.5C 97.89,53.1078 103.89,47.4412 110.5,42.5 Z"/></g>
<g><path style="opacity:0.817" fill="#000000" d="M 149.5,49.5 C 151.167,49.5 152.833,49.5 154.5,49.5C 154.335,53.1817 154.501,56.8484 155,60.5C 159.133,57.3689 162.966,53.8689 166.5,50C 168.833,49.3333 171.167,49.3333 173.5,50C 168.801,55.0336 163.801,59.7002 158.5,64C 163.865,69.6995 169.531,75.0328 175.5,80C 172.833,80.6667 170.167,80.6667 167.5,80C 163.333,75.8333 159.167,71.6667 155,67.5C 154.501,71.8206 154.334,76.1539 154.5,80.5C 152.833,80.5 151.167,80.5 149.5,80.5C 149.5,70.1667 149.5,59.8333 149.5,49.5 Z"/></g>
<g><path style="opacity:0.827" fill="#000000" d="M 227.5,49.5 C 232.844,49.334 238.177,49.5006 243.5,50C 247.939,52.9761 249.439,57.1428 248,62.5C 247.215,64.286 246.049,65.786 244.5,67C 240.605,68.2662 236.605,68.7662 232.5,68.5C 232.5,72.5 232.5,76.5 232.5,80.5C 230.833,80.5 229.167,80.5 227.5,80.5C 227.5,70.1667 227.5,59.8333 227.5,49.5 Z M 232.5,53.5 C 235.93,53.1065 239.096,53.7732 242,55.5C 243.065,62.5948 239.899,65.5948 232.5,64.5C 232.5,60.8333 232.5,57.1667 232.5,53.5 Z"/></g>
<g><path style="opacity:1" fill="#c5d1f4" d="M 39.5,42.5 C 39.5,47.5 39.5,52.5 39.5,57.5C 40.8333,58.1667 42.1667,58.8333 43.5,59.5C 40.8333,59.5 38.1667,59.5 35.5,59.5C 34.5269,61.9479 34.1936,64.6146 34.5,67.5C 29.8698,72.6313 25.0365,77.6313 20,82.5C 19.5172,83.448 19.3505,84.448 19.5,85.5C 18.5139,83.5739 17.5139,81.5739 16.5,79.5C 15.9084,76.8728 15.5751,74.2062 15.5,71.5C 15.3379,69.4727 15.5045,67.4727 16,65.5C 23.7017,57.6309 31.5351,49.9642 39.5,42.5 Z"/></g>
<g><path style="opacity:0.787" fill="#000000" d="M 181.5,56.5 C 191.168,55.5032 196.168,59.8365 196.5,69.5C 190.5,69.5 184.5,69.5 178.5,69.5C 178.808,74.4745 181.474,77.1411 186.5,77.5C 189.479,76.6716 192.479,76.0049 195.5,75.5C 195.714,77.1439 195.38,78.6439 194.5,80C 177.81,84.3074 171.31,78.1407 175,61.5C 176.805,59.1743 178.972,57.5077 181.5,56.5 Z M 183.5,60.5 C 187.4,60.3399 190.067,62.0066 191.5,65.5C 187.167,66.8333 182.833,66.8333 178.5,65.5C 179.882,63.4514 181.548,61.7847 183.5,60.5 Z"/></g>
<g><path style="opacity:0.787" fill="#000000" d="M 207.5,56.5 C 217.168,55.5032 222.168,59.8365 222.5,69.5C 216.5,69.5 210.5,69.5 204.5,69.5C 204.808,74.4745 207.474,77.1411 212.5,77.5C 215.479,76.6716 218.479,76.0049 221.5,75.5C 221.714,77.1439 221.38,78.6439 220.5,80C 203.81,84.3074 197.31,78.1407 201,61.5C 202.805,59.1743 204.972,57.5077 207.5,56.5 Z M 209.5,60.5 C 213.4,60.3399 216.067,62.0066 217.5,65.5C 213.167,66.8333 208.833,66.8333 204.5,65.5C 205.882,63.4514 207.548,61.7847 209.5,60.5 Z"/></g>
<g><path style="opacity:0.763" fill="#000000" d="M 255.5,56.5 C 260.715,55.7024 265.215,57.0358 269,60.5C 270.377,67.0764 270.877,73.7431 270.5,80.5C 268.409,80.6816 266.409,80.3482 264.5,79.5C 259.71,82.4084 255.21,82.075 251,78.5C 248.731,74.2865 249.231,70.4531 252.5,67C 256.759,65.958 261.093,65.1246 265.5,64.5C 261.871,59.9774 257.537,59.3107 252.5,62.5C 251.548,60.9547 251.215,59.288 251.5,57.5C 253.099,57.7678 254.432,57.4345 255.5,56.5 Z M 256.5,69.5 C 259.5,69.5 262.5,69.5 265.5,69.5C 264.554,76.384 261.054,78.384 255,75.5C 254.252,73.1599 254.752,71.1599 256.5,69.5 Z"/></g>
<g><path style="opacity:0.73" fill="#000000" d="M 280.5,56.5 C 284.881,56.3718 289.215,56.7051 293.5,57.5C 293.785,59.288 293.452,60.9547 292.5,62.5C 288.878,60.2691 285.212,60.1024 281.5,62C 280.075,63.7141 280.408,65.0475 282.5,66C 286.285,66.3728 289.785,67.5395 293,69.5C 295.813,75.0386 294.313,78.8719 288.5,81C 284.141,81.5343 279.808,81.3676 275.5,80.5C 275.5,78.8333 275.5,77.1667 275.5,75.5C 278.344,76.0579 281.178,76.7245 284,77.5C 286.37,77.3998 288.203,76.3998 289.5,74.5C 289.023,73.5224 288.357,72.6891 287.5,72C 283.491,71.2523 279.824,69.7523 276.5,67.5C 274.38,62.4947 275.713,58.828 280.5,56.5 Z"/></g>
<g><path style="opacity:0.73" fill="#000000" d="M 302.5,56.5 C 306.881,56.3718 311.215,56.7051 315.5,57.5C 315.785,59.288 315.452,60.9547 314.5,62.5C 310.878,60.2691 307.212,60.1024 303.5,62C 302.075,63.7141 302.408,65.0475 304.5,66C 308.285,66.3728 311.785,67.5395 315,69.5C 317.813,75.0386 316.313,78.8719 310.5,81C 306.141,81.5343 301.808,81.3676 297.5,80.5C 297.5,78.8333 297.5,77.1667 297.5,75.5C 300.344,76.0579 303.178,76.7245 306,77.5C 308.37,77.3998 310.203,76.3998 311.5,74.5C 311.023,73.5224 310.357,72.6891 309.5,72C 305.491,71.2523 301.824,69.7523 298.5,67.5C 296.38,62.4947 297.713,58.828 302.5,56.5 Z"/></g>
<g><path style="opacity:1" fill="#6787e2" d="M 114.5,53.5 C 115.414,56.728 115.747,60.0613 115.5,63.5C 109.167,69.5 102.833,75.5 96.5,81.5C 88.2312,79.5302 79.5645,78.8636 70.5,79.5C 76.8333,78.8333 83.1667,78.1667 89.5,77.5C 91.8333,77.5 94.1667,77.5 96.5,77.5C 96.5,75.1667 96.5,72.8333 96.5,70.5C 102.5,64.8333 108.5,59.1667 114.5,53.5 Z"/></g>
<g><path style="opacity:1" fill="#282f43" d="M 35.5,59.5 C 35.5,61.8333 35.5,64.1667 35.5,66.5C 55.5,66.5 75.5,66.5 95.5,66.5C 95.5,64.1667 95.5,61.8333 95.5,59.5C 96.4731,61.9479 96.8064,64.6146 96.5,67.5C 90.5,67.5 84.5,67.5 78.5,67.5C 67.1667,67.5 55.8333,67.5 44.5,67.5C 41.1667,67.5 37.8333,67.5 34.5,67.5C 34.1936,64.6146 34.5269,61.9479 35.5,59.5 Z"/></g>
<g><path style="opacity:1" fill="#010203" d="M 35.5,59.5 C 38.1667,59.5 40.8333,59.5 43.5,59.5C 47.5,59.5 51.5,59.5 55.5,59.5C 63.8333,59.5 72.1667,59.5 80.5,59.5C 84.5,59.5 88.5,59.5 92.5,59.5C 93.5,59.5 94.5,59.5 95.5,59.5C 95.5,61.8333 95.5,64.1667 95.5,66.5C 75.5,66.5 55.5,66.5 35.5,66.5C 35.5,64.1667 35.5,61.8333 35.5,59.5 Z"/></g>
<g><path style="opacity:1" fill="#93a9eb" d="M 44.5,67.5 C 55.8333,67.5 67.1667,67.5 78.5,67.5C 78.5,68.1667 78.5,68.8333 78.5,69.5C 76.1667,69.5 73.8333,69.5 71.5,69.5C 70.5489,70.9187 70.2155,72.5853 70.5,74.5C 67.5,77.1667 64.5,79.8333 61.5,82.5C 61.5,81.5 61.5,80.5 61.5,79.5C 52.5,79.5 43.5,79.5 34.5,79.5C 38.5,78.8333 42.5,78.1667 46.5,77.5C 51.6946,77.8205 56.6946,77.4872 61.5,76.5C 61.5,74.1667 61.5,71.8333 61.5,69.5C 55.5,69.5 49.5,69.5 43.5,69.5C 43.8333,68.8333 44.1667,68.1667 44.5,67.5 Z"/></g>
<g><path style="opacity:1" fill="#5e81e7" d="M 115.5,63.5 C 115.818,68.0323 115.485,72.3656 114.5,76.5C 114.631,75.7611 114.464,75.0944 114,74.5C 108.298,80.3696 102.465,86.0362 96.5,91.5C 96.5,90.8333 96.5,90.1667 96.5,89.5C 91.0149,88.6728 85.3482,88.1728 79.5,88C 85.3482,87.8272 91.0149,87.3272 96.5,86.5C 96.5,84.8333 96.5,83.1667 96.5,81.5C 102.833,75.5 109.167,69.5 115.5,63.5 Z"/></g>
<g><path style="opacity:1" fill="#020203" d="M 35.5,69.5 C 38.1667,69.5 40.8333,69.5 43.5,69.5C 49.5,69.5 55.5,69.5 61.5,69.5C 61.5,71.8333 61.5,74.1667 61.5,76.5C 52.8333,76.5 44.1667,76.5 35.5,76.5C 35.5,74.1667 35.5,71.8333 35.5,69.5 Z"/></g>
<g><path style="opacity:1" fill="#b2c3f3" d="M 34.5,67.5 C 37.8333,67.5 41.1667,67.5 44.5,67.5C 44.1667,68.1667 43.8333,68.8333 43.5,69.5C 40.8333,69.5 38.1667,69.5 35.5,69.5C 34.5269,71.9479 34.1936,74.6146 34.5,77.5C 38.5,77.5 42.5,77.5 46.5,77.5C 42.5,78.1667 38.5,78.8333 34.5,79.5C 34.5,81.1667 34.5,82.8333 34.5,84.5C 30.8333,87.5 27.5,90.8333 24.5,94.5C 22.0764,91.9922 20.4097,88.9922 19.5,85.5C 19.3505,84.448 19.5172,83.448 20,82.5C 25.0365,77.6313 29.8698,72.6313 34.5,67.5 Z"/></g>
<g><path style="opacity:1" fill="#394054" d="M 35.5,69.5 C 35.5,71.8333 35.5,74.1667 35.5,76.5C 44.1667,76.5 52.8333,76.5 61.5,76.5C 56.6946,77.4872 51.6946,77.8205 46.5,77.5C 42.5,77.5 38.5,77.5 34.5,77.5C 34.1936,74.6146 34.5269,71.9479 35.5,69.5 Z"/></g>
<g><path style="opacity:1" fill="#7289ce" d="M 70.5,74.5 C 70.5,75.5 70.5,76.5 70.5,77.5C 76.8333,77.5 83.1667,77.5 89.5,77.5C 83.1667,78.1667 76.8333,78.8333 70.5,79.5C 70.5,81.8333 70.5,84.1667 70.5,86.5C 79.1667,86.5 87.8333,86.5 96.5,86.5C 91.0149,87.3272 85.3482,87.8272 79.5,88C 85.3482,88.1728 91.0149,88.6728 96.5,89.5C 75.8333,89.5 55.1667,89.5 34.5,89.5C 38.6472,88.6753 42.9805,88.1753 47.5,88C 42.9805,87.8247 38.6472,87.3247 34.5,86.5C 43.5,86.5 52.5,86.5 61.5,86.5C 61.5,85.1667 61.5,83.8333 61.5,82.5C 64.5,79.8333 67.5,77.1667 70.5,74.5 Z"/></g>
<g><path style="opacity:1" fill="#2c3757" d="M 71.5,69.5 C 71.5,71.8333 71.5,74.1667 71.5,76.5C 79.5,76.5 87.5,76.5 95.5,76.5C 95.5,74.1667 95.5,71.8333 95.5,69.5C 96.1667,69.5 96.5,69.8333 96.5,70.5C 96.5,72.8333 96.5,75.1667 96.5,77.5C 94.1667,77.5 91.8333,77.5 89.5,77.5C 83.1667,77.5 76.8333,77.5 70.5,77.5C 70.5,76.5 70.5,75.5 70.5,74.5C 70.2155,72.5853 70.5489,70.9187 71.5,69.5 Z"/></g>
<g><path style="opacity:1" fill="#000000" d="M 71.5,69.5 C 73.8333,69.5 76.1667,69.5 78.5,69.5C 84.1667,69.5 89.8333,69.5 95.5,69.5C 95.5,71.8333 95.5,74.1667 95.5,76.5C 87.5,76.5 79.5,76.5 71.5,76.5C 71.5,74.1667 71.5,71.8333 71.5,69.5 Z"/></g>
<g><path style="opacity:1" fill="#030305" d="M 34.5,79.5 C 43.5,79.5 52.5,79.5 61.5,79.5C 61.5,80.5 61.5,81.5 61.5,82.5C 61.5,83.8333 61.5,85.1667 61.5,86.5C 52.5,86.5 43.5,86.5 34.5,86.5C 34.5,85.8333 34.5,85.1667 34.5,84.5C 34.5,82.8333 34.5,81.1667 34.5,79.5 Z"/></g>
<g><path style="opacity:1" fill="#030306" d="M 70.5,79.5 C 79.5645,78.8636 88.2312,79.5302 96.5,81.5C 96.5,83.1667 96.5,84.8333 96.5,86.5C 87.8333,86.5 79.1667,86.5 70.5,86.5C 70.5,84.1667 70.5,81.8333 70.5,79.5 Z"/></g>
<g><path style="opacity:1" fill="#567ae5" d="M 114.5,76.5 C 107.326,102.262 90.3256,115.262 63.5,115.5C 68.9638,109.535 74.6304,103.702 80.5,98C 86.0158,97.8267 91.3491,97.3267 96.5,96.5C 96.5,94.8333 96.5,93.1667 96.5,91.5C 102.465,86.0362 108.298,80.3696 114,74.5C 114.464,75.0944 114.631,75.7611 114.5,76.5 Z"/></g>
<g><path style="opacity:1" fill="#a0b4f0" d="M 34.5,84.5 C 34.5,85.1667 34.5,85.8333 34.5,86.5C 38.6472,87.3247 42.9805,87.8247 47.5,88C 42.9805,88.1753 38.6472,88.6753 34.5,89.5C 34.5,91.8333 34.5,94.1667 34.5,96.5C 36.6074,97.4682 38.9407,97.8016 41.5,97.5C 39.1667,100.167 36.8333,102.833 34.5,105.5C 30.4564,102.457 27.1231,98.7908 24.5,94.5C 27.5,90.8333 30.8333,87.5 34.5,84.5 Z"/></g>
<g><path style="opacity:1" fill="#010102" d="M 34.5,89.5 C 55.1667,89.5 75.8333,89.5 96.5,89.5C 96.5,90.1667 96.5,90.8333 96.5,91.5C 96.5,93.1667 96.5,94.8333 96.5,96.5C 75.8333,96.5 55.1667,96.5 34.5,96.5C 34.5,94.1667 34.5,91.8333 34.5,89.5 Z"/></g>
<g><path style="opacity:1" fill="#7f9beb" d="M 41.5,97.5 C 49.1739,97.3336 56.8406,97.5003 64.5,98C 59.2969,103.035 54.2969,108.202 49.5,113.5C 44.0506,111.61 39.0506,108.943 34.5,105.5C 36.8333,102.833 39.1667,100.167 41.5,97.5 Z"/></g>
<g><path style="opacity:1" fill="#6482da" d="M 34.5,96.5 C 55.1667,96.5 75.8333,96.5 96.5,96.5C 91.3491,97.3267 86.0158,97.8267 80.5,98C 74.6304,103.702 68.9638,109.535 63.5,115.5C 61.8333,115.5 60.1667,115.5 58.5,115.5C 55.3704,115.3 52.3704,114.634 49.5,113.5C 54.2969,108.202 59.2969,103.035 64.5,98C 56.8406,97.5003 49.1739,97.3336 41.5,97.5C 38.9407,97.8016 36.6074,97.4682 34.5,96.5 Z"/></g>
<g><path style="opacity:1" fill="#dfe5f6" d="M 16.5,79.5 C 17.5139,81.5739 18.5139,83.5739 19.5,85.5C 20.4097,88.9922 22.0764,91.9922 24.5,94.5C 27.1231,98.7908 30.4564,102.457 34.5,105.5C 39.0506,108.943 44.0506,111.61 49.5,113.5C 52.3704,114.634 55.3704,115.3 58.5,115.5C 59.2625,116.268 60.2625,116.768 61.5,117C 59.6277,119.944 56.961,121.111 53.5,120.5C 32.8623,115.197 18.8623,102.53 11.5,82.5C 13.4113,81.925 15.078,80.925 16.5,79.5 Z"/></g>
<g><path style="opacity:1" fill="#cdd7f3" d="M 112.5,34.5 C 121.962,49.6928 124.128,66.0262 119,83.5C 106.579,112.624 84.7461,124.958 53.5,120.5C 56.961,121.111 59.6277,119.944 61.5,117C 60.2625,116.768 59.2625,116.268 58.5,115.5C 60.1667,115.5 61.8333,115.5 63.5,115.5C 90.3256,115.262 107.326,102.262 114.5,76.5C 115.485,72.3656 115.818,68.0323 115.5,63.5C 115.747,60.0613 115.414,56.728 114.5,53.5C 113.956,49.534 112.623,45.8674 110.5,42.5C 109.833,41.1667 109.167,39.8333 108.5,38.5C 110.167,37.5 111.5,36.1667 112.5,34.5 Z"/></g>
</svg>
