<?xml version="1.0" encoding="UTF-8"?>
<!DOCTYPE svg PUBLIC "-//W3C//DTD SVG 1.1//EN" "http://www.w3.org/Graphics/SVG/1.1/DTD/svg11.dtd">
<svg xmlns="http://www.w3.org/2000/svg" version="1.1" width="4096px" height="4096px" style="shape-rendering:geometricPrecision; text-rendering:geometricPrecision; image-rendering:optimizeQuality; fill-rule:evenodd; clip-rule:evenodd" xmlns:xlink="http://www.w3.org/1999/xlink">
<g><path style="opacity:0.991" fill="#000000" d="M 3443.5,2044.5 C 3447.93,2053.69 3452.1,2063.03 3456,2072.5C 3460.51,2087.56 3465.18,2102.56 3470,2117.5C 3475.35,2136.11 3478.18,2155.11 3478.5,2174.5C 3477.41,2191.49 3477.24,2208.49 3478,2225.5C 3493.6,2231.55 3508.43,2239.05 3522.5,2248C 3540.8,2260.72 3545.3,2277.22 3536,2297.5C 3520.18,2318.33 3500.51,2334.33 3477,2345.5C 3476.5,2351.16 3476.33,2356.82 3476.5,2362.5C 3470.25,2366.1 3463.42,2367.77 3456,2367.5C 3439.05,2366.41 3424.71,2359.74 3413,2347.5C 3408.58,2341.65 3404.41,2335.65 3400.5,2329.5C 3403.16,2319.85 3405.83,2310.18 3408.5,2300.5C 3402.88,2283.25 3400.05,2265.58 3400,2247.5C 3404.21,2233.28 3413.55,2224.62 3428,2221.5C 3430.18,2211.26 3430.85,2200.93 3430,2190.5C 3425.49,2164.47 3418.49,2139.14 3409,2114.5C 3383.64,2057.11 3356.64,2000.44 3328,1944.5C 3315.67,1906.83 3303.33,1869.17 3291,1831.5C 3290.33,1830.17 3290.33,1828.83 3291,1827.5C 3303.85,1802.55 3298.35,1782.89 3274.5,1768.5C 3292.33,1741.55 3296.49,1712.55 3287,1681.5C 3273.78,1649.31 3250.28,1637.47 3216.5,1646C 3194.97,1655.55 3182.47,1672.05 3179,1695.5C 3178.32,1706.52 3178.48,1717.52 3179.5,1728.5C 3164.16,1727.26 3148.83,1727.26 3133.5,1728.5C 3134.68,1712.46 3132.85,1696.79 3128,1681.5C 3122.78,1666.95 3112.95,1657.11 3098.5,1652C 3083.02,1649.32 3071.52,1654.82 3064,1668.5C 3051.05,1694.65 3050.05,1721.32 3061,1748.5C 3064.04,1755.52 3067.87,1762.02 3072.5,1768C 3048.17,1779.63 3039.67,1798.47 3047,1824.5C 3050.5,1833.66 3056.5,1840.66 3065,1845.5C 3053.82,1906.37 3036.16,1965.37 3012,2022.5C 2992.4,2064.03 2974.73,2106.36 2959,2149.5C 2948.54,2182.06 2942.54,2215.4 2941,2249.5C 2948.06,2264.67 2954.72,2280 2961,2295.5C 3004.85,2319.01 3039.18,2352.35 3064,2395.5C 3071.54,2410.36 3071.21,2425.03 3063,2439.5C 3061.17,2442.67 3058.67,2445.17 3055.5,2447C 3047.62,2448.88 3039.95,2451.22 3032.5,2454C 3039.43,2465.2 3047.1,2475.86 3055.5,2486C 3085.82,2508.32 3119.49,2523.32 3156.5,2531C 3175.9,2534.57 3195.24,2534.23 3214.5,2530C 3228.62,2526.18 3242.28,2521.18 3255.5,2515C 3295.8,2494.85 3335.46,2473.69 3374.5,2451.5C 3368.17,2473.64 3361.34,2495.64 3354,2517.5C 3350.12,2534.8 3352.45,2551.14 3361,2566.5C 3364.33,2571.33 3367.83,2575.99 3371.5,2580.5C 3360.11,2580.51 3348.77,2579.68 3337.5,2578C 3290.08,2570.28 3242.41,2564.78 3194.5,2561.5C 3135.77,2564.74 3077.1,2568.74 3018.5,2573.5C 3032.36,2557.07 3038.53,2538.07 3037,2516.5C 3031.42,2497 3022.42,2479.34 3010,2463.5C 2986.21,2441.73 2966.21,2417.06 2950,2389.5C 2941.86,2371.89 2933.19,2354.55 2924,2337.5C 2904.92,2305.35 2878.75,2298.02 2845.5,2315.5C 2839.51,2306.19 2834.01,2296.52 2829,2286.5C 2826.83,2232.67 2834.83,2180.34 2853,2129.5C 2865.07,2100.02 2879.74,2072.02 2897,2045.5C 2922.79,2007.04 2950.12,1969.71 2979,1933.5C 3007.7,1895.07 3022.7,1851.73 3024,1803.5C 3024.81,1747.99 3024.64,1692.49 3023.5,1637C 3026.8,1570.68 3058.14,1523.02 3117.5,1494C 3137.64,1485.57 3158.64,1481.24 3180.5,1481C 3211.3,1479.61 3241.97,1480.95 3272.5,1485C 3307.25,1493.44 3333.75,1512.94 3352,1543.5C 3374.64,1602.18 3386.14,1663.02 3386.5,1726C 3378.83,1786.36 3392,1841.53 3426,1891.5C 3447.37,1915.87 3468.37,1940.54 3489,1965.5C 3525.38,2013.92 3553.72,2066.92 3574,2124.5C 3591.22,2181.77 3592.88,2239.43 3579,2297.5C 3569.56,2299.91 3560.06,2299.91 3550.5,2297.5C 3554.73,2267.32 3544.06,2244.15 3518.5,2228C 3506.05,2221.36 3493.55,2214.86 3481,2208.5C 3489.92,2148.84 3477.42,2094.18 3443.5,2044.5 Z M 2972.5,2013.5 C 2973.12,2013.92 2973.46,2014.58 2973.5,2015.5C 2963.08,2039.68 2951.58,2063.35 2939,2086.5C 2926.61,2114.99 2918.28,2144.66 2914,2175.5C 2911.28,2196.1 2909.28,2216.76 2908,2237.5C 2894.71,2160.33 2911.71,2090.66 2959,2028.5C 2963.34,2023.33 2967.84,2018.33 2972.5,2013.5 Z M 3440.5,2039.5 C 3442.25,2040.66 3443.25,2042.33 3443.5,2044.5C 3441.75,2043.34 3440.75,2041.67 3440.5,2039.5 Z"/></g>
<g><path style="opacity:1" fill="#fefefe" d="M 3400.5,2329.5 C 3398.83,2326.83 3396.49,2324.83 3393.5,2323.5C 3391.36,2324.47 3390.2,2326.14 3390,2328.5C 3389.23,2370.1 3384.07,2411.1 3374.5,2451.5C 3335.46,2473.69 3295.8,2494.85 3255.5,2515C 3242.28,2521.18 3228.62,2526.18 3214.5,2530C 3195.24,2534.23 3175.9,2534.57 3156.5,2531C 3119.49,2523.32 3085.82,2508.32 3055.5,2486C 3047.1,2475.86 3039.43,2465.2 3032.5,2454C 3039.95,2451.22 3047.62,2448.88 3055.5,2447C 3058.67,2445.17 3061.17,2442.67 3063,2439.5C 3071.21,2425.03 3071.54,2410.36 3064,2395.5C 3039.18,2352.35 3004.85,2319.01 2961,2295.5C 2954.72,2280 2948.06,2264.67 2941,2249.5C 2942.54,2215.4 2948.54,2182.06 2959,2149.5C 2974.73,2106.36 2992.4,2064.03 3012,2022.5C 3036.16,1965.37 3053.82,1906.37 3065,1845.5C 3056.5,1840.66 3050.5,1833.66 3047,1824.5C 3039.67,1798.47 3048.17,1779.63 3072.5,1768C 3067.87,1762.02 3064.04,1755.52 3061,1748.5C 3050.05,1721.32 3051.05,1694.65 3064,1668.5C 3071.52,1654.82 3083.02,1649.32 3098.5,1652C 3112.95,1657.11 3122.78,1666.95 3128,1681.5C 3132.85,1696.79 3134.68,1712.46 3133.5,1728.5C 3148.83,1727.26 3164.16,1727.26 3179.5,1728.5C 3178.48,1717.52 3178.32,1706.52 3179,1695.5C 3182.47,1672.05 3194.97,1655.55 3216.5,1646C 3250.28,1637.47 3273.78,1649.31 3287,1681.5C 3296.49,1712.55 3292.33,1741.55 3274.5,1768.5C 3298.35,1782.89 3303.85,1802.55 3291,1827.5C 3290.33,1828.83 3290.33,1830.17 3291,1831.5C 3303.33,1869.17 3315.67,1906.83 3328,1944.5C 3356.64,2000.44 3383.64,2057.11 3409,2114.5C 3418.49,2139.14 3425.49,2164.47 3430,2190.5C 3430.85,2200.93 3430.18,2211.26 3428,2221.5C 3413.55,2224.62 3404.21,2233.28 3400,2247.5C 3400.05,2265.58 3402.88,2283.25 3408.5,2300.5C 3405.83,2310.18 3403.16,2319.85 3400.5,2329.5 Z"/></g>
<g><path style="opacity:1" fill="#010101" d="M 3227.5,1684.5 C 3246.45,1683.97 3258.95,1692.63 3265,1710.5C 3267.44,1729.19 3262.27,1745.36 3249.5,1759C 3246.17,1759.67 3242.83,1759.67 3239.5,1759C 3229.25,1755.79 3219.41,1751.62 3210,1746.5C 3208.72,1744.28 3207.72,1741.95 3207,1739.5C 3204.48,1726.95 3205.15,1714.62 3209,1702.5C 3213.1,1694.23 3219.27,1688.23 3227.5,1684.5 Z"/></g>
<g><path style="opacity:1" fill="#030303" d="M 3097.5,1687.5 C 3104.56,1687.28 3110.4,1689.95 3115,1695.5C 3131.64,1724.77 3124.47,1745.11 3093.5,1756.5C 3088.61,1753.43 3085.11,1749.09 3083,1743.5C 3077.4,1727.24 3078.73,1711.57 3087,1696.5C 3089.88,1692.66 3093.38,1689.66 3097.5,1687.5 Z"/></g>
<g><path style="opacity:0.98" fill="#000000" d="M 1025.5,1724.5 C 1061.43,1723.96 1083.93,1740.96 1093,1775.5C 1096.38,1803.56 1086.22,1825.06 1062.5,1840C 1032.55,1853.68 1006.38,1848.51 984,1824.5C 966.008,1798.87 966.008,1773.21 984,1747.5C 994.949,1734.45 1008.78,1726.78 1025.5,1724.5 Z"/></g>
<g><path style="opacity:1" fill="#f0b802" d="M 3151.5,1745.5 C 3161.4,1744.97 3171.07,1746.14 3180.5,1749C 3209.96,1761.06 3238.62,1774.73 3266.5,1790C 3274.88,1798.18 3276.72,1807.68 3272,1818.5C 3267.27,1827.8 3260.77,1835.63 3252.5,1842C 3228.43,1855.7 3203.76,1868.37 3178.5,1880C 3166.83,1884.61 3155.16,1884.61 3143.5,1880C 3116.14,1864.07 3091.97,1844.24 3071,1820.5C 3066.79,1810.12 3068.63,1800.96 3076.5,1793C 3093.79,1779.02 3111.79,1766.02 3130.5,1754C 3137.19,1750.06 3144.19,1747.22 3151.5,1745.5 Z"/></g>
<g><path style="opacity:0.988" fill="#000000" d="M 470.5,1764.5 C 550.167,1764.5 629.833,1764.5 709.5,1764.5C 709.5,1778.83 709.5,1793.17 709.5,1807.5C 693.497,1807.33 677.497,1807.5 661.5,1808C 655.13,1809.44 650.963,1813.27 649,1819.5C 648.5,1970.5 648.333,2121.5 648.5,2272.5C 697.875,2272.17 747.209,2272.5 796.5,2273.5C 803.236,2270.59 807.736,2265.59 810,2258.5C 816.3,2240.33 820.3,2221.67 822,2202.5C 823.587,2187.86 824.754,2173.2 825.5,2158.5C 846.167,2158.5 866.833,2158.5 887.5,2158.5C 887.5,2211.17 887.5,2263.83 887.5,2316.5C 748.833,2316.5 610.167,2316.5 471.5,2316.5C 471.5,2303.5 471.5,2290.5 471.5,2277.5C 487.503,2277.67 503.503,2277.5 519.5,2277C 527.295,2274.2 532.795,2269.04 536,2261.5C 536.667,2115.17 536.667,1968.83 536,1822.5C 533.681,1815.52 528.848,1811.35 521.5,1810C 504.488,1809.02 487.488,1808.19 470.5,1807.5C 470.5,1793.17 470.5,1778.83 470.5,1764.5 Z"/></g>
<g><path style="opacity:0.875" fill="#000000" d="M 2555.5,1871.5 C 2570.17,1871.5 2584.83,1871.5 2599.5,1871.5C 2599.5,1879.17 2599.5,1886.83 2599.5,1894.5C 2596.17,1894.5 2592.83,1894.5 2589.5,1894.5C 2589.5,1890.17 2589.5,1885.83 2589.5,1881.5C 2587.17,1881.5 2584.83,1881.5 2582.5,1881.5C 2582.5,1891.17 2582.5,1900.83 2582.5,1910.5C 2585.17,1910.5 2587.83,1910.5 2590.5,1910.5C 2590.5,1913.5 2590.5,1916.5 2590.5,1919.5C 2581.83,1919.5 2573.17,1919.5 2564.5,1919.5C 2564.5,1916.5 2564.5,1913.5 2564.5,1910.5C 2567.17,1910.5 2569.83,1910.5 2572.5,1910.5C 2572.5,1900.83 2572.5,1891.17 2572.5,1881.5C 2569.83,1881.5 2567.17,1881.5 2564.5,1881.5C 2564.5,1885.83 2564.5,1890.17 2564.5,1894.5C 2561.5,1894.5 2558.5,1894.5 2555.5,1894.5C 2555.5,1886.83 2555.5,1879.17 2555.5,1871.5 Z"/></g>
<g><path style="opacity:0.873" fill="#000000" d="M 2602.5,1871.5 C 2607.17,1871.5 2611.83,1871.5 2616.5,1871.5C 2616.5,1874.5 2616.5,1877.5 2616.5,1880.5C 2618.17,1880.5 2619.83,1880.5 2621.5,1880.5C 2621.5,1883.5 2621.5,1886.5 2621.5,1889.5C 2622.83,1889.5 2624.17,1889.5 2625.5,1889.5C 2625.5,1890.83 2625.5,1892.17 2625.5,1893.5C 2626.5,1893.5 2627.5,1893.5 2628.5,1893.5C 2628.5,1891.83 2628.5,1890.17 2628.5,1888.5C 2630.17,1888.5 2631.83,1888.5 2633.5,1888.5C 2633.5,1885.83 2633.5,1883.17 2633.5,1880.5C 2634.83,1880.5 2636.17,1880.5 2637.5,1880.5C 2637.5,1877.5 2637.5,1874.5 2637.5,1871.5C 2642.17,1871.5 2646.83,1871.5 2651.5,1871.5C 2651.5,1874.83 2651.5,1878.17 2651.5,1881.5C 2649.83,1881.5 2648.17,1881.5 2646.5,1881.5C 2646.5,1891.17 2646.5,1900.83 2646.5,1910.5C 2648.17,1910.5 2649.83,1910.5 2651.5,1910.5C 2651.5,1913.83 2651.5,1917.17 2651.5,1920.5C 2643.83,1920.5 2636.17,1920.5 2628.5,1920.5C 2628.5,1917.17 2628.5,1913.83 2628.5,1910.5C 2631.5,1910.5 2634.5,1910.5 2637.5,1910.5C 2637.5,1906.5 2637.5,1902.5 2637.5,1898.5C 2636.5,1898.5 2635.5,1898.5 2634.5,1898.5C 2634.5,1899.83 2634.5,1901.17 2634.5,1902.5C 2632.83,1902.5 2631.17,1902.5 2629.5,1902.5C 2629.5,1904.17 2629.5,1905.83 2629.5,1907.5C 2627.83,1907.5 2626.17,1907.5 2624.5,1907.5C 2624.5,1905.83 2624.5,1904.17 2624.5,1902.5C 2623.17,1902.5 2621.83,1902.5 2620.5,1902.5C 2620.5,1901.17 2620.5,1899.83 2620.5,1898.5C 2619.17,1898.5 2617.83,1898.5 2616.5,1898.5C 2616.5,1902.5 2616.5,1906.5 2616.5,1910.5C 2619.5,1910.5 2622.5,1910.5 2625.5,1910.5C 2625.78,1913.78 2625.45,1916.94 2624.5,1920C 2617.17,1920.5 2609.84,1920.67 2602.5,1920.5C 2602.5,1917.17 2602.5,1913.83 2602.5,1910.5C 2603.83,1910.5 2605.17,1910.5 2606.5,1910.5C 2606.5,1900.83 2606.5,1891.17 2606.5,1881.5C 2605.17,1881.5 2603.83,1881.5 2602.5,1881.5C 2602.5,1878.17 2602.5,1874.83 2602.5,1871.5 Z"/></g>
<g><path style="opacity:0.983" fill="#000000" d="M 1034.5,1907.5 C 1049.5,1907.5 1064.5,1907.5 1079.5,1907.5C 1079.33,2027.83 1079.5,2148.17 1080,2268.5C 1082.48,2274.83 1086.98,2278.99 1093.5,2281C 1107.44,2282.43 1121.44,2282.93 1135.5,2282.5C 1135.5,2294.17 1135.5,2305.83 1135.5,2317.5C 1063.83,2317.5 992.167,2317.5 920.5,2317.5C 920.5,2305.5 920.5,2293.5 920.5,2281.5C 932.886,2281.89 945.22,2281.39 957.5,2280C 965.445,2278.63 971.278,2274.46 975,2267.5C 975.5,2173.17 975.667,2078.83 975.5,1984.5C 957.5,1984.5 939.5,1984.5 921.5,1984.5C 921.168,1973.15 921.501,1961.81 922.5,1950.5C 960.089,1936.53 997.422,1922.2 1034.5,1907.5 Z"/></g>
<g><path style="opacity:0.986" fill="#000000" d="M 1282.5,1907.5 C 1297.5,1907.5 1312.5,1907.5 1327.5,1907.5C 1327.17,1923.85 1327.5,1940.18 1328.5,1956.5C 1363.29,1938.11 1399.62,1923.61 1437.5,1913C 1464.2,1906.07 1490.53,1907.07 1516.5,1916C 1554.92,1934.32 1575.25,1964.82 1577.5,2007.5C 1576.35,2092.16 1576.18,2176.82 1577,2261.5C 1579.31,2269.82 1584.48,2275.65 1592.5,2279C 1606.77,2280.43 1621.11,2280.93 1635.5,2280.5C 1635.5,2292.83 1635.5,2305.17 1635.5,2317.5C 1567.83,2317.5 1500.17,2317.5 1432.5,2317.5C 1432.5,2304.5 1432.5,2291.5 1432.5,2278.5C 1443.17,2278.67 1453.84,2278.5 1464.5,2278C 1472,2275.83 1476.83,2271 1479,2263.5C 1479.67,2191.83 1479.67,2120.17 1479,2048.5C 1475.14,2017.27 1458.64,1995.77 1429.5,1984C 1421.68,1981.54 1413.68,1980.04 1405.5,1979.5C 1379.75,1982.92 1354.42,1988.25 1329.5,1995.5C 1328.33,2085.5 1328.17,2175.5 1329,2265.5C 1331.17,2271.67 1335.33,2275.83 1341.5,2278C 1353.1,2279.41 1364.77,2279.91 1376.5,2279.5C 1375.68,2292.15 1375.35,2304.82 1375.5,2317.5C 1307.83,2317.5 1240.17,2317.5 1172.5,2317.5C 1172.5,2305.5 1172.5,2293.5 1172.5,2281.5C 1184.56,2281.91 1196.56,2281.41 1208.5,2280C 1216.32,2278.84 1221.82,2274.67 1225,2267.5C 1225.5,2172.5 1225.67,2077.5 1225.5,1982.5C 1206.83,1982.5 1188.17,1982.5 1169.5,1982.5C 1169.5,1970.5 1169.5,1958.5 1169.5,1946.5C 1207.45,1934.07 1245.12,1921.07 1282.5,1907.5 Z"/></g>
<g><path style="opacity:0.987" fill="#000000" d="M 2019.5,1907.5 C 2035.83,1907.5 2052.17,1907.5 2068.5,1907.5C 2068.33,2027.5 2068.5,2147.5 2069,2267.5C 2072.04,2274.11 2077.21,2277.95 2084.5,2279C 2096.5,2279.5 2108.5,2279.67 2120.5,2279.5C 2120.5,2292.83 2120.5,2306.17 2120.5,2319.5C 2068.83,2319.5 2017.17,2319.5 1965.5,2319.5C 1965.67,2304.83 1965.5,2290.16 1965,2275.5C 1927.24,2300.42 1886.08,2316.92 1841.5,2325C 1810.22,2329.02 1781.56,2322.35 1755.5,2305C 1730.17,2283.51 1716.67,2256.01 1715,2222.5C 1714.5,2142.17 1714.33,2061.83 1714.5,1981.5C 1696.17,1981.5 1677.83,1981.5 1659.5,1981.5C 1659.17,1970.15 1659.5,1958.81 1660.5,1947.5C 1696.39,1934.39 1732.39,1921.55 1768.5,1909C 1784.83,1908.5 1801.16,1908.33 1817.5,1908.5C 1817.33,2000.83 1817.5,2093.17 1818,2185.5C 1823.96,2240.11 1854.12,2262.94 1908.5,2254C 1927.79,2251.51 1946.79,2247.68 1965.5,2242.5C 1965.5,2155.83 1965.5,2069.17 1965.5,1982.5C 1947.17,1982.5 1928.83,1982.5 1910.5,1982.5C 1910.17,1971.15 1910.5,1959.81 1911.5,1948.5C 1947.75,1935.2 1983.75,1921.53 2019.5,1907.5 Z"/></g>
<g><path style="opacity:0.981" fill="#000000" d="M 2146.5,1913.5 C 2212.5,1913.5 2278.5,1913.5 2344.5,1913.5C 2344.5,1926.17 2344.5,1938.83 2344.5,1951.5C 2334.42,1951.34 2324.75,1953.17 2315.5,1957C 2313.04,1958.79 2311.38,1961.12 2310.5,1964C 2311.67,1968.17 2313.5,1972 2316,1975.5C 2336.72,2004.56 2357.06,2033.89 2377,2063.5C 2397.42,2032.99 2418.09,2002.66 2439,1972.5C 2444.38,1965.41 2442.88,1960.24 2434.5,1957C 2424.97,1954.81 2415.3,1953.97 2405.5,1954.5C 2405.5,1941.5 2405.5,1928.5 2405.5,1915.5C 2456.17,1915.5 2506.83,1915.5 2557.5,1915.5C 2557.5,1927.83 2557.5,1940.17 2557.5,1952.5C 2538.94,1953.3 2521.94,1958.8 2506.5,1969C 2473.31,2012.69 2440.31,2056.53 2407.5,2100.5C 2447.8,2158.93 2488.46,2217.1 2529.5,2275C 2543.21,2280.98 2557.54,2283.81 2572.5,2283.5C 2572.5,2295.17 2572.5,2306.83 2572.5,2318.5C 2507.5,2318.5 2442.5,2318.5 2377.5,2318.5C 2377.5,2307.83 2377.5,2297.17 2377.5,2286.5C 2388.26,2287.02 2398.09,2284.35 2407,2278.5C 2410.23,2273.53 2410.23,2268.53 2407,2263.5C 2384.09,2230.01 2361.42,2196.34 2339,2162.5C 2313.79,2198.42 2288.96,2234.59 2264.5,2271C 2266.7,2275.51 2270.37,2278.18 2275.5,2279C 2284.77,2280.49 2294.1,2281.33 2303.5,2281.5C 2303.5,2293.17 2303.5,2304.83 2303.5,2316.5C 2250.5,2316.5 2197.5,2316.5 2144.5,2316.5C 2144.17,2304.81 2144.5,2293.15 2145.5,2281.5C 2164.97,2283.23 2181.97,2277.56 2196.5,2264.5C 2232.69,2218.14 2268.69,2171.64 2304.5,2125C 2268.88,2072.92 2233.38,2020.75 2198,1968.5C 2192.67,1962.75 2186.17,1958.92 2178.5,1957C 2167.99,1954.39 2157.32,1952.89 2146.5,1952.5C 2146.5,1939.5 2146.5,1926.5 2146.5,1913.5 Z"/></g>
<g><path style="opacity:0.996" fill="#efb700" d="M 3018.5,2573.5 C 3010.74,2580.88 3002.08,2587.05 2992.5,2592C 2982.68,2595.48 2972.68,2596.15 2962.5,2594C 2941.81,2587.66 2921.47,2580.32 2901.5,2572C 2857.55,2558.29 2812.55,2550.95 2766.5,2550C 2746.98,2543.48 2738.82,2529.98 2742,2509.5C 2750.95,2490.46 2754.28,2470.46 2752,2449.5C 2749.3,2438.32 2747.8,2426.99 2747.5,2415.5C 2746.33,2398 2753,2384.5 2767.5,2375C 2778.57,2368.97 2790.24,2364.31 2802.5,2361C 2811.15,2357.09 2818.65,2351.59 2825,2344.5C 2830.37,2333.75 2837.2,2324.08 2845.5,2315.5C 2878.75,2298.02 2904.92,2305.35 2924,2337.5C 2933.19,2354.55 2941.86,2371.89 2950,2389.5C 2966.21,2417.06 2986.21,2441.73 3010,2463.5C 3022.42,2479.34 3031.42,2497 3037,2516.5C 3038.53,2538.07 3032.36,2557.07 3018.5,2573.5 Z"/></g>
<g><path style="opacity:0.996" fill="#efb700" d="M 3400.5,2329.5 C 3404.41,2335.65 3408.58,2341.65 3413,2347.5C 3424.71,2359.74 3439.05,2366.41 3456,2367.5C 3463.42,2367.77 3470.25,2366.1 3476.5,2362.5C 3489.43,2356.37 3501.77,2349.2 3513.5,2341C 3527.6,2332.05 3542.94,2328.71 3559.5,2331C 3566.36,2332.53 3571.53,2336.36 3575,2342.5C 3581.02,2352.53 3585.35,2363.19 3588,2374.5C 3585.81,2396.96 3594.31,2413.8 3613.5,2425C 3617.76,2428.36 3620.93,2432.53 3623,2437.5C 3628.7,2451.69 3629.37,2466.02 3625,2480.5C 3617.55,2492.61 3607.05,2501.11 3593.5,2506C 3560.99,2517.08 3531.33,2533.08 3504.5,2554C 3494.8,2563.37 3484.8,2572.37 3474.5,2581C 3460.2,2590.98 3444.54,2597.98 3427.5,2602C 3405.06,2604.36 3386.39,2597.19 3371.5,2580.5C 3367.83,2575.99 3364.33,2571.33 3361,2566.5C 3352.45,2551.14 3350.12,2534.8 3354,2517.5C 3361.34,2495.64 3368.17,2473.64 3374.5,2451.5C 3384.07,2411.1 3389.23,2370.1 3390,2328.5C 3390.2,2326.14 3391.36,2324.47 3393.5,2323.5C 3396.49,2324.83 3398.83,2326.83 3400.5,2329.5 Z"/></g>
</svg>
