<?xml version="1.0" encoding="UTF-8"?>
<!DOCTYPE svg PUBLIC "-//W3C//DTD SVG 1.1//EN" "http://www.w3.org/Graphics/SVG/1.1/DTD/svg11.dtd">
<svg xmlns="http://www.w3.org/2000/svg" version="1.1" width="269px" height="187px" style="shape-rendering:geometricPrecision; text-rendering:geometricPrecision; image-rendering:optimizeQuality; fill-rule:evenodd; clip-rule:evenodd" xmlns:xlink="http://www.w3.org/1999/xlink">
<g><path style="opacity:1" fill="#fdfdfd" d="M -0.5,-0.5 C 89.1667,-0.5 178.833,-0.5 268.5,-0.5C 268.5,61.8333 268.5,124.167 268.5,186.5C 178.833,186.5 89.1667,186.5 -0.5,186.5C -0.5,124.167 -0.5,61.8333 -0.5,-0.5 Z"/></g>
<g><path style="opacity:1" fill="#e3d2d6" d="M 233.5,43.5 C 216.167,43.5 198.833,43.5 181.5,43.5C 156.5,43.5 131.5,43.5 106.5,43.5C 107.919,42.5489 109.585,42.2155 111.5,42.5C 112.512,37.683 110.845,35.8497 106.5,37C 103.945,32.9976 103.945,28.9976 106.5,25C 105.268,22.9734 105.602,21.6401 107.5,21C 105.388,20.0943 104.555,18.5943 105,16.5C 105.965,18.2603 107.132,18.5937 108.5,17.5C 106.55,16.2685 105.717,14.6019 106,12.5C 115.566,17.6187 120.066,25.4521 119.5,36C 118.782,37.9874 117.782,39.8208 116.5,41.5C 155.665,42.1667 194.665,42.8333 233.5,43.5 Z"/></g>
<g><path style="opacity:1" fill="#a7a8a9" d="M 40.5,45.5 C 40.5,73.8333 40.5,102.167 40.5,130.5C 39.502,101.671 39.1686,72.6715 39.5,43.5C 26.8333,43.5 14.1667,43.5 1.5,43.5C 1.5,80.5 1.5,117.5 1.5,154.5C 24.5,154.5 47.5,154.5 70.5,154.5C 88.1667,154.5 105.833,154.5 123.5,154.5C 124.833,154.5 126.167,154.5 127.5,154.5C 127.5,154.833 127.5,155.167 127.5,155.5C 86.8333,155.5 46.1667,155.5 5.5,155.5C 3.83333,155.5 2.16667,155.5 0.5,155.5C 0.5,117.833 0.5,80.1667 0.5,42.5C 13.8333,42.5 27.1667,42.5 40.5,42.5C 40.5,43.5 40.5,44.5 40.5,45.5 Z"/></g>
<g><path style="opacity:1" fill="#ddddeb" d="M 90.5,10.5 C 91.4345,11.5676 91.7678,12.901 91.5,14.5C 87.7002,14.8194 87.5335,15.8194 91,17.5C 91.6868,20.9712 90.6868,21.3046 88,18.5C 85.8869,21.6761 83.8869,25.0095 82,28.5C 80.0224,27.1837 78.5224,27.6837 77.5,30C 78.2529,31.487 79.0862,31.6537 80,30.5C 80.6247,33.7055 82.2914,34.7055 85,33.5C 89.2555,35.3348 93.2555,37.6681 97,40.5C 97.1218,42.1686 96.7885,43.8353 96,45.5C 93.943,47.269 92.1097,49.269 90.5,51.5C 90.7093,52.086 91.0426,52.586 91.5,53C 89.8866,53.0885 88.7199,52.2552 88,50.5C 85.2908,45.8262 83.1241,40.8262 81.5,35.5C 78.4567,33.8243 76.1233,31.4909 74.5,28.5C 75.8123,19.1743 81.1457,13.1743 90.5,10.5 Z"/></g>
<g><path style="opacity:1" fill="#424343" d="M 40.5,130.5 C 50.5,130.5 60.5,130.5 70.5,130.5C 70.5,138.5 70.5,146.5 70.5,154.5C 47.5,154.5 24.5,154.5 1.5,154.5C 1.5,117.5 1.5,80.5 1.5,43.5C 14.1667,43.5 26.8333,43.5 39.5,43.5C 39.1686,72.6715 39.502,101.671 40.5,130.5 Z"/></g>
<g><path style="opacity:1" fill="#3c9ad4" d="M 106.5,43.5 C 131.5,43.5 156.5,43.5 181.5,43.5C 181.5,51.5 181.5,59.5 181.5,67.5C 168.833,67.5 156.167,67.5 143.5,67.5C 143.5,75.5 143.5,83.5 143.5,91.5C 156.167,91.5 168.833,91.5 181.5,91.5C 181.5,99.1667 181.5,106.833 181.5,114.5C 169.5,114.5 157.5,114.5 145.5,114.5C 145.5,119.833 145.5,125.167 145.5,130.5C 157.5,130.5 169.5,130.5 181.5,130.5C 181.5,138.5 181.5,146.5 181.5,154.5C 163.5,154.5 145.5,154.5 127.5,154.5C 127.5,126.167 127.5,97.8333 127.5,69.5C 126.167,69.5 124.833,69.5 123.5,69.5C 118.265,67.55 112.598,66.8833 106.5,67.5C 106.5,59.5 106.5,51.5 106.5,43.5 Z"/></g>
<g><path style="opacity:1" fill="#424343" d="M 181.5,43.5 C 198.833,43.5 216.167,43.5 233.5,43.5C 260.682,49.191 270.849,65.5244 264,92.5C 257.569,106.146 246.736,113.479 231.5,114.5C 224.167,114.5 216.833,114.5 209.5,114.5C 209.5,127.833 209.5,141.167 209.5,154.5C 200.167,154.5 190.833,154.5 181.5,154.5C 181.5,146.5 181.5,138.5 181.5,130.5C 181.5,125.167 181.5,119.833 181.5,114.5C 181.5,106.833 181.5,99.1667 181.5,91.5C 199.503,91.6666 217.503,91.4999 235.5,91C 243.504,87.0463 245.671,80.8797 242,72.5C 240.269,70.3834 238.102,68.8834 235.5,68C 217.503,67.5001 199.503,67.3334 181.5,67.5C 181.5,59.5 181.5,51.5 181.5,43.5 Z"/></g>
<g><path style="opacity:1" fill="#e5e5e5" d="M 40.5,45.5 C 41.8333,45.5 43.1667,45.5 44.5,45.5C 44.5,73.5 44.5,101.5 44.5,129.5C 53.1667,129.5 61.8333,129.5 70.5,129.5C 70.5,129.833 70.5,130.167 70.5,130.5C 60.5,130.5 50.5,130.5 40.5,130.5C 40.5,102.167 40.5,73.8333 40.5,45.5 Z"/></g>
<g><path style="opacity:1" fill="#fefefe" d="M 181.5,67.5 C 199.503,67.3334 217.503,67.5001 235.5,68C 238.102,68.8834 240.269,70.3834 242,72.5C 245.671,80.8797 243.504,87.0463 235.5,91C 217.503,91.4999 199.503,91.6666 181.5,91.5C 168.833,91.5 156.167,91.5 143.5,91.5C 143.5,83.5 143.5,75.5 143.5,67.5C 156.167,67.5 168.833,67.5 181.5,67.5 Z"/></g>
<g><path style="opacity:1" fill="#25546e" d="M 106.5,67.5 C 112.598,66.8833 118.265,67.55 123.5,69.5C 123.5,97.8333 123.5,126.167 123.5,154.5C 105.833,154.5 88.1667,154.5 70.5,154.5C 70.5,146.5 70.5,138.5 70.5,130.5C 70.5,130.167 70.5,129.833 70.5,129.5C 70.5,108.833 70.5,88.1667 70.5,67.5C 82.5,67.5 94.5,67.5 106.5,67.5 Z"/></g>
<g><path style="opacity:1" fill="#8bafd0" d="M 123.5,69.5 C 124.833,69.5 126.167,69.5 127.5,69.5C 127.5,97.8333 127.5,126.167 127.5,154.5C 126.167,154.5 124.833,154.5 123.5,154.5C 123.5,126.167 123.5,97.8333 123.5,69.5 Z"/></g>
<g><path style="opacity:1" fill="#fbfcfd" d="M 181.5,114.5 C 181.5,119.833 181.5,125.167 181.5,130.5C 169.5,130.5 157.5,130.5 145.5,130.5C 145.5,125.167 145.5,119.833 145.5,114.5C 157.5,114.5 169.5,114.5 181.5,114.5 Z"/></g>
<g><path style="opacity:1" fill="#d2d2d2" d="M 231.5,114.5 C 224.687,115.491 217.687,115.825 210.5,115.5C 210.829,128.677 210.495,141.677 209.5,154.5C 209.5,141.167 209.5,127.833 209.5,114.5C 216.833,114.5 224.167,114.5 231.5,114.5 Z"/></g>
<g><path style="opacity:1" fill="#e9e9e9" d="M 5.5,155.5 C 46.1667,155.5 86.8333,155.5 127.5,155.5C 107.511,156.833 87.1778,157.5 66.5,157.5C 45.8222,157.5 25.4889,156.833 5.5,155.5 Z"/></g>
<g><path style="opacity:1" fill="#f4ddd7" d="M 188.5,161.5 C 187.737,162.268 186.737,162.768 185.5,163C 186.858,163.934 188.192,164.768 189.5,165.5C 183.158,165.666 176.825,165.5 170.5,165C 169.692,164.692 169.025,164.192 168.5,163.5C 175.06,161.867 181.727,161.2 188.5,161.5 Z"/></g>
<g><path style="opacity:1" fill="#97b4db" d="M 44.5,161.5 C 50.6534,162.328 56.9867,162.828 63.5,163C 61.4982,164.019 59.4982,164.852 57.5,165.5C 46.8333,165.5 36.1667,165.5 25.5,165.5C 28.5,164.907 31.5,164.074 34.5,163C 23.505,162.5 12.505,162.333 1.5,162.5C 1.5,163.5 1.5,164.5 1.5,165.5C 0.565525,164.432 0.232191,163.099 0.5,161.5C 15.1667,161.5 29.8333,161.5 44.5,161.5 Z"/></g>
<g><path style="opacity:1" fill="#578fc8" d="M 25.5,165.5 C 17.5,165.5 9.5,165.5 1.5,165.5C 1.5,164.5 1.5,163.5 1.5,162.5C 12.505,162.333 23.505,162.5 34.5,163C 31.5,164.074 28.5,164.907 25.5,165.5 Z"/></g>
<g><path style="opacity:1" fill="#cbd7ed" d="M 44.5,161.5 C 56.8513,161.168 69.1847,161.501 81.5,162.5C 80.6195,163.971 79.2861,164.804 77.5,165C 70.8417,165.5 64.175,165.666 57.5,165.5C 59.4982,164.852 61.4982,164.019 63.5,163C 56.9867,162.828 50.6534,162.328 44.5,161.5 Z"/></g>
<g><path style="opacity:1" fill="#eabcb4" d="M 188.5,161.5 C 203.833,161.5 219.167,161.5 234.5,161.5C 225.342,162.33 216.009,162.83 206.5,163C 208.833,164.043 211.166,164.876 213.5,165.5C 205.5,165.5 197.5,165.5 189.5,165.5C 188.192,164.768 186.858,163.934 185.5,163C 186.737,162.768 187.737,162.268 188.5,161.5 Z"/></g>
<g><path style="opacity:1" fill="#d78079" d="M 234.5,161.5 C 245.5,161.5 256.5,161.5 267.5,161.5C 267.768,163.099 267.434,164.432 266.5,165.5C 266.5,164.5 266.5,163.5 266.5,162.5C 256.161,162.334 245.828,162.5 235.5,163C 238.5,164.074 241.5,164.907 244.5,165.5C 234.167,165.5 223.833,165.5 213.5,165.5C 211.166,164.876 208.833,164.043 206.5,163C 216.009,162.83 225.342,162.33 234.5,161.5 Z"/></g>
<g><path style="opacity:1" fill="#c4373a" d="M 266.5,165.5 C 259.167,165.5 251.833,165.5 244.5,165.5C 241.5,164.907 238.5,164.074 235.5,163C 245.828,162.5 256.161,162.334 266.5,162.5C 266.5,163.5 266.5,164.5 266.5,165.5 Z"/></g>
<g><path style="opacity:1" fill="#666767" d="M 77.5,173.5 C 78.4972,173.47 79.1639,173.97 79.5,175C 79.0217,176.303 78.355,177.469 77.5,178.5C 76.5,178.5 75.5,178.5 74.5,178.5C 74.762,179.978 74.4287,181.311 73.5,182.5C 72.513,179.232 72.1796,175.898 72.5,172.5C 74.4147,172.216 76.0813,172.549 77.5,173.5 Z"/></g>
<g><path style="opacity:1" fill="#343635" d="M 118.5,181.5 C 120.43,177.868 119.596,175.202 116,173.5C 112.956,174.781 111.79,177.115 112.5,180.5C 111.378,178.712 111.211,176.712 112,174.5C 118.521,171.005 121.187,173.005 120,180.5C 119.617,181.056 119.117,181.389 118.5,181.5 Z"/></g>
<g><path style="opacity:1" fill="#363737" d="M 137.5,174.5 C 135.663,174.361 135.33,173.694 136.5,172.5C 137.298,172.957 137.631,173.624 137.5,174.5 Z"/></g>
<g><path style="opacity:1" fill="#666867" d="M 232.5,173.5 C 233.497,173.47 234.164,173.97 234.5,175C 234.022,176.303 233.355,177.469 232.5,178.5C 231.5,178.5 230.5,178.5 229.5,178.5C 229.762,179.978 229.429,181.311 228.5,182.5C 227.513,179.232 227.18,175.898 227.5,172.5C 229.415,172.216 231.081,172.549 232.5,173.5 Z"/></g>
<g><path style="opacity:1" fill="#777878" d="M 261.5,174.5 C 262.885,175.574 264.051,176.907 265,178.5C 265.192,176.423 265.692,174.423 266.5,172.5C 268.261,184.91 266.594,185.577 261.5,174.5 Z"/></g>
<g><path style="opacity:1" fill="#6d6e6e" d="M 0.5,172.5 C 2.38784,174.988 3.0545,177.988 2.5,181.5C 3.87344,181.343 5.20677,181.51 6.5,182C 4.5273,182.495 2.5273,182.662 0.5,182.5C 0.5,179.167 0.5,175.833 0.5,172.5 Z"/></g>
<g><path style="opacity:1" fill="#404141" d="M 11.5,175.5 C 11.4614,174.244 11.9614,173.244 13,172.5C 13.5847,173.998 13.0847,174.998 11.5,175.5 Z"/></g>
<g><path style="opacity:1" fill="#313332" d="M 24.5,172.5 C 30.1667,172.664 30.5,172.997 25.5,173.5C 25.5,174.5 25.5,175.5 25.5,176.5C 30.8333,176.833 30.8333,177.167 25.5,177.5C 25.5,178.833 25.5,180.167 25.5,181.5C 30.5,182.003 30.1667,182.336 24.5,182.5C 24.5,179.167 24.5,175.833 24.5,172.5 Z"/></g>
<g><path style="opacity:1" fill="#5f6160" d="M 31.5,172.5 C 33.5273,172.338 35.5273,172.505 37.5,173C 36.2068,173.49 34.8734,173.657 33.5,173.5C 33.5,174.5 33.5,175.5 33.5,176.5C 38.8333,176.833 38.8333,177.167 33.5,177.5C 33.5,178.833 33.5,180.167 33.5,181.5C 34.8734,181.343 36.2068,181.51 37.5,182C 35.5273,182.495 33.5273,182.662 31.5,182.5C 31.5,179.167 31.5,175.833 31.5,172.5 Z"/></g>
<g><path style="opacity:1" fill="#6e6f6e" d="M 42.5,172.5 C 43.7773,173.694 44.4439,175.36 44.5,177.5C 44.1667,179.167 43.8333,180.833 43.5,182.5C 42.513,179.232 42.1796,175.898 42.5,172.5 Z"/></g>
<g><path style="opacity:1" fill="#151817" d="M 56.5,173.5 C 60.9906,172.259 62.324,172.259 60.5,173.5C 60.1667,185.5 59.8333,185.5 59.5,173.5C 58.5,173.5 57.5,173.5 56.5,173.5 Z"/></g>
<g><path style="opacity:1" fill="#f5f5f5" d="M 77.5,173.5 C 77.7778,175.346 77.1112,176.68 75.5,177.5C 74.5713,176.311 74.238,174.978 74.5,173.5C 75.5,173.5 76.5,173.5 77.5,173.5 Z"/></g>
<g><path style="opacity:1" fill="#7a7b7b" d="M 87.5,172.5 C 88.7773,173.694 89.4439,175.36 89.5,177.5C 89.1667,179.167 88.8333,180.833 88.5,182.5C 86.9373,181.055 85.604,179.389 84.5,177.5C 85.3554,176.707 86.1887,177.04 87,178.5C 87.4955,176.527 87.6621,174.527 87.5,172.5 Z"/></g>
<g><path style="opacity:1" fill="#6e6f6e" d="M 107.5,172.5 C 108.777,173.694 109.444,175.36 109.5,177.5C 109.167,179.167 108.833,180.833 108.5,182.5C 107.513,179.232 107.18,175.898 107.5,172.5 Z"/></g>
<g><path style="opacity:1" fill="#f6f6f6" d="M 118.5,181.5 C 116.435,181.483 114.435,181.15 112.5,180.5C 111.79,177.115 112.956,174.781 116,173.5C 119.596,175.202 120.43,177.868 118.5,181.5 Z"/></g>
<g><path style="opacity:1" fill="#161917" d="M 128.5,180.5 C 129.317,178.031 129.817,175.365 130,172.5C 130.824,175.882 130.657,179.216 129.5,182.5C 128.702,182.043 128.369,181.376 128.5,180.5 Z"/></g>
<g><path style="opacity:1" fill="#454746" d="M 142.5,172.5 C 143.477,175.287 143.81,178.287 143.5,181.5C 145.199,181.34 146.866,181.506 148.5,182C 146.527,182.495 144.527,182.662 142.5,182.5C 142.5,179.167 142.5,175.833 142.5,172.5 Z"/></g>
<g><path style="opacity:1" fill="#202321" d="M 159.5,173.5 C 157.833,173.5 156.167,173.5 154.5,173.5C 154.5,176.167 154.5,178.833 154.5,181.5C 156.167,181.5 157.833,181.5 159.5,181.5C 157.735,182.461 155.735,182.795 153.5,182.5C 153.5,179.167 153.5,175.833 153.5,172.5C 155.735,172.205 157.735,172.539 159.5,173.5 Z"/></g>
<g><path style="opacity:1" fill="#f0f0f1" d="M 159.5,173.5 C 160.833,176.167 160.833,178.833 159.5,181.5C 157.833,181.5 156.167,181.5 154.5,181.5C 154.5,178.833 154.5,176.167 154.5,173.5C 156.167,173.5 157.833,173.5 159.5,173.5 Z"/></g>
<g><path style="opacity:1" fill="#1a1d1c" d="M 175.5,172.5 C 176.477,175.287 176.81,178.287 176.5,181.5C 181.5,182.003 181.167,182.336 175.5,182.5C 175.5,179.167 175.5,175.833 175.5,172.5 Z"/></g>
<g><path style="opacity:1" fill="#626463" d="M 181.5,172.5 C 182.713,173.497 182.546,174.497 181,175.5C 180.53,174.423 180.697,173.423 181.5,172.5 Z"/></g>
<g><path style="opacity:1" fill="#626363" d="M 198.5,173.5 C 202.967,172.138 204.633,172.138 203.5,173.5C 202.833,185.5 202.167,185.5 201.5,173.5C 200.5,173.5 199.5,173.5 198.5,173.5 Z"/></g>
<g><path style="opacity:1" fill="#f5f5f5" d="M 232.5,173.5 C 232.778,175.346 232.111,176.68 230.5,177.5C 229.571,176.311 229.238,174.978 229.5,173.5C 230.5,173.5 231.5,173.5 232.5,173.5 Z"/></g>
<g><path style="opacity:1" fill="#828383" d="M 247.5,172.5 C 248.777,173.694 249.444,175.36 249.5,177.5C 249.167,179.167 248.833,180.833 248.5,182.5C 247.513,179.232 247.18,175.898 247.5,172.5 Z"/></g>
<g><path style="opacity:1" fill="#171a19" d="M 99.5,173.5 C 103.991,172.259 105.324,172.259 103.5,173.5C 103.167,185.5 102.833,185.5 102.5,173.5C 101.5,173.5 100.5,173.5 99.5,173.5 Z"/></g>
<g><path style="opacity:1" fill="#161a18" d="M 184.5,172.5 C 190.167,172.664 190.5,172.997 185.5,173.5C 185.5,176.167 185.5,178.833 185.5,181.5C 187.199,181.34 188.866,181.506 190.5,182C 188.527,182.495 186.527,182.662 184.5,182.5C 184.5,179.167 184.5,175.833 184.5,172.5 Z"/></g>
<g><path style="opacity:1" fill="#424444" d="M 11.5,175.5 C 10.9396,177.801 10.4396,180.134 10,182.5C 9.88392,179.068 8.71725,176.068 6.5,173.5C 6.66667,173.167 6.83333,172.833 7,172.5C 8,173.833 9,175.167 10,176.5C 10.3826,175.944 10.8826,175.611 11.5,175.5 Z"/></g>
<g><path style="opacity:1" fill="#363837" d="M 125.5,175.5 C 124.883,175.389 124.383,175.056 124,174.5C 123.667,177.167 123.333,179.833 123,182.5C 122.176,179.118 122.343,175.784 123.5,172.5C 124.919,173.005 125.585,174.005 125.5,175.5 Z"/></g>
<g><path style="opacity:1" fill="#404241" d="M 211.5,172.5 C 216.667,171.492 218.334,173.325 216.5,178C 215.207,178.49 213.873,178.657 212.5,178.5C 212.657,179.873 212.49,181.207 212,182.5C 211.502,179.183 211.335,175.85 211.5,172.5 Z"/></g>
<g><path style="opacity:1" fill="#f4f4f4" d="M 212.5,173.5 C 214.346,173.222 215.68,173.889 216.5,175.5C 215.68,177.111 214.346,177.778 212.5,177.5C 212.5,176.167 212.5,174.833 212.5,173.5 Z"/></g>
<g><path style="opacity:1" fill="#818382" d="M 53.5,177.5 C 53.7373,178.791 53.404,179.791 52.5,180.5C 51.5714,179.064 50.4048,177.731 49,176.5C 48.8078,178.577 48.3078,180.577 47.5,182.5C 46.1667,179.167 46.1667,175.833 47.5,172.5C 48.9051,174.907 50.9051,176.574 53.5,177.5 Z"/></g>
<g><path style="opacity:1" fill="#181b19" d="M 81.5,172.5 C 82.2891,172.783 82.9558,173.283 83.5,174C 82.7178,176.74 82.2178,179.574 82,182.5C 81.5017,179.183 81.335,175.85 81.5,172.5 Z"/></g>
<g><path style="opacity:1" fill="#3f4141" d="M 125.5,175.5 C 127.25,176.659 128.25,178.326 128.5,180.5C 126.75,179.341 125.75,177.674 125.5,175.5 Z"/></g>
<g><path style="opacity:1" fill="#686a6a" d="M 159.5,173.5 C 161.439,174.014 162.439,175.347 162.5,177.5C 162.439,179.653 161.439,180.986 159.5,181.5C 160.833,178.833 160.833,176.167 159.5,173.5 Z"/></g>
<g><path style="opacity:1" fill="#4f5150" d="M 192.5,172.5 C 198.167,172.664 198.5,172.997 193.5,173.5C 194.214,175.874 195.548,177.874 197.5,179.5C 197.333,180.167 197.167,180.833 197,181.5C 196.249,178.951 194.582,177.284 192,176.5C 191.421,175.072 191.588,173.738 192.5,172.5 Z"/></g>
<g><path style="opacity:1" fill="#4f5150" d="M 240.5,172.5 C 246.167,172.664 246.5,172.997 241.5,173.5C 242.214,175.874 243.548,177.874 245.5,179.5C 245.333,180.167 245.167,180.833 245,181.5C 244.249,178.951 242.582,177.284 240,176.5C 239.421,175.072 239.588,173.738 240.5,172.5 Z"/></g>
<g><path style="opacity:1" fill="#171a18" d="M 261.5,174.5 C 260.683,176.969 260.183,179.635 260,182.5C 259.176,179.118 259.343,175.784 260.5,172.5C 261.298,172.957 261.631,173.624 261.5,174.5 Z"/></g>
<g><path style="opacity:1" fill="#3b3d3c" d="M 65.5,172.5 C 71.1667,172.664 71.5,172.997 66.5,173.5C 66.5,174.5 66.5,175.5 66.5,176.5C 71.8333,176.833 71.8333,177.167 66.5,177.5C 66.5,178.833 66.5,180.167 66.5,181.5C 71.5,182.003 71.1667,182.336 65.5,182.5C 65.5,179.167 65.5,175.833 65.5,172.5 Z"/></g>
<g><path style="opacity:1" fill="#3a3c3b" d="M 164.5,172.5 C 170.167,172.664 170.5,172.997 165.5,173.5C 165.5,174.5 165.5,175.5 165.5,176.5C 170.833,176.833 170.833,177.167 165.5,177.5C 165.5,178.833 165.5,180.167 165.5,181.5C 170.5,182.003 170.167,182.336 164.5,182.5C 164.5,179.167 164.5,175.833 164.5,172.5 Z"/></g>
<g><path style="opacity:1" fill="#383a39" d="M 96.5,175.5 C 97.9048,177.64 98.7381,179.974 99,182.5C 96.5582,178.538 94.2248,178.538 92,182.5C 91.8789,178.696 93.0456,175.362 95.5,172.5C 96.3857,173.325 96.719,174.325 96.5,175.5 Z"/></g>
<g><path style="opacity:1" fill="#ededed" d="M 96.5,175.5 C 96.5,176.5 96.5,177.5 96.5,178.5C 93.316,178.668 92.816,177.334 95,174.5C 95.3826,175.056 95.8826,175.389 96.5,175.5 Z"/></g>
<g><path style="opacity:1" fill="#474948" d="M 137.5,174.5 C 139.431,176.794 140.264,179.461 140,182.5C 137.667,178.5 135.333,178.5 133,182.5C 133.025,180.08 133.691,177.747 135,175.5C 136.494,179.304 137.328,178.971 137.5,174.5 Z"/></g>
<g><path style="opacity:1" fill="#414242" d="M 220.5,172.5 C 221.496,172.414 222.329,172.748 223,173.5C 224.318,176.43 224.985,179.43 225,182.5C 222.775,178.538 220.442,178.538 218,182.5C 218.494,179.164 219.328,175.831 220.5,172.5 Z"/></g>
<g><path style="opacity:1" fill="#e8e8e9" d="M 221.5,174.5 C 223.94,177.078 223.606,178.412 220.5,178.5C 220.433,177.041 220.766,175.708 221.5,174.5 Z"/></g>
<g><path style="opacity:1" fill="#333534" d="M 251.5,172.5 C 253.527,172.338 255.527,172.505 257.5,173C 255.866,173.494 254.199,173.66 252.5,173.5C 252.5,174.5 252.5,175.5 252.5,176.5C 257.539,176.451 257.705,177.118 253,178.5C 252.517,179.448 252.351,180.448 252.5,181.5C 254.199,181.34 255.866,181.506 257.5,182C 255.527,182.495 253.527,182.662 251.5,182.5C 251.5,179.167 251.5,175.833 251.5,172.5 Z"/></g>
<g><path style="opacity:1" fill="#252726" d="M 52.5,180.5 C 53.404,179.791 53.7373,178.791 53.5,177.5C 54.5763,172.981 54.5763,174.648 53.5,182.5C 52.7025,182.043 52.3691,181.376 52.5,180.5 Z"/></g>
<g><path style="opacity:1" fill="#676868" d="M 77.5,178.5 C 79.4759,179.427 79.8092,180.76 78.5,182.5C 77.5713,181.311 77.238,179.978 77.5,178.5 Z"/></g>
<g><path style="opacity:1" fill="#5a5c5c" d="M 232.5,178.5 C 234.088,179.635 234.421,180.969 233.5,182.5C 232.571,181.311 232.238,179.978 232.5,178.5 Z"/></g>
<g><path style="opacity:1" fill="#454746" d="M 16.5,172.5 C 23.5306,172.519 23.864,173.019 17.5,174C 14.3662,179.248 16.0329,181.915 22.5,182C 14.424,182.805 12.424,179.638 16.5,172.5 Z"/></g>
<g><path style="opacity:1" fill="#434546" d="M 112.5,180.5 C 114.435,181.15 116.435,181.483 118.5,181.5C 117.903,182.139 117.07,182.472 116,182.5C 114.301,182.613 113.134,181.947 112.5,180.5 Z"/></g>
</svg>
