<?xml version="1.0" encoding="UTF-8"?>
<!DOCTYPE svg PUBLIC "-//W3C//DTD SVG 1.1//EN" "http://www.w3.org/Graphics/SVG/1.1/DTD/svg11.dtd">
<svg xmlns="http://www.w3.org/2000/svg" version="1.1" width="1293px" height="1054px" style="shape-rendering:geometricPrecision; text-rendering:geometricPrecision; image-rendering:optimizeQuality; fill-rule:evenodd; clip-rule:evenodd" xmlns:xlink="http://www.w3.org/1999/xlink">
<g><path style="opacity:0.994" fill="#003545" d="M 1268.5,-0.5 C 1272.17,-0.5 1275.83,-0.5 1279.5,-0.5C 1288.35,3.19767 1292.68,9.86434 1292.5,19.5C 1292.5,22.8333 1292.5,26.1667 1292.5,29.5C 1291.86,56.264 1283.36,80.264 1267,101.5C 1259.8,109.031 1252.3,116.198 1244.5,123C 1223.55,137.613 1202.89,152.613 1182.5,168C 1169.68,178.471 1159.52,190.971 1152,205.5C 1148.6,214.363 1145.6,223.363 1143,232.5C 1132.35,277.762 1122.02,323.095 1112,368.5C 1101,416.16 1086,462.493 1067,507.5C 1050.22,547.247 1026.39,582.08 995.5,612C 981.939,623.371 967.106,632.871 951,640.5C 952.495,621.207 953.662,601.874 954.5,582.5C 952.856,582.286 951.356,582.62 950,583.5C 934.114,629.632 910.781,671.299 880,708.5C 840.229,753.307 790.729,780.807 731.5,791C 723.153,792.118 714.82,792.285 706.5,791.5C 743.142,753.248 770.976,709.248 790,659.5C 800.472,629.982 805.972,599.649 806.5,568.5C 802.11,572.263 798.943,576.93 797,582.5C 790.174,602.978 782.174,622.978 773,642.5C 768.256,650.579 762.09,657.412 754.5,663C 741.295,665.326 727.961,666.493 714.5,666.5C 703.161,666.133 691.828,665.633 680.5,665C 629.883,659.173 579.216,653.839 528.5,649C 479.496,644.668 433.163,653.668 389.5,676C 351.5,699 313.5,722 275.5,745C 247.071,758.548 218.404,771.548 189.5,784C 162.938,793.366 135.605,797.033 107.5,795C 105.481,794.55 103.648,793.717 102,792.5C 100.466,788.289 100.133,783.956 101,779.5C 102.449,774.601 104.449,769.935 107,765.5C 118.554,748.225 130.721,731.391 143.5,715C 136.167,710.667 128.833,706.333 121.5,702C 110.5,693 99.5,684 88.5,675C 82.8223,671.159 76.8223,667.826 70.5,665C 69.4829,663.951 69.3162,662.784 70,661.5C 81.9005,645.611 97.7338,636.445 117.5,634C 131.526,633.237 145.526,633.571 159.5,635C 188.135,639.55 216.802,643.884 245.5,648C 255.833,648.667 266.167,648.667 276.5,648C 281.519,647.327 286.186,645.66 290.5,643C 299.975,633.857 309.142,624.357 318,614.5C 332.272,594.294 347.272,574.627 363,555.5C 392.187,525.001 425.687,500.501 463.5,482C 471.422,478.803 479.422,475.803 487.5,473C 568.833,445.667 650.167,418.333 731.5,391C 770.942,376.447 807.942,357.447 842.5,334C 865.12,316.382 884.62,295.882 901,272.5C 910.249,259.005 919.249,245.338 928,231.5C 944.415,203.002 961.081,174.669 978,146.5C 992.208,123.616 1008.71,102.449 1027.5,83C 1059.38,51.5605 1097.72,33.2272 1142.5,28C 1161.46,26.1274 1180.46,24.7941 1199.5,24C 1208.02,22.7857 1216.36,20.7857 1224.5,18C 1238.67,10.4053 1253.34,4.23863 1268.5,-0.5 Z"/></g>
<g><path style="opacity:0.951" fill="#003545" d="M 626.5,864.5 C 640.638,863.222 648.638,869.555 650.5,883.5C 648.177,897.677 639.843,903.51 625.5,901C 614.352,896.54 610.186,888.374 613,876.5C 615.443,870.051 619.943,866.051 626.5,864.5 Z"/></g>
<g><path style="opacity:0.974" fill="#003545" d="M -0.5,1050.5 C -0.5,1050.17 -0.5,1049.83 -0.5,1049.5C 15.1401,989.611 30.8068,929.611 46.5,869.5C 57.1667,868.167 67.8333,868.167 78.5,869.5C 99.2364,915.542 120.07,961.542 141,1007.5C 161.667,961.5 182.333,915.5 203,869.5C 213.752,868.513 224.585,868.18 235.5,868.5C 250.833,929.167 266.167,989.833 281.5,1050.5C 269.482,1050.83 257.482,1050.5 245.5,1049.5C 235.181,1007.06 224.681,964.727 214,922.5C 195.023,965.101 175.857,1007.6 156.5,1050C 145.923,1050.82 135.423,1050.65 125,1049.5C 106,1007.5 87,965.5 68,923.5C 56.7218,965.279 46.0551,1007.28 36,1049.5C 23.9136,1050.49 11.747,1050.82 -0.5,1050.5 Z"/></g>
<g><path style="opacity:0.958" fill="#003545" d="M 887.5,868.5 C 920.168,868.333 952.835,868.5 985.5,869C 1018.22,870.601 1043.72,884.768 1062,911.5C 1076.05,941.05 1077.05,971.05 1065,1001.5C 1049.39,1030.71 1024.89,1046.88 991.5,1050C 956.835,1050.5 922.168,1050.67 887.5,1050.5C 887.5,989.833 887.5,929.167 887.5,868.5 Z M 911.5,885.5 C 935.502,885.333 959.502,885.5 983.5,886C 1025.75,892.096 1047.42,916.596 1048.5,959.5C 1048.22,977.975 1042.72,994.642 1032,1009.5C 1020.08,1022.71 1005.24,1030.55 987.5,1033C 962.169,1033.5 936.836,1033.67 911.5,1033.5C 911.5,984.167 911.5,934.833 911.5,885.5 Z"/></g>
<g><path style="opacity:0.959" fill="#003545" d="M 1107.5,868.5 C 1145.17,868.333 1182.83,868.5 1220.5,869C 1265.25,872.737 1280.75,895.903 1267,938.5C 1260.53,947.657 1251.7,953.157 1240.5,955C 1265.76,960.104 1278.43,975.604 1278.5,1001.5C 1278.31,1025.52 1266.65,1040.68 1243.5,1047C 1238.59,1048.48 1233.59,1049.48 1228.5,1050C 1188.17,1050.5 1147.83,1050.67 1107.5,1050.5C 1107.5,989.833 1107.5,929.167 1107.5,868.5 Z M 1130.5,884.5 C 1158.5,884.333 1186.5,884.5 1214.5,885C 1242.48,887.329 1252.98,902.162 1246,929.5C 1241.91,937.581 1235.41,942.747 1226.5,945C 1222.89,945.945 1219.22,946.612 1215.5,947C 1187.17,947.5 1158.84,947.667 1130.5,947.5C 1130.5,926.5 1130.5,905.5 1130.5,884.5 Z M 1130.5,963.5 C 1157.84,963.333 1185.17,963.5 1212.5,964C 1248.32,966.487 1260.48,984.654 1249,1018.5C 1240.88,1028.31 1230.38,1033.47 1217.5,1034C 1188.5,1034.5 1159.5,1034.67 1130.5,1034.5C 1130.5,1010.83 1130.5,987.167 1130.5,963.5 Z"/></g>
<g><path style="opacity:0.975" fill="#003545" d="M 375.5,1053.5 C 368.167,1053.5 360.833,1053.5 353.5,1053.5C 313.55,1046.36 292.55,1022.36 290.5,981.5C 293.609,938.058 316.942,915.725 360.5,914.5C 381.559,913.57 399.392,920.57 414,935.5C 414.499,929.509 414.666,923.509 414.5,917.5C 426.167,917.5 437.833,917.5 449.5,917.5C 449.5,961.833 449.5,1006.17 449.5,1050.5C 437.833,1050.5 426.167,1050.5 414.5,1050.5C 414.666,1044.49 414.499,1038.49 414,1032.5C 403.884,1044.64 391.051,1051.64 375.5,1053.5 Z M 365.5,939.5 C 402.447,940.273 418.947,958.939 415,995.5C 406.716,1020.91 389.216,1031.41 362.5,1027C 336.633,1019.14 325.466,1001.64 329,974.5C 333.576,954.754 345.743,943.088 365.5,939.5 Z"/></g>
<g><path style="opacity:0.959" fill="#003545" d="M 565.5,914.5 C 571.842,914.334 578.175,914.5 584.5,915C 588.779,915.26 592.779,916.427 596.5,918.5C 593.697,926.714 591.364,935.047 589.5,943.5C 583.185,942.726 576.851,942.059 570.5,941.5C 547.876,942.895 533.71,954.562 528,976.5C 527.5,1001.16 527.333,1025.83 527.5,1050.5C 515.5,1050.5 503.5,1050.5 491.5,1050.5C 491.5,1006.17 491.5,961.833 491.5,917.5C 503.5,917.5 515.5,917.5 527.5,917.5C 527.334,925.84 527.5,934.173 528,942.5C 536.524,927.673 549.024,918.339 565.5,914.5 Z"/></g>
<g><path style="opacity:0.975" fill="#003545" d="M 761.5,1053.5 C 754.167,1053.5 746.833,1053.5 739.5,1053.5C 693.346,1043.61 672.846,1014.95 678,967.5C 686.937,932.081 709.77,914.414 746.5,914.5C 767.559,913.57 785.392,920.57 800,935.5C 800.499,929.509 800.666,923.509 800.5,917.5C 812.167,917.5 823.833,917.5 835.5,917.5C 835.5,961.833 835.5,1006.17 835.5,1050.5C 823.833,1050.5 812.167,1050.5 800.5,1050.5C 800.666,1044.49 800.499,1038.49 800,1032.5C 789.957,1044.61 777.123,1051.61 761.5,1053.5 Z M 751.5,939.5 C 788.447,940.273 804.947,958.939 801,995.5C 792.716,1020.91 775.216,1031.41 748.5,1027C 722.636,1019.15 711.47,1001.65 715,974.5C 719.585,954.745 731.752,943.079 751.5,939.5 Z"/></g>
<g><path style="opacity:0.977" fill="#003545" d="M 653.5,1053.5 C 647.5,1053.5 641.5,1053.5 635.5,1053.5C 623.768,1050.93 616.935,1043.6 615,1031.5C 613.544,993.531 613.044,955.531 613.5,917.5C 625.167,917.5 636.833,917.5 648.5,917.5C 648.333,950.502 648.5,983.502 649,1016.5C 648.947,1019.61 650.114,1022.11 652.5,1024C 655.775,1024.07 658.942,1024.24 662,1024.5C 663.457,1032.79 665.29,1040.96 667.5,1049C 662.873,1051.04 658.206,1052.54 653.5,1053.5 Z"/></g>
</svg>
