<?xml version="1.0" encoding="UTF-8"?>
<!DOCTYPE svg PUBLIC "-//W3C//DTD SVG 1.1//EN" "http://www.w3.org/Graphics/SVG/1.1/DTD/svg11.dtd">
<svg xmlns="http://www.w3.org/2000/svg" version="1.1" width="771px" height="372px" style="shape-rendering:geometricPrecision; text-rendering:geometricPrecision; image-rendering:optimizeQuality; fill-rule:evenodd; clip-rule:evenodd" xmlns:xlink="http://www.w3.org/1999/xlink">
<g><path style="opacity:1" fill="#fefefe" d="M -0.5,-0.5 C 256.5,-0.5 513.5,-0.5 770.5,-0.5C 770.5,123.5 770.5,247.5 770.5,371.5C 513.5,371.5 256.5,371.5 -0.5,371.5C -0.5,247.5 -0.5,123.5 -0.5,-0.5 Z"/></g>
<g><path style="opacity:1" fill="#8c8c8c" d="M 452.5,93.5 C 454.027,93.427 455.027,94.0937 455.5,95.5C 453.973,95.573 452.973,94.9063 452.5,93.5 Z"/></g>
<g><path style="opacity:1" fill="#191919" d="M 705.5,93.5 C 705.973,94.9063 706.973,95.573 708.5,95.5C 711.529,97.372 713.695,100.039 715,103.5C 718.024,114.766 714.524,123.099 704.5,128.5C 699.5,129.833 694.5,129.833 689.5,128.5C 687.326,128.25 685.659,127.25 684.5,125.5C 683.833,124.167 682.833,123.167 681.5,122.5C 676.411,114.747 676.244,106.747 681,98.5C 683.585,96.2419 686.418,94.4086 689.5,93C 694.917,92.2185 700.25,92.3852 705.5,93.5 Z"/></g>
<g><path style="opacity:1" fill="#030303" d="M 74.5,95.5 C 75.7942,96.2899 76.9609,97.2899 78,98.5C 79.5816,106.062 83.7483,111.396 90.5,114.5C 91.0798,116.749 92.4131,118.415 94.5,119.5C 102.413,131.422 110.746,143.088 119.5,154.5C 121.296,157.048 122.962,157.048 124.5,154.5C 124.07,136.3 124.736,118.3 126.5,100.5C 127.906,100.027 128.573,99.0269 128.5,97.5C 129.167,97.5 129.5,97.1667 129.5,96.5C 136.167,96.5 142.833,96.5 149.5,96.5C 155.6,98.6117 159.266,102.945 160.5,109.5C 160.171,122.344 160.505,135.011 161.5,147.5C 161.681,159.049 161.014,170.549 159.5,182C 159.701,185.723 160.367,189.223 161.5,192.5C 161.95,199.661 161.283,206.661 159.5,213.5C 156.945,216.27 153.945,218.27 150.5,219.5C 146.802,219.448 143.135,219.114 139.5,218.5C 126.738,218.104 117.405,212.104 111.5,200.5C 110.89,198.566 109.89,196.899 108.5,195.5C 108.34,193.847 107.674,192.514 106.5,191.5C 106.573,189.973 105.906,188.973 104.5,188.5C 103.91,187.234 103.41,185.901 103,184.5C 100.613,181.043 97.7798,178.043 94.5,175.5C 93.5806,172.911 91.914,170.911 89.5,169.5C 89.573,167.973 88.9063,166.973 87.5,166.5C 87.2451,164.033 86.2451,162.033 84.5,160.5C 83.018,156.171 80.518,155.504 77,158.5C 76.5007,163.489 76.3341,168.489 76.5,173.5C 75.9602,183.418 74.9602,193.418 73.5,203.5C 73.481,206.239 74.1477,208.739 75.5,211C 75.2421,213.009 74.5755,214.843 73.5,216.5C 66.3138,218.297 58.9804,218.963 51.5,218.5C 49.742,218.123 48.0754,217.456 46.5,216.5C 45.4787,214.812 44.1454,213.479 42.5,212.5C 42.4549,204.656 42.1216,196.823 41.5,189C 41.3293,184.645 41.996,180.478 43.5,176.5C 44.3981,174.095 45.8981,172.095 48,170.5C 50,166.833 50,163.167 48,159.5C 46.2359,157.611 44.7359,155.611 43.5,153.5C 43.4828,151.435 43.1495,149.435 42.5,147.5C 41.8375,131.861 42.0042,116.195 43,100.5C 44.0386,99.7562 44.5386,98.7562 44.5,97.5C 49.547,97.6625 54.547,97.3292 59.5,96.5C 64.4198,94.5571 69.4198,94.2238 74.5,95.5 Z"/></g>
<g><path style="opacity:1" fill="#636363" d="M 74.5,95.5 C 69.4198,94.2238 64.4198,94.5571 59.5,96.5C 59.62,95.4138 60.2867,94.7472 61.5,94.5C 65.4649,93.4701 69.4649,93.3035 73.5,94C 74.056,94.3826 74.3893,94.8826 74.5,95.5 Z"/></g>
<g><path style="opacity:1" fill="#939393" d="M 149.5,96.5 C 142.833,96.5 136.167,96.5 129.5,96.5C 129.918,95.7784 130.584,95.2784 131.5,95C 134,94.8333 136.5,94.6667 139,94.5C 142.805,94.3037 146.305,94.9704 149.5,96.5 Z"/></g>
<g><path style="opacity:1" fill="#060606" d="M 452.5,93.5 C 452.973,94.9063 453.973,95.573 455.5,95.5C 456.942,96.8195 457.608,98.4862 457.5,100.5C 457.85,105.031 457.183,109.364 455.5,113.5C 454.833,113.5 454.5,113.833 454.5,114.5C 446.853,115.757 439.187,115.757 431.5,114.5C 430.488,113.128 429.488,111.795 428.5,110.5C 428.307,106.434 428.64,102.434 429.5,98.5C 429.5,97.8333 429.833,97.5 430.5,97.5C 431.833,96.8333 432.833,95.8333 433.5,94.5C 439.645,93.5098 445.978,93.1765 452.5,93.5 Z"/></g>
<g><path style="opacity:1" fill="#939393" d="M 705.5,93.5 C 707.027,93.427 708.027,94.0937 708.5,95.5C 706.973,95.573 705.973,94.9063 705.5,93.5 Z"/></g>
<g><path style="opacity:1" fill="#575757" d="M 433.5,94.5 C 432.833,95.8333 431.833,96.8333 430.5,97.5C 430.5,95.5 431.5,94.5 433.5,94.5 Z"/></g>
<g><path style="opacity:1" fill="#e5e5e5" d="M 709.5,103.5 C 710.344,107.099 710.677,110.766 710.5,114.5C 709.679,119.32 707.012,122.653 702.5,124.5C 697.77,124.717 693.103,124.383 688.5,123.5C 686.833,122.5 685.5,121.167 684.5,119.5C 685.5,119.5 686.5,119.5 687.5,119.5C 687.666,113.491 687.499,107.491 687,101.5C 686.329,102.252 685.496,102.586 684.5,102.5C 688.611,96.4501 694.278,94.2834 701.5,96C 704.692,98.0282 707.359,100.528 709.5,103.5 Z"/></g>
<g><path style="opacity:1" fill="#777777" d="M 128.5,97.5 C 128.573,99.0269 127.906,100.027 126.5,100.5C 126.427,98.9731 127.094,97.9731 128.5,97.5 Z"/></g>
<g><path style="opacity:1" fill="#f3f3f3" d="M 684.5,119.5 C 681.833,113.833 681.833,108.167 684.5,102.5C 685.496,102.586 686.329,102.252 687,101.5C 687.499,107.491 687.666,113.491 687.5,119.5C 686.5,119.5 685.5,119.5 684.5,119.5 Z"/></g>
<g><path style="opacity:1" fill="#141414" d="M 699.5,115.5 C 698.685,113.092 697.019,112.259 694.5,113C 693.565,115.381 693.232,117.881 693.5,120.5C 692.167,120.5 690.833,120.5 689.5,120.5C 689.5,114.167 689.5,107.833 689.5,101.5C 693.514,101.334 697.514,101.501 701.5,102C 703.852,102.576 704.852,104.076 704.5,106.5C 704.234,108.66 703.234,110.326 701.5,111.5C 702.242,112.287 703.075,112.953 704,113.5C 704.311,115.556 704.811,117.556 705.5,119.5C 703.955,120.452 702.288,120.785 700.5,120.5C 700.371,118.784 700.038,117.117 699.5,115.5 Z"/></g>
<g><path style="opacity:1" fill="#7b7b7b" d="M 429.5,98.5 C 428.64,102.434 428.307,106.434 428.5,110.5C 427.357,107.024 427.19,103.358 428,99.5C 428.383,98.944 428.883,98.6107 429.5,98.5 Z"/></g>
<g><path style="opacity:1" fill="#858585" d="M 699.5,105.5 C 697.833,105.5 696.167,105.5 694.5,105.5C 694.5,106.833 694.5,108.167 694.5,109.5C 695.833,109.5 697.167,109.5 698.5,109.5C 697.081,110.451 695.415,110.784 693.5,110.5C 693.244,108.208 693.577,106.041 694.5,104C 696.674,103.123 698.341,103.623 699.5,105.5 Z"/></g>
<g><path style="opacity:1" fill="#e5e5e5" d="M 699.5,105.5 C 700.853,107.128 700.519,108.462 698.5,109.5C 697.167,109.5 695.833,109.5 694.5,109.5C 694.5,108.167 694.5,106.833 694.5,105.5C 696.167,105.5 697.833,105.5 699.5,105.5 Z"/></g>
<g><path style="opacity:1" fill="#b7b7b7" d="M 457.5,100.5 C 458.643,103.976 458.81,107.642 458,111.5C 457.583,112.756 456.75,113.423 455.5,113.5C 457.183,109.364 457.85,105.031 457.5,100.5 Z"/></g>
<g><path style="opacity:1" fill="#737373" d="M 709.5,103.5 C 710.117,103.611 710.617,103.944 711,104.5C 711.808,108.027 711.641,111.36 710.5,114.5C 710.677,110.766 710.344,107.099 709.5,103.5 Z"/></g>
<g><path style="opacity:1" fill="#a1a1a1" d="M 699.5,115.5 C 697.958,114.699 696.292,114.366 694.5,114.5C 694.795,116.735 694.461,118.735 693.5,120.5C 693.232,117.881 693.565,115.381 694.5,113C 697.019,112.259 698.685,113.092 699.5,115.5 Z"/></g>
<g><path style="opacity:1" fill="#424242" d="M 90.5,114.5 C 92.5869,115.585 93.9202,117.251 94.5,119.5C 92.4131,118.415 91.0798,116.749 90.5,114.5 Z"/></g>
<g><path style="opacity:1" fill="#525252" d="M 431.5,114.5 C 439.187,115.757 446.853,115.757 454.5,114.5C 454.389,115.117 454.056,115.617 453.5,116C 446.833,116.667 440.167,116.667 433.5,116C 432.584,115.722 431.918,115.222 431.5,114.5 Z"/></g>
<g><path style="opacity:1" fill="#414141" d="M 44.5,97.5 C 44.5386,98.7562 44.0386,99.7562 43,100.5C 42.0042,116.195 41.8375,131.861 42.5,147.5C 42.1667,147.5 41.8333,147.5 41.5,147.5C 40.8102,131.568 40.9769,115.568 42,99.5C 42.7083,98.6195 43.5416,97.9528 44.5,97.5 Z"/></g>
<g><path style="opacity:1" fill="#a5a5a5" d="M 160.5,109.5 C 161.954,114.423 162.621,119.589 162.5,125C 161.988,132.495 161.654,139.995 161.5,147.5C 160.505,135.011 160.171,122.344 160.5,109.5 Z"/></g>
<g><path style="opacity:1" fill="#858585" d="M 681.5,122.5 C 682.833,123.167 683.833,124.167 684.5,125.5C 682.5,125.5 681.5,124.5 681.5,122.5 Z"/></g>
<g><path style="opacity:1" fill="#d9d8d9" d="M 654.5,125.5 C 647.313,125.175 640.313,125.509 633.5,126.5C 630.43,126.368 627.43,126.701 624.5,127.5C 626.658,125.78 629.325,124.947 632.5,125C 640.012,124.178 647.345,124.345 654.5,125.5 Z"/></g>
<g><path style="opacity:1" fill="#919191" d="M 688.5,123.5 C 693.103,124.383 697.77,124.717 702.5,124.5C 698.384,126.958 694.05,127.124 689.5,125C 688.944,124.617 688.611,124.117 688.5,123.5 Z"/></g>
<g><path style="opacity:1" fill="#969696" d="M 633.5,126.5 C 640.313,125.509 647.313,125.175 654.5,125.5C 658.489,125.116 662.155,125.783 665.5,127.5C 654.865,126.596 644.198,126.263 633.5,126.5 Z"/></g>
<g><path style="opacity:1" fill="#030303" d="M 354.5,128.5 C 354.973,129.906 355.973,130.573 357.5,130.5C 360.308,132.407 363.308,134.073 366.5,135.5C 369.085,134.258 371.418,132.591 373.5,130.5C 379.775,129.582 386.108,129.249 392.5,129.5C 395.849,130.169 398.516,131.836 400.5,134.5C 401.392,139.438 401.726,144.438 401.5,149.5C 400.655,150.671 399.989,152.005 399.5,153.5C 398.883,153.611 398.383,153.944 398,154.5C 397.183,160.016 397.349,165.35 398.5,170.5C 399.951,178.623 400.784,186.956 401,195.5C 401.513,196.527 402.013,197.527 402.5,198.5C 402.666,208.524 402.332,218.524 401.5,228.5C 400.758,230.98 399.758,233.313 398.5,235.5C 396.413,236.585 395.08,238.251 394.5,240.5C 389.651,245.61 383.984,249.777 377.5,253C 373.339,253.667 369.339,253.167 365.5,251.5C 365.389,250.883 365.056,250.383 364.5,250C 360.167,249.333 355.833,249.333 351.5,250C 350.944,250.383 350.611,250.883 350.5,251.5C 341.943,253.415 333.277,253.915 324.5,253C 320.142,251.828 316.475,249.661 313.5,246.5C 312.167,244.5 310.5,242.833 308.5,241.5C 308.204,239.597 307.537,237.93 306.5,236.5C 306.5,233.167 306.5,229.833 306.5,226.5C 306.833,225.5 307.5,224.833 308.5,224.5C 313.213,223.503 317.88,223.837 322.5,225.5C 326.25,227.651 330.25,228.984 334.5,229.5C 337.003,230.371 339.67,231.037 342.5,231.5C 350.875,236.125 358.542,235.125 365.5,228.5C 367.067,227.319 367.901,225.653 368,223.5C 368.667,218.5 368.667,213.5 368,208.5C 362.795,206.625 358.295,207.625 354.5,211.5C 352.86,212.32 351.193,213.153 349.5,214C 336.016,217.901 325.682,214.067 318.5,202.5C 318.204,200.597 317.537,198.93 316.5,197.5C 315.691,195.972 315.024,194.306 314.5,192.5C 313.92,190.251 312.587,188.585 310.5,187.5C 309.496,186.317 308.662,184.984 308,183.5C 307.333,171.5 307.333,159.5 308,147.5C 308.791,146.255 309.291,144.922 309.5,143.5C 311.199,141.434 312.532,139.1 313.5,136.5C 314.5,134.833 315.833,133.5 317.5,132.5C 319.027,132.573 320.027,131.906 320.5,130.5C 322.967,130.245 324.967,129.245 326.5,127.5C 335.919,125.943 345.252,126.277 354.5,128.5 Z"/></g>
<g><path style="opacity:1" fill="#050505" d="M 633.5,126.5 C 644.198,126.263 654.865,126.596 665.5,127.5C 665.611,128.117 665.944,128.617 666.5,129C 669.546,129.739 672.546,130.572 675.5,131.5C 678.432,132.8 680.766,134.8 682.5,137.5C 682.963,140.482 683.296,143.482 683.5,146.5C 680.029,150.017 675.696,151.683 670.5,151.5C 666.131,151.533 661.798,151.2 657.5,150.5C 657.027,149.094 656.027,148.427 654.5,148.5C 648.458,145.745 642.124,144.911 635.5,146C 634.944,146.383 634.611,146.883 634.5,147.5C 631.651,148.92 630.984,150.92 632.5,153.5C 633.249,154.531 633.915,155.698 634.5,157C 638.647,158.109 642.647,159.276 646.5,160.5C 648.515,161.924 650.848,162.59 653.5,162.5C 657.514,162.334 661.514,162.501 665.5,163C 669.385,165.442 673.385,167.608 677.5,169.5C 679.509,171.065 681.843,172.065 684.5,172.5C 687.223,175.062 689.389,178.062 691,181.5C 691.823,187.629 691.323,193.629 689.5,199.5C 687.842,202.088 686.175,204.755 684.5,207.5C 684.5,207.833 684.5,208.167 684.5,208.5C 682.847,208.66 681.514,209.326 680.5,210.5C 678.62,210.229 677.287,210.896 676.5,212.5C 674.565,213.15 672.565,213.483 670.5,213.5C 667.273,213.676 664.273,214.343 661.5,215.5C 659.973,215.427 658.973,216.094 658.5,217.5C 652.415,218.741 646.415,219.741 640.5,220.5C 637.167,220.5 633.833,220.5 630.5,220.5C 628.064,219.129 625.397,218.129 622.5,217.5C 619.417,216.007 616.083,215.007 612.5,214.5C 606.827,212.807 603.161,209.141 601.5,203.5C 601.448,201.097 601.781,198.764 602.5,196.5C 603.167,196.5 603.5,196.167 603.5,195.5C 612.407,193.312 621.407,192.979 630.5,194.5C 631.5,195.167 632.5,195.833 633.5,196.5C 642.061,204.061 650.895,204.394 660,197.5C 661.924,191.999 660.091,188.666 654.5,187.5C 652.485,186.076 650.152,185.41 647.5,185.5C 647.027,184.094 646.027,183.427 644.5,183.5C 642.632,182.737 640.965,181.737 639.5,180.5C 638.737,179.732 637.737,179.232 636.5,179C 629.452,178.761 622.452,178.261 615.5,177.5C 614.391,177.443 613.391,177.11 612.5,176.5C 612.027,175.094 611.027,174.427 609.5,174.5C 606.754,171.762 604.42,168.762 602.5,165.5C 601.167,158.5 601.167,151.5 602.5,144.5C 603.5,143.167 604.5,141.833 605.5,140.5C 606.906,140.027 607.573,139.027 607.5,137.5C 609.984,134.756 612.984,132.756 616.5,131.5C 618.027,131.573 619.027,130.906 619.5,129.5C 620.78,128.069 622.447,127.402 624.5,127.5C 627.43,126.701 630.43,126.368 633.5,126.5 Z"/></g>
<g><path style="opacity:1" fill="#040404" d="M 278.5,145.5 C 280.742,151.359 281.075,157.359 279.5,163.5C 278.84,164.964 278.507,166.631 278.5,168.5C 279.11,173.767 280.11,178.934 281.5,184C 280.358,190.329 280.358,196.496 281.5,202.5C 282.115,206.991 281.115,210.991 278.5,214.5C 269.975,216.705 261.309,217.039 252.5,215.5C 250.082,211.217 247.082,210.551 243.5,213.5C 241.847,213.66 240.514,214.326 239.5,215.5C 235.418,215.892 231.418,216.558 227.5,217.5C 223.786,217.59 220.452,218.59 217.5,220.5C 217.167,220.5 216.833,220.5 216.5,220.5C 210.41,220.487 204.41,219.82 198.5,218.5C 193.683,217.341 190.016,214.674 187.5,210.5C 187.573,208.973 186.906,207.973 185.5,207.5C 185.5,206.167 185.5,204.833 185.5,203.5C 185.334,197.491 185.501,191.491 186,185.5C 186.275,182.588 187.109,179.921 188.5,177.5C 189.992,174.677 192.326,173.01 195.5,172.5C 202.149,171.922 208.816,171.589 215.5,171.5C 217.674,171.25 219.341,170.25 220.5,168.5C 221.29,167.599 222.29,166.932 223.5,166.5C 225.403,166.204 227.07,165.537 228.5,164.5C 232.79,164.802 236.79,164.136 240.5,162.5C 244.731,162.596 248.065,160.93 250.5,157.5C 251.117,157.389 251.617,157.056 252,156.5C 252.805,153.304 252.638,150.304 251.5,147.5C 250.5,147.167 249.833,146.5 249.5,145.5C 248.376,144.191 246.876,143.525 245,143.5C 241.973,143.912 239.14,144.579 236.5,145.5C 236.167,145.5 235.833,145.5 235.5,145.5C 232.848,145.41 230.515,146.076 228.5,147.5C 227.391,147.557 226.391,147.89 225.5,148.5C 223.251,149.08 221.585,150.413 220.5,152.5C 219.833,152.5 219.5,152.833 219.5,153.5C 217.973,153.427 216.973,154.094 216.5,155.5C 208.799,155.691 201.132,155.358 193.5,154.5C 187.2,150.852 186.033,145.852 190,139.5C 191.039,138.29 192.206,137.29 193.5,136.5C 197.945,135.78 201.612,133.78 204.5,130.5C 207.855,130.31 210.855,129.31 213.5,127.5C 225.894,128.967 238.227,128.634 250.5,126.5C 263.258,127.873 272.591,134.206 278.5,145.5 Z"/></g>
<g><path style="opacity:1" fill="#5e5e5e" d="M 213.5,127.5 C 210.855,129.31 207.855,130.31 204.5,130.5C 207.084,128.528 210.084,127.528 213.5,127.5 Z"/></g>
<g><path style="opacity:1" fill="#484848" d="M 392.5,129.5 C 386.108,129.249 379.775,129.582 373.5,130.5C 374.058,129.21 375.058,128.377 376.5,128C 378.667,127.833 380.833,127.667 383,127.5C 386.477,127.328 389.644,127.994 392.5,129.5 Z"/></g>
<g><path style="opacity:1" fill="#3d3d3d" d="M 454.5,130.5 C 445.975,128.845 437.642,129.178 429.5,131.5C 429.953,130.542 430.619,129.708 431.5,129C 438.5,128.333 445.5,128.333 452.5,129C 453.416,129.278 454.082,129.778 454.5,130.5 Z"/></g>
<g><path style="opacity:1" fill="#575757" d="M 541.5,130.5 C 530.225,130.176 518.891,130.176 507.5,130.5C 518.323,129.243 529.323,128.743 540.5,129C 541.056,129.383 541.389,129.883 541.5,130.5 Z"/></g>
<g><path style="opacity:1" fill="#6e6e6e" d="M 326.5,127.5 C 324.967,129.245 322.967,130.245 320.5,130.5C 322.033,128.755 324.033,127.755 326.5,127.5 Z"/></g>
<g><path style="opacity:1" fill="#959595" d="M 354.5,128.5 C 356.027,128.427 357.027,129.094 357.5,130.5C 355.973,130.573 354.973,129.906 354.5,128.5 Z"/></g>
<g><path style="opacity:1" fill="#050505" d="M 454.5,130.5 C 457.175,131.677 459.008,133.677 460,136.5C 461.016,145.966 460.516,155.299 458.5,164.5C 457.84,165.964 457.507,167.631 457.5,169.5C 457.316,172.205 457.983,174.538 459.5,176.5C 460.932,188.885 460.765,201.219 459,213.5C 457.629,215.041 456.129,216.375 454.5,217.5C 448.5,218.833 442.5,218.833 436.5,217.5C 434.54,215.844 432.54,214.177 430.5,212.5C 425.215,202.684 425.215,193.017 430.5,183.5C 431.643,180.024 431.81,176.358 431,172.5C 430.95,170.256 430.117,168.589 428.5,167.5C 427.714,159.024 426.714,150.524 425.5,142C 425.566,139.745 425.899,137.578 426.5,135.5C 427.906,135.027 428.573,134.027 428.5,132.5C 428.5,131.833 428.833,131.5 429.5,131.5C 437.642,129.178 445.975,128.845 454.5,130.5 Z"/></g>
<g><path style="opacity:1" fill="#040404" d="M 541.5,130.5 C 551.326,129.209 560.326,131.209 568.5,136.5C 569.833,138.5 571.5,140.167 573.5,141.5C 574.167,142.5 574.833,143.5 575.5,144.5C 575.427,146.027 576.094,147.027 577.5,147.5C 579.008,149.181 580.008,151.181 580.5,153.5C 580.66,155.153 581.326,156.486 582.5,157.5C 583.979,161.909 584.646,166.576 584.5,171.5C 584.533,177.265 583.866,182.932 582.5,188.5C 580.935,190.509 579.935,192.843 579.5,195.5C 579.443,196.609 579.11,197.609 578.5,198.5C 577.094,198.973 576.427,199.973 576.5,201.5C 574.167,204.5 571.5,207.167 568.5,209.5C 566.973,209.427 565.973,210.094 565.5,211.5C 563.847,211.66 562.514,212.326 561.5,213.5C 556.511,212.778 551.511,212.612 546.5,213C 545.29,214.039 544.29,215.206 543.5,216.5C 538.021,218.796 532.355,219.13 526.5,217.5C 520.247,216.707 513.914,216.207 507.5,216C 505.097,214.147 502.764,212.314 500.5,210.5C 498.882,208.684 496.882,207.351 494.5,206.5C 491.329,204.169 488.496,201.503 486,198.5C 484.988,192.481 484.155,186.481 483.5,180.5C 482.121,176.276 481.121,171.943 480.5,167.5C 481.298,163.511 481.965,159.511 482.5,155.5C 484.008,150.002 487.675,147.002 493.5,146.5C 495.833,146.167 497.167,144.833 497.5,142.5C 497.833,141.5 498.5,140.833 499.5,140.5C 501.559,138.74 502.892,136.406 503.5,133.5C 504.167,133.5 504.5,133.167 504.5,132.5C 506.027,132.573 507.027,131.906 507.5,130.5C 518.891,130.176 530.225,130.176 541.5,130.5 Z"/></g>
<g><path style="opacity:1" fill="#6a6a6a" d="M 665.5,127.5 C 669.313,127.938 672.646,129.271 675.5,131.5C 672.546,130.572 669.546,129.739 666.5,129C 665.944,128.617 665.611,128.117 665.5,127.5 Z"/></g>
<g><path style="opacity:1" fill="#a8a8a8" d="M 689.5,128.5 C 694.5,129.833 699.5,129.833 704.5,128.5C 702.777,129.8 700.61,130.467 698,130.5C 695.833,130.333 693.667,130.167 691.5,130C 690.584,129.722 689.918,129.222 689.5,128.5 Z"/></g>
<g><path style="opacity:1" fill="#666666" d="M 619.5,129.5 C 619.027,130.906 618.027,131.573 616.5,131.5C 616.973,130.094 617.973,129.427 619.5,129.5 Z"/></g>
<g><path style="opacity:1" fill="#575757" d="M 320.5,130.5 C 320.027,131.906 319.027,132.573 317.5,132.5C 317.973,131.094 318.973,130.427 320.5,130.5 Z"/></g>
<g><path style="opacity:1" fill="#686868" d="M 507.5,130.5 C 507.027,131.906 506.027,132.573 504.5,132.5C 504.973,131.094 505.973,130.427 507.5,130.5 Z"/></g>
<g><path style="opacity:1" fill="#555555" d="M 204.5,130.5 C 201.612,133.78 197.945,135.78 193.5,136.5C 196.953,134.125 200.62,132.125 204.5,130.5 Z"/></g>
<g><path style="opacity:1" fill="#868686" d="M 428.5,132.5 C 428.573,134.027 427.906,135.027 426.5,135.5C 426.427,133.973 427.094,132.973 428.5,132.5 Z"/></g>
<g><path style="opacity:1" fill="#aaaaaa" d="M 568.5,136.5 C 571.167,137.167 572.833,138.833 573.5,141.5C 571.5,140.167 569.833,138.5 568.5,136.5 Z"/></g>
<g><path style="opacity:1" fill="#5c5c5c" d="M 607.5,137.5 C 607.573,139.027 606.906,140.027 605.5,140.5C 605.427,138.973 606.094,137.973 607.5,137.5 Z"/></g>
<g><path style="opacity:1" fill="#434343" d="M 503.5,133.5 C 502.892,136.406 501.559,138.74 499.5,140.5C 500.079,137.669 501.412,135.336 503.5,133.5 Z"/></g>
<g><path style="opacity:1" fill="#565656" d="M 313.5,136.5 C 312.532,139.1 311.199,141.434 309.5,143.5C 309.725,140.454 311.058,138.121 313.5,136.5 Z"/></g>
<g><path style="opacity:1" fill="#5e5e5e" d="M 682.5,137.5 C 684.482,140.373 684.815,143.373 683.5,146.5C 683.296,143.482 682.963,140.482 682.5,137.5 Z"/></g>
<g><path style="opacity:1" fill="#686868" d="M 400.5,134.5 C 401.117,134.611 401.617,134.944 402,135.5C 402.629,138.311 403.129,141.144 403.5,144C 403.607,146.221 402.94,148.054 401.5,149.5C 401.726,144.438 401.392,139.438 400.5,134.5 Z"/></g>
<g><path style="opacity:1" fill="#8a8a8a" d="M 249.5,145.5 C 245.167,145.5 240.833,145.5 236.5,145.5C 239.14,144.579 241.973,143.912 245,143.5C 246.876,143.525 248.376,144.191 249.5,145.5 Z"/></g>
<g><path style="opacity:1" fill="#565656" d="M 497.5,142.5 C 497.167,144.833 495.833,146.167 493.5,146.5C 494.5,144.833 495.833,143.5 497.5,142.5 Z"/></g>
<g><path style="opacity:1" fill="#858585" d="M 235.5,145.5 C 233.485,146.924 231.152,147.59 228.5,147.5C 230.515,146.076 232.848,145.41 235.5,145.5 Z"/></g>
<g><path style="opacity:1" fill="#585858" d="M 575.5,144.5 C 576.906,144.973 577.573,145.973 577.5,147.5C 576.094,147.027 575.427,146.027 575.5,144.5 Z"/></g>
<g><path style="opacity:1" fill="#bcbcbc" d="M 278.5,145.5 C 279.931,145.881 280.764,146.881 281,148.5C 281.167,151 281.333,153.5 281.5,156C 281.475,158.929 280.809,161.429 279.5,163.5C 281.075,157.359 280.742,151.359 278.5,145.5 Z"/></g>
<g><path style="opacity:1" fill="#7b7b7b" d="M 360.5,152.5 C 355.91,150.621 351.243,150.287 346.5,151.5C 346.611,150.883 346.944,150.383 347.5,150C 351.594,149.233 355.594,149.566 359.5,151C 360.056,151.383 360.389,151.883 360.5,152.5 Z"/></g>
<g><path style="opacity:1" fill="#6f6f6f" d="M 654.5,148.5 C 656.027,148.427 657.027,149.094 657.5,150.5C 655.973,150.573 654.973,149.906 654.5,148.5 Z"/></g>
<g><path style="opacity:1" fill="#a3a3a3" d="M 41.5,147.5 C 41.8333,147.5 42.1667,147.5 42.5,147.5C 43.1495,149.435 43.4828,151.435 43.5,153.5C 41.9261,151.898 41.2594,149.898 41.5,147.5 Z"/></g>
<g><path style="opacity:1" fill="#7b7b7b" d="M 251.5,147.5 C 252.638,150.304 252.805,153.304 252,156.5C 251.617,157.056 251.117,157.389 250.5,157.5C 251.324,154.236 251.658,150.902 251.5,147.5 Z"/></g>
<g><path style="opacity:1" fill="#f9f9f9" d="M 360.5,152.5 C 362.167,154.5 363.833,156.5 365.5,158.5C 367.637,166.421 367.97,174.421 366.5,182.5C 365.399,183.848 364.399,185.348 363.5,187C 357.812,191.702 351.479,192.702 344.5,190C 342.598,188.27 340.931,186.437 339.5,184.5C 339.073,181.99 338.407,179.657 337.5,177.5C 337.5,172.167 337.5,166.833 337.5,161.5C 338.906,161.027 339.573,160.027 339.5,158.5C 339.5,157.833 339.833,157.5 340.5,157.5C 342.587,156.415 343.92,154.749 344.5,152.5C 345.167,152.167 345.833,151.833 346.5,151.5C 351.243,150.287 355.91,150.621 360.5,152.5 Z"/></g>
<g><path style="opacity:1" fill="#919191" d="M 527.5,149.5 C 527.027,150.906 526.027,151.573 524.5,151.5C 524.973,150.094 525.973,149.427 527.5,149.5 Z"/></g>
<g><path style="opacity:1" fill="#fafafa" d="M 546.5,158.5 C 548.948,168.486 548.948,178.486 546.5,188.5C 545.263,189.965 544.263,191.632 543.5,193.5C 541.716,193.893 540.05,194.559 538.5,195.5C 533.833,195.5 529.167,195.5 524.5,195.5C 524.027,194.094 523.027,193.427 521.5,193.5C 518.677,192.008 517.01,189.674 516.5,186.5C 514.557,176.585 515.223,166.918 518.5,157.5C 519.5,154.5 521.5,152.5 524.5,151.5C 526.027,151.573 527.027,150.906 527.5,149.5C 535.835,147.83 542.168,150.83 546.5,158.5 Z"/></g>
<g><path style="opacity:1" fill="#7c7c7c" d="M 634.5,147.5 C 633.37,149.315 632.704,151.315 632.5,153.5C 630.984,150.92 631.651,148.92 634.5,147.5 Z"/></g>
<g><path style="opacity:1" fill="#b7b7b7" d="M 225.5,148.5 C 224.415,150.587 222.749,151.92 220.5,152.5C 221.585,150.413 223.251,149.08 225.5,148.5 Z"/></g>
<g><path style="opacity:1" fill="#434343" d="M 657.5,150.5 C 661.798,151.2 666.131,151.533 670.5,151.5C 669.036,152.16 667.369,152.493 665.5,152.5C 662.514,152.618 659.848,151.952 657.5,150.5 Z"/></g>
<g><path style="opacity:1" fill="#555555" d="M 602.5,144.5 C 601.167,151.5 601.167,158.5 602.5,165.5C 600.97,162.305 600.304,158.805 600.5,155C 600.304,151.195 600.97,147.695 602.5,144.5 Z"/></g>
<g><path style="opacity:1" fill="#979797" d="M 219.5,153.5 C 218.833,154.833 217.833,155.833 216.5,156.5C 216.5,156.167 216.5,155.833 216.5,155.5C 216.973,154.094 217.973,153.427 219.5,153.5 Z"/></g>
<g><path style="opacity:1" fill="#929292" d="M 580.5,153.5 C 582.176,154.183 582.843,155.517 582.5,157.5C 581.326,156.486 580.66,155.153 580.5,153.5 Z"/></g>
<g><path style="opacity:1" fill="#7f7f7f" d="M 119.5,154.5 C 121.234,155.562 122.901,155.562 124.5,154.5C 122.962,157.048 121.296,157.048 119.5,154.5 Z"/></g>
<g><path style="opacity:1" fill="#3d3d3d" d="M 193.5,154.5 C 201.132,155.358 208.799,155.691 216.5,155.5C 216.5,155.833 216.5,156.167 216.5,156.5C 209.492,156.666 202.492,156.5 195.5,156C 194.584,155.722 193.918,155.222 193.5,154.5 Z"/></g>
<g><path style="opacity:1" fill="#adadad" d="M 344.5,152.5 C 343.92,154.749 342.587,156.415 340.5,157.5C 341.08,155.251 342.413,153.585 344.5,152.5 Z"/></g>
<g><path style="opacity:1" fill="#575757" d="M 339.5,158.5 C 339.573,160.027 338.906,161.027 337.5,161.5C 337.427,159.973 338.094,158.973 339.5,158.5 Z"/></g>
<g><path style="opacity:1" fill="#909090" d="M 646.5,160.5 C 649.152,160.41 651.485,161.076 653.5,162.5C 650.848,162.59 648.515,161.924 646.5,160.5 Z"/></g>
<g><path style="opacity:1" fill="#a9a9a9" d="M 84.5,160.5 C 82.5807,158.478 80.4141,158.144 78,159.5C 77.8255,164.351 77.3255,169.018 76.5,173.5C 76.3341,168.489 76.5007,163.489 77,158.5C 80.518,155.504 83.018,156.171 84.5,160.5 Z"/></g>
<g><path style="opacity:1" fill="#3d3d3d" d="M 399.5,153.5 C 398.593,159.106 398.26,164.773 398.5,170.5C 397.349,165.35 397.183,160.016 398,154.5C 398.383,153.944 398.883,153.611 399.5,153.5 Z"/></g>
<g><path style="opacity:1" fill="#545454" d="M 240.5,162.5 C 236.79,164.136 232.79,164.802 228.5,164.5C 232.295,163.383 236.295,162.717 240.5,162.5 Z"/></g>
<g><path style="opacity:1" fill="#7e7e7e" d="M 84.5,160.5 C 86.2451,162.033 87.2451,164.033 87.5,166.5C 85.7549,164.967 84.7549,162.967 84.5,160.5 Z"/></g>
<g><path style="opacity:1" fill="#686868" d="M 228.5,164.5 C 227.07,165.537 225.403,166.204 223.5,166.5C 224.635,164.787 226.302,164.12 228.5,164.5 Z"/></g>
<g><path style="opacity:1" fill="#4b4b4b" d="M 482.5,155.5 C 481.965,159.511 481.298,163.511 480.5,167.5C 481.121,171.943 482.121,176.276 483.5,180.5C 482.034,179.653 481.2,178.32 481,176.5C 478.795,169.188 479.295,162.188 482.5,155.5 Z"/></g>
<g><path style="opacity:1" fill="#9f9f9f" d="M 546.5,158.5 C 548.902,163.44 549.902,168.773 549.5,174.5C 549.333,177.5 549.167,180.5 549,183.5C 548.626,185.491 547.793,187.158 546.5,188.5C 548.948,178.486 548.948,168.486 546.5,158.5 Z"/></g>
<g><path style="opacity:1" fill="#737373" d="M 220.5,168.5 C 219.341,170.25 217.674,171.25 215.5,171.5C 215.5,171.167 215.5,170.833 215.5,170.5C 217.05,169.559 218.716,168.893 220.5,168.5 Z"/></g>
<g><path style="opacity:1" fill="#c7c7c7" d="M 215.5,170.5 C 215.5,170.833 215.5,171.167 215.5,171.5C 208.816,171.589 202.149,171.922 195.5,172.5C 201.75,170.541 208.416,169.874 215.5,170.5 Z"/></g>
<g><path style="opacity:1" fill="#b6b6b6" d="M 677.5,169.5 C 680.491,169.166 682.824,170.166 684.5,172.5C 681.843,172.065 679.509,171.065 677.5,169.5 Z"/></g>
<g><path style="opacity:1" fill="#9b9b9b" d="M 89.5,169.5 C 91.914,170.911 93.5806,172.911 94.5,175.5C 92.086,174.089 90.4194,172.089 89.5,169.5 Z"/></g>
<g><path style="opacity:1" fill="#cacaca" d="M 518.5,157.5 C 515.223,166.918 514.557,176.585 516.5,186.5C 515.732,185.737 515.232,184.737 515,183.5C 514.333,176.833 514.333,170.167 515,163.5C 515.424,160.975 516.59,158.975 518.5,157.5 Z"/></g>
<g><path style="opacity:1" fill="#343434" d="M 428.5,167.5 C 430.117,168.589 430.95,170.256 431,172.5C 431.81,176.358 431.643,180.024 430.5,183.5C 430.754,178.031 430.087,172.697 428.5,167.5 Z"/></g>
<g><path style="opacity:1" fill="#464646" d="M 458.5,164.5 C 458.505,168.534 458.838,172.534 459.5,176.5C 457.983,174.538 457.316,172.205 457.5,169.5C 457.507,167.631 457.84,165.964 458.5,164.5 Z"/></g>
<g><path style="opacity:1" fill="#919191" d="M 365.5,158.5 C 367.067,159.681 367.901,161.347 368,163.5C 368.667,169.167 368.667,174.833 368,180.5C 367.722,181.416 367.222,182.082 366.5,182.5C 367.97,174.421 367.637,166.421 365.5,158.5 Z"/></g>
<g><path style="opacity:1" fill="#7c7c7c" d="M 609.5,174.5 C 611.027,174.427 612.027,175.094 612.5,176.5C 610.973,176.573 609.973,175.906 609.5,174.5 Z"/></g>
<g><path style="opacity:1" fill="#c0c0c0" d="M 615.5,177.5 C 622.452,178.261 629.452,178.761 636.5,179C 637.737,179.232 638.737,179.732 639.5,180.5C 631.858,179.808 624.192,179.308 616.5,179C 615.944,178.617 615.611,178.117 615.5,177.5 Z"/></g>
<g><path style="opacity:1" fill="#9b9b9b" d="M 238.5,179.5 C 232.212,180.078 225.879,181.078 219.5,182.5C 220.347,181.034 221.68,180.2 223.5,180C 228.489,179.501 233.489,179.334 238.5,179.5 Z"/></g>
<g><path style="opacity:1" fill="#fafafa" d="M 250.5,182.5 C 252.044,185.248 252.71,188.248 252.5,191.5C 251.5,192.167 250.5,192.833 249.5,193.5C 246.284,193.345 243.617,194.345 241.5,196.5C 240.167,197.167 238.833,197.833 237.5,198.5C 235.847,198.66 234.514,199.326 233.5,200.5C 219.758,202.183 214.758,196.517 218.5,183.5C 218.5,182.833 218.833,182.5 219.5,182.5C 225.879,181.078 232.212,180.078 238.5,179.5C 243.159,177.589 247.159,178.589 250.5,182.5 Z"/></g>
<g><path style="opacity:1" fill="#b9b9b9" d="M 161.5,147.5 C 162.098,162.328 162.098,177.328 161.5,192.5C 160.367,189.223 159.701,185.723 159.5,182C 161.014,170.549 161.681,159.049 161.5,147.5 Z"/></g>
<g><path style="opacity:1" fill="#474747" d="M 337.5,177.5 C 338.407,179.657 339.073,181.99 339.5,184.5C 338.883,184.389 338.383,184.056 338,183.5C 337.505,181.527 337.338,179.527 337.5,177.5 Z"/></g>
<g><path style="opacity:1" fill="#767676" d="M 644.5,183.5 C 646.027,183.427 647.027,184.094 647.5,185.5C 645.973,185.573 644.973,184.906 644.5,183.5 Z"/></g>
<g><path style="opacity:1" fill="#626262" d="M 647.5,185.5 C 650.152,185.41 652.485,186.076 654.5,187.5C 651.848,187.59 649.515,186.924 647.5,185.5 Z"/></g>
<g><path style="opacity:1" fill="#4d4d4d" d="M 188.5,177.5 C 187.109,179.921 186.275,182.588 186,185.5C 185.501,191.491 185.334,197.491 185.5,203.5C 184.123,195.612 184.29,187.612 186,179.5C 186.708,178.619 187.542,177.953 188.5,177.5 Z"/></g>
<g><path style="opacity:1" fill="#5a5a5a" d="M 43.5,176.5 C 41.996,180.478 41.3293,184.645 41.5,189C 42.1216,196.823 42.4549,204.656 42.5,212.5C 41.7784,212.082 41.2784,211.416 41,210.5C 40.3333,199.833 40.3333,189.167 41,178.5C 41.4169,177.244 42.2502,176.577 43.5,176.5 Z"/></g>
<g><path style="opacity:1" fill="#c9c8c9" d="M 250.5,182.5 C 254.053,184.04 255.22,186.707 254,190.5C 253.617,191.056 253.117,191.389 252.5,191.5C 252.71,188.248 252.044,185.248 250.5,182.5 Z"/></g>
<g><path style="opacity:1" fill="#afafaf" d="M 310.5,187.5 C 312.587,188.585 313.92,190.251 314.5,192.5C 312.413,191.415 311.08,189.749 310.5,187.5 Z"/></g>
<g><path style="opacity:1" fill="#858585" d="M 104.5,188.5 C 105.906,188.973 106.573,189.973 106.5,191.5C 105.094,191.027 104.427,190.027 104.5,188.5 Z"/></g>
<g><path style="opacity:1" fill="#999999" d="M 582.5,188.5 C 582.834,191.491 581.834,193.824 579.5,195.5C 579.935,192.843 580.935,190.509 582.5,188.5 Z"/></g>
<g><path style="opacity:1" fill="#b0b0b0" d="M 628.5,192.5 C 622.223,191.889 615.89,191.889 609.5,192.5C 615.279,190.891 621.279,190.391 627.5,191C 628.056,191.383 628.389,191.883 628.5,192.5 Z"/></g>
<g><path style="opacity:1" fill="#222222" d="M 628.5,192.5 C 629.167,192.833 629.833,193.167 630.5,193.5C 630.5,193.833 630.5,194.167 630.5,194.5C 621.407,192.979 612.407,193.312 603.5,195.5C 605.181,193.992 607.181,192.992 609.5,192.5C 615.89,191.889 622.223,191.889 628.5,192.5 Z"/></g>
<g><path style="opacity:1" fill="#939393" d="M 630.5,194.5 C 630.5,194.167 630.5,193.833 630.5,193.5C 632.5,193.5 633.5,194.5 633.5,196.5C 632.5,195.833 631.5,195.167 630.5,194.5 Z"/></g>
<g><path style="opacity:1" fill="#898989" d="M 521.5,193.5 C 523.027,193.427 524.027,194.094 524.5,195.5C 522.973,195.573 521.973,194.906 521.5,193.5 Z"/></g>
<g><path style="opacity:1" fill="#5a5a5a" d="M 543.5,193.5 C 542.341,195.25 540.674,196.25 538.5,196.5C 538.5,196.167 538.5,195.833 538.5,195.5C 540.05,194.559 541.716,193.893 543.5,193.5 Z"/></g>
<g><path style="opacity:1" fill="#7e7e7e" d="M 249.5,193.5 C 247.064,194.871 244.397,195.871 241.5,196.5C 243.617,194.345 246.284,193.345 249.5,193.5 Z"/></g>
<g><path style="opacity:1" fill="#c9c8c9" d="M 524.5,195.5 C 529.167,195.5 533.833,195.5 538.5,195.5C 538.5,195.833 538.5,196.167 538.5,196.5C 533.587,198.029 528.92,197.696 524.5,195.5 Z"/></g>
<g><path style="opacity:1" fill="#b6b6b6" d="M 108.5,195.5 C 109.89,196.899 110.89,198.566 111.5,200.5C 109.241,199.656 108.241,197.989 108.5,195.5 Z"/></g>
<g><path style="opacity:1" fill="#585858" d="M 237.5,198.5 C 236.817,200.176 235.483,200.843 233.5,200.5C 234.514,199.326 235.847,198.66 237.5,198.5 Z"/></g>
<g><path style="opacity:1" fill="#9f9f9f" d="M 218.5,183.5 C 214.758,196.517 219.758,202.183 233.5,200.5C 227.475,202.537 221.975,201.537 217,197.5C 216.333,193.167 216.333,188.833 217,184.5C 217.383,183.944 217.883,183.611 218.5,183.5 Z"/></g>
<g><path style="opacity:1" fill="#949494" d="M 316.5,197.5 C 317.537,198.93 318.204,200.597 318.5,202.5C 316.787,201.365 316.12,199.698 316.5,197.5 Z"/></g>
<g><path style="opacity:1" fill="#838383" d="M 578.5,198.5 C 578.573,200.027 577.906,201.027 576.5,201.5C 576.427,199.973 577.094,198.973 578.5,198.5 Z"/></g>
<g><path style="opacity:1" fill="#6d6d6d" d="M 602.5,196.5 C 601.781,198.764 601.448,201.097 601.5,203.5C 600.853,202.726 600.52,201.726 600.5,200.5C 600.34,198.645 601.007,197.312 602.5,196.5 Z"/></g>
<g><path style="opacity:1" fill="#8a8a8a" d="M 689.5,199.5 C 688.97,201.924 688.136,204.257 687,206.5C 686.329,207.252 685.496,207.586 684.5,207.5C 686.175,204.755 687.842,202.088 689.5,199.5 Z"/></g>
<g><path style="opacity:1" fill="#555555" d="M 402.5,198.5 C 403.166,202.486 403.499,206.653 403.5,211C 403.701,217.083 403.034,222.916 401.5,228.5C 402.332,218.524 402.666,208.524 402.5,198.5 Z"/></g>
<g><path style="opacity:1" fill="#b7b7b7" d="M 494.5,206.5 C 496.882,207.351 498.882,208.684 500.5,210.5C 497.733,210.13 495.733,208.796 494.5,206.5 Z"/></g>
<g><path style="opacity:1" fill="#8c8c8c" d="M 185.5,207.5 C 186.906,207.973 187.573,208.973 187.5,210.5C 186.094,210.027 185.427,209.027 185.5,207.5 Z"/></g>
<g><path style="opacity:1" fill="#939293" d="M 684.5,208.5 C 683.713,210.104 682.38,210.771 680.5,210.5C 681.514,209.326 682.847,208.66 684.5,208.5 Z"/></g>
<g><path style="opacity:1" fill="#909090" d="M 568.5,209.5 C 568.027,210.906 567.027,211.573 565.5,211.5C 565.973,210.094 566.973,209.427 568.5,209.5 Z"/></g>
<g><path style="opacity:1" fill="#5c5c5c" d="M 680.5,210.5 C 679.486,211.674 678.153,212.34 676.5,212.5C 677.287,210.896 678.62,210.229 680.5,210.5 Z"/></g>
<g><path style="opacity:1" fill="#9a9a9a" d="M 365.5,228.5 C 367.349,222.294 367.849,215.961 367,209.5C 366.107,208.919 365.107,208.585 364,208.5C 360.859,209.603 357.693,210.603 354.5,211.5C 358.295,207.625 362.795,206.625 368,208.5C 368.667,213.5 368.667,218.5 368,223.5C 367.901,225.653 367.067,227.319 365.5,228.5 Z"/></g>
<g><path style="opacity:1" fill="#bcbcbc" d="M 281.5,202.5 C 282.641,205.64 282.808,208.973 282,212.5C 281.29,213.973 280.124,214.64 278.5,214.5C 281.115,210.991 282.115,206.991 281.5,202.5 Z"/></g>
<g><path style="opacity:1" fill="#939393" d="M 243.5,213.5 C 242.713,215.104 241.38,215.771 239.5,215.5C 240.514,214.326 241.847,213.66 243.5,213.5 Z"/></g>
<g><path style="opacity:1" fill="#8f8f8f" d="M 670.5,213.5 C 668.012,215.388 665.012,216.055 661.5,215.5C 664.273,214.343 667.273,213.676 670.5,213.5 Z"/></g>
<g><path style="opacity:1" fill="#c7c7c7" d="M 561.5,213.5 C 557.006,214.053 552.339,214.22 547.5,214C 546.529,215.481 545.196,216.315 543.5,216.5C 544.29,215.206 545.29,214.039 546.5,213C 551.511,212.612 556.511,212.778 561.5,213.5 Z"/></g>
<g><path style="opacity:1" fill="#515151" d="M 612.5,214.5 C 616.083,215.007 619.417,216.007 622.5,217.5C 620.435,217.483 618.435,217.15 616.5,216.5C 614.62,216.771 613.287,216.104 612.5,214.5 Z"/></g>
<g><path style="opacity:1" fill="#696969" d="M 430.5,212.5 C 432.54,214.177 434.54,215.844 436.5,217.5C 433.268,217.228 431.268,215.562 430.5,212.5 Z"/></g>
<g><path style="opacity:1" fill="#919191" d="M 661.5,215.5 C 661.027,216.906 660.027,217.573 658.5,217.5C 658.973,216.094 659.973,215.427 661.5,215.5 Z"/></g>
<g><path style="opacity:1" fill="#979797" d="M 73.5,216.5 C 72.9423,217.79 71.9423,218.623 70.5,219C 63.9863,219.82 57.6529,219.653 51.5,218.5C 58.9804,218.963 66.3138,218.297 73.5,216.5 Z"/></g>
<g><path style="opacity:1" fill="#c4c3c4" d="M 159.5,213.5 C 158.673,218.65 155.673,220.65 150.5,219.5C 153.945,218.27 156.945,216.27 159.5,213.5 Z"/></g>
<g><path style="opacity:1" fill="#a0a0a0" d="M 436.5,217.5 C 442.5,218.833 448.5,218.833 454.5,217.5C 454.389,218.117 454.056,218.617 453.5,219C 447.408,220.86 441.742,220.36 436.5,217.5 Z"/></g>
<g><path style="opacity:1" fill="#c8c8c8" d="M 616.5,216.5 C 618.435,217.15 620.435,217.483 622.5,217.5C 625.397,218.129 628.064,219.129 630.5,220.5C 626.149,219.83 621.816,218.996 617.5,218C 616.944,217.617 616.611,217.117 616.5,216.5 Z"/></g>
<g><path style="opacity:1" fill="#9e9e9e" d="M 139.5,218.5 C 143.135,219.114 146.802,219.448 150.5,219.5C 146.71,220.902 143.044,220.569 139.5,218.5 Z"/></g>
<g><path style="opacity:1" fill="#b2b2b2" d="M 227.5,217.5 C 227.03,218.693 226.03,219.36 224.5,219.5C 222.182,219.997 219.848,220.33 217.5,220.5C 220.452,218.59 223.786,217.59 227.5,217.5 Z"/></g>
<g><path style="opacity:1" fill="#b7b7b7" d="M 543.5,216.5 C 543.631,217.376 543.298,218.043 542.5,218.5C 536.854,221.022 531.521,220.688 526.5,217.5C 532.355,219.13 538.021,218.796 543.5,216.5 Z"/></g>
<g><path style="opacity:1" fill="#a1a0a1" d="M 658.5,217.5 C 656.974,219.13 654.974,219.963 652.5,220C 648.514,220.499 644.514,220.666 640.5,220.5C 646.415,219.741 652.415,218.741 658.5,217.5 Z"/></g>
<g><path style="opacity:1" fill="#828282" d="M 198.5,218.5 C 204.41,219.82 210.41,220.487 216.5,220.5C 212.354,221.647 208.02,221.814 203.5,221C 201.347,220.901 199.681,220.067 198.5,218.5 Z"/></g>
<g><path style="opacity:1" fill="#4f4f4f" d="M 322.5,225.5 C 317.88,223.837 313.213,223.503 308.5,224.5C 308.611,223.883 308.944,223.383 309.5,223C 313.572,222.342 317.572,222.675 321.5,224C 322.056,224.383 322.389,224.883 322.5,225.5 Z"/></g>
<g><path style="opacity:1" fill="#404040" d="M 306.5,226.5 C 306.5,229.833 306.5,233.167 306.5,236.5C 305.266,234.799 304.599,232.799 304.5,230.5C 304.34,228.645 305.007,227.312 306.5,226.5 Z"/></g>
<g><path style="opacity:1" fill="#838383" d="M 334.5,229.5 C 336.857,229.337 339.19,229.503 341.5,230C 342.056,230.383 342.389,230.883 342.5,231.5C 339.67,231.037 337.003,230.371 334.5,229.5 Z"/></g>
<g><path style="opacity:1" fill="#414141" d="M 124.5,234.5 C 116.5,234.5 108.5,234.5 100.5,234.5C 108.511,231.997 116.511,231.997 124.5,234.5 Z"/></g>
<g><path style="opacity:1" fill="#030303" d="M 54.5,234.5 C 69.8349,237.138 85.1682,237.138 100.5,234.5C 108.5,234.5 116.5,234.5 124.5,234.5C 132.933,236.246 141.6,236.912 150.5,236.5C 154.651,236.099 157.985,237.433 160.5,240.5C 160.702,242.95 160.369,245.283 159.5,247.5C 158.306,248.272 157.306,249.272 156.5,250.5C 141.993,250.5 127.493,250.166 113,249.5C 100.824,250.001 88.6574,250.668 76.5,251.5C 63.065,251.322 49.7317,250.322 36.5,248.5C 36.3677,245.43 36.701,242.43 37.5,239.5C 37.8333,238.5 38.5,237.833 39.5,237.5C 41.0269,237.573 42.0269,236.906 42.5,235.5C 46.4023,233.511 50.4023,233.177 54.5,234.5 Z"/></g>
<g><path style="opacity:1" fill="#575757" d="M 54.5,234.5 C 69.8333,234.5 85.1667,234.5 100.5,234.5C 85.1682,237.138 69.8349,237.138 54.5,234.5 Z"/></g>
<g><path style="opacity:1" fill="#686868" d="M 124.5,234.5 C 133.343,234.821 142.009,235.488 150.5,236.5C 141.6,236.912 132.933,236.246 124.5,234.5 Z"/></g>
<g><path style="opacity:1" fill="#656565" d="M 42.5,235.5 C 42.0269,236.906 41.0269,237.573 39.5,237.5C 39.9731,236.094 40.9731,235.427 42.5,235.5 Z"/></g>
<g><path style="opacity:1" fill="#9b9b9b" d="M 398.5,235.5 C 397.92,237.749 396.587,239.415 394.5,240.5C 395.08,238.251 396.413,236.585 398.5,235.5 Z"/></g>
<g><path style="opacity:1" fill="#aaaaaa" d="M 308.5,241.5 C 310.5,242.833 312.167,244.5 313.5,246.5C 310.833,245.833 309.167,244.167 308.5,241.5 Z"/></g>
<g><path style="opacity:1" fill="#858585" d="M 160.5,240.5 C 161.152,241.449 161.486,242.615 161.5,244C 161.392,245.681 160.725,246.848 159.5,247.5C 160.369,245.283 160.702,242.95 160.5,240.5 Z"/></g>
<g><path style="opacity:1" fill="#444444" d="M 37.5,239.5 C 36.701,242.43 36.3677,245.43 36.5,248.5C 35.3659,246.034 35.1993,243.367 36,240.5C 36.3826,239.944 36.8826,239.611 37.5,239.5 Z"/></g>
<g><path style="opacity:1" fill="#7c7c7c" d="M 365.5,251.5 C 360.5,250.167 355.5,250.167 350.5,251.5C 350.611,250.883 350.944,250.383 351.5,250C 355.833,249.333 360.167,249.333 364.5,250C 365.056,250.383 365.389,250.883 365.5,251.5 Z"/></g>
<g><path style="opacity:1" fill="#5c5c5c" d="M 36.5,248.5 C 49.7317,250.322 63.065,251.322 76.5,251.5C 88.6574,250.668 100.824,250.001 113,249.5C 127.493,250.166 141.993,250.5 156.5,250.5C 156.082,251.222 155.416,251.722 154.5,252C 140.146,252.345 125.813,251.845 111.5,250.5C 87.5195,252.95 63.5195,253.116 39.5,251C 38.0577,250.623 37.0577,249.79 36.5,248.5 Z"/></g>
</svg>
