<?xml version="1.0" encoding="UTF-8"?>
<!DOCTYPE svg PUBLIC "-//W3C//DTD SVG 1.1//EN" "http://www.w3.org/Graphics/SVG/1.1/DTD/svg11.dtd">
<svg xmlns="http://www.w3.org/2000/svg" version="1.1" width="1300px" height="1234px" style="shape-rendering:geometricPrecision; text-rendering:geometricPrecision; image-rendering:optimizeQuality; fill-rule:evenodd; clip-rule:evenodd" xmlns:xlink="http://www.w3.org/1999/xlink">
<g><path style="opacity:1" fill="#fefefe" d="M -0.5,-0.5 C 432.833,-0.5 866.167,-0.5 1299.5,-0.5C 1299.5,380.833 1299.5,762.167 1299.5,1143.5C 866.167,1143.5 432.833,1143.5 -0.5,1143.5C -0.5,762.167 -0.5,380.833 -0.5,-0.5 Z"/></g>
<g><path style="opacity:1" fill="#030303" d="M 693.5,456.5 C 693.5,497.167 693.5,537.833 693.5,578.5C 691.528,569.56 690.861,560.227 691.5,550.5C 688.833,550.5 686.167,550.5 683.5,550.5C 683.121,561.555 683.621,572.555 685,583.5C 687.456,585.321 690.289,585.988 693.5,585.5C 693.5,586.5 693.5,587.5 693.5,588.5C 690.5,588.5 687.5,588.5 684.5,588.5C 684.194,591.385 684.527,594.052 685.5,596.5C 688.167,596.5 690.833,596.5 693.5,596.5C 693.5,603.833 693.5,611.167 693.5,618.5C 681.833,618.5 670.167,618.5 658.5,618.5C 658.5,598.167 658.5,577.833 658.5,557.5C 659.5,557.5 660.5,557.5 661.5,557.5C 661.5,566.833 661.5,576.167 661.5,585.5C 664.167,585.5 666.833,585.5 669.5,585.5C 669.334,576.494 669.5,567.494 670,558.5C 671,557.167 672,557.167 673,558.5C 673.5,567.494 673.666,576.494 673.5,585.5C 676.167,585.5 678.833,585.5 681.5,585.5C 681.956,574.064 681.456,562.731 680,551.5C 675.918,549.845 672.252,550.512 669,553.5C 668.242,551.09 666.575,550.09 664,550.5C 661.822,550.395 659.988,551.061 658.5,552.5C 658.5,520.5 658.5,488.5 658.5,456.5C 670.167,456.5 681.833,456.5 693.5,456.5 Z"/></g>
<g><path style="opacity:1" fill="#5d5d5d" d="M 969.5,456.5 C 969.5,510.167 969.5,563.833 969.5,617.5C 980.833,617.5 992.167,617.5 1003.5,617.5C 1003.5,563.833 1003.5,510.167 1003.5,456.5C 1004.5,510.331 1004.83,564.331 1004.5,618.5C 992.5,618.5 980.5,618.5 968.5,618.5C 968.168,564.331 968.501,510.331 969.5,456.5 Z"/></g>
<g><path style="opacity:1" fill="#010101" d="M 969.5,456.5 C 980.833,456.5 992.167,456.5 1003.5,456.5C 1003.5,510.167 1003.5,563.833 1003.5,617.5C 992.167,617.5 980.833,617.5 969.5,617.5C 969.5,563.833 969.5,510.167 969.5,456.5 Z"/></g>
<g><path style="opacity:1" fill="#f69e84" d="M 255.5,463.5 C 255.5,464.5 255.5,465.5 255.5,466.5C 252.15,466.335 248.817,466.502 245.5,467C 243.886,469.127 241.886,470.627 239.5,471.5C 243.82,466.15 249.154,462.484 255.5,460.5C 255.5,461.5 255.5,462.5 255.5,463.5 Z"/></g>
<g><path style="opacity:1" fill="#dcdcdc" d="M 693.5,456.5 C 694.525,457.374 695.192,458.541 695.5,460C 694.841,503.306 694.174,546.473 693.5,589.5C 693.5,589.167 693.5,588.833 693.5,588.5C 693.5,587.5 693.5,586.5 693.5,585.5C 693.5,583.167 693.5,580.833 693.5,578.5C 693.5,537.833 693.5,497.167 693.5,456.5 Z"/></g>
<g><path style="opacity:1" fill="#e66142" d="M 262.5,467.5 C 266.234,470.231 269.234,473.564 271.5,477.5C 270.244,477.904 269.077,478.571 268,479.5C 267.5,479.167 267,478.833 266.5,478.5C 268.891,474.484 267.558,472.151 262.5,471.5C 262.5,470.167 262.5,468.833 262.5,467.5 Z"/></g>
<g><path style="opacity:1" fill="#030303" d="M 1055.5,472.5 C 1056.5,472.5 1057.5,472.5 1058.5,472.5C 1058.17,481.349 1058.51,490.016 1059.5,498.5C 1072.99,499.496 1086.66,499.829 1100.5,499.5C 1100.5,508.167 1100.5,516.833 1100.5,525.5C 1086.66,525.171 1072.99,525.504 1059.5,526.5C 1058.83,535.661 1058.5,544.994 1058.5,554.5C 1058.5,564.191 1059.17,573.525 1060.5,582.5C 1062.24,588.793 1066.4,591.46 1073,590.5C 1080.8,590.121 1088.13,588.121 1095,584.5C 1099.38,592.809 1102.88,601.475 1105.5,610.5C 1097.1,614.021 1088.44,616.854 1079.5,619C 1064.95,622.484 1051.28,620.484 1038.5,613C 1030.75,606.663 1026.25,598.496 1025,588.5C 1024.5,551.168 1024.33,513.835 1024.5,476.5C 1034.82,475.058 1045.15,473.725 1055.5,472.5 Z"/></g>
<g><path style="opacity:1" fill="#d1694f" d="M 159.5,472.5 C 159.719,473.675 159.386,474.675 158.5,475.5C 156.867,477.503 154.867,478.836 152.5,479.5C 154.5,476.833 156.833,474.5 159.5,472.5 Z"/></g>
<g><path style="opacity:1" fill="#da765f" d="M 239.5,472.5 C 237.39,475.619 234.723,477.952 231.5,479.5C 233.569,476.427 236.236,474.094 239.5,472.5 Z"/></g>
<g><path style="opacity:1" fill="#313131" d="M 1055.5,472.5 C 1056.57,471.566 1057.9,471.232 1059.5,471.5C 1059.5,480.5 1059.5,489.5 1059.5,498.5C 1058.51,490.016 1058.17,481.349 1058.5,472.5C 1057.5,472.5 1056.5,472.5 1055.5,472.5 Z"/></g>
<g><path style="opacity:1" fill="#f34c20" d="M 210.5,495.5 C 210.254,498.805 208.587,501.139 205.5,502.5C 203.893,502.363 202.559,501.696 201.5,500.5C 204.131,498.995 203.797,498.329 200.5,498.5C 200.247,500.827 200.914,502.827 202.5,504.5C 201.68,506.111 200.346,506.778 198.5,506.5C 198.5,508.167 198.5,509.833 198.5,511.5C 187.002,524.669 174.669,537.335 161.5,549.5C 159.883,550.038 158.216,550.371 156.5,550.5C 156.241,554.068 154.241,555.401 150.5,554.5C 150.785,556.288 150.452,557.955 149.5,559.5C 146.929,560.728 145.595,562.728 145.5,565.5C 139.451,571.88 133.451,578.213 127.5,584.5C 124.833,586.833 122.167,589.167 119.5,591.5C 116.833,592.833 114.167,594.167 111.5,595.5C 102.5,585.833 93.1667,576.5 83.5,567.5C 82.1667,565.833 80.8333,564.167 79.5,562.5C 79.5198,560.857 78.8532,559.524 77.5,558.5C 79.0049,557.158 79.6715,555.492 79.5,553.5C 79.5,553.167 79.5,552.833 79.5,552.5C 83.5,550.5 86.5,547.5 88.5,543.5C 89.675,543.719 90.675,543.386 91.5,542.5C 93.503,540.867 94.8363,538.867 95.5,536.5C 98.1667,533.167 101.167,530.167 104.5,527.5C 105.675,527.719 106.675,527.386 107.5,526.5C 109.503,524.867 110.836,522.867 111.5,520.5C 115.5,518.5 118.5,515.5 120.5,511.5C 121.675,511.719 122.675,511.386 123.5,510.5C 125.503,508.867 126.836,506.867 127.5,504.5C 128.833,504.5 130.167,504.5 131.5,504.5C 131.351,503.448 131.517,502.448 132,501.5C 134.127,499.886 135.627,497.886 136.5,495.5C 137.675,495.719 138.675,495.386 139.5,494.5C 141.503,492.867 142.836,490.867 143.5,488.5C 146.167,485.167 149.167,482.167 152.5,479.5C 154.867,478.836 156.867,477.503 158.5,475.5C 159.386,474.675 159.719,473.675 159.5,472.5C 163.843,467.324 168.676,462.657 174,458.5C 186.309,470.643 198.476,482.976 210.5,495.5 Z"/></g>
<g><path style="opacity:1" fill="#d06b51" d="M 143.5,488.5 C 142.836,490.867 141.503,492.867 139.5,494.5C 138.675,495.386 137.675,495.719 136.5,495.5C 138.5,492.833 140.833,490.5 143.5,488.5 Z"/></g>
<g><path style="opacity:1" fill="#030303" d="M 437.5,604.5 C 437.44,603.957 437.107,603.624 436.5,603.5C 435.5,621.821 435.167,640.155 435.5,658.5C 424.167,658.5 412.833,658.5 401.5,658.5C 401.5,605.5 401.5,552.5 401.5,499.5C 411.915,499.192 422.249,499.525 432.5,500.5C 433.395,505.142 434.228,509.809 435,514.5C 449.001,497.82 466.501,492.986 487.5,500C 506.111,508.628 517.278,523.128 521,543.5C 524.589,563.696 520.922,582.362 510,599.5C 493.996,618.793 474.163,624.293 450.5,616C 445.327,612.987 440.994,609.153 437.5,604.5 Z"/></g>
<g><path style="opacity:1" fill="#040404" d="M 637.5,537.5 C 637.5,541.833 637.5,546.167 637.5,550.5C 629.543,550.467 626.21,554.467 627.5,562.5C 630.167,562.5 632.833,562.5 635.5,562.5C 635.215,560.712 635.548,559.045 636.5,557.5C 637.641,559.421 637.808,561.421 637,563.5C 628.158,568.026 625.658,574.86 629.5,584C 632.014,585.252 634.68,585.752 637.5,585.5C 637.5,596.167 637.5,606.833 637.5,617.5C 627.5,617.5 617.5,617.5 607.5,617.5C 606.51,612.966 605.51,608.299 604.5,603.5C 595.22,614.389 583.386,620.056 569,620.5C 539.826,618.316 527.159,602.649 531,573.5C 538.411,556.867 551.245,547.7 569.5,546C 577.807,544.803 586.141,543.803 594.5,543C 601.825,542.338 604.325,538.505 602,531.5C 597.128,526.983 591.294,524.983 584.5,525.5C 570.345,526.828 557.178,531.161 545,538.5C 543.181,536.874 541.848,534.874 541,532.5C 537.836,525.673 535.502,518.673 534,511.5C 560.328,495.897 587.828,493.397 616.5,504C 628.694,511.882 635.694,523.049 637.5,537.5 Z"/></g>
<g><path style="opacity:1" fill="#040404" d="M 756.5,497.5 C 782.326,493.515 803.826,501.182 821,520.5C 831.082,536.079 834.416,553.079 831,571.5C 824.915,599.314 807.749,615.481 779.5,620C 756.078,622.529 736.578,615.029 721,597.5C 709.581,579.997 706.247,560.997 711,540.5C 718.291,517.706 733.458,503.373 756.5,497.5 Z"/></g>
<g><path style="opacity:1" fill="#050505" d="M 948.5,556.5 C 943.351,556.651 941.018,559.318 941.5,564.5C 943.167,564.5 944.833,564.5 946.5,564.5C 946.285,562.821 946.952,561.821 948.5,561.5C 948.5,562.833 948.5,564.167 948.5,565.5C 941.715,568.282 939.715,573.115 942.5,580C 944.473,580.495 946.473,580.662 948.5,580.5C 948.5,593.167 948.5,605.833 948.5,618.5C 938.167,618.5 927.833,618.5 917.5,618.5C 917.251,613.338 916.251,608.338 914.5,603.5C 899.782,619.347 882.115,623.847 861.5,617C 842.912,607.264 836.412,592.098 842,571.5C 846.506,561.33 854.006,554.163 864.5,550C 877.439,545.586 890.772,543.252 904.5,543C 913.876,541.421 915.876,536.754 910.5,529C 901.461,525.101 892.128,524.434 882.5,527C 872.901,529.885 863.734,533.719 855,538.5C 852.773,535.053 850.773,531.387 849,527.5C 846.703,522.271 845.036,516.938 844,511.5C 869.534,496.141 896.368,493.308 924.5,503C 938.229,510.41 946.062,521.91 948,537.5C 948.5,543.825 948.666,550.158 948.5,556.5 Z"/></g>
<g><path style="opacity:1" fill="#040404" d="M 1157.5,497.5 C 1181.23,494.687 1201.4,501.687 1218,518.5C 1231.2,537.893 1234.2,558.893 1227,581.5C 1217.74,604.07 1200.91,616.904 1176.5,620C 1139.44,622.24 1116.61,605.406 1108,569.5C 1104.19,541.856 1113.69,520.356 1136.5,505C 1143.36,501.715 1150.36,499.215 1157.5,497.5 Z"/></g>
<g><path style="opacity:1" fill="#747474" d="M 1059.5,498.5 C 1073.5,498.5 1087.5,498.5 1101.5,498.5C 1101.5,507.833 1101.5,517.167 1101.5,526.5C 1087.5,526.5 1073.5,526.5 1059.5,526.5C 1072.99,525.504 1086.66,525.171 1100.5,525.5C 1100.5,516.833 1100.5,508.167 1100.5,499.5C 1086.66,499.829 1072.99,499.496 1059.5,498.5 Z"/></g>
<g><path style="opacity:1" fill="#da6343" d="M 136.5,495.5 C 135.627,497.886 134.127,499.886 132,501.5C 131.517,502.448 131.351,503.448 131.5,504.5C 130.167,504.5 128.833,504.5 127.5,504.5C 130.167,501.167 133.167,498.167 136.5,495.5 Z"/></g>
<g><path style="opacity:1" fill="#8e8e8e" d="M 432.5,500.5 C 422.249,499.525 411.915,499.192 401.5,499.5C 401.5,552.5 401.5,605.5 401.5,658.5C 400.501,605.336 400.168,552.003 400.5,498.5C 411.552,497.857 422.219,498.524 432.5,500.5 Z"/></g>
<g><path style="opacity:1" fill="#e65935" d="M 210.5,495.5 C 212.273,496.314 212.773,497.648 212,499.5C 207.906,504.102 203.406,508.102 198.5,511.5C 198.5,509.833 198.5,508.167 198.5,506.5C 200.346,506.778 201.68,506.111 202.5,504.5C 200.914,502.827 200.247,500.827 200.5,498.5C 203.797,498.329 204.131,498.995 201.5,500.5C 202.559,501.696 203.893,502.363 205.5,502.5C 208.587,501.139 210.254,498.805 210.5,495.5 Z"/></g>
<g><path style="opacity:1" fill="#cf7255" d="M 127.5,504.5 C 126.836,506.867 125.503,508.867 123.5,510.5C 122.675,511.386 121.675,511.719 120.5,511.5C 122.5,508.833 124.833,506.5 127.5,504.5 Z"/></g>
<g><path style="opacity:1" fill="#dd7053" d="M 120.5,511.5 C 118.5,515.5 115.5,518.5 111.5,520.5C 114.167,517.167 117.167,514.167 120.5,511.5 Z"/></g>
<g><path style="opacity:1" fill="#d27558" d="M 111.5,520.5 C 110.836,522.867 109.503,524.867 107.5,526.5C 106.675,527.386 105.675,527.719 104.5,527.5C 106.5,524.833 108.833,522.5 111.5,520.5 Z"/></g>
<g><path style="opacity:1" fill="#fbfbfb" d="M 453.5,526.5 C 470.186,524.415 480.686,531.415 485,547.5C 486.06,556.974 485.393,566.307 483,575.5C 474.55,590.537 462.383,594.37 446.5,587C 440.516,581.867 437.016,575.367 436,567.5C 435.137,559.436 435.47,551.436 437,543.5C 440.045,535.29 445.545,529.623 453.5,526.5 Z"/></g>
<g><path style="opacity:1" fill="#fbfbfb" d="M 763.5,526.5 C 780.058,524.576 790.558,531.576 795,547.5C 796.06,556.974 795.393,566.307 793,575.5C 787.065,587.939 777.231,592.772 763.5,590C 753.272,586.096 747.438,578.596 746,567.5C 742.093,549.345 747.927,535.678 763.5,526.5 Z"/></g>
<g><path style="opacity:1" fill="#fbfbfb" d="M 1161.5,526.5 C 1179.38,524.219 1190.22,531.886 1194,549.5C 1195.12,558.737 1194.12,567.737 1191,576.5C 1182.43,590.912 1170.6,594.412 1155.5,587C 1150.09,582.345 1146.59,576.512 1145,569.5C 1144.09,560.756 1144.42,552.089 1146,543.5C 1148.96,535.709 1154.13,530.043 1161.5,526.5 Z"/></g>
<g><path style="opacity:1" fill="#2b2b2b" d="M 1059.5,526.5 C 1059.19,545.213 1059.53,563.88 1060.5,582.5C 1059.17,573.525 1058.5,564.191 1058.5,554.5C 1058.5,544.994 1058.83,535.661 1059.5,526.5 Z"/></g>
<g><path style="opacity:1" fill="#e89275" d="M 322.5,527.5 C 327.167,531.5 331.5,535.833 335.5,540.5C 330.167,537.167 325.833,532.833 322.5,527.5 Z"/></g>
<g><path style="opacity:1" fill="#e16549" d="M 223.5,527.5 C 221.167,531.833 217.833,535.167 213.5,537.5C 216.5,533.833 219.833,530.5 223.5,527.5 Z"/></g>
<g><path style="opacity:1" fill="#d5785b" d="M 95.5,536.5 C 94.8363,538.867 93.503,540.867 91.5,542.5C 90.675,543.386 89.675,543.719 88.5,543.5C 90.5,540.833 92.8333,538.5 95.5,536.5 Z"/></g>
<g><path style="opacity:1" fill="#7f7f7f" d="M 618.5,542.5 C 621.167,542.5 623.833,542.5 626.5,542.5C 626.5,556.833 626.5,571.167 626.5,585.5C 623.833,585.5 621.167,585.5 618.5,585.5C 618.5,571.167 618.5,556.833 618.5,542.5 Z"/></g>
<g><path style="opacity:1" fill="#e27b5e" d="M 88.5,543.5 C 86.5,547.5 83.5,550.5 79.5,552.5C 82.1667,549.167 85.1667,546.167 88.5,543.5 Z"/></g>
<g><path style="opacity:1" fill="#7f7f7f" d="M 693.5,578.5 C 693.5,580.833 693.5,583.167 693.5,585.5C 690.289,585.988 687.456,585.321 685,583.5C 683.621,572.555 683.121,561.555 683.5,550.5C 686.167,550.5 688.833,550.5 691.5,550.5C 690.861,560.227 691.528,569.56 693.5,578.5 Z"/></g>
<g><path style="opacity:1" fill="#e5694c" d="M 207.5,543.5 C 204.5,548.5 200.5,552.5 195.5,555.5C 199.167,551.167 203.167,547.167 207.5,543.5 Z"/></g>
<g><path style="opacity:1" fill="#e25939" d="M 161.5,549.5 C 156.5,555.167 151.167,560.5 145.5,565.5C 145.595,562.728 146.929,560.728 149.5,559.5C 150.452,557.955 150.785,556.288 150.5,554.5C 154.241,555.401 156.241,554.068 156.5,550.5C 158.216,550.371 159.883,550.038 161.5,549.5 Z"/></g>
<g><path style="opacity:1" fill="#e15f43" d="M 79.5,553.5 C 79.6715,555.492 79.0049,557.158 77.5,558.5C 78.8532,559.524 79.5198,560.857 79.5,562.5C 72.8917,559.364 72.8917,556.364 79.5,553.5 Z"/></g>
<g><path style="opacity:1" fill="#7f7f7f" d="M 599.5,585.5 C 602.848,578.381 603.182,571.381 600.5,564.5C 604.883,564.791 607.216,562.458 607.5,557.5C 606.167,557.5 604.833,557.5 603.5,557.5C 603.5,559.167 603.5,560.833 603.5,562.5C 600.833,562.5 598.167,562.5 595.5,562.5C 595.12,551.999 600.12,548.166 610.5,551C 611.931,551.465 613.097,552.299 614,553.5C 615.453,564.063 615.953,574.73 615.5,585.5C 612.028,586.037 609.195,585.037 607,582.5C 606.626,583.416 606.126,584.25 605.5,585C 603.527,585.495 601.527,585.662 599.5,585.5 Z"/></g>
<g><path style="opacity:1" fill="#f2a08a" d="M 348.5,554.5 C 350.022,555.191 351.022,556.358 351.5,558C 348.323,560.677 345.323,563.511 342.5,566.5C 341.61,564.218 341.444,561.885 342,559.5C 344.406,557.913 346.572,556.247 348.5,554.5 Z"/></g>
<g><path style="opacity:1" fill="#7a7a7a" d="M 637.5,537.5 C 638.496,553.325 638.83,569.325 638.5,585.5C 638.167,585.5 637.833,585.5 637.5,585.5C 634.68,585.752 632.014,585.252 629.5,584C 625.658,574.86 628.158,568.026 637,563.5C 637.808,561.421 637.641,559.421 636.5,557.5C 635.548,559.045 635.215,560.712 635.5,562.5C 632.833,562.5 630.167,562.5 627.5,562.5C 626.21,554.467 629.543,550.467 637.5,550.5C 637.5,546.167 637.5,541.833 637.5,537.5 Z"/></g>
<g><path style="opacity:1" fill="#7f7f7f" d="M 948.5,556.5 C 948.5,558.167 948.5,559.833 948.5,561.5C 946.952,561.821 946.285,562.821 946.5,564.5C 944.833,564.5 943.167,564.5 941.5,564.5C 941.018,559.318 943.351,556.651 948.5,556.5 Z"/></g>
<g><path style="opacity:1" fill="#7e7e7e" d="M 658.5,557.5 C 658.5,555.833 658.5,554.167 658.5,552.5C 659.988,551.061 661.822,550.395 664,550.5C 666.575,550.09 668.242,551.09 669,553.5C 672.252,550.512 675.918,549.845 680,551.5C 681.456,562.731 681.956,574.064 681.5,585.5C 678.833,585.5 676.167,585.5 673.5,585.5C 673.666,576.494 673.5,567.494 673,558.5C 672,557.167 671,557.167 670,558.5C 669.5,567.494 669.334,576.494 669.5,585.5C 666.833,585.5 664.167,585.5 661.5,585.5C 661.5,576.167 661.5,566.833 661.5,557.5C 660.5,557.5 659.5,557.5 658.5,557.5 Z"/></g>
<g><path style="opacity:1" fill="#f8f8f8" d="M 600.5,564.5 C 603.182,571.381 602.848,578.381 599.5,585.5C 589.857,594.439 579.19,595.773 567.5,589.5C 562.277,581.412 563.944,575.245 572.5,571C 582.033,569.48 591.366,567.313 600.5,564.5 Z"/></g>
<g><path style="opacity:1" fill="#e7674b" d="M 191.5,559.5 C 188.269,564.239 184.436,568.572 180,572.5C 179.517,573.448 179.351,574.448 179.5,575.5C 178.167,575.5 176.833,575.5 175.5,575.5C 180.5,569.833 185.833,564.5 191.5,559.5 Z"/></g>
<g><path style="opacity:1" fill="#f6f6f6" d="M 911.5,563.5 C 916.502,581.721 909.335,591.721 890,593.5C 879.031,593.536 874.031,588.203 875,577.5C 878.469,572.509 883.303,569.676 889.5,569C 897.386,568.862 904.719,567.029 911.5,563.5 Z"/></g>
<g><path style="opacity:1" fill="#111111" d="M 606.5,569.5 C 607.634,571.966 607.801,574.633 607,577.5C 604.605,578.798 603.438,577.965 603.5,575C 603.863,572.808 604.863,570.974 606.5,569.5 Z"/></g>
<g><path style="opacity:1" fill="#101010" d="M 636.5,571.5 C 637.629,573.628 637.796,575.961 637,578.5C 635.277,576.333 635.11,574 636.5,571.5 Z"/></g>
<g><path style="opacity:1" fill="#f34c21" d="M 255.5,463.5 C 258.837,463.187 261.171,464.52 262.5,467.5C 262.5,468.833 262.5,470.167 262.5,471.5C 267.558,472.151 268.891,474.484 266.5,478.5C 267,478.833 267.5,479.167 268,479.5C 269.077,478.571 270.244,477.904 271.5,477.5C 277.016,481.503 282.183,486.17 287,491.5C 287.49,492.793 287.657,494.127 287.5,495.5C 288.833,495.5 290.167,495.5 291.5,495.5C 291.657,496.873 291.49,498.207 291,499.5C 265.659,525.008 240.159,550.341 214.5,575.5C 213.325,575.281 212.325,575.614 211.5,576.5C 209.497,578.133 208.164,580.133 207.5,582.5C 204.833,585.5 202.167,588.5 199.5,591.5C 197.188,593.146 195.188,595.146 193.5,597.5C 197.881,602.548 202.548,607.215 207.5,611.5C 208.85,613.683 210.684,615.35 213,616.5C 216.655,613.678 220.155,610.678 223.5,607.5C 229.833,603.167 235.167,597.833 239.5,591.5C 245.833,587.167 251.167,581.833 255.5,575.5C 261.833,571.167 267.167,565.833 271.5,559.5C 277.882,555.452 282.882,550.118 286.5,543.5C 295.173,535.16 303.839,526.827 312.5,518.5C 314.524,520.358 316.691,522.025 319,523.5C 319.49,524.793 319.657,526.127 319.5,527.5C 320.5,527.5 321.5,527.5 322.5,527.5C 325.833,532.833 330.167,537.167 335.5,540.5C 335.5,541.5 335.5,542.5 335.5,543.5C 338.14,543.954 340.473,545.121 342.5,547C 344.334,549.663 346.334,552.163 348.5,554.5C 346.572,556.247 344.406,557.913 342,559.5C 341.444,561.885 341.61,564.218 342.5,566.5C 339.712,569.271 337.378,572.271 335.5,575.5C 308.324,601.007 281.658,627.34 255.5,654.5C 253.926,655.631 252.259,655.798 250.5,655C 246.964,651.296 243.298,647.796 239.5,644.5C 231.5,635.833 223.167,627.5 214.5,619.5C 213.749,618.427 212.749,618.26 211.5,619C 199.554,630.946 187.554,642.946 175.5,655C 173.833,655.667 172.167,655.667 170.5,655C 158.009,643.008 146.009,630.508 134.5,617.5C 139.457,610.875 145.123,604.875 151.5,599.5C 155.167,597.833 157.833,595.167 159.5,591.5C 164.064,588.609 168.064,584.943 171.5,580.5C 172.08,578.251 173.413,576.585 175.5,575.5C 176.833,575.5 178.167,575.5 179.5,575.5C 179.351,574.448 179.517,573.448 180,572.5C 184.436,568.572 188.269,564.239 191.5,559.5C 192.5,557.833 193.833,556.5 195.5,555.5C 200.5,552.5 204.5,548.5 207.5,543.5C 209.167,541.167 211.167,539.167 213.5,537.5C 217.833,535.167 221.167,531.833 223.5,527.5C 226.478,524.187 229.478,520.853 232.5,517.5C 226.303,511.138 220.303,504.638 214.5,498C 215.317,496.51 216.15,495.01 217,493.5C 222.059,488.939 226.892,484.272 231.5,479.5C 234.723,477.952 237.39,475.619 239.5,472.5C 239.5,472.167 239.5,471.833 239.5,471.5C 241.886,470.627 243.886,469.127 245.5,467C 248.817,466.502 252.15,466.335 255.5,466.5C 255.5,465.5 255.5,464.5 255.5,463.5 Z"/></g>
<g><path style="opacity:1" fill="#dc573c" d="M 271.5,559.5 C 267.167,565.833 261.833,571.167 255.5,575.5C 260.5,569.833 265.833,564.5 271.5,559.5 Z"/></g>
<g><path style="opacity:1" fill="#dd5d41" d="M 286.5,543.5 C 282.882,550.118 277.882,555.452 271.5,559.5C 276.5,554.167 281.5,548.833 286.5,543.5 Z"/></g>
<g><path style="opacity:1" fill="#1e1e1e" d="M 948.5,571.5 C 948.5,572.833 948.5,574.167 948.5,575.5C 947.414,575.38 946.747,574.713 946.5,573.5C 946.747,572.287 947.414,571.62 948.5,571.5 Z"/></g>
<g><path style="opacity:1" fill="#7c7c7c" d="M 948.5,565.5 C 948.5,567.5 948.5,569.5 948.5,571.5C 947.414,571.62 946.747,572.287 946.5,573.5C 946.747,574.713 947.414,575.38 948.5,575.5C 948.5,577.167 948.5,578.833 948.5,580.5C 946.473,580.662 944.473,580.495 942.5,580C 939.715,573.115 941.715,568.282 948.5,565.5 Z"/></g>
<g><path style="opacity:1" fill="#d45b40" d="M 214.5,575.5 C 212.452,578.215 210.118,580.548 207.5,582.5C 208.164,580.133 209.497,578.133 211.5,576.5C 212.325,575.614 213.325,575.281 214.5,575.5 Z"/></g>
<g><path style="opacity:1" fill="#dd583d" d="M 255.5,575.5 C 251.167,581.833 245.833,587.167 239.5,591.5C 244.5,585.833 249.833,580.5 255.5,575.5 Z"/></g>
<g><path style="opacity:1" fill="#e96b4f" d="M 171.5,580.5 C 168.064,584.943 164.064,588.609 159.5,591.5C 162.895,587.102 166.895,583.436 171.5,580.5 Z"/></g>
<g><path style="opacity:1" fill="#3d3d3d" d="M 693.5,588.5 C 693.5,588.833 693.5,589.167 693.5,589.5C 690.833,589.5 688.167,589.5 685.5,589.5C 685.5,591.833 685.5,594.167 685.5,596.5C 684.527,594.052 684.194,591.385 684.5,588.5C 687.5,588.5 690.5,588.5 693.5,588.5 Z"/></g>
<g><path style="opacity:1" fill="#808080" d="M 693.5,589.5 C 693.5,591.833 693.5,594.167 693.5,596.5C 690.833,596.5 688.167,596.5 685.5,596.5C 685.5,594.167 685.5,591.833 685.5,589.5C 688.167,589.5 690.833,589.5 693.5,589.5 Z"/></g>
<g><path style="opacity:1" fill="#f8efd7" d="M 199.5,591.5 C 199.604,594.09 198.937,596.423 197.5,598.5C 200.593,601.333 203.593,604.333 206.5,607.5C 207.429,608.689 207.762,610.022 207.5,611.5C 202.548,607.215 197.881,602.548 193.5,597.5C 195.188,595.146 197.188,593.146 199.5,591.5 Z"/></g>
<g><path style="opacity:1" fill="#e86e55" d="M 159.5,591.5 C 157.833,595.167 155.167,597.833 151.5,599.5C 153.833,596.5 156.5,593.833 159.5,591.5 Z"/></g>
<g><path style="opacity:1" fill="#fdf0e1" d="M 83.5,567.5 C 93.1667,576.5 102.5,585.833 111.5,595.5C 111.866,596.695 112.699,597.361 114,597.5C 116.017,595.651 117.85,593.651 119.5,591.5C 122.167,589.167 124.833,586.833 127.5,584.5C 125.777,590.078 122.444,594.578 117.5,598C 113.551,598.927 110.051,598.094 107,595.5C 104.273,591.162 101.107,587.162 97.5,583.5C 92.0988,581.054 88.2655,577.054 86,571.5C 84.9326,570.809 83.7659,570.309 82.5,570C 83.2524,569.329 83.5858,568.496 83.5,567.5 Z"/></g>
<g><path style="opacity:1" fill="#ce6e4d" d="M 119.5,591.5 C 117.85,593.651 116.017,595.651 114,597.5C 112.699,597.361 111.866,596.695 111.5,595.5C 114.167,594.167 116.833,592.833 119.5,591.5 Z"/></g>
<g><path style="opacity:1" fill="#dd5b3f" d="M 239.5,591.5 C 235.167,597.833 229.833,603.167 223.5,607.5C 228.5,601.833 233.833,596.5 239.5,591.5 Z"/></g>
<g><path style="opacity:1" fill="#404040" d="M 437.5,604.5 C 436.833,622.5 436.167,640.5 435.5,658.5C 435.167,640.155 435.5,621.821 436.5,603.5C 437.107,603.624 437.44,603.957 437.5,604.5 Z"/></g>
<g><path style="opacity:1" fill="#535353" d="M 637.5,585.5 C 637.833,585.5 638.167,585.5 638.5,585.5C 638.5,596.5 638.5,607.5 638.5,618.5C 627.986,618.828 617.653,618.494 607.5,617.5C 617.5,617.5 627.5,617.5 637.5,617.5C 637.5,606.833 637.5,596.167 637.5,585.5 Z"/></g>
<g><path style="opacity:1" fill="#f4f6e7" d="M 214.5,619.5 C 223.167,627.5 231.5,635.833 239.5,644.5C 235.223,645.905 233.223,644.239 233.5,639.5C 231.738,639.643 230.071,639.309 228.5,638.5C 226.102,633.265 222.102,630.098 216.5,629C 216.833,628.667 217.167,628.333 217.5,628C 215.893,626.951 215.227,625.451 215.5,623.5C 213.712,623.785 212.045,623.452 210.5,622.5C 212.332,621.943 213.665,620.943 214.5,619.5 Z"/></g>
<g><path style="opacity:1" fill="#6f6f6f" d="M 989.5,647.5 C 998.986,646.506 1008.65,646.173 1018.5,646.5C 1018.5,647.833 1018.5,649.167 1018.5,650.5C 1017.6,649.791 1017.26,648.791 1017.5,647.5C 1008.17,647.5 998.833,647.5 989.5,647.5 Z"/></g>
<g><path style="opacity:1" fill="#747474" d="M 1034.5,647.5 C 1031.3,646.964 1028.64,647.631 1026.5,649.5C 1025.6,648.791 1025.26,647.791 1025.5,646.5C 1028.71,646.19 1031.71,646.523 1034.5,647.5 Z"/></g>
<g><path style="opacity:1" fill="#7c7c7c" d="M 1073.5,649.5 C 1072.67,648.252 1071.33,647.585 1069.5,647.5C 1067.55,647.724 1065.88,648.391 1064.5,649.5C 1064.5,648.5 1064.5,647.5 1064.5,646.5C 1067.83,646.5 1071.17,646.5 1074.5,646.5C 1074.74,647.791 1074.4,648.791 1073.5,649.5 Z"/></g>
<g><path style="opacity:1" fill="#0e0e0e" d="M 1089.5,646.5 C 1095.26,646.149 1100.93,646.649 1106.5,648C 1114.08,654.12 1115.58,661.62 1111,670.5C 1105.33,676.212 1098.5,678.045 1090.5,676C 1080.6,670.63 1078.1,662.797 1083,652.5C 1085.06,650.266 1087.23,648.266 1089.5,646.5 Z"/></g>
<g><path style="opacity:1" fill="#6d6d6d" d="M 1183.5,647.5 C 1186.69,646.194 1190.02,646.194 1193.5,647.5C 1193.38,648.107 1193.04,648.44 1192.5,648.5C 1189.71,647.523 1186.71,647.19 1183.5,647.5 Z"/></g>
<g><path style="opacity:1" fill="#0e0e0e" d="M 1225.5,648.5 C 1225.8,651.059 1225.47,653.393 1224.5,655.5C 1219.73,653.682 1214.73,653.015 1209.5,653.5C 1209.33,654.822 1209.66,655.989 1210.5,657C 1216.58,657.248 1222.08,659.081 1227,662.5C 1229.28,669.292 1227.11,673.792 1220.5,676C 1214.37,676.9 1208.37,676.4 1202.5,674.5C 1201.35,671.894 1201.18,669.227 1202,666.5C 1207.16,669.305 1212.66,670.138 1218.5,669C 1219.83,668 1219.83,667 1218.5,666C 1213.34,665.281 1208.34,663.948 1203.5,662C 1198.89,655.531 1200.22,650.531 1207.5,647C 1213.66,646.102 1219.66,646.602 1225.5,648.5 Z"/></g>
<g><path style="opacity:1" fill="#646464" d="M 924.5,647.5 C 921.5,647.5 918.5,647.5 915.5,647.5C 915.5,656.833 915.5,666.167 915.5,675.5C 917.833,675.5 920.167,675.5 922.5,675.5C 922.172,670.125 922.505,664.792 923.5,659.5C 924.107,659.624 924.44,659.957 924.5,660.5C 923.512,665.64 923.179,670.974 923.5,676.5C 920.5,676.5 917.5,676.5 914.5,676.5C 914.5,666.5 914.5,656.5 914.5,646.5C 918.042,646.187 921.375,646.521 924.5,647.5 Z"/></g>
<g><path style="opacity:1" fill="#050505" d="M 924.5,647.5 C 927.84,652.83 931.673,657.83 936,662.5C 936.499,657.511 936.666,652.511 936.5,647.5C 939.167,647.5 941.833,647.5 944.5,647.5C 944.5,656.833 944.5,666.167 944.5,675.5C 941.482,675.665 938.482,675.498 935.5,675C 931.46,670.406 927.794,665.573 924.5,660.5C 924.44,659.957 924.107,659.624 923.5,659.5C 922.505,664.792 922.172,670.125 922.5,675.5C 920.167,675.5 917.833,675.5 915.5,675.5C 915.5,666.167 915.5,656.833 915.5,647.5C 918.5,647.5 921.5,647.5 924.5,647.5 Z"/></g>
<g><path style="opacity:1" fill="#a3a3a3" d="M 936.5,647.5 C 939.287,646.523 942.287,646.19 945.5,646.5C 945.827,656.348 945.494,666.014 944.5,675.5C 944.5,666.167 944.5,656.833 944.5,647.5C 941.833,647.5 939.167,647.5 936.5,647.5 Z"/></g>
<g><path style="opacity:1" fill="#050505" d="M 981.5,647.5 C 981.5,649.5 981.5,651.5 981.5,653.5C 975.833,653.5 970.167,653.5 964.5,653.5C 964.5,654.833 964.5,656.167 964.5,657.5C 968.634,658.485 972.968,658.818 977.5,658.5C 977.5,660.5 977.5,662.5 977.5,664.5C 973.167,664.5 968.833,664.5 964.5,664.5C 964.5,665.833 964.5,667.167 964.5,668.5C 970.406,668.854 976.073,669.854 981.5,671.5C 981.5,672.833 981.5,674.167 981.5,675.5C 973.167,675.5 964.833,675.5 956.5,675.5C 956.5,666.167 956.5,656.833 956.5,647.5C 964.833,647.5 973.167,647.5 981.5,647.5 Z"/></g>
<g><path style="opacity:1" fill="#070707" d="M 989.5,647.5 C 998.833,647.5 1008.17,647.5 1017.5,647.5C 1017.26,648.791 1017.6,649.791 1018.5,650.5C 1018.5,651.833 1018.5,653.167 1018.5,654.5C 1014.83,654.5 1011.17,654.5 1007.5,654.5C 1007.5,661.5 1007.5,668.5 1007.5,675.5C 1005.17,675.5 1002.83,675.5 1000.5,675.5C 1000.82,668.313 1000.49,661.313 999.5,654.5C 996.167,654.5 992.833,654.5 989.5,654.5C 989.5,652.167 989.5,649.833 989.5,647.5 Z"/></g>
<g><path style="opacity:1" fill="#0c0c0c" d="M 1064.5,649.5 C 1065.88,648.391 1067.55,647.724 1069.5,647.5C 1071.33,647.585 1072.67,648.252 1073.5,649.5C 1071.43,656.048 1069.76,662.715 1068.5,669.5C 1067.26,671.214 1066.59,673.214 1066.5,675.5C 1062.83,675.5 1059.17,675.5 1055.5,675.5C 1054.43,669.558 1052.6,663.891 1050,658.5C 1047.68,663.976 1045.84,669.642 1044.5,675.5C 1040.5,675.5 1036.5,675.5 1032.5,675.5C 1030.81,666.759 1028.81,658.092 1026.5,649.5C 1028.64,647.631 1031.3,646.964 1034.5,647.5C 1036.33,653.481 1038.16,659.481 1040,665.5C 1041.69,659.404 1043.69,653.404 1046,647.5C 1049.06,646.549 1052.22,646.216 1055.5,646.5C 1056.56,653.302 1058.23,659.969 1060.5,666.5C 1062.58,661.031 1063.91,655.365 1064.5,649.5 Z"/></g>
<g><path style="opacity:1" fill="#8b8b8b" d="M 1143.5,647.5 C 1136.83,647.5 1130.17,647.5 1123.5,647.5C 1123.5,656.833 1123.5,666.167 1123.5,675.5C 1122.51,666.014 1122.17,656.348 1122.5,646.5C 1129.69,646.175 1136.69,646.509 1143.5,647.5 Z"/></g>
<g><path style="opacity:1" fill="#080808" d="M 1143.5,647.5 C 1150.11,649.385 1152.61,653.718 1151,660.5C 1150.12,663.215 1148.62,665.549 1146.5,667.5C 1148.58,669.573 1150.25,671.907 1151.5,674.5C 1148.71,675.477 1145.71,675.81 1142.5,675.5C 1141.18,673.529 1139.84,671.529 1138.5,669.5C 1136.26,668.526 1133.92,668.192 1131.5,668.5C 1131.5,670.833 1131.5,673.167 1131.5,675.5C 1128.83,675.5 1126.17,675.5 1123.5,675.5C 1123.5,666.167 1123.5,656.833 1123.5,647.5C 1130.17,647.5 1136.83,647.5 1143.5,647.5 Z"/></g>
<g><path style="opacity:1" fill="#808080" d="M 1172.5,657.5 C 1171.52,654.375 1171.19,651.042 1171.5,647.5C 1168.83,647.5 1166.17,647.5 1163.5,647.5C 1163.5,656.833 1163.5,666.167 1163.5,675.5C 1162.51,666.014 1162.17,656.348 1162.5,646.5C 1165.83,646.5 1169.17,646.5 1172.5,646.5C 1172.5,650.167 1172.5,653.833 1172.5,657.5 Z"/></g>
<g><path style="opacity:1" fill="#070707" d="M 1172.5,657.5 C 1173.55,657.649 1174.55,657.483 1175.5,657C 1178.03,653.642 1180.7,650.476 1183.5,647.5C 1186.71,647.19 1189.71,647.523 1192.5,648.5C 1189.6,652.748 1186.26,656.748 1182.5,660.5C 1185.84,665.196 1189.18,669.863 1192.5,674.5C 1190.05,675.473 1187.39,675.806 1184.5,675.5C 1181.36,672.192 1178.36,668.692 1175.5,665C 1174.21,664.51 1172.87,664.343 1171.5,664.5C 1171.5,668.167 1171.5,671.833 1171.5,675.5C 1168.83,675.5 1166.17,675.5 1163.5,675.5C 1163.5,666.167 1163.5,656.833 1163.5,647.5C 1166.17,647.5 1168.83,647.5 1171.5,647.5C 1171.19,651.042 1171.52,654.375 1172.5,657.5 Z"/></g>
<g><path style="opacity:1" fill="#656565" d="M 1225.5,648.5 C 1226.8,651.024 1226.8,653.691 1225.5,656.5C 1224.89,656.376 1224.56,656.043 1224.5,655.5C 1225.47,653.393 1225.8,651.059 1225.5,648.5 Z"/></g>
<g><path style="opacity:1" fill="#969696" d="M 1140.5,654.5 C 1137.83,654.5 1135.17,654.5 1132.5,654.5C 1132.5,656.833 1132.5,659.167 1132.5,661.5C 1131.53,659.052 1131.19,656.385 1131.5,653.5C 1134.71,653.19 1137.71,653.523 1140.5,654.5 Z"/></g>
<g><path style="opacity:1" fill="#f4f4f4" d="M 1093.5,653.5 C 1104.58,653.125 1107.58,657.958 1102.5,668C 1091.74,671.577 1087.57,667.744 1090,656.5C 1091.15,655.364 1092.31,654.364 1093.5,653.5 Z"/></g>
<g><path style="opacity:1" fill="#f5f5f5" d="M 1140.5,654.5 C 1142.69,656.282 1143.02,658.448 1141.5,661C 1138.52,661.498 1135.52,661.665 1132.5,661.5C 1132.5,659.167 1132.5,656.833 1132.5,654.5C 1135.17,654.5 1137.83,654.5 1140.5,654.5 Z"/></g>
<g><path style="opacity:1" fill="#666666" d="M 981.5,647.5 C 973.167,647.5 964.833,647.5 956.5,647.5C 956.5,656.833 956.5,666.167 956.5,675.5C 964.833,675.5 973.167,675.5 981.5,675.5C 973.016,676.493 964.349,676.826 955.5,676.5C 955.5,666.5 955.5,656.5 955.5,646.5C 964.349,646.174 973.016,646.507 981.5,647.5 Z"/></g>
<g><path style="opacity:1" fill="#7b7b7b" d="M 999.5,654.5 C 1000.49,661.313 1000.82,668.313 1000.5,675.5C 1002.83,675.5 1005.17,675.5 1007.5,675.5C 1005.05,676.473 1002.39,676.806 999.5,676.5C 999.5,669.167 999.5,661.833 999.5,654.5 Z"/></g>
<g><path style="opacity:1" fill="#7a7a7a" d="M 964.5,657.5 C 969.167,657.5 973.833,657.5 978.5,657.5C 978.802,660.059 978.468,662.393 977.5,664.5C 977.5,662.5 977.5,660.5 977.5,658.5C 972.968,658.818 968.634,658.485 964.5,657.5 Z"/></g>
<g><path style="opacity:1" fill="#5a5a5a" d="M 964.5,668.5 C 970.5,668.5 976.5,668.5 982.5,668.5C 982.737,669.791 982.404,670.791 981.5,671.5C 976.073,669.854 970.406,668.854 964.5,668.5 Z"/></g>
<g><path style="opacity:1" fill="#a1a1a1" d="M 1068.5,669.5 C 1068.33,671.861 1067.99,674.194 1067.5,676.5C 1063.3,676.817 1059.3,676.483 1055.5,675.5C 1059.17,675.5 1062.83,675.5 1066.5,675.5C 1066.59,673.214 1067.26,671.214 1068.5,669.5 Z"/></g>
<g><path style="opacity:1" fill="#858585" d="M 1151.5,674.5 C 1152.04,674.56 1152.38,674.893 1152.5,675.5C 1149.02,676.806 1145.69,676.806 1142.5,675.5C 1145.71,675.81 1148.71,675.477 1151.5,674.5 Z"/></g>
<g><path style="opacity:1" fill="#878787" d="M 1192.5,674.5 C 1193.04,674.56 1193.38,674.893 1193.5,675.5C 1190.36,676.803 1187.36,676.803 1184.5,675.5C 1187.39,675.806 1190.05,675.473 1192.5,674.5 Z"/></g>
<g><path style="opacity:1" fill="#010101" d="M -0.5,1143.5 C 432.833,1143.5 866.167,1143.5 1299.5,1143.5C 1299.5,1173.5 1299.5,1203.5 1299.5,1233.5C 866.167,1233.5 432.833,1233.5 -0.5,1233.5C -0.5,1203.5 -0.5,1173.5 -0.5,1143.5 Z"/></g>
<g><path style="opacity:1" fill="#efefef" d="M 77.5,1163.5 C 77.5,1176.83 77.5,1190.17 77.5,1203.5C 75.1667,1203.5 72.8333,1203.5 70.5,1203.5C 70.5,1190.17 70.5,1176.83 70.5,1163.5C 72.8333,1163.5 75.1667,1163.5 77.5,1163.5 Z"/></g>
<g><path style="opacity:1" fill="#414141" d="M 77.5,1163.5 C 78.1667,1173.83 78.8333,1184.17 79.5,1194.5C 79.5,1195.5 79.5,1196.5 79.5,1197.5C 78.8333,1199.5 78.1667,1201.5 77.5,1203.5C 77.5,1190.17 77.5,1176.83 77.5,1163.5 Z"/></g>
<g><path style="opacity:1" fill="#f4f4f4" d="M 1167.5,1171.5 C 1168.25,1170.43 1169.25,1170.26 1170.5,1171C 1169.17,1174 1169.17,1177 1170.5,1180C 1169.5,1180.67 1168.5,1180.67 1167.5,1180C 1168.82,1177.06 1168.82,1174.23 1167.5,1171.5 Z"/></g>
<g><path style="opacity:1" fill="#cacaca" d="M 1234.5,1170.5 C 1236.17,1170.5 1237.83,1170.5 1239.5,1170.5C 1239.38,1174.84 1239.04,1175.17 1238.5,1171.5C 1237.18,1171.33 1236.01,1171.66 1235,1172.5C 1234.54,1171.91 1234.37,1171.24 1234.5,1170.5 Z"/></g>
<g><path style="opacity:1" fill="#bfbfbf" d="M 1243.5,1175.5 C 1241.65,1171.51 1242.98,1170.01 1247.5,1171C 1248.6,1173.4 1248.77,1175.9 1248,1178.5C 1246.87,1180.21 1245.37,1180.71 1243.5,1180C 1247.45,1178.31 1247.45,1176.81 1243.5,1175.5 Z"/></g>
<g><path style="opacity:1" fill="#f4f4f4" d="M 55.5,1170.5 C 60.4466,1169.63 64.6132,1170.96 68,1174.5C 68.1926,1183.88 68.6926,1193.21 69.5,1202.5C 66.6034,1203.91 63.9367,1203.58 61.5,1201.5C 51.8923,1205.41 48.059,1202.08 50,1191.5C 51.1217,1189.38 52.6217,1187.54 54.5,1186C 59.0837,1184.78 61.2504,1181.94 61,1177.5C 60,1176.17 59,1176.17 58,1177.5C 57.51,1178.79 57.3433,1180.13 57.5,1181.5C 55.1667,1181.5 52.8333,1181.5 50.5,1181.5C 49.7753,1176.62 51.4419,1172.96 55.5,1170.5 Z"/></g>
<g><path style="opacity:1" fill="#f3f3f3" d="M 79.5,1197.5 C 79.5,1196.5 79.5,1195.5 79.5,1194.5C 79.2471,1192.17 79.9137,1190.17 81.5,1188.5C 84.7556,1186.29 87.9223,1183.96 91,1181.5C 92.174,1177.34 90.8406,1176.01 87,1177.5C 86.51,1178.79 86.3433,1180.13 86.5,1181.5C 84.5,1181.5 82.5,1181.5 80.5,1181.5C 80.5,1179.83 80.5,1178.17 80.5,1176.5C 82.958,1170.79 87.2913,1168.96 93.5,1171C 94.9308,1171.47 96.0975,1172.3 97,1173.5C 98.4495,1183.39 98.9495,1193.39 98.5,1203.5C 95.6354,1203.95 93.1354,1203.28 91,1201.5C 85.0529,1206.22 81.2196,1204.89 79.5,1197.5 Z"/></g>
<g><path style="opacity:1" fill="#f1f1f1" d="M 100.5,1170.5 C 102.833,1170.5 105.167,1170.5 107.5,1170.5C 107.351,1171.55 107.517,1172.55 108,1173.5C 111.46,1169.55 114.96,1169.55 118.5,1173.5C 121.552,1170.02 124.886,1169.69 128.5,1172.5C 129.476,1182.78 129.809,1193.11 129.5,1203.5C 127.167,1203.5 124.833,1203.5 122.5,1203.5C 122.5,1194.5 122.5,1185.5 122.5,1176.5C 121.178,1176.33 120.011,1176.66 119,1177.5C 118.5,1186.16 118.334,1194.83 118.5,1203.5C 116.167,1203.5 113.833,1203.5 111.5,1203.5C 111.666,1194.83 111.5,1186.16 111,1177.5C 110,1176.17 109,1176.17 108,1177.5C 107.5,1186.16 107.334,1194.83 107.5,1203.5C 105.167,1203.5 102.833,1203.5 100.5,1203.5C 100.5,1192.5 100.5,1181.5 100.5,1170.5 Z"/></g>
<g><path style="opacity:1" fill="#f8f8f8" d="M 138.5,1171.5 C 138.334,1179.84 138.5,1188.17 139,1196.5C 140.915,1197.92 142.415,1197.58 143.5,1195.5C 144.492,1187.68 144.826,1179.68 144.5,1171.5C 146.5,1171.5 148.5,1171.5 150.5,1171.5C 150.944,1184.91 150.444,1198.24 149,1211.5C 144.033,1213.29 138.866,1213.96 133.5,1213.5C 133.5,1211.5 133.5,1209.5 133.5,1207.5C 136.518,1207.66 139.518,1207.5 142.5,1207C 144.449,1201.69 143.449,1200.69 139.5,1204C 135.756,1204.76 133.423,1203.26 132.5,1199.5C 132.5,1190.17 132.5,1180.83 132.5,1171.5C 134.5,1171.5 136.5,1171.5 138.5,1171.5 Z"/></g>
<g><path style="opacity:1" fill="#f5f5f5" d="M 1120.5,1171.5 C 1121.25,1170.43 1122.25,1170.26 1123.5,1171C 1122.17,1174 1122.17,1177 1123.5,1180C 1122.5,1180.67 1121.5,1180.67 1120.5,1180C 1121.82,1177.06 1121.82,1174.23 1120.5,1171.5 Z"/></g>
<g><path style="opacity:1" fill="#acacac" d="M 1191.5,1170.5 C 1195.34,1170.61 1195.34,1171.28 1191.5,1172.5C 1190.54,1172.03 1190.54,1171.36 1191.5,1170.5 Z"/></g>
<g><path style="opacity:1" fill="#e0e0e0" d="M 1211.5,1171.5 C 1209.09,1171.69 1208.09,1173.03 1208.5,1175.5C 1207.4,1174.4 1207.24,1173.07 1208,1171.5C 1209.29,1170.21 1210.46,1170.21 1211.5,1171.5 Z"/></g>
<g><path style="opacity:1" fill="#171717" d="M 1211.5,1171.5 C 1211.5,1172.83 1211.5,1174.17 1211.5,1175.5C 1210.5,1175.5 1209.5,1175.5 1208.5,1175.5C 1208.09,1173.03 1209.09,1171.69 1211.5,1171.5 Z"/></g>
<g><path style="opacity:1" fill="#b1b1b1" d="M 1182.5,1172.5 C 1184.34,1172.64 1184.67,1173.31 1183.5,1174.5C 1182.7,1174.04 1182.37,1173.38 1182.5,1172.5 Z"/></g>
<g><path style="opacity:1" fill="#1a1a1a" d="M 1243.5,1175.5 C 1243.22,1173.65 1243.89,1172.32 1245.5,1171.5C 1246.43,1172.69 1246.76,1174.02 1246.5,1175.5C 1245.5,1175.5 1244.5,1175.5 1243.5,1175.5 Z"/></g>
<g><path style="opacity:1" fill="#afafaf" d="M 1203.5,1175.5 C 1205.96,1181.37 1205.3,1181.7 1201.5,1176.5C 1200.83,1177.83 1200.17,1179.17 1199.5,1180.5C 1198.51,1177.23 1198.18,1173.9 1198.5,1170.5C 1200.53,1170.34 1202.53,1170.5 1204.5,1171C 1205.92,1172.92 1205.58,1174.42 1203.5,1175.5 Z"/></g>
<g><path style="opacity:1" fill="#191919" d="M 1203.5,1175.5 C 1202.5,1175.5 1201.5,1175.5 1200.5,1175.5C 1200.5,1174.17 1200.5,1172.83 1200.5,1171.5C 1201.5,1171.5 1202.5,1171.5 1203.5,1171.5C 1203.5,1172.83 1203.5,1174.17 1203.5,1175.5 Z"/></g>
<g><path style="opacity:1" fill="#bbbbbb" d="M 1223.5,1170.5 C 1224.5,1170.41 1225.33,1170.75 1226,1171.5C 1227.33,1173.5 1228.67,1175.5 1230,1177.5C 1230.33,1175.17 1230.67,1172.83 1231,1170.5C 1232.57,1180.71 1230.9,1182.04 1226,1174.5C 1225.81,1176.58 1225.31,1178.58 1224.5,1180.5C 1223.51,1177.23 1223.18,1173.9 1223.5,1170.5 Z"/></g>
<g><path style="opacity:1" fill="#c0c0c0" d="M 150.5,1171.5 C 148.5,1171.5 146.5,1171.5 144.5,1171.5C 144.826,1179.68 144.492,1187.68 143.5,1195.5C 143.5,1187.17 143.5,1178.83 143.5,1170.5C 146.059,1170.2 148.393,1170.53 150.5,1171.5 Z"/></g>
<g><path style="opacity:1" fill="#b8b8b8" d="M 1125.5,1172.5 C 1127.2,1172.34 1128.87,1172.51 1130.5,1173C 1129.55,1173.48 1128.55,1173.65 1127.5,1173.5C 1127.81,1175.92 1127.47,1178.26 1126.5,1180.5C 1125.52,1177.91 1125.19,1175.25 1125.5,1172.5 Z"/></g>
<g><path style="opacity:1" fill="#e2e2e2" d="M 1132.5,1173.5 C 1133.54,1172.21 1134.71,1172.21 1136,1173.5C 1136.67,1175.83 1136.67,1178.17 1136,1180.5C 1135.67,1178.5 1135.33,1176.5 1135,1174.5C 1134.33,1173.75 1133.5,1173.41 1132.5,1173.5 Z"/></g>
<g><path style="opacity:1" fill="#dadada" d="M 1156.5,1172.5 C 1159.95,1171.76 1161.62,1173.09 1161.5,1176.5C 1159.71,1176.21 1158.05,1176.55 1156.5,1177.5C 1156.71,1178.09 1157.04,1178.59 1157.5,1179C 1159.08,1179.08 1160.42,1179.25 1161.5,1179.5C 1159.93,1180.63 1158.26,1180.8 1156.5,1180C 1155.22,1177.5 1155.22,1175 1156.5,1172.5 Z"/></g>
<g><path style="opacity:1" fill="#1e1e1e" d="M 1157.5,1173.5 C 1158.76,1173.46 1159.76,1173.96 1160.5,1175C 1159.17,1175.67 1157.83,1175.67 1156.5,1175C 1157.06,1174.62 1157.39,1174.12 1157.5,1173.5 Z"/></g>
<g><path style="opacity:1" fill="#cbcbcb" d="M 1172.5,1170.5 C 1180.49,1170 1182.49,1173.16 1178.5,1180C 1176.53,1180.5 1174.53,1180.66 1172.5,1180.5C 1172.5,1177.17 1172.5,1173.83 1172.5,1170.5 Z"/></g>
<g><path style="opacity:1" fill="#0f0f0f" d="M 1174.5,1171.5 C 1179.67,1172.34 1180.67,1174.84 1177.5,1179C 1176.55,1179.48 1175.55,1179.65 1174.5,1179.5C 1174.5,1176.83 1174.5,1174.17 1174.5,1171.5 Z"/></g>
<g><path style="opacity:1" fill="#aeaeae" d="M 1211.5,1171.5 C 1212.73,1172.15 1213.39,1173.32 1213.5,1175C 1213.73,1178.77 1212.07,1180.43 1208.5,1180C 1212.45,1178.31 1212.45,1176.81 1208.5,1175.5C 1209.5,1175.5 1210.5,1175.5 1211.5,1175.5C 1211.5,1174.17 1211.5,1172.83 1211.5,1171.5 Z"/></g>
<g><path style="opacity:1" fill="#b4b4b4" d="M 138.5,1171.5 C 136.5,1171.5 134.5,1171.5 132.5,1171.5C 132.5,1180.83 132.5,1190.17 132.5,1199.5C 131.506,1190.01 131.173,1180.35 131.5,1170.5C 134.059,1170.2 136.393,1170.53 138.5,1171.5 Z"/></g>
<g><path style="opacity:1" fill="#adadad" d="M 1238.5,1175.5 C 1240.34,1176.2 1240.84,1177.54 1240,1179.5C 1238.27,1180.58 1236.44,1180.74 1234.5,1180C 1235.79,1179.51 1237.13,1179.34 1238.5,1179.5C 1238.5,1178.17 1238.5,1176.83 1238.5,1175.5 Z"/></g>
<g><path style="opacity:1" fill="#bababa" d="M 1139.5,1173.5 C 1140.88,1172.2 1142.38,1172.2 1144,1173.5C 1144.5,1175.81 1144.66,1178.14 1144.5,1180.5C 1142.5,1180.5 1140.5,1180.5 1138.5,1180.5C 1137.84,1177.16 1139.18,1175.16 1142.5,1174.5C 1141.68,1173.61 1140.68,1173.28 1139.5,1173.5 Z"/></g>
<g><path style="opacity:1" fill="#131313" d="M 1140.5,1176.5 C 1142.46,1176.95 1142.8,1177.95 1141.5,1179.5C 1139.48,1178.87 1139.15,1177.87 1140.5,1176.5 Z"/></g>
<g><path style="opacity:1" fill="#6e6e6e" d="M 1150.5,1172.5 C 1151.5,1172.5 1152.5,1172.5 1153.5,1172.5C 1153.81,1176.04 1153.48,1179.38 1152.5,1182.5C 1152.84,1179.03 1152.51,1176.36 1151.5,1174.5C 1150.83,1174.5 1150.5,1174.17 1150.5,1173.5C 1150.5,1173.17 1150.5,1172.83 1150.5,1172.5 Z"/></g>
<g><path style="opacity:1" fill="#5a5a5a" d="M 1196.5,1179.5 C 1194.52,1179.84 1193.18,1179.18 1192.5,1177.5C 1194.26,1174.86 1194.6,1175.02 1193.5,1178C 1194.74,1178.23 1195.74,1178.73 1196.5,1179.5 Z"/></g>
<g><path style="opacity:1" fill="#b1b1b1" d="M 1182.5,1178.5 C 1184.34,1178.64 1184.67,1179.31 1183.5,1180.5C 1182.7,1180.04 1182.37,1179.38 1182.5,1178.5 Z"/></g>
<g><path style="opacity:1" fill="#ebebeb" d="M 1192.5,1177.5 C 1193.18,1179.18 1194.52,1179.84 1196.5,1179.5C 1194.64,1180.79 1192.64,1180.79 1190.5,1179.5C 1190.86,1178.48 1191.52,1177.81 1192.5,1177.5 Z"/></g>
<g><path style="opacity:1" fill="#bdbdbd" d="M 1215.5,1170.5 C 1217.53,1170.34 1219.53,1170.5 1221.5,1171C 1220.21,1171.49 1218.87,1171.66 1217.5,1171.5C 1217.5,1172.5 1217.5,1173.5 1217.5,1174.5C 1222.83,1174.83 1222.83,1175.17 1217.5,1175.5C 1217.5,1176.83 1217.5,1178.17 1217.5,1179.5C 1218.87,1179.34 1220.21,1179.51 1221.5,1180C 1219.53,1180.5 1217.53,1180.66 1215.5,1180.5C 1215.5,1177.17 1215.5,1173.83 1215.5,1170.5 Z"/></g>
<g><path style="opacity:1" fill="#d0d0d0" d="M 1150.5,1172.5 C 1150.5,1172.83 1150.5,1173.17 1150.5,1173.5C 1147.76,1174.07 1146.92,1175.74 1148,1178.5C 1149,1179.83 1150,1179.83 1151,1178.5C 1151.49,1177.21 1151.66,1175.87 1151.5,1174.5C 1152.51,1176.36 1152.84,1179.03 1152.5,1182.5C 1151.34,1184.38 1149.67,1184.88 1147.5,1184C 1152.63,1182.44 1152.63,1181.11 1147.5,1180C 1146.41,1177.94 1146.24,1175.77 1147,1173.5C 1148.01,1172.66 1149.18,1172.33 1150.5,1172.5 Z"/></g>
<g><path style="opacity:1" fill="#141414" d="M 1150.5,1173.5 C 1150.5,1174.17 1150.83,1174.5 1151.5,1174.5C 1151.66,1175.87 1151.49,1177.21 1151,1178.5C 1150,1179.83 1149,1179.83 1148,1178.5C 1146.92,1175.74 1147.76,1174.07 1150.5,1173.5 Z"/></g>
<g><path style="opacity:1" fill="#686868" d="M 80.5,1176.5 C 80.5,1178.17 80.5,1179.83 80.5,1181.5C 82.5,1181.5 84.5,1181.5 86.5,1181.5C 84.3926,1182.47 82.0593,1182.8 79.5,1182.5C 79.2053,1180.26 79.5386,1178.26 80.5,1176.5 Z"/></g>
<g><path style="opacity:1" fill="#0e0e0e" d="M 60.5,1188.5 C 61.4731,1190.95 61.8064,1193.61 61.5,1196.5C 60.3991,1197.6 59.0657,1197.76 57.5,1197C 56.9415,1196.28 56.6082,1195.44 56.5,1194.5C 57.4316,1192.23 58.7649,1190.23 60.5,1188.5 Z"/></g>
<g><path style="opacity:1" fill="#111111" d="M 89.5,1188.5 C 90.7479,1189.33 91.4146,1190.67 91.5,1192.5C 92.1571,1196.51 90.4905,1198.18 86.5,1197.5C 85.9238,1193.89 86.9238,1190.89 89.5,1188.5 Z"/></g>
<g><path style="opacity:1" fill="#7a7a7a" d="M 60.5,1188.5 C 60.56,1187.96 60.8933,1187.62 61.5,1187.5C 62.8032,1190.64 62.8032,1193.64 61.5,1196.5C 61.8064,1193.61 61.4731,1190.95 60.5,1188.5 Z"/></g>
<g><path style="opacity:1" fill="#e1e1e1" d="M 1187.5,1195.5 C 1191.44,1195.64 1195.44,1195.8 1199.5,1196C 1201.31,1198.48 1201.98,1201.31 1201.5,1204.5C 1200.5,1204.5 1199.5,1204.5 1198.5,1204.5C 1198.5,1202.17 1198.5,1199.83 1198.5,1197.5C 1197.5,1197.5 1196.5,1197.5 1195.5,1197.5C 1194.83,1206.83 1194.17,1206.83 1193.5,1197.5C 1192.5,1197.5 1191.5,1197.5 1190.5,1197.5C 1190.5,1199.83 1190.5,1202.17 1190.5,1204.5C 1189.5,1204.5 1188.5,1204.5 1187.5,1204.5C 1187.5,1201.5 1187.5,1198.5 1187.5,1195.5 Z"/></g>
<g><path style="opacity:1" fill="#e8e8e8" d="M 1219.5,1195.5 C 1220.98,1195.24 1222.31,1195.57 1223.5,1196.5C 1218.17,1198.83 1218.17,1201.17 1223.5,1203.5C 1219.88,1205.4 1217.88,1204.4 1217.5,1200.5C 1217.44,1198.49 1218.1,1196.82 1219.5,1195.5 Z"/></g>
<g><path style="opacity:1" fill="#e4e4e4" d="M 1235.5,1195.5 C 1239.44,1195.64 1243.44,1195.8 1247.5,1196C 1249.31,1198.48 1249.98,1201.31 1249.5,1204.5C 1248.5,1204.5 1247.5,1204.5 1246.5,1204.5C 1246.5,1202.17 1246.5,1199.83 1246.5,1197.5C 1245.5,1197.5 1244.5,1197.5 1243.5,1197.5C 1242.83,1206.83 1242.17,1206.83 1241.5,1197.5C 1240.5,1197.5 1239.5,1197.5 1238.5,1197.5C 1238.5,1199.83 1238.5,1202.17 1238.5,1204.5C 1237.5,1204.5 1236.5,1204.5 1235.5,1204.5C 1235.5,1201.5 1235.5,1198.5 1235.5,1195.5 Z"/></g>
<g><path style="opacity:1" fill="#e0e0e0" d="M 1114.5,1195.5 C 1115.5,1195.5 1116.5,1195.5 1117.5,1195.5C 1118.17,1199.5 1118.83,1199.5 1119.5,1195.5C 1120.83,1195.5 1122.17,1195.5 1123.5,1195.5C 1123.39,1201.83 1124.39,1201.83 1126.5,1195.5C 1127.18,1198.16 1126.85,1200.83 1125.5,1203.5C 1124.68,1204.39 1123.68,1204.72 1122.5,1204.5C 1122.14,1197.42 1121.14,1197.09 1119.5,1203.5C 1118.68,1204.39 1117.68,1204.72 1116.5,1204.5C 1115.99,1201.46 1115.32,1198.46 1114.5,1195.5 Z"/></g>
<g><path style="opacity:1" fill="#e0e0e0" d="M 1163.5,1195.5 C 1169.68,1195.5 1171.68,1198.5 1169.5,1204.5C 1167.33,1204.27 1165.16,1203.94 1163,1203.5C 1161.86,1199.63 1163.36,1197.8 1167.5,1198C 1165.56,1197.88 1164.23,1197.05 1163.5,1195.5 Z"/></g>
<g><path style="opacity:1" fill="#f0f0f0" d="M 1178.5,1195.5 C 1180.47,1195.26 1182.3,1195.59 1184,1196.5C 1184.67,1199.17 1184.67,1201.83 1184,1204.5C 1182.03,1204.35 1180.03,1204.02 1178,1203.5C 1176.86,1199.63 1178.36,1197.8 1182.5,1198C 1180.56,1197.88 1179.23,1197.05 1178.5,1195.5 Z"/></g>
<g><path style="opacity:1" fill="#c7c7c7" d="M 1172.5,1192.5 C 1173.5,1192.5 1174.5,1192.5 1175.5,1192.5C 1175.5,1196.5 1175.5,1200.5 1175.5,1204.5C 1174.5,1204.5 1173.5,1204.5 1172.5,1204.5C 1172.5,1200.5 1172.5,1196.5 1172.5,1192.5 Z"/></g>
<g><path style="opacity:1" fill="#d9d9d9" d="M 1128.5,1196.5 C 1129.21,1195.6 1130.21,1195.26 1131.5,1195.5C 1132.17,1199.5 1132.83,1199.5 1133.5,1195.5C 1134.83,1195.5 1136.17,1195.5 1137.5,1195.5C 1137.34,1201.31 1138.01,1201.65 1139.5,1196.5C 1141.4,1195.53 1143.4,1195.2 1145.5,1195.5C 1146.17,1199.5 1146.83,1199.5 1147.5,1195.5C 1148.83,1195.5 1150.17,1195.5 1151.5,1195.5C 1151.34,1197.2 1151.51,1198.87 1152,1200.5C 1152.36,1198.58 1153.19,1196.91 1154.5,1195.5C 1155.49,1198.24 1155.16,1200.9 1153.5,1203.5C 1152.68,1204.39 1151.68,1204.72 1150.5,1204.5C 1149.25,1196.65 1148.58,1196.65 1148.5,1204.5C 1147.17,1204.5 1145.83,1204.5 1144.5,1204.5C 1143.47,1194.74 1141.8,1194.41 1139.5,1203.5C 1138.68,1204.39 1137.68,1204.72 1136.5,1204.5C 1135.37,1196.7 1134.71,1196.7 1134.5,1204.5C 1133.17,1204.5 1131.83,1204.5 1130.5,1204.5C 1130.43,1201.57 1129.77,1198.91 1128.5,1196.5 Z"/></g>
<g><path style="opacity:1" fill="#272727" d="M 1165.5,1199.5 C 1167.05,1199.82 1167.71,1200.82 1167.5,1202.5C 1164.75,1202.6 1164.09,1201.6 1165.5,1199.5 Z"/></g>
<g><path style="opacity:1" fill="#eeeeee" d="M 1227.5,1195.5 C 1233.64,1196.03 1234.98,1198.86 1231.5,1204C 1226.5,1204.66 1224.67,1202.5 1226,1197.5C 1226.72,1196.96 1227.22,1196.29 1227.5,1195.5 Z"/></g>
<g><path style="opacity:1" fill="#1e1e1e" d="M 1228.5,1197.5 C 1231.96,1198.54 1232.29,1200.2 1229.5,1202.5C 1227.3,1201.22 1226.96,1199.55 1228.5,1197.5 Z"/></g>
<g><path style="opacity:1" fill="#272727" d="M 1180.5,1199.5 C 1182.05,1199.82 1182.71,1200.82 1182.5,1202.5C 1179.75,1202.6 1179.09,1201.6 1180.5,1199.5 Z"/></g>
<g><path style="opacity:1" fill="#dfdfdf" d="M 1202.5,1195.5 C 1205.35,1195.81 1206.85,1197.48 1207,1200.5C 1208.01,1198.98 1208.51,1197.31 1208.5,1195.5C 1209.55,1195.35 1210.55,1195.52 1211.5,1196C 1210,1199.82 1208.5,1203.65 1207,1207.5C 1205.51,1208.75 1204.01,1208.75 1202.5,1207.5C 1203.32,1206.61 1204.32,1206.28 1205.5,1206.5C 1205.38,1202.59 1204.38,1198.92 1202.5,1195.5 Z"/></g>
<g><path style="opacity:1" fill="#d8d8d8" d="M 1157.5,1201.5 C 1159.46,1201.95 1159.8,1202.95 1158.5,1204.5C 1157.61,1203.68 1157.28,1202.68 1157.5,1201.5 Z"/></g>
<g><path style="opacity:1" fill="#bfbfbf" d="M 1212.5,1201.5 C 1216.31,1202.75 1216.31,1203.75 1212.5,1204.5C 1212.5,1203.5 1212.5,1202.5 1212.5,1201.5 Z"/></g>
</svg>
