<?xml version="1.0" encoding="UTF-8"?>
<!DOCTYPE svg PUBLIC "-//W3C//DTD SVG 1.1//EN" "http://www.w3.org/Graphics/SVG/1.1/DTD/svg11.dtd">
<svg xmlns="http://www.w3.org/2000/svg" version="1.1" width="295px" height="295px" style="shape-rendering:geometricPrecision; text-rendering:geometricPrecision; image-rendering:optimizeQuality; fill-rule:evenodd; clip-rule:evenodd" xmlns:xlink="http://www.w3.org/1999/xlink">
<g><path style="opacity:1" fill="#f5f5f5" d="M 89.5,-0.5 C 157.833,-0.5 226.167,-0.5 294.5,-0.5C 294.5,29.5 294.5,59.5 294.5,89.5C 291.167,89.5 287.833,89.5 284.5,89.5C 284.666,84.8215 284.499,80.1548 284,75.5C 279.263,74.5308 274.43,74.1975 269.5,74.5C 269.5,69.5 269.5,64.5 269.5,59.5C 274.5,59.5 279.5,59.5 284.5,59.5C 284.5,54.5 284.5,49.5 284.5,44.5C 279.5,44.5 274.5,44.5 269.5,44.5C 269.5,39.5 269.5,34.5 269.5,29.5C 274.179,29.6658 278.845,29.4992 283.5,29C 284.632,24.5868 284.799,20.0868 284,15.5C 277.59,14.5223 271.09,14.189 264.5,14.5C 264.737,13.209 264.404,12.209 263.5,11.5C 260.833,11.5 258.167,11.5 255.5,11.5C 255.167,11.5 254.833,11.5 254.5,11.5C 254.5,8.5 254.5,5.5 254.5,2.5C 218.5,2.5 182.5,2.5 146.5,2.5C 146.5,5.5 146.5,8.5 146.5,11.5C 143.5,11.5 140.5,11.5 137.5,11.5C 137.5,14.5 137.5,17.5 137.5,20.5C 134.5,20.5 131.5,20.5 128.5,20.5C 128.5,47.5 128.5,74.5 128.5,101.5C 128.167,101.5 127.833,101.5 127.5,101.5C 124.833,101.5 122.167,101.5 119.5,101.5C 119.5,104.5 119.5,107.5 119.5,110.5C 116.5,110.5 113.5,110.5 110.5,110.5C 110.5,113.5 110.5,116.5 110.5,119.5C 108.5,119.5 106.5,119.5 104.5,119.5C 104.5,114.5 104.5,109.5 104.5,104.5C 99.5,104.5 94.5,104.5 89.5,104.5C 89.5,109.5 89.5,114.5 89.5,119.5C 84.5,119.5 79.5,119.5 74.5,119.5C 74.5,114.5 74.5,109.5 74.5,104.5C 69.5,104.5 64.5,104.5 59.5,104.5C 59.5,109.5 59.5,114.5 59.5,119.5C 54.5,119.5 49.5,119.5 44.5,119.5C 44.5,114.5 44.5,109.5 44.5,104.5C 49.1785,104.666 53.8452,104.499 58.5,104C 59.4692,99.2633 59.8025,94.43 59.5,89.5C 64.5,89.5 69.5,89.5 74.5,89.5C 74.3342,94.1785 74.5008,98.8452 75,103.5C 79.6667,104.833 84.3333,104.833 89,103.5C 89.4992,98.8452 89.6658,94.1785 89.5,89.5C 94.1785,89.6658 98.8452,89.4992 103.5,89C 104.833,84.3333 104.833,79.6667 103.5,75C 98.8452,74.5008 94.1785,74.3342 89.5,74.5C 89.5,69.5 89.5,64.5 89.5,59.5C 94.5,59.5 99.5,59.5 104.5,59.5C 104.5,64.5 104.5,69.5 104.5,74.5C 109.5,74.5 114.5,74.5 119.5,74.5C 119.5,69.5 119.5,64.5 119.5,59.5C 122.167,59.5 124.833,59.5 127.5,59.5C 127.5,54.5 127.5,49.5 127.5,44.5C 124.833,44.5 122.167,44.5 119.5,44.5C 119.5,39.5 119.5,34.5 119.5,29.5C 114.5,29.5 109.5,29.5 104.5,29.5C 104.666,24.8215 104.499,20.1548 104,15.5C 99.3333,14.1667 94.6667,14.1667 90,15.5C 89.5008,20.1548 89.3342,24.8215 89.5,29.5C 84.5,29.5 79.5,29.5 74.5,29.5C 74.8025,24.57 74.4692,19.7367 73.5,15C 74.0253,14.3076 74.6919,13.8076 75.5,13.5C 80.1001,14.4435 84.7668,14.7768 89.5,14.5C 89.5,9.5 89.5,4.5 89.5,-0.5 Z"/></g>
<g><path style="opacity:1" fill="#060606" d="M 254.5,11.5 C 251.5,11.5 248.5,11.5 245.5,11.5C 212.5,11.5 179.5,11.5 146.5,11.5C 146.5,8.5 146.5,5.5 146.5,2.5C 182.5,2.5 218.5,2.5 254.5,2.5C 254.5,5.5 254.5,8.5 254.5,11.5 Z"/></g>
<g><path style="opacity:1" fill="#0d0d0e" d="M 146.5,11.5 C 146.5,14.5 146.5,17.5 146.5,20.5C 143.5,20.5 140.5,20.5 137.5,20.5C 137.5,17.5 137.5,14.5 137.5,11.5C 140.5,11.5 143.5,11.5 146.5,11.5 Z"/></g>
<g><path style="opacity:1" fill="#050505" d="M 255.5,11.5 C 258.167,11.5 260.833,11.5 263.5,11.5C 263.5,38.5 263.5,65.5 263.5,92.5C 269.5,92.5 275.5,92.5 281.5,92.5C 281.5,95.5 281.5,98.5 281.5,101.5C 278.5,101.5 275.5,101.5 272.5,101.5C 266.5,101.5 260.5,101.5 254.5,101.5C 254.175,71.4264 254.508,41.4264 255.5,11.5 Z"/></g>
<g><path style="opacity:1" fill="#c2c1c3" d="M 146.5,11.5 C 179.5,11.5 212.5,11.5 245.5,11.5C 245.5,14.5 245.5,17.5 245.5,20.5C 242.5,20.5 239.5,20.5 236.5,20.5C 236.5,47.5 236.5,74.5 236.5,101.5C 233.5,101.5 230.5,101.5 227.5,101.5C 227.5,99.5 227.5,97.5 227.5,95.5C 229.22,93.3419 230.053,90.6752 230,87.5C 230.854,68.8069 230.521,50.1402 229,31.5C 228.832,51.6709 228.332,71.6709 227.5,91.5C 227.5,73.5 227.5,55.5 227.5,37.5C 227.5,34.8333 227.5,32.1667 227.5,29.5C 227.661,26.8103 227.661,23.8103 227.5,20.5C 200.5,20.5 173.5,20.5 146.5,20.5C 146.5,17.5 146.5,14.5 146.5,11.5 Z"/></g>
<g><path style="opacity:1" fill="#ededed" d="M 29.5,-0.5 C 49.5,-0.5 69.5,-0.5 89.5,-0.5C 89.5,4.5 89.5,9.5 89.5,14.5C 84.7668,14.7768 80.1001,14.4435 75.5,13.5C 74.6919,13.8076 74.0253,14.3076 73.5,15C 74.4692,19.7367 74.8025,24.57 74.5,29.5C 79.5,29.5 84.5,29.5 89.5,29.5C 89.3342,24.8215 89.5008,20.1548 90,15.5C 94.6667,14.1667 99.3333,14.1667 104,15.5C 104.499,20.1548 104.666,24.8215 104.5,29.5C 109.5,29.5 114.5,29.5 119.5,29.5C 119.5,34.5 119.5,39.5 119.5,44.5C 122.167,44.5 124.833,44.5 127.5,44.5C 127.5,49.5 127.5,54.5 127.5,59.5C 124.833,59.5 122.167,59.5 119.5,59.5C 119.5,64.5 119.5,69.5 119.5,74.5C 114.5,74.5 109.5,74.5 104.5,74.5C 104.5,69.5 104.5,64.5 104.5,59.5C 99.5,59.5 94.5,59.5 89.5,59.5C 89.5,64.5 89.5,69.5 89.5,74.5C 94.1785,74.3342 98.8452,74.5008 103.5,75C 104.833,79.6667 104.833,84.3333 103.5,89C 98.8452,89.4992 94.1785,89.6658 89.5,89.5C 89.6658,94.1785 89.4992,98.8452 89,103.5C 84.3333,104.833 79.6667,104.833 75,103.5C 74.5008,98.8452 74.3342,94.1785 74.5,89.5C 69.5,89.5 64.5,89.5 59.5,89.5C 59.5,84.5 59.5,79.5 59.5,74.5C 54.5,74.5 49.5,74.5 44.5,74.5C 44.5,69.5 44.5,64.5 44.5,59.5C 44.5,54.5 44.5,49.5 44.5,44.5C 39.5,44.5 34.5,44.5 29.5,44.5C 29.5,39.5 29.5,34.5 29.5,29.5C 34.1785,29.6658 38.8452,29.4992 43.5,29C 44.8333,24.3333 44.8333,19.6667 43.5,15C 38.8452,14.5008 34.1785,14.3342 29.5,14.5C 29.5,9.5 29.5,4.5 29.5,-0.5 Z"/></g>
<g><path style="opacity:1" fill="#808080" d="M 245.5,11.5 C 248.5,11.5 251.5,11.5 254.5,11.5C 254.833,11.5 255.167,11.5 255.5,11.5C 254.508,41.4264 254.175,71.4264 254.5,101.5C 251.5,101.5 248.5,101.5 245.5,101.5C 245.5,104.5 245.5,107.5 245.5,110.5C 218.5,110.5 191.5,110.5 164.5,110.5C 164.5,107.5 164.5,104.5 164.5,101.5C 167.5,101.5 170.5,101.5 173.5,101.5C 191.5,101.5 209.5,101.5 227.5,101.5C 230.5,101.5 233.5,101.5 236.5,101.5C 236.5,74.5 236.5,47.5 236.5,20.5C 239.5,20.5 242.5,20.5 245.5,20.5C 245.5,17.5 245.5,14.5 245.5,11.5 Z"/></g>
<g><path style="opacity:1" fill="#fefefc" d="M 137.5,20.5 C 140.5,20.5 143.5,20.5 146.5,20.5C 173.5,20.5 200.5,20.5 227.5,20.5C 227.661,23.8103 227.661,26.8103 227.5,29.5C 200.5,29.5 173.5,29.5 146.5,29.5C 146.5,47.5 146.5,65.5 146.5,83.5C 146.5,86.5 146.5,89.5 146.5,92.5C 143.5,92.5 140.5,92.5 137.5,92.5C 137.5,68.5 137.5,44.5 137.5,20.5 Z"/></g>
<g><path style="opacity:1" fill="#060606" d="M 137.5,20.5 C 137.5,44.5 137.5,68.5 137.5,92.5C 140.5,92.5 143.5,92.5 146.5,92.5C 146.5,95.5 146.5,98.5 146.5,101.5C 140.5,101.5 134.5,101.5 128.5,101.5C 128.5,74.5 128.5,47.5 128.5,20.5C 131.5,20.5 134.5,20.5 137.5,20.5 Z"/></g>
<g><path style="opacity:1" fill="#0a014e" d="M 227.5,29.5 C 227.5,32.1667 227.5,34.8333 227.5,37.5C 227.167,37.5 226.833,37.5 226.5,37.5C 226.756,35.2075 226.423,33.0408 225.5,31C 199.833,30.3333 174.167,30.3333 148.5,31C 147.508,48.0896 147.175,65.2563 147.5,82.5C 149.415,82.2155 151.081,82.5489 152.5,83.5C 150.5,83.5 148.5,83.5 146.5,83.5C 146.5,65.5 146.5,47.5 146.5,29.5C 173.5,29.5 200.5,29.5 227.5,29.5 Z"/></g>
<g><path style="opacity:1" fill="#1c0180" d="M 226.5,37.5 C 225.167,37.5 224.5,38.1667 224.5,39.5C 201.906,38.3449 179.239,38.1782 156.5,39C 155.512,50.4191 155.179,61.9191 155.5,73.5C 158.167,73.5 160.833,73.5 163.5,73.5C 163.5,70.8333 163.5,68.1667 163.5,65.5C 163.833,65.5 164.167,65.5 164.5,65.5C 164.5,68.1667 164.5,70.8333 164.5,73.5C 164.5,73.8333 164.5,74.1667 164.5,74.5C 161.609,75.4025 158.609,75.7359 155.5,75.5C 155.5,78.1667 155.5,80.8333 155.5,83.5C 154.5,83.5 153.5,83.5 152.5,83.5C 151.081,82.5489 149.415,82.2155 147.5,82.5C 147.175,65.2563 147.508,48.0896 148.5,31C 174.167,30.3333 199.833,30.3333 225.5,31C 226.423,33.0408 226.756,35.2075 226.5,37.5 Z"/></g>
<g><path style="opacity:1" fill="#3507e1" d="M 224.5,39.5 C 224.667,55.5035 224.5,71.5035 224,87.5C 223.5,71.8369 223.333,56.1702 223.5,40.5C 201.321,40.5264 179.321,40.5264 157.5,40.5C 156.501,51.1459 156.168,61.8126 156.5,72.5C 158.124,72.6399 159.29,71.9733 160,70.5C 160.414,70.9574 160.914,71.2907 161.5,71.5C 162.169,69.3691 162.835,67.3691 163.5,65.5C 163.5,68.1667 163.5,70.8333 163.5,73.5C 160.833,73.5 158.167,73.5 155.5,73.5C 155.179,61.9191 155.512,50.4191 156.5,39C 179.239,38.1782 201.906,38.3449 224.5,39.5 Z"/></g>
<g><path style="opacity:1" fill="#3602fa" d="M 226.5,37.5 C 226.5,55.5 226.5,73.5 226.5,91.5C 212.167,91.5 197.833,91.5 183.5,91.5C 182.527,89.0521 182.194,86.3854 182.5,83.5C 185.5,83.5 188.5,83.5 191.5,83.5C 191.5,80.5 191.5,77.5 191.5,74.5C 194.5,74.5 197.5,74.5 200.5,74.5C 200.5,71.8333 200.5,69.1667 200.5,66.5C 200.5,66.1667 200.5,65.8333 200.5,65.5C 200.833,65.5 201.167,65.5 201.5,65.5C 204.167,65.5 206.833,65.5 209.5,65.5C 209.823,59.31 209.49,53.31 208.5,47.5C 202.833,47.5 197.167,47.5 191.5,47.5C 191.5,50.5 191.5,53.5 191.5,56.5C 188.5,56.5 185.5,56.5 182.5,56.5C 182.736,59.6085 182.403,62.6085 181.5,65.5C 181.167,65.5 180.833,65.5 180.5,65.5C 175.167,65.5 169.833,65.5 164.5,65.5C 164.167,65.5 163.833,65.5 163.5,65.5C 162.835,67.3691 162.169,69.3691 161.5,71.5C 160.914,71.2907 160.414,70.9574 160,70.5C 159.29,71.9733 158.124,72.6399 156.5,72.5C 156.168,61.8126 156.501,51.1459 157.5,40.5C 179.321,40.5264 201.321,40.5264 223.5,40.5C 223.333,56.1702 223.5,71.8369 224,87.5C 224.5,71.5035 224.667,55.5035 224.5,39.5C 224.5,38.1667 225.167,37.5 226.5,37.5 Z"/></g>
<g><path style="opacity:1" fill="#ededed" d="M -0.5,-0.5 C 9.5,-0.5 19.5,-0.5 29.5,-0.5C 29.5,4.5 29.5,9.5 29.5,14.5C 34.1785,14.3342 38.8452,14.5008 43.5,15C 44.8333,19.6667 44.8333,24.3333 43.5,29C 38.8452,29.4992 34.1785,29.6658 29.5,29.5C 29.5,34.5 29.5,39.5 29.5,44.5C 34.5,44.5 39.5,44.5 44.5,44.5C 44.5,49.5 44.5,54.5 44.5,59.5C 39.5,59.5 34.5,59.5 29.5,59.5C 29.5,64.5 29.5,69.5 29.5,74.5C 24.8215,74.6658 20.1548,74.4992 15.5,74C 14.5308,69.2633 14.1975,64.43 14.5,59.5C 9.5,59.5 4.5,59.5 -0.5,59.5C -0.5,39.5 -0.5,19.5 -0.5,-0.5 Z"/></g>
<g><path style="opacity:1" fill="#030303" d="M 208.5,47.5 C 208.5,53.1667 208.5,58.8333 208.5,64.5C 205.941,64.1984 203.607,64.5318 201.5,65.5C 201.167,65.5 200.833,65.5 200.5,65.5C 200.5,62.5 200.5,59.5 200.5,56.5C 197.5,56.5 194.5,56.5 191.5,56.5C 191.5,53.5 191.5,50.5 191.5,47.5C 197.167,47.5 202.833,47.5 208.5,47.5 Z"/></g>
<g><path style="opacity:1" fill="#04013b" d="M 208.5,47.5 C 209.49,53.31 209.823,59.31 209.5,65.5C 206.833,65.5 204.167,65.5 201.5,65.5C 203.607,64.5318 205.941,64.1984 208.5,64.5C 208.5,58.8333 208.5,53.1667 208.5,47.5 Z"/></g>
<g><path style="opacity:1" fill="#bcc499" d="M 227.5,95.5 C 227.5,94.5 227.5,93.5 227.5,92.5C 227.5,92.1667 227.5,91.8333 227.5,91.5C 228.332,71.6709 228.832,51.6709 229,31.5C 230.521,50.1402 230.854,68.8069 230,87.5C 230.053,90.6752 229.22,93.3419 227.5,95.5 Z"/></g>
<g><path style="opacity:1" fill="#02010a" d="M 191.5,57.5 C 191.5,60.1667 191.5,62.8333 191.5,65.5C 188.833,65.5 186.167,65.5 183.5,65.5C 183.792,63.0428 183.792,60.3761 183.5,57.5C 186.167,57.5 188.833,57.5 191.5,57.5 Z"/></g>
<g><path style="opacity:1" fill="#f6fc3d" d="M 191.5,56.5 C 194.5,56.5 197.5,56.5 200.5,56.5C 200.5,59.5 200.5,62.5 200.5,65.5C 197.5,65.5 194.5,65.5 191.5,65.5C 191.5,62.8333 191.5,60.1667 191.5,57.5C 191.5,57.1667 191.5,56.8333 191.5,56.5 Z"/></g>
<g><path style="opacity:1" fill="#0b0251" d="M 191.5,56.5 C 191.5,56.8333 191.5,57.1667 191.5,57.5C 188.833,57.5 186.167,57.5 183.5,57.5C 183.792,60.3761 183.792,63.0428 183.5,65.5C 183.167,65.5 182.833,65.5 182.5,65.5C 182.167,65.5 181.833,65.5 181.5,65.5C 182.403,62.6085 182.736,59.6085 182.5,56.5C 185.5,56.5 188.5,56.5 191.5,56.5 Z"/></g>
<g><path style="opacity:1" fill="#050506" d="M 180.5,65.5 C 180.833,65.5 181.167,65.5 181.5,65.5C 181.833,65.5 182.167,65.5 182.5,65.5C 182.5,68.5 182.5,71.5 182.5,74.5C 176.5,74.5 170.5,74.5 164.5,74.5C 164.5,74.1667 164.5,73.8333 164.5,73.5C 165.468,71.3926 165.802,69.0593 165.5,66.5C 170.695,66.8205 175.695,66.4872 180.5,65.5 Z"/></g>
<g><path style="opacity:1" fill="#070042" d="M 164.5,65.5 C 169.833,65.5 175.167,65.5 180.5,65.5C 175.695,66.4872 170.695,66.8205 165.5,66.5C 165.802,69.0593 165.468,71.3926 164.5,73.5C 164.5,70.8333 164.5,68.1667 164.5,65.5 Z"/></g>
<g><path style="opacity:1" fill="#030209" d="M 191.5,65.5 C 194.5,65.5 197.5,65.5 200.5,65.5C 200.5,65.8333 200.5,66.1667 200.5,66.5C 199.717,68.3432 199.05,70.3432 198.5,72.5C 196.257,73.4742 193.924,73.8076 191.5,73.5C 191.5,71.1667 191.5,68.8333 191.5,66.5C 191.5,66.1667 191.5,65.8333 191.5,65.5 Z"/></g>
<g><path style="opacity:1" fill="#fafe24" d="M 191.5,66.5 C 191.5,68.8333 191.5,71.1667 191.5,73.5C 188.833,73.5 186.167,73.5 183.5,73.5C 183.5,71.1667 183.5,68.8333 183.5,66.5C 186.167,66.5 188.833,66.5 191.5,66.5 Z"/></g>
<g><path style="opacity:1" fill="#060247" d="M 200.5,66.5 C 200.5,69.1667 200.5,71.8333 200.5,74.5C 197.5,74.5 194.5,74.5 191.5,74.5C 191.5,74.1667 191.5,73.8333 191.5,73.5C 193.924,73.8076 196.257,73.4742 198.5,72.5C 199.05,70.3432 199.717,68.3432 200.5,66.5 Z"/></g>
<g><path style="opacity:1" fill="#fafafa" d="M -0.5,59.5 C 4.5,59.5 9.5,59.5 14.5,59.5C 14.1975,64.43 14.5308,69.2633 15.5,74C 20.1548,74.4992 24.8215,74.6658 29.5,74.5C 29.5,69.5 29.5,64.5 29.5,59.5C 34.5,59.5 39.5,59.5 44.5,59.5C 44.5,64.5 44.5,69.5 44.5,74.5C 49.5,74.5 54.5,74.5 59.5,74.5C 59.5,79.5 59.5,84.5 59.5,89.5C 54.5,89.5 49.5,89.5 44.5,89.5C 44.6658,94.1785 44.4992,98.8452 44,103.5C 39.2633,104.469 34.43,104.803 29.5,104.5C 29.5,109.5 29.5,114.5 29.5,119.5C 24.5,119.5 19.5,119.5 14.5,119.5C 14.3342,114.821 14.5008,110.155 15,105.5C 19.6667,104.833 24.3333,104.167 29,103.5C 29.4992,98.8452 29.6658,94.1785 29.5,89.5C 24.57,89.1975 19.7367,89.5308 15,90.5C 14.5006,85.1771 14.334,79.8437 14.5,74.5C 9.5,74.5 4.5,74.5 -0.5,74.5C -0.5,69.5 -0.5,64.5 -0.5,59.5 Z"/></g>
<g><path style="opacity:1" fill="#06040a" d="M 191.5,74.5 C 191.5,77.5 191.5,80.5 191.5,83.5C 188.5,83.5 185.5,83.5 182.5,83.5C 182.336,80.8127 182.503,78.146 183,75.5C 185.719,74.5562 188.552,74.2229 191.5,74.5 Z"/></g>
<g><path style="opacity:1" fill="#07040e" d="M 164.5,74.5 C 164.5,77.5 164.5,80.5 164.5,83.5C 161.5,83.5 158.5,83.5 155.5,83.5C 155.5,80.8333 155.5,78.1667 155.5,75.5C 158.609,75.7359 161.609,75.4025 164.5,74.5 Z"/></g>
<g><path style="opacity:1" fill="#060409" d="M 146.5,83.5 C 148.5,83.5 150.5,83.5 152.5,83.5C 153.5,83.5 154.5,83.5 155.5,83.5C 155.5,86.5 155.5,89.5 155.5,92.5C 152.5,92.5 149.5,92.5 146.5,92.5C 146.5,89.5 146.5,86.5 146.5,83.5 Z"/></g>
<g><path style="opacity:1" fill="#0c0316" d="M 182.5,83.5 C 182.194,86.3854 182.527,89.0521 183.5,91.5C 183.5,91.8333 183.5,92.1667 183.5,92.5C 180.167,92.5 176.833,92.5 173.5,92.5C 173.5,89.5 173.5,86.5 173.5,83.5C 176.5,83.5 179.5,83.5 182.5,83.5 Z"/></g>
<g><path style="opacity:1" fill="#1b06b1" d="M 226.5,37.5 C 226.833,37.5 227.167,37.5 227.5,37.5C 227.5,55.5 227.5,73.5 227.5,91.5C 227.5,91.8333 227.5,92.1667 227.5,92.5C 212.833,92.5 198.167,92.5 183.5,92.5C 183.5,92.1667 183.5,91.8333 183.5,91.5C 197.833,91.5 212.167,91.5 226.5,91.5C 226.5,73.5 226.5,55.5 226.5,37.5 Z"/></g>
<g><path style="opacity:1" fill="#fdfdfd" d="M 173.5,92.5 C 176.833,92.5 180.167,92.5 183.5,92.5C 198.167,92.5 212.833,92.5 227.5,92.5C 227.5,93.5 227.5,94.5 227.5,95.5C 227.5,97.5 227.5,99.5 227.5,101.5C 209.5,101.5 191.5,101.5 173.5,101.5C 173.5,98.5 173.5,95.5 173.5,92.5 Z"/></g>
<g><path style="opacity:1" fill="#080807" d="M 173.5,92.5 C 173.5,95.5 173.5,98.5 173.5,101.5C 170.5,101.5 167.5,101.5 164.5,101.5C 164.5,98.5 164.5,95.5 164.5,92.5C 167.5,92.5 170.5,92.5 173.5,92.5 Z"/></g>
<g><path style="opacity:1" fill="#060606" d="M 254.5,101.5 C 254.5,104.167 254.5,106.833 254.5,109.5C 254.5,109.833 254.5,110.167 254.5,110.5C 254.167,110.5 253.833,110.5 253.5,110.5C 250.833,110.5 248.167,110.5 245.5,110.5C 245.5,107.5 245.5,104.5 245.5,101.5C 248.5,101.5 251.5,101.5 254.5,101.5 Z"/></g>
<g><path style="opacity:1" fill="#fafafa" d="M 254.5,101.5 C 260.5,101.5 266.5,101.5 272.5,101.5C 272.5,104.5 272.5,107.5 272.5,110.5C 269.5,110.5 266.5,110.5 263.5,110.5C 263.5,107.833 263.5,105.167 263.5,102.5C 260.833,102.5 258.167,102.5 255.5,102.5C 255.802,105.059 255.468,107.393 254.5,109.5C 254.5,106.833 254.5,104.167 254.5,101.5 Z"/></g>
<g><path style="opacity:1" fill="#0b0708" d="M 127.5,101.5 C 128.403,104.391 128.736,107.391 128.5,110.5C 125.5,110.5 122.5,110.5 119.5,110.5C 119.5,107.5 119.5,104.5 119.5,101.5C 122.167,101.5 124.833,101.5 127.5,101.5 Z"/></g>
<g><path style="opacity:1" fill="#bcbcbc" d="M 263.5,110.5 C 260.5,110.5 257.5,110.5 254.5,110.5C 254.5,110.167 254.5,109.833 254.5,109.5C 255.468,107.393 255.802,105.059 255.5,102.5C 258.167,102.5 260.833,102.5 263.5,102.5C 263.5,105.167 263.5,107.833 263.5,110.5 Z"/></g>
<g><path style="opacity:1" fill="#060606" d="M 281.5,101.5 C 284.5,101.5 287.5,101.5 290.5,101.5C 290.5,113.5 290.5,125.5 290.5,137.5C 287.5,137.5 284.5,137.5 281.5,137.5C 281.5,125.5 281.5,113.5 281.5,101.5 Z"/></g>
<g><path style="opacity:1" fill="#818181" d="M 272.5,101.5 C 275.5,101.5 278.5,101.5 281.5,101.5C 281.5,113.5 281.5,125.5 281.5,137.5C 278.5,137.5 275.5,137.5 272.5,137.5C 272.5,140.5 272.5,143.5 272.5,146.5C 272.5,146.833 272.5,147.167 272.5,147.5C 269.609,146.597 266.609,146.264 263.5,146.5C 263.5,149.5 263.5,152.5 263.5,155.5C 230.5,155.5 197.5,155.5 164.5,155.5C 164.736,152.391 164.403,149.391 163.5,146.5C 163.833,146.5 164.167,146.5 164.5,146.5C 167.5,146.5 170.5,146.5 173.5,146.5C 179.5,146.5 185.5,146.5 191.5,146.5C 191.5,143.5 191.5,140.5 191.5,137.5C 194.5,137.5 197.5,137.5 200.5,137.5C 200.5,140.5 200.5,143.5 200.5,146.5C 212.5,146.5 224.5,146.5 236.5,146.5C 236.5,143.5 236.5,140.5 236.5,137.5C 239.5,137.5 242.5,137.5 245.5,137.5C 245.5,140.5 245.5,143.5 245.5,146.5C 248.5,146.5 251.5,146.5 254.5,146.5C 254.5,140.5 254.5,134.5 254.5,128.5C 257.5,128.5 260.5,128.5 263.5,128.5C 263.5,125.5 263.5,122.5 263.5,119.5C 263.5,116.5 263.5,113.5 263.5,110.5C 266.5,110.5 269.5,110.5 272.5,110.5C 272.5,107.5 272.5,104.5 272.5,101.5 Z"/></g>
<g><path style="opacity:1" fill="#f6f93c" d="M 182.5,65.5 C 182.833,65.5 183.167,65.5 183.5,65.5C 186.167,65.5 188.833,65.5 191.5,65.5C 191.5,65.8333 191.5,66.1667 191.5,66.5C 188.833,66.5 186.167,66.5 183.5,66.5C 183.5,68.8333 183.5,71.1667 183.5,73.5C 186.167,73.5 188.833,73.5 191.5,73.5C 191.5,73.8333 191.5,74.1667 191.5,74.5C 188.552,74.2229 185.719,74.5562 183,75.5C 182.503,78.146 182.336,80.8127 182.5,83.5C 179.5,83.5 176.5,83.5 173.5,83.5C 173.5,86.5 173.5,89.5 173.5,92.5C 170.5,92.5 167.5,92.5 164.5,92.5C 164.5,95.5 164.5,98.5 164.5,101.5C 161.5,101.5 158.5,101.5 155.5,101.5C 155.5,104.5 155.5,107.5 155.5,110.5C 152.5,110.5 149.5,110.5 146.5,110.5C 146.5,113.5 146.5,116.5 146.5,119.5C 144.598,116.663 143.931,113.329 144.5,109.5C 142.105,110.363 139.771,110.363 137.5,109.5C 139.059,107.869 141.059,107.036 143.5,107C 142.833,106.333 142.167,105.667 141.5,105C 143.5,104.667 145.5,104.333 147.5,104C 147.167,103.667 146.833,103.333 146.5,103C 141.177,102.501 135.844,102.334 130.5,102.5C 131.81,110.367 128.476,113.367 120.5,111.5C 120.806,114.385 120.473,117.052 119.5,119.5C 119.5,116.5 119.5,113.5 119.5,110.5C 122.5,110.5 125.5,110.5 128.5,110.5C 128.736,107.391 128.403,104.391 127.5,101.5C 127.833,101.5 128.167,101.5 128.5,101.5C 134.5,101.5 140.5,101.5 146.5,101.5C 146.5,98.5 146.5,95.5 146.5,92.5C 149.5,92.5 152.5,92.5 155.5,92.5C 155.5,89.5 155.5,86.5 155.5,83.5C 158.5,83.5 161.5,83.5 164.5,83.5C 164.5,80.5 164.5,77.5 164.5,74.5C 170.5,74.5 176.5,74.5 182.5,74.5C 182.5,71.5 182.5,68.5 182.5,65.5 Z"/></g>
<g><path style="opacity:1" fill="#010103" d="M 164.5,101.5 C 164.5,104.5 164.5,107.5 164.5,110.5C 191.5,110.5 218.5,110.5 245.5,110.5C 245.5,113.5 245.5,116.5 245.5,119.5C 230.5,119.5 215.5,119.5 200.5,119.5C 200.5,122.167 200.5,124.833 200.5,127.5C 197.713,128.477 194.713,128.81 191.5,128.5C 191.5,125.5 191.5,122.5 191.5,119.5C 176.5,119.5 161.5,119.5 146.5,119.5C 146.5,116.5 146.5,113.5 146.5,110.5C 149.5,110.5 152.5,110.5 155.5,110.5C 155.5,107.5 155.5,104.5 155.5,101.5C 158.5,101.5 161.5,101.5 164.5,101.5 Z"/></g>
<g><path style="opacity:1" fill="#fafd26" d="M 146.5,119.5 C 161.5,119.5 176.5,119.5 191.5,119.5C 191.5,122.5 191.5,125.5 191.5,128.5C 185.5,128.5 179.5,128.5 173.5,128.5C 173.5,131.5 173.5,134.5 173.5,137.5C 170.5,137.5 167.5,137.5 164.5,137.5C 164.5,140.5 164.5,143.5 164.5,146.5C 164.167,146.5 163.833,146.5 163.5,146.5C 160.833,146.5 158.167,146.5 155.5,146.5C 154.527,148.948 154.194,151.615 154.5,154.5C 149.833,154.5 145.167,154.5 140.5,154.5C 140.33,153.178 140.663,152.011 141.5,151C 143.169,149.331 145.169,148.498 147.5,148.5C 147.238,149.978 147.571,151.311 148.5,152.5C 149.736,151.754 151.07,151.421 152.5,151.5C 152.5,150.5 152.5,149.5 152.5,148.5C 151.167,148.5 149.833,148.5 148.5,148.5C 148.785,146.712 148.452,145.045 147.5,143.5C 146.476,144.853 145.143,145.52 143.5,145.5C 143.534,142.801 142.867,140.301 141.5,138C 142.791,134.545 142.791,131.045 141.5,127.5C 140.676,130.785 140.176,134.118 140,137.5C 139.667,136.833 139.333,136.167 139,135.5C 123.911,136.491 108.745,136.824 93.5,136.5C 93.5,134.167 93.5,131.833 93.5,129.5C 99.5,129.5 105.5,129.5 111.5,129.5C 111.5,126.167 111.5,122.833 111.5,119.5C 114.167,119.5 116.833,119.5 119.5,119.5C 120.473,117.052 120.806,114.385 120.5,111.5C 128.476,113.367 131.81,110.367 130.5,102.5C 135.844,102.334 141.177,102.501 146.5,103C 146.833,103.333 147.167,103.667 147.5,104C 145.5,104.333 143.5,104.667 141.5,105C 142.167,105.667 142.833,106.333 143.5,107C 141.059,107.036 139.059,107.869 137.5,109.5C 139.771,110.363 142.105,110.363 144.5,109.5C 143.931,113.329 144.598,116.663 146.5,119.5 Z"/></g>
<g><path style="opacity:1" fill="#fefffe" d="M 254.5,110.5 C 257.5,110.5 260.5,110.5 263.5,110.5C 263.5,113.5 263.5,116.5 263.5,119.5C 260.5,119.5 257.5,119.5 254.5,119.5C 254.5,116.5 254.5,113.5 254.5,110.5 Z"/></g>
<g><path style="opacity:1" fill="#08060b" d="M 119.5,110.5 C 119.5,113.5 119.5,116.5 119.5,119.5C 116.833,119.5 114.167,119.5 111.5,119.5C 111.167,119.5 110.833,119.5 110.5,119.5C 110.5,116.5 110.5,113.5 110.5,110.5C 113.5,110.5 116.5,110.5 119.5,110.5 Z"/></g>
<g><path style="opacity:1" fill="#bbbbbb" d="M 253.5,110.5 C 253.833,110.5 254.167,110.5 254.5,110.5C 254.5,113.5 254.5,116.5 254.5,119.5C 251.833,119.5 249.167,119.5 246.5,119.5C 246.5,116.833 246.5,114.167 246.5,111.5C 249.059,111.802 251.393,111.468 253.5,110.5 Z"/></g>
<g><path style="opacity:1" fill="#eaeaea" d="M 59.5,89.5 C 59.8025,94.43 59.4692,99.2633 58.5,104C 53.8452,104.499 49.1785,104.666 44.5,104.5C 44.5,109.5 44.5,114.5 44.5,119.5C 49.5,119.5 54.5,119.5 59.5,119.5C 59.5,114.5 59.5,109.5 59.5,104.5C 64.5,104.5 69.5,104.5 74.5,104.5C 74.5,109.5 74.5,114.5 74.5,119.5C 79.5,119.5 84.5,119.5 89.5,119.5C 89.5,114.5 89.5,109.5 89.5,104.5C 94.5,104.5 99.5,104.5 104.5,104.5C 104.5,109.5 104.5,114.5 104.5,119.5C 100.5,119.5 96.5,119.5 92.5,119.5C 92.5,122.5 92.5,125.5 92.5,128.5C 77.5,128.5 62.5,128.5 47.5,128.5C 47.5,131.5 47.5,134.5 47.5,137.5C 44.5,137.5 41.5,137.5 38.5,137.5C 38.5,140.5 38.5,143.5 38.5,146.5C 35.5,146.5 32.5,146.5 29.5,146.5C 29.2065,142.563 29.5399,138.73 30.5,135C 25.1771,134.501 19.8437,134.334 14.5,134.5C 14.5,129.5 14.5,124.5 14.5,119.5C 19.5,119.5 24.5,119.5 29.5,119.5C 29.5,114.5 29.5,109.5 29.5,104.5C 34.43,104.803 39.2633,104.469 44,103.5C 44.4992,98.8452 44.6658,94.1785 44.5,89.5C 49.5,89.5 54.5,89.5 59.5,89.5 Z"/></g>
<g><path style="opacity:1" fill="#fefefe" d="M 245.5,110.5 C 248.167,110.5 250.833,110.5 253.5,110.5C 251.393,111.468 249.059,111.802 246.5,111.5C 246.5,114.167 246.5,116.833 246.5,119.5C 249.167,119.5 251.833,119.5 254.5,119.5C 254.5,122.5 254.5,125.5 254.5,128.5C 236.423,128.819 218.423,128.486 200.5,127.5C 200.5,124.833 200.5,122.167 200.5,119.5C 215.5,119.5 230.5,119.5 245.5,119.5C 245.5,116.5 245.5,113.5 245.5,110.5 Z"/></g>
<g><path style="opacity:1" fill="#070505" d="M 104.5,119.5 C 106.5,119.5 108.5,119.5 110.5,119.5C 110.5,122.5 110.5,125.5 110.5,128.5C 104.5,128.5 98.5,128.5 92.5,128.5C 92.5,125.5 92.5,122.5 92.5,119.5C 96.5,119.5 100.5,119.5 104.5,119.5 Z"/></g>
<g><path style="opacity:1" fill="#bfbfbf" d="M 254.5,119.5 C 257.5,119.5 260.5,119.5 263.5,119.5C 263.5,122.5 263.5,125.5 263.5,128.5C 260.5,128.5 257.5,128.5 254.5,128.5C 254.5,125.5 254.5,122.5 254.5,119.5 Z"/></g>
<g><path style="opacity:1" fill="#c1c1c1" d="M 200.5,127.5 C 218.423,128.486 236.423,128.819 254.5,128.5C 254.5,134.5 254.5,140.5 254.5,146.5C 251.5,146.5 248.5,146.5 245.5,146.5C 245.5,143.5 245.5,140.5 245.5,137.5C 242.5,137.5 239.5,137.5 236.5,137.5C 224.5,137.5 212.5,137.5 200.5,137.5C 197.5,137.5 194.5,137.5 191.5,137.5C 191.5,134.5 191.5,131.5 191.5,128.5C 194.713,128.81 197.713,128.477 200.5,127.5 Z"/></g>
<g><path style="opacity:1" fill="#060606" d="M 92.5,128.5 C 92.5,131.5 92.5,134.5 92.5,137.5C 77.5,137.5 62.5,137.5 47.5,137.5C 47.5,134.5 47.5,131.5 47.5,128.5C 62.5,128.5 77.5,128.5 92.5,128.5 Z"/></g>
<g><path style="opacity:1" fill="#030205" d="M 191.5,128.5 C 191.5,131.5 191.5,134.5 191.5,137.5C 185.5,137.5 179.5,137.5 173.5,137.5C 173.5,134.5 173.5,131.5 173.5,128.5C 179.5,128.5 185.5,128.5 191.5,128.5 Z"/></g>
<g><path style="opacity:1" fill="#eeeeee" d="M -0.5,74.5 C 4.5,74.5 9.5,74.5 14.5,74.5C 14.334,79.8437 14.5006,85.1771 15,90.5C 19.7367,89.5308 24.57,89.1975 29.5,89.5C 29.6658,94.1785 29.4992,98.8452 29,103.5C 24.3333,104.167 19.6667,104.833 15,105.5C 14.5008,110.155 14.3342,114.821 14.5,119.5C 14.5,124.5 14.5,129.5 14.5,134.5C 19.8437,134.334 25.1771,134.501 30.5,135C 29.5399,138.73 29.2065,142.563 29.5,146.5C 29.5,162.167 29.5,177.833 29.5,193.5C 24.9185,194.607 20.2519,194.773 15.5,194C 14.5308,189.263 14.1975,184.43 14.5,179.5C 9.5,179.5 4.5,179.5 -0.5,179.5C -0.5,144.5 -0.5,109.5 -0.5,74.5 Z"/></g>
<g><path style="opacity:1" fill="#020202" d="M 200.5,137.5 C 212.5,137.5 224.5,137.5 236.5,137.5C 236.5,140.5 236.5,143.5 236.5,146.5C 224.5,146.5 212.5,146.5 200.5,146.5C 200.5,143.5 200.5,140.5 200.5,137.5 Z"/></g>
<g><path style="opacity:1" fill="#0d0d0d" d="M 281.5,137.5 C 281.5,140.5 281.5,143.5 281.5,146.5C 278.5,146.5 275.5,146.5 272.5,146.5C 272.5,143.5 272.5,140.5 272.5,137.5C 275.5,137.5 278.5,137.5 281.5,137.5 Z"/></g>
<g><path style="opacity:1" fill="#0a0a0a" d="M 47.5,137.5 C 47.5,140.5 47.5,143.5 47.5,146.5C 44.5,146.5 41.5,146.5 38.5,146.5C 38.5,143.5 38.5,140.5 38.5,137.5C 41.5,137.5 44.5,137.5 47.5,137.5 Z"/></g>
<g><path style="opacity:1" fill="#c3c3c4" d="M 47.5,137.5 C 62.5,137.5 77.5,137.5 92.5,137.5C 92.5,140.5 92.5,143.5 92.5,146.5C 77.5,146.5 62.5,146.5 47.5,146.5C 47.5,143.5 47.5,140.5 47.5,137.5 Z"/></g>
<g><path style="opacity:1" fill="#f7fb38" d="M 110.5,119.5 C 110.833,119.5 111.167,119.5 111.5,119.5C 111.5,122.833 111.5,126.167 111.5,129.5C 105.5,129.5 99.5,129.5 93.5,129.5C 93.5,131.833 93.5,134.167 93.5,136.5C 108.745,136.824 123.911,136.491 139,135.5C 139.333,136.167 139.667,136.833 140,137.5C 140.176,134.118 140.676,130.785 141.5,127.5C 142.791,131.045 142.791,134.545 141.5,138C 142.867,140.301 143.534,142.801 143.5,145.5C 145.143,145.52 146.476,144.853 147.5,143.5C 148.452,145.045 148.785,146.712 148.5,148.5C 149.833,148.5 151.167,148.5 152.5,148.5C 152.5,149.5 152.5,150.5 152.5,151.5C 151.07,151.421 149.736,151.754 148.5,152.5C 147.571,151.311 147.238,149.978 147.5,148.5C 145.169,148.498 143.169,149.331 141.5,151C 140.663,152.011 140.33,153.178 140.5,154.5C 145.167,154.5 149.833,154.5 154.5,154.5C 154.194,151.615 154.527,148.948 155.5,146.5C 155.5,149.5 155.5,152.5 155.5,155.5C 149.5,155.5 143.5,155.5 137.5,155.5C 137.5,158.167 137.5,160.833 137.5,163.5C 137.5,163.833 137.5,164.167 137.5,164.5C 134.5,164.5 131.5,164.5 128.5,164.5C 128.664,167.187 128.497,169.854 128,172.5C 125.281,173.444 122.448,173.777 119.5,173.5C 119.5,176.5 119.5,179.5 119.5,182.5C 113.824,182.334 108.157,182.501 102.5,183C 101.556,185.719 101.223,188.552 101.5,191.5C 98.5,191.5 95.5,191.5 92.5,191.5C 92.5,188.5 92.5,185.5 92.5,182.5C 95.5,182.5 98.5,182.5 101.5,182.5C 101.5,179.5 101.5,176.5 101.5,173.5C 104.5,173.5 107.5,173.5 110.5,173.5C 110.5,170.5 110.5,167.5 110.5,164.5C 113.5,164.5 116.5,164.5 119.5,164.5C 119.5,161.5 119.5,158.5 119.5,155.5C 122.5,155.5 125.5,155.5 128.5,155.5C 128.5,152.5 128.5,149.5 128.5,146.5C 131.5,146.5 134.5,146.5 137.5,146.5C 137.5,143.5 137.5,140.5 137.5,137.5C 122.5,137.5 107.5,137.5 92.5,137.5C 92.5,134.5 92.5,131.5 92.5,128.5C 98.5,128.5 104.5,128.5 110.5,128.5C 110.5,125.5 110.5,122.5 110.5,119.5 Z"/></g>
<g><path style="opacity:1" fill="#c4c5c5" d="M 173.5,137.5 C 179.5,137.5 185.5,137.5 191.5,137.5C 191.5,140.5 191.5,143.5 191.5,146.5C 185.5,146.5 179.5,146.5 173.5,146.5C 173.5,143.5 173.5,140.5 173.5,137.5 Z"/></g>
<g><path style="opacity:1" fill="#030206" d="M 92.5,137.5 C 107.5,137.5 122.5,137.5 137.5,137.5C 137.5,140.5 137.5,143.5 137.5,146.5C 134.5,146.5 131.5,146.5 128.5,146.5C 128.5,149.5 128.5,152.5 128.5,155.5C 125.5,155.5 122.5,155.5 119.5,155.5C 119.5,152.5 119.5,149.5 119.5,146.5C 110.5,146.5 101.5,146.5 92.5,146.5C 92.5,143.5 92.5,140.5 92.5,137.5 Z"/></g>
<g><path style="opacity:1" fill="#09070a" d="M 173.5,137.5 C 173.5,140.5 173.5,143.5 173.5,146.5C 170.5,146.5 167.5,146.5 164.5,146.5C 164.5,143.5 164.5,140.5 164.5,137.5C 167.5,137.5 170.5,137.5 173.5,137.5 Z"/></g>
<g><path style="opacity:1" fill="#fefefd" d="M 38.5,146.5 C 41.5,146.5 44.5,146.5 47.5,146.5C 62.5,146.5 77.5,146.5 92.5,146.5C 101.5,146.5 110.5,146.5 119.5,146.5C 119.5,149.5 119.5,152.5 119.5,155.5C 116.833,155.5 114.167,155.5 111.5,155.5C 89.8072,154.844 68.4738,155.511 47.5,157.5C 47.5,177.833 47.5,198.167 47.5,218.5C 50.8333,218.5 54.1667,218.5 57.5,218.5C 80.8333,218.5 104.167,218.5 127.5,218.5C 127.833,218.5 128.167,218.5 128.5,218.5C 128.5,221.5 128.5,224.5 128.5,227.5C 101.5,227.5 74.5,227.5 47.5,227.5C 44.8333,227.5 42.1667,227.5 39.5,227.5C 39.5,230.167 39.5,232.833 39.5,235.5C 42.1667,235.5 44.8333,235.5 47.5,235.5C 47.5,235.833 47.5,236.167 47.5,236.5C 44.5,236.5 41.5,236.5 38.5,236.5C 38.5,206.5 38.5,176.5 38.5,146.5 Z"/></g>
<g><path style="opacity:1" fill="#070707" d="M 272.5,147.5 C 272.5,150.167 272.5,152.833 272.5,155.5C 269.5,155.5 266.5,155.5 263.5,155.5C 263.5,152.5 263.5,149.5 263.5,146.5C 266.609,146.264 269.609,146.597 272.5,147.5 Z"/></g>
<g><path style="opacity:1" fill="#030303" d="M 29.5,146.5 C 32.5,146.5 35.5,146.5 38.5,146.5C 38.5,176.5 38.5,206.5 38.5,236.5C 41.5,236.5 44.5,236.5 47.5,236.5C 80.5,236.5 113.5,236.5 146.5,236.5C 146.5,239.5 146.5,242.5 146.5,245.5C 107.5,245.5 68.5,245.5 29.5,245.5C 29.5,242.5 29.5,239.5 29.5,236.5C 26.5,236.5 23.5,236.5 20.5,236.5C 20.5,233.5 20.5,230.5 20.5,227.5C 23.5,227.5 26.5,227.5 29.5,227.5C 29.5,216.167 29.5,204.833 29.5,193.5C 29.5,177.833 29.5,162.167 29.5,146.5 Z"/></g>
<g><path style="opacity:1" fill="#ededed" d="M 263.5,11.5 C 264.404,12.209 264.737,13.209 264.5,14.5C 271.09,14.189 277.59,14.5223 284,15.5C 284.799,20.0868 284.632,24.5868 283.5,29C 278.845,29.4992 274.179,29.6658 269.5,29.5C 269.5,34.5 269.5,39.5 269.5,44.5C 274.5,44.5 279.5,44.5 284.5,44.5C 284.5,49.5 284.5,54.5 284.5,59.5C 279.5,59.5 274.5,59.5 269.5,59.5C 269.5,64.5 269.5,69.5 269.5,74.5C 274.43,74.1975 279.263,74.5308 284,75.5C 284.499,80.1548 284.666,84.8215 284.5,89.5C 287.833,89.5 291.167,89.5 294.5,89.5C 294.5,124.5 294.5,159.5 294.5,194.5C 291.167,194.5 287.833,194.5 284.5,194.5C 284.5,189.5 284.5,184.5 284.5,179.5C 279.5,179.5 274.5,179.5 269.5,179.5C 269.5,174.5 269.5,169.5 269.5,164.5C 267.833,164.5 266.167,164.5 264.5,164.5C 264.802,161.941 264.468,159.607 263.5,157.5C 263.5,156.833 263.5,156.167 263.5,155.5C 266.5,155.5 269.5,155.5 272.5,155.5C 272.5,152.833 272.5,150.167 272.5,147.5C 272.5,147.167 272.5,146.833 272.5,146.5C 275.5,146.5 278.5,146.5 281.5,146.5C 281.5,143.5 281.5,140.5 281.5,137.5C 284.5,137.5 287.5,137.5 290.5,137.5C 290.5,125.5 290.5,113.5 290.5,101.5C 287.5,101.5 284.5,101.5 281.5,101.5C 281.5,98.5 281.5,95.5 281.5,92.5C 275.5,92.5 269.5,92.5 263.5,92.5C 263.5,65.5 263.5,38.5 263.5,11.5 Z"/></g>
<g><path style="opacity:1" fill="#060606" d="M 155.5,146.5 C 158.167,146.5 160.833,146.5 163.5,146.5C 164.403,149.391 164.736,152.391 164.5,155.5C 197.5,155.5 230.5,155.5 263.5,155.5C 263.5,156.167 263.5,156.833 263.5,157.5C 263.5,159.833 263.5,162.167 263.5,164.5C 230.5,164.5 197.5,164.5 164.5,164.5C 164.5,182.5 164.5,200.5 164.5,218.5C 170.5,218.5 176.5,218.5 182.5,218.5C 182.5,221.5 182.5,224.5 182.5,227.5C 179.5,227.5 176.5,227.5 173.5,227.5C 167.5,227.5 161.5,227.5 155.5,227.5C 155.5,206.5 155.5,185.5 155.5,164.5C 149.409,164.789 143.409,164.455 137.5,163.5C 137.5,160.833 137.5,158.167 137.5,155.5C 143.5,155.5 149.5,155.5 155.5,155.5C 155.5,152.5 155.5,149.5 155.5,146.5 Z"/></g>
<g><path style="opacity:1" fill="#140269" d="M 111.5,155.5 C 111.322,158.216 110.822,160.883 110,163.5C 107.174,164.213 104.34,164.88 101.5,165.5C 101.5,165.167 101.5,164.833 101.5,164.5C 101.775,162.242 102.775,161.908 104.5,163.5C 105.318,161.892 105.985,160.225 106.5,158.5C 86.8446,157.5 67.178,157.167 47.5,157.5C 68.4738,155.511 89.8072,154.844 111.5,155.5 Z"/></g>
<g><path style="opacity:1" fill="#f0f0f0" d="M 263.5,157.5 C 264.468,159.607 264.802,161.941 264.5,164.5C 266.167,164.5 267.833,164.5 269.5,164.5C 269.5,169.5 269.5,174.5 269.5,179.5C 274.5,179.5 279.5,179.5 284.5,179.5C 284.5,184.5 284.5,189.5 284.5,194.5C 287.833,194.5 291.167,194.5 294.5,194.5C 294.5,199.5 294.5,204.5 294.5,209.5C 291.167,209.5 287.833,209.5 284.5,209.5C 284.666,214.179 284.499,218.845 284,223.5C 279.263,224.469 274.43,224.803 269.5,224.5C 269.5,229.5 269.5,234.5 269.5,239.5C 264.5,239.5 259.5,239.5 254.5,239.5C 254.334,234.821 254.501,230.155 255,225.5C 259.667,224.833 264.333,224.167 269,223.5C 269.499,218.845 269.666,214.179 269.5,209.5C 264.57,209.197 259.737,209.531 255,210.5C 254.501,205.177 254.334,199.844 254.5,194.5C 249.5,194.5 244.5,194.5 239.5,194.5C 234.5,194.5 229.5,194.5 224.5,194.5C 224.5,189.5 224.5,184.5 224.5,179.5C 219.5,179.5 214.5,179.5 209.5,179.5C 209.5,184.5 209.5,189.5 209.5,194.5C 214.179,194.334 218.845,194.501 223.5,195C 224.833,199.667 224.833,204.333 223.5,209C 218.845,209.499 214.179,209.666 209.5,209.5C 209.666,214.179 209.499,218.845 209,223.5C 204.263,224.469 199.43,224.803 194.5,224.5C 194.5,229.5 194.5,234.5 194.5,239.5C 194.5,244.5 194.5,249.5 194.5,254.5C 199.844,254.334 205.177,254.501 210.5,255C 209.531,259.737 209.197,264.57 209.5,269.5C 209.666,274.179 209.499,278.845 209,283.5C 204.263,284.469 199.43,284.803 194.5,284.5C 194.5,287.833 194.5,291.167 194.5,294.5C 189.5,294.5 184.5,294.5 179.5,294.5C 179.5,291.167 179.5,287.833 179.5,284.5C 175.116,284.826 170.783,284.492 166.5,283.5C 168.353,282.24 170.186,282.24 172,283.5C 172.464,282.906 172.631,282.239 172.5,281.5C 173.477,278.713 173.81,275.713 173.5,272.5C 176.5,272.5 179.5,272.5 182.5,272.5C 182.5,269.5 182.5,266.5 182.5,263.5C 185.5,263.5 188.5,263.5 191.5,263.5C 191.5,251.5 191.5,239.5 191.5,227.5C 188.833,227.5 186.167,227.5 183.5,227.5C 183.167,227.5 182.833,227.5 182.5,227.5C 182.5,224.5 182.5,221.5 182.5,218.5C 176.5,218.5 170.5,218.5 164.5,218.5C 164.5,200.5 164.5,182.5 164.5,164.5C 197.5,164.5 230.5,164.5 263.5,164.5C 263.5,162.167 263.5,159.833 263.5,157.5 Z"/></g>
<g><path style="opacity:1" fill="#808081" d="M 137.5,163.5 C 143.409,164.455 149.409,164.789 155.5,164.5C 155.5,185.5 155.5,206.5 155.5,227.5C 152.5,227.5 149.5,227.5 146.5,227.5C 146.5,230.5 146.5,233.5 146.5,236.5C 113.5,236.5 80.5,236.5 47.5,236.5C 47.5,236.167 47.5,235.833 47.5,235.5C 47.5,232.833 47.5,230.167 47.5,227.5C 74.5,227.5 101.5,227.5 128.5,227.5C 131.5,227.5 134.5,227.5 137.5,227.5C 137.5,209.5 137.5,191.5 137.5,173.5C 137.5,170.5 137.5,167.5 137.5,164.5C 137.5,164.167 137.5,163.833 137.5,163.5 Z"/></g>
<g><path style="opacity:1" fill="#070707" d="M 137.5,164.5 C 137.5,167.5 137.5,170.5 137.5,173.5C 134.5,173.5 131.5,173.5 128.5,173.5C 128.5,175.833 128.5,178.167 128.5,180.5C 125.72,181.078 123.053,181.745 120.5,182.5C 120.167,182.5 119.833,182.5 119.5,182.5C 119.5,179.5 119.5,176.5 119.5,173.5C 122.448,173.777 125.281,173.444 128,172.5C 128.497,169.854 128.664,167.187 128.5,164.5C 131.5,164.5 134.5,164.5 137.5,164.5 Z"/></g>
<g><path style="opacity:1" fill="#07030d" d="M 111.5,155.5 C 114.167,155.5 116.833,155.5 119.5,155.5C 119.5,158.5 119.5,161.5 119.5,164.5C 116.5,164.5 113.5,164.5 110.5,164.5C 110.5,167.5 110.5,170.5 110.5,173.5C 107.5,173.5 104.5,173.5 101.5,173.5C 101.5,170.833 101.5,168.167 101.5,165.5C 104.34,164.88 107.174,164.213 110,163.5C 110.822,160.883 111.322,158.216 111.5,155.5 Z"/></g>
<g><path style="opacity:1" fill="#19017c" d="M 47.5,157.5 C 67.178,157.167 86.8446,157.5 106.5,158.5C 105.985,160.225 105.318,161.892 104.5,163.5C 102.775,161.908 101.775,162.242 101.5,164.5C 86.5,164.5 71.5,164.5 56.5,164.5C 56.1807,182.577 56.514,200.577 57.5,218.5C 54.1667,218.5 50.8333,218.5 47.5,218.5C 47.5,198.167 47.5,177.833 47.5,157.5 Z"/></g>
<g><path style="opacity:1" fill="#2c07c3" d="M 101.5,164.5 C 101.5,164.833 101.5,165.167 101.5,165.5C 101.5,168.167 101.5,170.833 101.5,173.5C 98.8127,173.336 96.146,173.503 93.5,174C 92.7256,176.405 92.2256,178.905 92,181.5C 89.3333,182.167 86.6667,182.833 84,183.5C 83.5026,186.146 83.3359,188.813 83.5,191.5C 83.1667,191.5 82.8333,191.5 82.5,191.5C 82.2493,188.091 82.5827,184.758 83.5,181.5C 86.0865,180.52 88.7531,180.187 91.5,180.5C 91.2317,177.881 91.565,175.381 92.5,173C 95.146,172.503 97.8127,172.336 100.5,172.5C 100.5,170.167 100.5,167.833 100.5,165.5C 86.1667,165.5 71.8333,165.5 57.5,165.5C 57.1747,182.744 57.5081,199.91 58.5,217C 81.4976,217.5 104.498,217.667 127.5,217.5C 127.5,217.833 127.5,218.167 127.5,218.5C 104.167,218.5 80.8333,218.5 57.5,218.5C 56.514,200.577 56.1807,182.577 56.5,164.5C 71.5,164.5 86.5,164.5 101.5,164.5 Z"/></g>
<g><path style="opacity:1" fill="#090411" d="M 101.5,173.5 C 101.5,176.5 101.5,179.5 101.5,182.5C 98.5,182.5 95.5,182.5 92.5,182.5C 92.5,185.5 92.5,188.5 92.5,191.5C 89.5,191.5 86.5,191.5 83.5,191.5C 83.3359,188.813 83.5026,186.146 84,183.5C 86.6667,182.833 89.3333,182.167 92,181.5C 92.2256,178.905 92.7256,176.405 93.5,174C 96.146,173.503 98.8127,173.336 101.5,173.5 Z"/></g>
<g><path style="opacity:1" fill="#3702fa" d="M 82.5,191.5 C 80.1667,191.5 77.8333,191.5 75.5,191.5C 74.1836,194.087 73.517,197.087 73.5,200.5C 73.5207,203.752 73.854,206.919 74.5,210C 80.5,210.667 86.5,210.667 92.5,210C 93.4438,207.281 93.7771,204.448 93.5,201.5C 96.0673,201.279 98.4006,200.612 100.5,199.5C 101.473,197.052 101.806,194.385 101.5,191.5C 107.5,191.5 113.5,191.5 119.5,191.5C 119.5,188.5 119.5,185.5 119.5,182.5C 119.833,182.5 120.167,182.5 120.5,182.5C 122.833,182.5 125.167,182.5 127.5,182.5C 127.5,194.167 127.5,205.833 127.5,217.5C 104.498,217.667 81.4976,217.5 58.5,217C 57.5081,199.91 57.1747,182.744 57.5,165.5C 71.8333,165.5 86.1667,165.5 100.5,165.5C 100.5,167.833 100.5,170.167 100.5,172.5C 97.8127,172.336 95.146,172.503 92.5,173C 91.565,175.381 91.2317,177.881 91.5,180.5C 88.7531,180.187 86.0865,180.52 83.5,181.5C 82.5827,184.758 82.2493,188.091 82.5,191.5 Z"/></g>
<g><path style="opacity:1" fill="#030107" d="M 119.5,182.5 C 119.5,185.5 119.5,188.5 119.5,191.5C 113.5,191.5 107.5,191.5 101.5,191.5C 101.223,188.552 101.556,185.719 102.5,183C 108.157,182.501 113.824,182.334 119.5,182.5 Z"/></g>
<g><path style="opacity:1" fill="#03020b" d="M 75.5,191.5 C 77.8333,191.5 80.1667,191.5 82.5,191.5C 82.8333,191.5 83.1667,191.5 83.5,191.5C 83.5,194.5 83.5,197.5 83.5,200.5C 86.5,200.5 89.5,200.5 92.5,200.5C 91.5975,203.391 91.2641,206.391 91.5,209.5C 86.1667,209.5 80.8333,209.5 75.5,209.5C 75.5,203.5 75.5,197.5 75.5,191.5 Z"/></g>
<g><path style="opacity:1" fill="#060309" d="M 92.5,191.5 C 95.5,191.5 98.5,191.5 101.5,191.5C 101.806,194.385 101.473,197.052 100.5,199.5C 97.7212,199.279 95.0545,199.612 92.5,200.5C 92.5,197.5 92.5,194.5 92.5,191.5 Z"/></g>
<g><path style="opacity:1" fill="#1b0f78" d="M 128.5,180.5 C 128.5,193.167 128.5,205.833 128.5,218.5C 128.167,218.5 127.833,218.5 127.5,218.5C 127.5,218.167 127.5,217.833 127.5,217.5C 127.5,205.833 127.5,194.167 127.5,182.5C 125.167,182.5 122.833,182.5 120.5,182.5C 123.053,181.745 125.72,181.078 128.5,180.5 Z"/></g>
<g><path style="opacity:1" fill="#f2f2f2" d="M -0.5,179.5 C 4.5,179.5 9.5,179.5 14.5,179.5C 14.1975,184.43 14.5308,189.263 15.5,194C 20.2519,194.773 24.9185,194.607 29.5,193.5C 29.5,204.833 29.5,216.167 29.5,227.5C 26.5,227.5 23.5,227.5 20.5,227.5C 20.5,230.5 20.5,233.5 20.5,236.5C 17.5,236.5 14.5,236.5 11.5,236.5C 11.5,239.5 11.5,242.5 11.5,245.5C 8.5,245.5 5.5,245.5 2.5,245.5C 2.5,257.5 2.5,269.5 2.5,281.5C 5.5,281.5 8.5,281.5 11.5,281.5C 11.5,284.5 11.5,287.5 11.5,290.5C 62.5,290.5 113.5,290.5 164.5,290.5C 164.5,287.5 164.5,284.5 164.5,281.5C 167.167,281.5 169.833,281.5 172.5,281.5C 172.631,282.239 172.464,282.906 172,283.5C 170.186,282.24 168.353,282.24 166.5,283.5C 170.783,284.492 175.116,284.826 179.5,284.5C 179.5,287.833 179.5,291.167 179.5,294.5C 119.5,294.5 59.5,294.5 -0.5,294.5C -0.5,256.167 -0.5,217.833 -0.5,179.5 Z"/></g>
<g><path style="opacity:1" fill="#f9fc3b" d="M 83.5,191.5 C 86.5,191.5 89.5,191.5 92.5,191.5C 92.5,194.5 92.5,197.5 92.5,200.5C 89.5,200.5 86.5,200.5 83.5,200.5C 83.5,197.5 83.5,194.5 83.5,191.5 Z"/></g>
<g><path style="opacity:1" fill="#c1c1c2" d="M 137.5,173.5 C 137.5,191.5 137.5,209.5 137.5,227.5C 134.5,227.5 131.5,227.5 128.5,227.5C 128.5,224.5 128.5,221.5 128.5,218.5C 128.5,205.833 128.5,193.167 128.5,180.5C 128.5,178.167 128.5,175.833 128.5,173.5C 131.5,173.5 134.5,173.5 137.5,173.5 Z"/></g>
<g><path style="opacity:1" fill="#280b98" d="M 75.5,191.5 C 75.5,197.5 75.5,203.5 75.5,209.5C 80.8333,209.5 86.1667,209.5 91.5,209.5C 91.2641,206.391 91.5975,203.391 92.5,200.5C 95.0545,199.612 97.7212,199.279 100.5,199.5C 98.4006,200.612 96.0673,201.279 93.5,201.5C 93.7771,204.448 93.4438,207.281 92.5,210C 86.5,210.667 80.5,210.667 74.5,210C 73.854,206.919 73.5207,203.752 73.5,200.5C 73.517,197.087 74.1836,194.087 75.5,191.5 Z"/></g>
<g><path style="opacity:1" fill="#fefefe" d="M 239.5,194.5 C 239.5,199.5 239.5,204.5 239.5,209.5C 234.5,209.5 229.5,209.5 224.5,209.5C 224.334,214.179 224.501,218.845 225,223.5C 229.737,224.469 234.57,224.803 239.5,224.5C 239.5,229.5 239.5,234.5 239.5,239.5C 234.5,239.5 229.5,239.5 224.5,239.5C 224.666,234.821 224.499,230.155 224,225.5C 219.263,224.531 214.43,224.197 209.5,224.5C 209.5,229.5 209.5,234.5 209.5,239.5C 204.5,239.5 199.5,239.5 194.5,239.5C 194.5,234.5 194.5,229.5 194.5,224.5C 199.43,224.803 204.263,224.469 209,223.5C 209.499,218.845 209.666,214.179 209.5,209.5C 214.179,209.666 218.845,209.499 223.5,209C 224.833,204.333 224.833,199.667 223.5,195C 218.845,194.501 214.179,194.334 209.5,194.5C 209.5,189.5 209.5,184.5 209.5,179.5C 214.5,179.5 219.5,179.5 224.5,179.5C 224.5,184.5 224.5,189.5 224.5,194.5C 229.5,194.5 234.5,194.5 239.5,194.5 Z"/></g>
<g><path style="opacity:1" fill="#e3e3e3" d="M 294.5,209.5 C 294.5,224.5 294.5,239.5 294.5,254.5C 291.167,254.5 287.833,254.5 284.5,254.5C 284.5,249.5 284.5,244.5 284.5,239.5C 279.5,239.5 274.5,239.5 269.5,239.5C 269.5,234.5 269.5,229.5 269.5,224.5C 274.43,224.803 279.263,224.469 284,223.5C 284.499,218.845 284.666,214.179 284.5,209.5C 287.833,209.5 291.167,209.5 294.5,209.5 Z"/></g>
<g><path style="opacity:1" fill="#050505" d="M 155.5,227.5 C 155.5,229.833 155.5,232.167 155.5,234.5C 155.5,235.167 155.5,235.833 155.5,236.5C 152.5,236.5 149.5,236.5 146.5,236.5C 146.5,233.5 146.5,230.5 146.5,227.5C 149.5,227.5 152.5,227.5 155.5,227.5 Z"/></g>
<g><path style="opacity:1" fill="#bfbfbf" d="M 47.5,227.5 C 47.5,230.167 47.5,232.833 47.5,235.5C 44.8333,235.5 42.1667,235.5 39.5,235.5C 39.5,232.833 39.5,230.167 39.5,227.5C 42.1667,227.5 44.8333,227.5 47.5,227.5 Z"/></g>
<g><path style="opacity:1" fill="#050505" d="M 183.5,227.5 C 186.167,227.5 188.833,227.5 191.5,227.5C 191.5,239.5 191.5,251.5 191.5,263.5C 188.5,263.5 185.5,263.5 182.5,263.5C 182.188,251.42 182.521,239.42 183.5,227.5 Z"/></g>
<g><path style="opacity:1" fill="#bcbcbc" d="M 155.5,236.5 C 155.5,235.833 155.5,235.167 155.5,234.5C 156.224,232.782 156.891,230.948 157.5,229C 159.81,228.503 162.143,228.337 164.5,228.5C 164.768,231.119 164.435,233.619 163.5,236C 160.854,236.497 158.187,236.664 155.5,236.5 Z"/></g>
<g><path style="opacity:1" fill="#fcfcfc" d="M 155.5,227.5 C 161.5,227.5 167.5,227.5 173.5,227.5C 173.5,230.5 173.5,233.5 173.5,236.5C 170.5,236.5 167.5,236.5 164.5,236.5C 164.5,239.5 164.5,242.5 164.5,245.5C 161.5,245.5 158.5,245.5 155.5,245.5C 155.5,242.5 155.5,239.5 155.5,236.5C 158.187,236.664 160.854,236.497 163.5,236C 164.435,233.619 164.768,231.119 164.5,228.5C 162.143,228.337 159.81,228.503 157.5,229C 156.891,230.948 156.224,232.782 155.5,234.5C 155.5,232.167 155.5,229.833 155.5,227.5 Z"/></g>
<g><path style="opacity:1" fill="#0c0c0c" d="M 20.5,236.5 C 20.5,239.5 20.5,242.5 20.5,245.5C 17.5,245.5 14.5,245.5 11.5,245.5C 11.5,242.5 11.5,239.5 11.5,236.5C 14.5,236.5 17.5,236.5 20.5,236.5 Z"/></g>
<g><path style="opacity:1" fill="#c4c4c4" d="M 20.5,236.5 C 23.5,236.5 26.5,236.5 29.5,236.5C 29.5,239.5 29.5,242.5 29.5,245.5C 26.5,245.5 23.5,245.5 20.5,245.5C 20.5,242.5 20.5,239.5 20.5,236.5 Z"/></g>
<g><path style="opacity:1" fill="#bebebe" d="M 146.5,236.5 C 149.5,236.5 152.5,236.5 155.5,236.5C 155.5,239.5 155.5,242.5 155.5,245.5C 152.5,245.5 149.5,245.5 146.5,245.5C 146.5,242.5 146.5,239.5 146.5,236.5 Z"/></g>
<g><path style="opacity:1" fill="#fefefe" d="M 11.5,245.5 C 14.5,245.5 17.5,245.5 20.5,245.5C 23.5,245.5 26.5,245.5 29.5,245.5C 68.5,245.5 107.5,245.5 146.5,245.5C 149.5,245.5 152.5,245.5 155.5,245.5C 155.5,248.5 155.5,251.5 155.5,254.5C 110.5,254.5 65.5,254.5 20.5,254.5C 20.5,260.5 20.5,266.5 20.5,272.5C 17.8333,272.5 15.1667,272.5 12.5,272.5C 12.8016,275.059 12.4682,277.393 11.5,279.5C 11.5,268.167 11.5,256.833 11.5,245.5 Z"/></g>
<g><path style="opacity:1" fill="#080808" d="M 11.5,245.5 C 11.5,256.833 11.5,268.167 11.5,279.5C 11.5,280.167 11.5,280.833 11.5,281.5C 8.5,281.5 5.5,281.5 2.5,281.5C 2.5,269.5 2.5,257.5 2.5,245.5C 5.5,245.5 8.5,245.5 11.5,245.5 Z"/></g>
<g><path style="opacity:1" fill="#bfbfbf" d="M 155.5,245.5 C 158.5,245.5 161.5,245.5 164.5,245.5C 164.5,248.5 164.5,251.5 164.5,254.5C 161.5,254.5 158.5,254.5 155.5,254.5C 155.5,251.5 155.5,248.5 155.5,245.5 Z"/></g>
<g><path style="opacity:1" fill="#eaeaea" d="M 239.5,194.5 C 244.5,194.5 249.5,194.5 254.5,194.5C 254.334,199.844 254.501,205.177 255,210.5C 259.737,209.531 264.57,209.197 269.5,209.5C 269.666,214.179 269.499,218.845 269,223.5C 264.333,224.167 259.667,224.833 255,225.5C 254.501,230.155 254.334,234.821 254.5,239.5C 259.5,239.5 264.5,239.5 269.5,239.5C 269.5,244.5 269.5,249.5 269.5,254.5C 274.179,254.334 278.845,254.501 283.5,255C 284.833,259.667 284.833,264.333 283.5,269C 278.845,269.499 274.179,269.666 269.5,269.5C 269.5,274.5 269.5,279.5 269.5,284.5C 264.821,284.666 260.155,284.499 255.5,284C 254.531,279.263 254.197,274.43 254.5,269.5C 249.5,269.5 244.5,269.5 239.5,269.5C 239.5,264.5 239.5,259.5 239.5,254.5C 234.821,254.334 230.155,254.501 225.5,255C 224.833,259.667 224.167,264.333 223.5,269C 218.845,269.499 214.179,269.666 209.5,269.5C 209.197,264.57 209.531,259.737 210.5,255C 205.177,254.501 199.844,254.334 194.5,254.5C 194.5,249.5 194.5,244.5 194.5,239.5C 199.5,239.5 204.5,239.5 209.5,239.5C 209.5,234.5 209.5,229.5 209.5,224.5C 214.43,224.197 219.263,224.531 224,225.5C 224.499,230.155 224.666,234.821 224.5,239.5C 229.5,239.5 234.5,239.5 239.5,239.5C 239.5,234.5 239.5,229.5 239.5,224.5C 234.57,224.803 229.737,224.469 225,223.5C 224.501,218.845 224.334,214.179 224.5,209.5C 229.5,209.5 234.5,209.5 239.5,209.5C 239.5,204.5 239.5,199.5 239.5,194.5 Z"/></g>
<g><path style="opacity:1" fill="#bfbfbf" d="M 155.5,254.5 C 155.5,260.5 155.5,266.5 155.5,272.5C 152.5,272.5 149.5,272.5 146.5,272.5C 146.5,269.5 146.5,266.5 146.5,263.5C 143.5,263.5 140.5,263.5 137.5,263.5C 125.5,263.5 113.5,263.5 101.5,263.5C 98.5,263.5 95.5,263.5 92.5,263.5C 92.5,266.5 92.5,269.5 92.5,272.5C 68.5,272.5 44.5,272.5 20.5,272.5C 20.5,266.5 20.5,260.5 20.5,254.5C 65.5,254.5 110.5,254.5 155.5,254.5 Z"/></g>
<g><path style="opacity:1" fill="#090909" d="M 182.5,263.5 C 182.5,266.5 182.5,269.5 182.5,272.5C 179.5,272.5 176.5,272.5 173.5,272.5C 173.5,269.5 173.5,266.5 173.5,263.5C 176.5,263.5 179.5,263.5 182.5,263.5 Z"/></g>
<g><path style="opacity:1" fill="#7e7e7e" d="M 173.5,227.5 C 176.5,227.5 179.5,227.5 182.5,227.5C 182.833,227.5 183.167,227.5 183.5,227.5C 182.521,239.42 182.188,251.42 182.5,263.5C 179.5,263.5 176.5,263.5 173.5,263.5C 173.5,266.5 173.5,269.5 173.5,272.5C 170.5,272.5 167.5,272.5 164.5,272.5C 163.493,274.361 163.16,277.028 163.5,280.5C 115.833,280.5 68.1667,280.5 20.5,280.5C 20.5,277.833 20.5,275.167 20.5,272.5C 44.5,272.5 68.5,272.5 92.5,272.5C 92.5,269.5 92.5,266.5 92.5,263.5C 95.5,263.5 98.5,263.5 101.5,263.5C 101.5,266.5 101.5,269.5 101.5,272.5C 113.5,272.5 125.5,272.5 137.5,272.5C 137.5,269.5 137.5,266.5 137.5,263.5C 140.5,263.5 143.5,263.5 146.5,263.5C 146.5,266.5 146.5,269.5 146.5,272.5C 149.5,272.5 152.5,272.5 155.5,272.5C 155.5,266.5 155.5,260.5 155.5,254.5C 158.5,254.5 161.5,254.5 164.5,254.5C 164.5,251.5 164.5,248.5 164.5,245.5C 164.5,242.5 164.5,239.5 164.5,236.5C 167.5,236.5 170.5,236.5 173.5,236.5C 173.5,233.5 173.5,230.5 173.5,227.5 Z"/></g>
<g><path style="opacity:1" fill="#000000" d="M 101.5,263.5 C 113.5,263.5 125.5,263.5 137.5,263.5C 137.5,266.5 137.5,269.5 137.5,272.5C 125.5,272.5 113.5,272.5 101.5,272.5C 101.5,269.5 101.5,266.5 101.5,263.5 Z"/></g>
<g><path style="opacity:1" fill="#f4f4f4" d="M 269.5,239.5 C 274.5,239.5 279.5,239.5 284.5,239.5C 284.5,244.5 284.5,249.5 284.5,254.5C 287.833,254.5 291.167,254.5 294.5,254.5C 294.5,267.833 294.5,281.167 294.5,294.5C 261.167,294.5 227.833,294.5 194.5,294.5C 194.5,291.167 194.5,287.833 194.5,284.5C 199.43,284.803 204.263,284.469 209,283.5C 209.499,278.845 209.666,274.179 209.5,269.5C 214.179,269.666 218.845,269.499 223.5,269C 224.167,264.333 224.833,259.667 225.5,255C 230.155,254.501 234.821,254.334 239.5,254.5C 239.5,259.5 239.5,264.5 239.5,269.5C 244.5,269.5 249.5,269.5 254.5,269.5C 254.197,274.43 254.531,279.263 255.5,284C 260.155,284.499 264.821,284.666 269.5,284.5C 269.5,279.5 269.5,274.5 269.5,269.5C 274.179,269.666 278.845,269.499 283.5,269C 284.833,264.333 284.833,259.667 283.5,255C 278.845,254.501 274.179,254.334 269.5,254.5C 269.5,249.5 269.5,244.5 269.5,239.5 Z"/></g>
<g><path style="opacity:1" fill="#0e0e0e" d="M 164.5,272.5 C 167.5,272.5 170.5,272.5 173.5,272.5C 173.81,275.713 173.477,278.713 172.5,281.5C 169.833,281.5 167.167,281.5 164.5,281.5C 164.5,278.5 164.5,275.5 164.5,272.5 Z"/></g>
<g><path style="opacity:1" fill="#a4a4a4" d="M 164.5,272.5 C 164.5,275.5 164.5,278.5 164.5,281.5C 113.5,281.5 62.5,281.5 11.5,281.5C 11.5,280.833 11.5,280.167 11.5,279.5C 12.4682,277.393 12.8016,275.059 12.5,272.5C 15.1667,272.5 17.8333,272.5 20.5,272.5C 20.5,275.167 20.5,277.833 20.5,280.5C 68.1667,280.5 115.833,280.5 163.5,280.5C 163.16,277.028 163.493,274.361 164.5,272.5 Z"/></g>
<g><path style="opacity:1" fill="#050505" d="M 11.5,281.5 C 62.5,281.5 113.5,281.5 164.5,281.5C 164.5,284.5 164.5,287.5 164.5,290.5C 113.5,290.5 62.5,290.5 11.5,290.5C 11.5,287.5 11.5,284.5 11.5,281.5 Z"/></g>
</svg>
