<?xml version="1.0" encoding="UTF-8"?>
<!DOCTYPE svg PUBLIC "-//W3C//DTD SVG 1.1//EN" "http://www.w3.org/Graphics/SVG/1.1/DTD/svg11.dtd">
<svg xmlns="http://www.w3.org/2000/svg" version="1.1" width="360px" height="270px" style="shape-rendering:geometricPrecision; text-rendering:geometricPrecision; image-rendering:optimizeQuality; fill-rule:evenodd; clip-rule:evenodd" xmlns:xlink="http://www.w3.org/1999/xlink">
<g><path style="opacity:1" fill="#fefffe" d="M -0.5,-0.5 C 4.5,-0.5 9.5,-0.5 14.5,-0.5C 14.5,4.5 14.5,9.5 14.5,14.5C 9.5,14.5 4.5,14.5 -0.5,14.5C -0.5,9.5 -0.5,4.5 -0.5,-0.5 Z"/></g>
<g><path style="opacity:1" fill="#edeeed" d="M 14.5,-0.5 C 19.5,-0.5 24.5,-0.5 29.5,-0.5C 29.5,4.5 29.5,9.5 29.5,14.5C 24.5,14.5 19.5,14.5 14.5,14.5C 14.5,9.5 14.5,4.5 14.5,-0.5 Z"/></g>
<g><path style="opacity:1" fill="#fefffe" d="M 29.5,-0.5 C 34.5,-0.5 39.5,-0.5 44.5,-0.5C 44.5,4.5 44.5,9.5 44.5,14.5C 39.5,14.5 34.5,14.5 29.5,14.5C 29.5,9.5 29.5,4.5 29.5,-0.5 Z"/></g>
<g><path style="opacity:1" fill="#edeeed" d="M 44.5,-0.5 C 49.5,-0.5 54.5,-0.5 59.5,-0.5C 59.5,4.5 59.5,9.5 59.5,14.5C 54.5,14.5 49.5,14.5 44.5,14.5C 44.5,9.5 44.5,4.5 44.5,-0.5 Z"/></g>
<g><path style="opacity:1" fill="#fefffe" d="M 59.5,-0.5 C 64.5,-0.5 69.5,-0.5 74.5,-0.5C 74.5,4.5 74.5,9.5 74.5,14.5C 69.5,14.5 64.5,14.5 59.5,14.5C 59.5,9.5 59.5,4.5 59.5,-0.5 Z"/></g>
<g><path style="opacity:1" fill="#edeeed" d="M 74.5,-0.5 C 79.5,-0.5 84.5,-0.5 89.5,-0.5C 89.5,4.5 89.5,9.5 89.5,14.5C 84.5,14.5 79.5,14.5 74.5,14.5C 74.5,9.5 74.5,4.5 74.5,-0.5 Z"/></g>
<g><path style="opacity:1" fill="#fefffe" d="M 89.5,-0.5 C 94.5,-0.5 99.5,-0.5 104.5,-0.5C 104.5,4.5 104.5,9.5 104.5,14.5C 99.5,14.5 94.5,14.5 89.5,14.5C 89.5,9.5 89.5,4.5 89.5,-0.5 Z"/></g>
<g><path style="opacity:1" fill="#edeeed" d="M 104.5,-0.5 C 109.5,-0.5 114.5,-0.5 119.5,-0.5C 119.5,4.5 119.5,9.5 119.5,14.5C 114.5,14.5 109.5,14.5 104.5,14.5C 104.5,9.5 104.5,4.5 104.5,-0.5 Z"/></g>
<g><path style="opacity:1" fill="#fefffe" d="M 119.5,-0.5 C 124.5,-0.5 129.5,-0.5 134.5,-0.5C 134.5,4.5 134.5,9.5 134.5,14.5C 129.5,14.5 124.5,14.5 119.5,14.5C 119.5,9.5 119.5,4.5 119.5,-0.5 Z"/></g>
<g><path style="opacity:1" fill="#edeeed" d="M 134.5,-0.5 C 139.5,-0.5 144.5,-0.5 149.5,-0.5C 149.5,4.5 149.5,9.5 149.5,14.5C 144.5,14.5 139.5,14.5 134.5,14.5C 134.5,9.5 134.5,4.5 134.5,-0.5 Z"/></g>
<g><path style="opacity:1" fill="#fefffe" d="M 149.5,-0.5 C 154.5,-0.5 159.5,-0.5 164.5,-0.5C 164.5,4.5 164.5,9.5 164.5,14.5C 159.5,14.5 154.5,14.5 149.5,14.5C 149.5,9.5 149.5,4.5 149.5,-0.5 Z"/></g>
<g><path style="opacity:1" fill="#edeeed" d="M 164.5,-0.5 C 169.5,-0.5 174.5,-0.5 179.5,-0.5C 179.5,4.5 179.5,9.5 179.5,14.5C 174.5,14.5 169.5,14.5 164.5,14.5C 164.5,9.5 164.5,4.5 164.5,-0.5 Z"/></g>
<g><path style="opacity:1" fill="#fefffe" d="M 179.5,-0.5 C 184.5,-0.5 189.5,-0.5 194.5,-0.5C 194.5,4.5 194.5,9.5 194.5,14.5C 189.5,14.5 184.5,14.5 179.5,14.5C 179.5,9.5 179.5,4.5 179.5,-0.5 Z"/></g>
<g><path style="opacity:1" fill="#edeeed" d="M 194.5,-0.5 C 199.5,-0.5 204.5,-0.5 209.5,-0.5C 209.5,4.5 209.5,9.5 209.5,14.5C 204.5,14.5 199.5,14.5 194.5,14.5C 194.5,9.5 194.5,4.5 194.5,-0.5 Z"/></g>
<g><path style="opacity:1" fill="#fefffe" d="M 209.5,-0.5 C 214.5,-0.5 219.5,-0.5 224.5,-0.5C 224.5,4.5 224.5,9.5 224.5,14.5C 219.5,14.5 214.5,14.5 209.5,14.5C 209.5,9.5 209.5,4.5 209.5,-0.5 Z"/></g>
<g><path style="opacity:1" fill="#edeeed" d="M 224.5,-0.5 C 229.5,-0.5 234.5,-0.5 239.5,-0.5C 239.5,4.5 239.5,9.5 239.5,14.5C 234.5,14.5 229.5,14.5 224.5,14.5C 224.5,9.5 224.5,4.5 224.5,-0.5 Z"/></g>
<g><path style="opacity:1" fill="#fefffe" d="M 239.5,-0.5 C 244.5,-0.5 249.5,-0.5 254.5,-0.5C 254.5,4.5 254.5,9.5 254.5,14.5C 249.5,14.5 244.5,14.5 239.5,14.5C 239.5,9.5 239.5,4.5 239.5,-0.5 Z"/></g>
<g><path style="opacity:1" fill="#edeeed" d="M 254.5,-0.5 C 259.5,-0.5 264.5,-0.5 269.5,-0.5C 269.5,4.5 269.5,9.5 269.5,14.5C 264.5,14.5 259.5,14.5 254.5,14.5C 254.5,9.5 254.5,4.5 254.5,-0.5 Z"/></g>
<g><path style="opacity:1" fill="#fefffe" d="M 269.5,-0.5 C 274.5,-0.5 279.5,-0.5 284.5,-0.5C 284.5,4.5 284.5,9.5 284.5,14.5C 279.5,14.5 274.5,14.5 269.5,14.5C 269.5,9.5 269.5,4.5 269.5,-0.5 Z"/></g>
<g><path style="opacity:1" fill="#edeeed" d="M 284.5,-0.5 C 289.5,-0.5 294.5,-0.5 299.5,-0.5C 299.5,4.5 299.5,9.5 299.5,14.5C 294.5,14.5 289.5,14.5 284.5,14.5C 284.5,9.5 284.5,4.5 284.5,-0.5 Z"/></g>
<g><path style="opacity:1" fill="#fefffe" d="M 299.5,-0.5 C 304.5,-0.5 309.5,-0.5 314.5,-0.5C 314.5,4.5 314.5,9.5 314.5,14.5C 309.5,14.5 304.5,14.5 299.5,14.5C 299.5,9.5 299.5,4.5 299.5,-0.5 Z"/></g>
<g><path style="opacity:1" fill="#edeeed" d="M 314.5,-0.5 C 319.5,-0.5 324.5,-0.5 329.5,-0.5C 329.5,4.5 329.5,9.5 329.5,14.5C 324.5,14.5 319.5,14.5 314.5,14.5C 314.5,9.5 314.5,4.5 314.5,-0.5 Z"/></g>
<g><path style="opacity:1" fill="#fefffe" d="M 329.5,-0.5 C 334.5,-0.5 339.5,-0.5 344.5,-0.5C 344.5,4.5 344.5,9.5 344.5,14.5C 339.5,14.5 334.5,14.5 329.5,14.5C 329.5,9.5 329.5,4.5 329.5,-0.5 Z"/></g>
<g><path style="opacity:1" fill="#edeeed" d="M 344.5,-0.5 C 349.5,-0.5 354.5,-0.5 359.5,-0.5C 359.5,4.5 359.5,9.5 359.5,14.5C 354.5,14.5 349.5,14.5 344.5,14.5C 344.5,9.5 344.5,4.5 344.5,-0.5 Z"/></g>
<g><path style="opacity:1" fill="#edeeed" d="M -0.5,14.5 C 4.5,14.5 9.5,14.5 14.5,14.5C 14.5,19.5 14.5,24.5 14.5,29.5C 9.5,29.5 4.5,29.5 -0.5,29.5C -0.5,24.5 -0.5,19.5 -0.5,14.5 Z"/></g>
<g><path style="opacity:1" fill="#fefffe" d="M 14.5,14.5 C 19.5,14.5 24.5,14.5 29.5,14.5C 29.5,19.5 29.5,24.5 29.5,29.5C 24.5,29.5 19.5,29.5 14.5,29.5C 14.5,24.5 14.5,19.5 14.5,14.5 Z"/></g>
<g><path style="opacity:1" fill="#edeeed" d="M 29.5,14.5 C 34.5,14.5 39.5,14.5 44.5,14.5C 44.5,19.5 44.5,24.5 44.5,29.5C 39.5,29.5 34.5,29.5 29.5,29.5C 29.5,24.5 29.5,19.5 29.5,14.5 Z"/></g>
<g><path style="opacity:1" fill="#fefffe" d="M 44.5,14.5 C 49.5,14.5 54.5,14.5 59.5,14.5C 59.5,19.5 59.5,24.5 59.5,29.5C 54.5,29.5 49.5,29.5 44.5,29.5C 44.5,24.5 44.5,19.5 44.5,14.5 Z"/></g>
<g><path style="opacity:1" fill="#edeeed" d="M 59.5,14.5 C 64.5,14.5 69.5,14.5 74.5,14.5C 74.5,19.5 74.5,24.5 74.5,29.5C 69.5,29.5 64.5,29.5 59.5,29.5C 59.5,24.5 59.5,19.5 59.5,14.5 Z"/></g>
<g><path style="opacity:1" fill="#fefffe" d="M 74.5,14.5 C 79.5,14.5 84.5,14.5 89.5,14.5C 89.5,19.5 89.5,24.5 89.5,29.5C 84.5,29.5 79.5,29.5 74.5,29.5C 74.5,24.5 74.5,19.5 74.5,14.5 Z"/></g>
<g><path style="opacity:1" fill="#edeeed" d="M 89.5,14.5 C 94.5,14.5 99.5,14.5 104.5,14.5C 104.5,19.5 104.5,24.5 104.5,29.5C 99.5,29.5 94.5,29.5 89.5,29.5C 89.5,24.5 89.5,19.5 89.5,14.5 Z"/></g>
<g><path style="opacity:1" fill="#fefffe" d="M 104.5,14.5 C 109.5,14.5 114.5,14.5 119.5,14.5C 119.5,19.5 119.5,24.5 119.5,29.5C 114.5,29.5 109.5,29.5 104.5,29.5C 104.5,24.5 104.5,19.5 104.5,14.5 Z"/></g>
<g><path style="opacity:1" fill="#edeeed" d="M 119.5,14.5 C 124.5,14.5 129.5,14.5 134.5,14.5C 134.5,19.5 134.5,24.5 134.5,29.5C 129.5,29.5 124.5,29.5 119.5,29.5C 119.5,24.5 119.5,19.5 119.5,14.5 Z"/></g>
<g><path style="opacity:1" fill="#fefffe" d="M 134.5,14.5 C 139.5,14.5 144.5,14.5 149.5,14.5C 149.5,19.5 149.5,24.5 149.5,29.5C 144.5,29.5 139.5,29.5 134.5,29.5C 134.5,24.5 134.5,19.5 134.5,14.5 Z"/></g>
<g><path style="opacity:1" fill="#edeeed" d="M 149.5,14.5 C 154.5,14.5 159.5,14.5 164.5,14.5C 164.5,19.5 164.5,24.5 164.5,29.5C 159.5,29.5 154.5,29.5 149.5,29.5C 149.5,24.5 149.5,19.5 149.5,14.5 Z"/></g>
<g><path style="opacity:1" fill="#fefffe" d="M 164.5,14.5 C 169.5,14.5 174.5,14.5 179.5,14.5C 179.5,19.5 179.5,24.5 179.5,29.5C 174.5,29.5 169.5,29.5 164.5,29.5C 164.5,24.5 164.5,19.5 164.5,14.5 Z"/></g>
<g><path style="opacity:1" fill="#edeeed" d="M 179.5,14.5 C 184.5,14.5 189.5,14.5 194.5,14.5C 194.5,19.5 194.5,24.5 194.5,29.5C 189.5,29.5 184.5,29.5 179.5,29.5C 179.5,24.5 179.5,19.5 179.5,14.5 Z"/></g>
<g><path style="opacity:1" fill="#fefffe" d="M 194.5,14.5 C 199.5,14.5 204.5,14.5 209.5,14.5C 209.5,19.5 209.5,24.5 209.5,29.5C 204.5,29.5 199.5,29.5 194.5,29.5C 194.5,24.5 194.5,19.5 194.5,14.5 Z"/></g>
<g><path style="opacity:1" fill="#edeeed" d="M 209.5,14.5 C 214.5,14.5 219.5,14.5 224.5,14.5C 224.5,19.5 224.5,24.5 224.5,29.5C 219.5,29.5 214.5,29.5 209.5,29.5C 209.5,24.5 209.5,19.5 209.5,14.5 Z"/></g>
<g><path style="opacity:1" fill="#fefffe" d="M 224.5,14.5 C 229.5,14.5 234.5,14.5 239.5,14.5C 239.5,19.5 239.5,24.5 239.5,29.5C 234.5,29.5 229.5,29.5 224.5,29.5C 224.5,24.5 224.5,19.5 224.5,14.5 Z"/></g>
<g><path style="opacity:1" fill="#edeeed" d="M 239.5,14.5 C 244.5,14.5 249.5,14.5 254.5,14.5C 254.5,19.5 254.5,24.5 254.5,29.5C 249.5,29.5 244.5,29.5 239.5,29.5C 239.5,24.5 239.5,19.5 239.5,14.5 Z"/></g>
<g><path style="opacity:1" fill="#fefffe" d="M 254.5,14.5 C 259.5,14.5 264.5,14.5 269.5,14.5C 269.5,19.5 269.5,24.5 269.5,29.5C 264.5,29.5 259.5,29.5 254.5,29.5C 254.5,24.5 254.5,19.5 254.5,14.5 Z"/></g>
<g><path style="opacity:1" fill="#edeeed" d="M 269.5,14.5 C 274.5,14.5 279.5,14.5 284.5,14.5C 284.5,19.5 284.5,24.5 284.5,29.5C 279.5,29.5 274.5,29.5 269.5,29.5C 269.5,24.5 269.5,19.5 269.5,14.5 Z"/></g>
<g><path style="opacity:1" fill="#fefffe" d="M 284.5,14.5 C 289.5,14.5 294.5,14.5 299.5,14.5C 299.5,19.5 299.5,24.5 299.5,29.5C 294.5,29.5 289.5,29.5 284.5,29.5C 284.5,24.5 284.5,19.5 284.5,14.5 Z"/></g>
<g><path style="opacity:1" fill="#edeeed" d="M 299.5,14.5 C 304.5,14.5 309.5,14.5 314.5,14.5C 314.5,19.5 314.5,24.5 314.5,29.5C 309.5,29.5 304.5,29.5 299.5,29.5C 299.5,24.5 299.5,19.5 299.5,14.5 Z"/></g>
<g><path style="opacity:1" fill="#fefffe" d="M 314.5,14.5 C 319.5,14.5 324.5,14.5 329.5,14.5C 329.5,19.5 329.5,24.5 329.5,29.5C 324.5,29.5 319.5,29.5 314.5,29.5C 314.5,24.5 314.5,19.5 314.5,14.5 Z"/></g>
<g><path style="opacity:1" fill="#edeeed" d="M 329.5,14.5 C 334.5,14.5 339.5,14.5 344.5,14.5C 344.5,19.5 344.5,24.5 344.5,29.5C 339.5,29.5 334.5,29.5 329.5,29.5C 329.5,24.5 329.5,19.5 329.5,14.5 Z"/></g>
<g><path style="opacity:1" fill="#fefffe" d="M 344.5,14.5 C 349.5,14.5 354.5,14.5 359.5,14.5C 359.5,19.5 359.5,24.5 359.5,29.5C 354.5,29.5 349.5,29.5 344.5,29.5C 344.5,24.5 344.5,19.5 344.5,14.5 Z"/></g>
<g><path style="opacity:1" fill="#fefffe" d="M -0.5,29.5 C 4.5,29.5 9.5,29.5 14.5,29.5C 14.5,34.5 14.5,39.5 14.5,44.5C 9.5,44.5 4.5,44.5 -0.5,44.5C -0.5,39.5 -0.5,34.5 -0.5,29.5 Z"/></g>
<g><path style="opacity:1" fill="#edeeed" d="M 14.5,29.5 C 19.5,29.5 24.5,29.5 29.5,29.5C 29.5,34.5 29.5,39.5 29.5,44.5C 24.5,44.5 19.5,44.5 14.5,44.5C 14.5,39.5 14.5,34.5 14.5,29.5 Z"/></g>
<g><path style="opacity:1" fill="#fefffe" d="M 29.5,29.5 C 34.5,29.5 39.5,29.5 44.5,29.5C 44.5,34.5 44.5,39.5 44.5,44.5C 39.5,44.5 34.5,44.5 29.5,44.5C 29.5,39.5 29.5,34.5 29.5,29.5 Z"/></g>
<g><path style="opacity:1" fill="#edeeed" d="M 44.5,29.5 C 49.5,29.5 54.5,29.5 59.5,29.5C 59.5,34.5 59.5,39.5 59.5,44.5C 54.5,44.5 49.5,44.5 44.5,44.5C 44.5,39.5 44.5,34.5 44.5,29.5 Z"/></g>
<g><path style="opacity:1" fill="#fefffe" d="M 59.5,29.5 C 64.5,29.5 69.5,29.5 74.5,29.5C 74.5,34.5 74.5,39.5 74.5,44.5C 69.5,44.5 64.5,44.5 59.5,44.5C 59.5,39.5 59.5,34.5 59.5,29.5 Z"/></g>
<g><path style="opacity:1" fill="#edeeed" d="M 74.5,29.5 C 79.5,29.5 84.5,29.5 89.5,29.5C 89.5,34.5 89.5,39.5 89.5,44.5C 84.5,44.5 79.5,44.5 74.5,44.5C 74.5,39.5 74.5,34.5 74.5,29.5 Z"/></g>
<g><path style="opacity:1" fill="#fefffe" d="M 89.5,29.5 C 94.5,29.5 99.5,29.5 104.5,29.5C 104.5,34.5 104.5,39.5 104.5,44.5C 99.5,44.5 94.5,44.5 89.5,44.5C 89.5,39.5 89.5,34.5 89.5,29.5 Z"/></g>
<g><path style="opacity:1" fill="#edeeed" d="M -0.5,44.5 C 4.5,44.5 9.5,44.5 14.5,44.5C 14.5,49.5 14.5,54.5 14.5,59.5C 9.5,59.5 4.5,59.5 -0.5,59.5C -0.5,54.5 -0.5,49.5 -0.5,44.5 Z"/></g>
<g><path style="opacity:1" fill="#fefffe" d="M 14.5,44.5 C 19.5,44.5 24.5,44.5 29.5,44.5C 29.5,49.5 29.5,54.5 29.5,59.5C 24.5,59.5 19.5,59.5 14.5,59.5C 14.5,54.5 14.5,49.5 14.5,44.5 Z"/></g>
<g><path style="opacity:1" fill="#edeeed" d="M 29.5,44.5 C 34.5,44.5 39.5,44.5 44.5,44.5C 44.5,49.5 44.5,54.5 44.5,59.5C 39.5,59.5 34.5,59.5 29.5,59.5C 29.5,54.5 29.5,49.5 29.5,44.5 Z"/></g>
<g><path style="opacity:1" fill="#fefffe" d="M 44.5,44.5 C 49.5,44.5 54.5,44.5 59.5,44.5C 59.5,49.5 59.5,54.5 59.5,59.5C 54.5,59.5 49.5,59.5 44.5,59.5C 44.5,54.5 44.5,49.5 44.5,44.5 Z"/></g>
<g><path style="opacity:1" fill="#edeeed" d="M 59.5,44.5 C 64.5,44.5 69.5,44.5 74.5,44.5C 74.5,49.5 74.5,54.5 74.5,59.5C 69.5,59.5 64.5,59.5 59.5,59.5C 59.5,54.5 59.5,49.5 59.5,44.5 Z"/></g>
<g><path style="opacity:1" fill="#fefffe" d="M 74.5,44.5 C 79.5,44.5 84.5,44.5 89.5,44.5C 89.5,49.5 89.5,54.5 89.5,59.5C 84.5,59.5 79.5,59.5 74.5,59.5C 74.5,54.5 74.5,49.5 74.5,44.5 Z"/></g>
<g><path style="opacity:1" fill="#fefffe" d="M -0.5,59.5 C 4.5,59.5 9.5,59.5 14.5,59.5C 14.5,64.5 14.5,69.5 14.5,74.5C 9.5,74.5 4.5,74.5 -0.5,74.5C -0.5,69.5 -0.5,64.5 -0.5,59.5 Z"/></g>
<g><path style="opacity:1" fill="#edeeed" d="M 14.5,59.5 C 19.5,59.5 24.5,59.5 29.5,59.5C 29.5,64.5 29.5,69.5 29.5,74.5C 24.5,74.5 19.5,74.5 14.5,74.5C 14.5,69.5 14.5,64.5 14.5,59.5 Z"/></g>
<g><path style="opacity:1" fill="#fefffe" d="M 29.5,59.5 C 34.5,59.5 39.5,59.5 44.5,59.5C 44.5,64.5 44.5,69.5 44.5,74.5C 39.5,74.5 34.5,74.5 29.5,74.5C 29.5,69.5 29.5,64.5 29.5,59.5 Z"/></g>
<g><path style="opacity:1" fill="#edeeed" d="M 44.5,59.5 C 49.5,59.5 54.5,59.5 59.5,59.5C 59.5,64.5 59.5,69.5 59.5,74.5C 54.5,74.5 49.5,74.5 44.5,74.5C 44.5,69.5 44.5,64.5 44.5,59.5 Z"/></g>
<g><path style="opacity:1" fill="#fefffe" d="M 59.5,59.5 C 64.5,59.5 69.5,59.5 74.5,59.5C 74.5,64.5 74.5,69.5 74.5,74.5C 69.5,74.5 64.5,74.5 59.5,74.5C 59.5,69.5 59.5,64.5 59.5,59.5 Z"/></g>
<g><path style="opacity:1" fill="#edeeed" d="M 74.5,59.5 C 79.5,59.5 84.5,59.5 89.5,59.5C 89.5,64.5 89.5,69.5 89.5,74.5C 84.5,74.5 79.5,74.5 74.5,74.5C 74.5,69.5 74.5,64.5 74.5,59.5 Z"/></g>
<g><path style="opacity:1" fill="#edeeed" d="M -0.5,74.5 C 4.5,74.5 9.5,74.5 14.5,74.5C 14.5,79.5 14.5,84.5 14.5,89.5C 9.5,89.5 4.5,89.5 -0.5,89.5C -0.5,84.5 -0.5,79.5 -0.5,74.5 Z"/></g>
<g><path style="opacity:1" fill="#fefffe" d="M 14.5,74.5 C 19.5,74.5 24.5,74.5 29.5,74.5C 29.5,79.5 29.5,84.5 29.5,89.5C 24.5,89.5 19.5,89.5 14.5,89.5C 14.5,84.5 14.5,79.5 14.5,74.5 Z"/></g>
<g><path style="opacity:1" fill="#edeeed" d="M 29.5,74.5 C 34.5,74.5 39.5,74.5 44.5,74.5C 44.5,79.5 44.5,84.5 44.5,89.5C 39.5,89.5 34.5,89.5 29.5,89.5C 29.5,84.5 29.5,79.5 29.5,74.5 Z"/></g>
<g><path style="opacity:1" fill="#fefffe" d="M 44.5,74.5 C 49.5,74.5 54.5,74.5 59.5,74.5C 59.5,79.5 59.5,84.5 59.5,89.5C 54.5,89.5 49.5,89.5 44.5,89.5C 44.5,84.5 44.5,79.5 44.5,74.5 Z"/></g>
<g><path style="opacity:1" fill="#edeeed" d="M 59.5,74.5 C 64.5,74.5 69.5,74.5 74.5,74.5C 74.5,79.5 74.5,84.5 74.5,89.5C 69.5,89.5 64.5,89.5 59.5,89.5C 59.5,84.5 59.5,79.5 59.5,74.5 Z"/></g>
<g><path style="opacity:1" fill="#fefffe" d="M 74.5,74.5 C 79.5,74.5 84.5,74.5 89.5,74.5C 89.5,79.5 89.5,84.5 89.5,89.5C 84.5,89.5 79.5,89.5 74.5,89.5C 74.5,84.5 74.5,79.5 74.5,74.5 Z"/></g>
<g><path style="opacity:1" fill="#fefffe" d="M -0.5,89.5 C 4.5,89.5 9.5,89.5 14.5,89.5C 14.5,94.5 14.5,99.5 14.5,104.5C 9.5,104.5 4.5,104.5 -0.5,104.5C -0.5,99.5 -0.5,94.5 -0.5,89.5 Z"/></g>
<g><path style="opacity:1" fill="#edeeed" d="M 14.5,89.5 C 19.5,89.5 24.5,89.5 29.5,89.5C 29.5,94.5 29.5,99.5 29.5,104.5C 24.5,104.5 19.5,104.5 14.5,104.5C 14.5,99.5 14.5,94.5 14.5,89.5 Z"/></g>
<g><path style="opacity:1" fill="#fefffe" d="M 29.5,89.5 C 34.5,89.5 39.5,89.5 44.5,89.5C 44.5,94.5 44.5,99.5 44.5,104.5C 39.5,104.5 34.5,104.5 29.5,104.5C 29.5,99.5 29.5,94.5 29.5,89.5 Z"/></g>
<g><path style="opacity:1" fill="#edeeed" d="M 44.5,89.5 C 49.5,89.5 54.5,89.5 59.5,89.5C 59.5,94.5 59.5,99.5 59.5,104.5C 54.5,104.5 49.5,104.5 44.5,104.5C 44.5,99.5 44.5,94.5 44.5,89.5 Z"/></g>
<g><path style="opacity:1" fill="#fefffe" d="M 59.5,89.5 C 64.5,89.5 69.5,89.5 74.5,89.5C 74.5,94.5 74.5,99.5 74.5,104.5C 69.5,104.5 64.5,104.5 59.5,104.5C 59.5,99.5 59.5,94.5 59.5,89.5 Z"/></g>
<g><path style="opacity:1" fill="#edeeed" d="M 74.5,89.5 C 79.5,89.5 84.5,89.5 89.5,89.5C 89.5,94.5 89.5,99.5 89.5,104.5C 84.5,104.5 79.5,104.5 74.5,104.5C 74.5,99.5 74.5,94.5 74.5,89.5 Z"/></g>
<g><path style="opacity:1" fill="#edeeed" d="M -0.5,104.5 C 4.5,104.5 9.5,104.5 14.5,104.5C 14.5,109.5 14.5,114.5 14.5,119.5C 9.5,119.5 4.5,119.5 -0.5,119.5C -0.5,114.5 -0.5,109.5 -0.5,104.5 Z"/></g>
<g><path style="opacity:1" fill="#fefffe" d="M 14.5,104.5 C 19.5,104.5 24.5,104.5 29.5,104.5C 29.5,109.5 29.5,114.5 29.5,119.5C 24.5,119.5 19.5,119.5 14.5,119.5C 14.5,114.5 14.5,109.5 14.5,104.5 Z"/></g>
<g><path style="opacity:1" fill="#edeeed" d="M 29.5,104.5 C 34.5,104.5 39.5,104.5 44.5,104.5C 44.5,109.5 44.5,114.5 44.5,119.5C 39.5,119.5 34.5,119.5 29.5,119.5C 29.5,114.5 29.5,109.5 29.5,104.5 Z"/></g>
<g><path style="opacity:1" fill="#fefffe" d="M 44.5,104.5 C 49.5,104.5 54.5,104.5 59.5,104.5C 59.5,109.5 59.5,114.5 59.5,119.5C 54.5,119.5 49.5,119.5 44.5,119.5C 44.5,114.5 44.5,109.5 44.5,104.5 Z"/></g>
<g><path style="opacity:1" fill="#edeeed" d="M 59.5,104.5 C 64.5,104.5 69.5,104.5 74.5,104.5C 74.5,109.5 74.5,114.5 74.5,119.5C 69.5,119.5 64.5,119.5 59.5,119.5C 59.5,114.5 59.5,109.5 59.5,104.5 Z"/></g>
<g><path style="opacity:1" fill="#fefffe" d="M 74.5,104.5 C 79.5,104.5 84.5,104.5 89.5,104.5C 89.5,109.5 89.5,114.5 89.5,119.5C 84.5,119.5 79.5,119.5 74.5,119.5C 74.5,114.5 74.5,109.5 74.5,104.5 Z"/></g>
<g><path style="opacity:1" fill="#fefffe" d="M -0.5,119.5 C 4.5,119.5 9.5,119.5 14.5,119.5C 14.5,124.5 14.5,129.5 14.5,134.5C 9.5,134.5 4.5,134.5 -0.5,134.5C -0.5,129.5 -0.5,124.5 -0.5,119.5 Z"/></g>
<g><path style="opacity:1" fill="#f6f6f6" d="M 104.5,29.5 C 109.5,29.5 114.5,29.5 119.5,29.5C 124.5,29.5 129.5,29.5 134.5,29.5C 139.5,29.5 144.5,29.5 149.5,29.5C 154.5,29.5 159.5,29.5 164.5,29.5C 169.5,29.5 174.5,29.5 179.5,29.5C 184.5,29.5 189.5,29.5 194.5,29.5C 199.5,29.5 204.5,29.5 209.5,29.5C 214.5,29.5 219.5,29.5 224.5,29.5C 229.5,29.5 234.5,29.5 239.5,29.5C 244.5,29.5 249.5,29.5 254.5,29.5C 259.5,29.5 264.5,29.5 269.5,29.5C 274.5,29.5 279.5,29.5 284.5,29.5C 289.5,29.5 294.5,29.5 299.5,29.5C 304.5,29.5 309.5,29.5 314.5,29.5C 319.5,29.5 324.5,29.5 329.5,29.5C 334.5,29.5 339.5,29.5 344.5,29.5C 349.5,29.5 354.5,29.5 359.5,29.5C 359.5,109.5 359.5,189.5 359.5,269.5C 239.5,269.5 119.5,269.5 -0.5,269.5C -0.5,224.5 -0.5,179.5 -0.5,134.5C 4.5,134.5 9.5,134.5 14.5,134.5C 14.5,129.5 14.5,124.5 14.5,119.5C 19.5,119.5 24.5,119.5 29.5,119.5C 34.5,119.5 39.5,119.5 44.5,119.5C 49.5,119.5 54.5,119.5 59.5,119.5C 64.5,119.5 69.5,119.5 74.5,119.5C 79.5,119.5 84.5,119.5 89.5,119.5C 89.5,114.5 89.5,109.5 89.5,104.5C 89.5,99.5 89.5,94.5 89.5,89.5C 89.5,84.5 89.5,79.5 89.5,74.5C 89.5,69.5 89.5,64.5 89.5,59.5C 89.5,54.5 89.5,49.5 89.5,44.5C 94.5,44.5 99.5,44.5 104.5,44.5C 104.5,39.5 104.5,34.5 104.5,29.5 Z"/></g>
<g><path style="opacity:1" fill="#030b0e" d="M 94.5,160.5 C 99.8333,160.5 105.167,160.5 110.5,160.5C 110.5,172.833 110.5,185.167 110.5,197.5C 107.5,197.5 104.5,197.5 101.5,197.5C 101.5,187.5 101.5,177.5 101.5,167.5C 99.1667,167.5 96.8333,167.5 94.5,167.5C 94.5,165.167 94.5,162.833 94.5,160.5 Z"/></g>
<g><path style="opacity:1" fill="#080e11" d="M 72.5,159.5 C 75.8499,159.335 79.1832,159.502 82.5,160C 89.2221,161.109 90.2221,164.109 85.5,169C 83.7215,168.956 82.0548,168.289 80.5,167C 75.4038,165.42 72.2371,167.254 71,172.5C 69.9091,178.097 70.5758,183.43 73,188.5C 76.5464,190.981 80.2131,190.981 84,188.5C 89.1131,192.256 88.6131,195.089 82.5,197C 67.2568,199.596 59.9235,193.096 60.5,177.5C 61.0311,169.004 65.0311,163.004 72.5,159.5 Z"/></g>
<g><path style="opacity:1" fill="#090f11" d="M 31.5,145.5 C 35.5138,145.334 39.5138,145.501 43.5,146C 51.9671,146.758 53.4671,150.258 48,156.5C 43.5202,153.778 38.6869,152.945 33.5,154C 29.4016,157.649 29.7349,160.982 34.5,164C 38.9926,166.079 43.326,168.412 47.5,171C 54.3341,179.318 54.0008,187.318 46.5,195C 38.5265,198.286 30.5265,198.286 22.5,195C 21.3025,191.939 21.8025,189.105 24,186.5C 28.8173,189.267 33.984,190.101 39.5,189C 42.5703,186.431 43.237,183.264 41.5,179.5C 36.8247,176.16 31.8247,173.327 26.5,171C 21.8485,166.464 20.3485,160.964 22,154.5C 23.775,149.888 26.9417,146.888 31.5,145.5 Z"/></g>
<g><path style="opacity:1" fill="#cd2129" d="M 102.5,140.5 C 109.369,140.538 111.869,143.871 110,150.5C 106.333,154.5 102.667,154.5 99,150.5C 97.5812,146.082 98.7478,142.749 102.5,140.5 Z"/></g>
<g><path style="opacity:1" fill="#040e11" d="M 174.5,184.5 C 174.5,186.167 174.5,187.833 174.5,189.5C 172.265,189.205 170.265,189.539 168.5,190.5C 157.646,192.217 153.98,198.217 157.5,208.5C 154.232,209.487 150.898,209.82 147.5,209.5C 147.769,207.571 147.269,205.905 146,204.5C 144.667,205.833 143.333,205.833 142,204.5C 141.5,189.504 141.333,174.504 141.5,159.5C 138.167,159.833 134.833,160.167 131.5,160.5C 131.211,176.868 131.544,193.202 132.5,209.5C 128.5,209.5 124.5,209.5 120.5,209.5C 120.5,158.5 120.5,107.5 120.5,56.5C 192.833,56.5 265.167,56.5 337.5,56.5C 337.5,107.5 337.5,158.5 337.5,209.5C 299.832,209.667 262.165,209.5 224.5,209C 229.554,201.1 230.721,192.6 228,183.5C 223.651,174.827 217.318,172.827 209,177.5C 208.501,171.509 208.334,165.509 208.5,159.5C 205.14,159.616 201.807,159.949 198.5,160.5C 198.667,176.503 198.5,192.503 198,208.5C 193.882,209.798 189.715,209.798 185.5,208.5C 184.695,199.881 184.195,191.215 184,182.5C 181.625,176.806 177.291,174.139 171,174.5C 166.781,174.721 162.781,175.721 159,177.5C 158.547,180.309 159.38,182.642 161.5,184.5C 164.235,183.441 167.069,182.775 170,182.5C 172.008,182.307 173.508,182.974 174.5,184.5 Z"/></g>
<g><path style="opacity:1" fill="#f9f9f9" d="M 243.5,154.5 C 250.486,154.331 252.153,157.164 248.5,163C 241.416,163.475 239.749,160.642 243.5,154.5 Z"/></g>
<g><path style="opacity:1" fill="#f7f7f7" d="M 257.5,148.5 C 264.716,147.688 266.716,150.355 263.5,156.5C 256.793,157.772 254.793,155.105 257.5,148.5 Z"/></g>
<g><path style="opacity:1" fill="#efebee" d="M 229.5,143.5 C 234.835,143.005 237.335,145.338 237,150.5C 234.294,153.978 231.294,154.311 228,151.5C 227.109,148.502 227.609,145.836 229.5,143.5 Z"/></g>
<g><path style="opacity:1" fill="#f1f1f2" d="M 274.5,143.5 C 280.803,143.924 282.469,146.757 279.5,152C 271.208,152.89 269.542,150.057 274.5,143.5 Z"/></g>
<g><path style="opacity:1" fill="#efeff0" d="M 290.5,140.5 C 296.989,140.156 298.989,142.99 296.5,149C 293.49,151.222 290.99,150.722 289,147.5C 288.167,144.829 288.667,142.496 290.5,140.5 Z"/></g>
<g><path style="opacity:1" fill="#ebebeb" d="M 326.5,139.5 C 333.821,140.319 335.154,143.486 330.5,149C 323.075,148.484 321.742,145.318 326.5,139.5 Z"/></g>
<g><path style="opacity:1" fill="#e7e8e8" d="M 307.5,139.5 C 314.997,138.804 316.997,141.637 313.5,148C 305.807,149.143 303.807,146.31 307.5,139.5 Z"/></g>
<g><path style="opacity:1" fill="#f0ebee" d="M 245.5,136.5 C 250.85,135.863 253.017,138.197 252,143.5C 249.048,147.482 246.048,147.482 243,143.5C 242.333,142.167 242.333,140.833 243,139.5C 244.045,138.627 244.878,137.627 245.5,136.5 Z"/></g>
<g><path style="opacity:1" fill="#f1b3c3" d="M 212.5,134.5 C 220.486,133.998 222.486,137.165 218.5,144C 213.594,145.756 210.927,144.089 210.5,139C 210.519,137.167 211.185,135.667 212.5,134.5 Z"/></g>
<g><path style="opacity:1" fill="#f3eef1" d="M 261.5,131.5 C 268.251,131.38 270.251,134.214 267.5,140C 259.749,141.091 257.749,138.258 261.5,131.5 Z"/></g>
<g><path style="opacity:1" fill="#eeeaed" d="M 279.5,127.5 C 285.803,127.924 287.469,130.757 284.5,136C 280.366,138.389 277.7,137.222 276.5,132.5C 276.757,130.308 277.757,128.641 279.5,127.5 Z"/></g>
<g><path style="opacity:1" fill="#e7727e" d="M 193.5,127.5 C 200,126.499 202.5,129.165 201,135.5C 197.255,139.566 193.922,139.233 191,134.5C 190.162,131.519 190.995,129.186 193.5,127.5 Z"/></g>
<g><path style="opacity:1" fill="#cb1823" d="M 142.5,125.5 C 149.091,126.682 150.925,130.349 148,136.5C 142.439,139.803 138.939,138.303 137.5,132C 137.645,128.497 139.312,126.33 142.5,125.5 Z"/></g>
<g><path style="opacity:1" fill="#ede9eb" d="M 315.5,124.5 C 323.045,125.062 324.378,128.229 319.5,134C 313.96,134.443 312.127,131.943 314,126.5C 314.717,125.956 315.217,125.289 315.5,124.5 Z"/></g>
<g><path style="opacity:1" fill="#f4f0f2" d="M 296.5,125.5 C 300.24,124.68 302.573,126.013 303.5,129.5C 303.167,133.989 300.833,135.489 296.5,134C 293.899,131.17 293.899,128.337 296.5,125.5 Z"/></g>
<g><path style="opacity:1" fill="#f0b4c3" d="M 229.5,126.5 C 235.168,125.671 237.668,128.005 237,133.5C 234.294,136.978 231.294,137.311 228,134.5C 227.109,131.502 227.609,128.836 229.5,126.5 Z"/></g>
<g><path style="opacity:1" fill="#d4353d" d="M 170.5,123.5 C 176.33,123.161 178.83,125.827 178,131.5C 174.333,136.833 170.667,136.833 167,131.5C 166.279,127.946 167.446,125.28 170.5,123.5 Z"/></g>
<g><path style="opacity:1" fill="#edb2c1" d="M 247.5,119.5 C 254.297,120.107 255.964,123.274 252.5,129C 244.03,129.531 242.364,126.364 247.5,119.5 Z"/></g>
<g><path style="opacity:1" fill="#e7727e" d="M 211.5,117.5 C 218.488,117.654 220.488,120.82 217.5,127C 211.24,129.412 208.407,127.245 209,120.5C 209.698,119.309 210.531,118.309 211.5,117.5 Z"/></g>
<g><path style="opacity:1" fill="#f0b4c3" d="M 264.5,115.5 C 271.94,114.753 273.94,117.587 270.5,124C 263.188,124.871 261.188,122.038 264.5,115.5 Z"/></g>
<g><path style="opacity:1" fill="#ca1723" d="M 130.5,113.5 C 136.765,113.363 139.265,116.363 138,122.5C 134.287,126.487 130.62,126.487 127,122.5C 125.665,118.392 126.832,115.392 130.5,113.5 Z"/></g>
<g><path style="opacity:1" fill="#edb0be" d="M 284.5,111.5 C 290.758,112.477 292.091,115.644 288.5,121C 284.167,122.489 281.833,120.989 281.5,116.5C 281.771,114.307 282.771,112.641 284.5,111.5 Z"/></g>
<g><path style="opacity:1" fill="#da3840" d="M 189.5,111.5 C 195.665,110.829 198.165,113.496 197,119.5C 193.619,123.485 190.286,123.485 187,119.5C 185.837,116.029 186.67,113.362 189.5,111.5 Z"/></g>
<g><path style="opacity:1" fill="#f2b5c4" d="M 302.5,110.5 C 309.486,110.331 311.153,113.164 307.5,119C 303.229,120.513 300.895,119.013 300.5,114.5C 300.752,112.927 301.418,111.594 302.5,110.5 Z"/></g>
<g><path style="opacity:1" fill="#e36f7b" d="M 230.5,109.5 C 235.813,109.644 237.979,112.31 237,117.5C 232.003,121.891 228.503,120.891 226.5,114.5C 227.16,112.185 228.493,110.519 230.5,109.5 Z"/></g>
<g><path style="opacity:1" fill="#cd1723" d="M 162.5,109.5 C 167.406,108.306 170.406,110.139 171.5,115C 168.891,121.242 165.057,122.075 160,117.5C 159.023,114.183 159.856,111.516 162.5,109.5 Z"/></g>
<g><path style="opacity:1" fill="#e7727f" d="M 249.5,103.5 C 254.325,103.488 256.491,105.821 256,110.5C 253.339,113.966 250.339,114.299 247,111.5C 245.837,108.029 246.67,105.362 249.5,103.5 Z"/></g>
<g><path style="opacity:1" fill="#d5373f" d="M 209.5,101.5 C 216.488,101.654 218.488,104.82 215.5,111C 209.24,113.412 206.407,111.245 207,104.5C 207.698,103.309 208.531,102.309 209.5,101.5 Z"/></g>
<g><path style="opacity:1" fill="#e97380" d="M 268.5,99.5 C 274,98.8314 276.167,101.165 275,106.5C 270.674,110.602 267.508,109.768 265.5,104C 266.315,102.357 267.315,100.857 268.5,99.5 Z"/></g>
<g><path style="opacity:1" fill="#e8727f" d="M 288.5,96.5 C 296.105,97.5873 297.272,100.921 292,106.5C 286.154,105.436 284.987,102.103 288.5,96.5 Z"/></g>
<g><path style="opacity:1" fill="#ce1723" d="M 186.5,95.5 C 195.2,98.8797 195.533,102.88 187.5,107.5C 180.022,103.931 179.689,99.9314 186.5,95.5 Z"/></g>
<g><path style="opacity:1" fill="#c81723" d="M 156.5,94.5 C 162.356,94.854 164.523,97.854 163,103.5C 159.667,107.5 156.333,107.5 153,103.5C 151.665,99.3919 152.832,96.3919 156.5,94.5 Z"/></g>
<g><path style="opacity:1" fill="#d4353d" d="M 230.5,93.5 C 236.733,93.8889 238.566,96.8889 236,102.5C 231.24,105.187 228.074,103.854 226.5,98.5C 227.16,96.1853 228.493,94.5186 230.5,93.5 Z"/></g>
<g><path style="opacity:1" fill="#d83840" d="M 251.5,87.5 C 257.758,88.4774 259.091,91.6441 255.5,97C 251.515,98.3339 248.848,97.0005 247.5,93C 248.036,90.4921 249.369,88.6587 251.5,87.5 Z"/></g>
<g><path style="opacity:1" fill="#c91823" d="M 207.5,85.5 C 214.519,85.7232 216.519,88.8899 213.5,95C 207.24,97.4117 204.407,95.245 205,88.5C 206.045,87.6266 206.878,86.6266 207.5,85.5 Z"/></g>
<g><path style="opacity:1" fill="#d7373e" d="M 273.5,83.5 C 278.151,84.2395 279.651,86.9062 278,91.5C 275.716,93.9845 273.216,94.1511 270.5,92C 268.702,88.1421 269.702,85.3088 273.5,83.5 Z"/></g>
<g><path style="opacity:1" fill="#c91823" d="M 181.5,80.5 C 186.757,80.688 188.924,83.3547 188,88.5C 184.619,92.4851 181.286,92.4851 178,88.5C 176.78,84.7069 177.947,82.0402 181.5,80.5 Z"/></g>
<g><path style="opacity:1" fill="#cc1723" d="M 229.5,78.5 C 236.61,77.9037 238.61,80.7371 235.5,87C 232.49,89.2219 229.99,88.7219 228,85.5C 227.167,82.829 227.667,80.4957 229.5,78.5 Z"/></g>
<g><path style="opacity:1" fill="#cf1824" d="M 252.5,72.5 C 257.665,72.1619 259.831,74.4953 259,79.5C 256.622,82.9297 253.955,83.263 251,80.5C 250.109,77.5024 250.609,74.8357 252.5,72.5 Z"/></g>
<g><path style="opacity:1" fill="#c71823" d="M 205.5,70.5 C 212.628,70.7063 214.294,73.873 210.5,80C 206.168,81.3363 203.501,79.8363 202.5,75.5C 202.757,73.3076 203.757,71.6409 205.5,70.5 Z"/></g>
<g><path style="opacity:1" fill="#c81823" d="M 230.5,62.5 C 236.023,62.5619 237.856,65.2286 236,70.5C 231.742,73.5806 228.909,72.5806 227.5,67.5C 227.757,65.3076 228.757,63.6409 230.5,62.5 Z"/></g>
<g><path style="opacity:1" fill="#070e11" d="M 211.5,182.5 C 214.044,182.104 216.211,182.771 218,184.5C 220,190.833 220,197.167 218,203.5C 215.627,206.302 212.793,206.969 209.5,205.5C 208.336,198.524 208.169,191.524 209,184.5C 209.995,183.934 210.828,183.267 211.5,182.5 Z"/></g>
<g><path style="opacity:1" fill="#828385" d="M 174.5,184.5 C 175.461,186.265 175.795,188.265 175.5,190.5C 173.167,190.5 170.833,190.5 168.5,190.5C 170.265,189.539 172.265,189.205 174.5,189.5C 174.5,187.833 174.5,186.167 174.5,184.5 Z"/></g>
<g><path style="opacity:1" fill="#111617" d="M 168.5,196.5 C 170.833,196.5 173.167,196.5 175.5,196.5C 177.21,204.874 174.043,207.874 166,205.5C 164.779,201.718 165.613,198.718 168.5,196.5 Z"/></g>
</svg>
