<?xml version="1.0" encoding="UTF-8"?>
<!DOCTYPE svg PUBLIC "-//W3C//DTD SVG 1.1//EN" "http://www.w3.org/Graphics/SVG/1.1/DTD/svg11.dtd">
<svg xmlns="http://www.w3.org/2000/svg" version="1.1" width="348px" height="261px" style="shape-rendering:geometricPrecision; text-rendering:geometricPrecision; image-rendering:optimizeQuality; fill-rule:evenodd; clip-rule:evenodd" xmlns:xlink="http://www.w3.org/1999/xlink">
<g><path style="opacity:1" fill="#fefffe" d="M -0.5,-0.5 C 4.5,-0.5 9.5,-0.5 14.5,-0.5C 14.5,4.5 14.5,9.5 14.5,14.5C 9.5,14.5 4.5,14.5 -0.5,14.5C -0.5,9.5 -0.5,4.5 -0.5,-0.5 Z"/></g>
<g><path style="opacity:1" fill="#edeeed" d="M 14.5,-0.5 C 19.5,-0.5 24.5,-0.5 29.5,-0.5C 29.5,4.5 29.5,9.5 29.5,14.5C 24.5,14.5 19.5,14.5 14.5,14.5C 14.5,9.5 14.5,4.5 14.5,-0.5 Z"/></g>
<g><path style="opacity:1" fill="#fefffe" d="M 29.5,-0.5 C 34.5,-0.5 39.5,-0.5 44.5,-0.5C 44.5,4.5 44.5,9.5 44.5,14.5C 39.5,14.5 34.5,14.5 29.5,14.5C 29.5,9.5 29.5,4.5 29.5,-0.5 Z"/></g>
<g><path style="opacity:1" fill="#edeeed" d="M 44.5,-0.5 C 49.5,-0.5 54.5,-0.5 59.5,-0.5C 59.5,4.5 59.5,9.5 59.5,14.5C 54.5,14.5 49.5,14.5 44.5,14.5C 44.5,9.5 44.5,4.5 44.5,-0.5 Z"/></g>
<g><path style="opacity:1" fill="#fefffe" d="M 59.5,-0.5 C 64.5,-0.5 69.5,-0.5 74.5,-0.5C 74.5,4.5 74.5,9.5 74.5,14.5C 69.5,14.5 64.5,14.5 59.5,14.5C 59.5,9.5 59.5,4.5 59.5,-0.5 Z"/></g>
<g><path style="opacity:1" fill="#edeeed" d="M 74.5,-0.5 C 79.5,-0.5 84.5,-0.5 89.5,-0.5C 89.5,4.5 89.5,9.5 89.5,14.5C 84.5,14.5 79.5,14.5 74.5,14.5C 74.5,9.5 74.5,4.5 74.5,-0.5 Z"/></g>
<g><path style="opacity:1" fill="#fefffe" d="M 89.5,-0.5 C 94.5,-0.5 99.5,-0.5 104.5,-0.5C 104.5,4.5 104.5,9.5 104.5,14.5C 99.5,14.5 94.5,14.5 89.5,14.5C 89.5,9.5 89.5,4.5 89.5,-0.5 Z"/></g>
<g><path style="opacity:1" fill="#edeeed" d="M 104.5,-0.5 C 109.5,-0.5 114.5,-0.5 119.5,-0.5C 119.5,4.5 119.5,9.5 119.5,14.5C 114.5,14.5 109.5,14.5 104.5,14.5C 104.5,9.5 104.5,4.5 104.5,-0.5 Z"/></g>
<g><path style="opacity:1" fill="#fdfdfd" d="M 179.5,-0.5 C 184.5,-0.5 189.5,-0.5 194.5,-0.5C 194.5,4.5 194.5,9.5 194.5,14.5C 199.5,14.5 204.5,14.5 209.5,14.5C 209.815,18.3714 209.482,22.0381 208.5,25.5C 198.935,22.0509 189.601,18.0509 180.5,13.5C 179.559,8.92963 179.226,4.26296 179.5,-0.5 Z"/></g>
<g><path style="opacity:1" fill="#edeeed" d="M 194.5,-0.5 C 199.5,-0.5 204.5,-0.5 209.5,-0.5C 209.5,4.5 209.5,9.5 209.5,14.5C 204.5,14.5 199.5,14.5 194.5,14.5C 194.5,9.5 194.5,4.5 194.5,-0.5 Z"/></g>
<g><path style="opacity:1" fill="#fefffe" d="M 209.5,-0.5 C 214.5,-0.5 219.5,-0.5 224.5,-0.5C 224.5,4.5 224.5,9.5 224.5,14.5C 219.5,14.5 214.5,14.5 209.5,14.5C 209.5,9.5 209.5,4.5 209.5,-0.5 Z"/></g>
<g><path style="opacity:1" fill="#edeeed" d="M 224.5,-0.5 C 229.5,-0.5 234.5,-0.5 239.5,-0.5C 239.5,4.5 239.5,9.5 239.5,14.5C 234.5,14.5 229.5,14.5 224.5,14.5C 224.5,9.5 224.5,4.5 224.5,-0.5 Z"/></g>
<g><path style="opacity:1" fill="#fefffe" d="M 239.5,-0.5 C 244.5,-0.5 249.5,-0.5 254.5,-0.5C 254.5,4.5 254.5,9.5 254.5,14.5C 249.5,14.5 244.5,14.5 239.5,14.5C 239.5,9.5 239.5,4.5 239.5,-0.5 Z"/></g>
<g><path style="opacity:1" fill="#edeeed" d="M 254.5,-0.5 C 259.5,-0.5 264.5,-0.5 269.5,-0.5C 269.5,4.5 269.5,9.5 269.5,14.5C 264.5,14.5 259.5,14.5 254.5,14.5C 254.5,9.5 254.5,4.5 254.5,-0.5 Z"/></g>
<g><path style="opacity:1" fill="#fefffe" d="M 269.5,-0.5 C 274.5,-0.5 279.5,-0.5 284.5,-0.5C 284.5,4.5 284.5,9.5 284.5,14.5C 279.5,14.5 274.5,14.5 269.5,14.5C 269.5,9.5 269.5,4.5 269.5,-0.5 Z"/></g>
<g><path style="opacity:1" fill="#edeeed" d="M 284.5,-0.5 C 289.5,-0.5 294.5,-0.5 299.5,-0.5C 299.5,4.5 299.5,9.5 299.5,14.5C 294.5,14.5 289.5,14.5 284.5,14.5C 284.5,9.5 284.5,4.5 284.5,-0.5 Z"/></g>
<g><path style="opacity:1" fill="#fefffe" d="M 299.5,-0.5 C 304.5,-0.5 309.5,-0.5 314.5,-0.5C 314.5,4.5 314.5,9.5 314.5,14.5C 309.5,14.5 304.5,14.5 299.5,14.5C 299.5,9.5 299.5,4.5 299.5,-0.5 Z"/></g>
<g><path style="opacity:1" fill="#f8f8f8" d="M 314.5,-0.5 C 325.5,-0.5 336.5,-0.5 347.5,-0.5C 347.5,79.5 347.5,159.5 347.5,239.5C 346.5,239.5 345.5,239.5 344.5,239.5C 344.5,234.5 344.5,229.5 344.5,224.5C 339.5,224.5 334.5,224.5 329.5,224.5C 329.5,219.5 329.5,214.5 329.5,209.5C 334.5,209.5 339.5,209.5 344.5,209.5C 344.5,204.5 344.5,199.5 344.5,194.5C 339.5,194.5 334.5,194.5 329.5,194.5C 329.5,184.5 329.5,174.5 329.5,164.5C 329.5,159.5 329.5,154.5 329.5,149.5C 334.5,149.5 339.5,149.5 344.5,149.5C 344.5,144.5 344.5,139.5 344.5,134.5C 339.5,134.5 334.5,134.5 329.5,134.5C 329.5,129.5 329.5,124.5 329.5,119.5C 334.5,119.5 339.5,119.5 344.5,119.5C 344.5,114.5 344.5,109.5 344.5,104.5C 339.5,104.5 334.5,104.5 329.5,104.5C 329.5,99.5 329.5,94.5 329.5,89.5C 324.5,89.5 319.5,89.5 314.5,89.5C 314.5,84.5 314.5,79.5 314.5,74.5C 314.5,69.5 314.5,64.5 314.5,59.5C 314.5,54.5 314.5,49.5 314.5,44.5C 314.5,39.5 314.5,34.5 314.5,29.5C 314.5,24.5 314.5,19.5 314.5,14.5C 314.5,9.5 314.5,4.5 314.5,-0.5 Z"/></g>
<g><path style="opacity:1" fill="#d3e6fb" d="M 180.5,13.5 C 189.601,18.0509 198.935,22.0509 208.5,25.5C 218.588,30.537 228.921,35.2037 239.5,39.5C 244.105,42.1461 249.105,43.8127 254.5,44.5C 255.244,48.1185 255.577,51.7852 255.5,55.5C 255.167,55.5 254.833,55.5 254.5,55.5C 254.167,55.5 253.833,55.5 253.5,55.5C 253.5,53.8333 253.5,52.1667 253.5,50.5C 252.041,50.4326 250.708,50.7659 249.5,51.5C 249.217,50.7109 248.717,50.0442 248,49.5C 241.926,53.0913 235.759,56.4246 229.5,59.5C 228.732,58.7375 228.232,57.7375 228,56.5C 227.086,60.1851 226.419,59.8518 226,55.5C 225.581,59.8518 224.914,60.1851 224,56.5C 223.333,60.5 222.667,60.5 222,56.5C 221.641,59.5443 220.974,59.8776 220,57.5C 218.97,60.2572 217.303,61.5905 215,61.5C 213.812,60.4366 213.312,59.1033 213.5,57.5C 219.284,55.4015 224.617,52.4015 229.5,48.5C 230.59,47.3914 230.59,46.3914 229.5,45.5C 204.964,34.1034 180.297,23.1034 155.5,12.5C 147.279,16.1102 138.946,19.4435 130.5,22.5C 128.595,21.5358 127.595,19.8691 127.5,17.5C 129.8,15.016 132.467,13.016 135.5,11.5C 141.626,8.27226 147.96,5.27226 154.5,2.5C 163.183,6.17619 171.85,9.84285 180.5,13.5 Z"/></g>
<g><path style="opacity:1" fill="#e5effb" d="M 135.5,11.5 C 132.467,13.016 129.8,15.016 127.5,17.5C 127.595,19.8691 128.595,21.5358 130.5,22.5C 122.625,27.248 114.291,31.248 105.5,34.5C 103.438,34.5618 101.272,34.5618 99,34.5C 98.082,36.6324 96.7487,37.299 95,36.5C 93.8563,38.9171 92.1897,39.5838 90,38.5C 89.6758,40.5689 88.8425,40.9023 87.5,39.5C 85.6179,41.6082 83.2846,42.9415 80.5,43.5C 78.5749,43.4096 77.4083,42.4096 77,40.5C 75.8162,42.6538 74.6496,42.3205 73.5,39.5C 93.6327,29.1025 114.299,19.7691 135.5,11.5 Z"/></g>
<g><path style="opacity:1" fill="#edeeed" d="M -0.5,14.5 C 4.5,14.5 9.5,14.5 14.5,14.5C 14.5,19.5 14.5,24.5 14.5,29.5C 9.5,29.5 4.5,29.5 -0.5,29.5C -0.5,24.5 -0.5,19.5 -0.5,14.5 Z"/></g>
<g><path style="opacity:1" fill="#fefffe" d="M 14.5,14.5 C 19.5,14.5 24.5,14.5 29.5,14.5C 29.5,19.5 29.5,24.5 29.5,29.5C 24.5,29.5 19.5,29.5 14.5,29.5C 14.5,24.5 14.5,19.5 14.5,14.5 Z"/></g>
<g><path style="opacity:1" fill="#edeeed" d="M 29.5,14.5 C 34.5,14.5 39.5,14.5 44.5,14.5C 44.5,19.5 44.5,24.5 44.5,29.5C 39.5,29.5 34.5,29.5 29.5,29.5C 29.5,24.5 29.5,19.5 29.5,14.5 Z"/></g>
<g><path style="opacity:1" fill="#fefffe" d="M 44.5,14.5 C 49.5,14.5 54.5,14.5 59.5,14.5C 59.5,19.5 59.5,24.5 59.5,29.5C 54.5,29.5 49.5,29.5 44.5,29.5C 44.5,24.5 44.5,19.5 44.5,14.5 Z"/></g>
<g><path style="opacity:1" fill="#19345f" d="M 155.5,12.5 C 179.651,24.4079 203.985,36.0746 228.5,47.5C 209.937,58.2744 191.604,69.2744 173.5,80.5C 167.062,83.553 160.729,86.8863 154.5,90.5C 132.274,77.5564 109.941,64.8897 87.5,52.5C 85.0734,50.4424 82.4068,48.6091 79.5,47C 88.0403,42.5631 96.707,38.3965 105.5,34.5C 114.291,31.248 122.625,27.248 130.5,22.5C 138.946,19.4435 147.279,16.1102 155.5,12.5 Z"/></g>
<g><path style="opacity:1" fill="#ededed" d="M 209.5,14.5 C 214.5,14.5 219.5,14.5 224.5,14.5C 224.5,19.5 224.5,24.5 224.5,29.5C 229.5,29.5 234.5,29.5 239.5,29.5C 239.5,32.8333 239.5,36.1667 239.5,39.5C 228.921,35.2037 218.588,30.537 208.5,25.5C 209.482,22.0381 209.815,18.3714 209.5,14.5 Z"/></g>
<g><path style="opacity:1" fill="#fefffe" d="M 224.5,14.5 C 229.5,14.5 234.5,14.5 239.5,14.5C 239.5,19.5 239.5,24.5 239.5,29.5C 234.5,29.5 229.5,29.5 224.5,29.5C 224.5,24.5 224.5,19.5 224.5,14.5 Z"/></g>
<g><path style="opacity:1" fill="#edeeed" d="M 239.5,14.5 C 244.5,14.5 249.5,14.5 254.5,14.5C 254.5,19.5 254.5,24.5 254.5,29.5C 249.5,29.5 244.5,29.5 239.5,29.5C 239.5,24.5 239.5,19.5 239.5,14.5 Z"/></g>
<g><path style="opacity:1" fill="#fefffe" d="M 254.5,14.5 C 259.5,14.5 264.5,14.5 269.5,14.5C 269.5,19.5 269.5,24.5 269.5,29.5C 264.5,29.5 259.5,29.5 254.5,29.5C 254.5,24.5 254.5,19.5 254.5,14.5 Z"/></g>
<g><path style="opacity:1" fill="#edeeed" d="M 269.5,14.5 C 274.5,14.5 279.5,14.5 284.5,14.5C 284.5,19.5 284.5,24.5 284.5,29.5C 279.5,29.5 274.5,29.5 269.5,29.5C 269.5,24.5 269.5,19.5 269.5,14.5 Z"/></g>
<g><path style="opacity:1" fill="#fefffe" d="M 284.5,14.5 C 289.5,14.5 294.5,14.5 299.5,14.5C 299.5,19.5 299.5,24.5 299.5,29.5C 294.5,29.5 289.5,29.5 284.5,29.5C 284.5,24.5 284.5,19.5 284.5,14.5 Z"/></g>
<g><path style="opacity:1" fill="#edeeed" d="M 299.5,14.5 C 304.5,14.5 309.5,14.5 314.5,14.5C 314.5,19.5 314.5,24.5 314.5,29.5C 309.5,29.5 304.5,29.5 299.5,29.5C 299.5,24.5 299.5,19.5 299.5,14.5 Z"/></g>
<g><path style="opacity:1" fill="#f1f1f5" d="M 151.5,20.5 C 155.049,20.4392 158.382,21.2725 161.5,23C 178.923,30.8773 196.257,39.0439 213.5,47.5C 193.997,59.086 174.33,70.4194 154.5,81.5C 134.67,70.4194 115.003,59.086 95.5,47.5C 114.305,38.4723 132.971,29.4723 151.5,20.5 Z"/></g>
<g><path style="opacity:1" fill="#fefffe" d="M -0.5,29.5 C 4.5,29.5 9.5,29.5 14.5,29.5C 14.5,34.5 14.5,39.5 14.5,44.5C 9.5,44.5 4.5,44.5 -0.5,44.5C -0.5,39.5 -0.5,34.5 -0.5,29.5 Z"/></g>
<g><path style="opacity:1" fill="#edeeed" d="M 14.5,29.5 C 19.5,29.5 24.5,29.5 29.5,29.5C 29.5,34.5 29.5,39.5 29.5,44.5C 24.5,44.5 19.5,44.5 14.5,44.5C 14.5,39.5 14.5,34.5 14.5,29.5 Z"/></g>
<g><path style="opacity:1" fill="#fdfdfd" d="M 239.5,29.5 C 244.5,29.5 249.5,29.5 254.5,29.5C 254.5,34.5 254.5,39.5 254.5,44.5C 249.105,43.8127 244.105,42.1461 239.5,39.5C 239.5,36.1667 239.5,32.8333 239.5,29.5 Z"/></g>
<g><path style="opacity:1" fill="#edeeed" d="M 254.5,29.5 C 259.5,29.5 264.5,29.5 269.5,29.5C 269.5,34.5 269.5,39.5 269.5,44.5C 264.5,44.5 259.5,44.5 254.5,44.5C 254.5,39.5 254.5,34.5 254.5,29.5 Z"/></g>
<g><path style="opacity:1" fill="#fefffe" d="M 269.5,29.5 C 274.5,29.5 279.5,29.5 284.5,29.5C 284.5,34.5 284.5,39.5 284.5,44.5C 279.5,44.5 274.5,44.5 269.5,44.5C 269.5,39.5 269.5,34.5 269.5,29.5 Z"/></g>
<g><path style="opacity:1" fill="#edeeed" d="M 284.5,29.5 C 289.5,29.5 294.5,29.5 299.5,29.5C 299.5,34.5 299.5,39.5 299.5,44.5C 294.5,44.5 289.5,44.5 284.5,44.5C 284.5,39.5 284.5,34.5 284.5,29.5 Z"/></g>
<g><path style="opacity:1" fill="#fefffe" d="M 299.5,29.5 C 304.5,29.5 309.5,29.5 314.5,29.5C 314.5,34.5 314.5,39.5 314.5,44.5C 309.5,44.5 304.5,44.5 299.5,44.5C 299.5,39.5 299.5,34.5 299.5,29.5 Z"/></g>
<g><path style="opacity:1" fill="#1a3862" d="M 133.5,52.5 C 133.938,52.4346 134.272,52.6012 134.5,53C 133.128,54.2419 132.128,55.7419 131.5,57.5C 133.888,57.7325 135.388,59.3992 136,62.5C 136.333,61.8333 136.667,61.1667 137,60.5C 138.993,61.1468 140.659,62.8134 142,65.5C 142.667,64.8333 143.333,64.1667 144,63.5C 145.655,66.153 147.655,68.4864 150,70.5C 150.333,69.8333 150.667,69.1667 151,68.5C 151.84,71.4637 152.84,71.797 154,69.5C 154.569,73.3605 155.402,73.3605 156.5,69.5C 158.145,70.6963 159.811,71.6963 161.5,72.5C 159.031,73.5686 156.698,74.9019 154.5,76.5C 137.5,67 120.5,57.5 103.5,48C 113.649,42.7596 123.983,37.7596 134.5,33C 137.853,32.7841 140.853,33.7841 143.5,36C 137.167,42.3333 130.833,48.6667 124.5,55C 127.423,54.2242 130.423,53.3908 133.5,52.5 Z"/></g>
<g><path style="opacity:1" fill="#1b3863" d="M 153.5,23.5 C 171.159,30.9974 188.493,39.1641 205.5,48C 194.96,54.0341 184.293,59.8675 173.5,65.5C 170.212,63.5718 166.879,61.7385 163.5,60C 169.167,53 174.833,46 180.5,39C 173.763,40.9726 167.096,43.4726 160.5,46.5C 160.167,46.3333 159.833,46.1667 159.5,46C 163.8,42.0267 167.134,37.86 169.5,33.5C 159.572,37.8592 149.572,41.6925 139.5,45C 142.833,41.6667 146.167,38.3333 149.5,35C 146.371,33.6012 143.371,31.9345 140.5,30C 145.173,28.3301 149.507,26.1634 153.5,23.5 Z"/></g>
<g><path style="opacity:1" fill="#f3f4f5" d="M 119.5,-0.5 C 139.5,-0.5 159.5,-0.5 179.5,-0.5C 179.226,4.26296 179.559,8.92963 180.5,13.5C 171.85,9.84285 163.183,6.17619 154.5,2.5C 147.96,5.27226 141.626,8.27226 135.5,11.5C 114.299,19.7691 93.6327,29.1025 73.5,39.5C 74.6496,42.3205 75.8162,42.6538 77,40.5C 77.4083,42.4096 78.5749,43.4096 80.5,43.5C 83.2846,42.9415 85.6179,41.6082 87.5,39.5C 88.8425,40.9023 89.6758,40.5689 90,38.5C 92.1897,39.5838 93.8563,38.9171 95,36.5C 96.7487,37.299 98.082,36.6324 99,34.5C 101.272,34.5618 103.438,34.5618 105.5,34.5C 96.707,38.3965 88.0403,42.5631 79.5,47C 82.4068,48.6091 85.0734,50.4424 87.5,52.5C 88.8686,54.6472 91.202,56.4806 94.5,58C 93.7734,59.3988 93.2734,60.8988 93,62.5C 92.0196,60.7406 91.353,59.0739 91,57.5C 89.2087,59.5127 87.8753,59.5127 87,57.5C 86.0855,61.1851 85.4189,60.8518 85,56.5C 84.6667,57.5 84.3333,58.5 84,59.5C 83.276,57.0411 81.9427,56.0411 80,56.5C 79.3333,52.5 78.6667,52.5 78,56.5C 76.6667,52.5 75.3333,52.5 74,56.5C 73.6411,53.4557 72.9745,53.1224 72,55.5C 68.8324,53.2485 65.4991,51.2485 62,49.5C 60.7913,49.6526 59.6246,49.9859 58.5,50.5C 57.2132,51.8714 56.5465,53.7047 56.5,56C 57.1252,64.6706 57.7919,73.3372 58.5,82C 57.7187,84.7477 57.8854,87.2477 59,89.5C 59.7415,92.562 59.5748,95.562 58.5,98.5C 60.5732,103.189 60.9065,107.856 59.5,112.5C 59.4155,109.706 59.0822,107.206 58.5,105C 53.8452,104.501 49.1785,104.334 44.5,104.5C 44.5,99.5 44.5,94.5 44.5,89.5C 39.5,89.5 34.5,89.5 29.5,89.5C 29.5,84.5 29.5,79.5 29.5,74.5C 34.5,74.5 39.5,74.5 44.5,74.5C 44.5,69.5 44.5,64.5 44.5,59.5C 47.8333,59.5 51.1667,59.5 54.5,59.5C 54.5489,56.6257 54.2156,53.7923 53.5,51C 53.5832,48.6669 54.5832,46.8335 56.5,45.5C 52.5546,44.5091 48.5546,44.1758 44.5,44.5C 44.5,39.5 44.5,34.5 44.5,29.5C 49.5,29.5 54.5,29.5 59.5,29.5C 59.5,24.5 59.5,19.5 59.5,14.5C 64.5,14.5 69.5,14.5 74.5,14.5C 79.5,14.5 84.5,14.5 89.5,14.5C 94.5,14.5 99.5,14.5 104.5,14.5C 109.5,14.5 114.5,14.5 119.5,14.5C 119.5,9.5 119.5,4.5 119.5,-0.5 Z"/></g>
<g><path style="opacity:1" fill="#edeeed" d="M -0.5,44.5 C 4.5,44.5 9.5,44.5 14.5,44.5C 14.5,49.5 14.5,54.5 14.5,59.5C 9.5,59.5 4.5,59.5 -0.5,59.5C -0.5,54.5 -0.5,49.5 -0.5,44.5 Z"/></g>
<g><path style="opacity:1" fill="#f6f6f6" d="M 29.5,29.5 C 34.5,29.5 39.5,29.5 44.5,29.5C 44.5,34.5 44.5,39.5 44.5,44.5C 48.5546,44.1758 52.5546,44.5091 56.5,45.5C 54.5832,46.8335 53.5832,48.6669 53.5,51C 54.2156,53.7923 54.5489,56.6257 54.5,59.5C 51.1667,59.5 47.8333,59.5 44.5,59.5C 44.5,64.5 44.5,69.5 44.5,74.5C 39.5,74.5 34.5,74.5 29.5,74.5C 29.5,79.5 29.5,84.5 29.5,89.5C 34.5,89.5 39.5,89.5 44.5,89.5C 44.5,94.5 44.5,99.5 44.5,104.5C 49.1785,104.334 53.8452,104.501 58.5,105C 59.0822,107.206 59.4155,109.706 59.5,112.5C 59.5,112.833 59.5,113.167 59.5,113.5C 59.8897,121.12 60.8897,128.62 62.5,136C 62.6563,137.67 61.9896,139.337 60.5,141C 61.1852,143.795 61.6852,146.628 62,149.5C 62.3333,149.167 62.6667,148.833 63,148.5C 64.0086,150.025 64.5086,151.692 64.5,153.5C 63.7784,153.082 63.2784,152.416 63,151.5C 62.862,155.663 63.6953,159.663 65.5,163.5C 62.2027,164.142 61.8693,165.309 64.5,167C 63.8333,167.333 63.1667,167.667 62.5,168C 64.6324,168.918 65.299,170.251 64.5,172C 66.6324,172.918 67.299,174.251 66.5,176C 69.1667,176.667 69.1667,177.333 66.5,178C 69.0627,179.079 71.7294,179.579 74.5,179.5C 74.5,179.833 74.5,180.167 74.5,180.5C 73.6855,187.826 76.6855,192.66 83.5,195C 86.5645,197.922 88.8978,201.922 90.5,207C 89.1667,207.667 89.1667,208.333 90.5,209C 85.1771,209.499 79.8437,209.666 74.5,209.5C 74.5,214.5 74.5,219.5 74.5,224.5C 79.5,224.5 84.5,224.5 89.5,224.5C 89.5,229.5 89.5,234.5 89.5,239.5C 89.5,244.5 89.5,249.5 89.5,254.5C 84.5,254.5 79.5,254.5 74.5,254.5C 74.5,249.5 74.5,244.5 74.5,239.5C 69.5,239.5 64.5,239.5 59.5,239.5C 59.5,244.5 59.5,249.5 59.5,254.5C 54.5,254.5 49.5,254.5 44.5,254.5C 44.5,249.5 44.5,244.5 44.5,239.5C 39.5,239.5 34.5,239.5 29.5,239.5C 29.5,234.5 29.5,229.5 29.5,224.5C 24.5,224.5 19.5,224.5 14.5,224.5C 14.5,219.5 14.5,214.5 14.5,209.5C 14.5,204.5 14.5,199.5 14.5,194.5C 14.5,189.5 14.5,184.5 14.5,179.5C 14.5,174.5 14.5,169.5 14.5,164.5C 14.5,159.5 14.5,154.5 14.5,149.5C 14.5,144.5 14.5,139.5 14.5,134.5C 14.5,129.5 14.5,124.5 14.5,119.5C 14.5,114.5 14.5,109.5 14.5,104.5C 14.5,99.5 14.5,94.5 14.5,89.5C 14.5,84.5 14.5,79.5 14.5,74.5C 14.5,69.5 14.5,64.5 14.5,59.5C 14.5,54.5 14.5,49.5 14.5,44.5C 19.5,44.5 24.5,44.5 29.5,44.5C 29.5,39.5 29.5,34.5 29.5,29.5 Z"/></g>
<g><path style="opacity:1" fill="#fefefe" d="M 254.5,44.5 C 259.5,44.5 264.5,44.5 269.5,44.5C 269.5,49.5 269.5,54.5 269.5,59.5C 264.833,59.5 260.167,59.5 255.5,59.5C 255.5,58.1667 255.5,56.8333 255.5,55.5C 255.577,51.7852 255.244,48.1185 254.5,44.5 Z"/></g>
<g><path style="opacity:1" fill="#edeeed" d="M 269.5,44.5 C 274.5,44.5 279.5,44.5 284.5,44.5C 284.5,49.5 284.5,54.5 284.5,59.5C 279.5,59.5 274.5,59.5 269.5,59.5C 269.5,54.5 269.5,49.5 269.5,44.5 Z"/></g>
<g><path style="opacity:1" fill="#fefffe" d="M 284.5,44.5 C 289.5,44.5 294.5,44.5 299.5,44.5C 299.5,49.5 299.5,54.5 299.5,59.5C 294.5,59.5 289.5,59.5 284.5,59.5C 284.5,54.5 284.5,49.5 284.5,44.5 Z"/></g>
<g><path style="opacity:1" fill="#edeeed" d="M 299.5,44.5 C 304.5,44.5 309.5,44.5 314.5,44.5C 314.5,49.5 314.5,54.5 314.5,59.5C 309.5,59.5 304.5,59.5 299.5,59.5C 299.5,54.5 299.5,49.5 299.5,44.5 Z"/></g>
<g><path style="opacity:1" fill="#24416b" d="M 161.5,72.5 C 159.811,71.6963 158.145,70.6963 156.5,69.5C 155.402,73.3605 154.569,73.3605 154,69.5C 152.84,71.797 151.84,71.4637 151,68.5C 150.667,69.1667 150.333,69.8333 150,70.5C 147.655,68.4864 145.655,66.153 144,63.5C 143.333,64.1667 142.667,64.8333 142,65.5C 140.659,62.8134 138.993,61.1468 137,60.5C 136.667,61.1667 136.333,61.8333 136,62.5C 135.388,59.3992 133.888,57.7325 131.5,57.5C 132.128,55.7419 133.128,54.2419 134.5,53C 134.272,52.6012 133.938,52.4346 133.5,52.5C 141.185,48.489 149.185,45.3223 157.5,43C 154.167,47 150.833,51 147.5,55C 147.833,55.1667 148.167,55.3333 148.5,55.5C 154.948,52.0963 161.615,49.5963 168.5,48C 164.833,52.3333 161.167,56.6667 157.5,61C 161.5,63.3333 165.5,65.6667 169.5,68C 166.644,69.2587 163.977,70.7587 161.5,72.5 Z"/></g>
<g><path style="opacity:1" fill="#fbfbfc" d="M 58.5,50.5 C 59.6246,49.9859 60.7913,49.6526 62,49.5C 65.4991,51.2485 68.8324,53.2485 72,55.5C 72.9745,53.1224 73.6411,53.4557 74,56.5C 75.3333,52.5 76.6667,52.5 78,56.5C 78.6667,52.5 79.3333,52.5 80,56.5C 81.9427,56.0411 83.276,57.0411 84,59.5C 84.3333,58.5 84.6667,57.5 85,56.5C 85.4189,60.8518 86.0855,61.1851 87,57.5C 87.8753,59.5127 89.2087,59.5127 91,57.5C 91.353,59.0739 92.0196,60.7406 93,62.5C 93.2734,60.8988 93.7734,59.3988 94.5,58C 91.202,56.4806 88.8686,54.6472 87.5,52.5C 109.941,64.8897 132.274,77.5564 154.5,90.5C 160.729,86.8863 167.062,83.553 173.5,80.5C 173.938,80.4346 174.272,80.6012 174.5,81C 171.772,81.6389 171.272,82.8056 173,84.5C 174.16,82.203 175.16,82.5363 176,85.5C 177,83.8333 178,82.1667 179,80.5C 180.333,83.1667 181.667,83.1667 183,80.5C 185.096,81.7155 184.929,82.5488 182.5,83C 183.667,83.5 184.5,84.3333 185,85.5C 186.298,81.6923 188.298,80.6923 191,82.5C 192.74,81.2842 193.74,79.6175 194,77.5C 194.914,81.1851 195.581,80.8518 196,76.5C 196.359,79.5443 197.026,79.8776 198,77.5C 199.943,77.9589 201.276,76.9589 202,74.5C 211.351,71.2166 220.518,66.2166 229.5,59.5C 235.759,56.4246 241.926,53.0913 248,49.5C 248.717,50.0442 249.217,50.7109 249.5,51.5C 218.861,70.1555 188.195,88.8222 157.5,107.5C 156.5,132.491 156.167,157.491 156.5,182.5C 155.669,194.326 155.169,206.326 155,218.5C 153.92,216.447 153.086,214.28 152.5,212C 152.819,191.679 153.153,170.679 153.5,149C 152.676,135.242 152.176,121.408 152,107.5C 137.43,98.1288 122.597,89.1288 107.5,80.5C 94.8188,72.8107 82.1522,65.144 69.5,57.5C 65.6641,55.4164 61.9974,53.083 58.5,50.5 Z"/></g>
<g><path style="opacity:1" fill="#c5c8d6" d="M 58.5,50.5 C 61.9974,53.083 65.6641,55.4164 69.5,57.5C 69.631,58.2389 69.4643,58.9056 69,59.5C 68.2825,58.5494 67.4491,58.3828 66.5,59C 69.6545,59.9814 69.9878,61.3148 67.5,63C 68.5,64 69.5,65 70.5,66C 68.3498,67.1923 67.6832,68.6923 68.5,70.5C 67.8401,71.964 67.5068,73.6307 67.5,75.5C 68.4588,89.1745 69.4588,102.841 70.5,116.5C 68.6062,118.632 67.1062,117.966 66,114.5C 65,115.5 64,116.5 63,117.5C 62.0513,115.907 60.8846,114.574 59.5,113.5C 59.5,113.167 59.5,112.833 59.5,112.5C 60.9065,107.856 60.5732,103.189 58.5,98.5C 59.5748,95.562 59.7415,92.562 59,89.5C 57.8854,87.2477 57.7187,84.7477 58.5,82C 57.7919,73.3372 57.1252,64.6706 56.5,56C 56.5465,53.7047 57.2132,51.8714 58.5,50.5 Z"/></g>
<g><path style="opacity:1" fill="#4d6ea7" d="M 253.5,55.5 C 253.108,57.1789 252.608,58.8455 252,60.5C 251.667,59.5 251.333,58.5 251,57.5C 250.175,59.7008 250.675,61.5341 252.5,63C 251.971,65.4286 250.637,67.2619 248.5,68.5C 248.946,70.3682 249.279,72.2015 249.5,74C 248.747,75.487 247.914,75.6537 247,74.5C 246.28,76.1124 246.446,77.6124 247.5,79C 246.747,80.487 245.914,80.6537 245,79.5C 243.908,82.0444 243.241,84.7111 243,87.5C 242.821,83.9748 242.321,80.6414 241.5,77.5C 241.663,75.1432 241.497,72.8098 241,70.5C 216.831,85.5838 192.831,100.917 169,116.5C 168.501,122.491 168.334,128.491 168.5,134.5C 167.813,145.372 167.146,156.372 166.5,167.5C 167.215,169.84 167.548,172.34 167.5,175C 165.606,176.079 165.273,177.413 166.5,179C 164.224,180.156 161.891,181.49 159.5,183C 160.591,185.064 160.758,187.231 160,189.5C 159.743,187.705 159.077,185.705 158,183.5C 157.828,189.681 157.328,195.681 156.5,201.5C 156.5,195.167 156.5,188.833 156.5,182.5C 156.167,157.491 156.5,132.491 157.5,107.5C 188.195,88.8222 218.861,70.1555 249.5,51.5C 250.708,50.7659 252.041,50.4326 253.5,50.5C 253.5,52.1667 253.5,53.8333 253.5,55.5 Z"/></g>
<g><path style="opacity:1" fill="#fefffe" d="M -0.5,59.5 C 4.5,59.5 9.5,59.5 14.5,59.5C 14.5,64.5 14.5,69.5 14.5,74.5C 9.5,74.5 4.5,74.5 -0.5,74.5C -0.5,69.5 -0.5,64.5 -0.5,59.5 Z"/></g>
<g><path style="opacity:1" fill="#d4d2dc" d="M 69.5,57.5 C 82.1522,65.144 94.8188,72.8107 107.5,80.5C 107.343,81.8734 107.51,83.2068 108,84.5C 108.333,84.1667 108.667,83.8333 109,83.5C 109.667,87.5 110.333,87.5 111,83.5C 113.019,85.8721 114.686,88.5388 116,91.5C 116.333,90.8333 116.667,90.1667 117,89.5C 118.833,92 120.667,94.5 122.5,97C 121.809,98.0674 121.309,99.2341 121,100.5C 120.118,96.9584 119.285,97.2917 118.5,101.5C 101.833,91.1667 85.1667,80.8333 68.5,70.5C 67.6832,68.6923 68.3498,67.1923 70.5,66C 69.5,65 68.5,64 67.5,63C 69.9878,61.3148 69.6545,59.9814 66.5,59C 67.4491,58.3828 68.2825,58.5494 69,59.5C 69.4643,58.9056 69.631,58.2389 69.5,57.5 Z"/></g>
<g><path style="opacity:1" fill="#e8f0fa" d="M 155.5,12.5 C 180.297,23.1034 204.964,34.1034 229.5,45.5C 230.59,46.3914 230.59,47.3914 229.5,48.5C 224.617,52.4015 219.284,55.4015 213.5,57.5C 213.312,59.1033 213.812,60.4366 215,61.5C 217.303,61.5905 218.97,60.2572 220,57.5C 220.974,59.8776 221.641,59.5443 222,56.5C 222.667,60.5 223.333,60.5 224,56.5C 224.914,60.1851 225.581,59.8518 226,55.5C 226.419,59.8518 227.086,60.1851 228,56.5C 228.232,57.7375 228.732,58.7375 229.5,59.5C 220.518,66.2166 211.351,71.2166 202,74.5C 201.276,76.9589 199.943,77.9589 198,77.5C 197.026,79.8776 196.359,79.5443 196,76.5C 195.581,80.8518 194.914,81.1851 194,77.5C 193.74,79.6175 192.74,81.2842 191,82.5C 188.298,80.6923 186.298,81.6923 185,85.5C 184.5,84.3333 183.667,83.5 182.5,83C 184.929,82.5488 185.096,81.7155 183,80.5C 181.667,83.1667 180.333,83.1667 179,80.5C 178,82.1667 177,83.8333 176,85.5C 175.16,82.5363 174.16,82.203 173,84.5C 171.272,82.8056 171.772,81.6389 174.5,81C 174.272,80.6012 173.938,80.4346 173.5,80.5C 191.604,69.2744 209.937,58.2744 228.5,47.5C 203.985,36.0746 179.651,24.4079 155.5,12.5 Z"/></g>
<g><path style="opacity:1" fill="#fefffe" d="M 269.5,59.5 C 274.5,59.5 279.5,59.5 284.5,59.5C 284.5,64.5 284.5,69.5 284.5,74.5C 279.5,74.5 274.5,74.5 269.5,74.5C 269.5,69.5 269.5,64.5 269.5,59.5 Z"/></g>
<g><path style="opacity:1" fill="#edeeed" d="M 284.5,59.5 C 289.5,59.5 294.5,59.5 299.5,59.5C 299.5,64.5 299.5,69.5 299.5,74.5C 294.5,74.5 289.5,74.5 284.5,74.5C 284.5,69.5 284.5,64.5 284.5,59.5 Z"/></g>
<g><path style="opacity:1" fill="#fefffe" d="M 299.5,59.5 C 304.5,59.5 309.5,59.5 314.5,59.5C 314.5,64.5 314.5,69.5 314.5,74.5C 309.5,74.5 304.5,74.5 299.5,74.5C 299.5,69.5 299.5,64.5 299.5,59.5 Z"/></g>
<g><path style="opacity:1" fill="#183660" d="M 241.5,77.5 C 240.884,86.8376 240.218,96.1709 239.5,105.5C 238.454,117.476 237.787,129.476 237.5,141.5C 229.767,146.694 222.433,152.361 215.5,158.5C 208.599,162.402 202.266,167.069 196.5,172.5C 193.467,174.016 190.8,176.016 188.5,178.5C 184.268,180.4 180.601,183.067 177.5,186.5C 174.868,188.113 172.202,189.78 169.5,191.5C 168.5,172.512 168.167,153.512 168.5,134.5C 168.334,128.491 168.501,122.491 169,116.5C 192.831,100.917 216.831,85.5838 241,70.5C 241.497,72.8098 241.663,75.1432 241.5,77.5 Z"/></g>
<g><path style="opacity:1" fill="#193761" d="M 68.5,70.5 C 85.1667,80.8333 101.833,91.1667 118.5,101.5C 125.805,106.156 133.138,110.823 140.5,115.5C 141.833,141.167 141.833,166.833 140.5,192.5C 138.754,190.748 136.754,189.415 134.5,188.5C 114.453,173.121 94.12,158.121 73.5,143.5C 71.9632,134.605 70.9632,125.605 70.5,116.5C 69.4588,102.841 68.4588,89.1745 67.5,75.5C 67.5068,73.6307 67.8401,71.964 68.5,70.5 Z"/></g>
<g><path style="opacity:1" fill="#6c8dc0" d="M 253.5,55.5 C 253.833,55.5 254.167,55.5 254.5,55.5C 254.621,59.8247 253.954,63.9913 252.5,68C 253.056,68.3826 253.389,68.8826 253.5,69.5C 252.43,74.5849 251.764,79.2515 251.5,83.5C 250.766,84.8775 250.099,86.3775 249.5,88C 250.285,90.0417 249.952,92.0417 248.5,94C 249.447,96.4785 249.447,98.8118 248.5,101C 247.638,103.734 246.805,103.901 246,101.5C 245.333,102.833 244.333,103.833 243,104.5C 243.241,109.076 242.075,109.409 239.5,105.5C 240.218,96.1709 240.884,86.8376 241.5,77.5C 242.321,80.6414 242.821,83.9748 243,87.5C 243.241,84.7111 243.908,82.0444 245,79.5C 245.914,80.6537 246.747,80.487 247.5,79C 246.446,77.6124 246.28,76.1124 247,74.5C 247.914,75.6537 248.747,75.487 249.5,74C 249.279,72.2015 248.946,70.3682 248.5,68.5C 250.637,67.2619 251.971,65.4286 252.5,63C 250.675,61.5341 250.175,59.7008 251,57.5C 251.333,58.5 251.667,59.5 252,60.5C 252.608,58.8455 253.108,57.1789 253.5,55.5 Z"/></g>
<g><path style="opacity:1" fill="#edeeed" d="M -0.5,74.5 C 4.5,74.5 9.5,74.5 14.5,74.5C 14.5,79.5 14.5,84.5 14.5,89.5C 9.5,89.5 4.5,89.5 -0.5,89.5C -0.5,84.5 -0.5,79.5 -0.5,74.5 Z"/></g>
<g><path style="opacity:1" fill="#f3f3f3" d="M 254.5,55.5 C 254.833,55.5 255.167,55.5 255.5,55.5C 255.5,56.8333 255.5,58.1667 255.5,59.5C 260.167,59.5 264.833,59.5 269.5,59.5C 269.5,64.5 269.5,69.5 269.5,74.5C 274.5,74.5 279.5,74.5 284.5,74.5C 284.5,79.5 284.5,84.5 284.5,89.5C 289.5,89.5 294.5,89.5 299.5,89.5C 304.5,89.5 309.5,89.5 314.5,89.5C 319.5,89.5 324.5,89.5 329.5,89.5C 329.5,94.5 329.5,99.5 329.5,104.5C 334.5,104.5 339.5,104.5 344.5,104.5C 344.5,109.5 344.5,114.5 344.5,119.5C 339.5,119.5 334.5,119.5 329.5,119.5C 329.5,124.5 329.5,129.5 329.5,134.5C 334.5,134.5 339.5,134.5 344.5,134.5C 344.5,139.5 344.5,144.5 344.5,149.5C 339.5,149.5 334.5,149.5 329.5,149.5C 329.5,154.5 329.5,159.5 329.5,164.5C 324.5,164.5 319.5,164.5 314.5,164.5C 314.5,159.5 314.5,154.5 314.5,149.5C 309.5,149.5 304.5,149.5 299.5,149.5C 299.5,144.5 299.5,139.5 299.5,134.5C 294.5,134.5 289.5,134.5 284.5,134.5C 284.5,129.5 284.5,124.5 284.5,119.5C 284.5,114.5 284.5,109.5 284.5,104.5C 279.5,104.5 274.5,104.5 269.5,104.5C 269.359,99.6519 269.359,94.9852 269.5,90.5C 266.232,89.513 262.898,89.1796 259.5,89.5C 258.603,88.4019 257.77,88.4019 257,89.5C 256.085,88.6721 255.419,87.6721 255,86.5C 253.711,80.9116 253.211,75.2449 253.5,69.5C 253.389,68.8826 253.056,68.3826 252.5,68C 253.954,63.9913 254.621,59.8247 254.5,55.5 Z"/></g>
<g><path style="opacity:1" fill="#fefffe" d="M 284.5,74.5 C 289.5,74.5 294.5,74.5 299.5,74.5C 299.5,79.5 299.5,84.5 299.5,89.5C 294.5,89.5 289.5,89.5 284.5,89.5C 284.5,84.5 284.5,79.5 284.5,74.5 Z"/></g>
<g><path style="opacity:1" fill="#edeeed" d="M 299.5,74.5 C 304.5,74.5 309.5,74.5 314.5,74.5C 314.5,79.5 314.5,84.5 314.5,89.5C 309.5,89.5 304.5,89.5 299.5,89.5C 299.5,84.5 299.5,79.5 299.5,74.5 Z"/></g>
<g><path style="opacity:1" fill="#7c9dd4" d="M 251.5,83.5 C 251.347,89.845 251.014,96.1783 250.5,102.5C 250.07,104.62 250.07,106.62 250.5,108.5C 250.033,110.984 249.366,113.818 248.5,117C 249.588,120.45 249.588,124.283 248.5,128.5C 248.065,130.703 248.065,132.703 248.5,134.5C 247.951,137.774 247.618,141.774 247.5,146.5C 247.773,148.451 247.107,149.951 245.5,151C 248.167,151.667 248.167,152.333 245.5,153C 246.056,153.383 246.389,153.883 246.5,154.5C 245.128,155.512 243.795,156.512 242.5,157.5C 214.216,178.45 186.216,199.783 158.5,221.5C 157.833,221.833 157.167,222.167 156.5,222.5C 156.5,221.5 156.5,220.5 156.5,219.5C 157.309,217.708 157.809,215.708 158,213.5C 158.359,216.544 159.026,216.878 160,214.5C 160.333,215.167 160.667,215.833 161,216.5C 162.888,215.98 164.221,214.314 165,211.5C 165.333,212.167 165.667,212.833 166,213.5C 168.964,210.274 172.464,207.941 176.5,206.5C 176.351,205.448 176.517,204.448 177,203.5C 177.333,203.833 177.667,204.167 178,204.5C 184.018,198.952 190.518,194.118 197.5,190C 198.46,188.581 199.293,187.081 200,185.5C 200.893,186.711 201.726,186.711 202.5,185.5C 203.098,184.205 203.598,182.872 204,181.5C 204.333,182.167 204.667,182.833 205,183.5C 206.36,181.895 207.86,180.395 209.5,179C 208.483,177.951 208.316,176.784 209,175.5C 209.333,176.167 209.667,176.833 210,177.5C 211.751,175.51 212.751,173.177 213,170.5C 213.333,170.833 213.667,171.167 214,171.5C 215.887,169.974 216.887,167.974 217,165.5C 218.364,166.258 219.531,165.758 220.5,164C 221.166,161.67 221.166,159.17 220.5,156.5C 225.583,152.112 230.916,147.945 236.5,144C 237.252,143.329 237.586,142.496 237.5,141.5C 237.787,129.476 238.454,117.476 239.5,105.5C 242.075,109.409 243.241,109.076 243,104.5C 244.333,103.833 245.333,102.833 246,101.5C 246.805,103.901 247.638,103.734 248.5,101C 249.447,98.8118 249.447,96.4785 248.5,94C 249.952,92.0417 250.285,90.0417 249.5,88C 250.099,86.3775 250.766,84.8775 251.5,83.5 Z"/></g>
<g><path style="opacity:1" fill="#ece5e4" d="M 107.5,80.5 C 122.597,89.1288 137.43,98.1288 152,107.5C 152.176,121.408 152.676,135.242 153.5,149C 153.153,170.679 152.819,191.679 152.5,212C 153.086,214.28 153.92,216.447 155,218.5C 155.169,206.326 155.669,194.326 156.5,182.5C 156.5,188.833 156.5,195.167 156.5,201.5C 156.5,207.5 156.5,213.5 156.5,219.5C 156.5,220.5 156.5,221.5 156.5,222.5C 154.801,222.66 153.134,222.494 151.5,222C 147.601,218.589 143.601,215.422 139.5,212.5C 139.141,210.629 138.141,209.129 136.5,208C 131.167,204 125.833,200 120.5,196C 121.715,193.904 122.549,194.071 123,196.5C 123.974,194.122 124.641,194.456 125,197.5C 125.667,192.167 126.333,192.167 127,197.5C 127.333,196.5 127.667,195.5 128,194.5C 128.249,197.177 129.249,199.51 131,201.5C 132.385,200.449 133.385,199.116 134,197.5C 134.915,198.328 135.581,199.328 136,200.5C 136.691,198.109 137.691,198.109 139,200.5C 139.5,200 140,199.5 140.5,199C 138.473,197.604 138.14,195.938 139.5,194C 137.833,192.833 136.167,191.667 134.5,190.5C 133.45,189.571 133.45,188.905 134.5,188.5C 136.754,189.415 138.754,190.748 140.5,192.5C 141.833,166.833 141.833,141.167 140.5,115.5C 133.138,110.823 125.805,106.156 118.5,101.5C 119.285,97.2917 120.118,96.9584 121,100.5C 121.309,99.2341 121.809,98.0674 122.5,97C 120.667,94.5 118.833,92 117,89.5C 116.667,90.1667 116.333,90.8333 116,91.5C 114.686,88.5388 113.019,85.8721 111,83.5C 110.333,87.5 109.667,87.5 109,83.5C 108.667,83.8333 108.333,84.1667 108,84.5C 107.51,83.2068 107.343,81.8734 107.5,80.5 Z"/></g>
<g><path style="opacity:1" fill="#fefffe" d="M -0.5,89.5 C 4.5,89.5 9.5,89.5 14.5,89.5C 14.5,94.5 14.5,99.5 14.5,104.5C 9.5,104.5 4.5,104.5 -0.5,104.5C -0.5,99.5 -0.5,94.5 -0.5,89.5 Z"/></g>
<g><path style="opacity:1" fill="#24416b" d="M 119.5,144.5 C 118.806,141.579 117.973,138.579 117,135.5C 115.026,144.066 118.192,149.566 126.5,152C 127.252,152.671 127.586,153.504 127.5,154.5C 127.916,156.752 129.249,158.252 131.5,159C 130.833,159.333 130.167,159.667 129.5,160C 131.004,161.337 132.004,163.004 132.5,165C 130.652,167.257 128.818,168.757 127,169.5C 126.019,166.311 124.686,165.978 123,168.5C 120.439,164.955 117.939,161.455 115.5,158C 115.833,157.667 116.167,157.333 116.5,157C 114.93,154.138 113.263,151.305 111.5,148.5C 111.709,147.914 112.043,147.414 112.5,147C 109.96,144.795 107.793,142.295 106,139.5C 105.667,140.167 105.333,140.833 105,141.5C 104.558,139.321 103.558,138.655 102,139.5C 100.691,137.109 99.6914,137.109 99,139.5C 98.6667,138.833 98.3333,138.167 98,137.5C 96.6152,138.551 95.6152,139.884 95,141.5C 94.3086,139.109 93.3086,139.109 92,141.5C 90.1667,139.167 88.3333,136.833 86.5,134.5C 86.3062,132.737 86.3062,130.903 86.5,129C 84.0779,126.997 83.2446,124.497 84,121.5C 84.3333,122.167 84.6667,122.833 85,123.5C 86.7286,123.026 87.8953,122.026 88.5,120.5C 89.29,121.609 89.79,122.942 90,124.5C 90.4559,121.428 90.4559,118.428 90,115.5C 91.6667,117.167 93.3333,118.833 95,120.5C 94.7431,122.975 93.7431,122.975 92,120.5C 93.066,123.966 94.7327,127.299 97,130.5C 97.2649,128.837 96.7649,127.337 95.5,126C 97.2826,124.933 97.7826,123.433 97,121.5C 94.872,118.37 92.372,115.537 89.5,113C 88.5509,112.383 87.7175,112.549 87,113.5C 86.0027,111.677 84.8361,110.01 83.5,108.5C 83.9382,108.565 84.2716,108.399 84.5,108C 82.1165,106.59 80.4498,104.59 79.5,102C 79.579,99.695 79.7457,97.195 80,94.5C 80.3333,94.8333 80.6667,95.1667 81,95.5C 81.6667,94.1667 82.3333,92.8333 83,91.5C 83.3173,93.3008 83.984,93.6341 85,92.5C 86.0975,93.9675 87.5975,94.8008 89.5,95C 90.7014,95.9025 91.5348,97.0692 92,98.5C 92.3333,97.8333 92.6667,97.1667 93,96.5C 93.724,98.9589 95.0573,99.9589 97,99.5C 97.6667,100.833 98.3333,102.167 99,103.5C 99.3333,102.833 99.6667,102.167 100,101.5C 104.516,106.353 108.682,111.52 112.5,117C 112.043,117.414 111.709,117.914 111.5,118.5C 115.167,124.5 118.833,130.5 122.5,136.5C 121.145,137.675 121.312,138.675 123,139.5C 123.333,139.167 123.667,138.833 124,138.5C 124.257,141.017 123.59,143.35 122,145.5C 120.956,144.377 120.29,143.044 120,141.5C 119.517,142.448 119.351,143.448 119.5,144.5 Z"/></g>
<g><path style="opacity:1" fill="#d2d0db" d="M 253.5,69.5 C 253.211,75.2449 253.711,80.9116 255,86.5C 255.419,87.6721 256.085,88.6721 257,89.5C 257.77,88.4019 258.603,88.4019 259.5,89.5C 259.703,91.0443 260.37,92.3777 261.5,93.5C 261.173,97.393 262.506,100.893 265.5,104C 263.167,104.333 260.833,104.667 258.5,105C 258.043,105.414 257.709,105.914 257.5,106.5C 257.753,109.048 259.086,111.215 261.5,113C 260.542,114.147 260.875,115.147 262.5,116C 261.549,116.718 261.383,117.551 262,118.5C 264.611,119.071 267.111,119.904 269.5,121C 269.169,125.016 269.169,129.516 269.5,134.5C 265.375,134.723 264.709,136.223 267.5,139C 265.48,142.418 264.48,145.918 264.5,149.5C 263.5,149.5 262.5,149.5 261.5,149.5C 262.591,146.607 262.591,144.107 261.5,142C 262.167,141.333 262.833,140.667 263.5,140C 262.364,138.47 261.364,137.137 260.5,136C 262.5,135 264.5,134 266.5,133C 265.692,132.692 265.025,132.192 264.5,131.5C 266.543,125.16 263.876,120.66 256.5,118C 259.167,117.333 259.167,116.667 256.5,116C 256.833,115.667 257.167,115.333 257.5,115C 255.069,111.922 254.069,108.422 254.5,104.5C 252.801,104.473 251.467,103.806 250.5,102.5C 251.014,96.1783 251.347,89.845 251.5,83.5C 251.764,79.2515 252.43,74.5849 253.5,69.5 Z"/></g>
<g><path style="opacity:1" fill="#edeeed" d="M -0.5,104.5 C 4.5,104.5 9.5,104.5 14.5,104.5C 14.5,109.5 14.5,114.5 14.5,119.5C 9.5,119.5 4.5,119.5 -0.5,119.5C -0.5,114.5 -0.5,109.5 -0.5,104.5 Z"/></g>
<g><path style="opacity:1" fill="#d5d7e0" d="M 220.5,122.5 C 219.817,116.897 221.151,111.897 224.5,107.5C 225.496,107.414 226.329,107.748 227,108.5C 228.721,106.289 230.721,104.289 233,102.5C 232.951,104.675 232.451,106.842 231.5,109C 232.167,111.333 232.833,113.667 233.5,116C 231.178,119.485 230.012,118.985 230,114.5C 229.585,119.586 226.918,122.92 222,124.5C 220.97,124.164 220.47,123.497 220.5,122.5 Z"/></g>
<g><path style="opacity:1" fill="#a6adc3" d="M 250.5,108.5 C 253.812,110.547 254.812,113.047 253.5,116C 254.724,118.671 256.391,121.004 258.5,123C 257.833,123.333 257.167,123.667 256.5,124C 258.928,125.162 259.595,126.829 258.5,129C 261.495,132.192 260.828,134.359 256.5,135.5C 256.977,136.478 257.643,137.311 258.5,138C 257.359,138.741 257.359,139.575 258.5,140.5C 256.009,141.541 256.009,142.374 258.5,143C 258.167,144.667 257.833,146.333 257.5,148C 260.791,151.004 260.791,153.671 257.5,156C 260.167,156.667 260.167,157.333 257.5,158C 260.167,158.667 260.167,159.333 257.5,160C 257.833,160.333 258.167,160.667 258.5,161C 254.84,164.8 253.173,169.133 253.5,174C 251.181,175.147 249.848,176.981 249.5,179.5C 248.167,179.5 246.833,179.5 245.5,179.5C 245.351,178.448 245.517,177.448 246,176.5C 247.955,174.089 249.789,171.589 251.5,169C 251.167,168.667 250.833,168.333 250.5,168C 253.763,167.131 254.096,165.797 251.5,164C 251.5,162.667 251.5,161.333 251.5,160C 253.521,157.957 253.854,155.957 252.5,154C 253.227,152.601 253.727,151.101 254,149.5C 254.185,144.19 254.351,139.357 254.5,135C 253.167,134.667 251.833,134.333 250.5,134C 251.167,133.667 251.833,133.333 252.5,133C 250.408,132.047 250.075,130.714 251.5,129C 250.552,128.517 249.552,128.351 248.5,128.5C 249.588,124.283 249.588,120.45 248.5,117C 249.366,113.818 250.033,110.984 250.5,108.5 Z"/></g>
<g><path style="opacity:1" fill="#ecedf1" d="M 219.5,122.5 C 219.348,126.141 217.682,128.807 214.5,130.5C 213.566,129.432 213.232,128.099 213.5,126.5C 213.195,121.238 213.529,116.072 214.5,111C 215.966,110.365 217.3,109.531 218.5,108.5C 219.493,113.12 219.827,117.786 219.5,122.5 Z"/></g>
<g><path style="opacity:1" fill="#bdc2d3" d="M 250.5,102.5 C 251.467,103.806 252.801,104.473 254.5,104.5C 254.069,108.422 255.069,111.922 257.5,115C 257.167,115.333 256.833,115.667 256.5,116C 259.167,116.667 259.167,117.333 256.5,118C 263.876,120.66 266.543,125.16 264.5,131.5C 265.025,132.192 265.692,132.692 266.5,133C 264.5,134 262.5,135 260.5,136C 261.364,137.137 262.364,138.47 263.5,140C 262.833,140.667 262.167,141.333 261.5,142C 262.591,144.107 262.591,146.607 261.5,149.5C 262.5,149.5 263.5,149.5 264.5,149.5C 263.838,151.47 263.172,153.47 262.5,155.5C 264.991,156.541 264.991,157.374 262.5,158C 262.833,158.333 263.167,158.667 263.5,159C 261.606,160.079 261.273,161.413 262.5,163C 260.5,164 258.5,165 256.5,166C 256.833,166.333 257.167,166.667 257.5,167C 255.274,170.54 253.94,174.373 253.5,178.5C 252.292,179.234 250.959,179.567 249.5,179.5C 249.848,176.981 251.181,175.147 253.5,174C 253.173,169.133 254.84,164.8 258.5,161C 258.167,160.667 257.833,160.333 257.5,160C 260.167,159.333 260.167,158.667 257.5,158C 260.167,157.333 260.167,156.667 257.5,156C 260.791,153.671 260.791,151.004 257.5,148C 257.833,146.333 258.167,144.667 258.5,143C 256.009,142.374 256.009,141.541 258.5,140.5C 257.359,139.575 257.359,138.741 258.5,138C 257.643,137.311 256.977,136.478 256.5,135.5C 260.828,134.359 261.495,132.192 258.5,129C 259.595,126.829 258.928,125.162 256.5,124C 257.167,123.667 257.833,123.333 258.5,123C 256.391,121.004 254.724,118.671 253.5,116C 254.812,113.047 253.812,110.547 250.5,108.5C 250.07,106.62 250.07,104.62 250.5,102.5 Z"/></g>
<g><path style="opacity:1" fill="#d4d2dc" d="M 59.5,113.5 C 60.8846,114.574 62.0513,115.907 63,117.5C 64,116.5 65,115.5 66,114.5C 67.1062,117.966 68.6062,118.632 70.5,116.5C 70.9632,125.605 71.9632,134.605 73.5,143.5C 72.6676,144.329 73.001,145.162 74.5,146C 83.7817,152.281 92.7817,158.948 101.5,166C 100.549,166.718 100.383,167.551 101,168.5C 101.915,169.328 102.581,170.328 103,171.5C 103.556,169.405 104.056,169.238 104.5,171C 103.66,172.171 102.827,173.338 102,174.5C 101.333,170.5 100.667,170.5 100,174.5C 99.3333,171.833 98.6667,171.833 98,174.5C 97.3333,171.833 96.6667,171.833 96,174.5C 95.3333,171.833 94.6667,171.833 94,174.5C 93.1376,172.913 92.4709,171.246 92,169.5C 91.6411,172.544 90.9745,172.878 90,170.5C 88.4931,171.535 86.9931,171.368 85.5,170C 78.8718,164.02 71.8718,158.52 64.5,153.5C 64.5086,151.692 64.0086,150.025 63,148.5C 62.6667,148.833 62.3333,149.167 62,149.5C 61.6852,146.628 61.1852,143.795 60.5,141C 61.9896,139.337 62.6563,137.67 62.5,136C 60.8897,128.62 59.8897,121.12 59.5,113.5 Z"/></g>
<g><path style="opacity:1" fill="#243761" d="M 223.5,111.5 C 224.803,114.355 224.803,117.355 223.5,120.5C 222.357,117.502 222.357,114.502 223.5,111.5 Z"/></g>
<g><path style="opacity:1" fill="#fefffe" d="M -0.5,119.5 C 4.5,119.5 9.5,119.5 14.5,119.5C 14.5,124.5 14.5,129.5 14.5,134.5C 9.5,134.5 4.5,134.5 -0.5,134.5C -0.5,129.5 -0.5,124.5 -0.5,119.5 Z"/></g>
<g><path style="opacity:1" fill="#d6d8e1" d="M 83.5,108.5 C 84.8361,110.01 86.0027,111.677 87,113.5C 87.7175,112.549 88.5509,112.383 89.5,113C 92.372,115.537 94.872,118.37 97,121.5C 97.7826,123.433 97.2826,124.933 95.5,126C 96.7649,127.337 97.2649,128.837 97,130.5C 94.7327,127.299 93.066,123.966 92,120.5C 93.7431,122.975 94.7431,122.975 95,120.5C 93.3333,118.833 91.6667,117.167 90,115.5C 90.4559,118.428 90.4559,121.428 90,124.5C 89.79,122.942 89.29,121.609 88.5,120.5C 83.6833,120.727 80.35,118.394 78.5,113.5C 76.4038,110.809 76.0705,107.809 77.5,104.5C 79.5286,105.844 81.5286,107.177 83.5,108.5 Z"/></g>
<g><path style="opacity:1" fill="#1f3964" d="M 78.5,113.5 C 77.7691,111.401 77.7691,109.401 78.5,107.5C 83.9041,109.51 86.2375,113.177 85.5,118.5C 82.8699,117.196 80.5366,115.53 78.5,113.5 Z"/></g>
<g><path style="opacity:1" fill="#dedfe7" d="M 100.5,123.5 C 101.496,123.414 102.329,123.748 103,124.5C 104.333,127.833 105.667,131.167 107,134.5C 107.494,132.866 107.66,131.199 107.5,129.5C 110.554,130.196 113.22,131.696 115.5,134C 113.24,134.044 111.24,133.211 109.5,131.5C 109.008,136.492 111.175,140.159 116,142.5C 116.688,143.332 116.521,143.998 115.5,144.5C 109.91,140.621 105.077,135.954 101,130.5C 99.8438,131.993 99.0104,131.826 98.5,130C 99.2741,127.846 99.9408,125.679 100.5,123.5 Z"/></g>
<g><path style="opacity:1" fill="#233b66" d="M 215.5,120.5 C 217.976,122.121 218.142,124.121 216,126.5C 215.505,124.527 215.338,122.527 215.5,120.5 Z"/></g>
<g><path style="opacity:1" fill="#23406a" d="M 224.5,107.5 C 221.151,111.897 219.817,116.897 220.5,122.5C 220.167,122.5 219.833,122.5 219.5,122.5C 219.827,117.786 219.493,113.12 218.5,108.5C 217.3,109.531 215.966,110.365 214.5,111C 213.529,116.072 213.195,121.238 213.5,126.5C 212.833,127.5 212.167,128.5 211.5,129.5C 211.193,123.907 211.527,118.407 212.5,113C 211.551,112.383 210.718,112.549 210,113.5C 209.169,120.192 209.336,126.858 210.5,133.5C 211.107,133.376 211.44,133.043 211.5,132.5C 212.391,131.89 213.391,131.557 214.5,131.5C 217.479,129.216 220.646,127.216 224,125.5C 224.617,126.449 224.451,127.282 223.5,128C 225.394,129.101 226.061,130.434 225.5,132C 224.747,133.487 223.914,133.654 223,132.5C 222.308,137.195 219.975,140.862 216,143.5C 214.442,142.655 213.442,143.321 213,145.5C 212.026,143.122 211.359,143.456 211,146.5C 209.47,147.636 208.137,148.636 207,149.5C 206.667,148.833 206.333,148.167 206,147.5C 205.667,148.833 205.333,150.167 205,151.5C 204.026,149.122 203.359,149.456 203,152.5C 202.086,148.815 201.419,149.148 201,153.5C 200.086,149.815 199.419,150.148 199,154.5C 198.667,153.167 198.333,151.833 198,150.5C 197.333,153.167 196.667,153.167 196,150.5C 195.667,151.167 195.333,151.833 195,152.5C 192.512,151.588 190.845,152.588 190,155.5C 189.667,154.5 189.333,153.5 189,152.5C 188.333,153.833 187.667,155.167 187,156.5C 185.07,154.081 185.403,152.414 188,151.5C 188.692,150.563 188.525,149.897 187.5,149.5C 186.923,145.131 187.757,141.131 190,137.5C 190.498,140.482 190.665,143.482 190.5,146.5C 191.791,146.737 192.791,146.404 193.5,145.5C 194.167,144.833 194.833,144.167 195.5,143.5C 197.434,142.89 199.101,141.89 200.5,140.5C 201.167,139.833 201.833,139.167 202.5,138.5C 204.384,138.288 205.717,137.288 206.5,135.5C 207.985,130.954 208.652,126.287 208.5,121.5C 205.708,121.452 203.875,122.785 203,125.5C 202.333,126.167 202.333,126.833 203,127.5C 203.965,125.74 205.132,125.406 206.5,126.5C 204.384,128.4 203.051,130.733 202.5,133.5C 201.596,132.791 201.263,131.791 201.5,130.5C 201.66,128.801 201.494,127.134 201,125.5C 200.667,125.833 200.333,126.167 200,126.5C 198.97,130.773 198.303,135.106 198,139.5C 197.667,135.833 197.333,132.167 197,128.5C 195.681,130.25 195.181,132.25 195.5,134.5C 194.683,136.969 194.183,139.635 194,142.5C 193.502,139.518 193.335,136.518 193.5,133.5C 194.043,133.44 194.376,133.107 194.5,132.5C 192.874,126.09 191.541,126.424 190.5,133.5C 189.378,134.63 188.044,135.297 186.5,135.5C 186.859,133.234 186.192,131.401 184.5,130C 185.883,127.877 187.55,126.877 189.5,127C 189.167,126.667 188.833,126.333 188.5,126C 190.81,124.363 192.31,122.196 193,119.5C 193.667,123.5 194.333,123.5 195,119.5C 195.333,119.833 195.667,120.167 196,120.5C 200.222,117.297 203.222,113.297 205,108.5C 206.503,108.835 207.836,108.835 209,108.5C 211.065,105.7 213.398,104.033 216,103.5C 218.477,102.125 219.311,100.291 218.5,98C 218.833,97.8333 219.167,97.6667 219.5,97.5C 220.251,98.376 220.751,99.376 221,100.5C 221.471,98.7536 222.138,97.087 223,95.5C 223.667,98.1667 224.333,98.1667 225,95.5C 225.317,97.3008 225.984,97.6341 227,96.5C 227.5,97 228,97.5 228.5,98C 228.5,99.6667 228.5,101.333 228.5,103C 227.643,105.019 226.309,106.519 224.5,107.5 Z"/></g>
<g><path style="opacity:1" fill="#e3e5eb" d="M 202.5,138.5 C 202.5,136.833 202.5,135.167 202.5,133.5C 203.051,130.733 204.384,128.4 206.5,126.5C 205.132,125.406 203.965,125.74 203,127.5C 202.333,126.833 202.333,126.167 203,125.5C 203.875,122.785 205.708,121.452 208.5,121.5C 208.652,126.287 207.985,130.954 206.5,135.5C 205.717,137.288 204.384,138.288 202.5,138.5 Z"/></g>
<g><path style="opacity:1" fill="#5c6788" d="M 215.5,112.5 C 216.649,112.791 217.316,113.624 217.5,115C 217.167,115.833 216.833,116.667 216.5,117.5C 215.548,115.955 215.215,114.288 215.5,112.5 Z"/></g>
<g><path style="opacity:1" fill="#edeef1" d="M 211.5,129.5 C 211.5,130.5 211.5,131.5 211.5,132.5C 211.44,133.043 211.107,133.376 210.5,133.5C 209.336,126.858 209.169,120.192 210,113.5C 210.718,112.549 211.551,112.383 212.5,113C 211.527,118.407 211.193,123.907 211.5,129.5 Z"/></g>
<g><path style="opacity:1" fill="#253c67" d="M 101.5,126.5 C 103.273,127.314 103.773,128.648 103,130.5C 101.812,129.437 101.312,128.103 101.5,126.5 Z"/></g>
<g><path style="opacity:1" fill="#8c95ae" d="M 248.5,128.5 C 249.552,128.351 250.552,128.517 251.5,129C 250.075,130.714 250.408,132.047 252.5,133C 251.833,133.333 251.167,133.667 250.5,134C 251.833,134.333 253.167,134.667 254.5,135C 254.351,139.357 254.185,144.19 254,149.5C 253.727,151.101 253.227,152.601 252.5,154C 253.854,155.957 253.521,157.957 251.5,160C 251.5,161.333 251.5,162.667 251.5,164C 254.096,165.797 253.763,167.131 250.5,168C 250.833,168.333 251.167,168.667 251.5,169C 249.789,171.589 247.955,174.089 246,176.5C 245.517,177.448 245.351,178.448 245.5,179.5C 241.691,179.791 240.024,181.624 240.5,185C 238.338,189.757 235.505,193.257 232,195.5C 228.159,199.183 225.326,203.517 223.5,208.5C 220.763,211.245 217.763,213.578 214.5,215.5C 215.5,213.5 216.5,211.5 217.5,209.5C 219.017,209.489 220.184,208.823 221,207.5C 223.484,203.314 225.65,199.481 227.5,196C 229.167,195 230.833,194 232.5,193C 232.5,192 232.5,191 232.5,190C 233.833,189 235.167,188 236.5,187C 236.5,186 236.5,185 236.5,184C 239.721,180.906 242.387,177.906 244.5,175C 243.366,173.984 243.699,173.317 245.5,173C 245.167,172.667 244.833,172.333 244.5,172C 246.008,170.493 247.341,168.827 248.5,167C 247.366,165.984 247.699,165.317 249.5,165C 247.487,164.125 247.487,162.791 249.5,161C 248.786,159.657 249.12,158.324 250.5,157C 250.167,156.667 249.833,156.333 249.5,156C 250.079,152.861 251.079,149.861 252.5,147C 249.833,146.333 249.833,145.667 252.5,145C 251.833,144.667 251.167,144.333 250.5,144C 250.833,143 251.167,142 251.5,141C 250.074,138.955 249.074,136.788 248.5,134.5C 248.065,132.703 248.065,130.703 248.5,128.5 Z"/></g>
<g><path style="opacity:1" fill="#7d86a2" d="M 213.5,126.5 C 213.232,128.099 213.566,129.432 214.5,130.5C 214.5,130.833 214.5,131.167 214.5,131.5C 213.391,131.557 212.391,131.89 211.5,132.5C 211.5,131.5 211.5,130.5 211.5,129.5C 212.167,128.5 212.833,127.5 213.5,126.5 Z"/></g>
<g><path style="opacity:1" fill="#dee0e8" d="M 201.5,130.5 C 200.521,133.625 200.187,136.958 200.5,140.5C 199.101,141.89 197.434,142.89 195.5,143.5C 195.5,140.5 195.5,137.5 195.5,134.5C 195.181,132.25 195.681,130.25 197,128.5C 197.333,132.167 197.667,135.833 198,139.5C 198.303,135.106 198.97,130.773 200,126.5C 200.333,126.167 200.667,125.833 201,125.5C 201.494,127.134 201.66,128.801 201.5,130.5 Z"/></g>
<g><path style="opacity:1" fill="#677092" d="M 204.5,131.5 C 205.776,132.386 205.776,133.386 204.5,134.5C 203.438,133.575 203.438,132.575 204.5,131.5 Z"/></g>
<g><path style="opacity:1" fill="#edeeed" d="M -0.5,134.5 C 4.5,134.5 9.5,134.5 14.5,134.5C 14.5,139.5 14.5,144.5 14.5,149.5C 9.5,149.5 4.5,149.5 -0.5,149.5C -0.5,144.5 -0.5,139.5 -0.5,134.5 Z"/></g>
<g><path style="opacity:1" fill="#717d9b" d="M 248.5,134.5 C 249.074,136.788 250.074,138.955 251.5,141C 251.167,142 250.833,143 250.5,144C 251.167,144.333 251.833,144.667 252.5,145C 249.833,145.667 249.833,146.333 252.5,147C 251.079,149.861 250.079,152.861 249.5,156C 249.833,156.333 250.167,156.667 250.5,157C 249.12,158.324 248.786,159.657 249.5,161C 247.487,162.791 247.487,164.125 249.5,165C 247.699,165.317 247.366,165.984 248.5,167C 247.341,168.827 246.008,170.493 244.5,172C 244.833,172.333 245.167,172.667 245.5,173C 243.699,173.317 243.366,173.984 244.5,175C 242.387,177.906 239.721,180.906 236.5,184C 236.5,185 236.5,186 236.5,187C 235.167,188 233.833,189 232.5,190C 232.5,191 232.5,192 232.5,193C 230.833,194 229.167,195 227.5,196C 225.65,199.481 223.484,203.314 221,207.5C 220.184,208.823 219.017,209.489 217.5,209.5C 223.247,199.261 229.58,189.427 236.5,180C 236.167,179.667 235.833,179.333 235.5,179C 237.694,175.895 240.36,173.228 243.5,171C 242.701,169.251 243.368,167.918 245.5,167C 245.167,166 244.833,165 244.5,164C 248.163,158.456 249.163,152.623 247.5,146.5C 247.618,141.774 247.951,137.774 248.5,134.5 Z"/></g>
<g><path style="opacity:1" fill="#c1c5d3" d="M 183.5,131.5 C 186.063,132.998 186.063,134.665 183.5,136.5C 182.334,134.833 182.334,133.166 183.5,131.5 Z"/></g>
<g><path style="opacity:1" fill="#858fa9" d="M 201.5,130.5 C 201.263,131.791 201.596,132.791 202.5,133.5C 202.5,135.167 202.5,136.833 202.5,138.5C 201.833,139.167 201.167,139.833 200.5,140.5C 200.187,136.958 200.521,133.625 201.5,130.5 Z"/></g>
<g><path style="opacity:1" fill="#e7e8ee" d="M 193.5,133.5 C 192.274,137.367 192.274,141.367 193.5,145.5C 192.791,146.404 191.791,146.737 190.5,146.5C 190.665,143.482 190.498,140.482 190,137.5C 187.757,141.131 186.923,145.131 187.5,149.5C 187.217,150.289 186.717,150.956 186,151.5C 185.219,146.083 185.385,140.75 186.5,135.5C 188.044,135.297 189.378,134.63 190.5,133.5C 191.541,126.424 192.874,126.09 194.5,132.5C 194.376,133.107 194.043,133.44 193.5,133.5 Z"/></g>
<g><path style="opacity:1" fill="#e3e5eb" d="M 183.5,138.5 C 184.648,142.981 184.815,147.648 184,152.5C 182.658,153.902 181.824,153.569 181.5,151.5C 182.103,147.111 182.77,142.778 183.5,138.5 Z"/></g>
<g><path style="opacity:1" fill="#7f8aa6" d="M 193.5,133.5 C 193.335,136.518 193.502,139.518 194,142.5C 194.183,139.635 194.683,136.969 195.5,134.5C 195.5,137.5 195.5,140.5 195.5,143.5C 194.833,144.167 194.167,144.833 193.5,145.5C 192.274,141.367 192.274,137.367 193.5,133.5 Z"/></g>
<g><path style="opacity:1" fill="#e4e6eb" d="M 180.5,135.5 C 181.147,136.274 181.48,137.274 181.5,138.5C 181.024,144.607 180.024,150.607 178.5,156.5C 177.522,156.977 176.689,157.643 176,158.5C 175.067,152.179 174.734,145.846 175,139.5C 175.414,139.043 175.914,138.709 176.5,138.5C 177.327,142.459 177.827,146.459 178,150.5C 178.606,145.415 179.44,140.415 180.5,135.5 Z"/></g>
<g><path style="opacity:1" fill="#d6d8e2" d="M 119.5,144.5 C 124.818,151.672 126.485,151.005 124.5,142.5C 127.658,143.313 130.324,144.98 132.5,147.5C 132.167,147.833 131.833,148.167 131.5,148.5C 130.167,147.5 128.833,146.5 127.5,145.5C 127.167,145.833 126.833,146.167 126.5,146.5C 128.5,148.167 130.5,149.833 132.5,151.5C 132.167,151.833 131.833,152.167 131.5,152.5C 130.38,151.167 129.047,150.667 127.5,151C 130.421,153.347 132.421,155.847 133.5,158.5C 131.754,156.748 129.754,155.415 127.5,154.5C 127.586,153.504 127.252,152.671 126.5,152C 118.192,149.566 115.026,144.066 117,135.5C 117.973,138.579 118.806,141.579 119.5,144.5 Z"/></g>
<g><path style="opacity:1" fill="#fefffe" d="M -0.5,149.5 C 4.5,149.5 9.5,149.5 14.5,149.5C 14.5,154.5 14.5,159.5 14.5,164.5C 9.5,164.5 4.5,164.5 -0.5,164.5C -0.5,159.5 -0.5,154.5 -0.5,149.5 Z"/></g>
<g><path style="opacity:1" fill="#f6f6f6" d="M 284.5,119.5 C 284.5,124.5 284.5,129.5 284.5,134.5C 289.5,134.5 294.5,134.5 299.5,134.5C 299.5,139.5 299.5,144.5 299.5,149.5C 304.5,149.5 309.5,149.5 314.5,149.5C 314.5,154.5 314.5,159.5 314.5,164.5C 319.5,164.5 324.5,164.5 329.5,164.5C 329.5,174.5 329.5,184.5 329.5,194.5C 334.5,194.5 339.5,194.5 344.5,194.5C 344.5,199.5 344.5,204.5 344.5,209.5C 339.5,209.5 334.5,209.5 329.5,209.5C 329.5,214.5 329.5,219.5 329.5,224.5C 334.5,224.5 339.5,224.5 344.5,224.5C 344.5,229.5 344.5,234.5 344.5,239.5C 339.5,239.5 334.5,239.5 329.5,239.5C 329.5,244.5 329.5,249.5 329.5,254.5C 324.5,254.5 319.5,254.5 314.5,254.5C 314.5,249.5 314.5,244.5 314.5,239.5C 314.5,234.5 314.5,229.5 314.5,224.5C 309.5,224.5 304.5,224.5 299.5,224.5C 299.5,219.5 299.5,214.5 299.5,209.5C 294.5,209.5 289.5,209.5 284.5,209.5C 284.5,204.5 284.5,199.5 284.5,194.5C 284.5,189.5 284.5,184.5 284.5,179.5C 284.5,174.5 284.5,169.5 284.5,164.5C 279.5,164.5 274.5,164.5 269.5,164.5C 270.029,160.649 269.362,157.149 267.5,154C 270.167,153.333 270.167,152.667 267.5,152C 270.824,149.872 274.491,149.039 278.5,149.5C 278.693,145.551 279.193,145.551 280,149.5C 280.309,148.234 280.809,147.067 281.5,146C 280.862,142.347 280.862,138.847 281.5,135.5C 279.577,134.692 277.577,134.192 275.5,134C 274.879,131.502 275.545,129.168 277.5,127C 276.458,124.443 275.125,122.11 273.5,120C 275.101,119.727 276.601,119.227 278,118.5C 279.822,118.968 281.989,119.301 284.5,119.5 Z"/></g>
<g><path style="opacity:1" fill="#c9cddb" d="M 237.5,141.5 C 237.586,142.496 237.252,143.329 236.5,144C 230.916,147.945 225.583,152.112 220.5,156.5C 218.833,157.167 217.167,157.833 215.5,158.5C 222.433,152.361 229.767,146.694 237.5,141.5 Z"/></g>
<g><path style="opacity:1" fill="#3a4669" d="M 246.5,154.5 C 244.653,158.358 242.653,162.192 240.5,166C 240.833,166.333 241.167,166.667 241.5,167C 237.694,170.934 234.36,175.267 231.5,180C 231.833,180.333 232.167,180.667 232.5,181C 231.167,182 229.833,183 228.5,184C 229.634,185.016 229.301,185.683 227.5,186C 227.833,186.333 228.167,186.667 228.5,187C 226.462,188.236 225.295,190.069 225,192.5C 224.667,191.833 224.333,191.167 224,190.5C 214.479,218.536 194.812,235.536 165,241.5C 160.562,240.903 155.895,240.903 151,241.5C 138.339,240.086 127.173,235.252 117.5,227C 117.728,226.601 118.062,226.435 118.5,226.5C 124.051,230.278 130.051,232.944 136.5,234.5C 141.089,236.875 146.089,237.875 151.5,237.5C 151.5,237.833 151.5,238.167 151.5,238.5C 153.079,239.744 157.912,240.078 166,239.5C 170.828,238.083 175.661,236.583 180.5,235C 183.898,233.643 186.898,231.81 189.5,229.5C 197.513,225.656 204.18,220.156 209.5,213C 209.167,212.667 208.833,212.333 208.5,212C 209.068,210.348 210.401,208.682 212.5,207C 212.5,205.333 212.5,203.667 212.5,202C 213.13,200.108 214.13,198.441 215.5,197C 214.075,195.286 214.408,193.953 216.5,193C 213.833,192.333 213.833,191.667 216.5,191C 215.833,190.667 215.167,190.333 214.5,190C 215.5,189 216.5,188 217.5,187C 216.465,185.493 216.632,183.993 218,182.5C 226.278,174.815 234.778,166.648 243.5,158C 243.272,157.601 242.938,157.435 242.5,157.5C 243.795,156.512 245.128,155.512 246.5,154.5 Z"/></g>
<g><path style="opacity:1" fill="#6f8fc0" d="M 168.5,134.5 C 168.167,153.512 168.5,172.512 169.5,191.5C 172.202,189.78 174.868,188.113 177.5,186.5C 181.732,184.6 185.399,181.933 188.5,178.5C 190.8,176.016 193.467,174.016 196.5,172.5C 203.401,168.598 209.734,163.931 215.5,158.5C 217.167,157.833 218.833,157.167 220.5,156.5C 221.166,159.17 221.166,161.67 220.5,164C 219.531,165.758 218.364,166.258 217,165.5C 216.887,167.974 215.887,169.974 214,171.5C 213.667,171.167 213.333,170.833 213,170.5C 212.751,173.177 211.751,175.51 210,177.5C 209.667,176.833 209.333,176.167 209,175.5C 208.316,176.784 208.483,177.951 209.5,179C 207.86,180.395 206.36,181.895 205,183.5C 204.667,182.833 204.333,182.167 204,181.5C 203.598,182.872 203.098,184.205 202.5,185.5C 201.726,186.711 200.893,186.711 200,185.5C 199.293,187.081 198.46,188.581 197.5,190C 190.518,194.118 184.018,198.952 178,204.5C 177.667,204.167 177.333,203.833 177,203.5C 176.517,204.448 176.351,205.448 176.5,206.5C 172.464,207.941 168.964,210.274 166,213.5C 165.667,212.833 165.333,212.167 165,211.5C 164.221,214.314 162.888,215.98 161,216.5C 160.667,215.833 160.333,215.167 160,214.5C 159.026,216.878 158.359,216.544 158,213.5C 157.809,215.708 157.309,217.708 156.5,219.5C 156.5,213.5 156.5,207.5 156.5,201.5C 157.328,195.681 157.828,189.681 158,183.5C 159.077,185.705 159.743,187.705 160,189.5C 160.758,187.231 160.591,185.064 159.5,183C 161.891,181.49 164.224,180.156 166.5,179C 165.273,177.413 165.606,176.079 167.5,175C 167.548,172.34 167.215,169.84 166.5,167.5C 167.146,156.372 167.813,145.372 168.5,134.5 Z"/></g>
<g><path style="opacity:1" fill="#1d243f" d="M 242.5,157.5 C 242.938,157.435 243.272,157.601 243.5,158C 234.778,166.648 226.278,174.815 218,182.5C 216.632,183.993 216.465,185.493 217.5,187C 216.5,188 215.5,189 214.5,190C 215.167,190.333 215.833,190.667 216.5,191C 213.833,191.667 213.833,192.333 216.5,193C 214.408,193.953 214.075,195.286 215.5,197C 214.13,198.441 213.13,200.108 212.5,202C 212.5,203.667 212.5,205.333 212.5,207C 210.401,208.682 209.068,210.348 208.5,212C 208.833,212.333 209.167,212.667 209.5,213C 204.18,220.156 197.513,225.656 189.5,229.5C 192.167,227.167 194.833,224.833 197.5,222.5C 201.703,218.97 204.703,214.636 206.5,209.5C 207.376,209.631 208.043,209.298 208.5,208.5C 211.999,200.891 213.332,192.891 212.5,184.5C 212.631,183.761 212.464,183.094 212,182.5C 195.757,197.588 178.257,210.921 159.5,222.5C 158.893,222.376 158.56,222.043 158.5,221.5C 186.216,199.783 214.216,178.45 242.5,157.5 Z"/></g>
<g><path style="opacity:1" fill="#c5c8d6" d="M 215.5,158.5 C 209.734,163.931 203.401,168.598 196.5,172.5C 202.266,167.069 208.599,162.402 215.5,158.5 Z"/></g>
<g><path style="opacity:1" fill="#edeeed" d="M -0.5,164.5 C 4.5,164.5 9.5,164.5 14.5,164.5C 14.5,169.5 14.5,174.5 14.5,179.5C 9.5,179.5 4.5,179.5 -0.5,179.5C -0.5,174.5 -0.5,169.5 -0.5,164.5 Z"/></g>
<g><path style="opacity:1" fill="#9ba3ba" d="M 73.5,162.5 C 73.0618,162.435 72.7284,162.601 72.5,163C 78.3569,169.855 84.5235,176.355 91,182.5C 93.5754,185.726 95.0754,189.393 95.5,193.5C 91.1467,190.205 86.8134,186.372 82.5,182C 82.0835,178.171 79.7501,174.671 75.5,171.5C 73.0241,167.754 70.0241,163.754 66.5,159.5C 65.1522,158.473 64.6522,157.14 65,155.5C 68.0228,157.698 70.8562,160.031 73.5,162.5 Z"/></g>
<g><path style="opacity:1" fill="#667291" d="M 73.5,162.5 C 76.8103,164.482 79.8103,166.815 82.5,169.5C 82.0618,169.435 81.7284,169.601 81.5,170C 87.136,174.458 91.9693,179.625 96,185.5C 97.6628,193.656 99.8295,201.656 102.5,209.5C 101.21,208.942 100.377,207.942 100,206.5C 98.164,202.154 96.664,197.821 95.5,193.5C 95.0754,189.393 93.5754,185.726 91,182.5C 84.5235,176.355 78.3569,169.855 72.5,163C 72.7284,162.601 73.0618,162.435 73.5,162.5 Z"/></g>
<g><path style="opacity:1" fill="#b3b8cb" d="M 75.5,171.5 C 79.7501,174.671 82.0835,178.171 82.5,182C 86.8134,186.372 91.1467,190.205 95.5,193.5C 96.664,197.821 98.164,202.154 100,206.5C 100.377,207.942 101.21,208.942 102.5,209.5C 102.833,209.5 103.167,209.5 103.5,209.5C 103.5,210.833 103.5,212.167 103.5,213.5C 99.3992,210.682 96.7326,206.682 95.5,201.5C 94.7579,200.713 93.9246,200.047 93,199.5C 91.8608,196.739 91.1942,194.073 91,191.5C 90.3333,190.167 89.6667,190.167 89,191.5C 85.8405,187.341 82.3405,183.508 78.5,180C 79.1667,179.667 79.8333,179.333 80.5,179C 77.8002,177.143 76.1335,174.643 75.5,171.5 Z"/></g>
<g><path style="opacity:1" fill="#374364" d="M 82.5,169.5 C 101.679,183.59 120.679,197.924 139.5,212.5C 143.601,215.422 147.601,218.589 151.5,222C 153.134,222.494 154.801,222.66 156.5,222.5C 157.167,222.167 157.833,221.833 158.5,221.5C 158.56,222.043 158.893,222.376 159.5,222.5C 178.257,210.921 195.757,197.588 212,182.5C 212.464,183.094 212.631,183.761 212.5,184.5C 200.639,196.188 187.972,207.022 174.5,217C 167.538,221.822 159.871,224.322 151.5,224.5C 134.273,211.296 117.106,197.963 100,184.5C 99.1955,187.696 99.3622,190.696 100.5,193.5C 100.833,195.5 101.167,197.5 101.5,199.5C 102.167,202.833 102.833,206.167 103.5,209.5C 103.167,209.5 102.833,209.5 102.5,209.5C 99.8295,201.656 97.6628,193.656 96,185.5C 91.9693,179.625 87.136,174.458 81.5,170C 81.7284,169.601 82.0618,169.435 82.5,169.5 Z"/></g>
<g><path style="opacity:1" fill="#cfcfdb" d="M 253.5,178.5 C 250.956,183.65 247.622,188.817 243.5,194C 244.833,194.333 246.167,194.667 247.5,195C 248.451,195.718 248.617,196.551 248,197.5C 246.287,198.878 244.953,200.545 244,202.5C 243.667,201.833 243.333,201.167 243,200.5C 240.539,205.478 239.205,204.811 239,198.5C 236.308,201.692 233.808,205.025 231.5,208.5C 232.908,209.243 234.241,210.077 235.5,211C 231.641,213.065 227.975,215.232 224.5,217.5C 221.418,219.075 218.751,221.242 216.5,224C 217.833,224.333 219.167,224.667 220.5,225C 218.652,226.518 217.152,228.351 216,230.5C 215,230.5 214,230.5 213,230.5C 212.641,233.544 211.974,233.878 211,231.5C 210.667,232.167 210.333,232.833 210,233.5C 209.781,232.062 209.281,230.729 208.5,229.5C 204.26,232.752 199.594,235.086 194.5,236.5C 202.551,229.628 210.551,222.461 218.5,215C 220.624,213.878 222.457,212.378 224,210.5C 224.914,211.654 225.747,211.487 226.5,210C 225.549,209.282 225.383,208.449 226,207.5C 229.047,204.455 231.713,201.122 234,197.5C 235.264,195.393 237.097,194.393 239.5,194.5C 240.123,189.087 242.456,184.587 246.5,181C 245.944,180.617 245.611,180.117 245.5,179.5C 246.833,179.5 248.167,179.5 249.5,179.5C 250.959,179.567 252.292,179.234 253.5,178.5 Z"/></g>
<g><path style="opacity:1" fill="#fefffe" d="M -0.5,179.5 C 4.5,179.5 9.5,179.5 14.5,179.5C 14.5,184.5 14.5,189.5 14.5,194.5C 9.5,194.5 4.5,194.5 -0.5,194.5C -0.5,189.5 -0.5,184.5 -0.5,179.5 Z"/></g>
<g><path style="opacity:1" fill="#a3aac0" d="M 245.5,179.5 C 245.611,180.117 245.944,180.617 246.5,181C 242.456,184.587 240.123,189.087 239.5,194.5C 237.097,194.393 235.264,195.393 234,197.5C 231.713,201.122 229.047,204.455 226,207.5C 225.383,208.449 225.549,209.282 226.5,210C 225.747,211.487 224.914,211.654 224,210.5C 222.457,212.378 220.624,213.878 218.5,215C 210.551,222.461 202.551,229.628 194.5,236.5C 194.218,237.778 193.551,238.778 192.5,239.5C 190.5,239.5 188.5,239.5 186.5,239.5C 179.371,241.408 172.204,243.074 165,244.5C 163.698,243.915 162.531,243.249 161.5,242.5C 170.923,242.061 179.923,239.894 188.5,236C 197.953,230.034 206.619,223.201 214.5,215.5C 217.763,213.578 220.763,211.245 223.5,208.5C 225.326,203.517 228.159,199.183 232,195.5C 235.505,193.257 238.338,189.757 240.5,185C 240.024,181.624 241.691,179.791 245.5,179.5 Z"/></g>
<g><path style="opacity:1" fill="#e1e1e6" d="M 259.5,89.5 C 262.898,89.1796 266.232,89.513 269.5,90.5C 269.359,94.9852 269.359,99.6519 269.5,104.5C 274.5,104.5 279.5,104.5 284.5,104.5C 284.5,109.5 284.5,114.5 284.5,119.5C 281.989,119.301 279.822,118.968 278,118.5C 276.601,119.227 275.101,119.727 273.5,120C 275.125,122.11 276.458,124.443 277.5,127C 275.545,129.168 274.879,131.502 275.5,134C 277.577,134.192 279.577,134.692 281.5,135.5C 280.862,138.847 280.862,142.347 281.5,146C 280.809,147.067 280.309,148.234 280,149.5C 279.193,145.551 278.693,145.551 278.5,149.5C 274.491,149.039 270.824,149.872 267.5,152C 270.167,152.667 270.167,153.333 267.5,154C 269.362,157.149 270.029,160.649 269.5,164.5C 274.5,164.5 279.5,164.5 284.5,164.5C 284.5,169.5 284.5,174.5 284.5,179.5C 279.5,179.5 274.5,179.5 269.5,179.5C 269.5,184.5 269.5,189.5 269.5,194.5C 266.289,194.988 263.456,194.321 261,192.5C 260.667,193.167 260.333,193.833 260,194.5C 258.374,194.146 256.541,194.146 254.5,194.5C 254.176,199.074 254.01,203.741 254,208.5C 249.716,208.916 244.882,209.249 239.5,209.5C 239.663,211.857 239.497,214.19 239,216.5C 236.139,216.092 235.972,216.925 238.5,219C 237.083,221.826 235.583,221.993 234,219.5C 233.333,222.167 232.667,222.167 232,219.5C 230.676,220.88 229.343,221.214 228,220.5C 227.333,223.167 226.667,223.167 226,220.5C 225.667,221.167 225.333,221.833 225,222.5C 224.506,220.866 224.34,219.199 224.5,217.5C 227.975,215.232 231.641,213.065 235.5,211C 234.241,210.077 232.908,209.243 231.5,208.5C 233.808,205.025 236.308,201.692 239,198.5C 239.205,204.811 240.539,205.478 243,200.5C 243.333,201.167 243.667,201.833 244,202.5C 244.953,200.545 246.287,198.878 248,197.5C 248.617,196.551 248.451,195.718 247.5,195C 246.167,194.667 244.833,194.333 243.5,194C 247.622,188.817 250.956,183.65 253.5,178.5C 253.94,174.373 255.274,170.54 257.5,167C 257.167,166.667 256.833,166.333 256.5,166C 258.5,165 260.5,164 262.5,163C 261.273,161.413 261.606,160.079 263.5,159C 263.167,158.667 262.833,158.333 262.5,158C 264.991,157.374 264.991,156.541 262.5,155.5C 263.172,153.47 263.838,151.47 264.5,149.5C 264.48,145.918 265.48,142.418 267.5,139C 264.709,136.223 265.375,134.723 269.5,134.5C 269.169,129.516 269.169,125.016 269.5,121C 267.111,119.904 264.611,119.071 262,118.5C 261.383,117.551 261.549,116.718 262.5,116C 260.875,115.147 260.542,114.147 261.5,113C 259.086,111.215 257.753,109.048 257.5,106.5C 257.709,105.914 258.043,105.414 258.5,105C 260.833,104.667 263.167,104.333 265.5,104C 262.506,100.893 261.173,97.393 261.5,93.5C 260.37,92.3777 259.703,91.0443 259.5,89.5 Z"/></g>
<g><path style="opacity:1" fill="#fdfdfe" d="M 284.5,179.5 C 284.5,184.5 284.5,189.5 284.5,194.5C 279.5,194.5 274.5,194.5 269.5,194.5C 269.5,189.5 269.5,184.5 269.5,179.5C 274.5,179.5 279.5,179.5 284.5,179.5 Z"/></g>
<g><path style="opacity:1" fill="#b7bbcd" d="M 188.5,178.5 C 185.399,181.933 181.732,184.6 177.5,186.5C 180.601,183.067 184.268,180.4 188.5,178.5 Z"/></g>
<g><path style="opacity:1" fill="#e4e2e5" d="M 73.5,143.5 C 94.12,158.121 114.453,173.121 134.5,188.5C 133.45,188.905 133.45,189.571 134.5,190.5C 136.167,191.667 137.833,192.833 139.5,194C 138.14,195.938 138.473,197.604 140.5,199C 140,199.5 139.5,200 139,200.5C 137.691,198.109 136.691,198.109 136,200.5C 135.581,199.328 134.915,198.328 134,197.5C 133.385,199.116 132.385,200.449 131,201.5C 129.249,199.51 128.249,197.177 128,194.5C 127.667,195.5 127.333,196.5 127,197.5C 126.333,192.167 125.667,192.167 125,197.5C 124.641,194.456 123.974,194.122 123,196.5C 122.549,194.071 121.715,193.904 120.5,196C 125.833,200 131.167,204 136.5,208C 138.141,209.129 139.141,210.629 139.5,212.5C 120.679,197.924 101.679,183.59 82.5,169.5C 79.8103,166.815 76.8103,164.482 73.5,162.5C 70.8562,160.031 68.0228,157.698 65,155.5C 64.6522,157.14 65.1522,158.473 66.5,159.5C 66.3879,166.314 68.8879,172.314 74,177.5C 74.3333,176.833 74.6667,176.167 75,175.5C 77.9408,178.039 77.7741,179.372 74.5,179.5C 71.7294,179.579 69.0627,179.079 66.5,178C 69.1667,177.333 69.1667,176.667 66.5,176C 67.299,174.251 66.6324,172.918 64.5,172C 65.299,170.251 64.6324,168.918 62.5,168C 63.1667,167.667 63.8333,167.333 64.5,167C 61.8693,165.309 62.2027,164.142 65.5,163.5C 63.6953,159.663 62.862,155.663 63,151.5C 63.2784,152.416 63.7784,153.082 64.5,153.5C 71.8718,158.52 78.8718,164.02 85.5,170C 86.9931,171.368 88.4931,171.535 90,170.5C 90.9745,172.878 91.6411,172.544 92,169.5C 92.4709,171.246 93.1376,172.913 94,174.5C 94.6667,171.833 95.3333,171.833 96,174.5C 96.6667,171.833 97.3333,171.833 98,174.5C 98.6667,171.833 99.3333,171.833 100,174.5C 100.667,170.5 101.333,170.5 102,174.5C 102.827,173.338 103.66,172.171 104.5,171C 104.056,169.238 103.556,169.405 103,171.5C 102.581,170.328 101.915,169.328 101,168.5C 100.383,167.551 100.549,166.718 101.5,166C 92.7817,158.948 83.7817,152.281 74.5,146C 73.001,145.162 72.6676,144.329 73.5,143.5 Z"/></g>
<g><path style="opacity:1" fill="#4c608a" d="M 212.5,184.5 C 213.332,192.891 211.999,200.891 208.5,208.5C 208.043,209.298 207.376,209.631 206.5,209.5C 206.443,208.391 206.11,207.391 205.5,206.5C 206.979,203.71 208.312,200.877 209.5,198C 209.001,194.993 208.001,194.826 206.5,197.5C 203.898,198.932 201.731,200.932 200,203.5C 198.16,202.167 197.66,202.334 198.5,204C 195.553,207.71 192.886,210.876 190.5,213.5C 189.85,213.196 189.183,212.863 188.5,212.5C 183.646,215.736 179.146,218.736 175,221.5C 174.667,221.167 174.333,220.833 174,220.5C 168.105,223.799 162.105,225.799 156,226.5C 154.378,225.901 152.878,225.234 151.5,224.5C 159.871,224.322 167.538,221.822 174.5,217C 187.972,207.022 200.639,196.188 212.5,184.5 Z"/></g>
<g><path style="opacity:1" fill="#8b95ae" d="M 101.5,190.5 C 106.782,193.145 111.782,196.312 116.5,200C 125.542,208.045 134.876,215.711 144.5,223C 153.012,228.112 161.345,228.946 169.5,225.5C 170.183,225.863 170.85,226.196 171.5,226.5C 162.656,230.912 153.656,230.412 144.5,225C 130.224,213.202 115.891,201.702 101.5,190.5 Z"/></g>
<g><path style="opacity:1" fill="#edeeed" d="M -0.5,194.5 C 4.5,194.5 9.5,194.5 14.5,194.5C 14.5,199.5 14.5,204.5 14.5,209.5C 9.5,209.5 4.5,209.5 -0.5,209.5C -0.5,204.5 -0.5,199.5 -0.5,194.5 Z"/></g>
<g><path style="opacity:1" fill="#b3bacd" d="M 101.5,190.5 C 115.891,201.702 130.224,213.202 144.5,225C 153.656,230.412 162.656,230.912 171.5,226.5C 172.105,224.519 173.105,224.185 174.5,225.5C 178.084,224.689 181.251,223.023 184,220.5C 184.333,220.833 184.667,221.167 185,221.5C 187.991,220.024 190.824,218.19 193.5,216C 196.464,212.034 199.797,208.367 203.5,205C 203.167,204.667 202.833,204.333 202.5,204C 204.719,202.399 206.052,200.233 206.5,197.5C 208.001,194.826 209.001,194.993 209.5,198C 208.312,200.877 206.979,203.71 205.5,206.5C 202.864,209.809 200.197,213.142 197.5,216.5C 194.865,217.811 192.531,219.478 190.5,221.5C 181.673,227.128 172.006,230.461 161.5,231.5C 156.833,231.5 152.167,231.5 147.5,231.5C 147.5,230.833 147.167,230.5 146.5,230.5C 141.763,227.957 137.097,225.123 132.5,222C 123.686,214.096 114.686,206.43 105.5,199C 104.251,198.26 103.251,198.427 102.5,199.5C 102.167,199.5 101.833,199.5 101.5,199.5C 101.167,197.5 100.833,195.5 100.5,193.5C 100.263,192.209 100.596,191.209 101.5,190.5 Z"/></g>
<g><path style="opacity:1" fill="#7a91ba" d="M 206.5,197.5 C 206.052,200.233 204.719,202.399 202.5,204C 202.833,204.333 203.167,204.667 203.5,205C 199.797,208.367 196.464,212.034 193.5,216C 190.824,218.19 187.991,220.024 185,221.5C 184.667,221.167 184.333,220.833 184,220.5C 181.251,223.023 178.084,224.689 174.5,225.5C 176.793,224.019 178.96,221.686 181,218.5C 183.493,219.946 185.327,219.279 186.5,216.5C 189.428,217.921 190.762,216.921 190.5,213.5C 192.886,210.876 195.553,207.71 198.5,204C 197.66,202.334 198.16,202.167 200,203.5C 201.731,200.932 203.898,198.932 206.5,197.5 Z"/></g>
<g><path style="opacity:1" fill="#cfd2df" d="M 146.5,230.5 C 144.473,230.338 142.473,230.505 140.5,231C 140.833,232 141.167,233 141.5,234C 139.546,234.162 137.879,234.329 136.5,234.5C 130.051,232.944 124.051,230.278 118.5,226.5C 118.167,225.833 117.833,225.167 117.5,224.5C 121.374,226.354 125.207,228.354 129,230.5C 130.726,229.352 130.559,228.185 128.5,227C 130.5,227 132.5,227 134.5,227C 127.868,222.408 121.535,216.741 115.5,210C 114.167,209.667 112.833,209.333 111.5,209C 109.842,205.16 107.176,202.326 103.5,200.5C 102.833,200.5 102.5,200.167 102.5,199.5C 103.251,198.427 104.251,198.26 105.5,199C 114.686,206.43 123.686,214.096 132.5,222C 137.097,225.123 141.763,227.957 146.5,230.5 Z"/></g>
<g><path style="opacity:1" fill="#fefffe" d="M -0.5,209.5 C 4.5,209.5 9.5,209.5 14.5,209.5C 14.5,214.5 14.5,219.5 14.5,224.5C 9.5,224.5 4.5,224.5 -0.5,224.5C -0.5,219.5 -0.5,214.5 -0.5,209.5 Z"/></g>
<g><path style="opacity:1" fill="#edecee" d="M 74.5,180.5 C 76.3786,180.393 76.7119,180.893 75.5,182C 77,183.167 78.5,184.333 80,185.5C 81.4691,188.584 83.3025,191.417 85.5,194C 86.7932,194.49 88.1266,194.657 89.5,194.5C 89.3379,196.527 89.5045,198.527 90,200.5C 95.3977,206.947 100.064,213.947 104,221.5C 109.381,226.757 114.881,231.757 120.5,236.5C 123.234,238.371 126.234,239.371 129.5,239.5C 130.167,239.5 130.833,239.5 131.5,239.5C 132.972,241.134 134.638,242.634 136.5,244C 140.061,244.207 143.561,245.04 147,246.5C 154.27,245.246 161.27,245.246 168,246.5C 174.709,245.387 180.875,243.054 186.5,239.5C 188.5,239.5 190.5,239.5 192.5,239.5C 190.813,240.918 188.98,242.251 187,243.5C 184.841,242.803 182.674,243.137 180.5,244.5C 179.513,247.768 179.18,251.102 179.5,254.5C 174.5,254.5 169.5,254.5 164.5,254.5C 164.875,251.603 164.375,248.937 163,246.5C 158.599,247.467 154.099,247.8 149.5,247.5C 149.5,249.833 149.5,252.167 149.5,254.5C 144.5,254.5 139.5,254.5 134.5,254.5C 134.817,251.428 134.484,248.428 133.5,245.5C 129.174,243.943 124.508,242.276 119.5,240.5C 119.5,245.167 119.5,249.833 119.5,254.5C 114.5,254.5 109.5,254.5 104.5,254.5C 104.5,249.5 104.5,244.5 104.5,239.5C 99.5,239.5 94.5,239.5 89.5,239.5C 89.5,234.5 89.5,229.5 89.5,224.5C 84.5,224.5 79.5,224.5 74.5,224.5C 74.5,219.5 74.5,214.5 74.5,209.5C 79.8437,209.666 85.1771,209.499 90.5,209C 89.1667,208.333 89.1667,207.667 90.5,207C 88.8978,201.922 86.5645,197.922 83.5,195C 76.6855,192.66 73.6855,187.826 74.5,180.5 Z"/></g>
<g><path style="opacity:1" fill="#f2f3f3" d="M 269.5,194.5 C 274.5,194.5 279.5,194.5 284.5,194.5C 284.5,199.5 284.5,204.5 284.5,209.5C 289.5,209.5 294.5,209.5 299.5,209.5C 299.5,214.5 299.5,219.5 299.5,224.5C 304.5,224.5 309.5,224.5 314.5,224.5C 314.5,229.5 314.5,234.5 314.5,239.5C 309.5,239.5 304.5,239.5 299.5,239.5C 299.5,244.5 299.5,249.5 299.5,254.5C 294.5,254.5 289.5,254.5 284.5,254.5C 284.5,249.5 284.5,244.5 284.5,239.5C 279.5,239.5 274.5,239.5 269.5,239.5C 269.5,244.5 269.5,249.5 269.5,254.5C 264.5,254.5 259.5,254.5 254.5,254.5C 254.5,249.5 254.5,244.5 254.5,239.5C 249.5,239.5 244.5,239.5 239.5,239.5C 239.5,234.5 239.5,229.5 239.5,224.5C 234.5,224.5 229.5,224.5 224.5,224.5C 224.5,229.5 224.5,234.5 224.5,239.5C 219.5,239.5 214.5,239.5 209.5,239.5C 209.5,244.5 209.5,249.5 209.5,254.5C 204.5,254.5 199.5,254.5 194.5,254.5C 195.108,249.056 194.442,244.056 192.5,239.5C 193.551,238.778 194.218,237.778 194.5,236.5C 199.594,235.086 204.26,232.752 208.5,229.5C 209.281,230.729 209.781,232.062 210,233.5C 210.333,232.833 210.667,232.167 211,231.5C 211.974,233.878 212.641,233.544 213,230.5C 214,230.5 215,230.5 216,230.5C 217.152,228.351 218.652,226.518 220.5,225C 219.167,224.667 217.833,224.333 216.5,224C 218.751,221.242 221.418,219.075 224.5,217.5C 224.34,219.199 224.506,220.866 225,222.5C 225.333,221.833 225.667,221.167 226,220.5C 226.667,223.167 227.333,223.167 228,220.5C 229.343,221.214 230.676,220.88 232,219.5C 232.667,222.167 233.333,222.167 234,219.5C 235.583,221.993 237.083,221.826 238.5,219C 235.972,216.925 236.139,216.092 239,216.5C 239.497,214.19 239.663,211.857 239.5,209.5C 244.882,209.249 249.716,208.916 254,208.5C 254.01,203.741 254.176,199.074 254.5,194.5C 256.541,194.146 258.374,194.146 260,194.5C 260.333,193.833 260.667,193.167 261,192.5C 263.456,194.321 266.289,194.988 269.5,194.5 Z"/></g>
<g><path style="opacity:1" fill="#6c7b9c" d="M 151.5,224.5 C 152.878,225.234 154.378,225.901 156,226.5C 162.105,225.799 168.105,223.799 174,220.5C 174.333,220.833 174.667,221.167 175,221.5C 179.146,218.736 183.646,215.736 188.5,212.5C 189.183,212.863 189.85,213.196 190.5,213.5C 190.762,216.921 189.428,217.921 186.5,216.5C 185.327,219.279 183.493,219.946 181,218.5C 178.96,221.686 176.793,224.019 174.5,225.5C 173.105,224.185 172.105,224.519 171.5,226.5C 170.85,226.196 170.183,225.863 169.5,225.5C 161.345,228.946 153.012,228.112 144.5,223C 134.876,215.711 125.542,208.045 116.5,200C 111.782,196.312 106.782,193.145 101.5,190.5C 100.596,191.209 100.263,192.209 100.5,193.5C 99.3622,190.696 99.1955,187.696 100,184.5C 117.106,197.963 134.273,211.296 151.5,224.5 Z"/></g>
<g><path style="opacity:1" fill="#cacad8" d="M 66.5,159.5 C 70.0241,163.754 73.0241,167.754 75.5,171.5C 76.1335,174.643 77.8002,177.143 80.5,179C 79.8333,179.333 79.1667,179.667 78.5,180C 82.3405,183.508 85.8405,187.341 89,191.5C 89.6667,190.167 90.3333,190.167 91,191.5C 91.1942,194.073 91.8608,196.739 93,199.5C 93.9246,200.047 94.7579,200.713 95.5,201.5C 96.7326,206.682 99.3992,210.682 103.5,213.5C 103.523,215.927 104.023,218.26 105,220.5C 112.554,227.685 120.721,234.019 129.5,239.5C 126.234,239.371 123.234,238.371 120.5,236.5C 114.881,231.757 109.381,226.757 104,221.5C 100.064,213.947 95.3977,206.947 90,200.5C 89.5045,198.527 89.3379,196.527 89.5,194.5C 88.1266,194.657 86.7932,194.49 85.5,194C 83.3025,191.417 81.4691,188.584 80,185.5C 78.5,184.333 77,183.167 75.5,182C 76.7119,180.893 76.3786,180.393 74.5,180.5C 74.5,180.167 74.5,179.833 74.5,179.5C 77.7741,179.372 77.9408,178.039 75,175.5C 74.6667,176.167 74.3333,176.833 74,177.5C 68.8879,172.314 66.3879,166.314 66.5,159.5 Z"/></g>
<g><path style="opacity:1" fill="#fdfdfe" d="M 239.5,239.5 C 234.5,239.5 229.5,239.5 224.5,239.5C 224.5,234.5 224.5,229.5 224.5,224.5C 229.5,224.5 234.5,224.5 239.5,224.5C 239.5,229.5 239.5,234.5 239.5,239.5 Z"/></g>
<g><path style="opacity:1" fill="#616d8d" d="M 247.5,146.5 C 249.163,152.623 248.163,158.456 244.5,164C 244.833,165 245.167,166 245.5,167C 243.368,167.918 242.701,169.251 243.5,171C 240.36,173.228 237.694,175.895 235.5,179C 235.833,179.333 236.167,179.667 236.5,180C 229.58,189.427 223.247,199.261 217.5,209.5C 216.5,211.5 215.5,213.5 214.5,215.5C 206.619,223.201 197.953,230.034 188.5,236C 179.923,239.894 170.923,242.061 161.5,242.5C 161.167,242.5 160.833,242.5 160.5,242.5C 147.328,243.29 134.995,240.457 123.5,234C 116.569,227.238 109.902,220.404 103.5,213.5C 103.5,212.167 103.5,210.833 103.5,209.5C 102.833,206.167 102.167,202.833 101.5,199.5C 101.833,199.5 102.167,199.5 102.5,199.5C 102.5,200.167 102.833,200.5 103.5,200.5C 104.212,202.928 105.212,205.261 106.5,207.5C 106.154,208.696 105.654,208.696 105,207.5C 104.333,208.833 104.333,210.167 105,211.5C 106.912,213.657 108.579,215.991 110,218.5C 112.106,221.118 114.606,223.118 117.5,224.5C 117.833,225.167 118.167,225.833 118.5,226.5C 118.062,226.435 117.728,226.601 117.5,227C 127.173,235.252 138.339,240.086 151,241.5C 155.895,240.903 160.562,240.903 165,241.5C 194.812,235.536 214.479,218.536 224,190.5C 224.333,191.167 224.667,191.833 225,192.5C 225.295,190.069 226.462,188.236 228.5,187C 228.167,186.667 227.833,186.333 227.5,186C 229.301,185.683 229.634,185.016 228.5,184C 229.833,183 231.167,182 232.5,181C 232.167,180.667 231.833,180.333 231.5,180C 234.36,175.267 237.694,170.934 241.5,167C 241.167,166.667 240.833,166.333 240.5,166C 242.653,162.192 244.653,158.358 246.5,154.5C 246.389,153.883 246.056,153.383 245.5,153C 248.167,152.333 248.167,151.667 245.5,151C 247.107,149.951 247.773,148.451 247.5,146.5 Z"/></g>
<g><path style="opacity:1" fill="#97a2be" d="M 146.5,230.5 C 147.167,230.5 147.5,230.833 147.5,231.5C 146.448,231.351 145.448,231.517 144.5,232C 145.833,232.667 145.833,233.333 144.5,234C 145.76,235.113 146.927,235.28 148,234.5C 148.667,237.167 149.333,237.167 150,234.5C 150.317,236.301 150.984,236.634 152,235.5C 158.02,236.881 157.853,237.547 151.5,237.5C 146.089,237.875 141.089,236.875 136.5,234.5C 137.879,234.329 139.546,234.162 141.5,234C 141.167,233 140.833,232 140.5,231C 142.473,230.505 144.473,230.338 146.5,230.5 Z"/></g>
<g><path style="opacity:1" fill="#16315d" d="M 190.5,221.5 C 190.938,221.435 191.272,221.601 191.5,222C 190.782,223.987 189.782,225.821 188.5,227.5C 185.442,228.688 182.775,230.354 180.5,232.5C 175.391,233.688 170.224,234.688 165,235.5C 163.833,235.333 162.667,235.167 161.5,235C 161.201,233.927 161.201,232.76 161.5,231.5C 172.006,230.461 181.673,227.128 190.5,221.5 Z"/></g>
<g><path style="opacity:1" fill="#e3e7ed" d="M 103.5,200.5 C 107.176,202.326 109.842,205.16 111.5,209C 112.833,209.333 114.167,209.667 115.5,210C 121.535,216.741 127.868,222.408 134.5,227C 132.5,227 130.5,227 128.5,227C 130.559,228.185 130.726,229.352 129,230.5C 125.207,228.354 121.374,226.354 117.5,224.5C 114.606,223.118 112.106,221.118 110,218.5C 108.579,215.991 106.912,213.657 105,211.5C 104.333,210.167 104.333,208.833 105,207.5C 105.654,208.696 106.154,208.696 106.5,207.5C 105.212,205.261 104.212,202.928 103.5,200.5 Z"/></g>
<g><path style="opacity:1" fill="#506693" d="M 197.5,216.5 C 196.553,218.647 196.553,220.647 197.5,222.5C 194.833,224.833 192.167,227.167 189.5,229.5C 186.594,230.787 183.594,231.787 180.5,232.5C 182.775,230.354 185.442,228.688 188.5,227.5C 189.782,225.821 190.782,223.987 191.5,222C 191.272,221.601 190.938,221.435 190.5,221.5C 192.531,219.478 194.865,217.811 197.5,216.5 Z"/></g>
<g><path style="opacity:1" fill="#7492c4" d="M 205.5,206.5 C 206.11,207.391 206.443,208.391 206.5,209.5C 204.703,214.636 201.703,218.97 197.5,222.5C 196.553,220.647 196.553,218.647 197.5,216.5C 200.197,213.142 202.864,209.809 205.5,206.5 Z"/></g>
<g><path style="opacity:1" fill="#1b233e" d="M 189.5,229.5 C 186.898,231.81 183.898,233.643 180.5,235C 175.661,236.583 170.828,238.083 166,239.5C 157.912,240.078 153.079,239.744 151.5,238.5C 161.131,238.839 170.464,237.339 179.5,234C 180.056,233.617 180.389,233.117 180.5,232.5C 183.594,231.787 186.594,230.787 189.5,229.5 Z"/></g>
<g><path style="opacity:1" fill="#99a1b8" d="M 103.5,213.5 C 109.902,220.404 116.569,227.238 123.5,234C 134.995,240.457 147.328,243.29 160.5,242.5C 156.34,243.688 152.174,244.355 148,244.5C 145.923,243.983 143.923,243.316 142,242.5C 141.667,242.833 141.333,243.167 141,243.5C 137.948,241.872 134.782,240.539 131.5,239.5C 130.833,239.5 130.167,239.5 129.5,239.5C 120.721,234.019 112.554,227.685 105,220.5C 104.023,218.26 103.523,215.927 103.5,213.5 Z"/></g>
<g><path style="opacity:1" fill="#5b6b8f" d="M 147.5,231.5 C 152.167,231.5 156.833,231.5 161.5,231.5C 161.201,232.76 161.201,233.927 161.5,235C 162.667,235.167 163.833,235.333 165,235.5C 170.224,234.688 175.391,233.688 180.5,232.5C 180.389,233.117 180.056,233.617 179.5,234C 170.464,237.339 161.131,238.839 151.5,238.5C 151.5,238.167 151.5,237.833 151.5,237.5C 157.853,237.547 158.02,236.881 152,235.5C 150.984,236.634 150.317,236.301 150,234.5C 149.333,237.167 148.667,237.167 148,234.5C 146.927,235.28 145.76,235.113 144.5,234C 145.833,233.333 145.833,232.667 144.5,232C 145.448,231.517 146.448,231.351 147.5,231.5 Z"/></g>
<g><path style="opacity:1" fill="#f9f9f9" d="M -0.5,224.5 C 4.5,224.5 9.5,224.5 14.5,224.5C 19.5,224.5 24.5,224.5 29.5,224.5C 29.5,229.5 29.5,234.5 29.5,239.5C 34.5,239.5 39.5,239.5 44.5,239.5C 44.5,244.5 44.5,249.5 44.5,254.5C 49.5,254.5 54.5,254.5 59.5,254.5C 59.5,249.5 59.5,244.5 59.5,239.5C 64.5,239.5 69.5,239.5 74.5,239.5C 74.5,244.5 74.5,249.5 74.5,254.5C 79.5,254.5 84.5,254.5 89.5,254.5C 89.5,249.5 89.5,244.5 89.5,239.5C 94.5,239.5 99.5,239.5 104.5,239.5C 104.5,244.5 104.5,249.5 104.5,254.5C 109.5,254.5 114.5,254.5 119.5,254.5C 119.5,249.833 119.5,245.167 119.5,240.5C 124.508,242.276 129.174,243.943 133.5,245.5C 134.484,248.428 134.817,251.428 134.5,254.5C 139.5,254.5 144.5,254.5 149.5,254.5C 149.5,252.167 149.5,249.833 149.5,247.5C 154.099,247.8 158.599,247.467 163,246.5C 164.375,248.937 164.875,251.603 164.5,254.5C 169.5,254.5 174.5,254.5 179.5,254.5C 179.18,251.102 179.513,247.768 180.5,244.5C 182.674,243.137 184.841,242.803 187,243.5C 188.98,242.251 190.813,240.918 192.5,239.5C 194.442,244.056 195.108,249.056 194.5,254.5C 199.5,254.5 204.5,254.5 209.5,254.5C 209.5,249.5 209.5,244.5 209.5,239.5C 214.5,239.5 219.5,239.5 224.5,239.5C 229.5,239.5 234.5,239.5 239.5,239.5C 244.5,239.5 249.5,239.5 254.5,239.5C 254.5,244.5 254.5,249.5 254.5,254.5C 259.5,254.5 264.5,254.5 269.5,254.5C 269.5,249.5 269.5,244.5 269.5,239.5C 274.5,239.5 279.5,239.5 284.5,239.5C 284.5,244.5 284.5,249.5 284.5,254.5C 289.5,254.5 294.5,254.5 299.5,254.5C 299.5,249.5 299.5,244.5 299.5,239.5C 304.5,239.5 309.5,239.5 314.5,239.5C 314.5,244.5 314.5,249.5 314.5,254.5C 319.5,254.5 324.5,254.5 329.5,254.5C 329.5,249.5 329.5,244.5 329.5,239.5C 334.5,239.5 339.5,239.5 344.5,239.5C 345.5,239.5 346.5,239.5 347.5,239.5C 347.5,246.5 347.5,253.5 347.5,260.5C 231.5,260.5 115.5,260.5 -0.5,260.5C -0.5,248.5 -0.5,236.5 -0.5,224.5 Z"/></g>
<g><path style="opacity:1" fill="#ccccd9" d="M 131.5,239.5 C 134.782,240.539 137.948,241.872 141,243.5C 141.333,243.167 141.667,242.833 142,242.5C 143.923,243.316 145.923,243.983 148,244.5C 152.174,244.355 156.34,243.688 160.5,242.5C 160.833,242.5 161.167,242.5 161.5,242.5C 162.531,243.249 163.698,243.915 165,244.5C 172.204,243.074 179.371,241.408 186.5,239.5C 180.875,243.054 174.709,245.387 168,246.5C 161.27,245.246 154.27,245.246 147,246.5C 143.561,245.04 140.061,244.207 136.5,244C 134.638,242.634 132.972,241.134 131.5,239.5 Z"/></g>
</svg>
