<?xml version="1.0" encoding="UTF-8"?>
<!DOCTYPE svg PUBLIC "-//W3C//DTD SVG 1.1//EN" "http://www.w3.org/Graphics/SVG/1.1/DTD/svg11.dtd">
<svg xmlns="http://www.w3.org/2000/svg" version="1.1" width="3840px" height="2160px" style="shape-rendering:geometricPrecision; text-rendering:geometricPrecision; image-rendering:optimizeQuality; fill-rule:evenodd; clip-rule:evenodd" xmlns:xlink="http://www.w3.org/1999/xlink">
<g><path style="opacity:0.996" fill="#717174" d="M 82.5,782.5 C 117.865,780.096 144.365,794.096 162,824.5C 209.805,937.582 257.805,1050.58 306,1163.5C 343.591,1075.98 380.925,988.313 418,900.5C 454.425,817.374 517.925,778.207 608.5,783C 662.218,790.275 706.551,814.442 741.5,855.5C 775.304,824.587 814.304,802.42 858.5,789C 905.753,778.167 952.42,781.167 998.5,798C 1028.3,810.902 1053.3,830.068 1073.5,855.5C 1136.55,794.987 1211.22,772.487 1297.5,788C 1371.42,806.92 1418.59,853.086 1439,926.5C 1441.86,939.915 1443.7,953.415 1444.5,967C 1443.93,1069.85 1443.93,1172.52 1444.5,1275C 1443.88,1303.57 1433.21,1327.57 1412.5,1347C 1387.09,1364.26 1359.76,1367.93 1330.5,1358C 1307.16,1347.66 1291.99,1330.16 1285,1305.5C 1283.02,1298.62 1281.69,1291.62 1281,1284.5C 1280.67,1188.83 1280.33,1093.17 1280,997.5C 1274.03,953.86 1249.19,929.36 1205.5,924C 1175.74,921.692 1150.58,931.192 1130,952.5C 1119.28,966.286 1113.28,981.953 1112,999.5C 1111.67,1094.83 1111.33,1190.17 1111,1285.5C 1108.19,1315.25 1094.36,1338.08 1069.5,1354C 1040.61,1367.45 1012.28,1366.45 984.5,1351C 963.493,1335.17 951.659,1314 949,1287.5C 948.667,1193.17 948.333,1098.83 948,1004.5C 944.04,953.207 916.373,926.207 865,923.5C 830.84,923.735 805.173,938.402 788,967.5C 783.62,976.685 780.954,986.351 780,996.5C 779.667,1091.5 779.333,1186.5 779,1281.5C 777.197,1311.29 764.364,1334.79 740.5,1352C 715.615,1365.29 689.948,1366.96 663.5,1357C 636.365,1343.16 620.865,1321 617,1290.5C 615.686,1174.52 615.02,1058.52 615,942.5C 609.197,927.348 598.364,921.848 582.5,926C 578.759,927.738 575.592,930.238 573,933.5C 517.58,1054.75 461.58,1175.75 405,1296.5C 395.15,1315.02 382.317,1331.19 366.5,1345C 340.545,1362.26 312.211,1367.59 281.5,1361C 261.588,1356.55 244.922,1346.72 231.5,1331.5C 221.182,1319.54 212.349,1306.54 205,1292.5C 141.032,1155.59 78.0319,1018.26 16,880.5C 8.07786,827.329 30.2445,794.663 82.5,782.5 Z"/></g>
<g><path style="opacity:0.99" fill="#717174" d="M 2905.5,792.5 C 2924.28,792.654 2937.78,801.32 2946,818.5C 2947.62,822.347 2948.62,826.347 2949,830.5C 2949.33,862.167 2949.67,893.833 2950,925.5C 2982.27,859.771 3033.77,817.271 3104.5,798C 3117.04,795.35 3129.21,793.85 3141,793.5C 3165.44,796.776 3178.27,810.776 3179.5,835.5C 3178.9,855.584 3169.24,869.084 3150.5,876C 3047.49,889.728 2983.33,946.895 2958,1047.5C 2953.84,1065.95 2951.17,1084.62 2950,1103.5C 2949.98,1177.53 2949.31,1251.53 2948,1325.5C 2942.3,1345.28 2929.13,1355.95 2908.5,1357.5C 2885.51,1356.01 2871.67,1344.01 2867,1321.5C 2866.33,1157.17 2866.33,992.833 2867,828.5C 2871.71,807.616 2884.55,795.616 2905.5,792.5 Z"/></g>
<g><path style="opacity:0.991" fill="#717174" d="M 3415.5,792.5 C 3537.39,790.498 3620.22,846.165 3664,959.5C 3675.67,993.178 3681.84,1027.84 3682.5,1063.5C 3683.18,1087 3672.18,1101.5 3649.5,1107C 3517.83,1107.17 3386.17,1107.67 3254.5,1108.5C 3258.83,1154.02 3275.33,1194.35 3304,1229.5C 3340.92,1269.12 3386.59,1289.79 3441,1291.5C 3503.55,1291.3 3557.38,1269.13 3602.5,1225C 3619.71,1214.94 3635.55,1216.77 3650,1230.5C 3660.42,1244.36 3661.09,1258.69 3652,1273.5C 3586.66,1341.06 3507.16,1370.23 3413.5,1361C 3307.64,1346.86 3234.14,1290.69 3193,1192.5C 3165.67,1115.85 3165.67,1039.18 3193,962.5C 3219.1,895.071 3264.6,845.571 3329.5,814C 3357.1,802.101 3385.76,794.934 3415.5,792.5 Z M 3421.5,861.5 C 3496.39,860.896 3549.56,894.896 3581,963.5C 3591.91,989.807 3598.74,1017.14 3601.5,1045.5C 3485.83,1046.83 3370.17,1046.83 3254.5,1045.5C 3259.91,987.853 3283.58,939.353 3325.5,900C 3353.4,876.882 3385.4,864.049 3421.5,861.5 Z"/></g>
<g><path style="opacity:0.953" fill="#717174" d="M 3748.5,792.5 C 3789.24,791.755 3814.41,811.088 3824,850.5C 3826.77,892.379 3807.93,918.545 3767.5,929C 3731.32,932.504 3706.15,917.671 3692,884.5C 3682.55,849.94 3692.38,822.44 3721.5,802C 3730.03,797.129 3739.03,793.962 3748.5,792.5 Z M 3753.5,805.5 C 3788.63,807.122 3807.63,825.622 3810.5,861C 3808.16,895.008 3789.99,913.508 3756,916.5C 3731.31,915.327 3714.31,903.327 3705,880.5C 3696.47,848.736 3706.64,825.236 3735.5,810C 3741.48,807.839 3747.48,806.339 3753.5,805.5 Z M 3745.5,840.5 C 3751.84,840.334 3758.18,840.5 3764.5,841C 3771.47,845.551 3772.14,850.884 3766.5,857C 3759.59,858.384 3752.59,858.884 3745.5,858.5C 3745.5,852.5 3745.5,846.5 3745.5,840.5 Z"/></g>
<g><path style="opacity:0.992" fill="#717174" d="M 1516.5,793.5 C 1535.93,793.296 1550.09,802.296 1559,820.5C 1605.81,955.942 1652.81,1091.27 1700,1226.5C 1746.67,1091.83 1793.33,957.167 1840,822.5C 1851.02,798.91 1868.85,789.744 1893.5,795C 1906.86,798.36 1916.7,806.193 1923,818.5C 1970.39,954.684 2017.39,1091.02 2064,1227.5C 2111.67,1091.17 2159.33,954.833 2207,818.5C 2219.42,795.47 2237.92,788.637 2262.5,798C 2280.59,808.026 2287.43,823.192 2283,843.5C 2226.53,1001.24 2169.86,1158.91 2113,1316.5C 2099.65,1355 2074.82,1366.5 2038.5,1351C 2030.09,1344.58 2023.92,1336.42 2020,1326.5C 1974.05,1193.33 1927.72,1060.33 1881,927.5C 1834.33,1060.83 1787.67,1194.17 1741,1327.5C 1727.21,1355.62 1706.04,1364.45 1677.5,1354C 1664.68,1346.85 1655.85,1336.35 1651,1322.5C 1594,1163.5 1537,1004.5 1480,845.5C 1475.62,816.404 1487.78,799.07 1516.5,793.5 Z"/></g>
<g><path style="opacity:0.99" fill="#717174" d="M 2530.5,793.5 C 2568.34,792.983 2605.68,798.817 2642.5,811C 2706.18,835.361 2745.68,880.861 2761,947.5C 2765.24,967.169 2767.74,987.002 2768.5,1007C 2768.65,1111.1 2768.48,1215.6 2768,1320.5C 2763.78,1348.38 2747.61,1360.88 2719.5,1358C 2704.07,1354.24 2694.24,1344.74 2690,1329.5C 2688.74,1309.54 2688.07,1289.54 2688,1269.5C 2642.59,1326.79 2583.09,1357.63 2509.5,1362C 2452.32,1366.2 2399.65,1352.54 2351.5,1321C 2307.76,1288.52 2285.76,1244.85 2285.5,1190C 2287.13,1116.06 2321.8,1064.39 2389.5,1035C 2425.39,1021.02 2462.56,1013.19 2501,1011.5C 2564.22,1009.51 2626.72,1017.18 2688.5,1034.5C 2693.12,926.956 2641.62,870.956 2534,866.5C 2527.4,866.59 2520.73,866.59 2514,866.5C 2471.26,867.058 2430.43,876.225 2391.5,894C 2370.94,897.292 2356.44,889.125 2348,869.5C 2343.25,848.83 2350.42,833.997 2369.5,825C 2420.97,802.74 2474.63,792.24 2530.5,793.5 Z M 2516.5,1072.5 C 2574.81,1071.83 2632.47,1079.5 2689.5,1095.5C 2702.69,1203.09 2656.69,1268.92 2551.5,1293C 2519.2,1299.63 2486.87,1298.63 2454.5,1290C 2428.47,1282.6 2406.63,1268.77 2389,1248.5C 2371,1223.18 2365,1195.18 2371,1164.5C 2377.38,1135.57 2393.22,1113.4 2418.5,1098C 2449.2,1081.66 2481.86,1073.16 2516.5,1072.5 Z"/></g>
<g><path style="opacity:0.959" fill="#717174" d="M 3735.5,826.5 C 3747.22,826.113 3758.89,826.613 3770.5,828C 3784.24,833.858 3788.74,844.025 3784,858.5C 3781.69,863.306 3778.19,866.973 3773.5,869.5C 3777.19,874.025 3780.69,878.692 3784,883.5C 3784.95,892.459 3781.12,895.293 3772.5,892C 3767.62,885.742 3762.62,879.575 3757.5,873.5C 3753.55,872.509 3749.55,872.176 3745.5,872.5C 3745.91,878.621 3745.41,884.621 3744,890.5C 3739.25,894.759 3734.91,894.426 3731,889.5C 3730.33,869.833 3730.33,850.167 3731,830.5C 3732.4,828.93 3733.9,827.596 3735.5,826.5 Z M 3745.5,840.5 C 3745.5,846.5 3745.5,852.5 3745.5,858.5C 3752.59,858.884 3759.59,858.384 3766.5,857C 3772.14,850.884 3771.47,845.551 3764.5,841C 3758.18,840.5 3751.84,840.334 3745.5,840.5 Z"/></g>
</svg>
