<?xml version="1.0" encoding="UTF-8"?>
<!DOCTYPE svg PUBLIC "-//W3C//DTD SVG 1.1//EN" "http://www.w3.org/Graphics/SVG/1.1/DTD/svg11.dtd">
<svg xmlns="http://www.w3.org/2000/svg" version="1.1" width="225px" height="225px" style="shape-rendering:geometricPrecision; text-rendering:geometricPrecision; image-rendering:optimizeQuality; fill-rule:evenodd; clip-rule:evenodd" xmlns:xlink="http://www.w3.org/1999/xlink">
<g><path style="opacity:1" fill="#fefefe" d="M -0.5,-0.5 C 74.5,-0.5 149.5,-0.5 224.5,-0.5C 224.5,74.5 224.5,149.5 224.5,224.5C 149.5,224.5 74.5,224.5 -0.5,224.5C -0.5,149.5 -0.5,74.5 -0.5,-0.5 Z"/></g>
<g><path style="opacity:1" fill="#3987bb" d="M 142.5,46.5 C 142.811,47.4778 143.478,48.1445 144.5,48.5C 145.499,58.8119 145.832,69.1452 145.5,79.5C 144.673,74.3491 144.173,69.0158 144,63.5C 143.503,66.146 143.336,68.8127 143.5,71.5C 137.491,71.6662 131.491,71.4995 125.5,71C 125,70.5 124.5,70 124,69.5C 123.044,70.8941 121.711,71.5607 120,71.5C 117.138,70.2364 114.305,70.2364 111.5,71.5C 120.183,64.137 128.516,56.3037 136.5,48C 138.345,46.872 140.345,46.372 142.5,46.5 Z"/></g>
<g><path style="opacity:1" fill="#4db0f1" d="M 142.5,46.5 C 145.216,46.6785 147.883,47.1785 150.5,48C 159.777,52.9803 168.943,58.1469 178,63.5C 178.5,79.4965 178.667,95.4965 178.5,111.5C 177.669,98.3396 177.169,85.0063 177,71.5C 176.5,84.8292 176.333,98.1625 176.5,111.5C 175.506,101.013 175.172,90.3464 175.5,79.5C 166.014,79.0061 156.681,79.6728 147.5,81.5C 148.838,72.8014 148.671,64.1347 147,55.5C 146.5,68.8292 146.333,82.1625 146.5,95.5C 146.83,111.009 146.496,126.342 145.5,141.5C 145.83,121.66 145.497,101.993 144.5,82.5C 145.11,81.609 145.443,80.609 145.5,79.5C 145.832,69.1452 145.499,58.8119 144.5,48.5C 143.478,48.1445 142.811,47.4778 142.5,46.5 Z"/></g>
<g><path style="opacity:1" fill="#fbfcfc" d="M 143.5,83.5 C 144.833,102.5 144.833,121.5 143.5,140.5C 143.167,140.5 142.833,140.5 142.5,140.5C 131.808,131.814 120.808,123.481 109.5,115.5C 108.5,114.167 107.5,112.833 106.5,111.5C 118.615,101.935 130.949,92.6019 143.5,83.5 Z"/></g>
<g><path style="opacity:1" fill="#2c7eb7" d="M 145.5,79.5 C 145.443,80.609 145.11,81.609 144.5,82.5C 143.833,82.5 143.5,82.8333 143.5,83.5C 130.949,92.6019 118.615,101.935 106.5,111.5C 102.595,109.606 98.9284,107.272 95.5,104.5C 91.9919,101.615 88.6586,98.6149 85.5,95.5C 93.8403,87.1603 102.507,79.1603 111.5,71.5C 114.305,70.2364 117.138,70.2364 120,71.5C 121.711,71.5607 123.044,70.8941 124,69.5C 124.5,70 125,70.5 125.5,71C 131.491,71.4995 137.491,71.6662 143.5,71.5C 143.336,68.8127 143.503,66.146 144,63.5C 144.173,69.0158 144.673,74.3491 145.5,79.5 Z"/></g>
<g><path style="opacity:1" fill="#278cd2" d="M 85.5,95.5 C 88.6586,98.6149 91.9919,101.615 95.5,104.5C 98.9284,107.272 102.595,109.606 106.5,111.5C 107.5,112.833 108.5,114.167 109.5,115.5C 107.8,115.374 106.3,114.707 105,113.5C 94.8419,114.93 84.6752,116.263 74.5,117.5C 72.4677,116.952 71.4677,115.619 71.5,113.5C 69.7839,113.371 68.1172,113.038 66.5,112.5C 59.6093,106.112 52.776,99.4454 46,92.5C 45.3333,90.8333 45.3333,89.1667 46,87.5C 49.39,83.6068 53.2233,80.2735 57.5,77.5C 66.7847,81.9476 75.118,87.7809 82.5,95C 83.448,95.4828 84.448,95.6495 85.5,95.5 Z"/></g>
<g><path style="opacity:1" fill="#c6ebfe" d="M 143.5,83.5 C 143.5,82.8333 143.833,82.5 144.5,82.5C 145.497,101.993 145.83,121.66 145.5,141.5C 144.833,141.5 144.167,141.5 143.5,141.5C 143.5,141.167 143.5,140.833 143.5,140.5C 144.833,121.5 144.833,102.5 143.5,83.5 Z"/></g>
<g><path style="opacity:1" fill="#3ca8f1" d="M 176.5,111.5 C 176.5,116.833 176.5,122.167 176.5,127.5C 167.833,127.5 159.167,127.5 150.5,127.5C 150.813,130.247 150.48,132.914 149.5,135.5C 149.157,121.808 148.157,108.475 146.5,95.5C 146.333,82.1625 146.5,68.8292 147,55.5C 148.671,64.1347 148.838,72.8014 147.5,81.5C 156.681,79.6728 166.014,79.0061 175.5,79.5C 175.172,90.3464 175.506,101.013 176.5,111.5 Z"/></g>
<g><path style="opacity:1" fill="#1b86cf" d="M 109.5,115.5 C 120.808,123.481 131.808,131.814 142.5,140.5C 137.174,138.632 136.507,139.465 140.5,143C 136.484,143.326 135.151,141.66 136.5,138C 131,137.833 125.5,137.667 120,137.5C 113.993,137.545 108.16,138.212 102.5,139.5C 99.1863,136.485 97.8529,136.818 98.5,140.5C 94.0826,135.747 89.0826,131.747 83.5,128.5C 82.9101,127.234 82.4101,125.901 82,124.5C 79.2666,122.261 76.7666,119.928 74.5,117.5C 84.6752,116.263 94.8419,114.93 105,113.5C 106.3,114.707 107.8,115.374 109.5,115.5 Z"/></g>
<g><path style="opacity:1" fill="#1b73b0" d="M 66.5,112.5 C 68.1172,113.038 69.7839,113.371 71.5,113.5C 71.4677,115.619 72.4677,116.952 74.5,117.5C 76.7666,119.928 79.2666,122.261 82,124.5C 82.4101,125.901 82.9101,127.234 83.5,128.5C 76.0179,134.47 68.3513,140.303 60.5,146C 58.7412,146.798 57.0745,146.631 55.5,145.5C 52.5256,142.862 49.5256,140.195 46.5,137.5C 45.1667,135.167 45.1667,132.833 46.5,130.5C 52.8882,124.108 59.5549,118.108 66.5,112.5 Z"/></g>
<g><path style="opacity:1" fill="#30a3f1" d="M 178.5,111.5 C 178.667,127.503 178.5,143.503 178,159.5C 176.19,163.144 173.356,165.477 169.5,166.5C 169.5,165.5 169.5,164.5 169.5,163.5C 170.978,163.762 172.311,163.429 173.5,162.5C 171.5,161.667 169.5,160.833 167.5,160C 169.874,160.402 172.207,160.236 174.5,159.5C 175.991,154.243 176.491,148.91 176,143.5C 168.106,145.449 159.939,146.116 151.5,145.5C 151.662,143.473 151.495,141.473 151,139.5C 149.257,150.79 149.091,162.123 150.5,173.5C 152.071,172.691 153.738,172.357 155.5,172.5C 150.845,176.329 145.511,178.162 139.5,178C 138.944,177.617 138.611,177.117 138.5,176.5C 140.833,176.5 143.167,176.5 145.5,176.5C 145.179,165.252 145.513,154.085 146.5,143C 145.263,142.768 144.263,142.268 143.5,141.5C 144.167,141.5 144.833,141.5 145.5,141.5C 146.496,126.342 146.83,111.009 146.5,95.5C 148.157,108.475 149.157,121.808 149.5,135.5C 150.48,132.914 150.813,130.247 150.5,127.5C 159.167,127.5 167.833,127.5 176.5,127.5C 176.5,122.167 176.5,116.833 176.5,111.5C 176.333,98.1625 176.5,84.8292 177,71.5C 177.169,85.0063 177.669,98.3396 178.5,111.5 Z"/></g>
<g><path style="opacity:1" fill="#279ff0" d="M 169.5,166.5 C 164.833,168.5 160.167,170.5 155.5,172.5C 153.738,172.357 152.071,172.691 150.5,173.5C 149.091,162.123 149.257,150.79 151,139.5C 151.495,141.473 151.662,143.473 151.5,145.5C 159.939,146.116 168.106,145.449 176,143.5C 176.491,148.91 175.991,154.243 174.5,159.5C 172.207,160.236 169.874,160.402 167.5,160C 169.5,160.833 171.5,161.667 173.5,162.5C 172.311,163.429 170.978,163.762 169.5,163.5C 169.5,164.5 169.5,165.5 169.5,166.5 Z"/></g>
<g><path style="opacity:1" fill="#117fce" d="M 142.5,140.5 C 142.833,140.5 143.167,140.5 143.5,140.5C 143.5,140.833 143.5,141.167 143.5,141.5C 144.263,142.268 145.263,142.768 146.5,143C 145.513,154.085 145.179,165.252 145.5,176.5C 143.167,176.5 140.833,176.5 138.5,176.5C 124.843,164.842 111.509,152.842 98.5,140.5C 97.8529,136.818 99.1863,136.485 102.5,139.5C 108.16,138.212 113.993,137.545 120,137.5C 125.5,137.667 131,137.833 136.5,138C 135.151,141.66 136.484,143.326 140.5,143C 136.507,139.465 137.174,138.632 142.5,140.5 Z"/></g>
</svg>
