<?xml version="1.0" encoding="UTF-8"?>
<!DOCTYPE svg PUBLIC "-//W3C//DTD SVG 1.1//EN" "http://www.w3.org/Graphics/SVG/1.1/DTD/svg11.dtd">
<svg xmlns="http://www.w3.org/2000/svg" version="1.1" width="900px" height="560px" style="shape-rendering:geometricPrecision; text-rendering:geometricPrecision; image-rendering:optimizeQuality; fill-rule:evenodd; clip-rule:evenodd" xmlns:xlink="http://www.w3.org/1999/xlink">
<g><path style="opacity:1" fill="#f6f6f6" d="M -0.5,-0.5 C 299.5,-0.5 599.5,-0.5 899.5,-0.5C 899.5,92.8333 899.5,186.167 899.5,279.5C 892.833,279.5 886.167,279.5 879.5,279.5C 879.5,272.833 879.5,266.167 879.5,259.5C 872.833,259.5 866.167,259.5 859.5,259.5C 859.5,252.833 859.5,246.167 859.5,239.5C 852.833,239.5 846.167,239.5 839.5,239.5C 839.5,232.833 839.5,226.167 839.5,219.5C 832.833,219.5 826.167,219.5 819.5,219.5C 819.5,212.833 819.5,206.167 819.5,199.5C 812.833,199.5 806.167,199.5 799.5,199.5C 799.5,192.833 799.5,186.167 799.5,179.5C 792.833,179.5 786.167,179.5 779.5,179.5C 779.5,172.833 779.5,166.167 779.5,159.5C 772.833,159.5 766.167,159.5 759.5,159.5C 759.5,152.833 759.5,146.167 759.5,139.5C 752.833,139.5 746.167,139.5 739.5,139.5C 739.5,132.833 739.5,126.167 739.5,119.5C 732.833,119.5 726.167,119.5 719.5,119.5C 719.5,112.833 719.5,106.167 719.5,99.5C 712.833,99.5 706.167,99.5 699.5,99.5C 699.5,92.8333 699.5,86.1667 699.5,79.5C 692.833,79.5 686.167,79.5 679.5,79.5C 679.5,72.8333 679.5,66.1667 679.5,59.5C 673.158,59.6662 666.825,59.4995 660.5,59C 659.522,52.5898 659.189,46.0898 659.5,39.5C 652.833,39.5 646.167,39.5 639.5,39.5C 639.5,32.8333 639.5,26.1667 639.5,19.5C 632.833,19.5 626.167,19.5 619.5,19.5C 619.5,23.8333 619.5,28.1667 619.5,32.5C 590.849,16.8341 560.183,7.66745 527.5,5C 471.148,4.04654 414.814,4.37987 358.5,6C 270.776,18.3847 213.609,66.8847 187,151.5C 183.049,165.255 180.382,179.255 179,193.5C 178.5,214.831 178.333,236.164 178.5,257.5C 198.833,257.5 219.167,257.5 239.5,257.5C 245.75,259.459 252.416,260.126 259.5,259.5C 259.5,266.167 259.5,272.833 259.5,279.5C 252.833,279.5 246.167,279.5 239.5,279.5C 239.5,284.5 239.5,289.5 239.5,294.5C 219.167,294.5 198.833,294.5 178.5,294.5C 178.333,314.836 178.5,335.169 179,355.5C 182.245,392.402 193.745,426.402 213.5,457.5C 209.146,459.348 204.48,460.015 199.5,459.5C 199.5,466.167 199.5,472.833 199.5,479.5C 206.167,479.5 212.833,479.5 219.5,479.5C 219.5,486.167 219.5,492.833 219.5,499.5C 226.167,499.5 232.833,499.5 239.5,499.5C 239.5,506.167 239.5,512.833 239.5,519.5C 246.167,519.5 252.833,519.5 259.5,519.5C 259.5,526.167 259.5,532.833 259.5,539.5C 266.167,539.5 272.833,539.5 279.5,539.5C 279.5,546.167 279.5,552.833 279.5,559.5C 186.167,559.5 92.8333,559.5 -0.5,559.5C -0.5,372.833 -0.5,186.167 -0.5,-0.5 Z"/></g>
<g><path style="opacity:1" fill="#fe0598" d="M 619.5,32.5 C 681.438,68.3895 715.272,122.39 721,194.5C 721.5,215.497 721.667,236.497 721.5,257.5C 700.833,257.5 680.167,257.5 659.5,257.5C 654.167,257.5 648.833,257.5 643.5,257.5C 643.864,235.807 643.364,214.141 642,192.5C 628.987,126.885 589.154,90.3848 522.5,83C 481.501,82.5 440.501,82.3333 399.5,82.5C 376.106,81.4237 353.439,84.9237 331.5,93C 327.278,94.9409 323.278,97.1076 319.5,99.5C 293.76,113.754 275.593,134.754 265,162.5C 261.65,171.917 259.316,181.583 258,191.5C 256.761,213.138 256.094,234.804 256,256.5C 250.593,257.473 245.093,257.807 239.5,257.5C 219.167,257.5 198.833,257.5 178.5,257.5C 178.333,236.164 178.5,214.831 179,193.5C 180.382,179.255 183.049,165.255 187,151.5C 213.609,66.8847 270.776,18.3847 358.5,6C 414.814,4.37987 471.148,4.04654 527.5,5C 560.183,7.66745 590.849,16.8341 619.5,32.5 Z"/></g>
<g><path style="opacity:1" fill="#f3f3f3" d="M 399.5,82.5 C 399.5,88.1667 399.5,93.8333 399.5,99.5C 406.167,99.5 412.833,99.5 419.5,99.5C 419.5,106.167 419.5,112.833 419.5,119.5C 426.167,119.5 432.833,119.5 439.5,119.5C 439.5,126.167 439.5,132.833 439.5,139.5C 446.167,139.5 452.833,139.5 459.5,139.5C 459.5,146.167 459.5,152.833 459.5,159.5C 466.167,159.5 472.833,159.5 479.5,159.5C 479.5,166.167 479.5,172.833 479.5,179.5C 486.167,179.5 492.833,179.5 499.5,179.5C 499.5,186.167 499.5,192.833 499.5,199.5C 506.167,199.5 512.833,199.5 519.5,199.5C 519.5,206.167 519.5,212.833 519.5,219.5C 512.833,219.5 506.167,219.5 499.5,219.5C 499.5,226.167 499.5,232.833 499.5,239.5C 492.833,239.5 486.167,239.5 479.5,239.5C 479.5,232.833 479.5,226.167 479.5,219.5C 472.833,219.5 466.167,219.5 459.5,219.5C 459.5,212.833 459.5,206.167 459.5,199.5C 452.833,199.5 446.167,199.5 439.5,199.5C 439.5,192.833 439.5,186.167 439.5,179.5C 432.833,179.5 426.167,179.5 419.5,179.5C 419.5,172.833 419.5,166.167 419.5,159.5C 412.833,159.5 406.167,159.5 399.5,159.5C 399.5,152.833 399.5,146.167 399.5,139.5C 392.833,139.5 386.167,139.5 379.5,139.5C 379.5,132.833 379.5,126.167 379.5,119.5C 372.833,119.5 366.167,119.5 359.5,119.5C 359.5,112.833 359.5,106.167 359.5,99.5C 352.833,99.5 346.167,99.5 339.5,99.5C 339.5,106.167 339.5,112.833 339.5,119.5C 332.833,119.5 326.167,119.5 319.5,119.5C 319.5,112.833 319.5,106.167 319.5,99.5C 323.278,97.1076 327.278,94.9409 331.5,93C 353.439,84.9237 376.106,81.4237 399.5,82.5 Z"/></g>
<g><path style="opacity:1" fill="#f8f8f8" d="M 899.5,279.5 C 899.5,326.167 899.5,372.833 899.5,419.5C 892.833,419.5 886.167,419.5 879.5,419.5C 879.5,412.833 879.5,406.167 879.5,399.5C 872.833,399.5 866.167,399.5 859.5,399.5C 859.5,392.833 859.5,386.167 859.5,379.5C 852.833,379.5 846.167,379.5 839.5,379.5C 839.5,372.833 839.5,366.167 839.5,359.5C 832.833,359.5 826.167,359.5 819.5,359.5C 819.5,352.833 819.5,346.167 819.5,339.5C 812.833,339.5 806.167,339.5 799.5,339.5C 799.5,332.833 799.5,326.167 799.5,319.5C 792.833,319.5 786.167,319.5 779.5,319.5C 779.5,312.833 779.5,306.167 779.5,299.5C 772.833,299.5 766.167,299.5 759.5,299.5C 759.5,292.833 759.5,286.167 759.5,279.5C 752.833,279.5 746.167,279.5 739.5,279.5C 739.5,272.833 739.5,266.167 739.5,259.5C 732.825,259.666 726.158,259.5 719.5,259C 720.416,258.722 721.082,258.222 721.5,257.5C 721.667,236.497 721.5,215.497 721,194.5C 715.272,122.39 681.438,68.3895 619.5,32.5C 619.5,28.1667 619.5,23.8333 619.5,19.5C 626.167,19.5 632.833,19.5 639.5,19.5C 639.5,26.1667 639.5,32.8333 639.5,39.5C 646.167,39.5 652.833,39.5 659.5,39.5C 659.189,46.0898 659.522,52.5898 660.5,59C 666.825,59.4995 673.158,59.6662 679.5,59.5C 679.5,66.1667 679.5,72.8333 679.5,79.5C 686.167,79.5 692.833,79.5 699.5,79.5C 699.5,86.1667 699.5,92.8333 699.5,99.5C 706.167,99.5 712.833,99.5 719.5,99.5C 719.5,106.167 719.5,112.833 719.5,119.5C 726.167,119.5 732.833,119.5 739.5,119.5C 739.5,126.167 739.5,132.833 739.5,139.5C 746.167,139.5 752.833,139.5 759.5,139.5C 759.5,146.167 759.5,152.833 759.5,159.5C 766.167,159.5 772.833,159.5 779.5,159.5C 779.5,166.167 779.5,172.833 779.5,179.5C 786.167,179.5 792.833,179.5 799.5,179.5C 799.5,186.167 799.5,192.833 799.5,199.5C 806.167,199.5 812.833,199.5 819.5,199.5C 819.5,206.167 819.5,212.833 819.5,219.5C 826.167,219.5 832.833,219.5 839.5,219.5C 839.5,226.167 839.5,232.833 839.5,239.5C 846.167,239.5 852.833,239.5 859.5,239.5C 859.5,246.167 859.5,252.833 859.5,259.5C 866.167,259.5 872.833,259.5 879.5,259.5C 879.5,266.167 879.5,272.833 879.5,279.5C 886.167,279.5 892.833,279.5 899.5,279.5 Z"/></g>
<g><path style="opacity:1" fill="#f7f6f7" d="M 399.5,82.5 C 440.501,82.3333 481.501,82.5 522.5,83C 589.154,90.3848 628.987,126.885 642,192.5C 643.364,214.141 643.864,235.807 643.5,257.5C 648.833,257.5 654.167,257.5 659.5,257.5C 653.25,259.459 646.584,260.126 639.5,259.5C 639.5,266.167 639.5,272.833 639.5,279.5C 646.167,279.5 652.833,279.5 659.5,279.5C 659.5,284.5 659.5,289.5 659.5,294.5C 654.167,294.5 648.833,294.5 643.5,294.5C 643.667,312.503 643.5,330.503 643,348.5C 640.104,389.478 622.271,421.978 589.5,446C 575.047,455.207 559.38,461.374 542.5,464.5C 541.5,464.5 540.5,464.5 539.5,464.5C 539.5,462.833 539.5,461.167 539.5,459.5C 532.833,459.5 526.167,459.5 519.5,459.5C 519.5,452.833 519.5,446.167 519.5,439.5C 512.833,439.5 506.167,439.5 499.5,439.5C 499.5,446.167 499.5,452.833 499.5,459.5C 492.833,459.5 486.167,459.5 479.5,459.5C 479.5,452.833 479.5,446.167 479.5,439.5C 472.833,439.5 466.167,439.5 459.5,439.5C 459.5,446.167 459.5,452.833 459.5,459.5C 452.833,459.5 446.167,459.5 439.5,459.5C 439.5,452.833 439.5,446.167 439.5,439.5C 432.833,439.5 426.167,439.5 419.5,439.5C 419.5,446.167 419.5,452.833 419.5,459.5C 412.833,459.5 406.167,459.5 399.5,459.5C 399.5,452.833 399.5,446.167 399.5,439.5C 392.833,439.5 386.167,439.5 379.5,439.5C 379.5,446.167 379.5,452.833 379.5,459.5C 372.833,459.5 366.167,459.5 359.5,459.5C 359.5,452.833 359.5,446.167 359.5,439.5C 352.833,439.5 346.167,439.5 339.5,439.5C 339.176,432.646 339.509,425.979 340.5,419.5C 360.716,429.363 382.049,432.863 404.5,430C 421.188,428.939 436.188,423.439 449.5,413.5C 459.689,421.093 471.023,426.26 483.5,429C 510.172,434.05 535.506,430.383 559.5,418C 584.839,400.844 599.673,377.01 604,346.5C 604.972,296.801 604.638,247.135 603,197.5C 594.282,156.949 569.782,132.283 529.5,123.5C 528.791,122.596 527.791,122.263 526.5,122.5C 526.5,194.167 526.5,265.833 526.5,337.5C 526.07,344.887 522.403,349.72 515.5,352C 508.285,353.113 501.285,352.446 494.5,350C 490.742,346.739 488.908,342.572 489,337.5C 488.5,310.502 488.333,283.502 488.5,256.5C 462.5,256.5 436.5,256.5 410.5,256.5C 410.976,285.563 410.476,314.563 409,343.5C 406.993,347.593 403.827,350.427 399.5,352C 394.167,352.667 388.833,352.667 383.5,352C 376.286,349.42 372.619,344.254 372.5,336.5C 372.5,265.167 372.5,193.833 372.5,122.5C 371.209,122.263 370.209,122.596 369.5,123.5C 337.595,130.536 314.762,148.869 301,178.5C 298.928,184.048 297.262,189.715 296,195.5C 294.356,246.129 294.023,296.796 295,347.5C 297.347,365.052 303.514,381.052 313.5,395.5C 313.33,396.822 313.663,397.989 314.5,399C 309.511,399.499 304.511,399.666 299.5,399.5C 299.5,406.167 299.5,412.833 299.5,419.5C 306.167,419.5 312.833,419.5 319.5,419.5C 319.5,426.167 319.5,432.833 319.5,439.5C 313.5,439.5 307.5,439.5 301.5,439.5C 282.96,424.125 270.127,404.792 263,381.5C 259.842,370.711 257.842,359.711 257,348.5C 256.667,330.833 256.333,313.167 256,295.5C 250.593,294.527 245.093,294.193 239.5,294.5C 239.5,289.5 239.5,284.5 239.5,279.5C 246.167,279.5 252.833,279.5 259.5,279.5C 259.5,272.833 259.5,266.167 259.5,259.5C 252.416,260.126 245.75,259.459 239.5,257.5C 245.093,257.807 250.593,257.473 256,256.5C 256.094,234.804 256.761,213.138 258,191.5C 259.316,181.583 261.65,171.917 265,162.5C 275.593,134.754 293.76,113.754 319.5,99.5C 319.5,106.167 319.5,112.833 319.5,119.5C 326.167,119.5 332.833,119.5 339.5,119.5C 339.5,112.833 339.5,106.167 339.5,99.5C 346.167,99.5 352.833,99.5 359.5,99.5C 359.5,106.167 359.5,112.833 359.5,119.5C 366.167,119.5 372.833,119.5 379.5,119.5C 379.5,126.167 379.5,132.833 379.5,139.5C 386.167,139.5 392.833,139.5 399.5,139.5C 399.5,146.167 399.5,152.833 399.5,159.5C 406.167,159.5 412.833,159.5 419.5,159.5C 419.5,166.167 419.5,172.833 419.5,179.5C 426.167,179.5 432.833,179.5 439.5,179.5C 439.5,186.167 439.5,192.833 439.5,199.5C 446.167,199.5 452.833,199.5 459.5,199.5C 459.5,206.167 459.5,212.833 459.5,219.5C 466.167,219.5 472.833,219.5 479.5,219.5C 479.5,226.167 479.5,232.833 479.5,239.5C 486.167,239.5 492.833,239.5 499.5,239.5C 499.5,232.833 499.5,226.167 499.5,219.5C 506.167,219.5 512.833,219.5 519.5,219.5C 519.5,212.833 519.5,206.167 519.5,199.5C 512.833,199.5 506.167,199.5 499.5,199.5C 499.5,192.833 499.5,186.167 499.5,179.5C 492.833,179.5 486.167,179.5 479.5,179.5C 479.5,172.833 479.5,166.167 479.5,159.5C 472.833,159.5 466.167,159.5 459.5,159.5C 459.5,152.833 459.5,146.167 459.5,139.5C 452.833,139.5 446.167,139.5 439.5,139.5C 439.5,132.833 439.5,126.167 439.5,119.5C 432.833,119.5 426.167,119.5 419.5,119.5C 419.5,112.833 419.5,106.167 419.5,99.5C 412.833,99.5 406.167,99.5 399.5,99.5C 399.5,93.8333 399.5,88.1667 399.5,82.5 Z"/></g>
<g><path style="opacity:1" fill="#fa3eb1" d="M 529.5,123.5 C 528.883,123.611 528.383,123.944 528,124.5C 527.833,195.668 527.333,266.668 526.5,337.5C 526.5,265.833 526.5,194.167 526.5,122.5C 527.791,122.263 528.791,122.596 529.5,123.5 Z"/></g>
<g><path style="opacity:1" fill="#fb79c5" d="M 369.5,123.5 C 370.209,122.596 371.209,122.263 372.5,122.5C 372.5,193.833 372.5,265.167 372.5,336.5C 372.166,265.327 371.166,194.327 369.5,123.5 Z"/></g>
<g><path style="opacity:1" fill="#fe0398" d="M 369.5,123.5 C 371.166,194.327 372.166,265.327 372.5,336.5C 372.619,344.254 376.286,349.42 383.5,352C 388.833,352.667 394.167,352.667 399.5,352C 403.827,350.427 406.993,347.593 409,343.5C 410.476,314.563 410.976,285.563 410.5,256.5C 436.5,256.5 462.5,256.5 488.5,256.5C 488.333,283.502 488.5,310.502 489,337.5C 488.908,342.572 490.742,346.739 494.5,350C 501.285,352.446 508.285,353.113 515.5,352C 522.403,349.72 526.07,344.887 526.5,337.5C 527.333,266.668 527.833,195.668 528,124.5C 528.383,123.944 528.883,123.611 529.5,123.5C 569.782,132.283 594.282,156.949 603,197.5C 604.638,247.135 604.972,296.801 604,346.5C 599.673,377.01 584.839,400.844 559.5,418C 535.506,430.383 510.172,434.05 483.5,429C 471.023,426.26 459.689,421.093 449.5,413.5C 436.188,423.439 421.188,428.939 404.5,430C 382.049,432.863 360.716,429.363 340.5,419.5C 330.285,412.957 321.285,404.957 313.5,395.5C 303.514,381.052 297.347,365.052 295,347.5C 294.023,296.796 294.356,246.129 296,195.5C 297.262,189.715 298.928,184.048 301,178.5C 314.762,148.869 337.595,130.536 369.5,123.5 Z"/></g>
<g><path style="opacity:1" fill="#f5f5f5" d="M 659.5,257.5 C 680.167,257.5 700.833,257.5 721.5,257.5C 721.082,258.222 720.416,258.722 719.5,259C 726.158,259.5 732.825,259.666 739.5,259.5C 739.5,266.167 739.5,272.833 739.5,279.5C 746.167,279.5 752.833,279.5 759.5,279.5C 759.5,286.167 759.5,292.833 759.5,299.5C 766.167,299.5 772.833,299.5 779.5,299.5C 779.5,306.167 779.5,312.833 779.5,319.5C 786.167,319.5 792.833,319.5 799.5,319.5C 799.5,326.167 799.5,332.833 799.5,339.5C 806.167,339.5 812.833,339.5 819.5,339.5C 819.5,346.167 819.5,352.833 819.5,359.5C 826.167,359.5 832.833,359.5 839.5,359.5C 839.5,366.167 839.5,372.833 839.5,379.5C 846.167,379.5 852.833,379.5 859.5,379.5C 859.5,386.167 859.5,392.833 859.5,399.5C 866.167,399.5 872.833,399.5 879.5,399.5C 879.5,406.167 879.5,412.833 879.5,419.5C 886.167,419.5 892.833,419.5 899.5,419.5C 899.5,466.167 899.5,512.833 899.5,559.5C 879.5,559.5 859.5,559.5 839.5,559.5C 839.5,552.833 839.5,546.167 839.5,539.5C 832.833,539.5 826.167,539.5 819.5,539.5C 819.5,532.833 819.5,526.167 819.5,519.5C 812.833,519.5 806.167,519.5 799.5,519.5C 799.5,512.833 799.5,506.167 799.5,499.5C 792.833,499.5 786.167,499.5 779.5,499.5C 779.5,492.833 779.5,486.167 779.5,479.5C 772.833,479.5 766.167,479.5 759.5,479.5C 759.5,472.833 759.5,466.167 759.5,459.5C 752.833,459.5 746.167,459.5 739.5,459.5C 739.5,452.833 739.5,446.167 739.5,439.5C 732.833,439.5 726.167,439.5 719.5,439.5C 719.5,432.833 719.5,426.167 719.5,419.5C 715.4,419.763 711.4,419.43 707.5,418.5C 715.638,396.942 720.138,374.608 721,351.5C 721.5,332.503 721.667,313.503 721.5,294.5C 700.833,294.5 680.167,294.5 659.5,294.5C 659.5,289.5 659.5,284.5 659.5,279.5C 652.833,279.5 646.167,279.5 639.5,279.5C 639.5,272.833 639.5,266.167 639.5,259.5C 646.584,260.126 653.25,259.459 659.5,257.5 Z"/></g>
<g><path style="opacity:1" fill="#fe0598" d="M 239.5,294.5 C 245.093,294.193 250.593,294.527 256,295.5C 256.333,313.167 256.667,330.833 257,348.5C 257.842,359.711 259.842,370.711 263,381.5C 270.127,404.792 282.96,424.125 301.5,439.5C 322.985,456.726 347.651,466.226 375.5,468C 423.5,468.667 471.5,468.667 519.5,468C 527.432,467.676 535.099,466.509 542.5,464.5C 559.38,461.374 575.047,455.207 589.5,446C 622.271,421.978 640.104,389.478 643,348.5C 643.5,330.503 643.667,312.503 643.5,294.5C 648.833,294.5 654.167,294.5 659.5,294.5C 680.167,294.5 700.833,294.5 721.5,294.5C 721.667,313.503 721.5,332.503 721,351.5C 720.138,374.608 715.638,396.942 707.5,418.5C 701.823,432.855 694.823,446.521 686.5,459.5C 646.149,510.691 593.149,539.524 527.5,546C 501.833,546.167 476.167,546.333 450.5,546.5C 420.15,546.606 389.817,546.106 359.5,545C 296.811,538.517 248.144,509.351 213.5,457.5C 193.745,426.402 182.245,392.402 179,355.5C 178.5,335.169 178.333,314.836 178.5,294.5C 198.833,294.5 219.167,294.5 239.5,294.5 Z"/></g>
<g><path style="opacity:1" fill="#f9f9f9" d="M 707.5,418.5 C 711.4,419.43 715.4,419.763 719.5,419.5C 719.5,426.167 719.5,432.833 719.5,439.5C 726.167,439.5 732.833,439.5 739.5,439.5C 739.5,446.167 739.5,452.833 739.5,459.5C 746.167,459.5 752.833,459.5 759.5,459.5C 759.5,466.167 759.5,472.833 759.5,479.5C 766.167,479.5 772.833,479.5 779.5,479.5C 779.5,486.167 779.5,492.833 779.5,499.5C 786.167,499.5 792.833,499.5 799.5,499.5C 799.5,506.167 799.5,512.833 799.5,519.5C 806.167,519.5 812.833,519.5 819.5,519.5C 819.5,526.167 819.5,532.833 819.5,539.5C 826.167,539.5 832.833,539.5 839.5,539.5C 839.5,546.167 839.5,552.833 839.5,559.5C 819.5,559.5 799.5,559.5 779.5,559.5C 779.5,552.833 779.5,546.167 779.5,539.5C 772.833,539.5 766.167,539.5 759.5,539.5C 759.5,532.833 759.5,526.167 759.5,519.5C 752.833,519.5 746.167,519.5 739.5,519.5C 739.5,512.833 739.5,506.167 739.5,499.5C 732.833,499.5 726.167,499.5 719.5,499.5C 719.5,492.833 719.5,486.167 719.5,479.5C 712.833,479.5 706.167,479.5 699.5,479.5C 699.5,472.833 699.5,466.167 699.5,459.5C 694.956,459.66 690.622,459.66 686.5,459.5C 694.823,446.521 701.823,432.855 707.5,418.5 Z"/></g>
<g><path style="opacity:1" fill="#f2f2f2" d="M 313.5,395.5 C 321.285,404.957 330.285,412.957 340.5,419.5C 339.509,425.979 339.176,432.646 339.5,439.5C 346.167,439.5 352.833,439.5 359.5,439.5C 359.5,446.167 359.5,452.833 359.5,459.5C 366.167,459.5 372.833,459.5 379.5,459.5C 379.5,452.833 379.5,446.167 379.5,439.5C 386.167,439.5 392.833,439.5 399.5,439.5C 399.5,446.167 399.5,452.833 399.5,459.5C 406.167,459.5 412.833,459.5 419.5,459.5C 419.5,452.833 419.5,446.167 419.5,439.5C 426.167,439.5 432.833,439.5 439.5,439.5C 439.5,446.167 439.5,452.833 439.5,459.5C 446.167,459.5 452.833,459.5 459.5,459.5C 459.5,452.833 459.5,446.167 459.5,439.5C 466.167,439.5 472.833,439.5 479.5,439.5C 479.5,446.167 479.5,452.833 479.5,459.5C 486.167,459.5 492.833,459.5 499.5,459.5C 499.5,452.833 499.5,446.167 499.5,439.5C 506.167,439.5 512.833,439.5 519.5,439.5C 519.5,446.167 519.5,452.833 519.5,459.5C 526.167,459.5 532.833,459.5 539.5,459.5C 539.5,461.167 539.5,462.833 539.5,464.5C 540.5,464.5 541.5,464.5 542.5,464.5C 535.099,466.509 527.432,467.676 519.5,468C 471.5,468.667 423.5,468.667 375.5,468C 347.651,466.226 322.985,456.726 301.5,439.5C 307.5,439.5 313.5,439.5 319.5,439.5C 319.5,432.833 319.5,426.167 319.5,419.5C 312.833,419.5 306.167,419.5 299.5,419.5C 299.5,412.833 299.5,406.167 299.5,399.5C 304.511,399.666 309.511,399.499 314.5,399C 313.663,397.989 313.33,396.822 313.5,395.5 Z"/></g>
<g><path style="opacity:1" fill="#f3f3f3" d="M 213.5,457.5 C 248.144,509.351 296.811,538.517 359.5,545C 389.817,546.106 420.15,546.606 450.5,546.5C 476.167,546.333 501.833,546.167 527.5,546C 593.149,539.524 646.149,510.691 686.5,459.5C 690.622,459.66 694.956,459.66 699.5,459.5C 699.5,466.167 699.5,472.833 699.5,479.5C 706.167,479.5 712.833,479.5 719.5,479.5C 719.5,486.167 719.5,492.833 719.5,499.5C 726.167,499.5 732.833,499.5 739.5,499.5C 739.5,506.167 739.5,512.833 739.5,519.5C 746.167,519.5 752.833,519.5 759.5,519.5C 759.5,526.167 759.5,532.833 759.5,539.5C 766.167,539.5 772.833,539.5 779.5,539.5C 779.5,546.167 779.5,552.833 779.5,559.5C 612.833,559.5 446.167,559.5 279.5,559.5C 279.5,552.833 279.5,546.167 279.5,539.5C 272.833,539.5 266.167,539.5 259.5,539.5C 259.5,532.833 259.5,526.167 259.5,519.5C 252.833,519.5 246.167,519.5 239.5,519.5C 239.5,512.833 239.5,506.167 239.5,499.5C 232.833,499.5 226.167,499.5 219.5,499.5C 219.5,492.833 219.5,486.167 219.5,479.5C 212.833,479.5 206.167,479.5 199.5,479.5C 199.5,472.833 199.5,466.167 199.5,459.5C 204.48,460.015 209.146,459.348 213.5,457.5 Z"/></g>
</svg>
