<?xml version="1.0" encoding="UTF-8"?>
<!DOCTYPE svg PUBLIC "-//W3C//DTD SVG 1.1//EN" "http://www.w3.org/Graphics/SVG/1.1/DTD/svg11.dtd">
<svg xmlns="http://www.w3.org/2000/svg" version="1.1" width="1024px" height="1024px" style="shape-rendering:geometricPrecision; text-rendering:geometricPrecision; image-rendering:optimizeQuality; fill-rule:evenodd; clip-rule:evenodd" xmlns:xlink="http://www.w3.org/1999/xlink">
<g><path style="opacity:0.998" fill="#00adef" d="M 1008.5,-0.5 C 1011.17,-0.5 1013.83,-0.5 1016.5,-0.5C 1016.5,160.833 1016.5,322.167 1016.5,483.5C 832.499,484.717 648.499,486.05 464.5,487.5C 464.5,351.5 464.5,215.5 464.5,79.5C 646.002,53.0955 827.336,26.4288 1008.5,-0.5 Z"/></g>
<g><path style="opacity:0.996" fill="#00adef" d="M -0.5,490.5 C -0.5,374.833 -0.5,259.167 -0.5,143.5C 138.157,124.501 276.824,105.501 415.5,86.5C 415.5,220.5 415.5,354.5 415.5,488.5C 276.833,489.152 138.167,489.819 -0.5,490.5 Z"/></g>
<g><path style="opacity:0.996" fill="#00adef" d="M -0.5,530.5 C 138.164,531.664 276.831,532.664 415.5,533.5C 415.5,667.5 415.5,801.5 415.5,935.5C 276.86,916.313 138.193,897.313 -0.5,878.5C -0.5,762.5 -0.5,646.5 -0.5,530.5 Z"/></g>
<g><path style="opacity:0.997" fill="#00adef" d="M 463.5,536.5 C 647.834,536.458 832.168,536.791 1016.5,537.5C 1016.5,698.167 1016.5,858.833 1016.5,1019.5C 832.513,993.407 648.513,967.407 464.5,941.5C 464.244,806.5 463.911,671.5 463.5,536.5 Z"/></g>
</svg>
