<?xml version="1.0" encoding="UTF-8"?>
<!DOCTYPE svg PUBLIC "-//W3C//DTD SVG 1.1//EN" "http://www.w3.org/Graphics/SVG/1.1/DTD/svg11.dtd">
<svg xmlns="http://www.w3.org/2000/svg" version="1.1" width="2000px" height="1080px" style="shape-rendering:geometricPrecision; text-rendering:geometricPrecision; image-rendering:optimizeQuality; fill-rule:evenodd; clip-rule:evenodd" xmlns:xlink="http://www.w3.org/1999/xlink">
<g><path style="opacity:0.967" fill="#33383d" d="M 979.5,204.5 C 1067.42,200.201 1134.25,235.201 1180,309.5C 1215.33,376.833 1215.33,444.167 1180,511.5C 1139.17,579.023 1079,614.357 999.5,617.5C 919.997,614.357 859.83,579.023 819,511.5C 783.667,444.167 783.667,376.833 819,309.5C 855.354,248.556 908.854,213.556 979.5,204.5 Z M 984.5,217.5 C 1066.54,215.422 1128.37,249.422 1170,319.5C 1200.28,380.995 1199.95,442.328 1169,503.5C 1121.22,580.796 1052.06,612.963 961.5,600C 895.669,584.493 848.836,545.993 821,484.5C 794.075,411.623 804.741,344.956 853,284.5C 888.167,245.168 932,222.835 984.5,217.5 Z"/></g>
<g><path style="opacity:0.991" fill="#32373c" d="M 985.5,238.5 C 1035.27,235.644 1078.61,250.644 1115.5,283.5C 1097.33,285.338 1086.99,295.338 1084.5,313.5C 1086.7,327.902 1092.2,340.902 1101,352.5C 1114.19,373.474 1118.53,396.14 1114,420.5C 1105.53,452.578 1095.86,484.245 1085,515.5C 1064.27,453.796 1043.43,392.13 1022.5,330.5C 1030.17,329.333 1037.84,328.166 1045.5,327C 1050.47,320.555 1048.97,316.388 1041,314.5C 1011,317.154 981.001,317.154 951,314.5C 946.511,314.989 944.011,317.489 943.5,322C 943.99,323.982 944.99,325.649 946.5,327C 953.762,328.426 961.096,329.26 968.5,329.5C 977.36,354.079 986.027,378.745 994.5,403.5C 982.502,441.328 970.002,478.995 957,516.5C 935.444,454.499 914.277,392.332 893.5,330C 901.234,329.358 908.901,328.358 916.5,327C 919.864,323.974 920.364,320.474 918,316.5C 916.293,315.541 914.459,314.875 912.5,314.5C 893.547,316.358 874.547,316.858 855.5,316C 886.956,270.431 930.29,244.598 985.5,238.5 Z"/></g>
<g><path style="opacity:0.983" fill="#32373c" d="M 1149.5,327.5 C 1160.37,345.619 1167.21,365.285 1170,386.5C 1176.88,447.862 1157.72,499.362 1112.5,541C 1104.22,547.946 1095.39,554.112 1086,559.5C 1086.35,555.422 1087.35,551.422 1089,547.5C 1108.29,492.596 1127.29,437.596 1146,382.5C 1150.41,364.371 1151.58,346.038 1149.5,327.5 Z"/></g>
<g><path style="opacity:0.988" fill="#32373c" d="M 841.5,340.5 C 842.376,340.369 843.043,340.702 843.5,341.5C 871.259,416.262 898.259,490.928 924.5,565.5C 875.176,540.225 844.009,500.558 831,446.5C 823.917,410.081 827.417,374.747 841.5,340.5 Z"/></g>
<g><path style="opacity:0.989" fill="#32373c" d="M 1001.5,425.5 C 1002.75,425.577 1003.58,426.244 1004,427.5C 1021.8,476.09 1039.3,524.757 1056.5,573.5C 1021.75,584.471 986.755,585.304 951.5,576C 951.043,575.586 950.709,575.086 950.5,574.5C 967.709,524.873 984.709,475.206 1001.5,425.5 Z"/></g>
<g><path style="opacity:0.985" fill="#32373c" d="M 1023.5,667.5 C 1058.5,667.333 1093.5,667.5 1128.5,668C 1151.3,668.817 1169.8,677.984 1184,695.5C 1195.32,714.871 1195.32,734.204 1184,753.5C 1172.56,768.585 1157.39,777.418 1138.5,780C 1123.21,781.379 1107.87,781.879 1092.5,781.5C 1092.3,797.522 1092.8,813.522 1094,829.5C 1096.28,850.573 1108.11,859.573 1129.5,856.5C 1129.5,859.833 1129.5,863.167 1129.5,866.5C 1094.17,866.5 1058.83,866.5 1023.5,866.5C 1023.5,863.167 1023.5,859.833 1023.5,856.5C 1032.81,857.341 1041.48,855.507 1049.5,851C 1054.35,845.45 1057.19,838.95 1058,831.5C 1059.59,792.519 1059.92,753.519 1059,714.5C 1059.31,703.637 1056.64,693.637 1051,684.5C 1042.66,679.219 1033.5,676.886 1023.5,677.5C 1023.5,674.167 1023.5,670.833 1023.5,667.5 Z M 1092.5,685.5 C 1104.17,685.333 1115.84,685.5 1127.5,686C 1139.3,688.463 1147.47,695.297 1152,706.5C 1157.57,721.836 1156.24,736.503 1148,750.5C 1142.55,757.616 1135.38,761.783 1126.5,763C 1115.17,763.5 1103.84,763.667 1092.5,763.5C 1092.5,737.5 1092.5,711.5 1092.5,685.5 Z"/></g>
<g><path style="opacity:0.984" fill="#32373c" d="M 205.5,667.5 C 239.5,667.5 273.5,667.5 307.5,667.5C 307.5,670.833 307.5,674.167 307.5,677.5C 299.994,677.596 292.661,678.763 285.5,681C 281.378,683.906 279.044,687.906 278.5,693C 279.24,697.181 280.074,701.348 281,705.5C 291.667,738.167 302.333,770.833 313,803.5C 328.475,758.242 343.641,712.909 358.5,667.5C 362.351,666.971 365.851,667.638 369,669.5C 383.868,713.771 398.535,758.104 413,802.5C 424.384,771.017 435.384,739.35 446,707.5C 448.21,700.983 448.876,694.316 448,687.5C 445.342,682.578 441.175,679.744 435.5,679C 430.519,678.252 425.519,677.752 420.5,677.5C 420.5,674.167 420.5,670.833 420.5,667.5C 449.5,667.5 478.5,667.5 507.5,667.5C 507.5,670.833 507.5,674.167 507.5,677.5C 497.245,677.155 487.579,679.321 478.5,684C 471.437,691.283 466.27,699.783 463,709.5C 444.525,764.425 426.358,819.425 408.5,874.5C 405.833,874.5 403.167,874.5 400.5,874.5C 385.844,827.364 370.677,780.364 355,733.5C 339.136,780.093 323.469,826.759 308,873.5C 305.534,874.777 303.034,874.777 300.5,873.5C 281.975,816.065 263.141,758.732 244,701.5C 237.178,683.999 224.344,675.999 205.5,677.5C 205.5,674.167 205.5,670.833 205.5,667.5 Z"/></g>
<g><path style="opacity:0.983" fill="#32373c" d="M 558.5,707.5 C 597.247,704.888 627.747,719.221 650,750.5C 669.037,788.649 662.87,822.149 631.5,851C 601.263,873.511 568.263,878.511 532.5,866C 490.892,848.27 473.059,817.104 479,772.5C 486.989,745.174 504.156,726.007 530.5,715C 539.716,711.532 549.049,709.032 558.5,707.5 Z M 563.5,722.5 C 594.98,722.152 614.814,737.152 623,767.5C 627.301,786.91 625.968,805.91 619,824.5C 609.215,845.737 592.549,856.737 569,857.5C 542.376,856.205 525.042,842.872 517,817.5C 508.891,790.353 512.558,765.02 528,741.5C 537.441,730.532 549.274,724.199 563.5,722.5 Z"/></g>
<g><path style="opacity:0.976" fill="#32373c" d="M 1588.5,707.5 C 1602.54,707.293 1615.21,711.293 1626.5,719.5C 1629.28,715.941 1630.95,711.941 1631.5,707.5C 1634.83,707.5 1638.17,707.5 1641.5,707.5C 1641.5,725.833 1641.5,744.167 1641.5,762.5C 1637.89,762.789 1634.39,762.456 1631,761.5C 1627.14,734.954 1611.97,722.454 1585.5,724C 1572.98,726.503 1567.48,734.003 1569,746.5C 1572.14,753.641 1577.31,758.808 1584.5,762C 1603.1,770.298 1621.1,779.631 1638.5,790C 1659.03,809.865 1660.86,831.365 1644,854.5C 1623.98,872.703 1601.15,877.203 1575.5,868C 1569.09,865.38 1563.25,861.88 1558,857.5C 1554.73,862.036 1552.56,867.036 1551.5,872.5C 1548.17,872.5 1544.83,872.5 1541.5,872.5C 1541.5,851.167 1541.5,829.833 1541.5,808.5C 1544.83,808.5 1548.17,808.5 1551.5,808.5C 1556.74,841.613 1576.08,857.447 1609.5,856C 1627.19,851.117 1632.36,840.283 1625,823.5C 1622.5,821 1620,818.5 1617.5,816C 1599.78,806.141 1581.78,796.808 1563.5,788C 1540.92,771.535 1536.09,751.035 1549,726.5C 1559.59,714.618 1572.76,708.285 1588.5,707.5 Z"/></g>
<g><path style="opacity:0.977" fill="#32373c" d="M 1727.5,707.5 C 1741.31,707.603 1753.81,711.603 1765,719.5C 1767.36,716.112 1769.19,712.446 1770.5,708.5C 1773.77,707.513 1777.1,707.18 1780.5,707.5C 1780.5,725.833 1780.5,744.167 1780.5,762.5C 1776.83,762.5 1773.17,762.5 1769.5,762.5C 1767.83,744.95 1759.16,732.45 1743.5,725C 1734.72,722.758 1726.05,723.091 1717.5,726C 1703.17,736.026 1702.84,746.693 1716.5,758C 1734.68,767.589 1753.01,776.922 1771.5,786C 1795.69,803.722 1800.19,825.555 1785,851.5C 1767.02,870.792 1745.18,876.958 1719.5,870C 1711.34,867.339 1703.84,863.506 1697,858.5C 1695.23,859.34 1693.9,860.673 1693,862.5C 1691.83,865.5 1690.67,868.5 1689.5,871.5C 1686.23,872.487 1682.9,872.82 1679.5,872.5C 1679.5,851.167 1679.5,829.833 1679.5,808.5C 1683.17,808.5 1686.83,808.5 1690.5,808.5C 1693.35,834.181 1707.35,850.015 1732.5,856C 1742.2,857.76 1751.2,856.094 1759.5,851C 1770.08,840.409 1770.08,829.742 1759.5,819C 1755.34,815.753 1751.01,812.753 1746.5,810C 1730.86,802.845 1715.52,795.178 1700.5,787C 1678.09,769.436 1674.26,748.603 1689,724.5C 1699.7,713.881 1712.54,708.215 1727.5,707.5 Z"/></g>
<g><path style="opacity:0.981" fill="#32373c" d="M 667.5,713.5 C 698.502,713.333 729.502,713.5 760.5,714C 777.284,714.978 791.451,721.478 803,733.5C 817.718,759.679 812.218,780.513 786.5,796C 780.637,798.399 774.637,800.399 768.5,802C 775.667,809.833 782.833,817.667 790,825.5C 800.059,836.568 811.559,845.735 824.5,853C 836.038,858.537 847.704,858.87 859.5,854C 863.636,851.204 866.136,847.371 867,842.5C 868.631,809.206 868.964,775.873 868,742.5C 867.519,732.356 862.353,726.19 852.5,724C 848.179,723.501 843.846,723.334 839.5,723.5C 839.5,720.167 839.5,716.833 839.5,713.5C 874.526,713.063 909.526,713.563 944.5,715C 997.696,723.906 1020.86,755.072 1014,808.5C 1007.23,833.942 991.394,851.109 966.5,860C 957.074,863.152 947.408,865.152 937.5,866C 887.5,866.667 837.5,866.667 787.5,866C 770.833,845.333 754.167,824.667 737.5,804C 735.19,803.503 732.857,803.337 730.5,803.5C 730.333,814.505 730.5,825.505 731,836.5C 731.123,846.605 735.957,853.105 745.5,856C 750.481,856.748 755.481,857.248 760.5,857.5C 760.5,860.5 760.5,863.5 760.5,866.5C 729.5,866.5 698.5,866.5 667.5,866.5C 667.5,863.5 667.5,860.5 667.5,857.5C 675.199,857.623 682.532,856.123 689.5,853C 694.478,848.284 696.978,842.45 697,835.5C 697.667,805.167 697.667,774.833 697,744.5C 697.114,735.546 693.28,729.046 685.5,725C 679.577,723.696 673.577,723.196 667.5,723.5C 667.5,720.167 667.5,716.833 667.5,713.5 Z M 730.5,728.5 C 739.173,728.334 747.84,728.5 756.5,729C 770.958,733.386 777.958,743.22 777.5,758.5C 777.607,772.796 770.94,782.296 757.5,787C 748.541,788.217 739.541,788.717 730.5,788.5C 730.5,768.5 730.5,748.5 730.5,728.5 Z M 901.5,728.5 C 912.505,728.333 923.505,728.5 934.5,729C 960.75,733.922 975.25,749.755 978,776.5C 979.807,792.24 978.14,807.574 973,822.5C 965.037,839.786 951.537,849.286 932.5,851C 925.5,851.667 918.5,851.667 911.5,851C 907.104,850.27 904.27,847.77 903,843.5C 901.531,805.207 901.031,766.873 901.5,728.5 Z"/></g>
<g><path style="opacity:0.98" fill="#32373c" d="M 1201.5,713.5 C 1232.5,713.333 1263.5,713.5 1294.5,714C 1311.28,714.978 1325.45,721.478 1337,733.5C 1352.23,762.376 1345.07,783.876 1315.5,798C 1311.21,799.488 1306.88,800.822 1302.5,802C 1315.13,816.967 1328.8,830.967 1343.5,844C 1354.21,853.016 1366.55,857.016 1380.5,856C 1389.74,853.371 1394.58,847.204 1395,837.5C 1395.67,805.833 1395.67,774.167 1395,742.5C 1394.52,732.356 1389.35,726.19 1379.5,724C 1375.18,723.501 1370.85,723.334 1366.5,723.5C 1366.5,720.167 1366.5,716.833 1366.5,713.5C 1411.5,713.5 1456.5,713.5 1501.5,713.5C 1502.91,728.132 1503.91,742.798 1504.5,757.5C 1501.75,757.813 1499.09,757.48 1496.5,756.5C 1495.18,748.028 1491.84,740.528 1486.5,734C 1481.56,731.098 1476.23,729.432 1470.5,729C 1456.5,728.5 1442.5,728.333 1428.5,728.5C 1428.5,745.167 1428.5,761.833 1428.5,778.5C 1436.54,778.598 1444.54,778.098 1452.5,777C 1459.34,776.009 1463.5,772.175 1465,765.5C 1465.5,760.845 1465.67,756.179 1465.5,751.5C 1468.83,751.5 1472.17,751.5 1475.5,751.5C 1475.5,774.5 1475.5,797.5 1475.5,820.5C 1472.17,820.5 1468.83,820.5 1465.5,820.5C 1465.67,815.821 1465.5,811.155 1465,806.5C 1463.25,799.529 1458.75,795.696 1451.5,795C 1443.87,793.858 1436.21,793.358 1428.5,793.5C 1428.13,807.874 1428.63,822.207 1430,836.5C 1430.88,843.049 1434.38,847.549 1440.5,850C 1453.12,851.564 1465.78,851.897 1478.5,851C 1487.48,850.912 1494.65,847.412 1500,840.5C 1502.54,834.703 1504.38,828.703 1505.5,822.5C 1508.17,822.5 1510.83,822.5 1513.5,822.5C 1512.87,836.883 1511.87,851.217 1510.5,865.5C 1447.5,866.667 1384.5,866.833 1321.5,866C 1304.83,845.333 1288.17,824.667 1271.5,804C 1269.19,803.503 1266.86,803.337 1264.5,803.5C 1264.33,814.838 1264.5,826.172 1265,837.5C 1265.39,844.362 1268.22,849.862 1273.5,854C 1279.99,856.145 1286.65,857.311 1293.5,857.5C 1293.5,860.5 1293.5,863.5 1293.5,866.5C 1262.83,866.5 1232.17,866.5 1201.5,866.5C 1201.5,863.5 1201.5,860.5 1201.5,857.5C 1209.2,857.623 1216.53,856.123 1223.5,853C 1228.5,847.548 1231,841.048 1231,833.5C 1231.67,804.5 1231.67,775.5 1231,746.5C 1230.1,727.767 1220.27,720.1 1201.5,723.5C 1201.5,720.167 1201.5,716.833 1201.5,713.5 Z M 1264.5,728.5 C 1273.17,728.334 1281.84,728.5 1290.5,729C 1304.36,733.549 1311.36,743.216 1311.5,758C 1311.8,773.115 1304.8,782.781 1290.5,787C 1281.87,788.201 1273.21,788.701 1264.5,788.5C 1264.5,768.5 1264.5,748.5 1264.5,728.5 Z"/></g>
</svg>
